<svg width="29" height="28" viewBox="0 0 29 28" fill="none" xmlns="http://www.w3.org/2000/svg">
<g id="Group">
<path id="Vector" d="M27.8347 0.69822C26.9545 -0.182374 23.9662 1.37832 23.0858 2.25891L19.5601 5.78486H3.52226C3.33745 5.78485 3.15843 5.8493 3.01605 5.96711C2.87366 6.08492 2.77683 6.24871 2.74224 6.43025C2.70766 6.61179 2.73748 6.79971 2.82656 6.96162C2.91565 7.12353 3.05843 7.2493 3.23029 7.31724L13.8359 11.5085L7.33249 18.0117H1.18148C1.11743 18.0118 1.05541 18.0343 1.00609 18.0751C0.95676 18.116 0.923201 18.1728 0.911168 18.2357C0.899097 18.2986 0.909408 18.3638 0.940317 18.42C0.971225 18.4762 1.02079 18.5197 1.08044 18.5432L6.25646 20.589C6.28657 20.7196 6.32839 20.8473 6.38142 20.9704L6.155 21.1973C5.8324 21.5197 5.8324 22.0421 6.155 22.3649C6.47718 22.6875 7.00056 22.6875 7.32274 22.3649L7.54375 22.144C7.66818 22.1991 7.79738 22.2426 7.92975 22.2741L9.92485 27.3873C9.94822 27.447 9.9917 27.4968 10.0478 27.5279C10.1039 27.559 10.1691 27.5696 10.2322 27.5578C10.2867 27.5478 10.3368 27.5212 10.3758 27.4817C10.4015 27.4563 10.4218 27.4259 10.4357 27.3925C10.4495 27.3591 10.4566 27.3232 10.4564 27.2871V21.2656L17.0629 14.6593L21.2147 25.2999C21.2821 25.4722 21.4076 25.6156 21.5694 25.7054C21.7312 25.7952 21.9193 25.8257 22.1012 25.7916C22.2582 25.7621 22.4026 25.686 22.5159 25.5734C22.6649 25.424 22.7487 25.2218 22.749 25.0108V8.9734L26.2748 5.44751C27.1548 4.56698 28.715 1.57869 27.8347 0.69822Z" fill="#003399"/>
</g>
</svg>
