<svg width="29" height="28" viewBox="0 0 29 28" fill="none" xmlns="http://www.w3.org/2000/svg">
<g id="Group">
<path id="Vector" d="M28.264 0.26913C27.3553 -0.63987 24.2706 0.971171 23.3618 1.88017L19.7224 5.51985H3.16719C2.97643 5.51984 2.79163 5.58637 2.64465 5.70798C2.49768 5.8296 2.39772 5.99867 2.36202 6.18606C2.32631 6.37346 2.35709 6.56744 2.44906 6.73457C2.54102 6.90171 2.6884 7.03153 2.86581 7.10167L13.8135 11.4282L7.10034 18.1411H0.75091C0.684785 18.1412 0.62077 18.1644 0.569853 18.2066C0.518936 18.2488 0.484294 18.3074 0.471874 18.3723C0.459413 18.4373 0.470056 18.5046 0.501962 18.5626C0.533868 18.6206 0.585031 18.6655 0.646601 18.6898L5.9896 20.8015C6.02068 20.9364 6.06385 21.0682 6.11859 21.1953L5.88486 21.4295C5.55186 21.7623 5.55186 22.3015 5.88486 22.6347C6.21743 22.9677 6.7577 22.9677 7.09027 22.6347L7.31841 22.4067C7.44685 22.4635 7.58022 22.5085 7.71686 22.541L9.77632 27.8191C9.80044 27.8808 9.84533 27.9321 9.90324 27.9643C9.96114 27.9964 10.0284 28.0073 10.0935 27.9952C10.1498 27.9848 10.2016 27.9574 10.2418 27.9166C10.2683 27.8903 10.2893 27.859 10.3036 27.8245C10.3179 27.79 10.3252 27.753 10.325 27.7157V21.5L17.1446 14.6806L21.4304 25.6644C21.5 25.8423 21.6294 25.9903 21.7965 26.083C21.9635 26.1757 22.1577 26.2071 22.3455 26.172C22.5075 26.1415 22.6566 26.063 22.7735 25.9467C22.9273 25.7925 23.0138 25.5838 23.0142 25.366V8.81125L26.6537 5.17163C27.562 4.26269 29.1727 1.17801 28.264 0.26913Z" fill="white"/>
</g>
</svg>
