<svg width="44" height="43" viewBox="0 0 44 43" fill="none" xmlns="http://www.w3.org/2000/svg">
<g id="Group">
<path id="Vector" d="M42.6469 0.903695C41.2839 -0.459805 36.6569 1.95676 35.2937 3.32026L29.8346 8.77978H5.00177C4.71562 8.77976 4.43842 8.87956 4.21796 9.06198C3.99749 9.24439 3.84756 9.498 3.794 9.77909C3.74044 10.0602 3.78662 10.3512 3.92456 10.6019C4.06251 10.8526 4.28358 11.0473 4.54969 11.1525L20.9713 17.6423L10.9015 27.7117H1.37734C1.27815 27.7119 1.18213 27.7466 1.10576 27.8099C1.02938 27.8732 0.977418 27.9611 0.958787 28.0585C0.940097 28.156 0.956061 28.2569 1.00392 28.3439C1.05178 28.4308 1.12852 28.4983 1.22088 28.5347L9.23537 31.7022C9.28199 31.9046 9.34675 32.1022 9.42886 32.2929L9.07827 32.6442C8.57876 33.1435 8.57876 33.9523 9.07827 34.4521C9.57712 34.9516 10.3875 34.9516 10.8864 34.4521L11.2286 34.1101C11.4212 34.1953 11.6213 34.2628 11.8263 34.3116L14.9155 42.2287C14.9516 42.3212 15.019 42.3982 15.1058 42.4464C15.1927 42.4946 15.2936 42.511 15.3913 42.4927C15.4757 42.4772 15.5534 42.4361 15.6137 42.375C15.6535 42.3355 15.685 42.2886 15.7064 42.2368C15.7278 42.1851 15.7387 42.1295 15.7385 42.0735V32.75L25.9679 22.5209L32.3965 38.9966C32.5009 39.2634 32.6951 39.4855 32.9457 39.6245C33.1963 39.7635 33.4875 39.8107 33.7692 39.758C34.0122 39.7122 34.2359 39.5945 34.4112 39.42C34.6419 39.1888 34.7717 38.8757 34.7722 38.549V13.7169L40.2315 8.25744C41.594 6.89403 44.0099 2.26701 42.6469 0.903695Z" fill="white"/>
</g>
</svg>
