<svg width="25" height="29" viewBox="0 0 25 29" fill="none" xmlns="http://www.w3.org/2000/svg">
<g id="Group">
<path id="Vector" d="M15.5061 4.68943C14.8131 5.34839 14.1911 6.35099 13.6401 7.45019C13.2454 7.60992 12.8644 7.80181 12.5011 8.02392C12.4472 7.9898 12.3932 7.95859 12.3392 7.92733C12.3733 7.68023 12.4159 7.40472 12.4727 7.115C8.64823 7.81809 6.57291 5.17313 3.01172 3.23514C6.84326 -1.8291 11.9416 2.58188 12.7652 5.91072C13.0436 4.97339 13.4554 4.01905 14.0746 3.31187C14.4723 2.85744 15.1823 2.87165 15.5743 3.32893C15.9152 3.72939 15.8867 4.32588 15.5061 4.68943Z" fill="#003399"/>
<path id="Vector_2" d="M24.0468 15.5308C23.5707 20.6497 17.5242 32.7816 12.501 26.1052C7.6348 32.635 1.47278 21.1042 0.955279 15.5308C0.378912 9.26939 7.38367 5.2267 12.5011 8.69991C15.6272 6.58666 19.8967 7.13289 22.3682 10.1087C23.635 11.6368 24.2314 13.5597 24.0468 15.5308Z" fill="#003399"/>
</g>
</svg>
