<svg width="31" height="26" viewBox="0 0 31 26" fill="none" xmlns="http://www.w3.org/2000/svg">
<g id="Group">
<g id="21 - 30">
<path id="Vector" d="M29.6661 10.2062C29.4566 9.74249 29.2233 9.28981 28.9673 8.84998L25.6697 17.8077C25.544 18.1424 25.361 18.4527 25.1291 18.7248C26.0143 18.6372 26.8673 18.3463 27.6215 17.8748C28.3758 17.4033 29.011 16.764 29.4776 16.0067C29.9441 15.2494 30.2295 14.3946 30.3114 13.5089C30.3933 12.6232 30.2695 11.7305 29.9496 10.9005C29.8624 10.6662 29.7679 10.4346 29.6661 10.2062ZM10.7393 2.13331C8.81516 2.81824 7.04897 3.88438 5.54648 5.2679C4.044 6.65142 2.83612 8.32387 1.99514 10.1851C1.15417 12.0464 0.697394 14.0582 0.652161 16.1002C0.606929 18.1421 0.974168 20.1722 1.7319 22.0689C1.75192 22.1096 1.76548 22.1496 1.7855 22.1903C2.18806 23.1517 2.84345 23.986 3.68209 24.6048C4.52073 25.2236 5.5113 25.6037 6.54861 25.7048C7.58591 25.8059 8.63123 25.6241 9.57354 25.1788C10.5159 24.7336 11.32 24.0414 11.9005 23.1759C13.1148 21.3468 14.8579 19.9315 16.8974 19.1187C16.9619 19.0929 17.0265 19.0735 17.0911 19.0496C17.3207 18.5199 17.6624 18.0462 18.0927 17.6613C18.5229 17.2763 19.0315 16.9891 19.5834 16.8196C19.5699 16.3332 19.6697 15.8503 19.8746 15.4091L24.9767 4.36079C22.9726 2.84158 20.6231 1.84292 18.1385 1.45419C15.6539 1.06547 13.1117 1.2988 10.7393 2.13331ZM6.78038 18.9896C6.26944 18.9896 5.76998 18.8381 5.34515 18.5542C4.92033 18.2703 4.58921 17.8669 4.39369 17.3948C4.19816 16.9228 4.147 16.4034 4.24668 15.9022C4.34636 15.4011 4.5924 14.9408 4.95368 14.5795C5.31497 14.2183 5.77527 13.9722 6.27639 13.8725C6.77751 13.7729 7.29693 13.824 7.76897 14.0195C8.24102 14.2151 8.64448 14.5462 8.92834 14.971C9.2122 15.3958 9.36371 15.8953 9.36371 16.4062C9.36371 17.0914 9.09154 17.7485 8.60707 18.2329C8.1226 18.7174 7.46552 18.9896 6.78038 18.9896ZM10.0095 11.5625C9.49861 11.5625 8.99915 11.411 8.57432 11.1271C8.14949 10.8432 7.81838 10.4398 7.62285 9.96775C7.42733 9.4957 7.37617 8.97628 7.47585 8.47516C7.57552 7.97405 7.82156 7.51374 8.18285 7.15245C8.54414 6.79117 9.00444 6.54513 9.50556 6.44545C10.0067 6.34577 10.5261 6.39693 10.9981 6.59246C11.4702 6.78798 11.8736 7.1191 12.1575 7.54392C12.4414 7.96875 12.5929 8.46821 12.5929 8.97915C12.5929 9.66429 12.3207 10.3214 11.8362 10.8058C11.3518 11.2903 10.6947 11.5625 10.0095 11.5625ZM17.7595 9.30206C17.2486 9.30206 16.7491 9.15055 16.3243 8.86669C15.8995 8.58283 15.5684 8.17937 15.3729 7.70733C15.1773 7.23529 15.1262 6.71586 15.2258 6.21475C15.3255 5.71363 15.5716 5.25332 15.9328 4.89204C16.2941 4.53075 16.7544 4.28471 17.2556 4.18503C17.7567 4.08536 18.2761 4.13651 18.7481 4.33204C19.2202 4.52757 19.6236 4.85868 19.9075 5.28351C20.1914 5.70833 20.3429 6.2078 20.3429 6.71873C20.3429 7.40387 20.0707 8.06095 19.5862 8.54542C19.1018 9.02989 18.4447 9.30206 17.7595 9.30206ZM29.3703 0.680834C29.0838 0.561815 28.7623 0.558426 28.4733 0.671378C28.1843 0.784329 27.9502 1.00484 27.8203 1.28663L21.0494 15.9503C20.8935 16.2876 20.8431 16.6641 20.9047 17.0306C20.9664 17.397 21.1372 17.7363 21.3949 18.004C20.7655 17.8564 20.1041 17.9371 19.5287 18.2317C18.9532 18.5264 18.5011 19.0158 18.253 19.6128C17.2074 22.138 18.8613 23.2456 17.8151 25.7708C19.0078 25.6376 20.144 25.1909 21.1082 24.4763C22.0724 23.7616 22.8302 22.8045 23.3047 21.7021C23.528 21.1592 23.5701 20.5587 23.4247 19.99C23.2792 19.4213 22.954 18.9148 22.4974 18.5459C22.9103 18.5991 23.3291 18.5108 23.6853 18.2953C24.0415 18.0798 24.3142 17.7499 24.4588 17.3595L30.0388 2.20113C30.1447 1.91041 30.1344 1.59001 30.0098 1.30676C29.8853 1.02351 29.6562 0.799277 29.3703 0.680834Z" fill="#003399"/>
</g>
</g>
</svg>
