<svg width="42" height="43" viewBox="0 0 42 43" fill="none" xmlns="http://www.w3.org/2000/svg">
<g id="Group">
<path id="Vector" d="M20.9993 35.0967H40.7688C41.4484 35.0967 41.9993 35.6476 41.9993 36.3271V41.2695C41.9993 41.9491 41.4484 42.5 40.7688 42.5H20.9993C20.3197 42.5 19.7688 41.9491 19.7688 41.2695V36.3271C19.7688 35.6476 20.3197 35.0967 20.9993 35.0967ZM1.08341 32.3135L14.1998 19.1971L19.4347 24.432L6.3184 37.5484C5.59677 38.2701 4.64882 38.6309 3.70094 38.6309C2.75307 38.6309 1.80512 38.2701 1.08349 37.5484C-0.359848 36.1052 -0.359848 33.7568 1.08341 32.3135ZM14.1825 15.7032L22.9109 6.97482L31.6537 15.7177L22.9254 24.4462L14.1825 15.7032ZM36.0168 16.5797L37.7715 18.3343C38.252 18.8149 38.252 19.5939 37.7715 20.0745L27.2871 30.5589C27.0468 30.7991 26.7319 30.9193 26.417 30.9193C26.1022 30.9193 25.7872 30.7992 25.547 30.5589L23.7924 28.8042C23.3118 28.3237 23.3118 27.5446 23.7924 27.0641L34.2767 16.5798C34.7572 16.0992 35.5363 16.0991 36.0168 16.5797ZM11.5678 14.8396C11.0873 15.3201 10.3082 15.3201 9.82769 14.8396L8.07304 13.0849C7.59251 12.6044 7.59251 11.8253 8.07304 11.3448L18.5574 0.860373C19.0378 0.379917 19.8169 0.379835 20.2975 0.860373L22.0522 2.61502C22.5327 3.09556 22.5327 3.87461 22.0522 4.35515L11.5678 14.8396Z" fill="white"/>
</g>
</svg>
