<svg width="29" height="31" viewBox="0 0 29 31" fill="none" xmlns="http://www.w3.org/2000/svg">
<g id="Group">
<path id="Vector" d="M1.47163 27.9477H27.4599C27.5523 27.9477 27.6438 27.9659 27.7291 28.0013C27.8145 28.0367 27.892 28.0885 27.9573 28.1539C28.0227 28.2192 28.0745 28.2968 28.1098 28.3822C28.1451 28.4675 28.1633 28.559 28.1633 28.6514V29.5216C28.1633 29.614 28.1451 29.7055 28.1097 29.7908C28.0743 29.8762 28.0225 29.9538 27.9571 30.0191C27.8918 30.0844 27.8142 30.1362 27.7288 30.1715C27.6434 30.2069 27.552 30.225 27.4596 30.225H1.47194C1.28545 30.2249 1.10662 30.1508 0.974773 30.0189C0.842929 29.887 0.768865 29.7081 0.768865 29.5216V28.6511C0.768865 28.4646 0.842929 28.2858 0.974773 28.1539C1.10662 28.0219 1.28514 27.9478 1.47163 27.9477ZM27.8446 7.39658L14.8165 0.850313C14.7185 0.801048 14.6103 0.775391 14.5006 0.775391C14.3909 0.775391 14.2827 0.801048 14.1847 0.850313L1.15605 7.39658C1.03958 7.45513 0.941667 7.54489 0.873242 7.65585C0.804817 7.7668 0.768573 7.89459 0.768555 8.02495V9.16513C0.768555 9.35163 0.842619 9.53049 0.974463 9.6624C1.10631 9.7943 1.28514 9.86844 1.47163 9.86852H27.529C27.7155 9.86844 27.8943 9.7943 28.0262 9.6624C28.158 9.53049 28.2321 9.35163 28.2321 9.16513V8.02495C28.2321 7.75897 28.0823 7.51593 27.8446 7.39658ZM3.81771 12.6743H6.41365C6.6001 12.6744 6.77888 12.7485 6.91072 12.8804C7.04255 13.0122 7.11665 13.191 7.11673 13.3774V24.5771C7.11673 24.7636 7.04267 24.9425 6.91083 25.0744C6.77898 25.2063 6.60015 25.2804 6.41365 25.2805H3.81771C3.72529 25.2805 3.63377 25.2624 3.54837 25.227C3.46298 25.1917 3.38539 25.1398 3.32003 25.0745C3.25468 25.0091 3.20285 24.9315 3.1675 24.8461C3.13215 24.7607 3.11397 24.6692 3.11401 24.5768V13.3777C3.11406 13.2854 3.13229 13.1939 3.16768 13.1086C3.20306 13.0232 3.25491 12.9457 3.32025 12.8804C3.3856 12.8152 3.46316 12.7634 3.54852 12.7281C3.63387 12.6928 3.72534 12.6746 3.81771 12.6746V12.6743ZM13.2023 12.6743H15.7983C15.9847 12.6744 16.1635 12.7485 16.2953 12.8804C16.4272 13.0122 16.5013 13.191 16.5014 13.3774V24.5771C16.5014 24.7636 16.4273 24.9425 16.2955 25.0744C16.1636 25.2063 15.9848 25.2804 15.7983 25.2805H13.2023C13.11 25.2804 13.0185 25.2622 12.9332 25.2268C12.8479 25.1914 12.7704 25.1396 12.7051 25.0742C12.6398 25.0089 12.588 24.9313 12.5527 24.846C12.5174 24.7606 12.4992 24.6692 12.4993 24.5768V13.3777C12.4993 13.1913 12.5734 13.0125 12.7053 12.8807C12.8371 12.7488 13.0159 12.6747 13.2023 12.6746V12.6743ZM22.587 12.6743H25.1826C25.275 12.6743 25.3664 12.6924 25.4518 12.7278C25.5372 12.7631 25.6147 12.8148 25.6801 12.8801C25.7454 12.9454 25.7973 13.0229 25.8326 13.1083C25.868 13.1936 25.8863 13.285 25.8863 13.3774V24.5771C25.8863 24.6695 25.8681 24.761 25.8327 24.8463C25.7974 24.9317 25.7455 25.0093 25.6802 25.0746C25.6148 25.1399 25.5372 25.1917 25.4519 25.227C25.3665 25.2624 25.275 25.2805 25.1826 25.2805H22.587C22.4946 25.2804 22.4031 25.2622 22.3178 25.2268C22.2325 25.1914 22.155 25.1396 22.0897 25.0742C22.0244 25.0089 21.9726 24.9313 21.9373 24.846C21.902 24.7606 21.8839 24.6692 21.8839 24.5768V13.3777C21.884 13.1913 21.9581 13.0125 22.0899 12.8807C22.2217 12.7488 22.4005 12.6747 22.587 12.6746V12.6743Z" fill="#003399"/>
</g>
</svg>
