<svg width="16" height="12" viewBox="0 0 16 12" fill="none" xmlns="http://www.w3.org/2000/svg">
<g id="Group">
<path id="Vector" d="M10.7742 0.544177C10.7216 0.490607 10.6589 0.448056 10.5897 0.419008C10.5204 0.389961 10.4461 0.375 10.371 0.375C10.296 0.375 10.2216 0.389961 10.1524 0.419008C10.0832 0.448056 10.0205 0.490607 9.96786 0.544177C9.86314 0.65062 9.80444 0.793962 9.80444 0.943288C9.80444 1.09261 9.86314 1.23596 9.96786 1.3424L14.0565 5.43106H0.564496C0.490229 5.43073 0.416631 5.44511 0.347957 5.47339C0.279284 5.50168 0.216898 5.54329 0.164406 5.59583C0.111914 5.64837 0.0703566 5.71079 0.0421372 5.77949C0.0139179 5.84819 -0.00040395 5.9218 -2.81674e-07 5.99607C-2.81674e-07 6.31058 0.249984 6.56869 0.564496 6.56869H14.0565L9.96786 10.6497C9.74989 10.8753 9.74989 11.2386 9.96786 11.4561C10.0205 11.5097 10.0832 11.5522 10.1524 11.5813C10.2216 11.6103 10.296 11.6253 10.371 11.6253C10.4461 11.6253 10.5204 11.6103 10.5897 11.5813C10.6589 11.5522 10.7216 11.5097 10.7742 11.4561L15.8308 6.3995C15.8843 6.34771 15.9269 6.28569 15.9559 6.21713C15.985 6.14857 16 6.07486 16 6.00039C16 5.92591 15.985 5.85221 15.9559 5.78364C15.9269 5.71508 15.8843 5.65306 15.8308 5.60127L10.7742 0.544177Z" fill="#0066FF"/>
</g>
</svg>
