<svg width="27" height="31" viewBox="0 0 27 31" fill="none" xmlns="http://www.w3.org/2000/svg">
<g id="Group">
<g id="Group_2">
<path id="Vector" d="M4.79785 26.3772L6.42943 27.6009L8.06101 26.3772V23.386H4.79785V26.3772Z" fill="#003399"/>
<path id="Vector_2" d="M18.2135 19.5789H4.79814C3.64422 19.5789 2.53756 20.0373 1.72161 20.8533C0.90566 21.6692 0.447266 22.7759 0.447266 23.9298L0.447266 29.3684C0.448557 29.8007 0.620869 30.215 0.92657 30.5207C1.23227 30.8264 1.64652 30.9987 2.07884 31H8.37184C8.44556 31.0001 8.51853 30.9852 8.58631 30.9562C8.65409 30.9272 8.71528 30.8847 8.76614 30.8314L18.61 20.4981C18.6836 20.4208 18.7329 20.3237 18.7517 20.2186C18.7705 20.1136 18.758 20.0053 18.7157 19.9074C18.6735 19.8094 18.6033 19.726 18.514 19.6676C18.4247 19.6092 18.3202 19.5784 18.2135 19.5789ZM9.14902 26.3772C9.14864 26.546 9.10916 26.7124 9.03367 26.8634C8.95818 27.0143 8.84874 27.1458 8.71393 27.2474L7.08235 28.471C6.69513 28.7593 6.16432 28.7593 5.77709 28.471L4.14551 27.2479C4.0107 27.1463 3.90126 27.0149 3.82577 26.8639C3.75028 26.7129 3.7108 26.5465 3.71042 26.3777V23.386C3.71042 23.0975 3.82502 22.8208 4.02901 22.6168C4.233 22.4128 4.50966 22.2982 4.79814 22.2982H8.0613C8.34978 22.2982 8.62645 22.4128 8.83043 22.6168C9.03442 22.8208 9.14902 23.0975 9.14902 23.386V26.3772ZM22.5318 19.5909C22.4521 19.5864 22.3724 19.5994 22.2983 19.6291C22.2243 19.6588 22.1577 19.7044 22.1032 19.7628L12.2806 30.0809C12.2071 30.158 12.1578 30.2549 12.139 30.3598C12.1201 30.4646 12.1324 30.5727 12.1744 30.6705C12.2164 30.7684 12.2862 30.8518 12.3752 30.9104C12.4641 30.969 12.5683 31.0001 12.6749 31H24.9209C25.3533 30.9987 25.7675 30.8264 26.0732 30.5207C26.3789 30.215 26.5512 29.8007 26.5525 29.3684V23.9298C26.5527 22.8329 26.1385 21.7765 25.393 20.9719C24.6474 20.1674 23.6255 19.6741 22.5318 19.5909ZM24.9209 28.8245C24.9209 28.9688 24.8637 29.1071 24.7617 29.2091C24.6597 29.3111 24.5213 29.3684 24.3771 29.3684H21.6578C21.5136 29.3684 21.3752 29.3111 21.2732 29.2091C21.1712 29.1071 21.1139 28.9688 21.1139 28.8245C21.1139 28.6803 21.1712 28.542 21.2732 28.44C21.3752 28.338 21.5136 28.2807 21.6578 28.2807H23.8332V26.6491C23.8332 26.5049 23.8905 26.3665 23.9925 26.2645C24.0945 26.1625 24.2329 26.1053 24.3771 26.1053C24.5213 26.1053 24.6597 26.1625 24.7617 26.2645C24.8637 26.3665 24.9209 26.5049 24.9209 26.6491V28.8245ZM20.5701 9.78946C20.5701 13.6944 17.4048 16.8596 13.4999 16.8596C9.59499 16.8596 6.42972 13.6944 6.42972 9.78946C6.42972 9.24016 6.49499 8.69195 6.62334 8.15788C7.35592 8.42927 8.1097 8.63865 8.87709 8.78332C10.3988 9.09278 11.9472 9.24886 13.4999 9.24941C15.0525 9.24849 16.6012 9.09235 18.1227 8.78332C18.8905 8.63941 19.6447 8.4311 20.3775 8.1606C20.5054 8.69358 20.5701 9.24071 20.5701 9.78946ZM21.1732 4.96162C19.3246 3.9446 15.4496 3.807 13.4999 3.807C13.4716 3.807 12.8005 3.807 11.8406 3.8565C11.7692 3.86007 11.6991 3.87767 11.6345 3.9083C11.5699 3.93893 11.512 3.98199 11.464 4.03502C11.416 4.08804 11.3789 4.15 11.3549 4.21735C11.3309 4.2847 11.3203 4.35613 11.3239 4.42755C11.3275 4.49897 11.3451 4.56899 11.3757 4.6336C11.4064 4.69822 11.4494 4.75617 11.5024 4.80415C11.5555 4.85213 11.6174 4.88919 11.6848 4.91322C11.7521 4.93725 11.8235 4.94779 11.895 4.94421C12.8261 4.89472 13.4934 4.89472 13.4999 4.89472C17.4848 4.89472 21.1139 5.58488 21.1139 6.34139C21.1139 6.3713 21.0775 7.07778 17.9052 7.71736C14.9982 8.30939 12.0016 8.30939 9.09463 7.71736C5.9223 7.07778 5.88586 6.3713 5.88586 6.34139C5.88586 6.09176 6.58309 5.5256 9.22135 5.17264C9.36259 5.15149 9.48985 5.07565 9.57564 4.96148C9.66143 4.8473 9.69887 4.70397 9.67987 4.56243C9.66088 4.42088 9.58697 4.29249 9.47411 4.20498C9.36125 4.11747 9.2185 4.07786 9.07669 4.09471C7.94816 4.19466 6.84477 4.4854 5.81353 4.95455C4.53437 4.3563 4.77258 3.75099 4.89223 3.44969C5.5242 1.83823 9.63849 0.608566 12.9696 0.0445833C13.3207 -0.0146984 13.6791 -0.0146984 14.0302 0.0445833C17.3613 0.608566 21.4756 1.83823 22.1092 3.45132C22.2201 3.73032 22.4692 4.36446 21.1732 4.96162Z" fill="#003399"/>
</g>
</g>
</svg>
