<svg width="30" height="26" viewBox="0 0 30 26" fill="none" xmlns="http://www.w3.org/2000/svg">
<g id="Group">
<path id="Vector" d="M26.0742 9.60616V10.4706C24.0741 10.5043 22.1246 11.0298 20.3958 11.9962L19.4636 11.5554C17.955 10.8264 16.2599 10.4537 14.5649 10.4537H13.1411C11.7342 10.4537 10.5985 11.5892 10.5985 12.9962V14.4199C10.5985 16.9118 11.3952 19.3016 12.8866 21.3019L14.0054 22.7934V22.8103C14.0054 23.4883 14.0564 24.1835 14.1749 24.8615L14.3276 25.709H9.97135C9.49656 25.709 9.12384 25.3359 9.12384 24.8615V17.2338H1.38316C0.908372 17.2338 0.535645 16.8607 0.535645 16.3863V9.60616C0.535645 9.13136 0.908372 8.75864 1.38316 8.75864H9.12384V1.13097C9.12384 0.656175 9.49656 0.283447 9.97135 0.283447H16.7515C17.2263 0.283447 17.599 0.656175 17.599 1.13097V8.75864H25.2267C25.7013 8.75864 26.0742 9.13136 26.0742 9.60616Z" fill="#003399"/>
<path id="Vector_2" d="M18.7346 13.081C17.9905 13.6527 17.3189 14.313 16.7346 15.0472C15.4803 16.5895 14.6328 18.3862 14.2429 20.2849C12.9884 18.6068 12.2935 16.5727 12.2935 14.4199V12.9962C12.2935 12.5214 12.6665 12.1487 13.141 12.1487H14.565C16.0227 12.1487 17.4466 12.4706 18.7346 13.081ZM28.6168 12.1487H26.3455C23.7351 12.1487 21.2604 13.0979 19.328 14.7929C18.8704 15.1826 18.4466 15.6235 18.0568 16.0981C16.1242 18.5051 15.3278 21.5731 15.853 24.5733C16.1931 24.2333 19.7742 20.6525 19.5484 20.8781C19.8705 20.5391 20.4129 20.5391 20.7349 20.8781C21.0739 21.2004 21.0739 21.7426 20.7349 22.0647C20.5239 22.2757 16.8614 25.938 17.0906 25.709C17.7767 25.5944 23.3405 26.494 27.0405 22.0479C28.6168 20.1323 29.4644 17.7762 29.4644 15.2677V12.9962C29.4644 12.5214 29.0915 12.1487 28.6168 12.1487Z" fill="#003399"/>
</g>
</svg>
