<svg width="102" height="93" viewBox="0 0 102 93" fill="none" xmlns="http://www.w3.org/2000/svg">
<g id="Group">
<g id="Vector">
<mask id="path-1-outside-1_236_3941" maskUnits="userSpaceOnUse" x="0" y="0" width="121" height="106" fill="black">
<rect fill="white" width="121" height="106"/>
<path d="M54.0467 1.02444C53.8185 1.05704 53.1503 1.20371 52.5474 1.33409C51.6184 1.54595 51.2762 1.56225 50.3473 1.39928C49.728 1.28519 48.685 1.22001 48.0168 1.2526C46.7783 1.31779 46.6805 1.36668 44.3989 2.57265C43.7796 2.89859 42.9485 3.04527 39.9173 3.33861C37.8965 3.55047 36.9838 3.8764 35.2564 5.03349C33.4311 6.23946 32.6 6.63058 30.351 7.34764C28.6072 7.91803 28.3302 8.04841 27.4827 8.83066C26.7005 9.56402 26.2931 9.79218 24.7775 10.33C22.6263 11.0959 21.8929 11.4708 20.361 12.5138C19.2202 13.3123 18.9106 13.7197 18.3891 15.0887C18.1609 15.6591 16.3194 17.7939 15.2438 18.6903C14.7549 19.0977 13.5652 19.994 12.5711 20.6785C11.5933 21.3467 10.6155 22.08 10.4199 22.2919C10.2243 22.4875 9.73543 23.5793 9.32801 24.6875C8.46427 27.018 7.7798 28.338 6.45975 30.1633C4.22708 33.2434 3.72188 34.596 3.54261 37.9695C3.39594 40.3651 3.21667 41.1474 2.36924 42.8097C-0.205673 47.9269 0.918812 54.9835 5.1723 60.4918C8.18722 64.4031 13.1415 67.1898 18.5357 67.9884C21.8277 68.4773 28.2976 68.0862 29.7969 67.3039C30.2695 67.0595 30.2858 67.0757 30.9703 67.6787C32.1925 68.7706 32.6977 69.667 33.0237 71.264C34.0341 76.3324 37.9453 80.3903 43.5678 82.2156C47.1205 83.3563 51.7162 82.9489 55.7578 81.14C57.1268 80.5207 57.5994 80.3903 58.6913 80.3251C61.7714 80.1296 64.77 81.7918 67.0353 84.9534C67.6709 85.8661 71.5006 93.4767 75.4771 101.788C76.2756 103.45 77.009 104.852 77.0905 104.917C77.6935 105.325 77.3023 104.282 75.5097 100.631C74.3852 98.3495 72.7718 94.9923 71.9081 93.1508C69.7243 88.5225 67.8664 85.0675 66.9538 83.9267C65.4545 82.0852 63.4011 80.6185 61.4129 80.0155C60.9891 79.9014 59.9787 79.7873 59.1476 79.7873H57.6646L57.5994 76.202L57.5505 72.6167L53.3622 68.4121L49.1576 64.2238V60.7689V57.3139L49.565 56.9065C50.0539 56.4176 50.0865 55.945 49.6465 55.505C49.2554 55.1138 49.0272 55.0975 48.5383 55.4398C48.082 55.7494 48.0657 56.4991 48.5057 56.8902C48.8154 57.1672 48.8317 57.3954 48.8317 60.7851V64.3868L52.9711 68.5425C56.426 71.9974 57.1431 72.796 57.2246 73.2686C57.2735 73.5782 57.306 75.1916 57.2735 76.8539L57.2246 79.8525L55.9371 80.4881C53.8022 81.5148 50.771 82.3948 49.3206 82.3948H48.8643L48.9457 81.3681C49.0435 80.2599 48.848 79.6244 48.4079 79.6244C48.1961 79.6244 48.2124 79.7058 48.4894 80.0481C48.848 80.5044 48.9131 80.9933 48.7176 81.9059L48.6198 82.4437L46.8923 82.3459C44.8226 82.2319 43.2581 81.8244 41.3188 80.8629C38.7602 79.5918 36.7883 77.8969 35.3215 75.7457C33.9363 73.6923 33.3496 71.9811 33.3496 69.9277C33.3496 68.2654 33.6593 67.1083 34.4252 65.9513C34.963 65.1364 34.9793 65.0875 34.5719 65.4461C33.92 66.049 33.3007 67.1898 33.1052 68.1676L32.9259 69.0314L31.9155 67.9069L30.9051 66.7661L31.2636 66.1468C32.3881 64.2564 30.9377 61.4207 28.3302 60.3614C27.4176 59.9866 27.2872 59.9866 21.4529 59.9866C14.9504 59.9866 15.0156 59.9866 13.6956 58.9925C13.3859 58.748 11.8377 57.1998 10.2732 55.5538L7.42127 52.5552L7.51905 51.8708C7.61683 51.2841 7.56794 51.1211 7.20941 50.73C6.7368 50.2085 6.16641 50.1596 5.62861 50.5996C4.84636 51.2189 5.31897 52.7345 6.29679 52.7345C6.7531 52.7345 8.07315 54.0056 11.7236 57.9658C12.7341 59.0577 13.6141 59.8725 14.1682 60.1659L15.0156 60.6385L21.2084 60.72L27.4013 60.8014L28.4117 61.2741C30.2206 62.1052 31.231 63.6371 30.9866 65.1364C30.6932 66.8313 29.4547 67.3365 24.5819 67.7276C22.2025 67.9232 19.2691 67.7602 17.1016 67.3039C13.2556 66.5217 9.73543 64.6312 6.94866 61.8607C4.08041 59.0251 2.23886 55.4235 1.65217 51.4796C1.24475 48.8395 1.35883 46.6394 1.99441 44.6186L2.27145 43.7712H5.6938H9.11615L10.7295 42.1741C12.9785 39.974 13.8259 38.8984 12.0659 40.4629C11.3325 41.1148 10.6318 41.7667 10.5177 41.9133C10.3873 42.0763 9.93099 42.4837 9.50727 42.826L8.70872 43.4453H5.62861C3.93374 43.4453 2.5485 43.4127 2.5485 43.3801C2.5485 43.3475 2.76036 42.8586 3.03741 42.2882C3.72188 40.7889 4.01522 39.5014 4.01522 37.8717V36.4539L5.93825 36.5354L7.84499 36.6332L8.43168 35.6716C9.62135 33.7812 9.70284 33.3901 8.56205 35.0524C8.17093 35.6227 7.74721 36.1442 7.60054 36.1931C7.47016 36.2583 6.63902 36.242 5.74269 36.1768L4.1456 36.0628L4.24338 35.3131C4.39005 34.2375 5.12341 32.7708 6.67161 30.5218C8.49687 27.8491 8.74132 27.4091 9.63765 24.9483C10.0777 23.7749 10.5829 22.6504 10.7621 22.4386C10.9577 22.2267 11.9192 21.5259 12.897 20.8741C14.7223 19.6681 16.7594 17.9732 17.3787 17.1584C17.8676 16.5228 18.0142 16.6043 17.835 17.4028C17.6068 18.4132 17.7861 19.717 18.2587 20.5155C18.4706 20.8904 19.7417 22.2593 21.0781 23.563C22.3981 24.8505 23.2781 25.6165 23.0174 25.2742C22.7403 24.9157 21.681 23.7749 20.638 22.7482C19.5787 21.7052 18.6009 20.5807 18.4217 20.2222C17.8676 19.0488 18.1283 16.6206 19.0247 14.4857C19.3669 13.6871 20.6869 12.5789 22.2025 11.8293C23.1804 11.3567 26.342 10.1507 26.342 10.2648C26.342 10.2974 26.179 10.6722 25.9834 11.1122C25.6575 11.8293 25.6249 12.1878 25.6249 14.7627C25.6086 16.8161 25.6738 17.7939 25.8368 18.2666C25.9997 18.7229 26.7983 19.6518 28.6724 21.5585C30.5629 23.4816 31.2962 24.3453 31.394 24.7364L31.5244 25.2742L31.5407 24.7527C31.557 24.1171 31.0192 23.4164 28.3465 20.6133C26.0323 18.1688 26.016 18.1525 26.016 14.6975C26.016 12.0574 26.2768 10.8352 27.0916 9.74329C27.9553 8.56991 28.705 8.12989 30.9051 7.51061C31.7362 7.28246 32.8933 6.87503 33.48 6.59798C34.0667 6.33723 34.5556 6.12537 34.5882 6.12537C34.6045 6.12537 34.5556 6.36983 34.4741 6.64687C34.2297 7.51061 34.3111 8.5862 34.6697 9.31956C35.0608 10.1507 36.2668 10.9981 37.212 11.0959C37.7335 11.1611 37.7661 11.1611 37.3913 11.0307C35.1423 10.2811 34.1971 8.47213 34.9793 6.41872C35.729 4.4142 37.3587 3.72973 42.101 3.43639L43.747 3.33861L43.8122 5.83203C43.8611 8.03211 43.91 8.40694 44.2359 9.00993C44.7737 10.0366 46.0449 10.9004 47.2835 11.0796L47.9353 11.1774L47.2835 10.9656C45.8656 10.4929 45.0834 9.85736 44.4967 8.73288C44.2522 8.26027 44.2033 7.75507 44.2033 5.83203L44.187 3.50157L44.8389 2.94748C46.0775 1.87189 46.762 1.64373 48.5872 1.66003C51.211 1.67632 52.7755 2.47487 53.6555 4.28383L54.1119 5.19645L54.2096 14.0457C54.2748 18.9184 54.3563 22.9601 54.4215 23.009C54.4867 23.0741 54.5356 19.0651 54.5356 14.0783V5.03349L54.0304 4.02308C53.7207 3.42009 53.297 2.8497 52.9385 2.58895C52.5962 2.3445 52.3029 2.11634 52.254 2.08375C52.091 1.96967 52.6614 1.7578 53.6881 1.57854C54.4704 1.43187 56.5401 1.38298 60.8099 1.43187L66.8397 1.48076L67.6546 1.92078C68.1109 2.14893 68.6161 2.45857 68.7953 2.60525C69.1213 2.8334 69.105 2.8497 68.5835 3.40379C67.5405 4.47939 67.4101 5.18015 67.4264 9.27068C67.4427 11.6337 67.4916 12.6604 67.5894 12.2367C67.6546 11.8782 67.7198 10.3463 67.7198 8.84695C67.7361 7.33134 67.8175 5.78314 67.9153 5.40831C68.1598 4.3979 68.8931 3.61565 70.1154 3.01266L71.1584 2.49117L73.1629 2.58895C74.4993 2.65414 75.6889 2.81711 76.7808 3.09415C77.6772 3.33861 79.4372 3.63195 80.6921 3.76233C83.3159 4.03938 84.5544 4.3979 86.4449 5.39201C87.879 6.15797 89.9324 7.49432 90.2421 7.85284C90.3887 8.03211 90.2746 8.04841 89.5902 7.96693C88.4657 7.83655 86.9175 8.16248 85.7441 8.78177C84.3263 9.53143 83.1203 10.8352 81.8166 12.9538C80.3824 15.3168 79.5513 16.2457 78.2964 16.865C77.1882 17.4354 76.5527 17.4843 75.2326 17.1258C74.1081 16.8324 74.0104 16.9139 75.0208 17.305C77.5631 18.2829 79.9261 16.9628 82.0936 13.3775C84.3915 9.54772 87.1293 8.081 90.8124 8.71658C94.7074 9.38475 100.118 12.1226 102.644 14.6649C103.948 15.9687 105.284 18.1688 105.268 18.9347C105.235 20.1896 103.214 22.3897 101.357 23.1719C100.786 23.4164 100.346 23.6445 100.395 23.6771C100.525 23.8238 102.725 22.8786 103.524 22.3408C104.404 21.7378 105.268 20.597 105.626 19.554L105.822 18.9999L106.213 19.6029C106.425 19.9288 107.126 20.5481 107.745 20.9718C109.146 21.9334 110.418 23.2697 110.907 24.2964C111.493 25.5513 112.357 28.2729 112.569 29.5277C112.699 30.3914 112.715 30.8967 112.569 31.5322C112.357 32.5589 112.341 32.7382 112.536 32.6241C112.699 32.51 113.041 31.3204 113.09 30.6522C113.107 30.3752 113.188 30.1633 113.253 30.1633C113.481 30.1633 115.339 32.9012 115.893 34.0583C116.61 35.5576 116.757 36.242 116.969 39.2407C117.213 42.6467 117.116 44.7653 116.627 45.7594C116.04 47.0143 114.687 48.0084 113.579 48.0084C113.237 48.0084 113.188 48.0573 113.367 48.1551C113.889 48.4973 115.404 47.8943 116.268 47.0143C117.018 46.2483 117.409 45.3357 117.572 43.9342L117.702 42.7119L117.996 43.3638C118.159 43.7223 118.501 44.6675 118.778 45.4824C119.251 46.8513 119.283 47.1284 119.316 49.7847L119.365 52.6204L118.533 51.8219C117.246 50.5996 116.529 49.9966 116.79 50.3714C116.92 50.5507 117.605 51.2515 118.338 51.9359L119.642 53.1745V55.6027C119.642 58.4384 119.413 59.514 118.338 61.8119C117.262 64.1097 116.007 65.772 114.133 67.3854C112.846 68.4936 112.422 68.6565 110.385 68.9499C107.908 69.2758 101.96 69.4551 101.454 69.1943C100.982 68.9499 99.6779 67.7113 99.6779 67.5158C99.6779 67.4343 100.02 66.9454 100.428 66.4076L101.194 65.4461L102.921 65.4298C103.866 65.4135 106.001 65.3483 107.663 65.2994L110.678 65.1853L105.952 65.1527C103.361 65.1364 101.145 65.1853 101.063 65.2505C100.965 65.3157 100.46 65.8535 99.9387 66.4728L98.9935 67.5647H93.5177H88.0583L86.6567 66.1794L85.2552 64.8105L85.1574 62.806L85.0759 60.8014L85.0433 62.9037L85.0107 65.006L86.4449 66.4728L87.8953 67.9395L91.2199 67.9884C93.0451 68.0047 95.6526 68.0373 97.0053 68.0373L99.4661 68.0536L100.411 68.8847L101.373 69.7321L105.219 69.6344C109.815 69.5366 111.868 69.2432 113.172 68.5425C113.661 68.2817 114.101 68.0862 114.133 68.1188C114.378 68.3469 114.671 71.0359 114.638 72.5515L114.59 74.3279L104.974 74.279C99.6942 74.2627 93.8111 74.2953 91.9206 74.3605L88.482 74.4908L87.1945 75.1427C84.6359 76.4465 82.5499 78.9399 81.6047 81.8244L81.0995 83.4052L81.1321 90.7714C81.1484 96.5568 81.181 97.5183 81.2788 95.2694C81.3277 93.7049 81.3928 90.4781 81.4091 88.115C81.4254 83.34 81.5232 82.6719 82.501 80.6837C83.5603 78.5325 85.6463 76.3813 87.6183 75.4198C88.4983 74.996 88.6124 74.9797 92.4258 74.882C94.577 74.8168 100.428 74.7679 105.447 74.7516L114.557 74.7353L114.443 75.6316C114.313 76.7724 113.644 78.8747 112.944 80.4229C110.45 85.8498 105.333 89.5818 98.9446 90.6248C96.0763 91.0974 92.9799 90.7714 90.0139 89.6958C89.1339 89.3699 89.0687 89.321 89.1665 88.9299C89.3457 88.1639 90.2909 86.7787 91.171 85.9801C92.5073 84.7416 93.1429 84.5786 97.3149 84.383L100.9 84.2364L97.0704 84.2527C93.2407 84.269 93.2407 84.269 92.3444 84.709C91.1384 85.2957 89.8346 86.632 89.1991 87.9358L88.6776 88.9788L88.6287 92.8248C88.6124 94.9271 88.6613 97.3065 88.7264 98.1213C88.8568 99.2947 88.8894 98.6265 88.9057 94.6501C88.922 90.7551 88.9709 89.7121 89.1339 89.7936C89.8509 90.087 92.6051 90.8855 93.4851 91.0485C96.1252 91.5211 100.151 91.13 103.019 90.1033C109.684 87.7239 114.313 81.7429 115.16 74.4256C115.372 72.5841 115.193 69.8951 114.753 68.4284L114.508 67.6461L115.47 66.6683C117.458 64.6149 118.501 62.92 119.413 60.2311C119.935 58.748 119.951 58.5688 119.951 56.1568C119.968 53.1745 119.642 47.1935 119.43 46.3787C119.348 46.0691 118.908 44.749 118.436 43.4616C117.67 41.2941 117.588 40.9518 117.442 38.9799C117.279 36.6169 117.05 35.6227 116.333 34.0908C115.828 32.9989 114.508 30.9618 113.579 29.8048C113.204 29.3321 112.83 28.501 112.39 27.1484C111.265 23.6608 110.304 22.2919 107.892 20.6459C107.028 20.0592 106.653 19.6844 106.246 18.9347C105.512 17.631 103.589 15.0887 102.644 14.1923C100.574 12.1878 95.8645 9.6455 92.2303 8.56991C91.8554 8.45583 91.0243 7.96693 90.405 7.47802C89.0524 6.45131 86.8523 5.13126 85.3856 4.46309C84.0492 3.86011 82.7292 3.56676 80.6106 3.43639C79.5676 3.3712 78.0846 3.11045 76.7482 2.78452C73.8637 2.05116 72.3318 1.92078 70.7673 2.29561L69.5613 2.57265L68.8116 2.06745C67.4264 1.10593 67.3123 1.10593 60.6143 1.02444C57.2246 0.991852 54.2748 0.991852 54.0467 1.02444Z"/>
</mask>
<path d="M54.0467 1.02444C53.8185 1.05704 53.1503 1.20371 52.5474 1.33409C51.6184 1.54595 51.2762 1.56225 50.3473 1.39928C49.728 1.28519 48.685 1.22001 48.0168 1.2526C46.7783 1.31779 46.6805 1.36668 44.3989 2.57265C43.7796 2.89859 42.9485 3.04527 39.9173 3.33861C37.8965 3.55047 36.9838 3.8764 35.2564 5.03349C33.4311 6.23946 32.6 6.63058 30.351 7.34764C28.6072 7.91803 28.3302 8.04841 27.4827 8.83066C26.7005 9.56402 26.2931 9.79218 24.7775 10.33C22.6263 11.0959 21.8929 11.4708 20.361 12.5138C19.2202 13.3123 18.9106 13.7197 18.3891 15.0887C18.1609 15.6591 16.3194 17.7939 15.2438 18.6903C14.7549 19.0977 13.5652 19.994 12.5711 20.6785C11.5933 21.3467 10.6155 22.08 10.4199 22.2919C10.2243 22.4875 9.73543 23.5793 9.32801 24.6875C8.46427 27.018 7.7798 28.338 6.45975 30.1633C4.22708 33.2434 3.72188 34.596 3.54261 37.9695C3.39594 40.3651 3.21667 41.1474 2.36924 42.8097C-0.205673 47.9269 0.918812 54.9835 5.1723 60.4918C8.18722 64.4031 13.1415 67.1898 18.5357 67.9884C21.8277 68.4773 28.2976 68.0862 29.7969 67.3039C30.2695 67.0595 30.2858 67.0757 30.9703 67.6787C32.1925 68.7706 32.6977 69.667 33.0237 71.264C34.0341 76.3324 37.9453 80.3903 43.5678 82.2156C47.1205 83.3563 51.7162 82.9489 55.7578 81.14C57.1268 80.5207 57.5994 80.3903 58.6913 80.3251C61.7714 80.1296 64.77 81.7918 67.0353 84.9534C67.6709 85.8661 71.5006 93.4767 75.4771 101.788C76.2756 103.45 77.009 104.852 77.0905 104.917C77.6935 105.325 77.3023 104.282 75.5097 100.631C74.3852 98.3495 72.7718 94.9923 71.9081 93.1508C69.7243 88.5225 67.8664 85.0675 66.9538 83.9267C65.4545 82.0852 63.4011 80.6185 61.4129 80.0155C60.9891 79.9014 59.9787 79.7873 59.1476 79.7873H57.6646L57.5994 76.202L57.5505 72.6167L53.3622 68.4121L49.1576 64.2238V60.7689V57.3139L49.565 56.9065C50.0539 56.4176 50.0865 55.945 49.6465 55.505C49.2554 55.1138 49.0272 55.0975 48.5383 55.4398C48.082 55.7494 48.0657 56.4991 48.5057 56.8902C48.8154 57.1672 48.8317 57.3954 48.8317 60.7851V64.3868L52.9711 68.5425C56.426 71.9974 57.1431 72.796 57.2246 73.2686C57.2735 73.5782 57.306 75.1916 57.2735 76.8539L57.2246 79.8525L55.9371 80.4881C53.8022 81.5148 50.771 82.3948 49.3206 82.3948H48.8643L48.9457 81.3681C49.0435 80.2599 48.848 79.6244 48.4079 79.6244C48.1961 79.6244 48.2124 79.7058 48.4894 80.0481C48.848 80.5044 48.9131 80.9933 48.7176 81.9059L48.6198 82.4437L46.8923 82.3459C44.8226 82.2319 43.2581 81.8244 41.3188 80.8629C38.7602 79.5918 36.7883 77.8969 35.3215 75.7457C33.9363 73.6923 33.3496 71.9811 33.3496 69.9277C33.3496 68.2654 33.6593 67.1083 34.4252 65.9513C34.963 65.1364 34.9793 65.0875 34.5719 65.4461C33.92 66.049 33.3007 67.1898 33.1052 68.1676L32.9259 69.0314L31.9155 67.9069L30.9051 66.7661L31.2636 66.1468C32.3881 64.2564 30.9377 61.4207 28.3302 60.3614C27.4176 59.9866 27.2872 59.9866 21.4529 59.9866C14.9504 59.9866 15.0156 59.9866 13.6956 58.9925C13.3859 58.748 11.8377 57.1998 10.2732 55.5538L7.42127 52.5552L7.51905 51.8708C7.61683 51.2841 7.56794 51.1211 7.20941 50.73C6.7368 50.2085 6.16641 50.1596 5.62861 50.5996C4.84636 51.2189 5.31897 52.7345 6.29679 52.7345C6.7531 52.7345 8.07315 54.0056 11.7236 57.9658C12.7341 59.0577 13.6141 59.8725 14.1682 60.1659L15.0156 60.6385L21.2084 60.72L27.4013 60.8014L28.4117 61.2741C30.2206 62.1052 31.231 63.6371 30.9866 65.1364C30.6932 66.8313 29.4547 67.3365 24.5819 67.7276C22.2025 67.9232 19.2691 67.7602 17.1016 67.3039C13.2556 66.5217 9.73543 64.6312 6.94866 61.8607C4.08041 59.0251 2.23886 55.4235 1.65217 51.4796C1.24475 48.8395 1.35883 46.6394 1.99441 44.6186L2.27145 43.7712H5.6938H9.11615L10.7295 42.1741C12.9785 39.974 13.8259 38.8984 12.0659 40.4629C11.3325 41.1148 10.6318 41.7667 10.5177 41.9133C10.3873 42.0763 9.93099 42.4837 9.50727 42.826L8.70872 43.4453H5.62861C3.93374 43.4453 2.5485 43.4127 2.5485 43.3801C2.5485 43.3475 2.76036 42.8586 3.03741 42.2882C3.72188 40.7889 4.01522 39.5014 4.01522 37.8717V36.4539L5.93825 36.5354L7.84499 36.6332L8.43168 35.6716C9.62135 33.7812 9.70284 33.3901 8.56205 35.0524C8.17093 35.6227 7.74721 36.1442 7.60054 36.1931C7.47016 36.2583 6.63902 36.242 5.74269 36.1768L4.1456 36.0628L4.24338 35.3131C4.39005 34.2375 5.12341 32.7708 6.67161 30.5218C8.49687 27.8491 8.74132 27.4091 9.63765 24.9483C10.0777 23.7749 10.5829 22.6504 10.7621 22.4386C10.9577 22.2267 11.9192 21.5259 12.897 20.8741C14.7223 19.6681 16.7594 17.9732 17.3787 17.1584C17.8676 16.5228 18.0142 16.6043 17.835 17.4028C17.6068 18.4132 17.7861 19.717 18.2587 20.5155C18.4706 20.8904 19.7417 22.2593 21.0781 23.563C22.3981 24.8505 23.2781 25.6165 23.0174 25.2742C22.7403 24.9157 21.681 23.7749 20.638 22.7482C19.5787 21.7052 18.6009 20.5807 18.4217 20.2222C17.8676 19.0488 18.1283 16.6206 19.0247 14.4857C19.3669 13.6871 20.6869 12.5789 22.2025 11.8293C23.1804 11.3567 26.342 10.1507 26.342 10.2648C26.342 10.2974 26.179 10.6722 25.9834 11.1122C25.6575 11.8293 25.6249 12.1878 25.6249 14.7627C25.6086 16.8161 25.6738 17.7939 25.8368 18.2666C25.9997 18.7229 26.7983 19.6518 28.6724 21.5585C30.5629 23.4816 31.2962 24.3453 31.394 24.7364L31.5244 25.2742L31.5407 24.7527C31.557 24.1171 31.0192 23.4164 28.3465 20.6133C26.0323 18.1688 26.016 18.1525 26.016 14.6975C26.016 12.0574 26.2768 10.8352 27.0916 9.74329C27.9553 8.56991 28.705 8.12989 30.9051 7.51061C31.7362 7.28246 32.8933 6.87503 33.48 6.59798C34.0667 6.33723 34.5556 6.12537 34.5882 6.12537C34.6045 6.12537 34.5556 6.36983 34.4741 6.64687C34.2297 7.51061 34.3111 8.5862 34.6697 9.31956C35.0608 10.1507 36.2668 10.9981 37.212 11.0959C37.7335 11.1611 37.7661 11.1611 37.3913 11.0307C35.1423 10.2811 34.1971 8.47213 34.9793 6.41872C35.729 4.4142 37.3587 3.72973 42.101 3.43639L43.747 3.33861L43.8122 5.83203C43.8611 8.03211 43.91 8.40694 44.2359 9.00993C44.7737 10.0366 46.0449 10.9004 47.2835 11.0796L47.9353 11.1774L47.2835 10.9656C45.8656 10.4929 45.0834 9.85736 44.4967 8.73288C44.2522 8.26027 44.2033 7.75507 44.2033 5.83203L44.187 3.50157L44.8389 2.94748C46.0775 1.87189 46.762 1.64373 48.5872 1.66003C51.211 1.67632 52.7755 2.47487 53.6555 4.28383L54.1119 5.19645L54.2096 14.0457C54.2748 18.9184 54.3563 22.9601 54.4215 23.009C54.4867 23.0741 54.5356 19.0651 54.5356 14.0783V5.03349L54.0304 4.02308C53.7207 3.42009 53.297 2.8497 52.9385 2.58895C52.5962 2.3445 52.3029 2.11634 52.254 2.08375C52.091 1.96967 52.6614 1.7578 53.6881 1.57854C54.4704 1.43187 56.5401 1.38298 60.8099 1.43187L66.8397 1.48076L67.6546 1.92078C68.1109 2.14893 68.6161 2.45857 68.7953 2.60525C69.1213 2.8334 69.105 2.8497 68.5835 3.40379C67.5405 4.47939 67.4101 5.18015 67.4264 9.27068C67.4427 11.6337 67.4916 12.6604 67.5894 12.2367C67.6546 11.8782 67.7198 10.3463 67.7198 8.84695C67.7361 7.33134 67.8175 5.78314 67.9153 5.40831C68.1598 4.3979 68.8931 3.61565 70.1154 3.01266L71.1584 2.49117L73.1629 2.58895C74.4993 2.65414 75.6889 2.81711 76.7808 3.09415C77.6772 3.33861 79.4372 3.63195 80.6921 3.76233C83.3159 4.03938 84.5544 4.3979 86.4449 5.39201C87.879 6.15797 89.9324 7.49432 90.2421 7.85284C90.3887 8.03211 90.2746 8.04841 89.5902 7.96693C88.4657 7.83655 86.9175 8.16248 85.7441 8.78177C84.3263 9.53143 83.1203 10.8352 81.8166 12.9538C80.3824 15.3168 79.5513 16.2457 78.2964 16.865C77.1882 17.4354 76.5527 17.4843 75.2326 17.1258C74.1081 16.8324 74.0104 16.9139 75.0208 17.305C77.5631 18.2829 79.9261 16.9628 82.0936 13.3775C84.3915 9.54772 87.1293 8.081 90.8124 8.71658C94.7074 9.38475 100.118 12.1226 102.644 14.6649C103.948 15.9687 105.284 18.1688 105.268 18.9347C105.235 20.1896 103.214 22.3897 101.357 23.1719C100.786 23.4164 100.346 23.6445 100.395 23.6771C100.525 23.8238 102.725 22.8786 103.524 22.3408C104.404 21.7378 105.268 20.597 105.626 19.554L105.822 18.9999L106.213 19.6029C106.425 19.9288 107.126 20.5481 107.745 20.9718C109.146 21.9334 110.418 23.2697 110.907 24.2964C111.493 25.5513 112.357 28.2729 112.569 29.5277C112.699 30.3914 112.715 30.8967 112.569 31.5322C112.357 32.5589 112.341 32.7382 112.536 32.6241C112.699 32.51 113.041 31.3204 113.09 30.6522C113.107 30.3752 113.188 30.1633 113.253 30.1633C113.481 30.1633 115.339 32.9012 115.893 34.0583C116.61 35.5576 116.757 36.242 116.969 39.2407C117.213 42.6467 117.116 44.7653 116.627 45.7594C116.04 47.0143 114.687 48.0084 113.579 48.0084C113.237 48.0084 113.188 48.0573 113.367 48.1551C113.889 48.4973 115.404 47.8943 116.268 47.0143C117.018 46.2483 117.409 45.3357 117.572 43.9342L117.702 42.7119L117.996 43.3638C118.159 43.7223 118.501 44.6675 118.778 45.4824C119.251 46.8513 119.283 47.1284 119.316 49.7847L119.365 52.6204L118.533 51.8219C117.246 50.5996 116.529 49.9966 116.79 50.3714C116.92 50.5507 117.605 51.2515 118.338 51.9359L119.642 53.1745V55.6027C119.642 58.4384 119.413 59.514 118.338 61.8119C117.262 64.1097 116.007 65.772 114.133 67.3854C112.846 68.4936 112.422 68.6565 110.385 68.9499C107.908 69.2758 101.96 69.4551 101.454 69.1943C100.982 68.9499 99.6779 67.7113 99.6779 67.5158C99.6779 67.4343 100.02 66.9454 100.428 66.4076L101.194 65.4461L102.921 65.4298C103.866 65.4135 106.001 65.3483 107.663 65.2994L110.678 65.1853L105.952 65.1527C103.361 65.1364 101.145 65.1853 101.063 65.2505C100.965 65.3157 100.46 65.8535 99.9387 66.4728L98.9935 67.5647H93.5177H88.0583L86.6567 66.1794L85.2552 64.8105L85.1574 62.806L85.0759 60.8014L85.0433 62.9037L85.0107 65.006L86.4449 66.4728L87.8953 67.9395L91.2199 67.9884C93.0451 68.0047 95.6526 68.0373 97.0053 68.0373L99.4661 68.0536L100.411 68.8847L101.373 69.7321L105.219 69.6344C109.815 69.5366 111.868 69.2432 113.172 68.5425C113.661 68.2817 114.101 68.0862 114.133 68.1188C114.378 68.3469 114.671 71.0359 114.638 72.5515L114.59 74.3279L104.974 74.279C99.6942 74.2627 93.8111 74.2953 91.9206 74.3605L88.482 74.4908L87.1945 75.1427C84.6359 76.4465 82.5499 78.9399 81.6047 81.8244L81.0995 83.4052L81.1321 90.7714C81.1484 96.5568 81.181 97.5183 81.2788 95.2694C81.3277 93.7049 81.3928 90.4781 81.4091 88.115C81.4254 83.34 81.5232 82.6719 82.501 80.6837C83.5603 78.5325 85.6463 76.3813 87.6183 75.4198C88.4983 74.996 88.6124 74.9797 92.4258 74.882C94.577 74.8168 100.428 74.7679 105.447 74.7516L114.557 74.7353L114.443 75.6316C114.313 76.7724 113.644 78.8747 112.944 80.4229C110.45 85.8498 105.333 89.5818 98.9446 90.6248C96.0763 91.0974 92.9799 90.7714 90.0139 89.6958C89.1339 89.3699 89.0687 89.321 89.1665 88.9299C89.3457 88.1639 90.2909 86.7787 91.171 85.9801C92.5073 84.7416 93.1429 84.5786 97.3149 84.383L100.9 84.2364L97.0704 84.2527C93.2407 84.269 93.2407 84.269 92.3444 84.709C91.1384 85.2957 89.8346 86.632 89.1991 87.9358L88.6776 88.9788L88.6287 92.8248C88.6124 94.9271 88.6613 97.3065 88.7264 98.1213C88.8568 99.2947 88.8894 98.6265 88.9057 94.6501C88.922 90.7551 88.9709 89.7121 89.1339 89.7936C89.8509 90.087 92.6051 90.8855 93.4851 91.0485C96.1252 91.5211 100.151 91.13 103.019 90.1033C109.684 87.7239 114.313 81.7429 115.16 74.4256C115.372 72.5841 115.193 69.8951 114.753 68.4284L114.508 67.6461L115.47 66.6683C117.458 64.6149 118.501 62.92 119.413 60.2311C119.935 58.748 119.951 58.5688 119.951 56.1568C119.968 53.1745 119.642 47.1935 119.43 46.3787C119.348 46.0691 118.908 44.749 118.436 43.4616C117.67 41.2941 117.588 40.9518 117.442 38.9799C117.279 36.6169 117.05 35.6227 116.333 34.0908C115.828 32.9989 114.508 30.9618 113.579 29.8048C113.204 29.3321 112.83 28.501 112.39 27.1484C111.265 23.6608 110.304 22.2919 107.892 20.6459C107.028 20.0592 106.653 19.6844 106.246 18.9347C105.512 17.631 103.589 15.0887 102.644 14.1923C100.574 12.1878 95.8645 9.6455 92.2303 8.56991C91.8554 8.45583 91.0243 7.96693 90.405 7.47802C89.0524 6.45131 86.8523 5.13126 85.3856 4.46309C84.0492 3.86011 82.7292 3.56676 80.6106 3.43639C79.5676 3.3712 78.0846 3.11045 76.7482 2.78452C73.8637 2.05116 72.3318 1.92078 70.7673 2.29561L69.5613 2.57265L68.8116 2.06745C67.4264 1.10593 67.3123 1.10593 60.6143 1.02444C57.2246 0.991852 54.2748 0.991852 54.0467 1.02444Z" fill="white"/>
<path d="M54.0467 1.02444C53.8185 1.05704 53.1503 1.20371 52.5474 1.33409C51.6184 1.54595 51.2762 1.56225 50.3473 1.39928C49.728 1.28519 48.685 1.22001 48.0168 1.2526C46.7783 1.31779 46.6805 1.36668 44.3989 2.57265C43.7796 2.89859 42.9485 3.04527 39.9173 3.33861C37.8965 3.55047 36.9838 3.8764 35.2564 5.03349C33.4311 6.23946 32.6 6.63058 30.351 7.34764C28.6072 7.91803 28.3302 8.04841 27.4827 8.83066C26.7005 9.56402 26.2931 9.79218 24.7775 10.33C22.6263 11.0959 21.8929 11.4708 20.361 12.5138C19.2202 13.3123 18.9106 13.7197 18.3891 15.0887C18.1609 15.6591 16.3194 17.7939 15.2438 18.6903C14.7549 19.0977 13.5652 19.994 12.5711 20.6785C11.5933 21.3467 10.6155 22.08 10.4199 22.2919C10.2243 22.4875 9.73543 23.5793 9.32801 24.6875C8.46427 27.018 7.7798 28.338 6.45975 30.1633C4.22708 33.2434 3.72188 34.596 3.54261 37.9695C3.39594 40.3651 3.21667 41.1474 2.36924 42.8097C-0.205673 47.9269 0.918812 54.9835 5.1723 60.4918C8.18722 64.4031 13.1415 67.1898 18.5357 67.9884C21.8277 68.4773 28.2976 68.0862 29.7969 67.3039C30.2695 67.0595 30.2858 67.0757 30.9703 67.6787C32.1925 68.7706 32.6977 69.667 33.0237 71.264C34.0341 76.3324 37.9453 80.3903 43.5678 82.2156C47.1205 83.3563 51.7162 82.9489 55.7578 81.14C57.1268 80.5207 57.5994 80.3903 58.6913 80.3251C61.7714 80.1296 64.77 81.7918 67.0353 84.9534C67.6709 85.8661 71.5006 93.4767 75.4771 101.788C76.2756 103.45 77.009 104.852 77.0905 104.917C77.6935 105.325 77.3023 104.282 75.5097 100.631C74.3852 98.3495 72.7718 94.9923 71.9081 93.1508C69.7243 88.5225 67.8664 85.0675 66.9538 83.9267C65.4545 82.0852 63.4011 80.6185 61.4129 80.0155C60.9891 79.9014 59.9787 79.7873 59.1476 79.7873H57.6646L57.5994 76.202L57.5505 72.6167L53.3622 68.4121L49.1576 64.2238V60.7689V57.3139L49.565 56.9065C50.0539 56.4176 50.0865 55.945 49.6465 55.505C49.2554 55.1138 49.0272 55.0975 48.5383 55.4398C48.082 55.7494 48.0657 56.4991 48.5057 56.8902C48.8154 57.1672 48.8317 57.3954 48.8317 60.7851V64.3868L52.9711 68.5425C56.426 71.9974 57.1431 72.796 57.2246 73.2686C57.2735 73.5782 57.306 75.1916 57.2735 76.8539L57.2246 79.8525L55.9371 80.4881C53.8022 81.5148 50.771 82.3948 49.3206 82.3948H48.8643L48.9457 81.3681C49.0435 80.2599 48.848 79.6244 48.4079 79.6244C48.1961 79.6244 48.2124 79.7058 48.4894 80.0481C48.848 80.5044 48.9131 80.9933 48.7176 81.9059L48.6198 82.4437L46.8923 82.3459C44.8226 82.2319 43.2581 81.8244 41.3188 80.8629C38.7602 79.5918 36.7883 77.8969 35.3215 75.7457C33.9363 73.6923 33.3496 71.9811 33.3496 69.9277C33.3496 68.2654 33.6593 67.1083 34.4252 65.9513C34.963 65.1364 34.9793 65.0875 34.5719 65.4461C33.92 66.049 33.3007 67.1898 33.1052 68.1676L32.9259 69.0314L31.9155 67.9069L30.9051 66.7661L31.2636 66.1468C32.3881 64.2564 30.9377 61.4207 28.3302 60.3614C27.4176 59.9866 27.2872 59.9866 21.4529 59.9866C14.9504 59.9866 15.0156 59.9866 13.6956 58.9925C13.3859 58.748 11.8377 57.1998 10.2732 55.5538L7.42127 52.5552L7.51905 51.8708C7.61683 51.2841 7.56794 51.1211 7.20941 50.73C6.7368 50.2085 6.16641 50.1596 5.62861 50.5996C4.84636 51.2189 5.31897 52.7345 6.29679 52.7345C6.7531 52.7345 8.07315 54.0056 11.7236 57.9658C12.7341 59.0577 13.6141 59.8725 14.1682 60.1659L15.0156 60.6385L21.2084 60.72L27.4013 60.8014L28.4117 61.2741C30.2206 62.1052 31.231 63.6371 30.9866 65.1364C30.6932 66.8313 29.4547 67.3365 24.5819 67.7276C22.2025 67.9232 19.2691 67.7602 17.1016 67.3039C13.2556 66.5217 9.73543 64.6312 6.94866 61.8607C4.08041 59.0251 2.23886 55.4235 1.65217 51.4796C1.24475 48.8395 1.35883 46.6394 1.99441 44.6186L2.27145 43.7712H5.6938H9.11615L10.7295 42.1741C12.9785 39.974 13.8259 38.8984 12.0659 40.4629C11.3325 41.1148 10.6318 41.7667 10.5177 41.9133C10.3873 42.0763 9.93099 42.4837 9.50727 42.826L8.70872 43.4453H5.62861C3.93374 43.4453 2.5485 43.4127 2.5485 43.3801C2.5485 43.3475 2.76036 42.8586 3.03741 42.2882C3.72188 40.7889 4.01522 39.5014 4.01522 37.8717V36.4539L5.93825 36.5354L7.84499 36.6332L8.43168 35.6716C9.62135 33.7812 9.70284 33.3901 8.56205 35.0524C8.17093 35.6227 7.74721 36.1442 7.60054 36.1931C7.47016 36.2583 6.63902 36.242 5.74269 36.1768L4.1456 36.0628L4.24338 35.3131C4.39005 34.2375 5.12341 32.7708 6.67161 30.5218C8.49687 27.8491 8.74132 27.4091 9.63765 24.9483C10.0777 23.7749 10.5829 22.6504 10.7621 22.4386C10.9577 22.2267 11.9192 21.5259 12.897 20.8741C14.7223 19.6681 16.7594 17.9732 17.3787 17.1584C17.8676 16.5228 18.0142 16.6043 17.835 17.4028C17.6068 18.4132 17.7861 19.717 18.2587 20.5155C18.4706 20.8904 19.7417 22.2593 21.0781 23.563C22.3981 24.8505 23.2781 25.6165 23.0174 25.2742C22.7403 24.9157 21.681 23.7749 20.638 22.7482C19.5787 21.7052 18.6009 20.5807 18.4217 20.2222C17.8676 19.0488 18.1283 16.6206 19.0247 14.4857C19.3669 13.6871 20.6869 12.5789 22.2025 11.8293C23.1804 11.3567 26.342 10.1507 26.342 10.2648C26.342 10.2974 26.179 10.6722 25.9834 11.1122C25.6575 11.8293 25.6249 12.1878 25.6249 14.7627C25.6086 16.8161 25.6738 17.7939 25.8368 18.2666C25.9997 18.7229 26.7983 19.6518 28.6724 21.5585C30.5629 23.4816 31.2962 24.3453 31.394 24.7364L31.5244 25.2742L31.5407 24.7527C31.557 24.1171 31.0192 23.4164 28.3465 20.6133C26.0323 18.1688 26.016 18.1525 26.016 14.6975C26.016 12.0574 26.2768 10.8352 27.0916 9.74329C27.9553 8.56991 28.705 8.12989 30.9051 7.51061C31.7362 7.28246 32.8933 6.87503 33.48 6.59798C34.0667 6.33723 34.5556 6.12537 34.5882 6.12537C34.6045 6.12537 34.5556 6.36983 34.4741 6.64687C34.2297 7.51061 34.3111 8.5862 34.6697 9.31956C35.0608 10.1507 36.2668 10.9981 37.212 11.0959C37.7335 11.1611 37.7661 11.1611 37.3913 11.0307C35.1423 10.2811 34.1971 8.47213 34.9793 6.41872C35.729 4.4142 37.3587 3.72973 42.101 3.43639L43.747 3.33861L43.8122 5.83203C43.8611 8.03211 43.91 8.40694 44.2359 9.00993C44.7737 10.0366 46.0449 10.9004 47.2835 11.0796L47.9353 11.1774L47.2835 10.9656C45.8656 10.4929 45.0834 9.85736 44.4967 8.73288C44.2522 8.26027 44.2033 7.75507 44.2033 5.83203L44.187 3.50157L44.8389 2.94748C46.0775 1.87189 46.762 1.64373 48.5872 1.66003C51.211 1.67632 52.7755 2.47487 53.6555 4.28383L54.1119 5.19645L54.2096 14.0457C54.2748 18.9184 54.3563 22.9601 54.4215 23.009C54.4867 23.0741 54.5356 19.0651 54.5356 14.0783V5.03349L54.0304 4.02308C53.7207 3.42009 53.297 2.8497 52.9385 2.58895C52.5962 2.3445 52.3029 2.11634 52.254 2.08375C52.091 1.96967 52.6614 1.7578 53.6881 1.57854C54.4704 1.43187 56.5401 1.38298 60.8099 1.43187L66.8397 1.48076L67.6546 1.92078C68.1109 2.14893 68.6161 2.45857 68.7953 2.60525C69.1213 2.8334 69.105 2.8497 68.5835 3.40379C67.5405 4.47939 67.4101 5.18015 67.4264 9.27068C67.4427 11.6337 67.4916 12.6604 67.5894 12.2367C67.6546 11.8782 67.7198 10.3463 67.7198 8.84695C67.7361 7.33134 67.8175 5.78314 67.9153 5.40831C68.1598 4.3979 68.8931 3.61565 70.1154 3.01266L71.1584 2.49117L73.1629 2.58895C74.4993 2.65414 75.6889 2.81711 76.7808 3.09415C77.6772 3.33861 79.4372 3.63195 80.6921 3.76233C83.3159 4.03938 84.5544 4.3979 86.4449 5.39201C87.879 6.15797 89.9324 7.49432 90.2421 7.85284C90.3887 8.03211 90.2746 8.04841 89.5902 7.96693C88.4657 7.83655 86.9175 8.16248 85.7441 8.78177C84.3263 9.53143 83.1203 10.8352 81.8166 12.9538C80.3824 15.3168 79.5513 16.2457 78.2964 16.865C77.1882 17.4354 76.5527 17.4843 75.2326 17.1258C74.1081 16.8324 74.0104 16.9139 75.0208 17.305C77.5631 18.2829 79.9261 16.9628 82.0936 13.3775C84.3915 9.54772 87.1293 8.081 90.8124 8.71658C94.7074 9.38475 100.118 12.1226 102.644 14.6649C103.948 15.9687 105.284 18.1688 105.268 18.9347C105.235 20.1896 103.214 22.3897 101.357 23.1719C100.786 23.4164 100.346 23.6445 100.395 23.6771C100.525 23.8238 102.725 22.8786 103.524 22.3408C104.404 21.7378 105.268 20.597 105.626 19.554L105.822 18.9999L106.213 19.6029C106.425 19.9288 107.126 20.5481 107.745 20.9718C109.146 21.9334 110.418 23.2697 110.907 24.2964C111.493 25.5513 112.357 28.2729 112.569 29.5277C112.699 30.3914 112.715 30.8967 112.569 31.5322C112.357 32.5589 112.341 32.7382 112.536 32.6241C112.699 32.51 113.041 31.3204 113.09 30.6522C113.107 30.3752 113.188 30.1633 113.253 30.1633C113.481 30.1633 115.339 32.9012 115.893 34.0583C116.61 35.5576 116.757 36.242 116.969 39.2407C117.213 42.6467 117.116 44.7653 116.627 45.7594C116.04 47.0143 114.687 48.0084 113.579 48.0084C113.237 48.0084 113.188 48.0573 113.367 48.1551C113.889 48.4973 115.404 47.8943 116.268 47.0143C117.018 46.2483 117.409 45.3357 117.572 43.9342L117.702 42.7119L117.996 43.3638C118.159 43.7223 118.501 44.6675 118.778 45.4824C119.251 46.8513 119.283 47.1284 119.316 49.7847L119.365 52.6204L118.533 51.8219C117.246 50.5996 116.529 49.9966 116.79 50.3714C116.92 50.5507 117.605 51.2515 118.338 51.9359L119.642 53.1745V55.6027C119.642 58.4384 119.413 59.514 118.338 61.8119C117.262 64.1097 116.007 65.772 114.133 67.3854C112.846 68.4936 112.422 68.6565 110.385 68.9499C107.908 69.2758 101.96 69.4551 101.454 69.1943C100.982 68.9499 99.6779 67.7113 99.6779 67.5158C99.6779 67.4343 100.02 66.9454 100.428 66.4076L101.194 65.4461L102.921 65.4298C103.866 65.4135 106.001 65.3483 107.663 65.2994L110.678 65.1853L105.952 65.1527C103.361 65.1364 101.145 65.1853 101.063 65.2505C100.965 65.3157 100.46 65.8535 99.9387 66.4728L98.9935 67.5647H93.5177H88.0583L86.6567 66.1794L85.2552 64.8105L85.1574 62.806L85.0759 60.8014L85.0433 62.9037L85.0107 65.006L86.4449 66.4728L87.8953 67.9395L91.2199 67.9884C93.0451 68.0047 95.6526 68.0373 97.0053 68.0373L99.4661 68.0536L100.411 68.8847L101.373 69.7321L105.219 69.6344C109.815 69.5366 111.868 69.2432 113.172 68.5425C113.661 68.2817 114.101 68.0862 114.133 68.1188C114.378 68.3469 114.671 71.0359 114.638 72.5515L114.59 74.3279L104.974 74.279C99.6942 74.2627 93.8111 74.2953 91.9206 74.3605L88.482 74.4908L87.1945 75.1427C84.6359 76.4465 82.5499 78.9399 81.6047 81.8244L81.0995 83.4052L81.1321 90.7714C81.1484 96.5568 81.181 97.5183 81.2788 95.2694C81.3277 93.7049 81.3928 90.4781 81.4091 88.115C81.4254 83.34 81.5232 82.6719 82.501 80.6837C83.5603 78.5325 85.6463 76.3813 87.6183 75.4198C88.4983 74.996 88.6124 74.9797 92.4258 74.882C94.577 74.8168 100.428 74.7679 105.447 74.7516L114.557 74.7353L114.443 75.6316C114.313 76.7724 113.644 78.8747 112.944 80.4229C110.45 85.8498 105.333 89.5818 98.9446 90.6248C96.0763 91.0974 92.9799 90.7714 90.0139 89.6958C89.1339 89.3699 89.0687 89.321 89.1665 88.9299C89.3457 88.1639 90.2909 86.7787 91.171 85.9801C92.5073 84.7416 93.1429 84.5786 97.3149 84.383L100.9 84.2364L97.0704 84.2527C93.2407 84.269 93.2407 84.269 92.3444 84.709C91.1384 85.2957 89.8346 86.632 89.1991 87.9358L88.6776 88.9788L88.6287 92.8248C88.6124 94.9271 88.6613 97.3065 88.7264 98.1213C88.8568 99.2947 88.8894 98.6265 88.9057 94.6501C88.922 90.7551 88.9709 89.7121 89.1339 89.7936C89.8509 90.087 92.6051 90.8855 93.4851 91.0485C96.1252 91.5211 100.151 91.13 103.019 90.1033C109.684 87.7239 114.313 81.7429 115.16 74.4256C115.372 72.5841 115.193 69.8951 114.753 68.4284L114.508 67.6461L115.47 66.6683C117.458 64.6149 118.501 62.92 119.413 60.2311C119.935 58.748 119.951 58.5688 119.951 56.1568C119.968 53.1745 119.642 47.1935 119.43 46.3787C119.348 46.0691 118.908 44.749 118.436 43.4616C117.67 41.2941 117.588 40.9518 117.442 38.9799C117.279 36.6169 117.05 35.6227 116.333 34.0908C115.828 32.9989 114.508 30.9618 113.579 29.8048C113.204 29.3321 112.83 28.501 112.39 27.1484C111.265 23.6608 110.304 22.2919 107.892 20.6459C107.028 20.0592 106.653 19.6844 106.246 18.9347C105.512 17.631 103.589 15.0887 102.644 14.1923C100.574 12.1878 95.8645 9.6455 92.2303 8.56991C91.8554 8.45583 91.0243 7.96693 90.405 7.47802C89.0524 6.45131 86.8523 5.13126 85.3856 4.46309C84.0492 3.86011 82.7292 3.56676 80.6106 3.43639C79.5676 3.3712 78.0846 3.11045 76.7482 2.78452C73.8637 2.05116 72.3318 1.92078 70.7673 2.29561L69.5613 2.57265L68.8116 2.06745C67.4264 1.10593 67.3123 1.10593 60.6143 1.02444C57.2246 0.991852 54.2748 0.991852 54.0467 1.02444Z" stroke="white" stroke-width="0.458824" mask="url(#path-1-outside-1_236_3941)"/>
</g>
<path id="Vector_2" d="M69.6352 30.5883C69.6254 30.5804 69.6137 30.5705 69.6006 30.559C68.6842 29.7734 66.164 27.3713 63.8532 25.1195C62.6969 23.9928 61.5917 22.9024 60.7643 22.0692C60.3507 21.6526 60.006 21.2998 59.7588 21.0386C59.6354 20.9081 59.5355 20.7998 59.4634 20.7174C59.4274 20.6763 59.3975 20.6408 59.3748 20.6117C59.3547 20.5861 59.3334 20.5572 59.3214 20.5314C59.2964 20.4784 59.2776 20.3941 59.2616 20.2971C59.2448 20.1955 59.2288 20.066 59.2136 19.9132C59.1833 19.6073 59.1556 19.2027 59.131 18.7314C59.0818 17.7885 59.0446 16.5739 59.0232 15.3387C59.0018 14.1033 58.9962 12.8462 59.0102 11.818C59.0241 10.7947 59.0576 9.98644 59.1166 9.65731L59.1166 9.65731L59.1168 9.65653C59.3518 8.39738 59.9606 7.54469 61.3721 6.36298C61.6905 6.09361 61.9886 5.84853 62.2116 5.67056C62.323 5.58163 62.4163 5.50896 62.4842 5.45824C62.5179 5.43302 62.5466 5.41236 62.5685 5.39766C62.5792 5.39045 62.5901 5.38349 62.6001 5.37791C62.605 5.37519 62.6117 5.37165 62.6192 5.36848L62.6196 5.36831C62.624 5.36648 62.6433 5.35827 62.6682 5.35827C62.682 5.35827 62.7039 5.36069 62.7267 5.37367C62.7516 5.38781 62.7689 5.40958 62.7781 5.43319C62.7929 5.47153 62.7829 5.50485 62.7807 5.51224L62.7806 5.51245C62.7743 5.53368 62.7628 5.55195 62.757 5.56098C62.7423 5.58379 62.7197 5.61301 62.6929 5.6456C62.6381 5.71228 62.5544 5.80683 62.4491 5.92138C62.2381 6.15079 61.9358 6.46532 61.5931 6.80801C61.261 7.15635 60.9289 7.52898 60.6618 7.84669C60.3934 8.1659 60.1978 8.42133 60.1294 8.54175C59.9467 8.90925 59.8248 9.58678 59.7678 10.779C59.711 11.9682 59.719 13.6513 59.7842 16.0139L59.7842 16.0141L59.8971 20.3361L65.1941 25.6654L65.1943 25.6656C66.6531 27.1407 67.896 28.4123 68.7236 29.2703C69.1371 29.6992 69.4475 30.0254 69.6292 30.2222C69.7185 30.3189 69.7807 30.3886 69.8074 30.4235L69.8079 30.4241C69.8126 30.4302 69.8249 30.4462 69.8325 30.4641C69.8345 30.469 69.8406 30.4836 69.8418 30.5032C69.8431 30.5227 69.84 30.5756 69.7887 30.6083C69.7477 30.6344 69.7076 30.6252 69.6997 30.6233C69.6865 30.6202 69.6765 30.6155 69.6722 30.6133C69.6566 30.6054 69.6422 30.594 69.6352 30.5883Z" fill="white" stroke="white" stroke-width="0.229412"/>
<path id="Vector_3" d="M38.4275 11.362C38.3736 11.4118 38.2938 11.4301 38.2298 11.4347C38.1583 11.4398 38.0754 11.4301 37.9997 11.3983C37.9643 11.3848 37.9235 11.3654 37.8945 11.3351C37.8788 11.3187 37.8571 11.289 37.8543 11.247C37.8513 11.2009 37.8723 11.1652 37.8941 11.1434C37.9295 11.108 37.9789 11.0956 38.0093 11.0898C38.0452 11.0828 38.0878 11.0795 38.135 11.0793C38.2304 11.0712 38.3195 11.0781 38.3823 11.1046C38.4088 11.1157 38.4662 11.1452 38.4829 11.212C38.5014 11.286 38.4568 11.3378 38.4275 11.362Z" fill="white" stroke="white" stroke-width="0.229412"/>
<path id="Vector_4" d="M89.3804 15.4337L89.3802 15.4339C89.2625 15.6145 89.1783 15.7538 89.1783 15.904C89.1783 16.0542 89.2624 16.1934 89.3801 16.3739C89.4581 16.4951 89.5493 16.604 89.6337 16.684C89.6758 16.7239 89.7184 16.7586 89.7586 16.7841C89.7739 16.7938 89.7922 16.8044 89.8124 16.8133C89.8152 16.8301 89.8181 16.8516 89.8212 16.8782C89.832 16.9711 89.8426 17.1117 89.8527 17.2985C89.873 17.6715 89.8913 18.2211 89.9076 18.9257C89.9402 20.3344 89.9646 22.3585 89.9809 24.8191C89.9809 24.8191 89.9809 24.8192 89.9809 24.8192L89.9813 24.8863C90.0055 28.8331 90.0178 30.8528 90.0686 31.9637C90.0941 32.5219 90.1295 32.8578 90.1831 33.0961C90.2377 33.3393 90.3108 33.4788 90.4025 33.6415C90.4027 33.6418 90.4029 33.6422 90.4031 33.6425L90.503 33.5861C90.9756 34.4662 92.0512 35.6721 96.3373 40.1375L89.3804 15.4337ZM89.3804 15.4337C89.7286 14.9022 90.4163 14.825 90.8603 15.2679C91.0677 15.4668 91.1676 15.6999 91.1385 15.9596C91.1101 16.2125 90.9614 16.4709 90.7172 16.7319C90.7172 16.732 90.7172 16.732 90.7172 16.732L90.3407 17.1386V23.5473C90.3407 27.1251 90.3692 29.3499 90.4667 30.8121C90.5643 32.2755 90.7303 32.9603 90.9958 33.4678L90.9958 33.4678L90.9975 33.4712C91.0435 33.5668 91.1759 33.751 91.3968 34.0201C91.6146 34.2854 91.9106 34.624 92.2746 35.0246C93.0025 35.8257 93.9995 36.8715 95.1804 38.0687L95.1805 38.0688C97.2989 40.2198 99.4185 42.4046 99.8923 42.9111L99.8933 42.9121L100.741 43.8411L100.771 43.8739V43.9184V45.8577C100.771 47.6743 100.666 48.8568 100.287 49.7584C99.9053 50.6675 99.2513 51.2779 98.1925 51.9674L98.1923 51.9675C96.8977 52.8062 95.9441 53.4719 95.2723 54.0101C94.5974 54.5509 94.2195 54.9534 94.0603 55.2639C93.8958 55.5932 93.6622 56.371 93.4664 57.1706C93.2707 57.9695 93.1193 58.7636 93.1111 59.1246C93.1112 59.3033 93.1337 59.3807 93.1609 59.4163C93.1799 59.4412 93.2174 59.465 93.3387 59.465C93.4988 59.465 93.6658 59.5303 93.8205 59.6267C93.9768 59.724 94.1297 59.8587 94.264 60.0111C94.5285 60.3113 94.7408 60.7043 94.7408 61.0464C94.7408 61.6879 94.3178 62.1958 93.7818 62.4422C93.2455 62.6887 92.5744 62.6839 92.0614 62.2771L92.061 62.2768C91.6179 61.9222 91.4445 61.3672 91.5054 60.8497C91.5663 60.3321 91.8634 59.8366 92.3791 59.6054L92.3791 59.6054L92.3815 59.6043C92.523 59.5448 92.6006 59.4807 92.6469 59.4016C92.6948 59.3196 92.7188 59.2054 92.7188 59.0256C92.7188 58.7367 92.8348 57.8473 92.9814 57.0653C93.1698 56.0416 93.3774 55.3643 93.8541 54.7316C94.327 54.1038 95.0589 53.5282 96.2718 52.6897C97.4366 51.8752 98.2139 51.2918 98.7381 50.8242C99.2614 50.3572 99.5248 50.0119 99.6703 49.6753C99.8259 49.3016 99.9348 48.7057 99.9875 47.9722C100.04 47.241 100.036 46.3829 99.9712 45.4912L99.8601 43.968L89.3804 15.4337ZM90.8941 33.521C91.106 33.961 92.7357 35.7536 95.0987 38.1493C97.2173 40.3005 99.3359 42.4842 99.8085 42.9894L100.656 43.9184V45.8577C100.656 49.4919 100.232 50.5023 98.13 51.8713L90.8941 33.521ZM90.8941 33.521C90.34 32.4617 90.226 30.7016 90.226 23.5473V17.0937L90.8941 33.521Z" fill="white" stroke="white" stroke-width="0.229412"/>
<path id="Vector_5" d="M39.0717 19.5177L39.0722 19.5172C39.1961 19.4045 39.3136 19.2973 39.4252 19.1955C39.8804 18.7802 40.2373 18.4547 40.5355 18.2046C40.9066 17.8934 41.1965 17.6907 41.4837 17.5747C41.7749 17.4572 42.0552 17.4319 42.4013 17.4596C42.6848 17.4822 43.0193 17.5412 43.4443 17.6162C43.5309 17.6315 43.6213 17.6474 43.7158 17.6638L43.716 17.6639L45.0197 17.892L44.9923 18.1195L43.77 18.038L43.7693 18.0379C43.0996 17.9889 42.3949 17.9071 42.1943 17.8737L42.1943 17.874L42.1866 17.8721C42.1414 17.8614 42.0623 17.8676 41.9129 17.9453C41.7656 18.022 41.5674 18.1588 41.293 18.3796C40.7451 18.8204 39.9131 19.5791 38.6088 20.81L38.6085 20.8103L37.3736 21.966V27.1964V32.3599C37.3797 32.3856 37.3859 32.4108 37.3923 32.4354C37.3936 32.4403 37.3949 32.4451 37.3961 32.4499L38.9685 33.9751L38.9685 33.9752C39.401 34.3954 39.7263 34.7237 39.9442 34.956C40.053 35.0719 40.1362 35.1653 40.193 35.2348C40.2211 35.2693 40.2444 35.2999 40.2613 35.3256C40.2696 35.3384 40.2778 35.3521 40.2844 35.3659C40.2896 35.3767 40.3 35.4002 40.3009 35.429C40.3014 35.4449 40.2992 35.4701 40.284 35.4959C40.2674 35.5239 40.2423 35.5412 40.2173 35.5494C40.1774 35.5625 40.1421 35.5513 40.132 35.5481C40.1035 35.539 40.0728 35.5213 40.0456 35.504C39.987 35.4666 39.9029 35.404 39.7955 35.3181C39.5794 35.1453 39.2568 34.8686 38.8285 34.4852C38.6704 34.3444 38.525 34.2187 38.3916 34.1034C38.1221 33.8704 37.9018 33.68 37.7263 33.4939C37.4729 33.2254 37.3044 32.9582 37.1919 32.5714L37.1791 32.559L37.1442 32.5252V32.4766V32.3858C37.0517 31.9759 37.0067 31.439 36.9775 30.6685C36.9558 30.0965 36.9427 29.3904 36.9264 28.5056C36.9186 28.0894 36.9102 27.6336 36.8998 27.1337C36.8998 27.1337 36.8998 27.1337 36.8998 27.1336L36.7857 21.6742L36.7846 21.6224L36.8227 21.5874L39.0717 19.5177Z" fill="white" stroke="white" stroke-width="0.229412"/>
<path id="Vector_6" d="M45.2696 18.2482L45.2696 18.2485L45.2616 18.2461C45.2385 18.2392 45.2171 18.2317 45.1985 18.2233C45.1825 18.2161 45.1578 18.2037 45.1375 18.1829C45.1267 18.1718 45.1113 18.1524 45.1041 18.1242C45.0959 18.0926 45.1008 18.0605 45.1154 18.0338C45.1388 17.9912 45.1795 17.975 45.1918 17.9702C45.2265 17.9567 45.2723 17.9502 45.3165 17.9463C45.3643 17.9421 45.4228 17.94 45.4901 17.94C45.6284 17.94 45.7405 17.9477 45.8082 17.9667C45.8257 17.9716 45.8477 17.9791 45.868 17.992C45.886 18.0034 45.9245 18.0331 45.9316 18.0883C45.9389 18.1453 45.9071 18.1844 45.8904 18.2007C45.8724 18.2183 45.8515 18.2304 45.8347 18.2388L45.8252 18.2436L45.8149 18.2465C45.7429 18.2671 45.645 18.2754 45.5512 18.2754C45.4559 18.2754 45.3534 18.2668 45.2696 18.2482Z" fill="white" stroke="white" stroke-width="0.229412"/>
<path id="Vector_7" d="M47.0642 18.3688C47.0103 18.4187 46.9305 18.437 46.8666 18.4415C46.795 18.4467 46.7121 18.437 46.6364 18.4051C46.601 18.3916 46.5602 18.3723 46.5313 18.3419C46.5156 18.3255 46.4939 18.2959 46.4911 18.2538C46.488 18.2077 46.509 18.1721 46.5308 18.1503C46.5662 18.1149 46.6156 18.1024 46.646 18.0966C46.6819 18.0897 46.7245 18.0864 46.7717 18.0861C46.8671 18.078 46.9562 18.0849 47.019 18.1114C47.0455 18.1226 47.103 18.1521 47.1197 18.2188C47.1381 18.2928 47.0935 18.3446 47.0642 18.3688Z" fill="white" stroke="white" stroke-width="0.229412"/>
<path id="Vector_8" d="M82.8576 23.871L82.8568 23.8701C82.3391 23.3179 82.3078 22.4806 82.8587 22.1004C83.1141 21.9217 83.3591 21.8257 83.602 21.8376C83.8471 21.8496 84.0681 21.9703 84.2764 22.1787C84.5121 22.4143 84.6343 22.6727 84.6174 22.9492C84.6008 23.2222 84.45 23.4874 84.195 23.7424L83.8208 24.1166L83.7722 30.3765L83.7233 36.6834L83.7232 36.7045L83.7155 36.7242L83.1943 38.0599C83.1942 38.06 83.1942 38.06 83.1942 38.0601C82.3963 40.1444 81.998 40.8999 81.3919 41.506L80.8378 42.0601L80.8042 42.0937H80.7567H77.6277H74.4987H74.4433L74.4088 42.0503L73.6593 41.1052C73.6593 41.1052 73.6593 41.1052 73.6592 41.1052C72.9575 40.2239 72.0887 38.9954 71.7905 38.4486L71.7905 38.4486L71.7894 38.4466C71.7625 38.3949 71.7417 38.3511 71.7297 38.3179C71.7245 38.3034 71.7169 38.2805 71.7156 38.2563C71.715 38.2451 71.7145 38.2184 71.7292 38.1899C71.7485 38.1525 71.7852 38.1287 71.826 38.1253C71.8571 38.1228 71.8811 38.1328 71.8911 38.1374C71.9032 38.1431 71.9134 38.1498 71.9207 38.1551C71.9354 38.1658 71.9503 38.1792 71.9642 38.1927C71.9925 38.2205 72.0282 38.2599 72.0701 38.3091C72.238 38.506 72.5377 38.8962 72.9611 39.4661L72.9611 39.4661L72.962 39.4673C73.3843 40.052 73.9668 40.7634 74.2376 41.0342L74.2376 41.0341L74.2413 41.0381L74.6961 41.5384H77.4484C78.2211 41.5384 78.9689 41.5221 79.5512 41.4937C79.8426 41.4795 80.0913 41.4623 80.2807 41.4427C80.3754 41.4329 80.454 41.4227 80.515 41.4121C80.5787 41.4011 80.6148 41.3912 80.63 41.3847L80.63 41.3846L80.6346 41.3828C80.8967 41.2837 81.1974 40.9726 81.5237 40.4194C81.8463 39.8722 82.1816 39.1099 82.5227 38.1437L83.103 36.4995L83.1517 30.3584L83.2002 24.2285L82.8576 23.871Z" fill="white" stroke="white" stroke-width="0.229412"/>
<path id="Vector_9" d="M95.8488 26.5939L95.8488 26.5938L95.8814 22.8292L96.1108 22.8273L96.2086 26.7386L96.2086 26.7389C96.2494 28.5911 96.2738 29.5755 96.3344 30.1913C96.394 30.7976 96.4875 31.0367 96.6691 31.4L96.6697 31.4012C96.9225 31.9226 97.3402 32.4866 98.2524 33.4354C99.1644 34.3839 100.563 35.7098 102.772 37.7554C105.012 39.8248 106.4 41.1303 107.257 41.9961C108.11 42.857 108.454 43.2967 108.586 43.6318L108.586 43.6318L108.587 43.6341C108.757 44.0916 108.851 44.7867 108.869 45.5126C108.888 46.2403 108.83 47.0123 108.689 47.6272L108.689 47.6275C108.549 48.2295 108.2 49.2902 107.874 50.1831C107.711 50.6302 107.552 51.038 107.427 51.3276C107.364 51.4718 107.309 51.5899 107.264 51.6696C107.242 51.708 107.219 51.7444 107.196 51.7703C107.186 51.7819 107.166 51.8022 107.138 51.8147C107.123 51.8217 107.099 51.8286 107.071 51.8253C107.04 51.8217 107.015 51.8076 106.997 51.7894C106.974 51.7661 106.966 51.7397 106.964 51.73C106.961 51.7175 106.96 51.7061 106.96 51.6984C106.959 51.6827 106.961 51.6661 106.962 51.6513C106.965 51.6207 106.972 51.5812 106.981 51.5358C107 51.444 107.03 51.3169 107.069 51.1646C107.147 50.8593 107.261 50.4465 107.392 49.9977L107.392 49.9977L107.392 49.9956C108.172 47.4938 108.313 46.1795 107.992 44.6591L107.992 44.6585L107.739 43.4233L105.68 41.509L105.68 41.5088C104.073 40.0082 102.096 38.0718 100.427 36.3843C98.7611 34.7004 97.3933 33.2554 97.0123 32.742C96.4477 31.9893 96.141 31.5236 95.9873 30.7002C95.836 29.8902 95.8326 28.7318 95.8488 26.5939Z" fill="white" stroke="white" stroke-width="0.229412"/>
<path id="Vector_10" d="M31.7758 26.0833C31.7624 26.1187 31.743 26.1595 31.7127 26.1885C31.6962 26.2042 31.6666 26.2259 31.6245 26.2287C31.5785 26.2317 31.5428 26.2107 31.521 26.1889C31.4856 26.1535 31.4732 26.1041 31.4673 26.0738C31.4604 26.0378 31.4571 25.9952 31.4569 25.948C31.4487 25.8527 31.4557 25.7635 31.4821 25.7007C31.4933 25.6742 31.5228 25.6168 31.5896 25.6001C31.6635 25.5816 31.7154 25.6262 31.7396 25.6555C31.7894 25.7095 31.8077 25.7893 31.8123 25.8532C31.8174 25.9247 31.8077 26.0076 31.7758 26.0833Z" fill="white" stroke="white" stroke-width="0.229412"/>
<path id="Vector_11" d="M43.4515 26.2566L43.4523 26.2559C43.6584 26.031 43.985 25.918 44.305 25.9071C44.6251 25.8962 44.9628 25.9866 45.1945 26.1994C45.4481 26.4253 45.5512 26.7858 45.5316 27.1383C45.5119 27.4925 45.3678 27.8604 45.0981 28.1121L45.0981 28.1122L45.0956 28.1144C44.9923 28.2053 44.9312 28.2613 44.8845 28.347C44.8372 28.4336 44.8001 28.5599 44.7732 28.795C44.7191 29.2681 44.7109 30.1273 44.6945 31.8591L44.6624 35.2669L45.183 35.8028C45.4867 36.1064 46.0826 36.5897 46.4998 36.8626C46.8549 37.0885 47.0696 37.2061 47.4001 37.281C47.7386 37.3578 48.2002 37.3902 49.0505 37.4311C49.0505 37.4311 49.0506 37.4311 49.0507 37.4311L50.8262 37.5103L51.2796 37.0721L51.2796 37.072L51.2807 37.071C51.5539 36.8139 52.056 36.2795 52.396 35.8748L52.396 35.8748L52.3973 35.8732C52.5356 35.7146 52.6424 35.5924 52.7202 35.5066C52.7591 35.4638 52.7917 35.4288 52.8181 35.4025C52.8414 35.3792 52.8685 35.3535 52.894 35.3385C52.9012 35.3342 52.9133 35.3277 52.9288 35.3234C52.943 35.3195 52.9744 35.3133 53.0097 35.3285C53.0502 35.3459 53.0696 35.3795 53.077 35.4047C53.0835 35.4266 53.0824 35.4456 53.0814 35.455C53.0795 35.4747 53.0736 35.4928 53.0694 35.5046C53.0645 35.5183 53.0583 35.5331 53.0514 35.5485C53.0245 35.6087 52.9755 35.7022 52.911 35.8233L52.911 35.8233L52.91 35.825C52.7407 36.1297 52.2943 36.7072 51.9158 37.1024L51.2649 37.8184L51.2308 37.8559H51.1801H49.2896C48.4449 37.8559 47.9462 37.8481 47.5709 37.7894C47.188 37.7295 46.9344 37.6169 46.5786 37.4183C46.1062 37.1696 45.591 36.8149 45.1588 36.4588C44.731 36.1064 44.37 35.7409 44.2195 35.4677C44.1702 35.3842 44.1379 35.2462 44.1128 35.0705C44.0867 34.8873 44.0661 34.644 44.0497 34.3372C44.017 33.7231 44.0006 32.8448 43.9925 31.6633V31.6625C43.9925 30.6203 43.9762 29.779 43.9478 29.1991C43.9336 28.9087 43.9165 28.6862 43.8972 28.5375C43.8887 28.4722 43.8803 28.4246 43.8725 28.3929C43.8401 28.3834 43.8102 28.3684 43.7836 28.3517C43.7374 28.3226 43.6927 28.2831 43.6507 28.2386C43.5667 28.1495 43.4835 28.0295 43.4103 27.899C43.2659 27.6416 43.1451 27.3155 43.1451 27.0667C43.1451 26.9341 43.1822 26.7772 43.236 26.635C43.2898 26.493 43.3653 26.3525 43.4515 26.2566Z" fill="white" stroke="white" stroke-width="0.229412"/>
<path id="Vector_12" d="M12.6523 29.7392C12.4233 29.5103 12.3555 29.1595 12.4041 28.8461C12.4525 28.5337 12.6221 28.224 12.9116 28.0881C13.2674 27.9107 13.6379 27.9201 13.9231 28.0838C14.2098 28.2483 14.3963 28.5608 14.3963 28.9573C14.3963 29.8933 13.3207 30.4077 12.6523 29.7392Z" fill="white" stroke="white" stroke-width="0.229412"/>
<path id="Vector_13" d="M75.0736 28.4185L75.0731 28.4191C74.8957 28.6725 74.7981 28.9018 74.8101 29.1445C74.822 29.3853 74.941 29.616 75.1416 29.8751L75.1419 29.8756C75.2104 29.9631 75.26 30.0409 75.2991 30.1512C75.3392 30.264 75.3701 30.416 75.3931 30.6533C75.4393 31.1296 75.4516 31.9218 75.4598 33.3743C75.4598 33.3744 75.4598 33.3745 75.4598 33.3746L75.5745 33.3739C75.5745 35.1014 75.6234 36.8126 75.7049 37.1711L75.0736 28.4185ZM75.0736 28.4185C75.4797 27.8461 76.3442 27.8668 76.7297 28.4871C76.8571 28.6703 76.9435 28.811 76.9461 28.9822C76.9486 29.1462 76.8731 29.3224 76.754 29.5766L76.7538 29.577C76.6774 29.7383 76.5874 29.8846 76.5015 29.9925C76.4588 30.0461 76.4147 30.0933 76.3715 30.1282C76.347 30.148 76.3148 30.1705 76.2774 30.1842C76.2711 30.206 76.2639 30.2383 76.2566 30.283C76.2377 30.3973 76.2206 30.5709 76.2064 30.802C76.1781 31.2631 76.1618 31.9408 76.1618 32.8036C76.1618 34.319 76.113 36.0518 76.0472 36.6939L76.0471 36.6941L76.0438 36.7257C76.017 36.9826 75.9964 37.1793 75.9792 37.3203C75.9702 37.3936 75.9619 37.4535 75.9538 37.4998C75.9464 37.5421 75.9374 37.5848 75.9235 37.6156C75.9196 37.6242 75.9134 37.6363 75.904 37.6483C75.8951 37.6597 75.8772 37.6791 75.8474 37.6899C75.8129 37.7025 75.7779 37.6979 75.7504 37.6838C75.727 37.6717 75.7126 37.655 75.7054 37.6453C75.6911 37.6262 75.6825 37.6049 75.6776 37.5912C75.6718 37.5753 75.6665 37.5573 75.6616 37.5384C75.6426 37.4652 75.6204 37.3457 75.5925 37.1941L75.0736 28.4185Z" fill="white" stroke="white" stroke-width="0.229412"/>
<path id="Vector_14" d="M22.7223 29.7604L22.7223 29.7604L22.7237 29.7594C23.3966 29.2813 24.1036 29.4892 24.4786 29.954C24.665 30.1851 24.7713 30.4816 24.7494 30.7892C24.7275 31.0984 24.5766 31.4093 24.266 31.6678C23.8569 32.0228 23.3666 32.0589 22.9773 31.8551C22.5899 31.6523 22.3169 31.2199 22.3169 30.6677C22.3169 30.4539 22.3468 30.2774 22.4148 30.1274C22.4834 29.9759 22.5873 29.8594 22.7223 29.7604Z" fill="white" stroke="white" stroke-width="0.229412"/>
<path id="Vector_15" d="M29.177 29.9855L29.177 29.9854L29.18 29.9825C29.3761 29.7945 29.5346 29.6643 29.6859 29.5945C29.846 29.5206 29.993 29.5164 30.1554 29.5642L30.1568 29.5646C30.7186 29.7374 31.0764 30.1157 31.1723 30.5585C31.2682 31.0017 31.0959 31.4828 30.6535 31.8478L30.2052 32.2363V35.2315V38.2953V38.3426L30.1718 38.3762L26.8309 41.7333L26.8307 41.7335C25.4777 43.0866 24.6451 43.9437 24.1509 44.5067C23.9036 44.7885 23.7443 44.993 23.6473 45.1467C23.5491 45.3023 23.5235 45.3928 23.5235 45.4496C23.5235 45.7463 23.3768 46.0454 23.1761 46.2679C22.9768 46.4889 22.7038 46.6562 22.4309 46.6562C22.1832 46.6562 21.9114 46.4935 21.7095 46.298C21.6059 46.1977 21.5146 46.0831 21.4485 45.965C21.3831 45.848 21.3384 45.7205 21.3384 45.5963C21.3384 45.1634 21.6052 44.8067 21.9523 44.6176C22.294 44.4314 22.7303 44.3983 23.0946 44.6248C23.1029 44.6226 23.116 44.6179 23.1348 44.6089C23.1876 44.5836 23.264 44.5341 23.3688 44.4529C23.5771 44.2915 23.8784 44.0202 24.2966 43.6153C25.1319 42.8064 26.4218 41.4758 28.345 39.4549C28.345 39.4548 28.3451 39.4548 28.3451 39.4548L29.4708 38.2656L29.4869 35.2478C29.4869 35.2477 29.4869 35.2476 29.4869 35.2475C29.4869 33.8686 29.4786 33.1005 29.4364 32.626C29.4154 32.3897 29.3863 32.2319 29.3479 32.1107C29.3102 31.992 29.2623 31.9044 29.1978 31.8095C28.9134 31.4112 28.7501 31.1043 28.7454 30.8148C28.7405 30.516 28.9037 30.267 29.177 29.9855Z" fill="white" stroke="white" stroke-width="0.229412"/>
<path id="Vector_16" d="M63.1006 31.5873C62.8846 31.4072 62.7604 31.1756 62.7461 30.9338C62.7317 30.6924 62.8277 30.454 63.0266 30.2625C63.1053 30.1754 63.2163 30.1032 63.326 30.0527C63.4364 30.0019 63.5593 29.9669 63.6632 29.9669C63.8825 29.9669 64.1128 30.0929 64.2829 30.2499C64.4513 30.4054 64.5927 30.6212 64.5927 30.8312C64.5927 31.0457 64.5059 31.2864 64.3925 31.4717C64.3353 31.5652 64.2681 31.6501 64.1959 31.713C64.1363 31.7648 64.0631 31.8106 63.9822 31.8228C63.9768 31.8369 63.97 31.859 63.963 31.8918C63.942 31.9907 63.9254 32.1523 63.9143 32.3949C63.892 32.8778 63.892 33.6567 63.9083 34.8385C63.9083 34.8386 63.9083 34.8386 63.9083 34.8387L63.9564 37.9333L64.358 38.2904C64.3581 38.2905 64.3583 38.2906 64.3584 38.2907C66.5189 40.1821 69.2128 42.6437 71.1243 44.4411C72.0796 45.3394 72.8412 46.0734 73.243 46.4875C73.3434 46.591 73.4227 46.6758 73.4772 46.7389C73.5043 46.7702 73.5269 46.798 73.5434 46.8212C73.5515 46.8326 73.5599 46.8453 73.5666 46.8583L73.5668 46.8586C73.571 46.8667 73.5854 46.8942 73.5844 46.9289C73.5839 46.9508 73.5767 46.9846 73.5479 47.0123C73.5202 47.039 73.4882 47.0448 73.4699 47.0457C73.4384 47.0472 73.4122 47.0362 73.4033 47.0324C73.3784 47.0218 73.3493 47.004 73.3196 46.9842C73.2573 46.9427 73.1659 46.8742 73.0443 46.7781L73.0437 46.7777C72.5516 46.384 71.3105 45.2897 70.2679 44.3449L70.2672 44.3443C69.2412 43.3997 67.4654 41.8031 66.325 40.793L66.3247 40.7928C66.0665 40.5625 65.8306 40.3543 65.6153 40.1643C65.1737 39.7745 64.8185 39.461 64.5348 39.1902C64.1121 38.7867 63.8364 38.4674 63.6623 38.1159C63.4872 37.7626 63.4196 37.3867 63.3943 36.8788C63.3769 36.5282 63.3794 36.1074 63.3826 35.5816C63.384 35.3503 63.3855 35.0988 63.3855 34.824C63.3855 33.403 63.3813 32.6442 63.3392 32.2071C63.3182 31.9889 63.2885 31.8618 63.2509 31.7763C63.2154 31.6957 63.1702 31.6459 63.1006 31.5873ZM63.1006 31.5873C63.1007 31.5874 63.1008 31.5875 63.1009 31.5875L63.1743 31.4994M63.1006 31.5873C63.1005 31.5873 63.1005 31.5872 63.1004 31.5871L63.1743 31.4994M63.1743 31.4994C62.7832 31.1735 62.7506 30.6846 63.1091 30.3423L63.1743 31.4994ZM73.4931 46.8213C73.4948 46.822 73.4944 46.8217 73.4922 46.8209L73.4931 46.8213ZM63.7697 38.0744C64.1019 38.7365 64.8277 39.3041 66.4011 40.7071C67.5419 41.7176 69.3182 43.3147 70.3449 44.2599L63.7697 38.0744Z" fill="white" stroke="white" stroke-width="0.229412"/>
<path id="Vector_17" d="M87.0834 37.1231C86.9883 36.7373 86.9575 36.3292 86.933 35.8239C86.933 35.8239 86.933 35.8238 86.933 35.8237L86.8679 34.5693L87.0963 34.5493L87.2429 35.7386C87.2429 35.7386 87.2429 35.7387 87.2429 35.7388C87.3805 36.8234 87.5035 37.4234 88.1317 38.2676C88.7697 39.125 89.9253 40.2288 92.1453 42.302L92.1462 42.3028C92.8477 42.9716 93.529 43.6407 94.0597 44.1817C94.3251 44.4521 94.5532 44.691 94.7277 44.8821C94.8995 45.0704 95.0259 45.2194 95.0812 45.3069L95.0817 45.3077C95.2351 45.5548 95.3267 45.7725 95.3784 46.0783C95.4291 46.3784 95.4411 46.7624 95.4411 47.3401L95.4411 47.3408C95.433 48.6546 95.3279 49.5052 94.8891 50.2387C94.4524 50.9687 93.6934 51.5679 92.4236 52.4064L92.4234 52.4065C91.6858 52.8915 91.1294 53.2488 90.7549 53.4777C90.5681 53.592 90.4245 53.6755 90.3256 53.727C90.2771 53.7523 90.2349 53.7722 90.2019 53.7838C90.1871 53.789 90.1647 53.796 90.1409 53.7971C90.1293 53.7977 90.1066 53.7976 90.0816 53.7868C90.0515 53.7737 90.0238 53.747 90.0131 53.708C90.0042 53.6757 90.0108 53.6485 90.015 53.6355C90.0197 53.6209 90.0261 53.609 90.031 53.601C90.0409 53.5847 90.0536 53.569 90.0658 53.5553C90.0907 53.527 90.1265 53.4922 90.171 53.4517C90.2607 53.3701 90.3955 53.2569 90.5742 53.1128C90.9321 52.8242 91.472 52.4068 92.1934 51.8607C92.7297 51.4543 93.2413 51.0442 93.6346 50.7097C93.8314 50.5424 93.9977 50.3946 94.1224 50.2762C94.2513 50.1538 94.3253 50.0722 94.3487 50.0341L94.3487 50.0341L94.3504 50.0315C94.3746 49.9945 94.4037 49.9222 94.4337 49.8107C94.463 49.7021 94.4906 49.566 94.516 49.4088C94.5667 49.0947 94.6071 48.7033 94.6334 48.2942C94.6863 47.4723 94.6812 46.5965 94.5945 46.1392L94.5944 46.1392L94.5939 46.1361C94.5589 45.9192 94.4136 45.648 93.8993 45.0542C93.3888 44.4647 92.5319 43.5752 91.1053 42.124C89.186 40.1804 88.1657 39.1199 87.6161 38.2915C87.3389 37.8736 87.1792 37.5117 87.0834 37.1231Z" fill="white" stroke="white" stroke-width="0.229412"/>
<path id="Vector_18" d="M57.541 41.5288L57.5157 41.4969L57.5162 41.4563L57.5488 38.2621L57.5813 35.0516L57.8107 35.0492L57.9085 38.2271L57.9085 38.2274C57.9329 39.0988 57.9614 39.8969 57.9858 40.4789C57.9981 40.77 58.0092 41.0067 58.0184 41.1715C58.0229 41.254 58.027 41.3179 58.0303 41.3612C58.0311 41.3718 58.0319 41.3809 58.0326 41.3886C58.185 41.5495 58.9503 42.3619 59.8334 43.3186C60.33 43.8477 60.7976 44.3356 61.1529 44.693C61.3307 44.8718 61.4796 45.0171 61.5895 45.1183C61.6446 45.169 61.6886 45.2074 61.7208 45.233C61.7303 45.2406 61.7383 45.2466 61.7447 45.2512C61.761 45.2453 61.7842 45.2351 61.8149 45.2194C61.884 45.1842 61.9779 45.1281 62.0906 45.0546C62.3151 44.9083 62.6054 44.6987 62.9048 44.4641C63.5402 43.9509 64.0029 43.5905 64.332 43.3581C64.4964 43.242 64.6301 43.1559 64.737 43.0984C64.8386 43.0438 64.9332 43.005 65.0134 43.005C65.0291 43.005 65.0635 43.0079 65.0945 43.035C65.1293 43.0654 65.1362 43.105 65.1354 43.1299C65.1346 43.1523 65.128 43.1699 65.1241 43.179C65.1197 43.1893 65.1145 43.1984 65.1101 43.2056C65.0936 43.232 65.067 43.2631 65.0378 43.2948C64.9768 43.3609 64.8808 43.4541 64.7592 43.5666C64.5149 43.7923 64.159 44.1032 63.7509 44.4461C63.7508 44.4461 63.7508 44.4461 63.7508 44.4461L62.3273 45.6482L62.3575 46.3579L62.3575 46.3579L62.3575 46.3595C62.3659 46.6525 62.3451 46.9007 62.2761 47.1529C62.2073 47.4044 62.0922 47.6543 61.9182 47.9525L61.9182 47.9525L61.9176 47.9535C61.5848 48.511 61.2061 48.9257 60.7403 49.2108C60.2745 49.4958 59.7296 49.6462 59.0722 49.6878L59.0722 49.6878L59.0706 49.6879L59.0695 49.6879C58.8219 49.7001 58.6349 49.7093 58.5058 49.7139C58.4413 49.7162 58.3897 49.7174 58.3516 49.7172C58.3327 49.7171 58.3155 49.7167 58.3009 49.7156C58.2908 49.7149 58.268 49.7132 58.2465 49.7051C58.2401 49.7027 58.2291 49.6981 58.2174 49.6896C58.2061 49.6815 58.1867 49.6645 58.1758 49.6353C58.1488 49.5631 58.1997 49.514 58.2085 49.5062C58.2226 49.4937 58.2371 49.4868 58.2429 49.4841C58.2507 49.4805 58.2584 49.4776 58.2651 49.4753C58.29 49.4668 58.327 49.4575 58.3704 49.4477C58.4595 49.4275 58.598 49.3998 58.7794 49.3635L58.7817 49.363L58.7817 49.363L58.7839 49.3626C59.9313 49.1555 60.8123 48.5843 61.2973 47.7865C61.3195 47.7495 61.3411 47.7138 61.362 47.6793C61.5351 47.3928 61.661 47.1844 61.7348 47.0028C61.8143 46.8074 61.8281 46.6551 61.7713 46.4821C61.7114 46.2998 61.5703 46.0854 61.312 45.7766C61.083 45.5028 60.7704 45.1644 60.3579 44.7179C60.3077 44.6636 60.2561 44.6077 60.203 44.5502C59.2255 43.4912 58.2294 42.3809 57.9828 42.085L57.9827 42.085L57.981 42.0829L57.541 41.5288ZM61.7615 45.2622C61.7615 45.2622 61.7609 45.2618 61.7599 45.2614L61.7615 45.2622Z" fill="white" stroke="white" stroke-width="0.229412"/>
<path id="Vector_19" d="M38.383 45.1079L38.3826 45.1075L35.4613 42.2186L34.2967 42.0927L34.2952 42.0925L33.0908 41.9786L33.0985 41.7497L34.3044 41.7171L34.306 41.7171L35.4956 41.7008L35.5426 41.7002L35.5765 41.7326L39.0152 45.0246L39.0156 45.025L42.4054 48.3019L46.8582 48.3825L51.3562 48.464L51.383 48.4645L51.4069 48.4769L52.2869 48.9332L52.2882 48.9339C53.4623 49.5623 54.6205 50.6691 55.1866 51.7014C55.1866 51.7014 55.1866 51.7014 55.1866 51.7014L55.6429 52.5325L55.6572 52.5585L55.6571 52.5881L55.6408 57.575L55.6246 62.5166L56.017 62.9391C56.0171 62.9392 56.0172 62.9393 56.0173 62.9394C56.3022 63.2417 56.4421 63.5857 56.4166 63.9128C56.3908 64.2429 56.1981 64.535 55.8606 64.7304L55.8607 64.7305L55.856 64.7329C55.6548 64.8376 55.5049 64.9047 55.3489 64.9047C55.1919 64.9047 55.0458 64.8369 54.8522 64.732L54.8513 64.7315C54.5145 64.5454 54.3164 64.2626 54.2834 63.9442C54.2506 63.6275 54.3833 63.2976 54.6627 63.0181L55.037 62.6438L55.0854 57.5898L55.0854 57.5894L55.1502 52.5233L54.7129 51.8518L54.7129 51.8518C54.0552 50.8412 53.0764 49.9594 52.0694 49.4639L51.1635 49.0189L46.7562 48.9378L46.7562 48.9378L46.7417 48.9376C44.5465 48.8971 43.4392 48.8766 42.8235 48.8151C42.5141 48.7841 42.3178 48.742 42.166 48.6764C42.0144 48.6108 41.9142 48.5244 41.7991 48.4252L41.7944 48.4211L41.7942 48.4209C41.5462 48.206 40.01 46.7024 38.383 45.1079Z" fill="white" stroke="white" stroke-width="0.229412"/>
<path id="Vector_20" d="M67.5405 46.6866C67.5404 46.6866 67.5404 46.6871 67.5405 46.6883C67.5405 46.6872 67.5405 46.6866 67.5405 46.6866ZM62.5698 56.3524V56.3145L62.5924 56.2841L63.2925 55.3397C63.2927 55.3395 63.2928 55.3394 63.2929 55.3392C63.687 54.7973 64.4065 53.9309 64.8973 53.391C67.1648 50.8624 67.7841 49.785 67.7848 48.5646C67.7768 48.3512 67.749 48.1136 67.7075 47.9021C67.6652 47.6866 67.611 47.5105 67.5555 47.4134C67.4863 47.2924 67.4265 47.1553 67.3837 47.0313C67.3433 46.9141 67.3138 46.7964 67.3123 46.7116C67.3101 46.6893 67.3096 46.6564 67.3233 46.624C67.3319 46.6035 67.3473 46.5807 67.3728 46.5639C67.3984 46.5471 67.4255 46.542 67.4481 46.5423C67.4877 46.5429 67.5199 46.5603 67.5374 46.5711C67.5582 46.5838 67.5785 46.6002 67.5977 46.6176C67.673 46.6858 67.7727 46.8088 67.8801 46.9658L67.8802 46.9657L67.8825 46.9694C68.0267 47.1984 68.1223 47.4102 68.1806 47.674C68.2384 47.9348 68.2587 48.2422 68.2587 48.6603L68.2587 48.6616C68.2504 49.3863 68.145 49.9357 67.7365 50.6542C67.3329 51.3642 66.6327 52.2402 65.4443 53.6241L65.444 53.6244C64.9231 54.2267 64.4225 54.8208 64.0341 55.2927C63.6429 55.7678 63.3713 56.1119 63.3025 56.2189L63.3026 56.2189L63.3 56.2226C63.205 56.3584 63.1328 56.5711 63.082 57.1648C63.0315 57.7549 63.003 58.7001 62.9785 60.2816C62.9785 60.2816 62.9785 60.2817 62.9785 60.2817L62.9304 63.9725L63.3903 64.3286L63.3904 64.3286L63.3918 64.3298C63.7284 64.5991 63.94 64.9056 63.94 65.2342C63.94 65.7429 63.6656 66.1198 63.2935 66.2769C62.9216 66.434 62.4646 66.3662 62.1145 66.0161C61.873 65.7746 61.7574 65.4745 61.7735 65.1691C61.7895 64.8645 61.9358 64.5647 62.1989 64.3192L62.1989 64.3192L62.1995 64.3186L62.5698 63.9779V60.1822V56.3524Z" fill="white" stroke="white" stroke-width="0.229412"/>
<path id="Vector_21" d="M31.8421 47.7704L31.8422 47.7704C32.3132 47.5959 32.7623 47.6536 33.0951 47.8998C33.4269 48.1453 33.6264 48.5656 33.6264 49.0839C33.6264 49.8972 32.8699 50.4765 32.0298 50.3547C31.8999 50.339 31.8085 50.3354 31.7054 50.364C31.5995 50.3934 31.4713 50.4597 31.2784 50.6038C30.8903 50.8939 30.2773 51.4702 29.1094 52.5891L26.6649 54.9358L26.6314 54.968L26.5849 54.9677L23.7329 54.9514L23.7324 54.9514C22.1684 54.9351 20.4028 54.87 19.8096 54.8041L19.8096 54.8041L19.8093 54.804C19.7195 54.7938 19.6497 54.7838 19.6042 54.7737C19.5854 54.7695 19.5558 54.7623 19.5316 54.7481C19.5244 54.7439 19.513 54.7365 19.5018 54.7246C19.4907 54.7127 19.4745 54.6905 19.4703 54.6582C19.4606 54.5845 19.517 54.5468 19.5269 54.5406C19.5435 54.5301 19.5604 54.5247 19.5697 54.522C19.5809 54.5188 19.5927 54.5162 19.6042 54.5141C19.6272 54.51 19.6557 54.5064 19.6885 54.5031C19.7543 54.4967 19.845 54.491 19.9598 54.4858C20.4187 54.4653 21.2888 54.4531 22.5756 54.445C22.5757 54.445 22.5757 54.445 22.5757 54.445L26.3588 54.4128L28.6887 52.115L28.6893 52.1144C29.8581 50.9783 30.4452 50.4028 30.7365 50.0317C30.8805 49.8483 30.9444 49.7241 30.973 49.6147C31.0017 49.5045 30.9976 49.3989 30.9854 49.2394L30.9853 49.2394L30.9852 49.2358C30.9683 48.8644 31.0223 48.555 31.1654 48.3074C31.3098 48.0576 31.5374 47.8836 31.8421 47.7704Z" fill="white" stroke="white" stroke-width="0.229412"/>
<path id="Vector_22" d="M43.7759 53.7495L43.7765 53.7491C43.9486 53.6261 44.1173 53.5109 44.2498 53.426C44.3159 53.3837 44.3742 53.3481 44.4201 53.3227C44.4429 53.3101 44.4644 53.299 44.4832 53.2907C44.4926 53.2866 44.503 53.2824 44.5137 53.2791C44.5224 53.2763 44.5397 53.2714 44.5602 53.2714C44.5846 53.2714 44.6353 53.2806 44.6637 53.3322C44.6858 53.3723 44.677 53.41 44.6747 53.4196C44.6686 53.4437 44.6559 53.4633 44.6509 53.471C44.637 53.4922 44.6159 53.5185 44.5918 53.5466C44.5421 53.6046 44.4658 53.6865 44.3696 53.7858C44.1768 53.9847 43.8988 54.2586 43.5806 54.5606C43.4669 54.6722 43.3613 54.7741 43.263 54.8688C42.9508 55.1698 42.7127 55.3993 42.5253 55.6475C42.2847 55.9658 42.1294 56.3142 42.0311 56.883C41.932 57.4565 41.8917 58.2492 41.8808 59.4544C41.8721 60.4092 41.8818 61.618 41.8943 63.1752C41.8976 63.5816 41.9011 64.0116 41.9045 64.4672L41.9045 64.4672C41.9289 67.8416 41.9493 69.7377 41.994 70.8088C42.0164 71.3455 42.0447 71.6688 42.0813 71.8654C42.1191 72.0688 42.1603 72.102 42.1747 72.1107L42.1747 72.1106L42.1767 72.1119C42.763 72.4804 43.1279 72.9351 43.2302 73.4198C43.3335 73.9095 43.1634 74.4036 42.7346 74.8325L42.7346 74.8325L42.7336 74.8335C42.3938 75.1647 42.0325 75.3427 41.6594 75.3427C41.2862 75.3427 40.9249 75.1647 40.5852 74.8335L40.5852 74.8335L40.5842 74.8325C39.9267 74.175 39.8814 73.2388 40.518 72.6177C40.6287 72.4988 40.752 72.3925 40.8619 72.315C40.9171 72.276 40.9708 72.2429 41.0193 72.2191C41.0415 72.2083 41.0662 72.1974 41.0918 72.1893C41.0935 72.1812 41.0952 72.1716 41.097 72.1605C41.1084 72.0917 41.1194 71.9841 41.1296 71.835C41.1501 71.5378 41.1668 71.0878 41.1801 70.4791C41.2065 69.2622 41.2187 67.4176 41.2187 64.908C41.2187 61.8689 41.2309 59.9849 41.2677 58.7749C41.3043 57.5681 41.3654 57.0207 41.4676 56.6629L41.4677 56.6623C41.6038 56.1946 41.9149 55.6597 42.3213 55.1482C42.7286 54.6354 43.2372 54.139 43.7759 53.7495ZM42.1157 72.209C41.8712 72.0624 41.8386 71.2149 41.7897 64.468L40.6653 74.7513C41.3171 75.3869 42.0016 75.3869 42.6535 74.7513C43.4683 73.9365 43.2565 72.9261 42.1157 72.209Z" fill="white" stroke="white" stroke-width="0.229412"/>
<path id="Vector_23" d="M66.2961 68.3859L66.4628 68.5432L67.6359 67.4027C67.6359 67.4026 67.636 67.4026 67.636 67.4025C67.6624 67.377 67.6885 67.3519 67.7142 67.3271C68.1509 66.9054 68.485 66.5827 68.7397 66.3032C69.0104 66.0062 69.1968 65.7522 69.3249 65.4712C69.5691 64.9356 69.5927 64.3164 69.6372 63.151C69.639 63.1036 69.6408 63.0552 69.6427 63.0059L69.6427 63.0057L69.7202 60.9138L73.507 60.8346L77.4019 60.7531L77.4513 60.7521L77.4844 60.7155L78.4452 59.657C78.4453 59.6569 78.4454 59.6568 78.4455 59.6567C78.952 59.1094 79.4503 58.5375 79.8102 58.102C79.99 57.8844 80.1364 57.6995 80.2321 57.5681C80.2794 57.5032 80.317 57.4478 80.3399 57.4067C80.35 57.3886 80.3633 57.3629 80.3693 57.3366C80.3716 57.3263 80.3788 57.2926 80.3628 57.2555C80.3533 57.2336 80.3366 57.2128 80.3122 57.1989C80.2894 57.1858 80.267 57.1829 80.2515 57.1829C80.2289 57.1829 80.2119 57.1895 80.2064 57.1917C80.1989 57.1948 80.1928 57.1981 80.189 57.2003C80.1814 57.2047 80.1745 57.2096 80.1694 57.2133C80.1588 57.2211 80.1466 57.2312 80.1337 57.2422C80.1075 57.2646 80.0721 57.2967 80.0292 57.3366C79.9431 57.4168 79.8231 57.5321 79.6782 57.6739C79.3883 57.9577 78.9968 58.3493 78.5727 58.7815C78.5727 58.7816 78.5726 58.7817 78.5725 58.7817L77.0597 60.3105L73.1658 60.1978L73.1656 60.1978M66.2961 68.3859L69.1859 60.4266C69.2022 60.2473 69.9029 60.2147 73.1623 60.3125L73.1656 60.1978M66.2961 68.3859L67.4532 67.0495C67.4532 67.0495 67.4532 67.0495 67.4532 67.0495C68.2976 66.0739 68.7043 65.59 68.9053 65.0515C69.1059 64.5139 69.1039 63.9156 69.0875 62.6935L66.2961 68.3859ZM73.1656 60.1978C71.5367 60.149 70.5431 60.1325 69.9543 60.151C69.6614 60.1602 69.461 60.1781 69.3306 60.2075C69.266 60.222 69.2088 60.2413 69.1646 60.2704C69.1176 60.3014 69.0789 60.3486 69.0719 60.4132M73.1656 60.1978L69.0719 60.4132M69.0719 60.4132C69.0668 60.4533 69.065 60.5475 69.0646 60.6701C69.064 60.8007 69.0651 60.9756 69.0671 61.1814C69.0706 61.5366 69.0772 61.9857 69.0841 62.4631L69.0719 60.4132Z" fill="white" stroke="white" stroke-width="0.229412"/>
<path id="Vector_24" d="M69.4446 75.9241V75.9241L69.4456 75.924C70.2512 75.8996 71.0075 75.863 71.5762 75.8244C71.8607 75.8051 72.0973 75.7854 72.2692 75.7665C72.3553 75.7571 72.4238 75.748 72.4734 75.7396C72.4982 75.7353 72.5169 75.7315 72.5299 75.7282C72.5328 75.7275 72.5351 75.7268 72.537 75.7263C72.5599 75.7076 72.6037 75.6664 72.6684 75.6005C72.7405 75.5272 72.8322 75.4299 72.9378 75.3152C73.1486 75.0861 73.4126 74.7897 73.6809 74.4807C73.681 74.4807 73.6811 74.4806 73.6811 74.4805L74.6308 73.3725V71.8341V70.3088L74.1257 70.0634C74.1256 70.0634 74.1255 70.0633 74.1254 70.0633C73.7344 69.8763 73.4631 69.626 73.3391 69.3091C73.2148 68.9915 73.2471 68.6291 73.4178 68.2363C73.4876 68.0708 73.5913 67.9025 73.7059 67.7641C73.818 67.6287 73.9511 67.5091 74.0841 67.4576C74.8286 67.1568 75.5112 67.5016 75.8511 68.0432C76.1914 68.5855 76.1991 69.3436 75.5861 69.8679L75.5856 69.8683C75.4794 69.9582 75.4082 70.023 75.3558 70.0929C75.3056 70.1598 75.27 70.2351 75.2445 70.3478C75.191 70.5847 75.1862 70.9635 75.1862 71.72C75.1862 72.1551 75.1657 72.5906 75.1327 72.9428C75.1163 73.1188 75.0966 73.2753 75.0745 73.4013C75.0531 73.523 75.0276 73.6288 74.9948 73.6943L74.995 73.6945L74.9913 73.7008C74.9291 73.8074 74.7645 74.0261 74.5537 74.2875C74.3408 74.5516 74.075 74.8665 73.805 75.1692L72.844 76.2768L72.8092 76.3169L72.7561 76.3164L69.6277 76.2838L69.6271 76.2838L66.515 76.2675L66.5112 76.0382L69.4446 75.9241Z" fill="white" stroke="white" stroke-width="0.229412"/>
</g>
</svg>
