<svg width="184" height="161" viewBox="0 0 184 161" fill="none" xmlns="http://www.w3.org/2000/svg">
<mask id="path-1-outside-1_154_1683" maskUnits="userSpaceOnUse" x="0" y="0.360352" width="184" height="161" fill="black">
<rect fill="white" y="0.360352" width="184" height="161"/>
<path d="M82.2841 1.03729C81.9345 1.08723 80.9106 1.31198 79.9867 1.51176C78.5633 1.8364 78.0389 1.86136 76.6155 1.61165C75.6665 1.43684 74.0683 1.33696 73.0445 1.3869C71.1466 1.48679 70.9968 1.56171 67.5007 3.40962C66.5518 3.90906 65.2782 4.1338 60.6334 4.58331C57.5369 4.90794 56.1385 5.40738 53.4915 7.18039C50.6946 9.02831 49.421 9.62764 45.9749 10.7264C43.3029 11.6004 42.8784 11.8002 41.5798 12.9988C40.3812 14.1226 39.7569 14.4722 37.4345 15.2963C34.1382 16.4699 33.0145 17.0443 30.6671 18.6425C28.9191 19.8661 28.4446 20.4904 27.6455 22.5881C27.2959 23.4621 24.4741 26.7334 22.8259 28.1069C22.0768 28.7312 20.2538 30.1046 18.7305 31.1534C17.2322 32.1773 15.7339 33.301 15.4342 33.6257C15.1346 33.9253 14.3854 35.5984 13.7611 37.2965C12.4376 40.8675 11.3888 42.8903 9.36605 45.6871C5.9449 50.4068 5.17077 52.4795 4.89608 57.6487C4.67133 61.3195 4.39664 62.5182 3.0981 65.0653C-0.847468 72.9065 0.875595 83.7194 7.39327 92.1599C12.0131 98.1531 19.6045 102.423 27.8703 103.647C32.9146 104.396 42.8284 103.797 45.1259 102.598C45.85 102.224 45.875 102.249 46.9238 103.173C48.7967 104.846 49.5709 106.219 50.0703 108.666C51.6186 116.433 57.6118 122.651 66.2271 125.447C71.671 127.195 78.7131 126.571 84.9062 123.799C87.0038 122.85 87.728 122.651 89.4011 122.551C94.1208 122.251 98.7156 124.798 102.187 129.643C103.161 131.041 109.029 142.703 115.122 155.439C116.346 157.986 117.47 160.133 117.594 160.233C118.518 160.858 117.919 159.259 115.172 153.666C113.449 150.17 110.977 145.025 109.653 142.204C106.307 135.112 103.46 129.818 102.062 128.07C99.7645 125.248 96.618 123 93.5714 122.076C92.9221 121.901 91.3739 121.727 90.1003 121.727H87.8279L87.728 116.233L87.6531 110.739L81.2353 104.296L74.7925 97.8785V92.5844V87.2904L75.4168 86.6661C76.166 85.9169 76.2159 85.1927 75.5417 84.5185C74.9423 83.9191 74.5927 83.8942 73.8436 84.4186C73.1444 84.893 73.1194 86.0418 73.7936 86.6411C74.2681 87.0656 74.2931 87.4152 74.2931 92.6094V98.1282L80.6359 104.496C85.93 109.79 87.0288 111.014 87.1536 111.738C87.2285 112.212 87.2785 114.685 87.2285 117.232L87.1536 121.827L85.1808 122.8C81.9095 124.374 77.2647 125.722 75.0422 125.722H74.343L74.4679 124.149C74.6177 122.451 74.318 121.477 73.6438 121.477C73.3192 121.477 73.3441 121.602 73.7687 122.126C74.318 122.825 74.4179 123.575 74.1183 124.973L73.9684 125.797L71.3214 125.647C68.15 125.472 65.7527 124.848 62.781 123.375C58.8604 121.427 55.8388 118.83 53.5913 115.534C51.4687 112.387 50.5697 109.765 50.5697 106.619C50.5697 104.071 51.0442 102.298 52.2179 100.525C53.042 99.2769 53.0669 99.202 52.4426 99.7513C51.4438 100.675 50.4948 102.423 50.1952 103.922L49.9205 105.245L48.3722 103.522L46.8239 101.774L47.3733 100.825C49.0964 97.9284 46.8739 93.5833 42.8784 91.9601C41.48 91.3857 41.2802 91.3857 32.3402 91.3857C22.3764 91.3857 22.4763 91.3857 20.4536 89.8625C19.9791 89.4879 17.6068 87.1155 15.2095 84.5934L10.8394 79.9985L10.9892 78.9497C11.1391 78.0507 11.0641 77.801 10.5148 77.2017C9.79058 76.4026 8.91656 76.3277 8.09248 77.0019C6.89383 77.9508 7.61802 80.2732 9.11633 80.2732C9.81555 80.2732 11.8383 82.221 17.432 88.2892C18.9802 89.9623 20.3287 91.2109 21.1778 91.6604L22.4763 92.3846L31.9657 92.5095L41.455 92.6343L43.0032 93.3585C45.7751 94.6321 47.3234 96.9795 46.9488 99.2769C46.4993 101.874 44.6014 102.648 37.1348 103.247C33.4889 103.547 28.994 103.297 25.6727 102.598C19.7793 101.399 14.3854 98.5028 10.1152 94.2575C5.72015 89.9124 2.89832 84.3936 1.99933 78.3504C1.37503 74.3049 1.54984 70.9337 2.52374 67.8372L2.94827 66.5387H8.19237H13.4365L15.9087 64.0914C19.3548 60.7202 20.6534 59.0721 17.9564 61.4694C16.8327 62.4682 15.7589 63.4671 15.5841 63.6919C15.3843 63.9416 14.6851 64.5659 14.0358 65.0903L12.8122 66.0392H8.09248C5.4954 66.0392 3.37279 65.9893 3.37279 65.9393C3.37279 65.8894 3.69742 65.1402 4.12195 64.2662C5.17077 61.9688 5.62026 59.996 5.62026 57.4988V55.3263L8.56695 55.4511L11.4887 55.601L12.3877 54.1276C14.2106 51.2309 14.3355 50.6316 12.5874 53.1787C11.9881 54.0527 11.3388 54.8518 11.1141 54.9267C10.9143 55.0266 9.64074 55.0016 8.26729 54.9018L5.82004 54.727L5.96987 53.5782C6.19462 51.9301 7.31835 49.6826 9.69069 46.2365C12.4875 42.1411 12.8621 41.4669 14.2356 37.6961C14.9098 35.8981 15.684 34.175 15.9586 33.8504C16.2583 33.5258 17.7316 32.452 19.23 31.4531C22.0268 29.6052 25.1483 27.0081 26.0972 25.7595C26.8464 24.7856 27.0712 24.9105 26.7965 26.1341C26.4469 27.6823 26.7215 29.6801 27.4457 30.9037C27.7704 31.4781 29.7182 33.5757 31.7659 35.5735C33.7886 37.5463 35.1371 38.7199 34.7375 38.1955C34.313 37.6461 32.6898 35.8981 31.0916 34.3249C29.4685 32.7267 27.9701 31.0036 27.6954 30.4542C26.8464 28.6562 27.246 24.9354 28.6194 21.6641C29.1438 20.4405 31.1665 18.7424 33.4889 17.5937C34.9873 16.8695 39.8318 15.0216 39.8318 15.1964C39.8318 15.2463 39.5821 15.8207 39.2824 16.4949C38.783 17.5937 38.733 18.1431 38.733 22.0886C38.7081 25.2351 38.808 26.7334 39.0577 27.4576C39.3074 28.1568 40.531 29.5802 43.4028 32.5019C46.2995 35.4486 47.4233 36.7721 47.5731 37.3715L47.7729 38.1955L47.7979 37.3964C47.8228 36.4225 46.9988 35.3487 42.9034 31.0536C39.3573 27.3078 39.3324 27.2828 39.3324 21.9887C39.3324 17.9433 39.7319 16.0704 40.9805 14.3973C42.304 12.5993 43.4527 11.925 46.8239 10.9761C48.0975 10.6265 49.8705 10.0022 50.7695 9.5777C51.6685 9.17815 52.4177 8.8535 52.4676 8.8535C52.4926 8.8535 52.4177 9.22809 52.2928 9.6526C51.9182 10.9761 52.0431 12.6243 52.5925 13.748C53.1918 15.0216 55.0397 16.3201 56.4881 16.4699C57.2872 16.5698 57.3371 16.5698 56.7628 16.3701C53.3167 15.2213 51.8683 12.4495 53.0669 9.30299C54.2156 6.23146 56.7128 5.18263 63.9797 4.73314L66.5018 4.58331L66.6017 8.40401C66.6766 11.7752 66.7516 12.3496 67.251 13.2735C68.0751 14.8468 70.0229 16.1703 71.9207 16.445L72.9196 16.5948L71.9207 16.2702C69.7482 15.546 68.5495 14.5721 67.6505 12.849C67.276 12.1248 67.201 11.3507 67.201 8.40401L67.1761 4.83302L68.175 3.98398C70.0728 2.33583 71.1216 1.98622 73.9185 2.0112C77.939 2.03616 80.3363 3.2598 81.6848 6.03168L82.384 7.4301L82.5338 20.9899C82.6337 28.4565 82.7586 34.6495 82.8585 34.7244C82.9583 34.8243 83.0333 28.6812 83.0333 21.0398V7.18039L82.2591 5.63213C81.7847 4.70816 81.1354 3.83415 80.586 3.4346C80.0616 3.06001 79.6121 2.7104 79.5372 2.66046C79.2875 2.48566 80.1615 2.16103 81.7347 1.88634C82.9334 1.66159 86.1048 1.58667 92.6474 1.66159L101.887 1.73651L103.136 2.41075C103.835 2.76036 104.609 3.23482 104.884 3.45956C105.383 3.80917 105.358 3.83415 104.559 4.6832C102.961 6.33134 102.761 7.40514 102.786 13.6731C102.811 17.294 102.886 18.8672 103.036 18.218C103.136 17.6686 103.236 15.3212 103.236 13.0238C103.261 10.7014 103.385 8.3291 103.535 7.75475C103.91 6.20648 105.034 5.00783 106.906 4.08386L108.505 3.28476L111.576 3.4346C113.624 3.53448 115.447 3.78421 117.12 4.20872C118.493 4.58331 121.19 5.03281 123.113 5.23257C127.134 5.6571 129.032 6.20648 131.928 7.72977C134.126 8.90344 137.272 10.9511 137.747 11.5005C137.971 11.7752 137.797 11.8002 136.748 11.6753C135.025 11.4756 132.652 11.975 130.854 12.9239C128.682 14.0726 126.834 16.0704 124.836 19.3167C122.639 22.9377 121.365 24.3611 119.442 25.31C117.744 26.184 116.77 26.2589 114.748 25.7096C113.025 25.2601 112.875 25.3849 114.423 25.9843C118.319 27.4826 121.94 25.4598 125.261 19.966C128.782 14.0976 132.977 11.8501 138.621 12.8241C144.589 13.8479 152.88 18.0432 156.75 21.9388C158.748 23.9366 160.796 27.3078 160.771 28.4814C160.721 30.4043 157.624 33.7755 154.778 34.9742C153.904 35.3487 153.229 35.6983 153.304 35.7483C153.504 35.973 156.875 34.5247 158.099 33.7006C159.447 32.7766 160.771 31.0286 161.32 29.4304L161.62 28.5813L162.219 29.5053C162.544 30.0047 163.618 30.9537 164.567 31.6029C166.714 33.0763 168.662 35.124 169.411 36.6972C170.31 38.62 171.634 42.7904 171.958 44.7132C172.158 46.0367 172.183 46.8108 171.958 47.7848C171.634 49.358 171.609 49.6327 171.908 49.4579C172.158 49.2831 172.682 47.4601 172.757 46.4363C172.782 46.0117 172.907 45.6871 173.007 45.6871C173.357 45.6871 176.204 49.8824 177.053 51.6554C178.151 53.9528 178.376 55.0016 178.701 59.5965C179.075 64.8156 178.925 68.062 178.176 69.5853C177.277 71.5081 175.205 73.0314 173.507 73.0314C172.982 73.0314 172.907 73.1063 173.182 73.2561C173.981 73.7805 176.303 72.8566 177.627 71.5081C178.776 70.3344 179.375 68.936 179.625 66.7884L179.824 64.9155L180.274 65.9144C180.524 66.4638 181.048 67.9121 181.473 69.1607C182.197 71.2584 182.247 71.6829 182.297 75.7533L182.372 80.0984L181.098 78.8748C179.125 77.0019 178.026 76.0779 178.426 76.6523C178.626 76.927 179.675 78.0008 180.798 79.0496L182.796 80.9475V84.6683C182.796 89.0134 182.447 90.6616 180.798 94.1826C179.15 97.7036 177.227 100.251 174.356 102.723C172.383 104.421 171.734 104.671 168.612 105.12C164.816 105.62 155.702 105.894 154.927 105.495C154.203 105.12 152.206 103.222 152.206 102.923C152.206 102.798 152.73 102.049 153.354 101.225L154.528 99.7513L157.175 99.7264C158.623 99.7014 161.895 99.6015 164.442 99.5266L169.062 99.3518L161.82 99.3018C157.849 99.2769 154.453 99.3518 154.328 99.4517C154.178 99.5516 153.404 100.376 152.605 101.325L151.157 102.998H142.766H134.401L132.253 100.875L130.105 98.7774L129.956 95.7059L129.831 92.6343L129.781 95.8557L129.731 99.0771L131.928 101.325L134.151 103.572L139.245 103.647C142.042 103.672 146.037 103.722 148.11 103.722L151.881 103.747L153.329 105.02L154.803 106.319L160.696 106.169C167.738 106.019 170.885 105.57 172.882 104.496C173.631 104.096 174.306 103.797 174.356 103.847C174.73 104.196 175.18 108.317 175.13 110.639L175.055 113.361L160.321 113.286C152.23 113.261 143.216 113.311 140.319 113.411L135.05 113.611L133.077 114.61C129.156 116.607 125.96 120.428 124.512 124.848L123.737 127.27L123.787 138.558C123.812 147.423 123.862 148.896 124.012 145.45C124.087 143.053 124.187 138.108 124.212 134.487C124.237 127.171 124.387 126.147 125.885 123.1C127.508 119.804 130.705 116.508 133.726 115.034C135.075 114.385 135.25 114.36 141.093 114.21C144.389 114.11 153.354 114.035 161.046 114.01L175.005 113.985L174.83 115.359C174.63 117.107 173.606 120.328 172.533 122.701C168.712 131.016 160.871 136.735 151.082 138.333C146.687 139.057 141.942 138.558 137.397 136.91C136.049 136.41 135.949 136.335 136.099 135.736C136.373 134.562 137.822 132.44 139.17 131.216C141.218 129.318 142.192 129.068 148.585 128.769L154.078 128.544L148.21 128.569C142.342 128.594 142.342 128.594 140.968 129.268C139.12 130.167 137.122 132.215 136.149 134.213L135.349 135.811L135.275 141.704C135.25 144.926 135.324 148.571 135.424 149.82C135.624 151.618 135.674 150.594 135.699 144.501C135.724 138.533 135.799 136.935 136.049 137.059C137.147 137.509 141.368 138.733 142.716 138.982C146.762 139.706 152.93 139.107 157.325 137.534C167.538 133.888 174.63 124.723 175.929 113.511C176.253 110.689 175.979 106.569 175.305 104.321L174.93 103.123L176.403 101.624C179.45 98.4778 181.048 95.8807 182.447 91.7603C183.246 89.4879 183.271 89.2132 183.271 85.5173C183.296 80.9475 182.796 71.7828 182.471 70.5342C182.347 70.0597 181.672 68.037 180.948 66.0642C179.775 62.7429 179.65 62.2185 179.425 59.1969C179.175 55.576 178.826 54.0527 177.727 51.7053C176.953 50.0322 174.93 46.9107 173.507 45.1377C172.932 44.4135 172.358 43.14 171.684 41.0673C169.961 35.7233 168.487 33.6257 164.791 31.1035C163.468 30.2045 162.893 29.6302 162.269 28.4814C161.145 26.4837 158.199 22.5881 156.75 21.2146C153.579 18.1431 146.362 14.2474 140.793 12.5993C140.219 12.4245 138.945 11.6753 137.996 10.9262C135.924 9.35295 132.553 7.33022 130.305 6.30637C128.257 5.3824 126.235 4.93291 122.988 4.73314C121.39 4.63326 119.118 4.2337 117.07 3.73425C112.65 2.61052 110.303 2.41075 107.905 2.98511L106.057 3.40962L104.909 2.6355C102.786 1.16216 102.611 1.16216 92.3478 1.03729C87.1536 0.98735 82.6337 0.98735 82.2841 1.03729Z"/>
</mask>
<path d="M82.2841 1.03729C81.9345 1.08723 80.9106 1.31198 79.9867 1.51176C78.5633 1.8364 78.0389 1.86136 76.6155 1.61165C75.6665 1.43684 74.0683 1.33696 73.0445 1.3869C71.1466 1.48679 70.9968 1.56171 67.5007 3.40962C66.5518 3.90906 65.2782 4.1338 60.6334 4.58331C57.5369 4.90794 56.1385 5.40738 53.4915 7.18039C50.6946 9.02831 49.421 9.62764 45.9749 10.7264C43.3029 11.6004 42.8784 11.8002 41.5798 12.9988C40.3812 14.1226 39.7569 14.4722 37.4345 15.2963C34.1382 16.4699 33.0145 17.0443 30.6671 18.6425C28.9191 19.8661 28.4446 20.4904 27.6455 22.5881C27.2959 23.4621 24.4741 26.7334 22.8259 28.1069C22.0768 28.7312 20.2538 30.1046 18.7305 31.1534C17.2322 32.1773 15.7339 33.301 15.4342 33.6257C15.1346 33.9253 14.3854 35.5984 13.7611 37.2965C12.4376 40.8675 11.3888 42.8903 9.36605 45.6871C5.9449 50.4068 5.17077 52.4795 4.89608 57.6487C4.67133 61.3195 4.39664 62.5182 3.0981 65.0653C-0.847468 72.9065 0.875595 83.7194 7.39327 92.1599C12.0131 98.1531 19.6045 102.423 27.8703 103.647C32.9146 104.396 42.8284 103.797 45.1259 102.598C45.85 102.224 45.875 102.249 46.9238 103.173C48.7967 104.846 49.5709 106.219 50.0703 108.666C51.6186 116.433 57.6118 122.651 66.2271 125.447C71.671 127.195 78.7131 126.571 84.9062 123.799C87.0038 122.85 87.728 122.651 89.4011 122.551C94.1208 122.251 98.7156 124.798 102.187 129.643C103.161 131.041 109.029 142.703 115.122 155.439C116.346 157.986 117.47 160.133 117.594 160.233C118.518 160.858 117.919 159.259 115.172 153.666C113.449 150.17 110.977 145.025 109.653 142.204C106.307 135.112 103.46 129.818 102.062 128.07C99.7645 125.248 96.618 123 93.5714 122.076C92.9221 121.901 91.3739 121.727 90.1003 121.727H87.8279L87.728 116.233L87.6531 110.739L81.2353 104.296L74.7925 97.8785V92.5844V87.2904L75.4168 86.6661C76.166 85.9169 76.2159 85.1927 75.5417 84.5185C74.9423 83.9191 74.5927 83.8942 73.8436 84.4186C73.1444 84.893 73.1194 86.0418 73.7936 86.6411C74.2681 87.0656 74.2931 87.4152 74.2931 92.6094V98.1282L80.6359 104.496C85.93 109.79 87.0288 111.014 87.1536 111.738C87.2285 112.212 87.2785 114.685 87.2285 117.232L87.1536 121.827L85.1808 122.8C81.9095 124.374 77.2647 125.722 75.0422 125.722H74.343L74.4679 124.149C74.6177 122.451 74.318 121.477 73.6438 121.477C73.3192 121.477 73.3441 121.602 73.7687 122.126C74.318 122.825 74.4179 123.575 74.1183 124.973L73.9684 125.797L71.3214 125.647C68.15 125.472 65.7527 124.848 62.781 123.375C58.8604 121.427 55.8388 118.83 53.5913 115.534C51.4687 112.387 50.5697 109.765 50.5697 106.619C50.5697 104.071 51.0442 102.298 52.2179 100.525C53.042 99.2769 53.0669 99.202 52.4426 99.7513C51.4438 100.675 50.4948 102.423 50.1952 103.922L49.9205 105.245L48.3722 103.522L46.8239 101.774L47.3733 100.825C49.0964 97.9284 46.8739 93.5833 42.8784 91.9601C41.48 91.3857 41.2802 91.3857 32.3402 91.3857C22.3764 91.3857 22.4763 91.3857 20.4536 89.8625C19.9791 89.4879 17.6068 87.1155 15.2095 84.5934L10.8394 79.9985L10.9892 78.9497C11.1391 78.0507 11.0641 77.801 10.5148 77.2017C9.79058 76.4026 8.91656 76.3277 8.09248 77.0019C6.89383 77.9508 7.61802 80.2732 9.11633 80.2732C9.81555 80.2732 11.8383 82.221 17.432 88.2892C18.9802 89.9623 20.3287 91.2109 21.1778 91.6604L22.4763 92.3846L31.9657 92.5095L41.455 92.6343L43.0032 93.3585C45.7751 94.6321 47.3234 96.9795 46.9488 99.2769C46.4993 101.874 44.6014 102.648 37.1348 103.247C33.4889 103.547 28.994 103.297 25.6727 102.598C19.7793 101.399 14.3854 98.5028 10.1152 94.2575C5.72015 89.9124 2.89832 84.3936 1.99933 78.3504C1.37503 74.3049 1.54984 70.9337 2.52374 67.8372L2.94827 66.5387H8.19237H13.4365L15.9087 64.0914C19.3548 60.7202 20.6534 59.0721 17.9564 61.4694C16.8327 62.4682 15.7589 63.4671 15.5841 63.6919C15.3843 63.9416 14.6851 64.5659 14.0358 65.0903L12.8122 66.0392H8.09248C5.4954 66.0392 3.37279 65.9893 3.37279 65.9393C3.37279 65.8894 3.69742 65.1402 4.12195 64.2662C5.17077 61.9688 5.62026 59.996 5.62026 57.4988V55.3263L8.56695 55.4511L11.4887 55.601L12.3877 54.1276C14.2106 51.2309 14.3355 50.6316 12.5874 53.1787C11.9881 54.0527 11.3388 54.8518 11.1141 54.9267C10.9143 55.0266 9.64074 55.0016 8.26729 54.9018L5.82004 54.727L5.96987 53.5782C6.19462 51.9301 7.31835 49.6826 9.69069 46.2365C12.4875 42.1411 12.8621 41.4669 14.2356 37.6961C14.9098 35.8981 15.684 34.175 15.9586 33.8504C16.2583 33.5258 17.7316 32.452 19.23 31.4531C22.0268 29.6052 25.1483 27.0081 26.0972 25.7595C26.8464 24.7856 27.0712 24.9105 26.7965 26.1341C26.4469 27.6823 26.7215 29.6801 27.4457 30.9037C27.7704 31.4781 29.7182 33.5757 31.7659 35.5735C33.7886 37.5463 35.1371 38.7199 34.7375 38.1955C34.313 37.6461 32.6898 35.8981 31.0916 34.3249C29.4685 32.7267 27.9701 31.0036 27.6954 30.4542C26.8464 28.6562 27.246 24.9354 28.6194 21.6641C29.1438 20.4405 31.1665 18.7424 33.4889 17.5937C34.9873 16.8695 39.8318 15.0216 39.8318 15.1964C39.8318 15.2463 39.5821 15.8207 39.2824 16.4949C38.783 17.5937 38.733 18.1431 38.733 22.0886C38.7081 25.2351 38.808 26.7334 39.0577 27.4576C39.3074 28.1568 40.531 29.5802 43.4028 32.5019C46.2995 35.4486 47.4233 36.7721 47.5731 37.3715L47.7729 38.1955L47.7979 37.3964C47.8228 36.4225 46.9988 35.3487 42.9034 31.0536C39.3573 27.3078 39.3324 27.2828 39.3324 21.9887C39.3324 17.9433 39.7319 16.0704 40.9805 14.3973C42.304 12.5993 43.4527 11.925 46.8239 10.9761C48.0975 10.6265 49.8705 10.0022 50.7695 9.5777C51.6685 9.17815 52.4177 8.8535 52.4676 8.8535C52.4926 8.8535 52.4177 9.22809 52.2928 9.6526C51.9182 10.9761 52.0431 12.6243 52.5925 13.748C53.1918 15.0216 55.0397 16.3201 56.4881 16.4699C57.2872 16.5698 57.3371 16.5698 56.7628 16.3701C53.3167 15.2213 51.8683 12.4495 53.0669 9.30299C54.2156 6.23146 56.7128 5.18263 63.9797 4.73314L66.5018 4.58331L66.6017 8.40401C66.6766 11.7752 66.7516 12.3496 67.251 13.2735C68.0751 14.8468 70.0229 16.1703 71.9207 16.445L72.9196 16.5948L71.9207 16.2702C69.7482 15.546 68.5495 14.5721 67.6505 12.849C67.276 12.1248 67.201 11.3507 67.201 8.40401L67.1761 4.83302L68.175 3.98398C70.0728 2.33583 71.1216 1.98622 73.9185 2.0112C77.939 2.03616 80.3363 3.2598 81.6848 6.03168L82.384 7.4301L82.5338 20.9899C82.6337 28.4565 82.7586 34.6495 82.8585 34.7244C82.9583 34.8243 83.0333 28.6812 83.0333 21.0398V7.18039L82.2591 5.63213C81.7847 4.70816 81.1354 3.83415 80.586 3.4346C80.0616 3.06001 79.6121 2.7104 79.5372 2.66046C79.2875 2.48566 80.1615 2.16103 81.7347 1.88634C82.9334 1.66159 86.1048 1.58667 92.6474 1.66159L101.887 1.73651L103.136 2.41075C103.835 2.76036 104.609 3.23482 104.884 3.45956C105.383 3.80917 105.358 3.83415 104.559 4.6832C102.961 6.33134 102.761 7.40514 102.786 13.6731C102.811 17.294 102.886 18.8672 103.036 18.218C103.136 17.6686 103.236 15.3212 103.236 13.0238C103.261 10.7014 103.385 8.3291 103.535 7.75475C103.91 6.20648 105.034 5.00783 106.906 4.08386L108.505 3.28476L111.576 3.4346C113.624 3.53448 115.447 3.78421 117.12 4.20872C118.493 4.58331 121.19 5.03281 123.113 5.23257C127.134 5.6571 129.032 6.20648 131.928 7.72977C134.126 8.90344 137.272 10.9511 137.747 11.5005C137.971 11.7752 137.797 11.8002 136.748 11.6753C135.025 11.4756 132.652 11.975 130.854 12.9239C128.682 14.0726 126.834 16.0704 124.836 19.3167C122.639 22.9377 121.365 24.3611 119.442 25.31C117.744 26.184 116.77 26.2589 114.748 25.7096C113.025 25.2601 112.875 25.3849 114.423 25.9843C118.319 27.4826 121.94 25.4598 125.261 19.966C128.782 14.0976 132.977 11.8501 138.621 12.8241C144.589 13.8479 152.88 18.0432 156.75 21.9388C158.748 23.9366 160.796 27.3078 160.771 28.4814C160.721 30.4043 157.624 33.7755 154.778 34.9742C153.904 35.3487 153.229 35.6983 153.304 35.7483C153.504 35.973 156.875 34.5247 158.099 33.7006C159.447 32.7766 160.771 31.0286 161.32 29.4304L161.62 28.5813L162.219 29.5053C162.544 30.0047 163.618 30.9537 164.567 31.6029C166.714 33.0763 168.662 35.124 169.411 36.6972C170.31 38.62 171.634 42.7904 171.958 44.7132C172.158 46.0367 172.183 46.8108 171.958 47.7848C171.634 49.358 171.609 49.6327 171.908 49.4579C172.158 49.2831 172.682 47.4601 172.757 46.4363C172.782 46.0117 172.907 45.6871 173.007 45.6871C173.357 45.6871 176.204 49.8824 177.053 51.6554C178.151 53.9528 178.376 55.0016 178.701 59.5965C179.075 64.8156 178.925 68.062 178.176 69.5853C177.277 71.5081 175.205 73.0314 173.507 73.0314C172.982 73.0314 172.907 73.1063 173.182 73.2561C173.981 73.7805 176.303 72.8566 177.627 71.5081C178.776 70.3344 179.375 68.936 179.625 66.7884L179.824 64.9155L180.274 65.9144C180.524 66.4638 181.048 67.9121 181.473 69.1607C182.197 71.2584 182.247 71.6829 182.297 75.7533L182.372 80.0984L181.098 78.8748C179.125 77.0019 178.026 76.0779 178.426 76.6523C178.626 76.927 179.675 78.0008 180.798 79.0496L182.796 80.9475V84.6683C182.796 89.0134 182.447 90.6616 180.798 94.1826C179.15 97.7036 177.227 100.251 174.356 102.723C172.383 104.421 171.734 104.671 168.612 105.12C164.816 105.62 155.702 105.894 154.927 105.495C154.203 105.12 152.206 103.222 152.206 102.923C152.206 102.798 152.73 102.049 153.354 101.225L154.528 99.7513L157.175 99.7264C158.623 99.7014 161.895 99.6015 164.442 99.5266L169.062 99.3518L161.82 99.3018C157.849 99.2769 154.453 99.3518 154.328 99.4517C154.178 99.5516 153.404 100.376 152.605 101.325L151.157 102.998H142.766H134.401L132.253 100.875L130.105 98.7774L129.956 95.7059L129.831 92.6343L129.781 95.8557L129.731 99.0771L131.928 101.325L134.151 103.572L139.245 103.647C142.042 103.672 146.037 103.722 148.11 103.722L151.881 103.747L153.329 105.02L154.803 106.319L160.696 106.169C167.738 106.019 170.885 105.57 172.882 104.496C173.631 104.096 174.306 103.797 174.356 103.847C174.73 104.196 175.18 108.317 175.13 110.639L175.055 113.361L160.321 113.286C152.23 113.261 143.216 113.311 140.319 113.411L135.05 113.611L133.077 114.61C129.156 116.607 125.96 120.428 124.512 124.848L123.737 127.27L123.787 138.558C123.812 147.423 123.862 148.896 124.012 145.45C124.087 143.053 124.187 138.108 124.212 134.487C124.237 127.171 124.387 126.147 125.885 123.1C127.508 119.804 130.705 116.508 133.726 115.034C135.075 114.385 135.25 114.36 141.093 114.21C144.389 114.11 153.354 114.035 161.046 114.01L175.005 113.985L174.83 115.359C174.63 117.107 173.606 120.328 172.533 122.701C168.712 131.016 160.871 136.735 151.082 138.333C146.687 139.057 141.942 138.558 137.397 136.91C136.049 136.41 135.949 136.335 136.099 135.736C136.373 134.562 137.822 132.44 139.17 131.216C141.218 129.318 142.192 129.068 148.585 128.769L154.078 128.544L148.21 128.569C142.342 128.594 142.342 128.594 140.968 129.268C139.12 130.167 137.122 132.215 136.149 134.213L135.349 135.811L135.275 141.704C135.25 144.926 135.324 148.571 135.424 149.82C135.624 151.618 135.674 150.594 135.699 144.501C135.724 138.533 135.799 136.935 136.049 137.059C137.147 137.509 141.368 138.733 142.716 138.982C146.762 139.706 152.93 139.107 157.325 137.534C167.538 133.888 174.63 124.723 175.929 113.511C176.253 110.689 175.979 106.569 175.305 104.321L174.93 103.123L176.403 101.624C179.45 98.4778 181.048 95.8807 182.447 91.7603C183.246 89.4879 183.271 89.2132 183.271 85.5173C183.296 80.9475 182.796 71.7828 182.471 70.5342C182.347 70.0597 181.672 68.037 180.948 66.0642C179.775 62.7429 179.65 62.2185 179.425 59.1969C179.175 55.576 178.826 54.0527 177.727 51.7053C176.953 50.0322 174.93 46.9107 173.507 45.1377C172.932 44.4135 172.358 43.14 171.684 41.0673C169.961 35.7233 168.487 33.6257 164.791 31.1035C163.468 30.2045 162.893 29.6302 162.269 28.4814C161.145 26.4837 158.199 22.5881 156.75 21.2146C153.579 18.1431 146.362 14.2474 140.793 12.5993C140.219 12.4245 138.945 11.6753 137.996 10.9262C135.924 9.35295 132.553 7.33022 130.305 6.30637C128.257 5.3824 126.235 4.93291 122.988 4.73314C121.39 4.63326 119.118 4.2337 117.07 3.73425C112.65 2.61052 110.303 2.41075 107.905 2.98511L106.057 3.40962L104.909 2.6355C102.786 1.16216 102.611 1.16216 92.3478 1.03729C87.1536 0.98735 82.6337 0.98735 82.2841 1.03729Z" fill="white"/>
<path d="M82.2841 1.03729C81.9345 1.08723 80.9106 1.31198 79.9867 1.51176C78.5633 1.8364 78.0389 1.86136 76.6155 1.61165C75.6665 1.43684 74.0683 1.33696 73.0445 1.3869C71.1466 1.48679 70.9968 1.56171 67.5007 3.40962C66.5518 3.90906 65.2782 4.1338 60.6334 4.58331C57.5369 4.90794 56.1385 5.40738 53.4915 7.18039C50.6946 9.02831 49.421 9.62764 45.9749 10.7264C43.3029 11.6004 42.8784 11.8002 41.5798 12.9988C40.3812 14.1226 39.7569 14.4722 37.4345 15.2963C34.1382 16.4699 33.0145 17.0443 30.6671 18.6425C28.9191 19.8661 28.4446 20.4904 27.6455 22.5881C27.2959 23.4621 24.4741 26.7334 22.8259 28.1069C22.0768 28.7312 20.2538 30.1046 18.7305 31.1534C17.2322 32.1773 15.7339 33.301 15.4342 33.6257C15.1346 33.9253 14.3854 35.5984 13.7611 37.2965C12.4376 40.8675 11.3888 42.8903 9.36605 45.6871C5.9449 50.4068 5.17077 52.4795 4.89608 57.6487C4.67133 61.3195 4.39664 62.5182 3.0981 65.0653C-0.847468 72.9065 0.875595 83.7194 7.39327 92.1599C12.0131 98.1531 19.6045 102.423 27.8703 103.647C32.9146 104.396 42.8284 103.797 45.1259 102.598C45.85 102.224 45.875 102.249 46.9238 103.173C48.7967 104.846 49.5709 106.219 50.0703 108.666C51.6186 116.433 57.6118 122.651 66.2271 125.447C71.671 127.195 78.7131 126.571 84.9062 123.799C87.0038 122.85 87.728 122.651 89.4011 122.551C94.1208 122.251 98.7156 124.798 102.187 129.643C103.161 131.041 109.029 142.703 115.122 155.439C116.346 157.986 117.47 160.133 117.594 160.233C118.518 160.858 117.919 159.259 115.172 153.666C113.449 150.17 110.977 145.025 109.653 142.204C106.307 135.112 103.46 129.818 102.062 128.07C99.7645 125.248 96.618 123 93.5714 122.076C92.9221 121.901 91.3739 121.727 90.1003 121.727H87.8279L87.728 116.233L87.6531 110.739L81.2353 104.296L74.7925 97.8785V92.5844V87.2904L75.4168 86.6661C76.166 85.9169 76.2159 85.1927 75.5417 84.5185C74.9423 83.9191 74.5927 83.8942 73.8436 84.4186C73.1444 84.893 73.1194 86.0418 73.7936 86.6411C74.2681 87.0656 74.2931 87.4152 74.2931 92.6094V98.1282L80.6359 104.496C85.93 109.79 87.0288 111.014 87.1536 111.738C87.2285 112.212 87.2785 114.685 87.2285 117.232L87.1536 121.827L85.1808 122.8C81.9095 124.374 77.2647 125.722 75.0422 125.722H74.343L74.4679 124.149C74.6177 122.451 74.318 121.477 73.6438 121.477C73.3192 121.477 73.3441 121.602 73.7687 122.126C74.318 122.825 74.4179 123.575 74.1183 124.973L73.9684 125.797L71.3214 125.647C68.15 125.472 65.7527 124.848 62.781 123.375C58.8604 121.427 55.8388 118.83 53.5913 115.534C51.4687 112.387 50.5697 109.765 50.5697 106.619C50.5697 104.071 51.0442 102.298 52.2179 100.525C53.042 99.2769 53.0669 99.202 52.4426 99.7513C51.4438 100.675 50.4948 102.423 50.1952 103.922L49.9205 105.245L48.3722 103.522L46.8239 101.774L47.3733 100.825C49.0964 97.9284 46.8739 93.5833 42.8784 91.9601C41.48 91.3857 41.2802 91.3857 32.3402 91.3857C22.3764 91.3857 22.4763 91.3857 20.4536 89.8625C19.9791 89.4879 17.6068 87.1155 15.2095 84.5934L10.8394 79.9985L10.9892 78.9497C11.1391 78.0507 11.0641 77.801 10.5148 77.2017C9.79058 76.4026 8.91656 76.3277 8.09248 77.0019C6.89383 77.9508 7.61802 80.2732 9.11633 80.2732C9.81555 80.2732 11.8383 82.221 17.432 88.2892C18.9802 89.9623 20.3287 91.2109 21.1778 91.6604L22.4763 92.3846L31.9657 92.5095L41.455 92.6343L43.0032 93.3585C45.7751 94.6321 47.3234 96.9795 46.9488 99.2769C46.4993 101.874 44.6014 102.648 37.1348 103.247C33.4889 103.547 28.994 103.297 25.6727 102.598C19.7793 101.399 14.3854 98.5028 10.1152 94.2575C5.72015 89.9124 2.89832 84.3936 1.99933 78.3504C1.37503 74.3049 1.54984 70.9337 2.52374 67.8372L2.94827 66.5387H8.19237H13.4365L15.9087 64.0914C19.3548 60.7202 20.6534 59.0721 17.9564 61.4694C16.8327 62.4682 15.7589 63.4671 15.5841 63.6919C15.3843 63.9416 14.6851 64.5659 14.0358 65.0903L12.8122 66.0392H8.09248C5.4954 66.0392 3.37279 65.9893 3.37279 65.9393C3.37279 65.8894 3.69742 65.1402 4.12195 64.2662C5.17077 61.9688 5.62026 59.996 5.62026 57.4988V55.3263L8.56695 55.4511L11.4887 55.601L12.3877 54.1276C14.2106 51.2309 14.3355 50.6316 12.5874 53.1787C11.9881 54.0527 11.3388 54.8518 11.1141 54.9267C10.9143 55.0266 9.64074 55.0016 8.26729 54.9018L5.82004 54.727L5.96987 53.5782C6.19462 51.9301 7.31835 49.6826 9.69069 46.2365C12.4875 42.1411 12.8621 41.4669 14.2356 37.6961C14.9098 35.8981 15.684 34.175 15.9586 33.8504C16.2583 33.5258 17.7316 32.452 19.23 31.4531C22.0268 29.6052 25.1483 27.0081 26.0972 25.7595C26.8464 24.7856 27.0712 24.9105 26.7965 26.1341C26.4469 27.6823 26.7215 29.6801 27.4457 30.9037C27.7704 31.4781 29.7182 33.5757 31.7659 35.5735C33.7886 37.5463 35.1371 38.7199 34.7375 38.1955C34.313 37.6461 32.6898 35.8981 31.0916 34.3249C29.4685 32.7267 27.9701 31.0036 27.6954 30.4542C26.8464 28.6562 27.246 24.9354 28.6194 21.6641C29.1438 20.4405 31.1665 18.7424 33.4889 17.5937C34.9873 16.8695 39.8318 15.0216 39.8318 15.1964C39.8318 15.2463 39.5821 15.8207 39.2824 16.4949C38.783 17.5937 38.733 18.1431 38.733 22.0886C38.7081 25.2351 38.808 26.7334 39.0577 27.4576C39.3074 28.1568 40.531 29.5802 43.4028 32.5019C46.2995 35.4486 47.4233 36.7721 47.5731 37.3715L47.7729 38.1955L47.7979 37.3964C47.8228 36.4225 46.9988 35.3487 42.9034 31.0536C39.3573 27.3078 39.3324 27.2828 39.3324 21.9887C39.3324 17.9433 39.7319 16.0704 40.9805 14.3973C42.304 12.5993 43.4527 11.925 46.8239 10.9761C48.0975 10.6265 49.8705 10.0022 50.7695 9.5777C51.6685 9.17815 52.4177 8.8535 52.4676 8.8535C52.4926 8.8535 52.4177 9.22809 52.2928 9.6526C51.9182 10.9761 52.0431 12.6243 52.5925 13.748C53.1918 15.0216 55.0397 16.3201 56.4881 16.4699C57.2872 16.5698 57.3371 16.5698 56.7628 16.3701C53.3167 15.2213 51.8683 12.4495 53.0669 9.30299C54.2156 6.23146 56.7128 5.18263 63.9797 4.73314L66.5018 4.58331L66.6017 8.40401C66.6766 11.7752 66.7516 12.3496 67.251 13.2735C68.0751 14.8468 70.0229 16.1703 71.9207 16.445L72.9196 16.5948L71.9207 16.2702C69.7482 15.546 68.5495 14.5721 67.6505 12.849C67.276 12.1248 67.201 11.3507 67.201 8.40401L67.1761 4.83302L68.175 3.98398C70.0728 2.33583 71.1216 1.98622 73.9185 2.0112C77.939 2.03616 80.3363 3.2598 81.6848 6.03168L82.384 7.4301L82.5338 20.9899C82.6337 28.4565 82.7586 34.6495 82.8585 34.7244C82.9583 34.8243 83.0333 28.6812 83.0333 21.0398V7.18039L82.2591 5.63213C81.7847 4.70816 81.1354 3.83415 80.586 3.4346C80.0616 3.06001 79.6121 2.7104 79.5372 2.66046C79.2875 2.48566 80.1615 2.16103 81.7347 1.88634C82.9334 1.66159 86.1048 1.58667 92.6474 1.66159L101.887 1.73651L103.136 2.41075C103.835 2.76036 104.609 3.23482 104.884 3.45956C105.383 3.80917 105.358 3.83415 104.559 4.6832C102.961 6.33134 102.761 7.40514 102.786 13.6731C102.811 17.294 102.886 18.8672 103.036 18.218C103.136 17.6686 103.236 15.3212 103.236 13.0238C103.261 10.7014 103.385 8.3291 103.535 7.75475C103.91 6.20648 105.034 5.00783 106.906 4.08386L108.505 3.28476L111.576 3.4346C113.624 3.53448 115.447 3.78421 117.12 4.20872C118.493 4.58331 121.19 5.03281 123.113 5.23257C127.134 5.6571 129.032 6.20648 131.928 7.72977C134.126 8.90344 137.272 10.9511 137.747 11.5005C137.971 11.7752 137.797 11.8002 136.748 11.6753C135.025 11.4756 132.652 11.975 130.854 12.9239C128.682 14.0726 126.834 16.0704 124.836 19.3167C122.639 22.9377 121.365 24.3611 119.442 25.31C117.744 26.184 116.77 26.2589 114.748 25.7096C113.025 25.2601 112.875 25.3849 114.423 25.9843C118.319 27.4826 121.94 25.4598 125.261 19.966C128.782 14.0976 132.977 11.8501 138.621 12.8241C144.589 13.8479 152.88 18.0432 156.75 21.9388C158.748 23.9366 160.796 27.3078 160.771 28.4814C160.721 30.4043 157.624 33.7755 154.778 34.9742C153.904 35.3487 153.229 35.6983 153.304 35.7483C153.504 35.973 156.875 34.5247 158.099 33.7006C159.447 32.7766 160.771 31.0286 161.32 29.4304L161.62 28.5813L162.219 29.5053C162.544 30.0047 163.618 30.9537 164.567 31.6029C166.714 33.0763 168.662 35.124 169.411 36.6972C170.31 38.62 171.634 42.7904 171.958 44.7132C172.158 46.0367 172.183 46.8108 171.958 47.7848C171.634 49.358 171.609 49.6327 171.908 49.4579C172.158 49.2831 172.682 47.4601 172.757 46.4363C172.782 46.0117 172.907 45.6871 173.007 45.6871C173.357 45.6871 176.204 49.8824 177.053 51.6554C178.151 53.9528 178.376 55.0016 178.701 59.5965C179.075 64.8156 178.925 68.062 178.176 69.5853C177.277 71.5081 175.205 73.0314 173.507 73.0314C172.982 73.0314 172.907 73.1063 173.182 73.2561C173.981 73.7805 176.303 72.8566 177.627 71.5081C178.776 70.3344 179.375 68.936 179.625 66.7884L179.824 64.9155L180.274 65.9144C180.524 66.4638 181.048 67.9121 181.473 69.1607C182.197 71.2584 182.247 71.6829 182.297 75.7533L182.372 80.0984L181.098 78.8748C179.125 77.0019 178.026 76.0779 178.426 76.6523C178.626 76.927 179.675 78.0008 180.798 79.0496L182.796 80.9475V84.6683C182.796 89.0134 182.447 90.6616 180.798 94.1826C179.15 97.7036 177.227 100.251 174.356 102.723C172.383 104.421 171.734 104.671 168.612 105.12C164.816 105.62 155.702 105.894 154.927 105.495C154.203 105.12 152.206 103.222 152.206 102.923C152.206 102.798 152.73 102.049 153.354 101.225L154.528 99.7513L157.175 99.7264C158.623 99.7014 161.895 99.6015 164.442 99.5266L169.062 99.3518L161.82 99.3018C157.849 99.2769 154.453 99.3518 154.328 99.4517C154.178 99.5516 153.404 100.376 152.605 101.325L151.157 102.998H142.766H134.401L132.253 100.875L130.105 98.7774L129.956 95.7059L129.831 92.6343L129.781 95.8557L129.731 99.0771L131.928 101.325L134.151 103.572L139.245 103.647C142.042 103.672 146.037 103.722 148.11 103.722L151.881 103.747L153.329 105.02L154.803 106.319L160.696 106.169C167.738 106.019 170.885 105.57 172.882 104.496C173.631 104.096 174.306 103.797 174.356 103.847C174.73 104.196 175.18 108.317 175.13 110.639L175.055 113.361L160.321 113.286C152.23 113.261 143.216 113.311 140.319 113.411L135.05 113.611L133.077 114.61C129.156 116.607 125.96 120.428 124.512 124.848L123.737 127.27L123.787 138.558C123.812 147.423 123.862 148.896 124.012 145.45C124.087 143.053 124.187 138.108 124.212 134.487C124.237 127.171 124.387 126.147 125.885 123.1C127.508 119.804 130.705 116.508 133.726 115.034C135.075 114.385 135.25 114.36 141.093 114.21C144.389 114.11 153.354 114.035 161.046 114.01L175.005 113.985L174.83 115.359C174.63 117.107 173.606 120.328 172.533 122.701C168.712 131.016 160.871 136.735 151.082 138.333C146.687 139.057 141.942 138.558 137.397 136.91C136.049 136.41 135.949 136.335 136.099 135.736C136.373 134.562 137.822 132.44 139.17 131.216C141.218 129.318 142.192 129.068 148.585 128.769L154.078 128.544L148.21 128.569C142.342 128.594 142.342 128.594 140.968 129.268C139.12 130.167 137.122 132.215 136.149 134.213L135.349 135.811L135.275 141.704C135.25 144.926 135.324 148.571 135.424 149.82C135.624 151.618 135.674 150.594 135.699 144.501C135.724 138.533 135.799 136.935 136.049 137.059C137.147 137.509 141.368 138.733 142.716 138.982C146.762 139.706 152.93 139.107 157.325 137.534C167.538 133.888 174.63 124.723 175.929 113.511C176.253 110.689 175.979 106.569 175.305 104.321L174.93 103.123L176.403 101.624C179.45 98.4778 181.048 95.8807 182.447 91.7603C183.246 89.4879 183.271 89.2132 183.271 85.5173C183.296 80.9475 182.796 71.7828 182.471 70.5342C182.347 70.0597 181.672 68.037 180.948 66.0642C179.775 62.7429 179.65 62.2185 179.425 59.1969C179.175 55.576 178.826 54.0527 177.727 51.7053C176.953 50.0322 174.93 46.9107 173.507 45.1377C172.932 44.4135 172.358 43.14 171.684 41.0673C169.961 35.7233 168.487 33.6257 164.791 31.1035C163.468 30.2045 162.893 29.6302 162.269 28.4814C161.145 26.4837 158.199 22.5881 156.75 21.2146C153.579 18.1431 146.362 14.2474 140.793 12.5993C140.219 12.4245 138.945 11.6753 137.996 10.9262C135.924 9.35295 132.553 7.33022 130.305 6.30637C128.257 5.3824 126.235 4.93291 122.988 4.73314C121.39 4.63326 119.118 4.2337 117.07 3.73425C112.65 2.61052 110.303 2.41075 107.905 2.98511L106.057 3.40962L104.909 2.6355C102.786 1.16216 102.611 1.16216 92.3478 1.03729C87.1536 0.98735 82.6337 0.98735 82.2841 1.03729Z" stroke="white" stroke-width="0.6" mask="url(#path-1-outside-1_154_1683)"/>
<path d="M106.187 46.3189C106.172 46.3072 106.155 46.2923 106.135 46.2747C104.731 45.0716 100.87 41.3914 97.3289 37.9407C95.5572 36.2142 93.8639 34.5436 92.5962 33.2669C91.9624 32.6286 91.4344 32.0882 91.0559 31.6882C90.8668 31.4884 90.7141 31.3226 90.6039 31.1968C90.5489 31.134 90.5034 31.08 90.4689 31.0359C90.438 30.9964 90.4072 30.9542 90.3901 30.9177C90.3535 30.8402 90.3253 30.7144 90.3006 30.5655C90.275 30.4106 90.2506 30.2127 90.2274 29.9788C90.181 29.5107 90.1386 28.8912 90.1009 28.1692C90.0255 26.7247 89.9684 24.864 89.9357 22.9714C89.9029 21.0786 89.8943 19.1526 89.9157 17.5775C89.9371 16.0087 89.9884 14.7725 90.0785 14.2708L90.0785 14.2708L90.0786 14.2697C90.4372 12.3487 91.3651 11.047 93.5254 9.23828C94.0133 8.8255 94.4701 8.45001 94.8116 8.17739C94.9823 8.0412 95.1249 7.93004 95.2286 7.85256C95.2803 7.814 95.3237 7.78266 95.3568 7.76049C95.373 7.7496 95.3891 7.73937 95.4035 7.73132C95.4105 7.72739 95.4198 7.72248 95.4301 7.71814C95.435 7.71609 95.4613 7.7045 95.4952 7.7045C95.5135 7.7045 95.5422 7.7077 95.5722 7.72473C95.6048 7.74329 95.6275 7.77185 95.6395 7.80285C95.6591 7.85334 95.6459 7.89736 95.6429 7.90738L95.6428 7.9076C95.6342 7.93634 95.6184 7.96168 95.6096 7.97538C95.5879 8.00903 95.5541 8.05284 95.5131 8.10266C95.4297 8.20427 95.3018 8.34874 95.1405 8.52415C94.8175 8.87539 94.3545 9.35716 93.8295 9.88215C93.3202 10.4164 92.8108 10.9879 92.4011 11.4752C91.9897 11.9645 91.6881 12.358 91.5822 12.5447C91.2993 13.1131 91.1125 14.1565 91.0252 15.9838C90.9381 17.807 90.9504 20.3868 91.0503 24.0072L91.0503 24.0074L91.2235 30.6403L99.3474 38.8138L99.3476 38.8141C101.583 41.0743 103.487 43.0226 104.755 44.3374C105.389 44.9945 105.865 45.4942 106.143 45.7955C106.28 45.944 106.374 46.0498 106.414 46.1022L106.415 46.1028C106.422 46.1121 106.439 46.1344 106.449 46.1588C106.452 46.1653 106.46 46.1846 106.462 46.2104C106.463 46.236 106.459 46.3052 106.392 46.348C106.339 46.3821 106.286 46.3701 106.276 46.3676C106.258 46.3635 106.245 46.3572 106.239 46.3543C106.218 46.3437 106.198 46.3277 106.187 46.3189Z" fill="white" stroke="white" stroke-width="0.3"/>
<path d="M57.7055 16.909C57.652 16.8887 57.5938 16.8606 57.5534 16.8183C57.5316 16.7955 57.5026 16.7555 57.4988 16.6994C57.4947 16.6379 57.5227 16.5902 57.5522 16.5606C57.6006 16.5123 57.6694 16.4943 57.7154 16.4855C57.7686 16.4752 57.8326 16.4702 57.9044 16.4699C58.0491 16.4574 58.1812 16.4683 58.2721 16.5066C58.3111 16.523 58.3889 16.5639 58.4113 16.6537C58.4363 16.7535 58.3758 16.8241 58.3344 16.858C58.2581 16.9287 58.1428 16.9562 58.0467 16.963C57.9403 16.9706 57.8173 16.9561 57.7055 16.909Z" fill="white" stroke="white" stroke-width="0.3"/>
<path d="M136.447 24.5425C136.266 24.2646 136.142 24.0579 136.142 23.8369C136.142 23.6157 136.266 23.4089 136.448 23.1307L136.448 23.1304L138.456 25.0881L137.872 25.7186V35.5487C137.872 41.031 137.916 44.4408 138.065 46.6825C138.215 48.9255 138.469 49.9794 138.879 50.762L138.879 50.762L138.881 50.7665C138.953 50.9162 139.158 51.2008 139.496 51.6127C139.83 52.0197 140.284 52.5389 140.842 53.153C141.958 54.3808 143.486 55.9837 145.295 57.8182L145.295 57.8183C148.541 61.1144 151.789 64.462 152.515 65.2378L152.516 65.2392L153.815 66.6626L153.854 66.7055V66.7636V69.7353C153.854 72.5191 153.693 74.3262 153.115 75.7024C152.533 77.0884 151.536 78.0203 149.915 79.0757L149.915 79.0758C147.931 80.361 146.469 81.3817 145.438 82.2072C144.404 83.0361 143.821 83.6558 143.574 84.1369C143.321 84.6444 142.962 85.839 142.662 87.0641C142.362 88.2882 142.13 89.5078 142.117 90.0641C142.117 90.338 142.151 90.4649 142.199 90.527C142.235 90.5751 142.304 90.6117 142.492 90.6117C142.73 90.6117 142.981 90.7093 143.216 90.8556C143.453 91.0032 143.686 91.2077 143.89 91.4398C144.294 91.8977 144.614 92.494 144.614 93.0092C144.614 93.9798 143.974 94.7501 143.16 95.1245C142.345 95.499 141.327 95.491 140.55 94.8747L140.55 94.8743C139.879 94.3375 139.616 93.4964 139.708 92.7107C139.8 91.9249 140.251 91.1745 141.032 90.8246L141.032 90.8245L141.035 90.8232C141.255 90.7307 141.379 90.6294 141.454 90.5018C141.531 90.3704 141.567 90.1899 141.567 89.9126C141.567 89.4726 141.745 88.1118 141.969 86.9135C142.258 85.3461 142.575 84.3131 143.302 83.3484C144.024 82.3902 145.142 81.5102 147.001 80.2252C148.786 78.977 149.978 78.0824 150.782 77.3647C151.586 76.6479 151.992 76.1158 152.217 75.595C152.457 75.0185 152.624 74.102 152.705 72.9772C152.786 71.8555 152.78 70.5393 152.68 69.1719L152.509 66.8286L146.978 61.0741L146.978 61.074C143.695 57.6532 141.639 55.4786 140.313 53.9904C138.989 52.5043 138.386 51.6943 138.015 51.0038C137.875 50.7555 137.764 50.5442 137.681 50.175C137.6 49.8121 137.546 49.2992 137.506 48.4442C137.429 46.7424 137.41 43.648 137.373 37.5989L137.372 37.4975C137.372 37.4975 137.372 37.4975 137.372 37.4975C137.347 33.727 137.31 30.6252 137.26 28.4664C137.235 27.3867 137.207 26.5443 137.176 25.9723C137.16 25.6859 137.144 25.4699 137.127 25.3268C137.122 25.2782 137.116 25.2402 137.111 25.2119C137.077 25.1982 137.046 25.1805 137.02 25.1637C136.96 25.1258 136.896 25.0737 136.832 25.0133C136.704 24.8923 136.566 24.7268 136.447 24.5425ZM136.447 24.5425C136.447 24.5424 136.447 24.5424 136.447 24.5423L136.573 24.4612L136.448 24.5431C136.447 24.5429 136.447 24.5427 136.447 24.5425ZM138.677 22.8818L138.571 22.9878L138.675 22.8794C138.675 22.8798 138.675 22.8801 138.676 22.8805C138.676 22.8809 138.677 22.8814 138.677 22.8818Z" fill="white" stroke="white" stroke-width="0.3"/>
<path d="M59.3572 29.395L59.3579 29.3944C59.548 29.2215 59.728 29.0572 59.899 28.9012C60.5966 28.2648 61.1428 27.7665 61.5994 27.3837C62.1676 26.9073 62.6092 26.5989 63.0454 26.4227C63.4868 26.2445 63.912 26.2058 64.4398 26.248C64.8728 26.2826 65.384 26.3728 66.0351 26.4876C66.168 26.5111 66.3067 26.5355 66.4517 26.5607L66.4518 26.5608L68.4496 26.9104L68.4138 27.2078L66.5409 27.0829L66.5399 27.0829C65.5141 27.0078 64.4351 26.8825 64.1289 26.8315L64.1288 26.8318L64.1188 26.8295C64.0405 26.8108 63.9123 26.8238 63.6816 26.9438C63.4535 27.0625 63.1482 27.2735 62.7274 27.612C61.8869 28.2882 60.6113 29.4515 58.6128 31.3375L58.6124 31.3379L56.7121 33.1164V41.1423V49.0572C56.7216 49.0979 56.7314 49.1377 56.7415 49.1766C56.7441 49.1864 56.7467 49.1961 56.7493 49.2058L59.1637 51.5478L59.1638 51.5479C59.8263 52.1916 60.3245 52.6945 60.658 53.05C60.8245 53.2275 60.9516 53.37 61.038 53.4758C61.0809 53.5284 61.1159 53.5745 61.1411 53.6129C61.1535 53.6319 61.1654 53.6518 61.1748 53.6715C61.1823 53.6873 61.1964 53.7193 61.1976 53.7579C61.1982 53.7792 61.1953 53.8125 61.1752 53.8465C61.1534 53.8835 61.1202 53.9063 61.0873 53.9171C61.0343 53.9345 60.987 53.9198 60.9724 53.9151C60.9322 53.9023 60.8876 53.8767 60.846 53.8503C60.7573 53.7938 60.6295 53.6986 60.4651 53.5671C60.1345 53.3027 59.6405 52.8792 58.9843 52.2918C58.7411 52.0751 58.5177 51.882 58.3131 51.7052C57.9009 51.3489 57.5649 51.0585 57.2969 50.7743C56.9099 50.364 56.6534 49.9567 56.4821 49.3646L56.4576 49.3409L56.4121 49.2967V49.2332V49.0912C56.2705 48.4653 56.2014 47.644 56.1566 46.4615C56.1234 45.5853 56.1034 44.5037 56.0783 43.1481C56.0664 42.5103 56.0535 41.8118 56.0375 41.0455C56.0375 41.0455 56.0375 41.0455 56.0375 41.0455L55.8627 32.6799L55.8613 32.6123L55.9111 32.5664L59.3572 29.395Z" fill="white" stroke="white" stroke-width="0.3"/>
<path d="M68.8405 27.4044L68.8404 27.4048L68.83 27.4016C68.7952 27.3912 68.7636 27.3801 68.7364 27.3679C68.7128 27.3573 68.6786 27.3399 68.6509 27.3115C68.6363 27.2965 68.6158 27.2706 68.6062 27.2332C68.5954 27.1913 68.6019 27.1488 68.6213 27.1134C68.6523 27.0567 68.7069 27.0347 68.725 27.0276C68.7746 27.0084 68.8414 26.9986 68.909 26.9926C68.9812 26.9863 69.0702 26.9831 69.1727 26.9831C69.3847 26.9831 69.5533 26.995 69.6533 27.023C69.679 27.0302 69.7099 27.041 69.7381 27.0588C69.7631 27.0747 69.8143 27.1145 69.8237 27.1878C69.8334 27.2635 69.7913 27.3158 69.7682 27.3383C69.7434 27.3626 69.7139 27.3798 69.6893 27.3921L69.6768 27.3984L69.6634 27.4022C69.5564 27.4328 69.4092 27.4454 69.2664 27.4454C69.1217 27.4454 68.9666 27.4324 68.8405 27.4044Z" fill="white" stroke="white" stroke-width="0.3"/>
<path d="M70.9398 27.6468C70.8864 27.6265 70.8282 27.5984 70.7877 27.5561C70.766 27.5333 70.7369 27.4933 70.7332 27.4371C70.7291 27.3757 70.7571 27.328 70.7866 27.2984C70.835 27.2501 70.9038 27.2321 70.9497 27.2233C71.003 27.213 71.067 27.208 71.1387 27.2077C71.2835 27.1952 71.4156 27.2061 71.5065 27.2444C71.5455 27.2608 71.6233 27.3017 71.6457 27.3915C71.6707 27.4913 71.6101 27.5619 71.5687 27.5958C71.4925 27.6665 71.3772 27.694 71.2811 27.7008C71.1746 27.7084 71.0516 27.6939 70.9398 27.6468Z" fill="white" stroke="white" stroke-width="0.3"/>
<path d="M126.451 36.0271L126.45 36.0259C125.664 35.1867 125.623 33.9234 126.449 33.3529C126.838 33.0808 127.208 32.9369 127.572 32.9548C127.939 32.9728 128.272 33.1535 128.589 33.4699C128.946 33.8274 129.129 34.2166 129.104 34.6308C129.079 35.0404 128.852 35.4412 128.464 35.8296L127.883 36.4104L127.809 46.0131L127.734 55.6773L127.733 55.7049L127.723 55.7306L126.925 57.7774C126.925 57.7775 126.925 57.7776 126.924 57.7777C125.702 60.9719 125.093 62.1246 124.169 63.049L123.32 63.8981L123.276 63.942H123.214H118.419H113.624H113.552L113.507 63.8852L112.358 62.4371C112.358 62.437 112.358 62.437 112.358 62.437C111.283 61.0868 109.953 59.2058 109.497 58.37L109.497 58.37L109.496 58.3674C109.455 58.2884 109.423 58.2225 109.406 58.1733C109.398 58.1514 109.387 58.1193 109.385 58.0861C109.385 58.0709 109.384 58.0354 109.403 57.9978C109.429 57.9484 109.477 57.917 109.531 57.9126C109.572 57.9092 109.604 57.9225 109.618 57.9288C109.634 57.9365 109.648 57.9458 109.659 57.9534C109.68 57.9687 109.702 57.9883 109.723 58.0087C109.765 58.0503 109.819 58.11 109.883 58.1852C110.14 58.4862 110.599 59.0834 111.248 59.9568L111.248 59.9567L111.249 59.9584C111.896 60.8548 112.79 61.9462 113.206 62.3624L113.206 62.3623L113.211 62.3676L113.915 63.1426H118.144C119.329 63.1426 120.475 63.1176 121.368 63.0741C121.814 63.0523 122.196 63.0259 122.487 62.9959C122.632 62.9808 122.753 62.965 122.848 62.9488C122.945 62.9319 123.003 62.9162 123.03 62.905L123.03 62.9048L123.036 62.9025C123.446 62.7473 123.911 62.2636 124.411 61.4153C124.907 60.5748 125.421 59.405 125.944 57.9236L126.834 55.4001L126.909 45.9858L126.984 36.5824L126.451 36.0271Z" fill="white" stroke="white" stroke-width="0.3"/>
<path d="M156.928 57.3386C160.361 60.5096 162.486 62.5096 163.8 63.8358C165.108 65.1557 165.63 65.8258 165.831 66.3336L165.831 66.3335L165.832 66.3365C166.09 67.0336 166.234 68.0955 166.263 69.2066C166.291 70.3203 166.203 71.5009 165.987 72.4404L165.987 72.4409C165.773 73.3617 165.239 74.9858 164.74 76.354C164.49 77.0388 164.246 77.6631 164.054 78.1063C163.959 78.327 163.874 78.507 163.806 78.6278C163.773 78.6865 163.739 78.7401 163.706 78.7777C163.691 78.7946 163.664 78.8224 163.626 78.8393C163.605 78.8487 163.573 78.8579 163.536 78.8535C163.495 78.8487 163.462 78.8301 163.438 78.8059C163.407 78.7751 163.397 78.7402 163.394 78.727C163.39 78.7101 163.389 78.6946 163.389 78.6836C163.388 78.6614 163.389 78.6374 163.392 78.6152C163.397 78.5695 163.407 78.5099 163.421 78.4405C163.449 78.3005 163.495 78.1063 163.554 77.873C163.674 77.4056 163.849 76.7733 164.049 76.0858L164.049 76.0858L164.05 76.083C165.245 72.2478 165.462 70.2289 164.97 67.8929L164.97 67.8921L164.58 65.9913L161.419 63.0524L161.419 63.0521C158.957 60.753 155.928 57.7862 153.37 55.2006C150.818 52.6199 148.723 50.4075 148.141 49.6223C147.276 48.4695 146.809 47.7598 146.575 46.5042C146.343 45.2659 146.338 43.494 146.363 40.2169L146.363 40.2168L146.413 34.4482L146.713 34.4458L146.863 40.439L146.863 40.4395C146.925 43.277 146.963 44.7867 147.055 45.7315C147.147 46.664 147.291 47.0334 147.571 47.5926L147.572 47.5942C147.961 48.3968 148.603 49.2634 150.002 50.7178C151.4 52.1719 153.544 54.2042 156.928 57.3386ZM156.928 57.3386C156.928 57.3385 156.928 57.3385 156.928 57.3385L156.826 57.4487M156.928 57.3386C156.928 57.3386 156.928 57.3386 156.928 57.3386L156.826 57.4487M156.826 57.4487C150.059 51.1807 148.236 49.3078 147.437 47.6597L164.717 65.9142L165.117 67.862C165.616 70.2343 165.392 72.282 164.193 76.1277C163.906 77.1155 163.67 77.987 163.579 78.4172C163.567 78.4403 163.555 78.4616 163.544 78.4808C163.513 78.5361 163.493 78.566 163.482 78.5782C163.481 78.5787 163.481 78.5792 163.48 78.5796M156.826 57.4487C163.694 63.7915 165.317 65.4397 165.691 66.3886C166.191 67.7371 166.266 70.5589 165.841 72.4069C165.482 73.9504 164.209 77.5168 163.721 78.4679C163.719 78.4788 163.717 78.4893 163.715 78.4995C163.702 78.5662 163.694 78.6153 163.69 78.6474C163.689 78.6551 163.689 78.6611 163.688 78.6656C163.688 78.6702 163.688 78.6721 163.688 78.6719L163.688 78.6681C163.688 78.666 163.687 78.6621 163.686 78.6568L163.686 78.6568C163.685 78.651 163.678 78.6224 163.651 78.5953C163.6 78.6807 163.563 78.7188 163.544 78.6998C163.534 78.6902 163.537 78.6397 163.552 78.5546C163.53 78.5551 163.513 78.5608 163.504 78.5652C163.491 78.5708 163.483 78.5769 163.48 78.5796M163.48 78.5796C163.48 78.5805 163.479 78.5809 163.479 78.5809C163.479 78.5808 163.48 78.5804 163.48 78.5796Z" fill="white" stroke="white" stroke-width="0.3"/>
<path d="M48.1358 39.4249C48.1155 39.4784 48.0874 39.5366 48.0451 39.577C48.0224 39.5988 47.9824 39.6278 47.9262 39.6315C47.8647 39.6356 47.817 39.6077 47.7875 39.5781C47.7391 39.5298 47.7211 39.4609 47.7123 39.415C47.702 39.3618 47.697 39.2978 47.6967 39.226C47.6842 39.0813 47.6951 38.9492 47.7334 38.8582C47.7498 38.8193 47.7907 38.7415 47.8805 38.719C47.9803 38.6941 48.0509 38.7546 48.0848 38.796C48.1555 38.8722 48.183 38.9875 48.1898 39.0837C48.1974 39.1901 48.183 39.3131 48.1358 39.4249Z" fill="white" stroke="white" stroke-width="0.3"/>
<path d="M66.066 39.7181L66.0669 39.7171C66.3767 39.3792 66.8697 39.2075 67.3554 39.191C67.8413 39.1744 68.3515 39.312 68.7003 39.6323C69.0813 39.9716 69.2381 40.5153 69.2084 41.0504C69.1785 41.5878 68.9598 42.1448 68.5522 42.5252L68.5523 42.5253L68.549 42.5282C68.391 42.6672 68.294 42.7558 68.2199 42.8916C68.1451 43.0287 68.0878 43.226 68.0464 43.5876C67.9633 44.3141 67.9507 45.6327 67.9256 48.2854L67.8763 53.5177L68.6816 54.3467C69.1483 54.8133 70.063 55.555 70.7038 55.9741C71.2487 56.3209 71.5806 56.5029 72.0915 56.6188C72.6129 56.737 73.3226 56.7867 74.6249 56.8493C74.625 56.8493 74.6251 56.8493 74.6252 56.8493L77.357 56.9713L78.0597 56.292L78.0597 56.292L78.0612 56.2906C78.4807 55.8958 79.2508 55.0761 79.7722 54.4554L79.7722 54.4554L79.774 54.4533C79.9859 54.2102 80.1493 54.0233 80.2683 53.892C80.3278 53.8265 80.3775 53.7733 80.4175 53.7333C80.4535 53.6975 80.4929 53.6604 80.5287 53.6393C80.5387 53.6333 80.5551 53.6246 80.5759 53.6188C80.5948 53.6135 80.6363 53.6055 80.6827 53.6254C80.7359 53.6483 80.7615 53.6925 80.7713 53.7258C80.7799 53.7549 80.7785 53.7802 80.7772 53.7931C80.7745 53.82 80.7663 53.8454 80.76 53.8631C80.7529 53.8831 80.7437 53.9052 80.7333 53.9284C80.6925 54.0196 80.6179 54.162 80.5188 54.3478L80.5189 54.3478L80.5176 54.3501C80.2596 54.8144 79.577 55.6978 78.9978 56.3024L78.0003 57.3997L77.9556 57.4488H77.8893H74.9925C73.6976 57.4488 72.9356 57.4367 72.3629 57.3471C71.7803 57.256 71.3946 57.085 70.8506 56.7814C70.1287 56.4013 69.3405 55.8586 68.6792 55.3138C68.0237 54.7739 67.4739 54.2164 67.2459 53.8023C67.1732 53.6793 67.1241 53.4725 67.0856 53.2028C67.0456 52.9232 67.0141 52.5513 66.9891 52.0814C66.9389 51.1412 66.914 49.7959 66.9015 47.9853V47.9843C66.9015 46.3872 66.8765 45.0976 66.833 44.2084C66.8112 43.7631 66.7849 43.4214 66.7552 43.1926C66.7409 43.082 66.7265 43.0033 66.713 42.9535C66.6611 42.9401 66.6127 42.9165 66.5694 42.8893C66.5009 42.8463 66.4341 42.7874 66.3707 42.7202C66.2439 42.5856 66.1176 42.4037 66.0061 42.2049C65.7856 41.8119 65.6029 41.317 65.6029 40.9422C65.6029 40.7431 65.6588 40.5059 65.7406 40.2897C65.8224 40.0739 65.9367 39.8618 66.066 39.7181Z" fill="white" stroke="white" stroke-width="0.3"/>
<path d="M18.8735 45.0189C18.5301 44.6756 18.4269 44.1473 18.5004 43.6725C18.5738 43.199 18.8304 42.7336 19.2638 42.5303C19.8024 42.2617 20.3609 42.2767 20.7897 42.5228C21.2206 42.77 21.5019 43.24 21.5019 43.839C21.5019 45.2534 19.8794 46.0248 18.8735 45.0189Z" fill="white" stroke="white" stroke-width="0.3"/>
<path d="M114.524 43.0292L114.525 43.0284C115.137 42.1665 116.439 42.1972 117.02 43.1327C117.216 43.4144 117.344 43.624 117.347 43.8777C117.351 44.1219 117.239 44.3862 117.055 44.7771L117.055 44.7776C116.939 45.0233 116.802 45.2458 116.672 45.4093C116.607 45.4907 116.541 45.5614 116.477 45.6132C116.437 45.6454 116.386 45.6804 116.328 45.699C116.317 45.734 116.304 45.7886 116.291 45.8663C116.262 46.0428 116.236 46.3098 116.214 46.6642C116.171 47.3714 116.146 48.4105 116.146 49.7328C116.146 52.0549 116.071 54.709 115.97 55.6914L115.97 55.6917L115.965 55.7399C115.924 56.1337 115.892 56.4349 115.866 56.6507C115.852 56.7629 115.84 56.8541 115.827 56.9244C115.816 56.9895 115.803 57.052 115.783 57.0957C115.777 57.1079 115.769 57.1243 115.756 57.1407C115.744 57.156 115.72 57.1817 115.681 57.196C115.635 57.2126 115.589 57.2065 115.553 57.1879C115.522 57.1719 115.503 57.1496 115.493 57.1365C115.473 57.1103 115.461 57.0806 115.454 57.0602C115.445 57.0369 115.437 57.0101 115.43 56.9816C115.401 56.8705 115.367 56.6884 115.324 56.4554C115.29 56.3041 115.262 56.0271 115.238 55.6667C115.213 55.2999 115.192 54.836 115.175 54.3075C115.14 53.2506 115.121 51.9318 115.121 50.6072C115.109 48.382 115.09 47.1667 115.019 46.4354C114.984 46.0709 114.936 45.8357 114.874 45.6599C114.813 45.4875 114.735 45.3659 114.629 45.2304L114.628 45.2298C114.322 44.8342 114.144 44.4858 114.126 44.1246C114.108 43.7611 114.254 43.4155 114.524 43.0292Z" fill="white" stroke="white" stroke-width="0.3"/>
<path d="M170.819 54.9771L170.819 54.9786C170.944 55.3168 171.06 55.5884 171.151 55.7492C171.173 55.7898 171.196 55.8267 171.219 55.857C171.239 55.8834 171.271 55.9206 171.314 55.9436C171.337 55.9562 171.375 55.9703 171.421 55.9647C171.47 55.9586 171.508 55.9324 171.532 55.9037C171.571 55.8571 171.58 55.7987 171.583 55.7671L171.584 55.7589V55.7506C171.584 55.5272 171.514 55.2095 171.409 54.8644C171.303 54.5151 171.155 54.1234 170.991 53.746C170.827 53.3689 170.645 53.0031 170.467 52.7063C170.379 52.5579 170.29 52.4248 170.204 52.3154C170.121 52.2085 170.034 52.1166 169.947 52.057C169.792 51.9447 169.457 51.7891 169.066 51.6287C168.666 51.465 168.188 51.2891 167.736 51.1383C166.664 50.781 165.856 50.3227 165.269 49.7412C164.683 49.1614 164.309 48.4518 164.114 47.5779C163.927 46.6919 163.844 46.1027 163.858 45.6923C163.873 45.2911 163.98 45.0807 164.164 44.9281L164.165 44.9272C164.446 44.6881 164.588 44.3766 164.573 44.0476C164.559 43.7214 164.391 43.3989 164.094 43.1286L170.819 54.9771ZM170.819 54.9771C170.404 53.8199 170.17 53.2527 169.728 52.8421C169.281 52.4272 168.609 52.1621 167.263 51.6713C165.875 51.1714 164.992 50.73 164.403 50.0388C163.813 49.3468 163.533 48.4244 163.295 47.0108C163.209 46.5185 163.093 46.0785 162.962 45.7301C162.83 45.3757 162.69 45.1358 162.568 45.0235L170.819 54.9771ZM171.283 55.745C171.283 55.745 171.284 55.7442 171.284 55.7423C171.283 55.7439 171.283 55.7449 171.283 55.745Z" fill="white" stroke="white" stroke-width="0.3"/>
<path d="M34.2998 45.0916L34.2998 45.0916L34.3016 45.0903C35.3206 44.3663 36.3888 44.6812 36.9556 45.3837C37.2376 45.7333 37.398 46.1814 37.365 46.6455C37.3319 47.1118 37.1043 47.5819 36.6332 47.9739C36.0141 48.5115 35.2741 48.565 34.6873 48.2578C34.1028 47.9519 33.6891 47.2986 33.6891 46.4612C33.6891 46.1358 33.7346 45.8693 33.8367 45.6439C33.9398 45.4164 34.0958 45.2412 34.2998 45.0916Z" fill="white" stroke="white" stroke-width="0.3"/>
<path d="M44.1947 45.4326L44.1947 45.4325L44.1986 45.4288C44.499 45.1409 44.7393 44.944 44.9668 44.839C45.2059 44.7287 45.4247 44.7222 45.6682 44.7938L45.67 44.7944C46.5236 45.057 47.0638 45.6303 47.2084 46.2982C47.3531 46.9666 47.0939 47.6946 46.4219 48.2487L45.7259 48.8519V53.4532V58.1479V58.2098L45.6823 58.2537L40.563 63.3979L40.5628 63.3982C38.4896 65.4714 37.2132 66.7853 36.4553 67.6488C36.076 68.0809 35.831 68.3954 35.6813 68.6326C35.53 68.8725 35.4875 69.0161 35.4875 69.1106C35.4875 69.5571 35.2664 70.0096 34.9619 70.3473C34.6591 70.6829 34.2472 70.9337 33.8391 70.9337C33.4695 70.9337 33.059 70.6898 32.7515 70.392C32.5944 70.2399 32.4561 70.0662 32.3562 69.8877C32.2572 69.7107 32.1908 69.5197 32.1908 69.3353C32.1908 68.6832 32.5928 68.1445 33.1181 67.8582C33.6379 67.575 34.3008 67.5268 34.8514 67.8743C34.8656 67.8716 34.8906 67.8639 34.9288 67.8456C35.0122 67.8056 35.131 67.7285 35.292 67.6037C35.6125 67.3555 36.0749 66.9389 36.7158 66.3183C37.9962 65.0785 39.9731 63.0392 42.92 59.9425C42.92 59.9425 42.9201 59.9424 42.9201 59.9424L44.6521 58.1128L44.6768 53.4781C44.6768 53.478 44.6768 53.4779 44.6768 53.4777C44.6768 51.3652 44.6642 50.1869 44.5993 49.4585C44.567 49.0954 44.5223 48.8516 44.4626 48.6633C44.4039 48.4784 44.3291 48.3419 44.2292 48.1949C43.7933 47.5844 43.5477 47.1199 43.5406 46.6851C43.5333 46.2381 43.777 45.863 44.1947 45.4326Z" fill="white" stroke="white" stroke-width="0.3"/>
<path d="M112.069 71.2362C112.072 71.2376 112.072 71.2371 112.069 71.2359L112.069 71.2362ZM111.903 71.4194L111.903 71.4193C111.903 71.4193 111.903 71.4194 111.903 71.4196C111.903 71.4197 111.903 71.4199 111.903 71.4198C111.903 71.4194 111.903 71.4199 111.903 71.4194ZM97.1503 57.7486C97.6452 58.7899 98.7531 59.6509 101.212 61.8437L96.7671 52.8289C96.7671 55.4398 96.6785 56.6327 97.0908 57.6155C97.1072 57.6546 97.1244 57.6934 97.1424 57.7319L97.1426 57.7417L97.1503 57.7486ZM96.4086 48.1486C96.3521 48.0201 96.2797 47.9408 96.1713 47.8495C95.8449 47.5773 95.6588 47.2287 95.6373 46.8664C95.6158 46.5045 95.7595 46.1461 96.0599 45.8573C96.1775 45.7268 96.3446 45.6178 96.5109 45.5413C96.6782 45.4643 96.8627 45.412 97.0169 45.412C97.3439 45.412 97.6908 45.6006 97.9489 45.8389C98.2049 46.0752 98.4155 46.3995 98.4155 46.7108C98.4155 47.0333 98.2845 47.3974 98.1125 47.6787C98.0257 47.8204 97.9244 47.9482 97.8161 48.0424C97.7229 48.1236 97.6101 48.1923 97.4875 48.2065C97.4774 48.2292 97.4644 48.2682 97.4511 48.3305C97.4184 48.4842 97.393 48.7337 97.3758 49.1056C97.3417 49.8465 97.3416 51.0408 97.3666 52.8518L97.4405 57.6051L98.0646 58.1599C98.0647 58.16 98.0649 58.1601 98.065 58.1603C101.375 61.0583 105.503 64.8301 108.432 67.5841C109.896 68.9607 111.062 70.085 111.678 70.719C111.831 70.8775 111.952 71.0071 112.036 71.1031C112.077 71.1508 112.111 71.1928 112.135 71.2273C112.148 71.2443 112.16 71.2627 112.169 71.2811L112.169 71.2814C112.175 71.2931 112.195 71.3303 112.194 71.3767C112.193 71.4057 112.183 71.4502 112.145 71.4867C112.109 71.5218 112.067 71.5295 112.043 71.5307C112 71.5327 111.965 71.518 111.952 71.5123C111.916 71.4971 111.873 71.471 111.828 71.4407C111.733 71.3777 111.594 71.2733 111.408 71.1262L111.407 71.1256C110.654 70.5229 108.752 68.8467 107.155 67.3988L107.154 67.398C105.581 65.9504 102.86 63.5039 101.113 61.956L101.112 61.9557C100.716 61.6026 100.355 61.2834 100.025 60.9921C99.3482 60.3951 98.8045 59.9153 98.3702 59.5007C97.7231 58.883 97.3033 58.3962 97.0385 57.8618C96.7726 57.3249 96.6693 56.7528 96.6306 55.9762C96.6039 55.4398 96.6078 54.7961 96.6126 53.9908C96.6148 53.6364 96.6171 53.2506 96.6171 52.8289C96.6171 50.6522 96.6107 49.4879 96.546 48.8165C96.5137 48.4814 96.468 48.2834 96.4086 48.1486Z" fill="white" stroke="white" stroke-width="0.3"/>
<path d="M132.932 56.3456C132.787 55.757 132.739 55.1339 132.702 54.3597C132.702 54.3596 132.702 54.3595 132.702 54.3594L132.602 52.4371L132.901 52.411L133.126 54.2334C133.126 54.2335 133.126 54.2336 133.126 54.2337C133.337 55.8973 133.526 56.8219 134.492 58.1208C135.472 59.437 137.245 61.1303 140.646 64.3062L140.647 64.3073C141.721 65.332 142.765 66.3571 143.578 67.1857C143.985 67.6 144.334 67.9658 144.601 68.2584C144.865 68.5472 145.057 68.7738 145.14 68.9056L145.141 68.9066C145.374 69.2829 145.513 69.6133 145.592 70.0782C145.669 70.5356 145.688 71.1219 145.688 72.0073L145.688 72.0083C145.675 74.021 145.514 75.3182 144.845 76.4357C144.18 77.5486 143.021 78.464 141.075 79.7489L141.075 79.7491C139.945 80.4922 139.093 81.0396 138.519 81.3901C138.233 81.5651 138.014 81.6927 137.863 81.7712C137.789 81.8098 137.725 81.8397 137.677 81.8568C137.654 81.8646 137.623 81.8742 137.591 81.8758C137.575 81.8766 137.544 81.8764 137.511 81.8621C137.471 81.8448 137.435 81.8095 137.421 81.7582C137.409 81.7155 137.418 81.6794 137.423 81.6617C137.43 81.642 137.438 81.6258 137.445 81.6143C137.459 81.5913 137.478 81.5686 137.496 81.548C137.533 81.5058 137.587 81.4531 137.655 81.3913C137.792 81.2668 137.998 81.0938 138.272 80.8731C138.82 80.431 139.647 79.7916 140.752 78.9548C141.574 78.332 142.359 77.7032 142.962 77.1902C143.264 76.9337 143.519 76.707 143.71 76.525C143.907 76.338 144.023 76.2106 144.061 76.149L144.061 76.1489L144.064 76.1455C144.103 76.0852 144.148 75.9711 144.195 75.7998C144.24 75.6323 144.282 75.4227 144.321 75.1814C144.399 74.699 144.461 74.0985 144.501 73.471C144.582 72.2113 144.575 70.8666 144.441 70.1624L144.441 70.1624L144.441 70.1583C144.386 69.818 144.158 69.3974 143.37 68.4877C142.587 67.5837 141.274 66.2201 139.088 63.9966C136.146 61.0175 134.585 59.3946 133.744 58.1278C133.321 57.4896 133.078 56.9377 132.932 56.3456Z" fill="white" stroke="white" stroke-width="0.3"/>
<path d="M87.6609 63.0861L87.6278 63.0444L87.6283 62.9913L87.6783 58.0968L87.7282 53.1773L88.0281 53.1742L88.178 58.0437L88.178 58.0442C88.2154 59.3795 88.2591 60.6024 88.2965 61.4944C88.3152 61.9405 88.3324 62.3034 88.3464 62.5561C88.3534 62.6826 88.3595 62.7806 88.3647 62.8474C88.3663 62.8679 88.3677 62.885 88.369 62.8986C88.5861 63.1275 89.7681 64.382 91.1345 65.8623C91.8955 66.6732 92.6122 67.421 93.1569 67.9688C93.4295 68.243 93.6579 68.4659 93.8267 68.6213C93.9114 68.6992 93.9793 68.7584 94.0293 68.7983C94.0499 68.8147 94.066 68.8265 94.0779 68.8346C94.0786 68.8344 94.0794 68.8342 94.0801 68.8339C94.1071 68.8251 94.1473 68.8078 94.2013 68.7803C94.3084 68.7256 94.4531 68.6392 94.6261 68.5264C94.971 68.3016 95.4165 67.98 95.8757 67.6201C96.8493 66.8337 97.5578 66.2819 98.0614 65.9262C98.313 65.7485 98.5169 65.6173 98.6793 65.53C98.8348 65.4463 98.9748 65.3899 99.0906 65.3899C99.1118 65.3899 99.1572 65.3938 99.1979 65.4294C99.2437 65.4695 99.2529 65.5217 99.2518 65.5547C99.2508 65.5845 99.242 65.6081 99.2366 65.6206C99.2306 65.6349 99.2234 65.6476 99.217 65.6578C99.1931 65.6961 99.1538 65.7423 99.1091 65.7907C99.0164 65.8913 98.8699 66.0335 98.6836 66.2057C98.3098 66.5513 97.7648 67.0273 97.1396 67.5525C97.1395 67.5526 97.1394 67.5526 97.1394 67.5527L94.9484 69.4028L94.9952 70.503L94.9953 70.503L94.9953 70.5051C95.0081 70.9523 94.9763 71.3299 94.8714 71.7132C94.7669 72.0956 94.5916 72.4765 94.3257 72.9323L94.3257 72.9323L94.3249 72.9336C93.8164 73.7853 93.2388 74.4173 92.5295 74.8513C91.8201 75.2854 90.9896 75.515 89.9853 75.5785L89.9853 75.5785L89.9832 75.5786L89.9817 75.5787C89.6022 75.5974 89.3158 75.6115 89.1181 75.6185C89.0193 75.6221 88.9407 75.6239 88.8829 75.6236C88.8542 75.6234 88.8284 75.6228 88.8069 75.6212C88.7912 75.6201 88.7597 75.6176 88.7308 75.6067C88.7221 75.6035 88.7076 75.5973 88.6921 75.5862C88.6772 75.5754 88.6517 75.5531 88.6374 75.5149C88.602 75.4201 88.6687 75.3558 88.6806 75.3453C88.6993 75.3286 88.7187 75.3193 88.727 75.3155C88.7378 75.3105 88.7488 75.3064 88.7585 75.3031C88.7952 75.2904 88.8506 75.2766 88.9173 75.2615C89.0534 75.2306 89.2654 75.1882 89.5439 75.1325L89.5469 75.1319L89.5469 75.1319L89.5496 75.1314C91.3137 74.8129 92.6707 73.9341 93.4185 72.7042C93.4526 72.6475 93.4857 72.5927 93.5178 72.5396C93.7827 72.1012 93.9768 71.78 94.0907 71.4997C94.2142 71.1961 94.2366 70.9563 94.1472 70.6841C94.0538 70.3997 93.8348 70.068 93.4388 69.5946C93.0874 69.1745 92.6079 68.6555 91.976 67.9715C91.8991 67.8882 91.82 67.8026 91.7385 67.7144C90.2406 66.0916 88.7147 64.3908 88.3373 63.9379L88.3373 63.9379L88.3351 63.9351L87.6609 63.0861Z" fill="white" stroke="white" stroke-width="0.3"/>
<path d="M170.965 59.1625L170.965 59.1625L170.963 59.1612C170.67 58.9116 170.541 58.5061 170.555 58.133C170.568 57.7623 170.726 57.3779 171.061 57.1934C171.587 56.8841 172.14 56.8878 172.532 57.1308C172.929 57.3771 173.131 57.8518 172.979 58.4091C172.878 58.8526 172.536 59.1734 172.15 59.3184C171.763 59.4635 171.303 59.442 170.965 59.1625Z" fill="white" stroke="white" stroke-width="0.3"/>
<path d="M79.3363 75.1039L77.9129 74.4047L71.1206 74.2798C65.3273 74.173 64.4934 74.1576 63.919 73.7637C63.8225 73.6975 63.7332 73.6205 63.629 73.5307C63.2544 73.2061 60.9071 70.9086 58.4099 68.4614L83.4567 78.8247C82.4329 77.2515 80.9096 75.878 79.3363 75.1039ZM79.3363 75.1039L79.2701 75.2385M79.3363 75.1039L79.2702 75.2386M79.2701 75.2385L77.8768 74.5541L71.1178 74.4298L71.0985 74.4295C67.732 74.3673 66.0361 74.3361 65.0937 74.2418C64.6205 74.1945 64.3228 74.1302 64.0939 74.0312C63.8652 73.9324 63.7143 73.8023 63.5374 73.6498L63.531 73.6443L63.5308 73.644C63.1516 73.3154 60.7986 71.0124 58.3049 68.5685L58.3044 68.568L53.8217 64.1349L52.0279 63.941L52.0259 63.9408L50.18 63.7662L50.19 63.4669L52.038 63.4169L52.04 63.4169L53.8629 63.3919L53.9243 63.3911L53.9687 63.4336L59.2378 68.4779L59.2383 68.4784L64.4399 73.5066L71.2731 73.6304L78.1654 73.7553L78.2005 73.7559L78.2317 73.7721L79.5802 74.4713L79.5819 74.4722C81.3772 75.4331 83.148 77.1257 84.0128 78.7027L84.7119 79.9762L84.7306 80.0101L84.7304 80.0488L84.7055 87.6903L84.6807 95.2725L85.2889 95.9275C85.2891 95.9277 85.2892 95.9278 85.2894 95.928C85.7223 96.3874 85.9327 96.9076 85.8943 97.3999C85.8556 97.8961 85.566 98.3366 85.0551 98.6324L85.0552 98.6326L85.0492 98.6357C84.7403 98.7963 84.5159 98.8961 84.2839 98.8961C84.0507 98.8961 83.8322 98.7954 83.5351 98.6345L83.5351 98.6345L83.534 98.6339C83.024 98.352 82.7265 97.9255 82.677 97.4474C82.6276 96.9715 82.8267 96.4732 83.2508 96.0492L83.8317 95.4682L83.906 87.7133L83.906 87.7128L84.0053 79.9422L83.331 78.9066L83.331 78.9066C82.3209 77.3544 80.8176 76 79.2702 75.2386M79.2701 75.2385L79.2702 75.2386M79.2701 75.2385L79.2702 75.2386" fill="white" stroke="white" stroke-width="0.3"/>
<path d="M102.78 71.1038C102.78 71.1038 102.781 71.1042 102.782 71.1047C102.781 71.104 102.78 71.1038 102.78 71.1038ZM95.3694 85.8169V85.7674L95.3989 85.7276L96.4719 84.2803C96.472 84.2801 96.4721 84.28 96.4723 84.2798C97.0756 83.4503 98.1774 82.1232 98.9291 81.2964C102.403 77.4224 103.359 75.7646 103.36 73.8831C103.348 73.5547 103.305 73.189 103.241 72.8635C103.177 72.5327 103.093 72.2594 103.006 72.1068C102.9 71.9229 102.809 71.7144 102.744 71.5257C102.682 71.3461 102.638 71.1683 102.636 71.0427C102.633 71.0103 102.632 70.9645 102.651 70.92C102.663 70.8923 102.683 70.8619 102.717 70.8395C102.752 70.817 102.788 70.8101 102.818 70.8106C102.872 70.8114 102.916 70.8351 102.942 70.8509C102.972 70.8693 103.002 70.8932 103.031 70.9193C103.144 71.0218 103.295 71.2082 103.459 71.4483L103.459 71.4482L103.463 71.4531C103.682 71.8019 103.827 72.1238 103.916 72.5244C104.004 72.9214 104.035 73.3901 104.035 74.0302L104.035 74.0319C104.022 75.1388 103.862 75.9763 103.238 77.0728C102.621 78.1582 101.55 79.4987 99.7286 81.6195L99.7282 81.6199C98.9299 82.543 98.1628 83.4535 97.5674 84.1767C96.9685 84.9042 96.5511 85.4329 96.4447 85.5984L96.4448 85.5984L96.4414 85.6033C96.2915 85.8174 96.1806 86.1496 96.1027 87.0596C96.0252 87.9649 95.9815 89.4142 95.9441 91.8375L95.8701 97.5059L96.5851 98.0594L96.5851 98.0594L96.587 98.0609C97.1004 98.4716 97.4174 98.9346 97.4174 99.4266C97.4174 100.196 97.0027 100.764 96.4424 101.001C95.8824 101.237 95.1934 101.136 94.6642 100.606C94.2989 100.241 94.1249 99.7885 94.1491 99.3282C94.1733 98.869 94.3938 98.4157 94.7927 98.0434L94.7935 98.0427L95.3694 97.5129V91.6853V85.8169Z" fill="white" stroke="white" stroke-width="0.3"/>
<path d="M48.2696 72.6909L48.2695 72.6909C47.807 72.8627 47.4636 73.126 47.246 73.5025C47.0301 73.8762 46.9475 74.3448 46.9732 74.911L46.9734 74.9157L46.9735 74.9157C46.9923 75.16 46.9989 75.3258 46.9537 75.4993C46.9087 75.6717 46.8084 75.8652 46.5868 76.1476C46.139 76.718 45.2376 77.6015 43.4475 79.3415L43.4467 79.3423L39.8691 82.8706L34.0618 82.92C32.0897 82.9325 30.7569 82.9512 30.0543 82.9826C29.8786 82.9905 29.7401 82.9992 29.6399 83.009C29.5901 83.0139 29.5472 83.0194 29.5129 83.0256C29.4958 83.0287 29.4786 83.0324 29.4626 83.037C29.449 83.041 29.426 83.0484 29.4035 83.0625C29.39 83.0711 29.3159 83.1208 29.3286 83.2176C29.3342 83.2601 29.3555 83.2893 29.3702 83.3051C29.385 83.3209 29.4002 83.3309 29.41 83.3366C29.4432 83.356 29.485 83.3664 29.5138 83.3728C29.5822 83.3881 29.6878 83.4032 29.8255 83.4189L29.8259 83.4189L29.8259 83.4189C30.7334 83.5197 33.4376 83.6196 35.8342 83.6446L35.8349 83.6446L40.205 83.6695L40.2658 83.6699L40.3097 83.6277L44.0554 80.0319L48.2696 72.6909ZM48.2696 72.6909C48.9844 72.4261 49.6632 72.5144 50.1652 72.8858C50.666 73.2562 50.9689 73.8919 50.9689 74.6795C50.9689 75.9078 49.8259 76.786 48.5516 76.6012M48.2696 72.6909L48.5516 76.6012M48.5516 76.6012C48.3516 76.577 48.2073 76.5709 48.0442 76.6161C47.8775 76.6624 47.678 76.7661 47.3814 76.9878C46.7851 77.4335 45.8445 78.3179 44.0555 80.0318L48.5516 76.6012Z" fill="white" stroke="white" stroke-width="0.3"/>
<path d="M66.5638 81.8498L66.5645 81.8493C66.828 81.661 67.0862 81.4847 67.2887 81.3549C67.3897 81.2902 67.4786 81.236 67.5482 81.1974C67.5828 81.1783 67.615 81.1617 67.6428 81.1495C67.6567 81.1434 67.6717 81.1374 67.6868 81.1327C67.6994 81.1287 67.7229 81.1221 67.7504 81.1221C67.7827 81.1221 67.8492 81.1342 67.8865 81.2018C67.9155 81.2545 67.904 81.3041 67.9008 81.3171C67.8927 81.3495 67.8754 81.3764 67.8678 81.388C67.8475 81.4191 67.8161 81.4582 67.7793 81.5012C67.7036 81.5894 67.5871 81.7146 67.4399 81.8666C67.1447 82.1711 66.719 82.5906 66.2315 83.0531C66.0579 83.2237 65.8964 83.3793 65.746 83.5243C65.2671 83.986 64.9003 84.3397 64.6117 84.7216C64.2402 85.2133 64.0008 85.7511 63.8497 86.626C63.6974 87.5071 63.6357 88.7237 63.6189 90.5704C63.6056 92.0337 63.6205 93.8862 63.6397 96.2723C63.6447 96.895 63.65 97.554 63.6552 98.2519L63.6552 98.2519C63.6927 103.422 63.7239 106.328 63.7924 107.97C63.8268 108.793 63.8702 109.29 63.9266 109.593C63.9846 109.905 64.0492 109.966 64.0818 109.986L64.0818 109.986L64.0845 109.988C64.9793 110.55 65.5324 111.242 65.6872 111.975C65.8433 112.715 65.5871 113.464 64.9348 114.116L64.9348 114.116L64.9334 114.118C64.4159 114.622 63.8685 114.891 63.3054 114.891C62.7424 114.891 62.1949 114.622 61.6774 114.118L61.6774 114.118L61.6761 114.116C60.6773 113.118 60.6107 111.699 61.5749 110.759C61.7435 110.578 61.9313 110.416 62.0983 110.298C62.1822 110.239 62.2633 110.189 62.3361 110.153C62.3739 110.135 62.4155 110.117 62.4578 110.105C62.4613 110.089 62.4652 110.069 62.4692 110.045C62.4868 109.938 62.5037 109.772 62.5194 109.543C62.5507 109.087 62.5764 108.397 62.5967 107.464C62.6373 105.599 62.656 102.773 62.656 98.9272C62.656 94.2704 62.6747 91.3838 62.731 89.5301C62.7871 87.6807 62.8807 86.845 63.0363 86.3002L63.0365 86.2995C63.2438 85.5871 63.7183 84.7706 64.3398 83.9881C64.9626 83.2041 65.7403 82.4452 66.5638 81.8498ZM67.6191 81.2198C67.6191 81.2198 67.6187 81.2205 67.618 81.2218C67.6188 81.2205 67.6191 81.2199 67.6191 81.2198ZM67.7762 81.419C67.7762 81.419 67.776 81.4191 67.7759 81.4191L67.7762 81.419Z" fill="white" stroke="white" stroke-width="0.3"/>
<path d="M101.074 104.273L101.292 104.479L103.09 102.731C103.09 102.731 103.09 102.731 103.09 102.731C103.13 102.692 103.17 102.653 103.209 102.615C103.879 101.969 104.39 101.475 104.78 101.047C105.194 100.593 105.477 100.206 105.672 99.7792C106.044 98.9632 106.08 98.0196 106.149 96.2286C106.151 96.1575 106.154 96.0851 106.157 96.0113L106.157 96.011L106.277 92.7813L112.103 92.6594L118.072 92.5345L118.136 92.5332L118.18 92.4854L119.652 90.8633C119.652 90.8631 119.652 90.8629 119.653 90.8627C120.428 90.0244 121.192 89.1485 121.743 88.4815C122.018 88.1483 122.242 87.8654 122.388 87.6646C122.461 87.5653 122.517 87.4815 122.552 87.42C122.567 87.3924 122.586 87.3558 122.594 87.3194C122.597 87.3049 122.607 87.2601 122.586 87.2111C122.573 87.1822 122.551 87.1548 122.519 87.1365C122.489 87.1192 122.459 87.1153 122.439 87.1153C122.409 87.1153 122.387 87.1241 122.379 87.127C122.369 87.1311 122.361 87.1356 122.356 87.1386C122.345 87.1447 122.336 87.1515 122.328 87.157C122.313 87.1684 122.294 87.1833 122.275 87.2C122.235 87.2341 122.181 87.2829 122.116 87.344C121.984 87.4666 121.8 87.6432 121.578 87.8605C121.134 88.2951 120.534 88.8951 119.885 89.5572C119.885 89.5573 119.884 89.5575 119.884 89.5576L117.558 91.9081L111.58 91.7352C109.084 91.6603 107.562 91.6351 106.661 91.6634C106.212 91.6775 105.907 91.705 105.71 91.7493C105.612 91.7713 105.528 91.8001 105.464 91.8422C105.397 91.8867 105.343 91.9529 105.334 92.0424C105.326 92.1015 105.323 92.2438 105.323 92.4331C105.322 92.6332 105.323 92.9009 105.326 93.2164C105.332 93.7604 105.342 94.4484 105.353 95.1798L101.074 104.273ZM101.074 104.273L102.847 102.225C102.847 102.225 102.847 102.225 102.847 102.225C104.14 100.732 104.767 99.9862 105.077 99.1557C105.386 98.3264 105.383 97.404 105.358 95.5332L101.074 104.273Z" fill="white" stroke="white" stroke-width="0.3"/>
<path d="M105.877 115.833L105.877 115.833L105.878 115.833C107.113 115.796 108.272 115.74 109.144 115.681C109.58 115.651 109.943 115.621 110.207 115.592C110.339 115.577 110.444 115.563 110.521 115.55C110.56 115.544 110.589 115.538 110.61 115.532C110.617 115.53 110.623 115.529 110.627 115.528C110.662 115.499 110.732 115.434 110.834 115.33C110.945 115.217 111.086 115.068 111.247 114.892C111.571 114.541 111.975 114.086 112.387 113.613C112.387 113.613 112.387 113.613 112.387 113.612L113.849 111.907V109.54V107.187L113.06 106.804C113.06 106.804 113.06 106.804 113.059 106.804C112.464 106.519 112.054 106.14 111.867 105.662C111.68 105.184 111.728 104.635 111.988 104.038C112.094 103.786 112.251 103.531 112.425 103.32C112.596 103.114 112.797 102.935 112.994 102.858C114.122 102.403 115.155 102.924 115.671 103.745C116.187 104.567 116.198 105.714 115.27 106.508L115.269 106.508C115.106 106.646 114.995 106.747 114.913 106.857C114.834 106.963 114.778 107.082 114.738 107.257C114.655 107.624 114.648 108.208 114.648 109.366C114.648 110.032 114.617 110.698 114.566 111.237C114.541 111.506 114.511 111.745 114.477 111.938C114.444 112.124 114.406 112.283 114.357 112.379L114.358 112.38L114.353 112.388C114.259 112.549 114.008 112.883 113.685 113.284C113.359 113.688 112.951 114.17 112.538 114.634C112.538 114.634 112.537 114.634 112.537 114.635L111.065 116.331L111.02 116.384L110.95 116.383L106.157 116.333L106.156 116.333L101.387 116.308L101.382 116.008L105.877 115.833Z" fill="white" stroke="white" stroke-width="0.3"/>
</svg>
