<svg width="180" height="116" viewBox="0 0 180 116" fill="none" xmlns="http://www.w3.org/2000/svg">
<g clip-path="url(#clip0_154_1710)">
<mask id="path-1-outside-1_154_1710" maskUnits="userSpaceOnUse" x="-1.49219" y="-45" width="182" height="162" fill="black">
<rect fill="white" x="-1.49219" y="-45" width="182" height="162"/>
<path d="M79.9024 -43.7605C79.5566 -43.7104 78.544 -43.485 77.6301 -43.2847C76.2223 -42.9592 75.7036 -42.9341 74.2958 -43.1845C73.3573 -43.3598 71.7765 -43.46 70.7639 -43.4099C68.8868 -43.3097 68.7386 -43.2346 65.2808 -41.3816C64.3422 -40.8808 63.0826 -40.6554 58.4887 -40.2047C55.426 -39.8792 54.0429 -39.3784 51.4248 -37.6005C48.6586 -35.7475 47.399 -35.1465 43.9905 -34.0448C41.3478 -33.1683 40.9279 -32.968 39.6436 -31.7661C38.458 -30.6393 37.8406 -30.2887 35.5436 -29.4623C32.2834 -28.2854 31.1719 -27.7095 28.8503 -26.1069C27.1214 -24.8799 26.6521 -24.2539 25.8617 -22.1505C25.5159 -21.2741 22.725 -17.9938 21.0949 -16.6166C20.3539 -15.9906 18.5509 -14.6133 17.0443 -13.5616C15.5624 -12.535 14.0805 -11.4081 13.7841 -11.0826C13.4877 -10.7821 12.7467 -9.10443 12.1293 -7.40167C10.8202 -3.82088 9.7829 -1.7926 7.78231 1.01193C4.3986 5.74458 3.63294 7.82294 3.36125 13.0063C3.13897 16.6873 2.86728 17.8892 1.58295 20.4434C-2.31944 28.3061 -0.615231 39.1486 5.83112 47.6123C10.4004 53.622 17.9088 57.9039 26.084 59.1309C31.0731 59.8821 40.8785 59.2812 43.1508 58.0792C43.8671 57.7036 43.8918 57.7286 44.9291 58.6551C46.7815 60.3329 47.5471 61.7101 48.0411 64.1641C49.5724 71.9516 55.5001 78.1867 64.0212 80.9913C69.4055 82.7441 76.3705 82.1181 82.4958 79.3386C84.5704 78.3871 85.2867 78.1867 86.9415 78.0866C91.6096 77.7861 96.1541 80.3402 99.5872 85.1981C100.55 86.6003 106.355 98.2942 112.381 111.065C113.591 113.619 114.703 115.773 114.826 115.873C115.74 116.499 115.147 114.896 112.431 109.287C110.726 105.781 108.281 100.623 106.972 97.7934C103.662 90.6819 100.847 85.3733 99.4637 83.6205C97.1915 80.7909 94.0794 78.5373 91.0662 77.6108C90.424 77.4355 88.8927 77.2602 87.6331 77.2602H85.3855L85.2867 71.7513L85.2126 66.2424L78.8651 59.782L72.4928 53.3466V48.038V42.7294L73.1103 42.1034C73.8512 41.3522 73.9006 40.626 73.2338 39.9499C72.641 39.3489 72.2952 39.3239 71.5543 39.8497C70.8627 40.3255 70.838 41.4774 71.5049 42.0783C71.9741 42.504 71.9988 42.8546 71.9988 48.063V53.597L78.2723 59.9823C83.5084 65.2909 84.5951 66.5179 84.7186 67.244C84.7927 67.7198 84.8421 70.1988 84.7927 72.7529L84.7186 77.3604L82.7674 78.337C79.5319 79.9145 74.938 81.2667 72.7398 81.2667H72.0482L72.1717 79.6892C72.3199 77.9864 72.0235 77.0098 71.3567 77.0098C71.0356 77.0098 71.0603 77.135 71.4802 77.6609C72.0235 78.362 72.1223 79.1132 71.8259 80.5155L71.6777 81.3418L69.0597 81.1916C65.923 81.0163 63.5519 80.3903 60.6127 78.9129C56.7351 76.9597 53.7465 74.3555 51.5236 71.0502C49.4243 67.8951 48.5351 65.2658 48.5351 62.1107C48.5351 59.5566 49.0044 57.7787 50.1652 56.0009C50.9803 54.7488 51.005 54.6737 50.3875 55.2246C49.3996 56.1511 48.461 57.9039 48.1646 59.4064L47.8929 60.7335L46.3616 59.0057L44.8303 57.2529L45.3737 56.3013C47.0779 53.3966 44.8797 49.0396 40.9279 47.412C39.5448 46.836 39.3472 46.836 30.5051 46.836C20.6503 46.836 20.7491 46.836 18.7485 45.3086C18.2792 44.933 15.9329 42.5541 13.5618 40.025L9.23953 35.4176L9.38773 34.3659C9.53592 33.4644 9.46182 33.214 8.91845 32.613C8.20219 31.8117 7.33774 31.7366 6.52268 32.4127C5.33715 33.3643 6.05341 35.693 7.53533 35.693C8.22689 35.693 10.2275 37.6462 15.76 43.731C17.2913 45.4087 18.625 46.6608 19.4648 47.1115L20.7491 47.8377L30.1346 47.9629L39.5201 48.0881L41.0514 48.8142C43.793 50.0913 45.3243 52.4451 44.9538 54.7488C44.5092 57.353 42.6321 58.1293 35.2472 58.7303C31.6412 59.0308 27.1955 58.7803 23.9105 58.0792C18.0817 56.8773 12.7467 53.9726 8.52327 49.7157C4.17631 45.3586 1.38536 39.8247 0.496209 33.7649C-0.121258 29.7083 0.0516329 26.3279 1.01488 23.2228L1.43476 21.9207H6.62148H11.8082L14.2534 19.4668C17.6618 16.0863 18.9461 14.4336 16.2787 16.8375C15.1672 17.8391 14.1052 18.8408 13.9323 19.0661C13.7347 19.3165 13.0431 19.9425 12.401 20.4684L11.1907 21.4199H6.52268C3.95402 21.4199 1.85464 21.3699 1.85464 21.3198C1.85464 21.2697 2.17572 20.5185 2.59559 19.6421C3.63294 17.3383 4.07751 15.3601 4.07751 12.8561V10.6776L6.99196 10.8028L9.8817 10.953L10.7709 9.47562C12.5739 6.57092 12.6973 5.96995 10.9684 8.52408C10.3757 9.4005 9.73351 10.2018 9.51122 10.2769C9.31363 10.3771 8.054 10.352 6.69557 10.2519L4.2751 10.0766L4.4233 8.92473C4.64558 7.27206 5.75702 5.01841 8.1034 1.56282C10.8696 -2.54382 11.2401 -3.21991 12.5986 -7.00103C13.2654 -8.80394 14.0311 -10.5317 14.3028 -10.8573C14.5991 -11.1828 16.0564 -12.2595 17.5383 -13.2612C20.3045 -15.1142 23.3919 -17.7184 24.3304 -18.9704C25.0714 -19.947 25.2937 -19.8218 25.022 -18.5948C24.6762 -17.0423 24.9479 -15.039 25.6641 -13.812C25.9852 -13.2361 27.9117 -11.1327 29.937 -9.12947C31.9376 -7.15127 33.2713 -5.97437 32.8761 -6.50021C32.4563 -7.05111 30.8509 -8.80394 29.2701 -10.3815C27.6647 -11.9841 26.1828 -13.7119 25.9111 -14.2628C25.0714 -16.0657 25.4666 -19.7967 26.825 -23.077C27.3436 -24.304 29.3442 -26.0068 31.6412 -27.1586C33.1231 -27.8848 37.9147 -29.7378 37.9147 -29.5625C37.9147 -29.5124 37.6677 -28.9365 37.3713 -28.2604C36.8773 -27.1586 36.8279 -26.6077 36.8279 -22.6513C36.8032 -19.4962 36.902 -17.9938 37.149 -17.2676C37.396 -16.5665 38.6062 -15.1392 41.4466 -12.2094C44.3116 -9.25467 45.4231 -7.92752 45.5713 -7.32655L45.7688 -6.50021L45.7935 -7.30151C45.8182 -8.27809 45.0032 -9.35484 40.9526 -13.6618C37.4454 -17.4179 37.4207 -17.4429 37.4207 -22.7515C37.4207 -26.8081 37.8159 -28.6861 39.0508 -30.3638C40.3598 -32.1667 41.496 -32.8428 44.8303 -33.7944C46.0899 -34.1449 47.8435 -34.7709 48.7327 -35.1966C49.6218 -35.5973 50.3628 -35.9228 50.4122 -35.9228C50.4369 -35.9228 50.3628 -35.5472 50.2393 -35.1215C49.8688 -33.7944 49.9923 -32.1417 50.5357 -31.0149C51.1285 -29.7378 52.9562 -28.4357 54.3887 -28.2854C55.179 -28.1853 55.2284 -28.1853 54.6604 -28.3856C51.252 -29.5375 49.8194 -32.317 51.005 -35.4721C52.1411 -38.552 54.611 -39.6037 61.7983 -40.0545L64.2928 -40.2047L64.3916 -36.3735C64.4657 -32.9931 64.5398 -32.4171 65.0338 -31.4906C65.8489 -29.9131 67.7754 -28.5859 69.6525 -28.3105L70.6404 -28.1602L69.6525 -28.4858C67.5037 -29.2119 66.3181 -30.1885 65.429 -31.9163C65.0585 -32.6425 64.9844 -33.4187 64.9844 -36.3735L64.9597 -39.9543L65.9477 -40.8057C67.8248 -42.4584 68.8621 -42.8089 71.6283 -42.7839C75.6048 -42.7589 77.9759 -41.5319 79.3096 -38.7524L80.0012 -37.3501L80.1494 -23.7531C80.2482 -16.266 80.3717 -10.056 80.4705 -9.98084C80.5693 -9.88068 80.6434 -16.0406 80.6434 -23.703V-37.6005L79.8777 -39.153C79.4084 -40.0795 78.7663 -40.9559 78.2229 -41.3566C77.7042 -41.7322 77.2596 -42.0828 77.1855 -42.1328C76.9386 -42.3081 77.803 -42.6337 79.359 -42.9091C80.5446 -43.1345 83.6813 -43.2096 90.1523 -43.1345L99.2908 -43.0593L100.526 -42.3832C101.217 -42.0327 101.983 -41.5569 102.255 -41.3315C102.749 -40.981 102.724 -40.9559 101.934 -40.1046C100.353 -38.4519 100.155 -37.3751 100.18 -31.09C100.205 -27.4591 100.279 -25.8816 100.427 -26.5326C100.526 -27.0835 100.625 -29.4373 100.625 -31.741C100.649 -34.0698 100.773 -36.4486 100.921 -37.0246C101.291 -38.5771 102.403 -39.779 104.255 -40.7055L105.836 -41.5068L108.874 -41.3566C110.899 -41.2564 112.702 -41.006 114.357 -40.5803C115.715 -40.2047 118.383 -39.754 120.285 -39.5537C124.261 -39.128 126.138 -38.5771 129.003 -37.0496C131.177 -35.8727 134.289 -33.8194 134.758 -33.2685C134.98 -32.9931 134.808 -32.968 133.77 -33.0932C132.066 -33.2935 129.72 -32.7927 127.941 -31.8412C125.792 -30.6893 123.965 -28.6861 121.989 -25.4308C119.815 -21.8 118.556 -20.3727 116.654 -19.4211C114.974 -18.5447 114.011 -18.4696 112.011 -19.0205C110.306 -19.4712 110.158 -19.346 111.69 -18.745C115.543 -17.2426 119.124 -19.2709 122.409 -24.7798C125.891 -30.6643 130.041 -32.9179 135.623 -31.9414C141.526 -30.9147 149.725 -26.7079 153.554 -22.8016C155.53 -20.7983 157.555 -17.4179 157.53 -16.241C157.481 -14.3129 154.418 -10.9324 151.603 -9.73044C150.738 -9.35484 150.071 -9.00426 150.145 -8.95419C150.343 -8.72882 153.677 -10.1812 154.888 -11.0075C156.221 -11.934 157.53 -13.6868 158.074 -15.2894L158.37 -16.1408L158.963 -15.2143C159.284 -14.7135 160.346 -13.762 161.284 -13.1109C163.409 -11.6335 165.335 -9.5802 166.076 -8.00265C166.965 -6.07453 168.274 -1.89277 168.595 0.0353546C168.793 1.3625 168.818 2.13876 168.595 3.11533C168.274 4.69289 168.249 4.96833 168.546 4.79305C168.793 4.61776 169.312 2.7898 169.386 1.76315C169.41 1.33746 169.534 1.01193 169.633 1.01193C169.978 1.01193 172.794 5.21873 173.634 6.99661C174.721 9.30033 174.943 10.352 175.264 14.9595C175.634 20.1929 175.486 23.4482 174.745 24.9757C173.856 26.9038 171.806 28.4313 170.127 28.4313C169.608 28.4313 169.534 28.5064 169.806 28.6566C170.596 29.1825 172.893 28.256 174.202 26.9038C175.338 25.7269 175.931 24.3246 176.178 22.1712L176.375 20.2931L176.82 21.2947C177.067 21.8456 177.586 23.298 178.005 24.55C178.722 26.6534 178.771 27.0791 178.821 31.1607L178.895 35.5177L177.635 34.2907C175.684 32.4127 174.597 31.4862 174.992 32.0621C175.19 32.3376 176.227 33.4143 177.339 34.466L179.314 36.3691V40.1001C179.314 44.4572 178.969 46.1099 177.339 49.6406C175.708 53.1713 173.807 55.7254 170.966 58.2044C169.015 59.9072 168.373 60.1576 165.286 60.6083C161.531 61.1091 152.516 61.3846 151.751 60.9839C151.035 60.6083 149.059 58.7052 149.059 58.4047C149.059 58.2795 149.577 57.5283 150.195 56.702L151.356 55.2246L153.974 55.1996C155.406 55.1745 158.642 55.0744 161.161 54.9992L165.73 54.8239L158.568 54.7739C154.641 54.7488 151.282 54.8239 151.158 54.9241C151.01 55.0243 150.244 55.8506 149.454 56.8021L148.021 58.4799H139.723H131.448L129.324 56.3514L127.2 54.248L127.052 51.168L126.929 48.0881L126.879 51.3183L126.83 54.5485L129.003 56.8021L131.202 59.0558L136.24 59.1309C139.006 59.156 142.958 59.206 145.008 59.206L148.738 59.2311L150.17 60.5081L151.627 61.8102L157.456 61.66C164.421 61.5098 167.533 61.059 169.509 59.9823C170.25 59.5816 170.917 59.2812 170.966 59.3312C171.337 59.6818 171.781 63.8135 171.732 66.1423L171.658 68.8717L157.086 68.7965C149.083 68.7715 140.167 68.8216 137.302 68.9217L132.091 69.1221L130.139 70.1237C126.262 72.1269 123.1 75.9581 121.668 80.3903L120.902 82.8192L120.952 94.1375C120.976 103.027 121.026 104.504 121.174 101.049C121.248 98.6448 121.347 93.6868 121.371 90.0559C121.396 82.7191 121.544 81.6924 123.026 78.6375C124.632 75.3321 127.793 72.0268 130.782 70.5494C132.115 69.8983 132.288 69.8733 138.068 69.723C141.328 69.6229 150.195 69.5478 157.802 69.5227L171.609 69.4977L171.436 70.8749C171.238 72.6277 170.225 75.858 169.163 78.2368C165.384 86.5753 157.629 92.3096 147.947 93.9122C143.6 94.6383 138.907 94.1375 134.412 92.4848C133.079 91.984 132.98 91.9089 133.128 91.3079C133.4 90.131 134.832 88.0026 136.166 86.7756C138.191 84.8725 139.154 84.6221 145.477 84.3216L150.911 84.0963L145.107 84.1213C139.303 84.1464 139.303 84.1464 137.944 84.8225C136.117 85.7239 134.141 87.7772 133.177 89.7805L132.387 91.3831L132.313 97.2926C132.288 100.523 132.362 104.179 132.461 105.431C132.659 107.234 132.708 106.207 132.733 100.097C132.758 94.1125 132.832 92.5099 133.079 92.6351C134.165 93.0858 138.339 94.3128 139.673 94.5632C143.674 95.2894 149.775 94.6884 154.122 93.1109C164.224 89.4549 171.238 80.2651 172.522 69.0219C172.843 66.1923 172.572 62.0607 171.905 59.807L171.534 58.6051L172.992 57.1026C176.005 53.9475 177.586 51.3433 178.969 47.2116C179.759 44.933 179.784 44.6575 179.784 40.9515C179.808 36.3691 179.314 27.1792 178.993 25.9272C178.87 25.4515 178.203 23.4232 177.487 21.445C176.326 18.1146 176.202 17.5887 175.98 14.5588C175.733 10.928 175.387 9.4005 174.301 7.04669C173.535 5.36898 171.534 2.23891 170.127 0.461044C169.559 -0.265137 168.99 -1.5422 168.324 -3.62056C166.619 -8.97923 165.162 -11.0826 161.507 -13.6117C160.198 -14.5132 159.63 -15.0891 159.012 -16.241C157.901 -18.2442 154.986 -22.1505 153.554 -23.5278C150.417 -26.6077 143.279 -30.5141 137.771 -32.1667C137.203 -32.342 135.944 -33.0932 135.005 -33.8444C132.955 -35.422 129.621 -37.4503 127.398 -38.4769C125.373 -39.4034 123.372 -39.8542 120.161 -40.0545C118.58 -40.1546 116.333 -40.5553 114.308 -41.0561C109.936 -42.1829 107.614 -42.3832 105.243 -41.8073L103.416 -41.3816L102.279 -42.1579C100.18 -43.6353 100.007 -43.6353 89.856 -43.7605C84.7186 -43.8105 80.2482 -43.8105 79.9024 -43.7605Z"/>
</mask>
<path d="M79.9024 -43.7605C79.5566 -43.7104 78.544 -43.485 77.6301 -43.2847C76.2223 -42.9592 75.7036 -42.9341 74.2958 -43.1845C73.3573 -43.3598 71.7765 -43.46 70.7639 -43.4099C68.8868 -43.3097 68.7386 -43.2346 65.2808 -41.3816C64.3422 -40.8808 63.0826 -40.6554 58.4887 -40.2047C55.426 -39.8792 54.0429 -39.3784 51.4248 -37.6005C48.6586 -35.7475 47.399 -35.1465 43.9905 -34.0448C41.3478 -33.1683 40.9279 -32.968 39.6436 -31.7661C38.458 -30.6393 37.8406 -30.2887 35.5436 -29.4623C32.2834 -28.2854 31.1719 -27.7095 28.8503 -26.1069C27.1214 -24.8799 26.6521 -24.2539 25.8617 -22.1505C25.5159 -21.2741 22.725 -17.9938 21.0949 -16.6166C20.3539 -15.9906 18.5509 -14.6133 17.0443 -13.5616C15.5624 -12.535 14.0805 -11.4081 13.7841 -11.0826C13.4877 -10.7821 12.7467 -9.10443 12.1293 -7.40167C10.8202 -3.82088 9.7829 -1.7926 7.78231 1.01193C4.3986 5.74458 3.63294 7.82294 3.36125 13.0063C3.13897 16.6873 2.86728 17.8892 1.58295 20.4434C-2.31944 28.3061 -0.615231 39.1486 5.83112 47.6123C10.4004 53.622 17.9088 57.9039 26.084 59.1309C31.0731 59.8821 40.8785 59.2812 43.1508 58.0792C43.8671 57.7036 43.8918 57.7286 44.9291 58.6551C46.7815 60.3329 47.5471 61.7101 48.0411 64.1641C49.5724 71.9516 55.5001 78.1867 64.0212 80.9913C69.4055 82.7441 76.3705 82.1181 82.4958 79.3386C84.5704 78.3871 85.2867 78.1867 86.9415 78.0866C91.6096 77.7861 96.1541 80.3402 99.5872 85.1981C100.55 86.6003 106.355 98.2942 112.381 111.065C113.591 113.619 114.703 115.773 114.826 115.873C115.74 116.499 115.147 114.896 112.431 109.287C110.726 105.781 108.281 100.623 106.972 97.7934C103.662 90.6819 100.847 85.3733 99.4637 83.6205C97.1915 80.7909 94.0794 78.5373 91.0662 77.6108C90.424 77.4355 88.8927 77.2602 87.6331 77.2602H85.3855L85.2867 71.7513L85.2126 66.2424L78.8651 59.782L72.4928 53.3466V48.038V42.7294L73.1103 42.1034C73.8512 41.3522 73.9006 40.626 73.2338 39.9499C72.641 39.3489 72.2952 39.3239 71.5543 39.8497C70.8627 40.3255 70.838 41.4774 71.5049 42.0783C71.9741 42.504 71.9988 42.8546 71.9988 48.063V53.597L78.2723 59.9823C83.5084 65.2909 84.5951 66.5179 84.7186 67.244C84.7927 67.7198 84.8421 70.1988 84.7927 72.7529L84.7186 77.3604L82.7674 78.337C79.5319 79.9145 74.938 81.2667 72.7398 81.2667H72.0482L72.1717 79.6892C72.3199 77.9864 72.0235 77.0098 71.3567 77.0098C71.0356 77.0098 71.0603 77.135 71.4802 77.6609C72.0235 78.362 72.1223 79.1132 71.8259 80.5155L71.6777 81.3418L69.0597 81.1916C65.923 81.0163 63.5519 80.3903 60.6127 78.9129C56.7351 76.9597 53.7465 74.3555 51.5236 71.0502C49.4243 67.8951 48.5351 65.2658 48.5351 62.1107C48.5351 59.5566 49.0044 57.7787 50.1652 56.0009C50.9803 54.7488 51.005 54.6737 50.3875 55.2246C49.3996 56.1511 48.461 57.9039 48.1646 59.4064L47.8929 60.7335L46.3616 59.0057L44.8303 57.2529L45.3737 56.3013C47.0779 53.3966 44.8797 49.0396 40.9279 47.412C39.5448 46.836 39.3472 46.836 30.5051 46.836C20.6503 46.836 20.7491 46.836 18.7485 45.3086C18.2792 44.933 15.9329 42.5541 13.5618 40.025L9.23953 35.4176L9.38773 34.3659C9.53592 33.4644 9.46182 33.214 8.91845 32.613C8.20219 31.8117 7.33774 31.7366 6.52268 32.4127C5.33715 33.3643 6.05341 35.693 7.53533 35.693C8.22689 35.693 10.2275 37.6462 15.76 43.731C17.2913 45.4087 18.625 46.6608 19.4648 47.1115L20.7491 47.8377L30.1346 47.9629L39.5201 48.0881L41.0514 48.8142C43.793 50.0913 45.3243 52.4451 44.9538 54.7488C44.5092 57.353 42.6321 58.1293 35.2472 58.7303C31.6412 59.0308 27.1955 58.7803 23.9105 58.0792C18.0817 56.8773 12.7467 53.9726 8.52327 49.7157C4.17631 45.3586 1.38536 39.8247 0.496209 33.7649C-0.121258 29.7083 0.0516329 26.3279 1.01488 23.2228L1.43476 21.9207H6.62148H11.8082L14.2534 19.4668C17.6618 16.0863 18.9461 14.4336 16.2787 16.8375C15.1672 17.8391 14.1052 18.8408 13.9323 19.0661C13.7347 19.3165 13.0431 19.9425 12.401 20.4684L11.1907 21.4199H6.52268C3.95402 21.4199 1.85464 21.3699 1.85464 21.3198C1.85464 21.2697 2.17572 20.5185 2.59559 19.6421C3.63294 17.3383 4.07751 15.3601 4.07751 12.8561V10.6776L6.99196 10.8028L9.8817 10.953L10.7709 9.47562C12.5739 6.57092 12.6973 5.96995 10.9684 8.52408C10.3757 9.4005 9.73351 10.2018 9.51122 10.2769C9.31363 10.3771 8.054 10.352 6.69557 10.2519L4.2751 10.0766L4.4233 8.92473C4.64558 7.27206 5.75702 5.01841 8.1034 1.56282C10.8696 -2.54382 11.2401 -3.21991 12.5986 -7.00103C13.2654 -8.80394 14.0311 -10.5317 14.3028 -10.8573C14.5991 -11.1828 16.0564 -12.2595 17.5383 -13.2612C20.3045 -15.1142 23.3919 -17.7184 24.3304 -18.9704C25.0714 -19.947 25.2937 -19.8218 25.022 -18.5948C24.6762 -17.0423 24.9479 -15.039 25.6641 -13.812C25.9852 -13.2361 27.9117 -11.1327 29.937 -9.12947C31.9376 -7.15127 33.2713 -5.97437 32.8761 -6.50021C32.4563 -7.05111 30.8509 -8.80394 29.2701 -10.3815C27.6647 -11.9841 26.1828 -13.7119 25.9111 -14.2628C25.0714 -16.0657 25.4666 -19.7967 26.825 -23.077C27.3436 -24.304 29.3442 -26.0068 31.6412 -27.1586C33.1231 -27.8848 37.9147 -29.7378 37.9147 -29.5625C37.9147 -29.5124 37.6677 -28.9365 37.3713 -28.2604C36.8773 -27.1586 36.8279 -26.6077 36.8279 -22.6513C36.8032 -19.4962 36.902 -17.9938 37.149 -17.2676C37.396 -16.5665 38.6062 -15.1392 41.4466 -12.2094C44.3116 -9.25467 45.4231 -7.92752 45.5713 -7.32655L45.7688 -6.50021L45.7935 -7.30151C45.8182 -8.27809 45.0032 -9.35484 40.9526 -13.6618C37.4454 -17.4179 37.4207 -17.4429 37.4207 -22.7515C37.4207 -26.8081 37.8159 -28.6861 39.0508 -30.3638C40.3598 -32.1667 41.496 -32.8428 44.8303 -33.7944C46.0899 -34.1449 47.8435 -34.7709 48.7327 -35.1966C49.6218 -35.5973 50.3628 -35.9228 50.4122 -35.9228C50.4369 -35.9228 50.3628 -35.5472 50.2393 -35.1215C49.8688 -33.7944 49.9923 -32.1417 50.5357 -31.0149C51.1285 -29.7378 52.9562 -28.4357 54.3887 -28.2854C55.179 -28.1853 55.2284 -28.1853 54.6604 -28.3856C51.252 -29.5375 49.8194 -32.317 51.005 -35.4721C52.1411 -38.552 54.611 -39.6037 61.7983 -40.0545L64.2928 -40.2047L64.3916 -36.3735C64.4657 -32.9931 64.5398 -32.4171 65.0338 -31.4906C65.8489 -29.9131 67.7754 -28.5859 69.6525 -28.3105L70.6404 -28.1602L69.6525 -28.4858C67.5037 -29.2119 66.3181 -30.1885 65.429 -31.9163C65.0585 -32.6425 64.9844 -33.4187 64.9844 -36.3735L64.9597 -39.9543L65.9477 -40.8057C67.8248 -42.4584 68.8621 -42.8089 71.6283 -42.7839C75.6048 -42.7589 77.9759 -41.5319 79.3096 -38.7524L80.0012 -37.3501L80.1494 -23.7531C80.2482 -16.266 80.3717 -10.056 80.4705 -9.98084C80.5693 -9.88068 80.6434 -16.0406 80.6434 -23.703V-37.6005L79.8777 -39.153C79.4084 -40.0795 78.7663 -40.9559 78.2229 -41.3566C77.7042 -41.7322 77.2596 -42.0828 77.1855 -42.1328C76.9386 -42.3081 77.803 -42.6337 79.359 -42.9091C80.5446 -43.1345 83.6813 -43.2096 90.1523 -43.1345L99.2908 -43.0593L100.526 -42.3832C101.217 -42.0327 101.983 -41.5569 102.255 -41.3315C102.749 -40.981 102.724 -40.9559 101.934 -40.1046C100.353 -38.4519 100.155 -37.3751 100.18 -31.09C100.205 -27.4591 100.279 -25.8816 100.427 -26.5326C100.526 -27.0835 100.625 -29.4373 100.625 -31.741C100.649 -34.0698 100.773 -36.4486 100.921 -37.0246C101.291 -38.5771 102.403 -39.779 104.255 -40.7055L105.836 -41.5068L108.874 -41.3566C110.899 -41.2564 112.702 -41.006 114.357 -40.5803C115.715 -40.2047 118.383 -39.754 120.285 -39.5537C124.261 -39.128 126.138 -38.5771 129.003 -37.0496C131.177 -35.8727 134.289 -33.8194 134.758 -33.2685C134.98 -32.9931 134.808 -32.968 133.77 -33.0932C132.066 -33.2935 129.72 -32.7927 127.941 -31.8412C125.792 -30.6893 123.965 -28.6861 121.989 -25.4308C119.815 -21.8 118.556 -20.3727 116.654 -19.4211C114.974 -18.5447 114.011 -18.4696 112.011 -19.0205C110.306 -19.4712 110.158 -19.346 111.69 -18.745C115.543 -17.2426 119.124 -19.2709 122.409 -24.7798C125.891 -30.6643 130.041 -32.9179 135.623 -31.9414C141.526 -30.9147 149.725 -26.7079 153.554 -22.8016C155.53 -20.7983 157.555 -17.4179 157.53 -16.241C157.481 -14.3129 154.418 -10.9324 151.603 -9.73044C150.738 -9.35484 150.071 -9.00426 150.145 -8.95419C150.343 -8.72882 153.677 -10.1812 154.888 -11.0075C156.221 -11.934 157.53 -13.6868 158.074 -15.2894L158.37 -16.1408L158.963 -15.2143C159.284 -14.7135 160.346 -13.762 161.284 -13.1109C163.409 -11.6335 165.335 -9.5802 166.076 -8.00265C166.965 -6.07453 168.274 -1.89277 168.595 0.0353546C168.793 1.3625 168.818 2.13876 168.595 3.11533C168.274 4.69289 168.249 4.96833 168.546 4.79305C168.793 4.61776 169.312 2.7898 169.386 1.76315C169.41 1.33746 169.534 1.01193 169.633 1.01193C169.978 1.01193 172.794 5.21873 173.634 6.99661C174.721 9.30033 174.943 10.352 175.264 14.9595C175.634 20.1929 175.486 23.4482 174.745 24.9757C173.856 26.9038 171.806 28.4313 170.127 28.4313C169.608 28.4313 169.534 28.5064 169.806 28.6566C170.596 29.1825 172.893 28.256 174.202 26.9038C175.338 25.7269 175.931 24.3246 176.178 22.1712L176.375 20.2931L176.82 21.2947C177.067 21.8456 177.586 23.298 178.005 24.55C178.722 26.6534 178.771 27.0791 178.821 31.1607L178.895 35.5177L177.635 34.2907C175.684 32.4127 174.597 31.4862 174.992 32.0621C175.19 32.3376 176.227 33.4143 177.339 34.466L179.314 36.3691V40.1001C179.314 44.4572 178.969 46.1099 177.339 49.6406C175.708 53.1713 173.807 55.7254 170.966 58.2044C169.015 59.9072 168.373 60.1576 165.286 60.6083C161.531 61.1091 152.516 61.3846 151.751 60.9839C151.035 60.6083 149.059 58.7052 149.059 58.4047C149.059 58.2795 149.577 57.5283 150.195 56.702L151.356 55.2246L153.974 55.1996C155.406 55.1745 158.642 55.0744 161.161 54.9992L165.73 54.8239L158.568 54.7739C154.641 54.7488 151.282 54.8239 151.158 54.9241C151.01 55.0243 150.244 55.8506 149.454 56.8021L148.021 58.4799H139.723H131.448L129.324 56.3514L127.2 54.248L127.052 51.168L126.929 48.0881L126.879 51.3183L126.83 54.5485L129.003 56.8021L131.202 59.0558L136.24 59.1309C139.006 59.156 142.958 59.206 145.008 59.206L148.738 59.2311L150.17 60.5081L151.627 61.8102L157.456 61.66C164.421 61.5098 167.533 61.059 169.509 59.9823C170.25 59.5816 170.917 59.2812 170.966 59.3312C171.337 59.6818 171.781 63.8135 171.732 66.1423L171.658 68.8717L157.086 68.7965C149.083 68.7715 140.167 68.8216 137.302 68.9217L132.091 69.1221L130.139 70.1237C126.262 72.1269 123.1 75.9581 121.668 80.3903L120.902 82.8192L120.952 94.1375C120.976 103.027 121.026 104.504 121.174 101.049C121.248 98.6448 121.347 93.6868 121.371 90.0559C121.396 82.7191 121.544 81.6924 123.026 78.6375C124.632 75.3321 127.793 72.0268 130.782 70.5494C132.115 69.8983 132.288 69.8733 138.068 69.723C141.328 69.6229 150.195 69.5478 157.802 69.5227L171.609 69.4977L171.436 70.8749C171.238 72.6277 170.225 75.858 169.163 78.2368C165.384 86.5753 157.629 92.3096 147.947 93.9122C143.6 94.6383 138.907 94.1375 134.412 92.4848C133.079 91.984 132.98 91.9089 133.128 91.3079C133.4 90.131 134.832 88.0026 136.166 86.7756C138.191 84.8725 139.154 84.6221 145.477 84.3216L150.911 84.0963L145.107 84.1213C139.303 84.1464 139.303 84.1464 137.944 84.8225C136.117 85.7239 134.141 87.7772 133.177 89.7805L132.387 91.3831L132.313 97.2926C132.288 100.523 132.362 104.179 132.461 105.431C132.659 107.234 132.708 106.207 132.733 100.097C132.758 94.1125 132.832 92.5099 133.079 92.6351C134.165 93.0858 138.339 94.3128 139.673 94.5632C143.674 95.2894 149.775 94.6884 154.122 93.1109C164.224 89.4549 171.238 80.2651 172.522 69.0219C172.843 66.1923 172.572 62.0607 171.905 59.807L171.534 58.6051L172.992 57.1026C176.005 53.9475 177.586 51.3433 178.969 47.2116C179.759 44.933 179.784 44.6575 179.784 40.9515C179.808 36.3691 179.314 27.1792 178.993 25.9272C178.87 25.4515 178.203 23.4232 177.487 21.445C176.326 18.1146 176.202 17.5887 175.98 14.5588C175.733 10.928 175.387 9.4005 174.301 7.04669C173.535 5.36898 171.534 2.23891 170.127 0.461044C169.559 -0.265137 168.99 -1.5422 168.324 -3.62056C166.619 -8.97923 165.162 -11.0826 161.507 -13.6117C160.198 -14.5132 159.63 -15.0891 159.012 -16.241C157.901 -18.2442 154.986 -22.1505 153.554 -23.5278C150.417 -26.6077 143.279 -30.5141 137.771 -32.1667C137.203 -32.342 135.944 -33.0932 135.005 -33.8444C132.955 -35.422 129.621 -37.4503 127.398 -38.4769C125.373 -39.4034 123.372 -39.8542 120.161 -40.0545C118.58 -40.1546 116.333 -40.5553 114.308 -41.0561C109.936 -42.1829 107.614 -42.3832 105.243 -41.8073L103.416 -41.3816L102.279 -42.1579C100.18 -43.6353 100.007 -43.6353 89.856 -43.7605C84.7186 -43.8105 80.2482 -43.8105 79.9024 -43.7605Z" fill="#0066FF"/>
<path d="M79.9024 -43.7605C79.5566 -43.7104 78.544 -43.485 77.6301 -43.2847C76.2223 -42.9592 75.7036 -42.9341 74.2958 -43.1845C73.3573 -43.3598 71.7765 -43.46 70.7639 -43.4099C68.8868 -43.3097 68.7386 -43.2346 65.2808 -41.3816C64.3422 -40.8808 63.0826 -40.6554 58.4887 -40.2047C55.426 -39.8792 54.0429 -39.3784 51.4248 -37.6005C48.6586 -35.7475 47.399 -35.1465 43.9905 -34.0448C41.3478 -33.1683 40.9279 -32.968 39.6436 -31.7661C38.458 -30.6393 37.8406 -30.2887 35.5436 -29.4623C32.2834 -28.2854 31.1719 -27.7095 28.8503 -26.1069C27.1214 -24.8799 26.6521 -24.2539 25.8617 -22.1505C25.5159 -21.2741 22.725 -17.9938 21.0949 -16.6166C20.3539 -15.9906 18.5509 -14.6133 17.0443 -13.5616C15.5624 -12.535 14.0805 -11.4081 13.7841 -11.0826C13.4877 -10.7821 12.7467 -9.10443 12.1293 -7.40167C10.8202 -3.82088 9.7829 -1.7926 7.78231 1.01193C4.3986 5.74458 3.63294 7.82294 3.36125 13.0063C3.13897 16.6873 2.86728 17.8892 1.58295 20.4434C-2.31944 28.3061 -0.615231 39.1486 5.83112 47.6123C10.4004 53.622 17.9088 57.9039 26.084 59.1309C31.0731 59.8821 40.8785 59.2812 43.1508 58.0792C43.8671 57.7036 43.8918 57.7286 44.9291 58.6551C46.7815 60.3329 47.5471 61.7101 48.0411 64.1641C49.5724 71.9516 55.5001 78.1867 64.0212 80.9913C69.4055 82.7441 76.3705 82.1181 82.4958 79.3386C84.5704 78.3871 85.2867 78.1867 86.9415 78.0866C91.6096 77.7861 96.1541 80.3402 99.5872 85.1981C100.55 86.6003 106.355 98.2942 112.381 111.065C113.591 113.619 114.703 115.773 114.826 115.873C115.74 116.499 115.147 114.896 112.431 109.287C110.726 105.781 108.281 100.623 106.972 97.7934C103.662 90.6819 100.847 85.3733 99.4637 83.6205C97.1915 80.7909 94.0794 78.5373 91.0662 77.6108C90.424 77.4355 88.8927 77.2602 87.6331 77.2602H85.3855L85.2867 71.7513L85.2126 66.2424L78.8651 59.782L72.4928 53.3466V48.038V42.7294L73.1103 42.1034C73.8512 41.3522 73.9006 40.626 73.2338 39.9499C72.641 39.3489 72.2952 39.3239 71.5543 39.8497C70.8627 40.3255 70.838 41.4774 71.5049 42.0783C71.9741 42.504 71.9988 42.8546 71.9988 48.063V53.597L78.2723 59.9823C83.5084 65.2909 84.5951 66.5179 84.7186 67.244C84.7927 67.7198 84.8421 70.1988 84.7927 72.7529L84.7186 77.3604L82.7674 78.337C79.5319 79.9145 74.938 81.2667 72.7398 81.2667H72.0482L72.1717 79.6892C72.3199 77.9864 72.0235 77.0098 71.3567 77.0098C71.0356 77.0098 71.0603 77.135 71.4802 77.6609C72.0235 78.362 72.1223 79.1132 71.8259 80.5155L71.6777 81.3418L69.0597 81.1916C65.923 81.0163 63.5519 80.3903 60.6127 78.9129C56.7351 76.9597 53.7465 74.3555 51.5236 71.0502C49.4243 67.8951 48.5351 65.2658 48.5351 62.1107C48.5351 59.5566 49.0044 57.7787 50.1652 56.0009C50.9803 54.7488 51.005 54.6737 50.3875 55.2246C49.3996 56.1511 48.461 57.9039 48.1646 59.4064L47.8929 60.7335L46.3616 59.0057L44.8303 57.2529L45.3737 56.3013C47.0779 53.3966 44.8797 49.0396 40.9279 47.412C39.5448 46.836 39.3472 46.836 30.5051 46.836C20.6503 46.836 20.7491 46.836 18.7485 45.3086C18.2792 44.933 15.9329 42.5541 13.5618 40.025L9.23953 35.4176L9.38773 34.3659C9.53592 33.4644 9.46182 33.214 8.91845 32.613C8.20219 31.8117 7.33774 31.7366 6.52268 32.4127C5.33715 33.3643 6.05341 35.693 7.53533 35.693C8.22689 35.693 10.2275 37.6462 15.76 43.731C17.2913 45.4087 18.625 46.6608 19.4648 47.1115L20.7491 47.8377L30.1346 47.9629L39.5201 48.0881L41.0514 48.8142C43.793 50.0913 45.3243 52.4451 44.9538 54.7488C44.5092 57.353 42.6321 58.1293 35.2472 58.7303C31.6412 59.0308 27.1955 58.7803 23.9105 58.0792C18.0817 56.8773 12.7467 53.9726 8.52327 49.7157C4.17631 45.3586 1.38536 39.8247 0.496209 33.7649C-0.121258 29.7083 0.0516329 26.3279 1.01488 23.2228L1.43476 21.9207H6.62148H11.8082L14.2534 19.4668C17.6618 16.0863 18.9461 14.4336 16.2787 16.8375C15.1672 17.8391 14.1052 18.8408 13.9323 19.0661C13.7347 19.3165 13.0431 19.9425 12.401 20.4684L11.1907 21.4199H6.52268C3.95402 21.4199 1.85464 21.3699 1.85464 21.3198C1.85464 21.2697 2.17572 20.5185 2.59559 19.6421C3.63294 17.3383 4.07751 15.3601 4.07751 12.8561V10.6776L6.99196 10.8028L9.8817 10.953L10.7709 9.47562C12.5739 6.57092 12.6973 5.96995 10.9684 8.52408C10.3757 9.4005 9.73351 10.2018 9.51122 10.2769C9.31363 10.3771 8.054 10.352 6.69557 10.2519L4.2751 10.0766L4.4233 8.92473C4.64558 7.27206 5.75702 5.01841 8.1034 1.56282C10.8696 -2.54382 11.2401 -3.21991 12.5986 -7.00103C13.2654 -8.80394 14.0311 -10.5317 14.3028 -10.8573C14.5991 -11.1828 16.0564 -12.2595 17.5383 -13.2612C20.3045 -15.1142 23.3919 -17.7184 24.3304 -18.9704C25.0714 -19.947 25.2937 -19.8218 25.022 -18.5948C24.6762 -17.0423 24.9479 -15.039 25.6641 -13.812C25.9852 -13.2361 27.9117 -11.1327 29.937 -9.12947C31.9376 -7.15127 33.2713 -5.97437 32.8761 -6.50021C32.4563 -7.05111 30.8509 -8.80394 29.2701 -10.3815C27.6647 -11.9841 26.1828 -13.7119 25.9111 -14.2628C25.0714 -16.0657 25.4666 -19.7967 26.825 -23.077C27.3436 -24.304 29.3442 -26.0068 31.6412 -27.1586C33.1231 -27.8848 37.9147 -29.7378 37.9147 -29.5625C37.9147 -29.5124 37.6677 -28.9365 37.3713 -28.2604C36.8773 -27.1586 36.8279 -26.6077 36.8279 -22.6513C36.8032 -19.4962 36.902 -17.9938 37.149 -17.2676C37.396 -16.5665 38.6062 -15.1392 41.4466 -12.2094C44.3116 -9.25467 45.4231 -7.92752 45.5713 -7.32655L45.7688 -6.50021L45.7935 -7.30151C45.8182 -8.27809 45.0032 -9.35484 40.9526 -13.6618C37.4454 -17.4179 37.4207 -17.4429 37.4207 -22.7515C37.4207 -26.8081 37.8159 -28.6861 39.0508 -30.3638C40.3598 -32.1667 41.496 -32.8428 44.8303 -33.7944C46.0899 -34.1449 47.8435 -34.7709 48.7327 -35.1966C49.6218 -35.5973 50.3628 -35.9228 50.4122 -35.9228C50.4369 -35.9228 50.3628 -35.5472 50.2393 -35.1215C49.8688 -33.7944 49.9923 -32.1417 50.5357 -31.0149C51.1285 -29.7378 52.9562 -28.4357 54.3887 -28.2854C55.179 -28.1853 55.2284 -28.1853 54.6604 -28.3856C51.252 -29.5375 49.8194 -32.317 51.005 -35.4721C52.1411 -38.552 54.611 -39.6037 61.7983 -40.0545L64.2928 -40.2047L64.3916 -36.3735C64.4657 -32.9931 64.5398 -32.4171 65.0338 -31.4906C65.8489 -29.9131 67.7754 -28.5859 69.6525 -28.3105L70.6404 -28.1602L69.6525 -28.4858C67.5037 -29.2119 66.3181 -30.1885 65.429 -31.9163C65.0585 -32.6425 64.9844 -33.4187 64.9844 -36.3735L64.9597 -39.9543L65.9477 -40.8057C67.8248 -42.4584 68.8621 -42.8089 71.6283 -42.7839C75.6048 -42.7589 77.9759 -41.5319 79.3096 -38.7524L80.0012 -37.3501L80.1494 -23.7531C80.2482 -16.266 80.3717 -10.056 80.4705 -9.98084C80.5693 -9.88068 80.6434 -16.0406 80.6434 -23.703V-37.6005L79.8777 -39.153C79.4084 -40.0795 78.7663 -40.9559 78.2229 -41.3566C77.7042 -41.7322 77.2596 -42.0828 77.1855 -42.1328C76.9386 -42.3081 77.803 -42.6337 79.359 -42.9091C80.5446 -43.1345 83.6813 -43.2096 90.1523 -43.1345L99.2908 -43.0593L100.526 -42.3832C101.217 -42.0327 101.983 -41.5569 102.255 -41.3315C102.749 -40.981 102.724 -40.9559 101.934 -40.1046C100.353 -38.4519 100.155 -37.3751 100.18 -31.09C100.205 -27.4591 100.279 -25.8816 100.427 -26.5326C100.526 -27.0835 100.625 -29.4373 100.625 -31.741C100.649 -34.0698 100.773 -36.4486 100.921 -37.0246C101.291 -38.5771 102.403 -39.779 104.255 -40.7055L105.836 -41.5068L108.874 -41.3566C110.899 -41.2564 112.702 -41.006 114.357 -40.5803C115.715 -40.2047 118.383 -39.754 120.285 -39.5537C124.261 -39.128 126.138 -38.5771 129.003 -37.0496C131.177 -35.8727 134.289 -33.8194 134.758 -33.2685C134.98 -32.9931 134.808 -32.968 133.77 -33.0932C132.066 -33.2935 129.72 -32.7927 127.941 -31.8412C125.792 -30.6893 123.965 -28.6861 121.989 -25.4308C119.815 -21.8 118.556 -20.3727 116.654 -19.4211C114.974 -18.5447 114.011 -18.4696 112.011 -19.0205C110.306 -19.4712 110.158 -19.346 111.69 -18.745C115.543 -17.2426 119.124 -19.2709 122.409 -24.7798C125.891 -30.6643 130.041 -32.9179 135.623 -31.9414C141.526 -30.9147 149.725 -26.7079 153.554 -22.8016C155.53 -20.7983 157.555 -17.4179 157.53 -16.241C157.481 -14.3129 154.418 -10.9324 151.603 -9.73044C150.738 -9.35484 150.071 -9.00426 150.145 -8.95419C150.343 -8.72882 153.677 -10.1812 154.888 -11.0075C156.221 -11.934 157.53 -13.6868 158.074 -15.2894L158.37 -16.1408L158.963 -15.2143C159.284 -14.7135 160.346 -13.762 161.284 -13.1109C163.409 -11.6335 165.335 -9.5802 166.076 -8.00265C166.965 -6.07453 168.274 -1.89277 168.595 0.0353546C168.793 1.3625 168.818 2.13876 168.595 3.11533C168.274 4.69289 168.249 4.96833 168.546 4.79305C168.793 4.61776 169.312 2.7898 169.386 1.76315C169.41 1.33746 169.534 1.01193 169.633 1.01193C169.978 1.01193 172.794 5.21873 173.634 6.99661C174.721 9.30033 174.943 10.352 175.264 14.9595C175.634 20.1929 175.486 23.4482 174.745 24.9757C173.856 26.9038 171.806 28.4313 170.127 28.4313C169.608 28.4313 169.534 28.5064 169.806 28.6566C170.596 29.1825 172.893 28.256 174.202 26.9038C175.338 25.7269 175.931 24.3246 176.178 22.1712L176.375 20.2931L176.82 21.2947C177.067 21.8456 177.586 23.298 178.005 24.55C178.722 26.6534 178.771 27.0791 178.821 31.1607L178.895 35.5177L177.635 34.2907C175.684 32.4127 174.597 31.4862 174.992 32.0621C175.19 32.3376 176.227 33.4143 177.339 34.466L179.314 36.3691V40.1001C179.314 44.4572 178.969 46.1099 177.339 49.6406C175.708 53.1713 173.807 55.7254 170.966 58.2044C169.015 59.9072 168.373 60.1576 165.286 60.6083C161.531 61.1091 152.516 61.3846 151.751 60.9839C151.035 60.6083 149.059 58.7052 149.059 58.4047C149.059 58.2795 149.577 57.5283 150.195 56.702L151.356 55.2246L153.974 55.1996C155.406 55.1745 158.642 55.0744 161.161 54.9992L165.73 54.8239L158.568 54.7739C154.641 54.7488 151.282 54.8239 151.158 54.9241C151.01 55.0243 150.244 55.8506 149.454 56.8021L148.021 58.4799H139.723H131.448L129.324 56.3514L127.2 54.248L127.052 51.168L126.929 48.0881L126.879 51.3183L126.83 54.5485L129.003 56.8021L131.202 59.0558L136.24 59.1309C139.006 59.156 142.958 59.206 145.008 59.206L148.738 59.2311L150.17 60.5081L151.627 61.8102L157.456 61.66C164.421 61.5098 167.533 61.059 169.509 59.9823C170.25 59.5816 170.917 59.2812 170.966 59.3312C171.337 59.6818 171.781 63.8135 171.732 66.1423L171.658 68.8717L157.086 68.7965C149.083 68.7715 140.167 68.8216 137.302 68.9217L132.091 69.1221L130.139 70.1237C126.262 72.1269 123.1 75.9581 121.668 80.3903L120.902 82.8192L120.952 94.1375C120.976 103.027 121.026 104.504 121.174 101.049C121.248 98.6448 121.347 93.6868 121.371 90.0559C121.396 82.7191 121.544 81.6924 123.026 78.6375C124.632 75.3321 127.793 72.0268 130.782 70.5494C132.115 69.8983 132.288 69.8733 138.068 69.723C141.328 69.6229 150.195 69.5478 157.802 69.5227L171.609 69.4977L171.436 70.8749C171.238 72.6277 170.225 75.858 169.163 78.2368C165.384 86.5753 157.629 92.3096 147.947 93.9122C143.6 94.6383 138.907 94.1375 134.412 92.4848C133.079 91.984 132.98 91.9089 133.128 91.3079C133.4 90.131 134.832 88.0026 136.166 86.7756C138.191 84.8725 139.154 84.6221 145.477 84.3216L150.911 84.0963L145.107 84.1213C139.303 84.1464 139.303 84.1464 137.944 84.8225C136.117 85.7239 134.141 87.7772 133.177 89.7805L132.387 91.3831L132.313 97.2926C132.288 100.523 132.362 104.179 132.461 105.431C132.659 107.234 132.708 106.207 132.733 100.097C132.758 94.1125 132.832 92.5099 133.079 92.6351C134.165 93.0858 138.339 94.3128 139.673 94.5632C143.674 95.2894 149.775 94.6884 154.122 93.1109C164.224 89.4549 171.238 80.2651 172.522 69.0219C172.843 66.1923 172.572 62.0607 171.905 59.807L171.534 58.6051L172.992 57.1026C176.005 53.9475 177.586 51.3433 178.969 47.2116C179.759 44.933 179.784 44.6575 179.784 40.9515C179.808 36.3691 179.314 27.1792 178.993 25.9272C178.87 25.4515 178.203 23.4232 177.487 21.445C176.326 18.1146 176.202 17.5887 175.98 14.5588C175.733 10.928 175.387 9.4005 174.301 7.04669C173.535 5.36898 171.534 2.23891 170.127 0.461044C169.559 -0.265137 168.99 -1.5422 168.324 -3.62056C166.619 -8.97923 165.162 -11.0826 161.507 -13.6117C160.198 -14.5132 159.63 -15.0891 159.012 -16.241C157.901 -18.2442 154.986 -22.1505 153.554 -23.5278C150.417 -26.6077 143.279 -30.5141 137.771 -32.1667C137.203 -32.342 135.944 -33.0932 135.005 -33.8444C132.955 -35.422 129.621 -37.4503 127.398 -38.4769C125.373 -39.4034 123.372 -39.8542 120.161 -40.0545C118.58 -40.1546 116.333 -40.5553 114.308 -41.0561C109.936 -42.1829 107.614 -42.3832 105.243 -41.8073L103.416 -41.3816L102.279 -42.1579C100.18 -43.6353 100.007 -43.6353 89.856 -43.7605C84.7186 -43.8105 80.2482 -43.8105 79.9024 -43.7605Z" stroke="#0066FF" stroke-width="0.6" mask="url(#path-1-outside-1_154_1710)"/>
<path d="M103.541 1.64489C103.526 1.63313 103.509 1.61815 103.489 1.60051C102.101 0.394076 98.2818 -3.29623 94.7794 -6.75636C93.027 -8.4876 91.3523 -10.1628 90.0984 -11.443C89.4716 -12.083 88.9494 -12.6249 88.575 -13.026C88.388 -13.2264 88.2369 -13.3927 88.1279 -13.5188C88.0735 -13.5818 88.0286 -13.636 87.9945 -13.6801C87.9638 -13.7198 87.9334 -13.7621 87.9166 -13.7985C87.8805 -13.876 87.8526 -14.0019 87.8282 -14.1513C87.8029 -14.3064 87.7788 -14.5048 87.7558 -14.7393C87.7099 -15.2087 87.668 -15.8299 87.6307 -16.5538C87.5561 -18.0022 87.4997 -19.868 87.4673 -21.7659C87.4349 -23.6638 87.4263 -25.595 87.4476 -27.1745C87.4688 -28.7477 87.5195 -29.9869 87.6085 -30.4899L87.6087 -30.4909C87.9632 -32.4165 88.8806 -33.7217 91.0175 -35.5356C91.5001 -35.9495 91.9519 -36.3261 92.2898 -36.5994C92.4585 -36.736 92.5996 -36.8475 92.7022 -36.9252C92.7533 -36.9639 92.7963 -36.9953 92.829 -37.0176C92.8451 -37.0285 92.861 -37.0388 92.8753 -37.0469C92.8823 -37.0508 92.8916 -37.0558 92.902 -37.0602L92.9025 -37.0605C92.9086 -37.0631 92.9345 -37.0742 92.9676 -37.0742C92.9862 -37.0742 93.0152 -37.0709 93.0453 -37.0535C93.0781 -37.0346 93.1004 -37.0059 93.1122 -36.9752C93.1312 -36.9252 93.1184 -36.8818 93.1154 -36.8718L93.1154 -36.8716C93.1069 -36.843 93.0914 -36.8177 93.0827 -36.804C93.0612 -36.7703 93.0278 -36.7263 92.9873 -36.6764C92.9047 -36.5745 92.7783 -36.4296 92.6187 -36.2537C92.2992 -35.9015 91.8413 -35.4184 91.3221 -34.892C90.8183 -34.3563 90.3145 -33.7832 89.9093 -33.2946C89.5024 -32.8039 89.2041 -32.4093 89.0993 -32.222C88.8193 -31.6517 88.6346 -30.605 88.5482 -28.7727C88.462 -26.9444 88.4742 -24.3574 88.573 -20.7271L88.573 -20.7268L88.7444 -14.075L96.7795 -5.87882L96.7798 -5.87855C98.9906 -3.6121 100.874 -1.65846 102.128 -0.34011C102.755 0.31884 103.225 0.819881 103.501 1.12206C103.636 1.27092 103.73 1.37707 103.769 1.42952L103.77 1.43017C103.777 1.43957 103.794 1.46184 103.804 1.48612C103.806 1.49265 103.814 1.5117 103.816 1.53714C103.817 1.56192 103.814 1.631 103.747 1.67411C103.693 1.70902 103.64 1.69669 103.629 1.69417C103.612 1.68999 103.598 1.68354 103.592 1.68055C103.571 1.66979 103.551 1.65371 103.541 1.64489Z" fill="#0066FF" stroke="#0066FF" stroke-width="0.3"/>
<path d="M133.471 -21.6061L133.471 -21.6058C133.292 -21.3266 133.17 -21.1197 133.17 -20.8987C133.17 -20.6776 133.292 -20.4707 133.471 -20.1915M133.471 -21.6061L133.597 -20.2726M133.471 -21.6061C133.991 -22.4097 135.016 -22.5267 135.679 -21.8567C135.989 -21.5553 136.136 -21.2051 136.093 -20.8164C136.051 -20.4365 135.83 -20.0447 135.462 -19.6454C135.462 -19.6453 135.461 -19.6452 135.461 -19.6451L134.884 -19.0125L133.471 -21.6061ZM133.471 -20.1915L133.597 -20.2726M133.471 -20.1915C133.471 -20.1918 133.471 -20.192 133.471 -20.1923L133.597 -20.2726M133.471 -20.1915C133.588 -20.007 133.725 -19.8413 133.852 -19.72C133.915 -19.6594 133.978 -19.6072 134.037 -19.569C134.063 -19.5523 134.094 -19.5345 134.128 -19.5208M133.597 -20.2726C133.82 -19.9221 134.116 -19.6466 134.24 -19.6466C134.388 -19.6466 134.487 -14.7637 134.536 -7.20151M134.128 -19.5208C134.125 -19.5346 134.123 -19.5461 134.121 -19.5555C134.119 -19.5647 134.117 -19.569 134.117 -19.57C134.117 -19.5707 134.117 -19.5698 134.118 -19.5676C134.119 -19.5654 134.125 -19.5529 134.139 -19.5389C134.152 -19.5248 134.186 -19.4966 134.24 -19.4966C134.201 -19.4966 134.163 -19.5065 134.128 -19.5208ZM134.128 -19.5208C134.133 -19.4922 134.138 -19.454 134.144 -19.405C134.16 -19.2614 134.176 -19.0448 134.192 -18.7575C134.222 -18.1839 134.25 -17.3391 134.275 -16.2565C134.324 -14.0917 134.361 -10.9814 134.386 -7.2006L134.536 -7.20151M134.536 -7.20151L134.386 -7.20053M134.536 -7.20151L134.386 -7.20053M134.386 -7.20053L134.387 -7.0991C134.423 -1.03325 134.442 2.06968 134.519 3.77611C134.558 4.63344 134.611 5.14756 134.692 5.5112C134.774 5.88116 134.883 6.09284 135.022 6.34184M134.386 -7.20053L135.022 6.34184M135.022 6.34184C135.021 6.34139 135.021 6.34094 135.021 6.34049L135.153 6.27028L135.022 6.34321C135.022 6.34275 135.022 6.3423 135.022 6.34184ZM149.358 22.2102L149.354 22.1567L149.503 22.146L149.395 22.2492L149.358 22.2102ZM149.069 31.0026C149.069 31.0022 149.069 31.0019 149.069 31.0016L149.207 31.0604L149.068 31.0033C149.068 31.0031 149.068 31.0028 149.069 31.0026ZM143.909 35.6453C143.909 35.6452 143.909 35.6452 143.909 35.6451L143.996 35.768L143.909 35.6456C143.909 35.6455 143.909 35.6454 143.909 35.6453ZM138.933 42.3517C138.933 42.3516 138.933 42.3515 138.933 42.3514L139.081 42.3787L138.933 42.3519C138.933 42.3518 138.933 42.3518 138.933 42.3517ZM139.082 45.5104C139.082 45.5109 139.082 45.5114 139.082 45.5119L138.932 45.5087H139.082C139.082 45.5093 139.082 45.5098 139.082 45.5104ZM140.524 39.566C140.524 39.5662 140.524 39.5664 140.523 39.5667L140.39 39.499L140.524 39.5654C140.524 39.5656 140.524 39.5658 140.524 39.566ZM137.623 50.2163L137.623 50.2163L137.623 50.2163Z" fill="#0066FF" stroke="#0066FF" stroke-width="0.3"/>
<path d="M57.225 -15.3238L57.2257 -15.3244C57.4137 -15.4977 57.5918 -15.6625 57.7609 -15.8189C58.4508 -16.457 58.9911 -16.9567 59.4427 -17.3406C60.0046 -17.8183 60.4416 -18.1278 60.8734 -18.3046C61.3106 -18.4835 61.7317 -18.5223 62.2541 -18.48C62.6826 -18.4452 63.1884 -18.3548 63.8324 -18.2396C63.9638 -18.2162 64.1009 -18.1916 64.2443 -18.1664L64.2445 -18.1663L66.2204 -17.8158L66.1841 -17.5184L64.3317 -17.6436L64.3307 -17.6437C63.316 -17.7189 62.2487 -17.8446 61.9457 -17.8958L61.9457 -17.8954L61.9355 -17.8979C61.8594 -17.9162 61.7335 -17.9037 61.5054 -17.7834C61.28 -17.6646 60.9782 -17.4531 60.562 -17.1136C59.7307 -16.4356 58.4691 -15.2692 56.4925 -13.3779L56.4921 -13.3775L54.6123 -11.5939V-3.54523V4.39171C54.6217 4.43264 54.6315 4.47261 54.6415 4.51169C54.6441 4.52165 54.6467 4.53154 54.6493 4.54139L57.0374 6.88987L57.0375 6.88996C57.6927 7.53549 58.1854 8.03969 58.5153 8.3962C58.68 8.57419 58.8057 8.71707 58.8911 8.82319C58.9336 8.87596 58.9682 8.9222 58.9931 8.96061C59.0054 8.9797 59.0172 8.99962 59.0264 9.01932C59.0338 9.03516 59.0476 9.06694 59.0487 9.10513C59.0494 9.1261 59.0465 9.1591 59.0269 9.19288C59.0054 9.22983 58.9724 9.25301 58.9391 9.26408C58.8855 9.28188 58.8378 9.26676 58.8233 9.26208C58.7831 9.2491 58.7388 9.22325 58.6977 9.19678C58.6099 9.14015 58.4834 9.04458 58.3208 8.91272C57.9938 8.64758 57.5052 8.22288 56.8562 7.63387C56.6151 7.41616 56.3943 7.2229 56.1921 7.04595C55.2142 6.19022 54.6718 5.71552 54.3815 4.69877L54.3571 4.67484L54.3123 4.63076V4.56789V4.42523C54.1723 3.79786 54.104 2.97439 54.0596 1.78852C54.0268 0.909895 54.007 -0.174574 53.9821 -1.53389C53.9705 -2.17345 53.9577 -2.87386 53.9419 -3.6423C53.9419 -3.6423 53.9419 -3.64231 53.9419 -3.64231L53.769 -12.0309L53.7676 -12.0979L53.8166 -12.1436L57.225 -15.3238Z" fill="#0066FF" stroke="#0066FF" stroke-width="0.3"/>
<path d="M123.583 -8.67564L123.582 -8.67684C122.804 -9.51803 122.763 -10.7832 123.581 -11.3552C123.965 -11.6282 124.332 -11.7729 124.693 -11.7549C125.058 -11.7368 125.387 -11.5551 125.7 -11.2378C126.054 -10.8791 126.234 -10.4892 126.21 -10.0749C126.185 -9.66498 125.961 -9.26328 125.577 -8.87367L125.002 -8.29099L124.929 1.33882L124.854 11.0295L124.854 11.0568L124.844 11.0822L124.054 13.1347C124.054 13.1348 124.054 13.135 124.054 13.1352C122.845 16.3379 122.243 17.4936 121.329 18.4205L120.489 19.2718L120.445 19.3165H120.382H115.64H110.898H110.825L110.78 19.2589L109.644 17.8068C109.644 17.8068 109.644 17.8067 109.644 17.8067C108.58 16.4528 107.265 14.5667 106.814 13.7287L106.814 13.7287L106.813 13.7261C106.772 13.6468 106.741 13.5808 106.724 13.5317C106.716 13.5097 106.706 13.4777 106.704 13.4449C106.703 13.4298 106.702 13.3946 106.721 13.3573C106.746 13.3082 106.794 13.2759 106.849 13.2714C106.891 13.2679 106.923 13.2816 106.937 13.288C106.953 13.2958 106.967 13.3052 106.978 13.3128C106.999 13.3282 107.02 13.3478 107.041 13.3683C107.083 13.4101 107.136 13.47 107.2 13.5454C107.454 13.8472 107.907 14.446 108.549 15.3218L108.549 15.3218L108.55 15.3234C109.191 16.2223 110.074 17.3167 110.486 17.734L110.486 17.7339L110.491 17.7392L111.187 18.5157H115.368C116.54 18.5157 117.673 18.4907 118.556 18.447C118.998 18.4252 119.376 18.3987 119.663 18.3686C119.807 18.3535 119.927 18.3377 120.02 18.3214C120.116 18.3045 120.173 18.2889 120.199 18.2777L120.199 18.2776L120.205 18.2752C120.61 18.1198 121.07 17.6352 121.565 16.7842C122.055 15.9414 122.564 14.7683 123.081 13.2828L123.962 10.752L124.036 1.31146L124.109 -8.11853L123.583 -8.67564Z" fill="#0066FF" stroke="#0066FF" stroke-width="0.3"/>
<path d="M143.277 -4.47322L143.277 -4.47337L143.326 -10.2577L143.626 -10.2601L143.775 -4.25042L143.775 -4.24998C143.836 -1.40469 143.873 0.1092 143.965 1.05676C144.056 1.99212 144.199 2.36276 144.475 2.92362L144.476 2.92526C144.861 3.73016 145.497 4.59921 146.88 6.05751C148.262 7.51559 150.383 9.55347 153.73 12.6965C157.126 15.8762 159.228 17.8816 160.527 19.2115C161.82 20.5351 162.337 21.2071 162.535 21.7159L162.535 21.7159L162.537 21.7189C162.792 22.4176 162.934 23.482 162.962 24.5962C162.99 25.7127 162.904 26.8964 162.69 27.8382L162.69 27.8387C162.478 28.7619 161.951 30.3904 161.456 31.7623C161.209 32.449 160.968 33.0749 160.778 33.5193C160.684 33.7406 160.6 33.9211 160.533 34.0422C160.5 34.1009 160.467 34.1547 160.434 34.1924C160.419 34.2093 160.392 34.2373 160.354 34.2545C160.333 34.264 160.301 34.2735 160.263 34.269C160.222 34.2641 160.189 34.245 160.165 34.2206C160.134 34.1898 160.125 34.155 160.122 34.142C160.118 34.1253 160.117 34.1099 160.116 34.099C160.116 34.0769 160.117 34.053 160.12 34.0307C160.124 33.985 160.135 33.9254 160.148 33.8557C160.176 33.7154 160.222 33.5208 160.28 33.2868C160.398 32.8182 160.572 32.1842 160.77 31.4948L160.77 31.4948L160.77 31.4921C161.953 27.6461 162.167 25.6212 161.681 23.2782L161.681 23.2775L161.295 21.371L158.168 18.4239L158.168 18.4237C155.733 16.1183 152.737 13.1433 150.208 10.5505C147.683 7.96271 145.611 5.74414 145.035 4.95692C144.18 3.80084 143.718 3.08948 143.486 1.83085C143.258 0.589497 143.252 -1.18702 143.277 -4.47322ZM160.206 33.9971C160.206 33.9971 160.206 33.9967 160.207 33.9957C160.206 33.9966 160.206 33.9971 160.206 33.9971Z" fill="#0066FF" stroke="#0066FF" stroke-width="0.3"/>
<path d="M63.8604 -4.97217L63.8613 -4.97318C64.168 -5.31232 64.6563 -5.48479 65.1375 -5.50139C65.619 -5.51799 66.1244 -5.3798 66.4698 -5.05822C66.8466 -4.71795 67.0014 -4.17317 66.972 -3.63739C66.9425 -3.0992 66.7265 -2.54093 66.3233 -2.15942L66.3233 -2.15937L66.32 -2.15644C66.1638 -2.01707 66.0679 -1.92826 65.9945 -1.79194C65.9204 -1.65427 65.8637 -1.45608 65.8228 -1.09343C65.7405 -0.364677 65.7281 0.957665 65.7033 3.61754L65.6545 8.86505L66.4512 9.69658C66.9128 10.1644 67.8174 10.9081 68.4511 11.3283C68.99 11.676 69.318 11.8583 69.8228 11.9743C70.3381 12.0928 71.0397 12.1427 72.3278 12.2054C72.3279 12.2054 72.328 12.2054 72.3281 12.2055L75.0286 12.3277L75.723 11.6472L75.723 11.6472L75.7244 11.6458C76.1393 11.2499 76.901 10.428 77.4167 9.80561L77.4167 9.80559L77.4184 9.80351C77.6281 9.55974 77.7897 9.37225 77.9074 9.24063C77.9662 9.1749 78.0154 9.12157 78.055 9.08152C78.0905 9.04559 78.1295 9.00833 78.1652 8.98699C78.1752 8.98099 78.1916 8.97207 78.2125 8.96619C78.2316 8.9608 78.2736 8.95256 78.3204 8.97296C78.3739 8.99622 78.399 9.04089 78.4085 9.07358C78.4169 9.10235 78.4155 9.12738 78.4142 9.14016C78.4116 9.16683 78.4036 9.19217 78.3974 9.20983C78.3904 9.22984 78.3813 9.25194 78.371 9.27522C78.3307 9.36662 78.2569 9.50936 78.1589 9.6957L78.1589 9.69571L78.1577 9.69795C77.9026 10.1635 77.2275 11.0493 76.6546 11.6556L75.668 12.7559L75.6233 12.8058H75.5563H72.6912C71.4105 12.8058 70.6566 12.7936 70.0898 12.7037C69.5131 12.6123 69.1312 12.4406 68.5931 12.1362C67.8789 11.7549 67.0992 11.2107 66.4451 10.6644C65.7967 10.1228 65.2529 9.56375 65.0275 9.1487C64.9557 9.02562 64.9072 8.81858 64.8691 8.54814C64.8297 8.26789 64.7985 7.89508 64.7737 7.42392C64.7241 6.48114 64.6994 5.13217 64.6871 3.31668V3.31566C64.6871 1.71415 64.6624 0.421007 64.6193 -0.470741C64.5978 -0.917219 64.5717 -1.25996 64.5424 -1.48953C64.5282 -1.60056 64.5139 -1.67966 64.5005 -1.72971C64.4491 -1.74326 64.4012 -1.767 64.3586 -1.79416C64.2907 -1.83739 64.2245 -1.89654 64.1619 -1.96394C64.0364 -2.09886 63.9115 -2.28127 63.8012 -2.48058C63.5832 -2.8746 63.4027 -3.37059 63.4027 -3.74576C63.4027 -3.945 63.4579 -4.18262 63.5388 -4.39923C63.6196 -4.61549 63.7326 -4.82814 63.8604 -4.97217Z" fill="#0066FF" stroke="#0066FF" stroke-width="0.3"/>
<path d="M17.1843 0.340772C16.8448 -0.00344324 16.7429 -0.532552 16.8156 -1.00795C16.888 -1.48184 17.1414 -1.94869 17.5709 -2.15291C18.1044 -2.42268 18.6581 -2.40763 19.0831 -2.16038C19.5098 -1.91214 19.7875 -1.44091 19.7875 -0.841303C19.7875 -0.130481 19.388 0.416548 18.8605 0.659633C18.3315 0.903405 17.6762 0.839443 17.1843 0.340772Z" fill="#0066FF" stroke="#0066FF" stroke-width="0.3"/>
<path d="M111.788 -1.65232L111.789 -1.65311C112.395 -2.51848 113.686 -2.4872 114.261 -1.54851C114.454 -1.26588 114.58 -1.05614 114.584 -0.802499C114.588 -0.558216 114.477 -0.293736 114.296 0.0984535L114.295 0.0989981C114.18 0.34529 114.045 0.568311 113.916 0.73223C113.852 0.813832 113.787 0.884768 113.723 0.936829C113.684 0.968846 113.633 1.00403 113.576 1.02296C113.565 1.05817 113.552 1.1131 113.54 1.19115C113.511 1.36822 113.485 1.63607 113.463 1.99147C113.42 2.70074 113.396 3.74275 113.396 5.06864C113.396 7.39716 113.322 10.0584 113.222 11.0434L113.222 11.0437C113.22 11.0599 113.219 11.076 113.217 11.092C113.176 11.4869 113.145 11.7889 113.119 12.0053C113.105 12.1177 113.093 12.2092 113.081 12.2796C113.07 12.3448 113.056 12.4072 113.037 12.4509C113.031 12.463 113.023 12.4795 113.011 12.4958C112.999 12.511 112.975 12.5372 112.935 12.5517C112.889 12.5687 112.843 12.5625 112.806 12.5434C112.775 12.5273 112.756 12.5047 112.746 12.4916C112.727 12.4655 112.715 12.4358 112.708 12.4154C112.699 12.3921 112.692 12.3653 112.684 12.3368C112.656 12.2254 112.622 12.0429 112.58 11.8092C112.546 11.6577 112.518 11.3801 112.494 11.0187C112.47 10.6509 112.449 10.1857 112.432 9.65586C112.398 8.59605 112.379 7.27368 112.379 5.94548C112.367 3.71419 112.348 2.49538 112.278 1.76194C112.243 1.39633 112.196 1.1603 112.134 0.98379C112.074 0.810687 111.997 0.688682 111.892 0.55285L111.891 0.552227C111.588 0.15546 111.412 -0.193582 111.395 -0.555023C111.377 -0.918744 111.521 -1.26487 111.788 -1.65232Z" fill="#0066FF" stroke="#0066FF" stroke-width="0.3"/>
<path d="M167.926 11.0983C167.926 11.0984 167.926 11.0975 167.926 11.0957C167.926 11.0973 167.926 11.0983 167.926 11.0983ZM167.466 10.3286L167.466 10.3271C167.055 9.16666 166.825 8.59768 166.387 8.18593C165.945 7.77014 165.281 7.50454 163.95 7.01239C162.577 6.51096 161.704 6.06816 161.12 5.37496C160.536 4.68118 160.26 3.75652 160.025 2.33924C159.94 1.84552 159.825 1.40411 159.696 1.05462C159.565 0.699149 159.426 0.458471 159.305 0.345932C159 0.0629969 158.827 -0.266332 158.813 -0.609232C158.798 -0.953108 158.944 -1.28598 159.226 -1.57223C159.479 -1.82822 159.721 -1.99345 159.999 -1.98936C160.272 -1.98534 160.531 -1.81774 160.818 -1.55194L160.716 -1.44186L160.818 -1.55216C161.112 -1.28101 161.278 -0.957848 161.292 -0.631556C161.307 -0.302704 161.167 0.0094223 160.888 0.249327L160.887 0.250273C160.706 0.403193 160.6 0.614399 160.585 1.01747C160.571 1.42931 160.653 2.02042 160.838 2.90887C161.031 3.7855 161.401 4.49728 161.98 5.0786C162.561 5.66156 163.36 6.12092 164.42 6.47907C164.867 6.63027 165.34 6.80673 165.735 6.97093C166.123 7.13175 166.454 7.28783 166.608 7.40057C166.694 7.46051 166.779 7.55271 166.862 7.65982C166.947 7.76953 167.034 7.90298 167.122 8.05175C167.298 8.34937 167.478 8.71611 167.64 9.09424C167.803 9.47255 167.948 9.86526 168.053 10.2155C168.158 10.5616 168.227 10.8798 168.227 11.1034V11.1116L168.226 11.1198C168.222 11.1512 168.214 11.2094 168.175 11.2559C168.151 11.2846 168.114 11.3114 168.064 11.3177C168.017 11.3234 167.979 11.3089 167.956 11.2962C167.913 11.2729 167.882 11.2354 167.862 11.2091C167.84 11.1787 167.817 11.1418 167.794 11.1011C167.705 10.94 167.59 10.6677 167.466 10.3286Z" fill="#0066FF" stroke="#0066FF" stroke-width="0.3"/>
<path d="M32.4402 0.415791L32.4402 0.415777L32.442 0.414457C33.4514 -0.312639 34.5098 0.0040586 35.0706 0.708822C35.3496 1.05934 35.5079 1.50817 35.4753 1.97279C35.4426 2.43961 35.2179 2.91085 34.7517 3.30409C34.1388 3.84358 33.4054 3.89774 32.8237 3.58901C32.2449 3.2818 31.8363 2.62667 31.8363 1.78819C31.8363 1.46213 31.8812 1.19528 31.9821 0.96951C32.084 0.741681 32.2382 0.565968 32.4402 0.415791Z" fill="#0066FF" stroke="#0066FF" stroke-width="0.3"/>
<path d="M42.2281 0.758005L42.2282 0.758074C41.8147 1.18995 41.5742 1.56569 41.5814 2.01294C41.5884 2.44818 41.831 2.91359 42.2623 3.52596C42.3611 3.67337 42.4351 3.8103 42.4932 3.99598C42.5524 4.18491 42.5966 4.42963 42.6286 4.79375C42.6927 5.52434 42.7052 6.70601 42.7052 8.82425C42.7052 8.82439 42.7052 8.82454 42.7052 8.82468L42.6808 13.4728L40.9675 15.3077L42.2281 0.758005ZM42.2281 0.758005L42.232 0.754221M42.2281 0.758005L42.232 0.754221M42.232 0.754221C42.5291 0.465563 42.7669 0.268015 42.9923 0.162529C43.2295 0.0515327 43.4468 0.0450363 43.6884 0.117073L43.6902 0.117636C44.5357 0.381384 45.0696 0.956738 45.2124 1.62551C45.3553 2.29448 45.0997 3.02398 44.4347 3.57991L43.7461 4.18494V8.79964V13.5072V13.5686L43.7032 13.6123L38.64 18.7707L38.6397 18.7709M42.232 0.754221L38.6397 18.7709M38.6397 18.7709C36.5892 20.8498 35.3268 22.1673 34.5772 23.0332C34.2021 23.4665 33.9597 23.7818 33.8116 24.0198C33.662 24.2602 33.6197 24.4046 33.6197 24.5C33.6197 24.9469 33.4015 25.4004 33.1001 25.7391C32.8008 26.0755 32.3929 26.3277 31.9878 26.3277C31.6208 26.3277 31.2142 26.0824 30.9102 25.784C30.7548 25.6314 30.618 25.4572 30.5193 25.2783C30.4213 25.1009 30.3559 24.9097 30.3559 24.7254C30.3559 24.0727 30.7528 23.5325 31.2731 23.245C31.7876 22.9608 32.4442 22.9122 32.9896 23.2605M38.6397 18.7709L32.9896 23.2605M32.9896 23.2605C33.0035 23.2577 33.0276 23.2501 33.0641 23.2323C33.1464 23.1923 33.2637 23.1151 33.423 22.99C33.7398 22.7411 34.1972 22.3234 34.8311 21.7011C36.0974 20.4579 38.0527 18.4131 40.9672 15.308L32.9896 23.2605Z" fill="#0066FF" stroke="#0066FF" stroke-width="0.3"/>
<path d="M109.364 26.632C109.367 26.6333 109.367 26.6328 109.363 26.6317L109.364 26.632ZM109.197 26.8144C109.196 26.8142 109.196 26.8138 109.196 26.8133C109.197 26.8165 109.198 26.8171 109.197 26.8144ZM98.5242 17.3247L98.5238 17.3243C98.1322 16.9703 97.7745 16.6502 97.4481 16.3581C96.779 15.7594 96.2413 15.2783 95.8118 14.8626C95.1716 14.2431 94.7565 13.755 94.4947 13.2192C94.2317 12.6812 94.1296 12.1079 94.0914 11.3293C94.0649 10.7915 94.0688 10.1462 94.0736 9.33871C94.0758 8.98326 94.0781 8.59639 94.0781 8.17345C94.0781 5.99091 94.0717 4.82324 94.0077 4.14986C93.9758 3.81367 93.9305 3.61487 93.8717 3.47942C93.8157 3.35044 93.744 3.27093 93.637 3.17949C93.3138 2.90637 93.1301 2.55695 93.1089 2.19442C93.0877 1.83251 93.2295 1.47347 93.5267 1.18372C93.643 1.05286 93.8085 0.943371 93.9733 0.866537C94.1389 0.789295 94.3218 0.736668 94.4751 0.736668C94.7998 0.736668 95.1435 0.926392 95.3988 1.16527C95.6523 1.4025 95.86 1.72745 95.86 2.03853C95.86 2.3614 95.7307 2.72614 95.5606 3.00809C95.4748 3.15017 95.3745 3.27831 95.2674 3.37287C95.1756 3.45398 95.064 3.52316 94.9423 3.53784C94.9322 3.56077 94.9194 3.59996 94.9063 3.6622C94.8738 3.81659 94.8487 4.06686 94.8318 4.43983C94.798 5.18283 94.7979 6.38049 94.8226 8.19645L94.8957 12.9636L95.5132 13.5201C95.5133 13.5202 95.5135 13.5204 95.5136 13.5205C98.7877 16.4265 102.87 20.2087 105.767 22.9702C107.215 24.3505 108.369 25.4779 108.977 26.1138C109.129 26.2726 109.249 26.4026 109.331 26.4989C109.372 26.5467 109.406 26.5888 109.43 26.6234C109.442 26.6405 109.454 26.6589 109.463 26.6773L109.463 26.6775C109.47 26.6892 109.489 26.7262 109.487 26.7722C109.487 26.8006 109.478 26.8449 109.44 26.8815C109.404 26.917 109.361 26.9249 109.336 26.9262C109.294 26.9283 109.258 26.9132 109.245 26.9075C109.21 26.8922 109.167 26.8659 109.122 26.8355C109.029 26.7722 108.891 26.6675 108.707 26.52L108.706 26.5194C107.961 25.9151 106.08 24.2342 104.5 22.7824L104.499 22.7816C102.944 21.33 100.253 18.8768 98.5242 17.3247Z" fill="#0066FF" stroke="#0066FF" stroke-width="0.3"/>
<path d="M129.767 9.70826C129.842 11.2696 129.955 12.1972 130.798 13.4858C131.629 14.7561 133.173 16.3834 136.083 19.3708M129.767 9.70826L136.083 19.371C136.083 19.3709 136.083 19.3708 136.083 19.3708M129.767 9.70826C129.767 9.70817 129.767 9.70809 129.767 9.708L129.669 7.78041L129.967 7.75463L130.189 9.58206C130.189 9.58213 130.19 9.5822 130.19 9.58227C130.398 11.2508 130.586 12.1782 131.542 13.4809C132.51 14.8006 134.264 16.4986 137.627 19.6832L137.629 19.6843C138.692 20.7118 139.724 21.7397 140.528 22.5706C140.93 22.986 141.276 23.3529 141.54 23.6462C141.8 23.9359 141.99 24.1632 142.073 24.2953L142.073 24.2963C142.304 24.6735 142.442 25.0046 142.519 25.4705C142.596 25.9289 142.614 26.5166 142.614 27.4045L142.614 27.4054C142.602 29.4236 142.442 30.7238 141.781 31.844C141.123 32.9599 139.977 33.8779 138.052 35.1665L138.052 35.1666C136.934 35.9118 136.091 36.4607 135.524 36.8122C135.241 36.9877 135.024 37.1156 134.875 37.1944C134.801 37.2331 134.739 37.2631 134.69 37.2803C134.668 37.2882 134.637 37.298 134.604 37.2996C134.588 37.3005 134.557 37.3002 134.524 37.2856C134.484 37.2679 134.448 37.2323 134.434 37.1815C134.423 37.1393 134.431 37.1036 134.437 37.086C134.443 37.0665 134.452 37.0503 134.459 37.0388C134.472 37.0158 134.49 36.9931 134.508 36.9724C134.545 36.9301 134.599 36.8772 134.666 36.8152C134.801 36.6904 135.005 36.5168 135.276 36.2955C135.818 35.8523 136.636 35.211 137.729 34.372M129.767 9.70826L137.729 34.372M136.083 19.3708C138.245 21.6003 139.544 22.9676 140.319 23.8742C141.098 24.7862 141.323 25.2081 141.377 25.55L141.378 25.554L141.378 25.554C141.51 26.2605 141.518 27.6092 141.438 28.8724C141.398 29.5016 141.336 30.1038 141.259 30.5877C141.221 30.8297 141.179 31.0399 141.134 31.2079C141.088 31.3798 141.043 31.4944 141.004 31.555L141.002 31.5585L141.002 31.5585C140.965 31.6204 140.85 31.748 140.655 31.9356C140.466 32.118 140.213 32.3453 139.915 32.6026C139.318 33.1169 138.543 33.7474 137.729 34.372M136.083 19.3708L137.729 34.372" fill="#0066FF" stroke="#0066FF" stroke-width="0.3"/>
<path d="M85.2179 18.4573L85.1854 18.4159L85.1859 18.3633L85.2353 13.4553L85.2847 8.52238L85.5847 8.51933L85.7329 13.4022L85.7329 13.4026C85.7699 14.7417 85.8131 15.968 85.8501 16.8624C85.8686 17.3097 85.8856 17.6736 85.8994 17.927C85.9063 18.0538 85.9125 18.1522 85.9175 18.2191C85.9191 18.2401 85.9206 18.2574 85.9219 18.2712C86.1361 18.5002 87.3054 19.7584 88.6572 21.2431C89.4099 22.0563 90.1188 22.8061 90.6575 23.3555C90.9272 23.6304 91.153 23.8539 91.32 24.0097C91.4038 24.0879 91.4709 24.1472 91.5203 24.1871C91.54 24.203 91.5555 24.2147 91.5671 24.2227C91.5673 24.2227 91.5675 24.2226 91.5677 24.2225C91.5942 24.2137 91.6337 24.1965 91.6871 24.1689C91.7929 24.1142 91.936 24.0275 92.1071 23.9144C92.4481 23.6891 92.8887 23.3666 93.3429 23.0057C94.3058 22.2172 95.0066 21.6638 95.5047 21.3072C95.7536 21.1289 95.9554 20.9973 96.1161 20.9097C96.2698 20.8259 96.4089 20.7689 96.5244 20.7689C96.5459 20.7689 96.5917 20.773 96.6324 20.8091C96.6778 20.8493 96.6866 20.9013 96.6855 20.9336C96.6846 20.963 96.6759 20.9865 96.6707 20.999C96.6647 21.0132 96.6576 21.0259 96.6513 21.0361C96.6277 21.0745 96.5889 21.1208 96.5447 21.1693C96.4529 21.2702 96.3081 21.4128 96.1238 21.5855C95.754 21.932 95.215 22.4094 94.5966 22.936C94.5966 22.9361 94.5965 22.9361 94.5964 22.9362L92.4292 24.7916L92.4755 25.8957L92.4755 25.8957L92.4756 25.8978C92.4882 26.346 92.4568 26.7244 92.3532 27.1086C92.2498 27.4918 92.0765 27.8735 91.8135 28.3306L91.8135 28.3306L91.8127 28.3319C91.3099 29.1858 90.7386 29.8196 90.0367 30.255C89.3347 30.6905 88.5128 30.9209 87.519 30.9846L87.519 30.9847L87.5169 30.9848L87.5154 30.9848C87.14 31.0036 86.8567 31.0177 86.6612 31.0248C86.5635 31.0283 86.4857 31.0302 86.4284 31.0298C86.3999 31.0297 86.3744 31.029 86.353 31.0274C86.3375 31.0263 86.3058 31.0238 86.2768 31.0127C86.268 31.0094 86.2535 31.0031 86.238 30.9918C86.223 30.9809 86.1979 30.9584 86.1839 30.9204C86.1494 30.827 86.2142 30.7632 86.2265 30.7522C86.2452 30.7353 86.2645 30.7259 86.2728 30.722C86.2837 30.717 86.2946 30.7128 86.3042 30.7094C86.3407 30.6967 86.3957 30.6828 86.4616 30.6676C86.5963 30.6367 86.8061 30.5941 87.0814 30.5383L87.0844 30.5377L87.0844 30.5377L87.0872 30.5372C88.831 30.218 90.1729 29.3373 90.9125 28.1038C90.9463 28.047 90.979 27.992 91.0108 27.9388C91.2727 27.4992 91.4647 27.177 91.5775 26.8959C91.6997 26.5911 91.722 26.3501 91.6334 26.0765C91.5409 25.791 91.3242 25.4583 90.9326 24.9837C90.585 24.5624 90.1108 24.042 89.4858 23.3561C89.4097 23.2726 89.3314 23.1867 89.2509 23.0983C87.7694 21.4711 86.2602 19.7655 85.8869 19.3114L85.8869 19.3114L85.8847 19.3087L85.2179 18.4573Z" fill="#0066FF" stroke="#0066FF" stroke-width="0.3"/>
<path d="M167.205 13.4923C167.219 13.1216 167.374 12.7362 167.707 12.5508C168.227 12.2403 168.776 12.2437 169.164 12.4881C169.557 12.7354 169.757 13.211 169.607 13.7685C169.506 14.2124 169.169 14.5345 168.786 14.6803C168.402 14.8261 167.946 14.8045 167.611 14.5236L167.611 14.5236L167.609 14.5222C167.319 14.2719 167.192 13.8656 167.205 13.4923Z" fill="#0066FF" stroke="#0066FF" stroke-width="0.3"/>
<path d="M68.8615 29.6834C63.1388 29.5763 62.309 29.5608 61.7409 29.1673C61.6446 29.1006 61.5558 29.0229 61.4519 28.9322C61.0815 28.6066 58.7598 26.3029 56.2899 23.8489L81.0627 34.2407C80.05 32.6632 78.5434 31.286 76.9874 30.5097M68.8615 29.6834L75.5796 29.8086M68.8615 29.6834L68.8587 29.8333L68.8395 29.833C65.5101 29.7707 63.8326 29.7393 62.9002 29.6448C62.4321 29.5973 62.1372 29.5328 61.9104 29.4334C61.6839 29.3341 61.5345 29.2035 61.3596 29.0507L61.3532 29.0451L61.3529 29.0448C60.9779 28.7153 58.6506 26.4059 56.1842 23.9554L56.1837 23.9549L51.7506 19.51L49.9774 19.3157L49.9754 19.3155L48.1497 19.1404L48.16 18.8411L49.9877 18.791L49.9897 18.791L51.7927 18.766L51.8547 18.7651L51.8992 18.8083L57.1107 23.8665L57.1112 23.867L62.2553 28.9085L69.0125 29.0326L75.8293 29.1578L75.8649 29.1584L75.8964 29.175L77.2301 29.8761L77.2318 29.8771C79.0078 30.8408 80.7593 32.5382 81.6145 34.1193L82.306 35.3963L82.3242 35.4299L82.3241 35.4682L82.2994 43.1306L82.2749 50.7344L82.8767 51.3915C82.8769 51.3916 82.877 51.3918 82.8771 51.3919C83.3055 51.8527 83.5132 52.374 83.4752 52.8667C83.437 53.3633 83.1512 53.805 82.6452 54.102L82.6453 54.1021L82.6392 54.1053C82.3339 54.2663 82.1113 54.3668 81.8808 54.3668C81.6491 54.3668 81.4324 54.2654 81.1387 54.1041L81.1375 54.1035C80.6324 53.8205 80.3387 53.3927 80.2898 52.9143C80.2411 52.4381 80.4376 51.9388 80.8571 51.5135L81.4319 50.9307L81.5054 43.1537L81.5055 43.1533L81.6037 35.3606L80.9365 34.3218L80.9364 34.3218C79.9373 32.7653 78.4506 31.4073 76.9205 30.644M68.8615 29.6834L68.8587 29.8334L75.543 29.9579M75.5796 29.8086L76.9874 30.5097M75.5796 29.8086L75.5127 29.9428L75.543 29.9579M75.5796 29.8086L75.5768 29.9586L75.543 29.9579M76.9874 30.5097L76.9204 30.6439M76.9874 30.5097L76.9205 30.644M75.543 29.9579L76.9204 30.6439M76.9204 30.6439L76.9205 30.644M76.9204 30.6439L76.9205 30.644" fill="#0066FF" stroke="#0066FF" stroke-width="0.3"/>
<path d="M100.173 26.4976C100.173 26.4976 100.174 26.498 100.175 26.4986C100.174 26.4978 100.173 26.4975 100.173 26.4976ZM92.8433 41.2519V41.2029L92.8722 41.1633L93.9335 39.7121C93.9336 39.7119 93.9337 39.7118 93.9338 39.7116C94.5305 38.8799 95.6203 37.5491 96.3638 36.72C99.7996 32.8356 100.746 31.1729 100.747 29.2853C100.735 28.9558 100.692 28.589 100.629 28.2625C100.565 27.9306 100.482 27.6564 100.396 27.5032C100.292 27.3188 100.202 27.1099 100.137 26.9207C100.076 26.7405 100.033 26.5625 100.031 26.4369C100.027 26.4046 100.027 26.3591 100.045 26.3149C100.057 26.2874 100.077 26.2568 100.111 26.2342C100.145 26.2114 100.182 26.2043 100.212 26.2048C100.266 26.2056 100.311 26.2297 100.336 26.2456C100.366 26.2641 100.396 26.2882 100.424 26.3143C100.536 26.4172 100.686 26.6041 100.848 26.8448L100.848 26.8448L100.851 26.8496C101.069 27.1994 101.212 27.5219 101.3 27.9234C101.387 28.3212 101.417 28.791 101.417 29.4328L101.417 29.4345C101.405 30.544 101.246 31.3835 100.629 32.4828C100.019 33.5711 98.9598 34.9152 97.1584 37.0419L97.158 37.0423C96.3684 37.9679 95.6097 38.8809 95.0208 39.6061C94.4284 40.3356 94.0156 40.8657 93.9104 41.0317L93.9105 41.0318L93.9071 41.0366C93.7587 41.2516 93.649 41.5851 93.5719 42.4977C93.4953 43.4057 93.452 44.859 93.415 47.2889L93.3418 52.9737L94.0492 53.5289L94.0492 53.5289L94.0511 53.5304C94.5593 53.9426 94.8722 54.4067 94.8722 54.8989C94.8722 55.6693 94.4628 56.2389 93.9076 56.4767C93.3522 56.7145 92.6693 56.612 92.1456 56.081C91.7842 55.7147 91.6125 55.2611 91.6364 54.8004C91.6602 54.3407 91.8781 53.8864 92.2728 53.5129L92.2735 53.5122L92.8433 52.9807V47.1364V41.2519Z" fill="#0066FF" stroke="#0066FF" stroke-width="0.3"/>
<path d="M46.2591 28.0905L46.2593 28.0905C46.9673 27.8246 47.6399 27.9133 48.1371 28.2862C48.6327 28.6579 48.9319 29.2951 48.9319 30.0839C48.9319 31.3131 47.8026 32.1963 46.5389 32.0104C46.3412 31.9862 46.1991 31.9802 46.0385 32.0254C45.8742 32.0716 45.6771 32.1753 45.3838 32.3976C44.7941 32.8445 43.8638 33.7313 42.0943 35.45L38.3896 39.0557L38.3455 39.0986L38.2841 39.0982L33.9618 39.0732L33.9611 39.0732C31.5907 39.0482 28.916 38.948 28.0182 38.8469L28.0182 38.8469L28.0178 38.8469C27.8816 38.8312 27.777 38.816 27.7092 38.8006C27.6806 38.7941 27.6388 38.7837 27.6056 38.764C27.5959 38.7582 27.5807 38.7481 27.566 38.7322C27.5513 38.7163 27.5305 38.6872 27.5251 38.6452C27.5128 38.5496 27.585 38.4999 27.5992 38.4908C27.6217 38.4765 27.6447 38.4689 27.6583 38.465C27.6743 38.4603 27.6914 38.4566 27.7084 38.4534C27.7424 38.4471 27.7849 38.4417 27.8343 38.4368C27.9335 38.4269 28.0706 38.4181 28.2443 38.4103C28.9394 38.3788 30.2576 38.36 32.2081 38.3475L37.9506 38.298L41.4885 34.7606L41.4893 34.7598C43.2598 33.015 44.1513 32.1291 44.5942 31.5571C44.8134 31.274 44.9127 31.0798 44.9573 30.9065C45.0021 30.7322 44.9955 30.5656 44.9769 30.3206L44.9768 30.3206L44.9766 30.316C44.9512 29.7486 45.0328 29.2791 45.2462 28.9047C45.4614 28.5273 45.8011 28.263 46.2591 28.0905Z" fill="#0066FF" stroke="#0066FF" stroke-width="0.3"/>
<path d="M64.3521 37.275L64.3528 37.2745C64.6135 37.0857 64.8689 36.9089 65.0692 36.7788C65.1691 36.7139 65.2571 36.6595 65.326 36.6208C65.3603 36.6016 65.3922 36.5849 65.4198 36.5726C65.4335 36.5664 65.4485 36.5604 65.4635 36.5556C65.4761 36.5516 65.4998 36.5449 65.5276 36.5449C65.5607 36.5449 65.6271 36.5576 65.664 36.6254C65.6924 36.6776 65.6811 36.7266 65.678 36.7394C65.6701 36.7715 65.6531 36.7984 65.6455 36.8101C65.6255 36.8412 65.5944 36.8805 65.558 36.9236C65.4832 37.012 65.368 37.1375 65.2223 37.2899C64.9304 37.5953 64.5093 38.0159 64.0271 38.4798C63.8554 38.6508 63.6957 38.8069 63.5469 38.9523C63.0733 39.4152 62.7105 39.7698 62.4251 40.1528C62.0576 40.6459 61.8207 41.1854 61.6712 42.0631C61.5206 42.9468 61.4595 44.1669 61.4429 46.0187C61.4297 47.486 61.4445 49.3436 61.4635 51.7363C61.4684 52.3607 61.4737 53.0215 61.4788 53.7213L61.4788 53.7213C61.5158 58.9059 61.5467 61.82 61.6145 63.4664C61.6485 64.2911 61.6914 64.7895 61.7472 65.0938C61.8047 65.4073 61.8689 65.4691 61.9007 65.4885L61.9007 65.4884L61.9034 65.4901C62.7888 66.0544 63.3356 66.7479 63.4886 67.4829C63.6428 68.2239 63.3899 68.974 62.7446 69.6283L62.7446 69.6283L62.7433 69.6296C62.2314 70.1356 61.6894 70.4054 61.1312 70.4054C60.573 70.4054 60.031 70.1356 59.5191 69.6296L59.5191 69.6296L59.5178 69.6283C58.5301 68.6269 58.4645 67.2061 59.4178 66.2637C59.5845 66.0821 59.7703 65.9197 59.9356 65.8014C60.0185 65.742 60.0988 65.6919 60.171 65.656C60.2082 65.6375 60.2493 65.6196 60.2911 65.6075C60.2946 65.5914 60.2984 65.5714 60.3024 65.5467C60.3198 65.4395 60.3366 65.2732 60.3521 65.0438C60.3831 64.5866 60.4085 63.8945 60.4286 62.9591C60.4687 61.0891 60.4872 58.2546 60.4872 54.3985C60.4872 49.7288 60.5057 46.8344 60.5614 44.9756C60.6169 43.1211 60.7095 42.2834 60.8633 41.7374L60.8635 41.7367C61.0684 41.0227 61.5376 40.204 62.1524 39.4194C62.7683 38.6332 63.5376 37.8722 64.3521 37.275ZM65.3958 36.6435C65.3957 36.6435 65.3953 36.6442 65.3947 36.6454C65.3955 36.644 65.3958 36.6434 65.3958 36.6435Z" fill="#0066FF" stroke="#0066FF" stroke-width="0.3"/>
<path d="M98.7039 59.9638L98.4846 59.7595L100.238 57.7062C101.517 56.2086 102.137 55.461 102.444 54.628C102.75 53.796 102.746 52.8706 102.722 50.9947C102.72 50.8758 102.718 50.7576 102.716 50.6405C102.706 49.9071 102.696 49.2171 102.691 48.6716C102.688 48.3553 102.686 48.0868 102.687 47.8862C102.688 47.6962 102.69 47.5537 102.698 47.4947C102.707 47.4058 102.76 47.3394 102.827 47.2945C102.89 47.2521 102.974 47.2231 103.071 47.201C103.266 47.1565 103.568 47.1289 104.012 47.1148C104.904 47.0864 106.409 47.1117 108.878 47.1868L114.789 47.3601L117.089 45.0038C117.089 45.0037 117.089 45.0036 117.089 45.0035C117.732 44.3395 118.325 43.7379 118.764 43.302C118.984 43.0841 119.166 42.9071 119.296 42.7841C119.361 42.7228 119.414 42.6739 119.453 42.6397C119.473 42.6229 119.491 42.6079 119.506 42.5965C119.514 42.5909 119.523 42.5841 119.534 42.5779C119.539 42.5749 119.547 42.5704 119.557 42.5662C119.564 42.5632 119.587 42.5542 119.617 42.5542C119.638 42.5542 119.668 42.5582 119.698 42.5758C119.73 42.5944 119.752 42.622 119.764 42.6507C119.785 42.6992 119.776 42.7435 119.773 42.7579C119.765 42.7941 119.746 42.8306 119.731 42.8584C119.697 42.92 119.641 43.004 119.569 43.1036C119.425 43.3048 119.203 43.5885 118.931 43.9227C118.386 44.5915 117.631 45.4698 116.863 46.3105C116.863 46.3107 116.863 46.3108 116.863 46.311L115.407 47.9376L115.363 47.9861L115.298 47.9875L109.395 48.1127L103.634 48.2349L103.515 51.4738L103.515 51.4741C103.513 51.548 103.51 51.6205 103.507 51.6916C103.44 53.4879 103.404 54.4336 103.036 55.2515C102.667 56.0727 101.965 56.7595 100.623 58.0735C100.576 58.1186 100.53 58.1645 100.482 58.2111C100.482 58.2112 100.482 58.2112 100.482 58.2113L98.7039 59.9638Z" fill="#0066FF" stroke="#0066FF" stroke-width="0.3"/>
<path d="M103.237 71.3512L103.237 71.3512L103.238 71.3511C104.459 71.3136 105.606 71.2574 106.468 71.198C106.899 71.1684 107.258 71.138 107.519 71.109C107.65 71.0945 107.754 71.0805 107.83 71.0674C107.868 71.0608 107.897 71.0548 107.917 71.0496C107.924 71.0477 107.93 71.0462 107.933 71.0451C107.969 71.0163 108.037 70.951 108.138 70.8469C108.247 70.734 108.387 70.5843 108.547 70.408C108.867 70.0557 109.267 69.6 109.674 69.1251C109.674 69.125 109.674 69.1249 109.674 69.1248L111.12 67.4146V65.0406V62.68L110.34 62.2959C110.34 62.2959 110.34 62.2958 110.339 62.2957C109.75 62.0098 109.345 61.6292 109.16 61.1507C108.975 60.6717 109.022 60.1228 109.279 59.5234C109.384 59.2717 109.54 59.0154 109.712 58.8045C109.881 58.5978 110.079 58.4177 110.275 58.3407C112.504 57.4276 114.363 60.4085 112.529 61.9989L112.528 61.9994C112.367 62.1374 112.257 62.2387 112.176 62.3488C112.098 62.4548 112.042 62.5741 112.003 62.7507C111.921 63.1185 111.914 63.7046 111.914 64.8653C111.914 65.5331 111.883 66.2013 111.833 66.7415C111.808 67.0115 111.778 67.2512 111.745 67.4439C111.712 67.6308 111.674 67.7898 111.627 67.8865L111.627 67.8866L111.622 67.8949C111.529 68.0566 111.281 68.391 110.961 68.793C110.639 69.1985 110.236 69.6821 109.827 70.147C109.827 70.1473 109.827 70.1475 109.826 70.1478L108.37 71.849L108.325 71.9022L108.255 71.9015L103.514 71.8514L103.513 71.8514L98.7961 71.8263L98.791 71.5265L103.237 71.3512Z" fill="#0066FF" stroke="#0066FF" stroke-width="0.3"/>
</g>
<defs>
<clipPath id="clip0_154_1710">
<rect width="180" height="116" fill="white"/>
</clipPath>
</defs>
</svg>
