<svg width="153" height="116" viewBox="0 0 153 116" fill="none" xmlns="http://www.w3.org/2000/svg">
<g id="Group 41604">
<path id="Vector" d="M82.0789 0.00262406C80.9434 -0.014751 79.8131 0.05416 78.6882 0.20936C76.3668 0.543079 73.7882 1.28871 71.6505 2.26145C69.2606 3.34903 67.0676 5.04996 64.7997 6.3962L56.7677 11.1271C55.0192 12.1656 53.2009 13.1672 51.5915 14.4153C51.0773 14.8206 50.5765 15.2419 50.0891 15.6792C49.6016 16.1165 49.1287 16.5688 48.6703 17.0362C48.2118 17.5037 47.7686 17.9853 47.3407 18.481C46.9129 18.9767 46.5012 19.4855 46.1058 20.0074C44.9911 20.1559 43.9277 20.4447 42.9057 20.917C40.7674 21.9052 38.7534 23.4176 36.7393 24.6491C33.7321 26.4877 30.5854 28.1861 27.7249 30.2496C24.2086 32.7863 21.2544 36.4815 19.8595 40.6137C19.2475 42.4269 18.932 44.2499 18.6193 46.1302C17.3328 46.5217 16.1032 47.3576 14.9211 47.9957C12.8839 49.0954 10.7403 50.1495 8.82072 51.442C4.27779 54.5012 1.38542 59.1797 0.377014 64.5439C-0.869873 71.1765 1.07111 78.4325 4.85371 83.9639C7.5172 87.8588 11.4225 91.2442 15.7628 93.1413C16.3249 93.3888 16.896 93.6136 17.4759 93.8156C18.0559 94.0175 18.6431 94.196 19.2375 94.3509C19.8318 94.506 20.4313 94.6371 21.0361 94.7442C21.6408 94.8515 22.2489 94.9344 22.8603 94.9929C23.7309 95.0701 24.6423 94.9521 25.4977 95.1375C27.4698 95.5651 29.4194 96.1189 31.39 96.5612C38.337 98.0985 45.2762 99.6709 52.2076 101.278C53.7431 101.644 54.7836 102.511 56.1366 103.252C58.4516 104.52 60.926 105.578 63.5127 106.139C64.4227 106.332 65.3407 106.474 66.2665 106.565C67.1925 106.655 68.1205 106.694 69.0507 106.681C70.1022 106.664 71.1737 106.556 72.2233 106.627C74.1286 106.756 76.1101 107.374 77.9974 107.729C81.2513 108.496 84.5599 109.078 87.8387 109.732C93.2262 110.807 98.6269 111.912 103.994 113.082C105.031 113.308 106.035 113.802 107.038 114.15C107.928 114.455 108.834 114.704 109.755 114.895C110.676 115.087 111.605 115.22 112.543 115.295C115.352 115.541 118.308 115.254 120.919 114.143C123.786 112.924 127.144 110.562 129.829 108.865L140.817 102.035C142.473 100.991 145.191 99.6612 146.518 98.3863C148.135 96.8332 149.548 94.0431 150.366 91.9926C152.947 85.5226 152.439 77.2337 149.706 70.9093C146.677 63.8994 141.37 58.5622 134.253 55.7504C134.604 54.2331 134.831 52.7244 134.841 51.1638C134.863 47.8027 134.151 43.3977 131.665 40.9129C130.747 39.9954 129.42 39.2506 128.101 39.2408C124.032 32.8131 119.094 28.4787 111.598 26.4617C111.103 25.1629 110.804 23.7837 110.326 22.4723C110.119 21.8911 109.897 21.3155 109.661 20.7455C109.425 20.1756 109.174 19.6119 108.909 19.0546C108.645 18.4974 108.366 17.9473 108.073 17.4042C107.78 16.8612 107.474 16.3259 107.154 15.7983C106.834 15.2708 106.5 14.7518 106.154 14.2412C105.808 13.7307 105.448 13.2292 105.077 12.7369C104.705 12.2446 104.32 11.7621 103.924 11.2893C103.528 10.8165 103.119 10.3541 102.7 9.90211C97.057 3.81913 90.4573 0.319491 82.0789 0.00262406Z" fill="#2A2829"/>
<path id="Vector_2" d="M45.3711 20.9121C45.2293 20.9526 45.0879 20.994 44.9467 21.0363C44.1471 21.2764 43.387 21.5756 42.6522 21.9738C40.6508 23.0585 38.742 24.3831 36.8014 25.576C35.3883 26.4444 33.9002 27.2099 32.5056 28.1017C32.273 28.2504 32.076 28.3374 31.9426 28.5865L32.283 28.5547C35.5104 27.9494 38.3001 28.2106 41.4772 28.9008C41.862 27.923 42.1744 26.9189 42.5865 25.9518C43.3474 24.1658 44.3206 22.5368 45.3711 20.9121Z" fill="#2A2829"/>
<path id="Vector_3" d="M133.685 56.6948C129.168 59.3109 124.755 62.1778 120.369 65.0086C118.468 66.2355 116.501 67.3781 114.633 68.6521C119.363 70.5929 122.049 72.3352 125.571 76.0692C125.651 76.1417 125.734 76.1732 125.83 76.2187C126.361 75.9874 126.805 75.6145 127.294 75.3092C128.936 74.2722 130.565 73.2159 132.182 72.1402C136.252 69.5049 140.338 66.8936 144.439 64.3063C141.475 60.857 137.935 58.326 133.685 56.6948Z" fill="#FEFEFE"/>
<path id="Vector_4" d="M111.179 27.4082C111.004 27.4025 110.879 27.4215 110.718 27.4956C108.546 28.4981 106.274 30.0628 104.216 31.3109C102.066 32.6142 99.8584 33.8211 97.7173 35.1366C95.5868 36.4452 93.5257 37.9181 91.3071 39.0746C92.6418 39.4066 93.9574 39.6815 95.2616 40.1373C100.033 41.8043 104.179 44.9999 107.349 48.9051C107.63 49.2419 107.915 49.5761 108.203 49.9077C110.09 48.3723 113.386 46.6298 115.549 45.2842C118.738 43.3009 121.961 40.9815 125.301 39.2884C125.732 39.0697 126.125 38.9755 126.598 38.9006C122.735 33.6546 117.767 28.8632 111.179 27.4082Z" fill="#FEFEFE"/>
<path id="Vector_5" d="M83.8298 1.27252C81.0572 0.716586 75.5744 1.74087 72.9875 2.74849C69.9864 3.91739 67.2536 5.94263 64.4719 7.56949L57.2577 11.8173C56.1013 12.4863 54.8967 13.0619 53.7664 13.7765C55.1981 13.2055 56.5975 12.591 58.0879 12.1812C63.838 10.6004 70.0041 11.9 75.098 14.7861C77.9596 16.5781 80.3831 18.6504 82.6672 21.1336C88.7817 17.4911 94.9084 13.8361 100.951 10.0752C100.815 9.92134 100.677 9.76908 100.538 9.61845C100.399 9.46782 100.258 9.31882 100.115 9.17146C99.9717 9.0241 99.8272 8.87837 99.681 8.73428C99.5347 8.59031 99.3867 8.44805 99.2371 8.30748C99.0875 8.16691 98.9363 8.0281 98.7835 7.89106C98.6306 7.75402 98.4763 7.61881 98.3204 7.48542C98.1644 7.35204 98.0069 7.22042 97.8478 7.09057C97.6888 6.96084 97.5283 6.83295 97.3663 6.70688C97.2043 6.58081 97.0409 6.4567 96.876 6.33455C96.711 6.21228 96.5447 6.09196 96.3771 5.9736C96.2094 5.85524 96.0403 5.73884 95.8699 5.6244C95.6995 5.50996 95.5277 5.39754 95.3548 5.28715C95.1817 5.17676 95.0073 5.06839 94.8318 4.96205C94.6563 4.85558 94.4795 4.75127 94.3015 4.64911C94.1236 4.54681 93.9444 4.44661 93.7642 4.3485C93.5838 4.25052 93.4023 4.15457 93.2198 4.06064C93.0373 3.96684 92.8537 3.87513 92.6689 3.78551C92.4842 3.69589 92.2985 3.60849 92.1118 3.52332C91.9251 3.43801 91.7375 3.35492 91.5488 3.27406C91.3602 3.19319 91.1706 3.11448 90.9802 3.03792C90.7897 2.9615 90.5983 2.8873 90.406 2.81531C90.2138 2.74333 90.0208 2.67357 89.8269 2.60603C89.6332 2.53849 89.4386 2.47323 89.2432 2.41027C89.0479 2.34717 88.8518 2.28642 88.6551 2.22802C88.4582 2.16963 88.2608 2.11352 88.0627 2.05969C87.8647 2.00587 87.666 1.95433 87.4668 1.90508C87.2675 1.85596 87.0676 1.80913 86.8672 1.76458C86.6669 1.72003 86.466 1.67777 86.2646 1.63779C86.0633 1.59795 85.8615 1.56046 85.6593 1.52531C85.457 1.49017 85.2544 1.45738 85.0514 1.42694C84.8485 1.39637 84.6452 1.36822 84.4416 1.34248C84.2379 1.31688 84.034 1.29356 83.8298 1.27252Z" fill="#FEFEFE"/>
<path id="Vector_6" d="M63.7154 12.7389C59.9453 12.4401 56.1615 13.5314 52.8994 15.3785C47.4474 18.4657 43.7036 24.2694 42.0409 30.1917C39.2937 29.3757 36.328 28.9634 33.4786 29.4506C29.5909 30.1151 25.9375 32.5187 23.6694 35.7266C20.4228 40.3191 18.987 45.8961 19.9495 51.4604C17.2092 51.0108 14.8362 50.7898 12.1339 51.6269C8.14825 52.8617 5.09951 55.784 3.1981 59.4395C0.473099 64.6784 0.517776 70.8071 2.26436 76.3327C4.26393 82.6595 8.82725 88.3772 14.7578 91.4408C19.065 93.6658 24.2796 94.5572 28.9664 93.0546C34.8076 91.1818 37.9402 87.6296 40.6511 82.3348L40.9264 83.2511C43.276 90.9339 49.9596 98.7264 57.0294 102.47C63.0203 105.643 69.3745 106.208 75.8374 104.223C79.6524 102.964 83.3409 100.326 85.8004 97.1544C86.7293 95.9565 87.4823 94.6497 88.245 93.3436C89.7664 96.6896 91.3061 99.8075 93.5449 102.743C97.9395 108.506 104.301 113.08 111.607 114.042C116.365 114.67 120.959 113.403 124.748 110.461C128.785 107.328 130.983 102.296 131.615 97.3239C131.639 97.1169 131.661 96.9096 131.68 96.7022C131.699 96.4946 131.715 96.2868 131.729 96.0788C131.744 95.8708 131.755 95.6627 131.764 95.4545C131.773 95.2463 131.779 95.0379 131.783 94.8296C131.787 94.6212 131.788 94.4128 131.787 94.2045C131.786 93.996 131.782 93.7875 131.775 93.5792C131.769 93.3709 131.76 93.1627 131.748 92.9546C131.737 92.7465 131.723 92.5385 131.706 92.3307C131.689 92.123 131.67 91.9155 131.649 91.7081C131.627 91.5008 131.602 91.2938 131.576 91.0871C131.549 90.8805 131.519 90.6741 131.488 90.4681C131.456 90.2622 131.421 90.0567 131.384 89.8514C131.347 89.6463 131.308 89.4417 131.266 89.2377C131.224 89.0335 131.179 88.8298 131.132 88.6267C131.085 88.4237 131.036 88.2212 130.984 88.0194C130.932 87.8176 130.878 87.6164 130.821 87.4158C130.764 87.2153 130.705 87.0155 130.643 86.8164C130.581 86.6174 130.517 86.4192 130.45 86.2217C130.383 86.0241 130.314 85.8275 130.243 85.6318C130.171 85.436 130.097 85.2411 130.021 85.0471C129.945 84.8532 129.866 84.6602 129.785 84.4682C129.704 84.2762 129.621 84.0851 129.535 83.895C129.449 83.7051 129.361 83.5162 129.271 83.3285C129.18 83.1407 129.088 82.9539 128.993 82.7683C128.898 82.5828 128.801 82.3984 128.701 82.2153C128.602 82.0321 128.5 81.8502 128.396 81.6695C128.292 81.489 128.186 81.3097 128.078 81.1316C127.969 80.9535 127.859 80.7768 127.746 80.6013C127.633 80.426 127.518 80.2521 127.401 80.0797C127.285 79.9071 127.165 79.736 127.044 79.5665C126.923 79.3969 126.8 79.2288 126.674 79.0623C126.549 78.8957 126.422 78.7307 126.293 78.5673C123.542 75.0243 117.785 70.0364 113.293 69.4867L113.294 69.3907C113.296 69.135 113.296 68.8794 113.293 68.6237C113.289 68.368 113.282 68.1125 113.272 67.8571C113.263 67.6016 113.25 67.3462 113.234 67.0911C113.218 66.836 113.198 66.581 113.176 66.3263C113.154 66.0716 113.128 65.8173 113.099 65.5632C113.071 65.3091 113.039 65.0554 113.004 64.8021C112.969 64.5489 112.931 64.2961 112.89 64.0437C112.849 63.7913 112.805 63.5395 112.758 63.2883C112.711 63.0371 112.66 62.7865 112.607 62.5364C112.553 62.2864 112.497 62.037 112.437 61.7884C112.378 61.5397 112.315 61.2918 112.25 61.0448C112.184 60.7976 112.115 60.5513 112.044 60.306C111.972 60.0605 111.897 59.816 111.82 59.5725C111.742 59.3289 111.661 59.0863 111.578 58.8447C111.494 58.6032 111.407 58.3627 111.318 58.1232C111.228 57.8837 111.136 57.6454 111.04 57.4081C110.945 57.1709 110.847 56.9349 110.745 56.7001C110.644 56.4654 110.54 56.2319 110.433 55.9998C110.326 55.7675 110.216 55.5366 110.104 55.3071C109.991 55.0775 109.875 54.8494 109.757 54.6228C109.639 54.3961 109.518 54.171 109.394 53.9473C109.27 53.7235 109.144 53.5014 109.015 53.2808C108.885 53.0602 108.753 52.8412 108.619 52.6238C108.484 52.4064 108.347 52.1907 108.207 51.9767C108.067 51.7627 107.925 51.5505 107.779 51.3401C107.634 51.1296 107.487 50.921 107.336 50.7142C107.186 50.5072 107.033 50.3022 106.878 50.0992C106.723 49.8961 106.565 49.6949 106.405 49.4957C106.244 49.2965 106.082 49.0993 105.917 48.9041C105.752 48.7089 105.584 48.5158 105.414 48.3246C105.245 48.1335 105.072 47.9445 104.898 47.7577C104.723 47.5708 104.547 47.386 104.368 47.2035C100.986 43.8052 94.677 40.0275 89.7778 40.0191C89.0853 32.7854 86.1888 26.8659 81.3729 21.4878C76.7635 16.3403 70.6435 13.1297 63.7154 12.7389Z" fill="#FEFEFE"/>
</g>
</svg>
