<svg width="32" height="32" viewBox="0 0 32 32" fill="none" xmlns="http://www.w3.org/2000/svg">
<g id="Group">
<path id="Vector" d="M31.8992 14.2237C31.8487 13.7739 31.324 13.4356 30.8704 13.4356C29.4043 13.4356 28.1032 12.5751 27.5575 11.2432C27.0005 9.8794 27.3599 8.28917 28.4522 7.2871C28.6179 7.13546 28.72 6.92672 28.7381 6.70283C28.7562 6.47895 28.6889 6.25651 28.5498 6.08022C27.8049 5.13329 26.9545 4.27444 26.015 3.5203C25.6506 3.22803 25.1152 3.26871 24.799 3.6187C23.8454 4.67488 22.1323 5.06735 20.8084 4.51504C19.4313 3.93561 18.5621 2.53968 18.6475 1.04135C18.661 0.814633 18.587 0.591375 18.4409 0.417493C18.2948 0.243612 18.0877 0.13233 17.862 0.106535C16.6667 -0.0318536 15.461 -0.0358669 14.2622 0.0971245C14.0391 0.121893 13.8336 0.229977 13.6868 0.399758C13.5399 0.569539 13.4626 0.788499 13.4702 1.01284C13.5221 2.49651 12.6431 3.8678 11.2793 4.42647C9.97136 4.96079 8.27015 4.57123 7.31846 3.52432C7.16693 3.35848 6.95841 3.25593 6.73455 3.23718C6.5107 3.21843 6.28802 3.28484 6.11102 3.42316C5.15317 4.17433 4.28473 5.03298 3.52273 5.98224C3.38094 6.15894 3.31186 6.38306 3.32958 6.60893C3.34729 6.8348 3.45047 7.04541 3.61808 7.19784C4.73197 8.20656 5.09109 9.81048 4.51277 11.1902C3.9606 12.5056 2.59484 13.3529 1.03146 13.3529C0.524131 13.3366 0.163075 13.6775 0.107028 14.1389C-0.0332083 15.3474 -0.0354833 16.5679 0.100247 17.777C0.150758 18.2287 0.690889 18.5641 1.14951 18.5641C2.54308 18.5287 3.88019 19.3908 4.44191 20.7563C5.00086 22.1201 4.64105 23.7097 3.54695 24.7131C3.20472 25.0277 3.16099 25.5531 3.44994 25.9184C4.19381 26.8651 5.04282 27.7242 5.98065 28.4792C6.15762 28.6217 6.38235 28.691 6.6088 28.6731C6.83525 28.6551 7.04627 28.5513 7.19861 28.3828C8.15598 27.3241 9.86882 26.9323 11.1872 27.4857C12.5684 28.0637 13.4372 29.4594 13.3523 30.9582C13.3389 31.1848 13.4127 31.408 13.5587 31.5818C13.7047 31.7557 13.9117 31.867 14.1373 31.893C14.749 31.9646 15.3638 32 15.9806 32C16.566 32 17.1515 31.968 17.737 31.9028C17.9602 31.8781 18.1658 31.7699 18.3126 31.6C18.4595 31.4301 18.5367 31.211 18.5288 30.9866C18.4752 29.5036 19.3562 28.1322 20.7183 27.5746C22.035 27.0368 23.7286 27.4304 24.6808 28.4758C24.8326 28.6412 25.0411 28.7435 25.2648 28.7622C25.4885 28.7809 25.7111 28.7147 25.8883 28.5768C26.846 27.8254 27.7144 26.9668 28.4765 26.0176C28.6188 25.841 28.6882 25.6167 28.6705 25.3906C28.6528 25.1645 28.5493 24.9537 28.3812 24.8014C27.2676 23.7934 26.9065 22.1888 27.4849 20.8104C28.0284 19.5128 29.3434 18.6415 30.7577 18.6415L30.9556 18.6467C31.4148 18.684 31.8368 18.3304 31.8923 17.8619C32.0332 16.6534 32.0355 15.4327 31.8992 14.2237ZM15.9998 25.2242C10.9053 25.2242 6.7757 21.0945 6.7757 16.0002C6.7757 10.9058 10.9055 6.77617 15.9998 6.77617C21.0942 6.77617 25.224 10.9058 25.224 16.0002C25.224 17.7293 24.7472 19.3467 23.9193 20.7298L19.8803 16.6906C20.1761 15.992 20.3281 15.241 20.327 14.4823C20.327 12.9718 19.7387 11.5518 18.6705 10.4839C17.6025 9.41593 16.1825 8.82778 14.6723 8.82778C14.1683 8.82778 13.6666 8.89476 13.1813 9.02692C13.0753 9.05693 12.9789 9.11375 12.9013 9.19191C12.8237 9.27006 12.7676 9.36691 12.7383 9.47309C12.6805 9.69091 12.7456 9.91413 12.9159 10.0845C12.9159 10.0845 14.9099 12.0939 15.5771 12.7609C15.647 12.8308 15.6468 12.9976 15.637 13.0576L15.6308 13.1015C15.5635 13.835 15.4338 14.7154 15.3269 15.0537C15.3125 15.068 15.2989 15.08 15.2842 15.0947C15.2689 15.1101 15.2548 15.1249 15.24 15.1401C14.8972 15.2501 14.0032 15.3813 13.2581 15.448L13.2582 15.444L13.2247 15.4524C13.2142 15.4535 13.2036 15.454 13.1931 15.454C13.1125 15.454 12.994 15.4314 12.8864 15.3239C12.1919 14.6294 10.2761 12.7273 10.2761 12.7273C10.1042 12.556 9.92791 12.52 9.81042 12.52C9.53655 12.52 9.29132 12.7179 9.2141 13.0017C8.6867 14.9534 9.24579 17.0528 10.6735 18.4807C11.7418 19.5487 13.1619 20.1369 14.6724 20.1369C15.431 20.1379 16.182 19.986 16.8806 19.6902L20.9634 23.7731C19.4822 24.7226 17.7593 25.2263 15.9998 25.2242Z" fill="#003399"/>
</g>
</svg>
