<svg width="180" height="146" viewBox="0 0 180 146" fill="none" xmlns="http://www.w3.org/2000/svg">
<g id="illustration / settings">
<g id="Group 41602">
<path id="Vector 24" d="M169.242 59.3223L168.806 68.9185L162.263 77.6423" stroke="#2B2829"/>
<g id="Group 41601">
<path id="Vector" d="M9.69059 106.523C10.227 108.979 10.5645 111.998 12.1027 114.041C14.3779 113.801 16.6603 113.585 18.9255 113.26C21.2977 112.92 23.6833 112.474 26.0663 112.236C27.4293 113.611 28.5473 115.388 29.6862 116.957C29.1445 117.793 28.5105 118.645 28.1759 119.588C28.1601 119.633 28.1418 119.678 28.1268 119.723C27.9172 120.356 27.9408 129.222 28.1073 130.195C26.8562 128.886 23.7067 122.888 22.5605 120.871C22.0845 120.034 21.588 118.905 20.8852 118.254C20.2508 117.667 12.0249 120.368 10.2732 120.399C9.63414 119.794 9.18612 118.787 8.70646 118.032C7.13268 115.55 5.68058 112.926 3.92574 110.573C5.78498 109.175 7.90582 107.969 9.69059 106.523Z" fill="#E5EEFE"/>
<path id="Vector_2" d="M126.522 0C129.608 0.433398 133.938 1.13384 136.831 2.30909C137.409 5.78681 137.382 9.49948 137.464 13.024C139.608 13.9141 141.603 15.2299 143.758 16.0421C145.647 14.9671 147.525 13.8705 149.39 12.7525C150.701 11.9712 152.042 11.0753 153.474 10.5366C155.25 11.5097 159.849 15.5778 161.203 17.1171C161.21 18.9835 161.115 26.2967 160.746 27.6885C160.432 28.8706 159.62 29.9158 159.199 31.0736C163.007 31.359 166.845 31.6814 170.638 32.1195C171.613 34.458 173.357 38.3576 173.715 40.7764C173.954 42.3944 173.655 44.2762 173.568 45.9089C173.473 47.6861 173.447 49.4834 173.299 51.2557C172.838 51.5599 172.445 51.8253 171.907 51.9794C171.908 53.4337 172.038 54.7618 170.928 55.8819C170.075 56.7438 168.747 57.505 167.699 58.1063C168.216 58.436 168.759 58.7454 169.266 59.0894L168.916 64.7209C168.841 66.074 168.941 67.7909 168.531 69.087C168.187 70.177 166.875 71.3468 166.202 72.3013C164.854 74.2113 163.476 76.1529 162.198 78.1092C161.231 77.7035 160.261 77.3069 159.286 76.9195C158.17 78.4299 156.683 79.4317 154.94 80.0596C154.494 80.2201 153.889 80.3237 153.502 80.5854C153.344 80.6922 153.4 80.666 153.376 80.8909C154.708 82.257 158.057 82.8205 159.391 83.9139C158.975 84.0839 158.485 83.9161 158.093 83.7498C155.414 82.6127 152.902 81.0041 150.31 79.697C148.551 80.6762 146.808 81.6834 145.082 82.7186C145.061 84.1126 145.364 86.5481 144.33 87.5732C144.102 87.7996 143.844 88.0007 143.594 88.2021C143.474 90.3661 143.37 92.5633 143.045 94.708L136.51 96.8673C135.254 97.2694 133.935 97.5837 132.707 98.0597C129.978 95.0166 127.49 91.8403 124.908 88.683C123.369 88.6869 121.83 88.7241 120.292 88.7945C118.89 89.1796 115.157 88.8163 113.822 88.1999C114.275 88.0637 114.992 88.3893 115.531 88.3437C114.903 88.1362 113.371 87.6597 112.781 87.8833L112.786 88.277L112.595 88.1252C112.511 87.6481 112.781 87.3686 113.014 86.9609C113.886 87.2429 114.956 87.6964 115.866 87.7817C115.051 87.2219 113.836 86.9577 112.869 86.7566L112.02 88.2677C113.68 88.7837 115.472 89.1862 117.061 89.8881C117.121 91.876 116.976 102.676 116.545 104.108C116.069 105.694 114.801 107.284 113.987 108.728C113.494 109.601 113.09 110.53 112.582 111.392C110.789 111.502 103.352 111.117 101.57 110.767C101.225 111.13 100.931 111.498 100.645 111.909C103.353 115.043 105.186 116.788 108.859 118.794C110.013 118.144 111.086 117.372 112.217 116.685C112.789 116.337 113.433 116.075 113.972 115.679C114.233 115.488 114.535 115.271 114.618 114.944C114.658 114.786 114.682 114.622 114.709 114.462L114.791 114.418C114.793 114.75 114.863 115.192 114.678 115.482C114.332 116.022 109.761 118.49 108.832 119.169C107.453 118.263 105.974 117.085 104.478 116.419C104.26 116.513 104.323 116.438 104.239 116.66C103.943 117.446 103.633 126.504 103.62 127.941C101.619 130.748 98.8109 133.161 96.2539 135.448C97.1591 136.196 98.0504 136.962 98.9466 137.721C96.0298 139.31 93.14 140.948 90.2774 142.633C86.745 139.839 83.1261 137.216 79.6767 134.31C79.1453 134.226 79.1869 134.785 78.7326 134.924C77.0537 135.435 75.4932 136.08 73.9016 136.817C73.7617 138.552 74.0429 141.263 73.404 142.815C73.2025 143.304 72.746 143.776 72.243 143.953C71.2197 144.314 61.0447 145.078 60.4051 144.724C59.942 144.468 59.6158 142.955 59.4583 142.452C58.9309 142.453 57.3014 142.579 56.9361 142.323C57.7334 142.071 58.5147 142.028 59.3434 141.974C58.527 138.879 57.8217 135.759 57.2275 132.614C54.262 132.019 51.3525 131.219 48.4991 130.215C48.472 130.241 48.4444 130.268 48.4177 130.295C47.2646 131.451 37.886 137.94 36.5438 138.456C35.0977 137.285 33.6089 136.172 32.0774 135.116C30.7431 134.2 29.3224 133.331 28.1245 132.239C28.0727 131.495 28.0114 130.752 27.9406 130.01C27.7734 129.042 27.7497 120.225 27.9602 119.595C27.9754 119.55 27.9937 119.506 28.0096 119.461C28.3458 118.523 28.9828 117.676 29.5271 116.845C28.3827 115.284 27.2594 113.517 25.8898 112.149C23.4955 112.386 21.0985 112.83 18.7149 113.168C16.4389 113.491 14.1455 113.706 11.8595 113.944C10.3139 111.912 9.97477 108.91 9.43584 106.468C9.03116 104.572 8.28391 102.601 8.05357 100.698C7.94501 99.7995 8.39052 94.4941 8.53772 93.5315C8.59127 93.1816 8.78909 92.8813 8.84631 92.5557C8.95219 91.9549 5.21665 87.0702 4.62198 86.1191C6.4549 84.3218 9.66129 82.5103 11.87 81.0555C11.9138 78.2271 11.5382 74.457 12.0082 71.7388C12.052 71.4855 12.1199 71.2422 12.2434 71.0158C12.6975 70.1833 13.3863 69.3905 13.925 68.6041C14.9833 67.0596 15.9721 65.376 17.1546 63.9305C17.4852 63.5265 17.8248 63.1799 18.2564 62.8815C19.7966 62.8803 21.6283 63.6211 23.1219 64.005L32.3694 66.407C32.6706 62.0112 31.8882 56.0882 33.1638 52.0223C34.2453 51.2035 35.7007 50.666 36.9162 50.054C38.9991 49.0049 41.0851 47.8169 43.2429 46.9369C46.7193 49.2146 49.9338 53.517 52.4961 56.77C55.2609 56.5116 57.6613 56.1414 60.4853 56.0897C61.1469 53.4611 63.856 47.5658 65.4867 45.2743C66.6408 45.2998 67.8052 45.4659 68.9535 45.5842C68.7664 43.882 68.3679 42.2447 68.2884 40.5212C68.7603 40.0758 69.2973 39.5662 69.9455 39.4147C70.0538 39.2491 70.123 39.0274 70.3199 38.9809C72.956 38.3564 75.5724 37.2375 78.1851 36.4591C76.641 34.7728 74.7376 32.7313 72.7145 31.6523C72.9084 28.9681 73.4126 24.3754 74.5022 21.9845C75.0685 20.7416 75.9294 19.5941 76.7089 18.4769C77.333 17.5826 77.9694 16.5473 78.8018 15.8373C78.892 15.7604 78.9845 15.6859 79.0781 15.6129C83.4213 16.1656 87.8872 17.0843 92.1455 18.0883L93.7945 17.2428C94.0985 14.4354 94.1462 11.5937 94.2794 8.77307C94.3481 7.31975 94.3396 5.78191 94.6401 4.3575C96.3974 3.23419 103.5 1.11547 105.693 0.878066C106.876 1.78872 107.808 3.06833 108.757 4.21344C110.319 6.0982 111.852 8.06552 113.581 9.79911C116.088 9.71851 118.586 9.55093 121.095 9.56147C122.2 7.28741 124.93 1.6302 126.522 0Z" fill="#2B2829"/>
<path id="Vector_3" d="M95.0817 61.2686C95.3433 61.9045 95.5134 62.5617 95.8049 63.1897C95.8262 63.6457 95.8933 63.7813 95.6206 64.1675C95.0339 64.5143 94.3829 64.5517 93.7392 64.7497C94.1082 63.5491 94.5356 62.4055 95.0817 61.2686Z" fill="#2B2829"/>
<path id="Vector_4" d="M88.1699 140.186C88.2674 140.115 88.3482 140.009 88.4624 139.972C88.795 139.864 89.6252 140.076 89.9892 140.116C90.8472 140.21 91.819 140.08 92.6449 140.22C92.8035 140.247 92.9174 140.339 93.0435 140.432C92.1741 140.982 91.3092 141.535 90.4086 142.03C89.7242 141.356 88.9205 140.781 88.1699 140.186Z" fill="#F7F7F7"/>
<path id="Vector_5" d="M15.2458 85.6357C16.121 86.0326 17.128 87.2565 17.8499 87.9334L12.2649 90.525C11.6025 90.8098 10.8794 90.992 10.1913 91.2056C11.9367 89.4066 13.6216 87.55 15.2458 85.6357Z" fill="#F7F7F7"/>
<path id="Vector_6" d="M9.26003 94.6875C9.71501 95.0818 11.7164 100.903 12.0185 102.007C12.337 103.171 12.4245 111.403 11.9364 112.093C11.0859 110.24 10.724 107.427 10.1972 105.414C9.74502 103.687 8.94662 101.846 8.8178 100.092C8.69379 98.405 9.21473 96.4382 9.26003 94.6875Z" fill="#2B2829"/>
<path id="Vector_7" d="M95.2856 5.57031C96.1206 6.33037 98.8303 12.8287 99.309 14.2199L97.0724 15.2672C96.175 15.7204 95.3061 16.2129 94.4354 16.71C95.0756 13.059 94.9601 9.26107 95.2856 5.57031Z" fill="#2B2829"/>
<path id="Vector_8" d="M58.5229 121.84C59.0636 123.065 59.3281 124.453 59.6721 125.734C60.1398 127.476 60.7445 129.262 60.956 131.043C61.1198 132.422 60.9074 133.897 60.8301 135.283C60.7203 137.24 60.674 139.22 60.4457 141.17L60.3867 141.334C59.8959 140.694 59.7884 139.283 59.6016 138.506C59.1481 136.618 58.5328 134.72 58.3183 132.797C58.1164 130.985 58.3205 129.099 58.3937 127.28C58.4667 125.466 58.4609 123.653 58.5229 121.84Z" fill="#2B2829"/>
<path id="Vector_9" d="M163.362 54.4447C166.35 53.6262 169.39 52.9418 172.408 52.2168C172.409 53.5389 172.543 54.7462 171.404 55.7645C170.528 56.5481 169.166 57.2401 168.091 57.7866C166.693 56.5686 164.876 55.5743 163.362 54.4447Z" fill="#F7F7F7"/>
<path id="Vector_10" d="M33.5677 53.6094C34.3297 54.5394 35.1276 56.6372 35.6917 57.7851C36.4623 59.3535 37.3129 60.8994 38.0405 62.4874L35.6653 64.1013C34.7711 64.7159 33.9636 65.3953 33.1669 66.1415C33.2909 63.88 33.2989 61.6257 33.302 59.3617C33.3046 57.4527 33.2094 55.4901 33.5677 53.6094Z" fill="#2B2829"/>
<path id="Vector_11" d="M96.5241 106.562C97.5582 105.209 98.6513 103.71 99.3711 102.12C99.7031 101.386 100.277 99.4257 100.765 98.9331C100.882 98.8149 101.237 98.8838 101.398 98.8882C101.265 102.504 101.176 106.121 101.132 109.74L100.782 110.254L100.208 111.396C98.9179 109.843 97.6898 108.232 96.5241 106.562Z" fill="#2B2829"/>
<path id="Vector_12" d="M168.818 61.2686L168.932 61.3784C168.883 62.3532 168.685 63.3059 168.588 64.2758C168.447 65.6913 168.61 67.3683 168.106 68.7119C167.523 70.264 164.029 74.2673 162.798 75.8893C162.405 75.3905 163.011 68.19 163.063 67.2001C164.582 65.0398 167.038 63.281 168.818 61.2686Z" fill="white"/>
<path id="Vector_13" d="M11.8129 81.459C12.0872 81.7908 12.0107 82.4215 12.0209 82.836C12.9397 83.8559 14.0535 84.7787 15.0654 85.714C14.1514 86.5365 9.62854 91.731 9.30739 91.9024L8.99372 91.6186C7.79188 90.0769 6.16272 88.0203 5.34018 86.2896L5.46444 86.2281L5.31822 86.1751C6.0568 85.4749 7.00191 84.9123 7.83989 84.3284C9.18361 83.3915 10.5087 82.4491 11.8129 81.459Z" fill="#F7F7F7"/>
<path id="Vector_14" d="M27.0083 100.257C28.0195 100.63 30.3644 104.379 31.3003 105.467C32.5388 106.908 33.9299 108.235 35.2559 109.594L32.3635 113.561C31.7331 114.483 31.0995 115.39 30.4131 116.27C29.1928 114.825 28.0461 113.288 26.938 111.754C26.9644 107.938 26.7999 104.062 27.0083 100.257Z" fill="#2B2829"/>
<path id="Vector_15" d="M109.742 72.4082C109.873 73.8738 108.711 78.1281 108.444 79.8883C108.084 82.257 107.899 84.6409 107.714 87.029C106.287 86.5667 103.778 86.1707 102.563 85.4457C102.196 83.2357 101.607 81.4106 100.701 79.3807C101.746 78.3269 103.264 77.4442 104.457 76.562C106.256 75.2268 108.017 73.8422 109.742 72.4082Z" fill="#2B2829"/>
<path id="Vector_16" d="M81.9036 116.967C81.6893 118.525 81.7144 120.157 81.6497 121.733C81.5666 123.749 81.4277 125.768 81.3574 127.784C80.2508 128.133 76.2677 129.601 75.3919 129.493C75.3281 129.251 75.2646 129.014 75.2232 128.766C75.603 127.323 74.9472 121.275 74.9413 119.227C76.9316 118.603 80.1738 117.834 81.9036 116.967Z" fill="#2B2829"/>
<path id="Vector_17" d="M29.014 121.144C31.354 122.738 33.5649 124.549 35.9525 126.066C35.8029 129.524 35.8357 132.999 35.8161 136.461C35.5255 136.448 29.6803 131.963 29.0318 131.4C28.9491 127.988 29.0154 124.558 29.014 121.144Z" fill="white"/>
<path id="Vector_18" d="M74.7599 23.6719C78.0273 25.6645 81.3368 27.5847 84.6884 29.4326C84.2295 30.4372 83.8478 31.4338 83.5256 32.4901C83.2675 33.3369 83.0875 34.3501 82.6767 35.1291L79.4236 36.204C77.6515 34.3629 75.5519 32.683 73.5488 31.0961C73.9455 28.6184 74.3272 26.1453 74.7599 23.6719Z" fill="#2B2829"/>
<path id="Vector_19" d="M128.517 69.623L135.513 78.9829C135.319 82.5761 135.024 86.2183 135.024 89.8137C133.479 87.7161 131.709 85.7752 130.037 83.771C129.318 82.9089 128.387 81.9343 127.854 80.9588C128.231 80.1101 128.124 78.6735 128.106 77.7349C128.165 75.0274 128.303 72.3234 128.517 69.623Z" fill="white"/>
<path id="Vector_20" d="M76.3339 48.7363C79.2483 48.8503 82.1716 48.7982 85.0875 48.7784C85.8023 50.391 86.4645 52.0829 87.4736 53.5285C86.7522 54.5586 86.0201 55.5805 85.2773 56.5943C84.716 57.4835 84.0854 58.3276 83.4722 59.1798C81.6635 58.3013 79.3135 58.3532 77.3488 57.9236C76.8627 54.8777 76.7388 51.7913 76.3339 48.7363Z" fill="#2B2829"/>
<path id="Vector_21" d="M49.3008 118.358C49.9637 118.603 50.6335 118.826 51.3102 119.03C51.9869 119.233 52.6693 119.415 53.3574 119.577C54.0454 119.739 54.7379 119.88 55.4348 119.999C56.1317 120.119 56.8316 120.217 57.5345 120.294C57.5498 124.029 57.3461 127.762 57.1666 131.492L57.116 131.557C56.1764 131.851 50.4162 129.902 49.1868 129.482C49.1553 125.771 49.2519 122.069 49.3008 118.358Z" fill="#2B2829"/>
<path id="Vector_22" d="M12.9767 72.4082C14.5338 73.2393 16.011 74.3681 17.4792 75.3518C19.6555 76.8243 21.8679 78.24 24.1163 79.5987C23.5675 81.5238 23.3883 83.4346 23.0016 85.3797C22.9304 85.7371 22.9707 85.8985 22.6714 86.102L18.5413 87.7252C16.645 85.9616 14.7933 84.152 12.9862 82.2964L12.9767 72.4082Z" fill="#2B2829"/>
<path id="Vector_23" d="M101.685 98.8784C102.782 98.8089 103.969 99.0142 105.069 99.0916C107.557 99.2665 110.047 99.4579 112.537 99.5909C112.228 103.288 112 106.992 111.853 110.7C109.751 110.561 107.647 110.448 105.543 110.361C104.176 110.296 102.744 110.304 101.398 110.035C101.446 106.315 101.541 102.596 101.685 98.8784Z" fill="white"/>
<path id="Vector_24" d="M150.852 60.5723C152.137 61.0986 153.473 61.9229 154.715 62.56C157.368 63.9223 160.056 65.2523 162.666 66.6887C162.239 69.863 162.788 73.5411 161.931 76.5855C160.527 76.3546 158.444 75.1043 157.119 74.5146C154.806 73.4937 152.478 72.5061 150.134 71.5519C150.475 67.8917 150.686 64.2429 150.852 60.5723Z" fill="white"/>
<path id="Vector_25" d="M48.3261 118.358L48.3925 118.419C48.6176 119.048 48.3597 127.899 48.3432 129.309C46.6448 130.664 44.6991 131.765 42.8724 132.951C40.818 134.284 38.8441 135.7 36.8805 137.157L36.7747 137.075C36.4207 136.224 36.9049 127.297 37.08 125.859C38.2454 124.938 39.5786 124.138 40.8279 123.323C43.3387 121.686 45.8867 120.095 48.3261 118.358Z" fill="white"/>
<path id="Vector_26" d="M116.601 69.7654C120.39 69.9509 124.057 69.8892 127.841 69.623C127.746 72.7215 127.508 75.8172 127.516 78.9192C127.586 78.6254 127.713 78.3546 127.828 78.0771C127.845 79.0574 127.948 80.558 127.586 81.4445C126.649 81.0225 124.861 81.4023 123.813 81.4356C121.206 81.5149 118.608 81.3922 116.019 81.0674C116.253 77.321 116.181 73.4862 116.601 69.7654Z" fill="#2B2829"/>
<path id="Vector_27" d="M72.3136 131.625C72.553 131.571 72.5695 131.57 72.8182 131.653C72.9387 133.033 72.7084 134.585 72.6254 135.977L72.2198 143.245C68.7227 143.635 65.1504 144.022 61.6346 144.103C61.3235 144.115 61.3072 144.169 61.0413 143.976C60.9483 142.717 61.1414 141.377 61.2191 140.116C61.3791 137.514 61.5739 134.908 61.5836 132.3C65.1538 132.267 68.756 131.915 72.3136 131.625Z" fill="white"/>
<path id="Vector_28" d="M74.6776 130.979C76.8432 130.605 79.7624 129.521 81.8843 128.802C85.182 130.374 88.2752 132.356 91.4733 134.123C92.6893 134.794 93.9407 135.563 95.2324 136.068C95.6376 135.878 96.0716 135.622 96.5009 135.504C97.1493 136.255 101.342 137.164 102.069 137.836C100.971 138.531 94.3874 144.76 93.387 145C93.2516 144.901 93.1291 144.805 92.9588 144.777C92.0715 144.629 91.0276 144.766 90.1058 144.667C89.7148 144.625 88.8229 144.402 88.4656 144.515C88.3429 144.554 88.2562 144.666 88.1513 144.741C85.3455 142.714 82.6823 138.629 80.0319 136.404L79.7413 136.548C77.954 137.449 75.8883 135.987 74.1525 136.964C74.2031 136.093 74.2795 131.418 74.6776 130.979Z" fill="#EBF1FE"/>
<path id="Vector_29" d="M25.3427 100.257L25.345 100.36L25.4212 100.291C25.5822 101.449 25.472 102.769 25.472 103.944L25.4685 111.175C21.3348 111.682 17.2378 112.41 13.0883 112.789L13.0096 112.707C12.9206 111.611 13.0398 110.424 13.0438 109.317L13.0554 101.714C16.916 101.577 21.4339 100.744 25.3427 100.257Z" fill="white"/>
<path id="Vector_30" d="M83.1487 116.271C84.7522 116.988 86.3455 118.199 87.8646 119.114C90.5046 120.707 93.3296 122.15 95.8278 123.964C95.4939 127.632 95.1372 131.385 95.0936 135.068C94.7032 135.141 83.7433 128.692 82.6005 128.086C82.5838 124.183 82.7685 120.156 83.1487 116.271Z" fill="white"/>
<path id="Vector_31" d="M115.726 81.459C119.091 82.526 123.66 82.0531 127.157 81.8251C129.541 85.0306 132.159 88.0831 134.481 91.3242C136.905 91.0235 140.195 89.8449 142.261 88.5941C142.566 88.4898 142.874 88.329 143.17 88.1993C143.185 90.2102 143.018 92.3756 142.723 94.3643C139.395 95.4281 136.025 96.5786 132.65 97.4722C131.67 96.1389 130.459 94.9519 129.375 93.6997C127.89 91.9839 126.501 90.1935 125.08 88.4261C123.66 88.4116 121.557 88.1453 120.238 88.6259C118.838 89.0064 115.111 88.6474 113.777 88.0383C114.23 87.9036 114.945 88.2254 115.484 88.1804C114.857 87.9753 113.327 87.5044 112.738 87.7255L112.743 88.1145L112.553 87.9644C112.468 87.493 112.738 87.2168 112.97 86.8139C113.841 87.0926 114.91 87.5407 115.818 87.625C115.005 87.0718 113.791 86.8108 112.826 86.612C113.796 84.8979 114.796 83.1942 115.726 81.459Z" fill="#EBF1FE"/>
<path id="Vector_32" d="M127.066 1.39258C130.165 1.78408 133.198 2.50076 136.249 3.15797C136.366 4.39145 136.224 5.67686 136.164 6.91278C136.062 9.01823 135.955 11.12 135.966 13.2289C138.654 14.6218 141.368 16.0432 144.089 17.3681C147.217 15.3319 150.506 13.51 153.772 11.7024C156.009 13.6484 158.331 15.474 160.479 17.5244C158.412 20.3748 155.637 22.6897 153.521 25.5111C154.224 26.6831 155.048 27.7762 155.751 28.9483C156.346 29.9382 156.839 31.0186 157.467 31.9825C161.727 32.2548 165.974 32.8084 170.233 33.0463C171.232 35.6732 172.355 38.2345 173.109 40.9467C168.526 41.912 163.913 42.7962 159.364 43.9092C159.117 46.5549 158.547 48.5441 157.832 51.0669C161.213 54.2422 165.181 56.7833 168.69 59.8126C166.742 61.8969 164.806 63.9922 162.882 66.0985C159.004 63.6962 154.844 61.7072 150.881 59.4324C149.364 60.5888 147.973 61.8918 146.359 62.9271C144.881 63.8749 143.273 64.5384 141.741 65.3814C143.293 68.2557 144.794 71.4332 145.185 74.7068C142.476 76.4552 139.159 77.6394 136.044 78.4061C133.8 75.0715 131.285 71.9361 128.948 68.6703C124.718 69.1296 120.686 69.1559 116.451 68.7408C114.659 71.8842 113.134 75.2107 111.286 78.3091C110.624 79.4172 109.79 80.3957 109.066 81.4588C109.345 79.3953 109.696 77.3752 110.123 75.3372C110.455 73.7559 110.924 72.0977 111.045 70.4901C110.338 69.0789 105.588 63.0672 104.104 62.5353C102.975 62.1307 98.6986 63.7393 97.3165 64.1262C96.9474 63.0512 96.6791 61.0844 95.8694 60.3126C95.6003 60.2592 95.5296 60.2171 95.2843 60.3738C94.1977 61.0688 93.4519 63.8719 93.0377 65.061C92.6975 65.4184 90.8359 65.9011 90.3018 65.8996C90.1255 65.8991 90.0959 65.8789 89.9505 65.8301C87.7824 64.0679 85.3512 62.6153 82.9602 61.1814C83.5636 60.181 84.399 59.2532 85.1138 58.3261C86.3131 56.7949 87.4678 55.2311 88.578 53.6348C87.5178 51.8801 86.7607 50.0018 85.7412 48.2474C82.6726 48.095 79.6424 48.1638 76.5745 48.2342C76.4732 47.8035 76.3963 47.2609 76.1354 46.8918C75.3907 45.8389 71.4813 45.9096 70.1122 45.7626C69.8217 44.0518 69.4868 42.3379 69.3712 40.6049C70.3494 40.1766 71.3679 39.8326 72.3508 39.4095C73.8785 39.0601 75.4003 38.4198 76.8883 37.9203C79.1418 37.1638 81.3899 36.5071 83.6965 35.9357C84.1285 33.6053 84.8308 31.4525 85.7275 29.261C82.4545 27.0351 78.8627 25.1715 75.4696 23.1221C76.549 20.9916 78.0814 18.7218 79.5557 16.8523C82.1017 17.2402 84.6654 17.6226 87.194 18.1097C89.1163 18.4797 91.0199 18.9485 92.9449 19.3047C94.3084 18.3108 95.7389 17.3711 97.2416 16.5973C98.3772 16.0125 99.5703 15.5367 100.692 14.9253C99.0146 11.7253 97.9079 8.27303 96.2099 5.065C98.7343 3.97582 103.078 2.75185 105.826 2.06904L113.538 10.9604C116.381 10.7702 119.188 10.68 122.036 10.66C122.839 9.21374 123.659 7.77012 124.41 6.29653C125.262 4.62694 126.036 2.96637 127.066 1.39258Z" fill="white"/>
<path id="Vector_33" d="M116.754 17.5636C124.586 16.7267 134.777 19.2495 140.944 24.1302C145.612 27.8243 149.423 32.9746 150.045 38.9857C150.536 43.7279 148.969 47.9595 145.934 51.6047C141.119 57.388 133.399 60.4527 125.998 61.1765C117.037 61.6936 108.618 60.0859 101.47 54.4035C96.8603 50.7384 93.055 45.4817 92.4429 39.5591C91.9381 34.6721 93.4334 30.5756 96.5884 26.8009C101.428 21.0103 109.398 18.2466 116.754 17.5636Z" fill="#2B2829"/>
<path id="Vector_34" d="M117.325 18.1889C125.333 17.5844 134.601 20.1334 140.768 25.3191C145.008 28.8835 148.255 33.7237 148.692 39.3479C149.052 43.9623 147.403 48.2765 144.387 51.7534C139.6 57.2722 131.646 59.996 124.541 60.5396C116.011 60.8488 107.845 58.9445 101.202 53.356C96.9259 49.7594 93.5595 44.6966 93.0951 39.0475C92.7165 34.4428 94.4233 30.2864 97.4307 26.8144C102.236 21.2676 110.231 18.751 117.325 18.1889Z" fill="#F7F7F7"/>
<path id="Vector_35" d="M117.536 25.8548C118.393 25.7315 119.374 25.7627 120.243 25.7685C125.106 25.8012 129.503 27.1247 133.447 29.9655C136.462 32.1376 139.006 35.042 139.56 38.7967C139.588 38.9764 139.612 39.1567 139.631 39.3375C139.65 39.5184 139.665 39.6996 139.674 39.8813C139.684 40.0628 139.69 40.2445 139.69 40.4265C139.691 40.6083 139.687 40.7901 139.678 40.9717C139.67 41.1534 139.656 41.3347 139.638 41.5157C139.62 41.6967 139.598 41.8772 139.571 42.0571C139.544 42.2369 139.512 42.416 139.476 42.5943C139.44 42.7726 139.399 42.9499 139.354 43.1262C139.309 43.3025 139.259 43.4775 139.205 43.6513C139.151 43.8252 139.092 43.9977 139.029 44.1686C138.967 44.3395 138.899 44.5087 138.828 44.6763C138.756 44.8439 138.681 45.0097 138.601 45.1736C138.521 45.3373 138.437 45.499 138.349 45.6587C138.26 45.8184 138.168 45.9758 138.072 46.1308C137.976 46.286 137.876 46.4386 137.772 46.5888C137.668 46.7388 137.56 46.8862 137.449 47.0311C134.576 50.8185 129.845 52.8635 125.219 53.5237C119.35 53.905 113.504 53.1018 108.709 49.4769C105.717 47.2144 103.344 43.9821 102.875 40.2231C102.51 37.2911 103.329 34.5018 105.171 32.1747C108.117 28.4532 112.878 26.3997 117.536 25.8548Z" fill="#2B2829"/>
<path id="Vector_36" d="M104.879 44.1593C105.03 43.9201 105.187 43.6849 105.35 43.4538C105.513 43.2224 105.681 42.9953 105.855 42.7724C106.029 42.5496 106.208 42.3313 106.392 42.1174C106.577 41.9034 106.766 41.6942 106.961 41.4899C107.156 41.2854 107.355 41.086 107.559 40.8918C107.764 40.6973 107.973 40.5081 108.186 40.3242C108.4 40.1402 108.618 39.9616 108.84 39.7886C109.062 39.6155 109.288 39.4482 109.519 39.2865C109.749 39.1248 109.983 38.969 110.221 38.819C110.459 38.669 110.701 38.525 110.946 38.3871C111.191 38.2493 111.439 38.1176 111.69 37.9922C111.942 37.8667 112.196 37.7476 112.454 37.6348C112.711 37.522 112.97 37.4158 113.233 37.3162C113.495 37.2165 113.76 37.1234 114.027 37.0369C114.294 36.9505 114.562 36.8707 114.833 36.7976C115.104 36.7247 115.376 36.6585 115.65 36.599C120.404 35.5445 125.762 36.6521 129.831 39.3198C132.612 41.1422 135.099 43.7126 136.209 46.9322C135.267 48.1349 134.137 49.3539 132.815 50.1287C132.799 49.9531 132.828 50.0487 132.679 49.8627L132.683 50.0388C132.554 49.875 132.435 49.7454 132.277 49.6093C131.613 49.0381 131.024 48.3901 130.457 47.7218L130.51 47.3103C129.558 45.8123 127.971 44.6989 126.555 43.6864C126.533 43.6296 126.513 43.572 126.489 43.5162C126.142 42.7121 125.822 43.375 125.174 43.1097C125.03 42.8652 124.904 42.6721 124.701 42.4743C124.454 42.5146 124.538 42.4726 124.338 42.6119C123.833 42.9635 123.6 41.947 123.215 41.9517C123.169 41.9522 122.925 42.1789 122.859 42.1945C122.571 42.2631 121.927 41.4758 121.458 41.4563C121.36 41.6082 121.282 41.7011 121.154 41.8352C120.857 41.8411 120.701 41.6569 120.471 41.4929C120.142 41.2575 120.002 41.2978 119.619 41.3716C119.299 41.4336 119.043 41.4667 118.717 41.4558C118.595 41.3326 118.501 41.2222 118.403 41.0762C118.265 40.8688 118.203 40.9123 117.97 40.8584L117.681 41.2365C117.385 41.358 117.333 41.3459 117.015 41.2923C116.816 41.0518 116.718 40.9113 116.415 40.808C115.866 40.9313 116.335 41.2066 115.925 41.4005C115.505 41.5993 114.389 41.5744 113.881 41.6546C110.907 42.1244 108.926 42.984 106.655 44.9612L106.535 44.8807L105.918 45.6816C105.536 45.1867 105.194 44.7022 104.879 44.1593Z" fill="#EBF1FE"/>
<path id="Vector_37" d="M106.658 44.5589C108.921 42.5699 110.895 41.705 113.859 41.2325C114.365 41.1518 115.477 41.1769 115.896 40.9769C116.305 40.7818 115.837 40.5048 116.384 40.3809C116.686 40.4847 116.784 40.6261 116.982 40.8681C117.299 40.922 117.351 40.9341 117.646 40.8119L117.934 40.4315C118.166 40.4857 118.227 40.442 118.365 40.6507C118.463 40.7975 118.557 40.9086 118.679 41.0325C119.003 41.0435 119.258 41.0102 119.578 40.9478C119.958 40.8735 120.098 40.833 120.426 41.0698C120.655 41.2348 120.811 41.4201 121.107 41.4141C121.235 41.2792 121.312 41.1858 121.409 41.033C121.877 41.0526 122.519 41.8447 122.806 41.7756C122.871 41.76 123.115 41.5319 123.161 41.5314C123.545 41.5267 123.776 42.5493 124.28 42.1955C124.48 42.0554 124.396 42.0976 124.642 42.0571C124.844 42.2561 124.97 42.4504 125.113 42.6963C125.759 42.9631 126.077 42.2963 126.423 43.1053C126.447 43.1614 126.467 43.2193 126.489 43.2764C127.9 44.295 129.482 45.415 130.431 46.922L130.378 47.336C130.943 48.0082 131.53 48.6601 132.192 49.2348C132.35 49.3717 132.468 49.5021 132.596 49.6668L132.593 49.4897C132.741 49.6768 132.712 49.5806 132.728 49.7572C132.653 49.838 132.552 49.908 132.465 49.9729C128.424 52.9591 122.165 53.3825 117.42 52.5147C113.136 51.7316 108.786 49.4467 106.271 45.7283C106.365 45.3127 106.487 44.9479 106.658 44.5589Z" fill="#EBF1FE"/>
<path id="Vector_38" d="M104.142 42.8348C103.454 41.1627 103.362 39.3502 103.615 37.5782C104.056 34.4879 105.96 31.8646 108.507 30.0344C112.105 27.4486 117.538 25.9553 121.995 26.6111C126.976 26.901 132.367 29.1378 135.721 32.7972C137.84 35.1094 139.192 37.9103 138.97 41.0433C138.842 42.8471 138.299 44.3971 137.364 45.9514C136.799 44.9756 136.248 43.9721 135.567 43.0673C132.992 39.649 128.968 37.1256 124.793 35.984C123.4 35.6032 121.987 35.4439 120.552 35.3104C119.711 35.2998 118.875 35.3025 118.036 35.3669C112.24 35.8124 107.865 38.6165 104.142 42.8348Z" fill="#2B2829"/>
<path id="Vector_39" d="M66.0233 45.9512C69.0162 46.4718 72.124 46.5091 75.1406 46.8711C75.4817 50.5694 76.2406 55.131 75.8249 58.7947C77.0958 59.4024 78.4741 59.8294 79.7645 60.4152C83.0436 61.9047 86.0166 63.7593 88.8994 65.9142C89.1778 66.2022 89.5276 66.4393 89.8455 66.6837C91.8565 65.9118 94.0574 65.7135 96.055 64.9168C98.5289 64.4302 100.921 63.5963 103.382 63.0661C105.586 65.2477 108.315 67.7471 109.557 70.6295C107.612 72.1711 105.679 73.7341 103.707 75.2397C102.21 76.3829 100.519 77.4113 99.2371 78.8002C99.5306 79.9211 100.024 80.9615 100.399 82.0538C100.808 83.2424 101.023 84.4852 101.252 85.7182C106.129 87.3802 111.183 88.584 116.018 90.3879C115.5 93.6079 114.25 95.9727 112.56 98.722C108.472 98.169 104.184 97.9854 100.058 97.7996C99.1817 99.7055 98.3192 101.636 97.1737 103.398C96.7127 104.107 94.9311 105.858 94.996 106.612C95.9428 108.383 101.263 114.13 102.83 115.712C101.38 118.253 98.209 121.212 95.8404 122.963C91.6342 120.292 87.157 118.086 82.9817 115.355L81.6658 115.943C80.2313 116.552 78.7945 117.109 77.3057 117.57C76.0629 117.954 74.7067 118.254 73.5112 118.761C73.4839 122.019 73.3451 125.303 73.408 128.558L73.2949 130.156C69.5045 130.604 65.615 130.878 61.798 130.891C60.888 127.014 59.9501 123.145 58.9842 119.282C57.4311 118.973 55.8606 118.782 54.3116 118.434C52.3837 118 50.5695 117.351 48.7197 116.669C47.6543 117.297 46.6355 118.099 45.6085 118.798C43.5819 120.176 41.5343 121.533 39.5397 122.957C38.5355 123.674 37.5826 124.469 36.5397 125.129C35.7417 124.485 34.8531 123.992 34.0026 123.426C32.3027 122.296 30.5564 121.088 29.0162 119.746C30.9667 115.884 34.2483 112.808 36.3571 109.06C35.2856 107.813 33.899 106.801 32.7683 105.591C30.8585 103.547 29.387 101.222 27.8319 98.9115C25.9326 99.0552 24.0145 99.4555 22.1176 99.6795C19.0166 100.046 15.8564 100.279 12.7825 100.823C11.8098 98.0906 11.0292 95.2473 10.1913 92.4693C11.7109 91.3804 13.636 90.7887 15.354 90.0707L20.6244 87.8189C21.7797 87.3275 23.043 86.8749 24.0639 86.1332C24.3509 83.5895 24.7673 81.2353 25.4189 78.7612C24.4318 78.0724 23.3421 77.4919 22.3165 76.8607C20.8236 75.9417 19.3825 74.9384 17.9079 73.99C16.4578 73.057 14.9339 72.1704 13.5712 71.1127C15.1351 68.6312 16.8048 65.9794 18.6175 63.6816C23.4338 64.4388 28.0535 66.376 32.8305 67.3112C35.0016 65.4877 37.2101 63.9748 39.5477 62.3956C39.0494 61.095 38.3164 59.8473 37.6667 58.6172C36.5469 56.5225 35.441 54.4204 34.349 52.3108C37.29 50.8354 40.2228 49.1408 43.2581 47.8872C44.3236 48.8056 45.3484 49.7679 46.3323 50.7741C47.3162 51.7804 48.2557 52.827 49.1509 53.9137C50.1633 55.1472 51.0612 56.4709 52.0946 57.6857C53.7068 57.4063 55.3372 57.1342 56.9669 56.9888C58.4347 56.8577 59.9099 56.8481 61.3738 56.6699C61.8507 55.5747 62.0562 54.3581 62.5118 53.245C63.5211 50.779 64.857 48.3539 66.0233 45.9512Z" fill="#F7F7F7"/>
<path id="Vector_40" d="M59.9581 64.0825C68.3891 63.7445 77.3156 66.2803 83.8889 71.7605C88.4635 75.5745 91.725 81.1403 92.268 87.2033C92.7484 92.5681 90.9983 97.6847 87.6081 101.787C82.0747 108.482 74.0076 111.36 65.6567 112.086C56.8732 112.242 48.4558 109.674 41.7416 103.801C37.1808 99.8111 33.6338 94.1801 33.2187 87.9625C33.1958 87.6538 33.1805 87.3448 33.1729 87.0355C33.1651 86.7262 33.1649 86.4168 33.1724 86.1073C33.1797 85.798 33.1947 85.489 33.2172 85.1803C33.2398 84.8718 33.2699 84.564 33.3074 84.2568C33.3451 83.9496 33.3901 83.6437 33.4426 83.339C33.4952 83.0341 33.5552 82.7309 33.6226 82.4291C33.69 82.1273 33.7647 81.8273 33.8467 81.5294C33.9289 81.2313 34.0182 80.9356 34.1147 80.6421C34.2114 80.3487 34.315 80.0578 34.4258 79.7697C34.5366 79.4815 34.6543 79.1962 34.7791 78.9138C34.9038 78.6316 35.0353 78.3527 35.1737 78.0771C35.3121 77.8015 35.4571 77.5296 35.6088 77.2614C35.7605 76.9932 35.9186 76.729 36.0831 76.4688C36.2478 76.2085 36.4187 75.9526 36.5959 75.7009C36.773 75.4493 36.9561 75.2023 37.1453 74.9601C37.3345 74.7178 37.5295 74.4805 37.7304 74.248C43.5058 67.608 51.4343 64.6087 59.9581 64.0825Z" fill="#2B2829"/>
<path id="Vector_41" d="M59.2428 65.5655C59.3231 65.5544 59.4031 65.5413 59.4834 65.5325C60.9885 65.3657 62.599 65.4705 64.1098 65.5794C71.0464 66.0797 77.9089 68.2841 83.3515 72.6447C87.8119 76.2187 91.0046 81.2541 91.5577 86.9588C92.0619 92.1595 90.4928 96.7696 87.1151 100.776C81.7917 107.09 74.3738 109.813 66.2769 110.577C66.225 110.583 66.1733 110.59 66.121 110.595C57.8623 111.323 48.6918 108.22 42.3862 103.033C37.8443 99.2966 34.4278 93.9778 33.9214 88.0703C33.5278 83.4767 35.1519 78.6681 38.1882 75.1656C43.3613 69.198 51.4703 66.1978 59.2428 65.5655Z" fill="#F7F7F7"/>
<path id="Vector_42" d="M60.4078 73.8775C60.5827 73.8627 60.7578 73.8499 60.933 73.8393C66.5251 73.4999 72.6783 75.3566 76.8829 79.0707C79.6785 81.5403 81.7095 85.0196 81.8906 88.7857C82.0532 92.1677 80.71 95.4167 78.4152 97.8809C75.1847 101.35 70.08 103.532 65.3386 103.704C59.5096 103.985 53.6692 102.536 49.1559 98.7027C46.106 96.1118 43.9608 92.6734 43.6489 88.6308C43.404 85.4603 44.3564 82.4782 46.4618 80.0748C49.8775 76.1744 55.3104 74.242 60.4078 73.8775Z" fill="#2B2829"/>
<path id="Vector_43" d="M47.2878 94.2801C47.2084 94.227 47.1545 94.1446 47.0918 94.0733C47.1042 94.0017 47.1148 93.9296 47.1291 93.8583C47.5753 91.6431 50.5933 88.2724 52.5386 87.1417C56.8943 84.6105 62.4853 84.4401 67.2984 85.7254C67.6057 85.8092 67.9109 85.9002 68.2138 85.9983C68.5165 86.0965 68.8168 86.2016 69.1144 86.3136C69.4121 86.4258 69.7068 86.5448 69.9985 86.6706C70.2903 86.7965 70.5787 86.9291 70.8639 87.0684C71.1491 87.2078 71.4306 87.3537 71.7086 87.5063C71.9865 87.6589 72.2605 87.8178 72.5306 87.9829C72.8006 88.1483 73.0665 88.3199 73.3282 88.4976C73.5897 88.6753 73.8467 88.859 74.0991 89.0487C74.3517 89.2385 74.5994 89.434 74.8422 89.6353C75.085 89.8365 75.3226 90.0434 75.5552 90.2558C75.7878 90.4682 76.0149 90.6859 76.2367 90.9089C76.4584 91.1318 76.6745 91.3599 76.8848 91.5931C77.0954 91.8263 77.3 92.0641 77.4988 92.3067C77.6975 92.5493 77.89 92.7965 78.0764 93.0482C78.2628 93.2999 78.4429 93.5557 78.6166 93.8157C78.7903 94.0758 78.9576 94.3398 79.1183 94.6076C78.6186 95.7871 77.8594 96.6035 76.924 97.4716C76.3397 96.6696 75.7414 95.8839 75.0708 95.1465C74.6511 94.6849 73.7268 93.678 73.0875 93.6392C71.9502 92.9055 70.8716 92.1791 69.6275 91.6058C65.6882 89.7902 60.6184 89.343 56.3645 90.1696C53.6845 90.6906 51.6315 91.7844 49.3048 93.1243C48.6739 93.4877 47.9599 94.0168 47.2878 94.2801Z" fill="#EBF1FE"/>
<path id="Vector_44" d="M58.5339 74.8234C63.4421 73.9046 69.5536 74.9218 73.7066 77.8548C76.8074 80.045 79.6724 83.2838 80.3584 87.2116C80.7687 89.5603 80.318 91.8437 79.3759 93.9905C78.4534 92.7547 77.6345 91.3919 76.6077 90.2461C73.5302 86.8112 68.8461 84.4503 64.3615 83.8492C61.3365 83.4441 58.3841 83.765 55.4545 84.5629L55.4462 84.4047C57.1932 83.8298 58.9556 83.5016 60.795 83.5186C61.3958 83.0924 61.8383 82.6035 62.3354 82.0625C64.9199 79.2491 63.1497 77.8603 64.3552 75.3116C61.9181 73.8946 59.9258 75.6288 58.5339 74.8234Z" fill="#2B2829"/>
<path id="Vector_45" d="M58.4504 75.2795C59.8961 76.0532 61.9657 74.3873 64.4972 75.7485C63.245 78.197 65.0838 79.5311 62.3992 82.2339C61.8827 82.7536 61.4231 83.2233 60.799 83.6327C58.8884 83.6164 57.0576 83.9317 55.243 84.4839L55.2516 84.6359C54.4925 84.9981 53.6778 85.2445 52.9169 85.6254C49.349 87.411 47.6915 89.9186 46.0429 93.2943C45.0829 91.6696 44.4643 90.0297 44.3351 88.1562C44.1349 85.2507 44.9841 82.699 47.0195 80.511C49.7428 77.5832 54.3592 75.5223 58.4504 75.2795Z" fill="#2B2829"/>
<path id="Vector_46" d="M47.325 94.3106C47.9885 94.048 48.6667 92.8347 49.2896 92.4723C51.5866 91.1361 52.7504 89.9385 55.3962 89.419C59.5959 88.5946 65.0291 88.0445 68.9182 89.8551C70.1464 90.4269 73.902 92.4262 75.0248 93.1579C76.4677 94.3992 76.258 95.6095 77.2058 97.2704C73.0993 100.751 66.931 102.684 61.5342 102.281C56.2528 101.887 51.0669 99.5224 47.6071 95.5547C47.3632 95.2751 47.0955 94.9647 47.0918 94.5799L47.325 94.3106Z" fill="#EBF1FE"/>
</g>
<path id="Vector 22" d="M115.591 81.5674L112.102 88.1103L116.9 89.855L119.953 90.2912L122.134 93.7807L123.879 99.015L139.145 103.377L147.433 96.8341L146.997 87.2379L143.071 88.1103L140.89 92.036L136.528 93.7807L130.858 92.036L126.496 84.6207L115.591 81.5674Z" fill="#EBF1FE"/>
<path id="Vector 23" d="M145.252 75.025V86.8022L152.231 89.4193L162.263 86.8022V78.0784L150.05 71.9717L145.252 75.025Z" fill="#EBF1FE"/>
<path id="Vector 25" d="M162.699 54.0875L170.115 59.758H174.04L178.402 56.2685L174.04 51.0342L162.699 54.0875Z" fill="#EBF1FE" stroke="#EBF1FE"/>
<path id="Vector 26" d="M162.699 66.3008V76.7694" stroke="#2B2829"/>
<path id="Vector 27" d="M103.814 115.591V123.006L110.793 121.262L116.027 119.081L118.644 115.591L114.282 111.229L101.197 110.793L100.324 112.102L103.814 115.591Z" fill="#EBF1FE"/>
<path id="Vector 28" d="M75.0244 129.549V119.08" stroke="white"/>
<path id="Vector 29" d="M73.7168 143.507L74.153 131.294L76.7701 130.857" stroke="#EBF1FE"/>
<path id="Vector 30" d="M60.1944 144.815L56.7048 133.038V140.89L55.3963 144.815H60.1944Z" fill="#EBF1FE" stroke="#EBF1FE"/>
<path id="Vector 31" d="M12.2134 82.8765L11.341 77.2061L7.41525 80.6956L0 85.4937L8.28763 92.4727L17.8838 87.6746L12.2134 82.8765Z" fill="#DDE9FE"/>
<path id="Vector 32" d="M105.559 44.4912C106.431 47.9807 122.134 57.1408 133.911 48.8531" stroke="#EBF1FE"/>
</g>
</g>
</svg>
