<svg width="134" height="129" viewBox="0 0 134 129" fill="none" xmlns="http://www.w3.org/2000/svg">
<g id="Group 41605">
<path id="Vector" d="M61.6502 66.6768C62.4778 67.2884 63.2407 68.1973 63.9684 68.9274C65.6731 70.6222 67.348 72.346 68.9932 74.0986C67.0461 75.9904 65.0422 77.8194 63.0893 79.7043C59.3936 83.32 55.6633 86.8997 51.8984 90.4434C51.2964 90.0889 45.1845 83.9849 44.5792 83.2049C48.7779 79.243 52.9264 75.2293 57.0248 71.1638C58.5534 69.6561 60.1695 68.231 61.6502 66.6768Z" fill="#FEFEFE"/>
<path id="Vector_2" d="M12.9379 0.0458984C13.5342 0.294797 14.1681 0.903116 14.7043 1.28228C15.6676 1.95259 16.6352 2.6165 17.6072 3.274L26.2478 9.13721C27.1764 9.7785 28.1861 10.3484 29.0756 11.0373C29.7528 13.4161 30.0419 15.9435 30.6118 18.3576C30.7962 19.1386 30.9453 20.0041 31.3139 20.7207C32.2594 22.559 36.1434 26.0701 37.7632 27.7043C41.4764 31.4922 45.2285 35.2412 49.0195 38.9513L60.621 50.5374C64.239 46.8794 67.9947 43.3364 71.6666 39.73C72.8731 38.5451 75.2127 36.4958 76.0624 35.2583C76.4049 34.7595 76.5782 34.0632 76.6198 33.4658C76.712 32.142 76.1237 30.9202 75.8225 29.6579C75.3106 27.5134 75.3092 25.0783 75.6562 22.9082C76.6607 16.6285 80.3365 11.3482 85.4481 7.67555C91.5288 3.30661 99.9411 1.17916 107.351 2.43106C110.753 3.00588 111.087 3.95195 112.959 6.58512C111.686 7.58054 110.487 8.68736 109.275 9.75664C107.253 11.5186 105.294 13.348 103.397 15.2451C101.501 17.1422 99.6727 19.1023 97.9119 21.1256C101.351 26.8476 108.139 34.0048 113.455 38.0086C116.888 34.8411 120.365 31.7567 123.688 28.4683C125.592 26.5844 127.384 24.5807 129.229 22.6382L131.832 25.0323C132.851 25.986 133.303 26.8085 133.341 28.2229C133.346 28.51 133.348 28.7971 133.346 29.0843C133.344 29.3714 133.339 29.6585 133.33 29.9456C133.321 30.2326 133.309 30.5195 133.294 30.8062C133.278 31.0929 133.259 31.3794 133.236 31.6657C133.214 31.952 133.188 32.2379 133.158 32.5236C133.129 32.8092 133.096 33.0944 133.06 33.3793C133.024 33.6641 132.984 33.9485 132.941 34.2324C132.898 34.5163 132.851 34.7997 132.801 35.0824C132.751 35.3652 132.698 35.6473 132.641 35.9289C132.585 36.2103 132.524 36.4911 132.461 36.7711C132.397 37.0512 132.331 37.3304 132.26 37.6089C132.19 37.8873 132.117 38.1649 132.04 38.4415C131.963 38.7182 131.882 38.9939 131.799 39.2686C131.715 39.5433 131.628 39.817 131.538 40.0896C131.448 40.3623 131.355 40.6338 131.258 40.9042C131.162 41.1746 131.062 41.4438 130.958 41.7119C130.855 41.9798 130.749 42.2465 130.639 42.512C130.53 42.7773 130.417 43.0414 130.301 43.3042C130.185 43.5668 130.066 43.8281 129.944 44.0879C129.822 44.3477 129.696 44.6061 129.568 44.863C129.439 45.1197 129.308 45.375 129.173 45.6287C129.039 45.8823 128.901 46.1343 128.76 46.3847C128.62 46.635 128.476 46.8836 128.329 47.1305C128.183 47.3773 128.033 47.6224 127.881 47.8658C127.728 48.109 127.572 48.3504 127.414 48.5899C127.256 48.8294 127.094 49.067 126.93 49.3028C126.766 49.5384 126.599 49.772 126.43 50.0036C126.26 50.2352 126.087 50.4648 125.912 50.6923C125.737 50.9198 125.559 51.1452 125.378 51.3683C125.198 51.5915 125.014 51.8125 124.828 52.0313C124.642 52.2501 124.454 52.4666 124.263 52.6809C124.071 52.8951 123.878 53.107 123.681 53.3165C119.668 57.5175 114.143 60.5852 108.224 60.6652C107.163 60.6795 105.829 60.6837 104.811 60.3574C103.879 60.0588 103.148 59.4226 102.32 58.9277C100.319 57.7301 97.7881 56.9631 95.4456 57.0315C90.8778 57.1646 89.1763 60.6729 86.0091 63.2226C85.1426 63.9201 84.0941 64.2806 83.1798 64.8972C82.0345 65.6694 80.0093 67.7847 79.0091 68.8446L79.6474 69.4389C80.6095 68.2504 81.7638 67.0867 82.8944 66.0544C83.743 65.2795 85.1015 64.6693 86.2804 64.7726C87.5651 64.8848 90.1355 67.3687 90.9217 68.3671C91.7227 69.384 91.8574 70.4258 91.7169 71.673C90.3531 73.4412 88.6506 74.9204 87.2039 76.6213C88.34 78.0155 89.7539 79.2291 91.028 80.4974L97.7997 87.2637C104.119 93.4298 110.358 99.6757 116.517 106.001C117.139 106.637 119.489 109.287 120.157 109.299C120.441 109.305 120.702 109.179 120.902 108.984C121.103 108.786 121.256 108.497 121.244 108.208C121.229 107.836 121.012 107.587 120.777 107.318C118.964 105.248 116.826 103.385 114.897 101.419C112.302 98.7731 109.626 96.2099 106.992 93.6035L93.5239 80.096C91.918 78.4616 90.1595 76.9529 88.611 75.2688C89.8034 74.1276 90.9695 72.7685 92.2914 71.7896L108.987 88.3881C110.67 90.0608 112.308 91.775 114.008 93.4306C116.237 95.5427 118.376 97.7504 120.545 99.9236C122.628 102.01 125.152 104.176 126.711 106.688C126.833 106.886 126.95 107.087 127.061 107.292C127.172 107.497 127.277 107.705 127.376 107.916C127.475 108.127 127.568 108.341 127.654 108.558C127.741 108.774 127.821 108.993 127.895 109.214C127.968 109.435 128.035 109.658 128.096 109.883C128.157 110.108 128.211 110.335 128.258 110.563C128.306 110.791 128.346 111.021 128.38 111.251C128.414 111.482 128.441 111.713 128.462 111.946C128.478 112.14 128.488 112.335 128.494 112.531C128.5 112.726 128.501 112.922 128.497 113.117C128.493 113.312 128.484 113.508 128.471 113.703C128.457 113.898 128.439 114.092 128.415 114.286C128.392 114.48 128.364 114.674 128.331 114.867C128.299 115.059 128.261 115.251 128.218 115.442C128.176 115.633 128.129 115.822 128.077 116.011C128.025 116.199 127.969 116.386 127.907 116.572C127.846 116.757 127.781 116.942 127.71 117.124C127.64 117.306 127.565 117.487 127.486 117.665C127.407 117.844 127.323 118.021 127.235 118.195C127.147 118.37 127.054 118.542 126.958 118.712C126.861 118.882 126.76 119.049 126.655 119.214C126.55 119.379 126.442 119.541 126.329 119.701C126.216 119.86 126.099 120.017 125.978 120.17C125.857 120.324 125.732 120.475 125.604 120.622C123.534 123.045 120.67 124.687 117.468 124.928C115.126 125.105 112.407 124.674 110.368 123.453C108.308 122.219 106.637 120.341 104.929 118.675C102.959 116.754 101.004 114.841 99.0726 112.881C97.3767 111.159 95.6207 109.508 93.9039 107.809L82.4897 96.463L77.4207 91.404C76.5017 90.4881 75.6007 89.517 74.6072 88.6816L74.49 88.5839C74.3991 88.5924 74.3079 88.6018 74.2164 88.6055C72.5644 88.6726 71.4687 88.1942 70.2688 87.0943C68.9681 85.9019 67.413 84.3629 67.3652 82.4743C67.3534 82.007 67.4421 81.5552 67.6733 81.1459C68.4375 79.7937 70.637 78.0074 71.7624 76.7955C69.9154 75.068 68.2884 73.1212 66.374 71.4584C64.4874 73.4598 62.4435 75.3017 60.4537 77.1983C56.7534 80.7271 53.0714 84.2752 49.4079 87.8424C50.2546 88.7559 51.1451 89.6245 52.0795 90.448C55.1792 87.3271 58.4853 84.3901 61.6395 81.3197C62.9232 80.0706 64.1942 78.8087 65.4525 77.5339C66.5438 76.4366 67.7313 75.0796 69.0463 74.2552C69.4687 74.6961 69.832 75.2148 70.2076 75.6969C70.2499 76.172 70.2524 76.6507 70.2651 77.1272C69.0442 78.6218 67.123 79.8069 66.5471 81.7105C64.6543 83.3742 62.8456 85.1545 61.0211 86.8933C58.8864 88.9279 56.7285 90.9458 54.6636 93.0514C55.9081 94.2771 56.8644 95.4265 57.0476 97.2339C57.1886 98.6236 56.8214 99.9933 55.9192 101.074C54.7246 102.506 53.3832 103.827 52.1202 105.198C51.2379 106.156 50.2936 107.493 49.2356 108.232C48.8679 108.488 48.3777 108.615 47.9354 108.645C45.9437 108.777 44.6663 106.419 43.3121 105.28C43.2822 105.255 43.2517 105.23 43.2214 105.205C41.7673 107.063 40.4752 109.043 39.139 110.986L34.2129 118.064C32.9492 119.879 31.9326 121.76 30.3481 123.336C27.2679 126.4 22.7897 128.358 18.4248 128.327C13.4761 128.293 8.78859 126.381 5.32975 122.817C2.26188 119.655 0.436387 114.998 0.513066 110.596C0.588864 106.252 2.19631 101.698 5.30507 98.5859C7.03643 96.8526 9.15189 95.38 11.0488 93.826L17.3952 88.5496C19.2221 87.0488 21.1181 85.5943 22.8127 83.9444C22.1362 83.114 21.1077 82.1343 21.038 81.0114C20.9245 79.1803 22.7096 77.127 23.8617 75.8753C25.5265 74.0669 27.8048 71.6583 30.4251 71.5991C32.7985 71.5453 34.362 73.3909 35.8977 74.9134C37.5064 73.2051 39.2261 71.6396 40.8931 69.9931L53.3291 57.9278L31.2344 35.5004L26.6497 30.7852C25.8133 29.9306 24.921 28.8518 23.9122 28.2035C22.7301 27.4439 18.1947 26.2929 16.6398 25.7928C15.83 25.5323 14.9806 25.1996 14.3285 24.6375C11.7837 22.4434 5.18361 12.2111 3.49615 8.90541C4.40343 7.87562 5.49227 6.92533 6.48487 5.9731C8.58693 3.956 10.7227 1.93784 12.9379 0.0458984Z" fill="#2A2829"/>
<path id="Vector_3" d="M55.8741 60.5918C56.4481 60.8477 57.9676 62.7644 58.4451 63.3471C57.2658 64.6475 55.871 65.7875 54.6006 67.0015L46.9008 74.442C45.0245 76.2319 43.0185 77.9764 41.2944 79.9117C40.3564 79.084 39.4955 78.1596 38.6201 77.2661C41.1972 74.3711 44.1972 71.7707 47.0153 69.1092C49.9942 66.2958 52.8775 63.3875 55.8741 60.5918Z" fill="#FEFEFE"/>
<path id="Vector_4" d="M84.3602 79.542C84.7258 79.6649 85.0205 80.0109 85.2917 80.2716C86.9968 81.9111 88.6164 83.6444 90.3014 85.3053L109.781 104.7C111.483 106.376 113.175 108.063 114.857 109.759C115.524 110.433 116.541 111.255 117.004 112.08C117.134 112.311 117.116 112.557 117.029 112.8C116.858 113.273 116.365 113.492 115.934 113.655C115.164 113.124 114.48 112.329 113.82 111.668C112.312 110.159 110.86 108.593 109.335 107.102C100.528 98.3627 91.7745 89.5695 83.0752 80.7227C83.4755 80.3005 83.9234 79.9257 84.3602 79.542Z" fill="#FEFEFE"/>
<path id="Vector_5" d="M88.3463 75.1387C88.7119 75.2615 89.0066 75.6076 89.2777 75.8683C90.9828 77.5078 92.6024 79.2411 94.2874 80.9019L113.767 100.296C115.469 101.973 117.161 103.659 118.843 105.356C119.51 106.029 120.527 106.852 120.99 107.676C121.12 107.908 121.102 108.153 121.015 108.397C120.844 108.87 120.351 109.089 119.92 109.252C119.15 108.72 118.466 107.926 117.806 107.265C116.299 105.755 114.846 104.19 113.321 102.699C104.514 93.9594 95.7606 85.1662 87.0613 76.3194C87.4616 75.8972 87.9095 75.5224 88.3463 75.1387Z" fill="#FEFEFE"/>
<path id="Vector_6" d="M80.0845 83.6045C81.7926 85.1116 83.3802 86.8315 84.986 88.4499L93.0052 96.4848L107.776 111.086C108.973 112.277 110.217 113.419 111.397 114.627C111.802 115.041 112.375 115.518 112.558 116.082C112.643 116.343 112.633 116.618 112.472 116.851C112.196 117.247 111.776 117.293 111.335 117.33C108.863 115.392 106.244 112.46 103.981 110.187L91.8605 98.119C88.8535 95.1686 85.8656 92.1989 82.8968 89.21C81.6756 88.0034 79.6271 86.2826 78.6893 84.9301C79.1237 84.4527 79.5721 83.9981 80.0845 83.6045Z" fill="#FEFEFE"/>
<path id="Vector_7" d="M24.9689 78.7949C25.5132 79.2155 26.0456 79.894 26.5464 80.3833C28.4248 82.2189 30.2325 84.1258 32.0858 85.9869C37.928 91.854 43.842 97.6869 49.5304 103.703C48.967 104.261 48.3521 104.722 47.6932 105.16C47.3886 105.33 47.0074 105.498 46.6548 105.505C46.2815 105.513 46.0712 105.316 45.8117 105.078C44.7616 104.112 43.7833 103.035 42.771 102.028L33.1503 92.2644C30.983 90.0975 28.8374 87.9092 26.7135 85.6996C25.7049 84.664 24.5073 83.618 23.6403 82.4646C23.4736 82.2428 23.4258 82.0234 23.4221 81.7505C23.4061 80.5949 24.2039 79.57 24.9689 78.7949Z" fill="#FEFEFE"/>
<path id="Vector_8" d="M31.1831 72.498C31.2134 72.5069 31.2437 72.5153 31.2739 72.5245C31.901 72.7161 32.3472 73.0984 32.8385 73.5157C34.3876 74.8317 35.8297 76.2768 37.3047 77.674C41.3738 81.5275 45.297 85.5287 49.2603 89.4908C50.8933 91.1235 54.8343 94.383 55.7451 96.2423C55.9286 96.6167 55.8982 97.1099 55.7696 97.4963C55.5203 98.2446 54.6821 99.1742 53.9814 99.5215L29.0518 74.4781C29.7142 73.7446 30.3761 73.0732 31.1831 72.498Z" fill="#FEFEFE"/>
<path id="Vector_9" d="M28.5934 74.958C29.3662 75.5605 30.0746 76.4521 30.7706 77.1538L36.3066 82.7839C42.0344 88.527 47.9343 94.1354 53.4612 100.074C52.3472 101.057 51.2393 102.046 50.1376 103.043L50.0098 103.087C49.5032 102.76 49.0039 102.061 48.5742 101.623L44.6748 97.7178L25.4219 78.2441C26.5112 77.185 27.5423 76.0553 28.5934 74.958Z" fill="#FEFEFE"/>
<path id="Vector_10" d="M81.9752 41.1516C82.4924 41.1193 82.9073 41.1497 83.3909 41.3585C85.124 42.1077 88.0318 44.7827 88.6817 46.5856C88.9292 47.2722 89.0256 48.232 88.672 48.8986C88.4289 49.3568 88.0949 49.7751 87.7355 50.147C86.7371 51.1802 85.6454 52.1366 84.611 53.1349L77.4843 59.9842C76.403 61.0132 75.4127 62.1352 74.3399 63.1631C74.1684 63.3275 74.0226 63.4782 73.7896 63.5535L73.5572 63.3822C71.0818 60.9256 68.4952 58.5516 66.1271 55.9914C68.8502 53.5213 71.5183 50.9491 74.1522 48.3836C75.5997 46.9736 80.4732 41.857 81.9752 41.1516Z" fill="#FEFEFE"/>
<path id="Vector_11" d="M58.7498 63.6748C59.5774 64.2865 60.3403 65.1953 61.0679 65.9255C62.7726 67.6203 64.4476 69.344 66.0928 71.0966C64.1457 72.9884 62.1418 74.8174 60.1889 76.7023C56.4931 80.318 52.7628 83.8977 48.9979 87.4414C48.396 87.087 42.284 80.983 41.6787 80.2029C45.8774 76.241 50.026 72.2273 54.1243 68.1619C55.653 66.6542 57.2691 65.229 58.7498 63.6748Z" fill="#FEFEFE"/>
<path id="Vector_12" d="M13.3924 1.2666C14.2082 1.54529 15.3833 2.537 16.1252 3.03974L23.3216 7.96571C25.0648 9.15908 26.9606 10.2428 28.5893 11.5844C29.0713 14.5647 29.6715 17.521 30.3902 20.4533C28.228 22.4866 26.2788 24.8957 23.9798 26.7589L23.0582 26.463C21.8739 25.9762 20.6721 25.5373 19.4529 25.1462C18.1495 24.714 16.4085 24.3546 15.2784 23.5906C14.1698 22.8411 6.84687 11.1601 5.55566 9.02952C6.14389 8.25902 6.89799 7.54882 7.58158 6.86276C9.47934 4.95742 11.5188 3.19415 13.3924 1.2666Z" fill="#FEFEFE"/>
<path id="Vector_13" d="M20.8509 98.4492C21.0296 98.4231 21.1971 98.396 21.3755 98.4413C22.9178 98.8324 27.4375 101.701 29.0298 102.7C29.2195 104.036 29.539 105.346 29.8019 106.669C30.1851 108.599 30.5387 110.521 30.9866 112.438C30.3432 113.603 29.5184 114.688 28.749 115.771C27.8267 117.069 26.9186 118.381 25.9524 119.647C23.0897 120.41 20.177 121.05 17.3023 121.779C17.1838 121.816 17.0322 121.877 16.9092 121.882C16.6351 121.895 16.52 121.775 16.3085 121.624C14.7617 120.521 13.3212 119.227 11.8059 118.076C10.8459 117.347 9.65431 116.711 8.79409 115.889C8.40277 114.411 8.26809 112.843 8.07472 111.328C7.8458 109.539 7.59761 107.753 7.33014 105.97C8.875 104.03 10.933 102.08 12.6552 100.243C15.3762 99.6079 18.1202 99.044 20.8509 98.4492Z" fill="#FEFEFE"/>
<path id="Vector_14" d="M30.8878 21.4707L66.1889 56.9567L75.2393 66.0138C76.5989 67.3768 78.2742 68.7154 79.3751 70.2943C77.6307 72.1409 75.7595 73.8448 73.9947 75.6682L73.8501 75.6981C73.1491 75.3124 71.7814 73.7096 71.1487 73.0724L64.16 65.9916L25.5996 26.8448C27.3597 25.0639 29.2587 23.3722 30.8878 21.4707Z" fill="#FEFEFE"/>
<path id="Vector_15" d="M102.597 2.93194C104.678 2.92524 107.28 3.02748 109.252 3.70507C110.143 4.01126 110.645 4.53074 111.06 5.3594L110.991 5.43185C110.873 5.4047 110.674 5.34054 110.55 5.35535C110.324 5.38214 109.298 6.0125 109.032 6.14664C104.437 8.46852 98.159 12.3291 94.5674 16.0557L94.4624 16.1655C94.5822 16.636 94.7014 17.1089 94.8594 17.5683C96.8482 23.3575 105.096 32.3624 109.751 36.3395C111.822 38.1086 115.511 40.7266 117.95 41.9133C118.824 41.1953 119.614 40.3696 120.417 39.5732C124.206 35.8105 128.726 30.4467 131.363 25.7913C131.425 25.8502 131.486 25.9096 131.547 25.9697C132.342 26.7604 132.515 27.6534 132.513 28.7409C132.499 36.2025 129.88 45.2556 124.452 50.5771C119.786 55.1513 112.627 56.3677 106.546 54.184C105.542 53.8236 104.614 53.3069 103.656 52.8445C101.38 51.7458 99.0926 51.0143 96.5458 50.9967C92.473 50.9683 90.7028 53.0621 88.009 55.6945L80.7421 62.6759C79.3716 63.9865 77.9563 65.271 76.6586 66.6536C75.8006 65.8181 74.991 64.9219 74.1662 64.0529C76.1645 61.8631 78.3446 59.8856 80.5022 57.8586C81.9133 56.5329 83.278 55.1581 84.6774 53.8199C85.988 52.5666 87.7996 51.1088 88.8426 49.6734C89.2175 49.1576 89.3778 48.4003 89.3896 47.7735C89.4178 46.2611 88.5521 45.0035 87.5495 43.9575C86.2986 42.6527 84.3275 40.6134 82.4076 40.6053C81.7479 40.6027 81.2145 40.9655 80.7072 41.3531C78.9087 42.7268 76.9794 44.8756 75.3192 46.4867L65.8228 55.6395C64.9461 54.7864 64.0932 53.9062 63.2314 53.0377C64.1999 52.028 65.3221 51.1151 66.3353 50.1444C68.394 48.1724 70.3619 46.1112 72.4081 44.1271C74.1595 42.4287 76.0515 40.779 77.684 38.9727C80.6455 35.6956 81.7314 31.7872 81.1895 27.428C80.9663 25.6316 80.5505 23.8447 80.4594 22.0338C80.2456 17.7788 81.7643 13.3335 84.6469 10.171C89.1721 5.20675 96.0827 3.24606 102.597 2.93194Z" fill="#FEFEFE"/>
</g>
</svg>
