<svg width="32" height="32" viewBox="0 0 32 32" fill="none" xmlns="http://www.w3.org/2000/svg">
<g id="Group">
<path id="Vector" fill-rule="evenodd" clip-rule="evenodd" d="M7.4005 8.49171C7.56062 8.83277 7.90081 9.05121 8.27819 9.05121H12.9925V10.7165C12.9925 11.2523 13.4271 11.6863 13.9645 11.6863C14.4991 11.6863 14.9337 11.2523 14.9337 10.7165V9.05121H15.3797C15.9171 9.05121 16.3488 8.61721 16.3488 8.08121C16.3488 7.54577 15.9171 7.11177 15.3797 7.11177H14.9337V1.29221C14.9337 0.884269 14.6793 0.52002 14.2961 0.381395C13.9131 0.241895 13.4814 0.357082 13.2212 0.669832L7.53487 7.45877C7.29181 7.74721 7.24038 8.15039 7.4005 8.49171ZM32 15.9385C32 20.2108 30.3364 24.2312 27.3153 27.2523C24.2938 30.2738 20.2729 31.9385 16 31.9385C11.7271 31.9385 7.70625 30.2738 4.68481 27.2523C1.66363 24.2312 0 20.2108 0 15.9385C0 15.1356 0.651 14.4836 1.454 14.4836C2.2585 14.4836 2.908 15.1343 2.908 15.9385C2.908 23.156 8.78281 29.0293 15.9999 29.0293C23.2171 29.0293 29.0919 23.156 29.0919 15.9385C29.0919 9.39208 24.2046 3.80552 17.7098 2.95858C16.9152 2.85496 16.3543 2.12289 16.4569 1.32871C16.5596 0.53377 17.2924 -0.029918 18.0869 0.073832C21.9164 0.573895 25.4282 2.44927 27.9873 5.34127C30.5767 8.26746 32 12.0313 32 15.9385ZM12.9924 3.96064V7.11171H10.3566L12.9924 3.96064ZM17.9012 24.5592C17.6124 25.0101 17.7439 25.6101 18.1956 25.8986C18.3507 25.9986 18.5314 26.0518 18.7159 26.0518C19.0361 26.0518 19.3477 25.8943 19.5336 25.6053L25.5715 16.181C25.7631 15.8819 25.7745 15.5031 25.6058 15.1923C25.5219 15.0397 25.3986 14.9124 25.2488 14.8237C25.0989 14.735 24.928 14.6882 24.7539 14.688H19.2419C18.7044 14.688 18.2728 15.122 18.2728 15.6578C18.2728 16.1935 18.7045 16.6275 19.2419 16.6275H22.9814L17.9012 24.5592ZM22.9785 6.74008C23.3559 7.11889 23.3559 7.73296 22.9785 8.11183L8.68412 22.4062C8.49263 22.5955 8.24675 22.6901 7.998 22.6901C7.74931 22.6901 7.50056 22.5955 7.31187 22.4062C6.9345 22.0274 6.9345 21.4136 7.31187 21.0348L21.6063 6.74008C21.9836 6.36127 22.5983 6.36127 22.9785 6.74008ZM5.96819 4.70858C6.21406 3.80977 6.05969 3.13221 5.50787 2.69533C4.8875 2.20614 3.86119 2.12014 3.16363 2.49889C2.63475 2.78677 2.40031 3.28421 2.46894 3.97696C2.51756 4.51039 2.12875 4.98446 1.59413 5.03533C1.06238 5.08564 0.587813 4.69596 0.536313 4.16308C0.39625 2.68789 1.01375 1.46058 2.23738 0.795895C3.60681 0.0491446 5.48794 0.208707 6.7115 1.17471C7.87794 2.09839 8.28963 3.57277 7.84075 5.21946C7.53769 6.33102 6.49706 7.14152 5.29631 8.08033C4.6445 8.58752 3.94406 9.13352 3.358 9.74677H7.37475C7.90938 9.74677 8.34394 10.1807 8.34394 10.7165C8.34394 11.2523 7.90938 11.6863 7.37475 11.6863H1.474C1.30978 11.6859 1.14834 11.6439 1.00476 11.5642C0.861193 11.4845 0.74019 11.3697 0.653078 11.2305C0.565966 11.0913 0.515592 10.9322 0.50667 10.7683C0.497748 10.6043 0.530569 10.4407 0.602063 10.2929C1.39112 8.66646 2.832 7.54264 4.10131 6.55177C4.95325 5.88614 5.83669 5.19827 5.96819 4.70858Z" fill="#003399"/>
</g>
</svg>
