<svg width="148" height="119" viewBox="0 0 148 119" fill="none" xmlns="http://www.w3.org/2000/svg">
<g id="illustration / ai">
<path id="Vector" d="M132.277 93.0859C132.322 93.2391 132.323 93.1999 132.326 93.3409C132.375 95.621 130.875 97.5716 129.229 99.1791C126.175 102.164 121.395 104.659 116.985 105.564C115.323 105.905 113.637 105.994 111.94 106.052C111.952 105.666 113.215 104.3 113.499 103.845C114.361 102.463 115.025 101.012 115.672 99.5426C116.712 99.3924 117.764 99.3097 118.805 99.151C122.41 98.6023 127.466 97.1743 130.309 95.0848C131.101 94.5022 131.686 93.8355 132.277 93.0859Z" fill="#2A2829"/>
<path id="Vector_2" d="M79.2858 0.0606071C80.3461 -0.0360579 81.4969 6.06329e-05 82.5607 0.0508359C86.6112 0.243992 89.5667 1.26822 92.9973 3.12964C95.2301 3.01099 97.4133 3.01971 99.6253 3.35402C104.114 4.0326 108.241 5.59581 111.621 8.39875C112.587 9.19999 113.435 10.3671 114.494 11.0324C115.175 11.4599 116.165 11.6398 116.917 11.9867C119.371 13.1179 121.772 14.8006 123.556 16.7011C124.661 17.8782 125.657 19.2001 126.358 20.6127C126.74 21.3815 126.977 22.4457 127.562 23.091C128.255 23.8573 129.322 24.3549 130.141 25.0096C132.102 26.5765 133.735 28.685 135.037 30.7326C136.224 32.5989 137.296 34.6953 137.901 36.7797C138.163 37.6806 138.152 38.7788 138.601 39.616C139.101 40.5491 140.053 41.3334 140.715 42.1811C142.579 44.5663 143.927 47.9466 144.473 50.8249C144.665 51.8389 144.626 52.9195 144.896 53.9152C145.11 54.7064 145.652 55.4176 145.944 56.1932C147.168 59.4386 147.928 63.0225 147.273 66.4435C146.796 68.9362 145.31 71.1323 144.414 73.5047C142.815 77.7412 141.554 84.9278 138.69 88.3584C137.075 90.2934 134.653 91.2286 132.515 92.5823C132.942 90.0692 133.948 87.6182 134.673 85.1647C135.087 83.7607 135.335 82.3533 135.569 80.9181C134.761 82.0783 134.431 83.4881 133.999 84.792C133.223 87.1317 131.476 92.6537 129.816 94.3568C127.379 96.8574 120.469 98.2592 116.868 98.4691C117.504 97.5759 118.257 96.7516 118.874 95.8436C120.656 93.2164 121.661 89.9237 121.588 86.8421C121.098 87.2525 120.632 87.6892 120.16 88.1162C120.143 89.56 120.065 91.0252 119.611 92.4178C118.914 94.5627 117.647 96.4667 115.977 98.106C114.425 99.6305 111.857 101.263 109.625 101.827C107.536 102.354 105.226 102.278 103.077 102.17C100.853 102.06 98.6379 101.864 96.4327 101.581C91.8881 100.983 87.2757 100.121 82.6716 100.09C81.9496 100.085 80.2603 99.9339 79.6806 100.221C82.0919 100.328 84.4031 100.473 86.7903 100.831C94.737 102.023 103.433 104.49 111.347 101.799C112.443 101.426 113.441 100.897 114.454 100.372C113.967 101.449 113.359 102.508 112.697 103.504C112.085 104.425 111.399 105.371 110.503 106.087C108.517 107.675 104.775 108.572 102.2 109.154C98.2218 109.958 93.6734 109.724 89.6879 109.117L89.6602 109.169L89.617 109.116L89.5453 109.147C90.0112 109.27 90.4571 109.413 90.936 109.497C97.2111 110.588 104.704 110.349 110.121 107.051C108.522 110.533 104.991 113.759 101.509 115.746C101.077 115.993 100.635 116.224 100.182 116.439C99.7292 116.654 99.2675 116.851 98.7969 117.032C98.3264 117.212 97.8484 117.375 97.363 117.52C96.8777 117.665 96.3867 117.792 95.89 117.901C91.1031 118.91 85.1742 118.229 80.4157 117.246C73.1529 115.745 66.644 112.357 62.0786 106.983C61.2045 105.955 60.4669 104.803 59.7047 103.704C54.7784 105.102 49.8703 106.467 44.6497 105.744C44.4799 105.722 44.3104 105.698 44.1411 105.672C43.972 105.646 43.8032 105.618 43.6349 105.588C43.4665 105.558 43.2986 105.527 43.131 105.494C42.9634 105.46 42.7963 105.425 42.6297 105.388C42.4632 105.35 42.2971 105.311 42.1316 105.271C41.9661 105.23 41.8011 105.187 41.6367 105.142C41.4724 105.098 41.3086 105.052 41.1455 105.003C40.9824 104.955 40.82 104.905 40.6582 104.854C40.4964 104.802 40.3354 104.748 40.1751 104.693C40.0148 104.637 39.8553 104.58 39.6966 104.521C39.5379 104.462 39.3799 104.402 39.2228 104.339C39.0657 104.277 38.9095 104.213 38.7541 104.147C38.5987 104.081 38.4443 104.013 38.2909 103.944C38.1373 103.874 37.9847 103.803 37.8332 103.731C37.6817 103.658 37.5311 103.583 37.3815 103.507C37.2319 103.431 37.0834 103.354 36.936 103.274C36.7885 103.195 36.6421 103.114 36.4969 103.031C36.3517 102.948 36.2076 102.864 36.0647 102.778C35.9216 102.692 35.7799 102.605 35.6394 102.516C35.4988 102.427 35.3594 102.336 35.2213 102.244C35.0831 102.152 34.9462 102.058 34.8106 101.963C34.6751 101.868 34.5408 101.771 34.4079 101.673C34.2749 101.575 34.1433 101.475 34.0131 101.374C33.8828 101.273 33.754 101.171 33.6266 101.067C33.4991 100.963 33.373 100.857 33.2484 100.751C33.1238 100.644 33.0007 100.536 32.879 100.426C32.7574 100.317 32.6373 100.206 32.5185 100.094C32.3999 99.9816 32.2828 99.8681 32.1673 99.7533C32.0517 99.6386 31.9377 99.5226 31.8253 99.4052C31.7128 99.2878 31.602 99.1693 31.4929 99.0496C31.3837 98.9298 31.2761 98.8088 31.1702 98.6867C31.0643 98.5644 30.9601 98.4411 30.8575 98.3166C28.0931 97.7928 25.4316 97.0022 22.7529 96.2023C18.7624 95.0108 14.401 93.806 10.9354 91.5872C7.57548 89.436 5.45338 86.5774 4.77075 82.895C4.58395 81.8869 4.60072 80.6806 4.13921 79.7491C3.77254 79.0084 3.07565 78.327 2.54416 77.6737C1.31423 76.1616 0.498201 74.1667 0.161224 72.3235C-0.395713 69.2773 0.537142 65.8921 2.23725 63.2492C2.8206 62.3424 3.53774 61.4904 4.20861 60.635C3.59037 58.9875 3.27652 57.4566 3.27922 55.713C3.28713 50.4337 5.96 44.8361 9.7134 40.8102C10.5634 39.8983 11.5513 39.1311 12.4813 38.292C12.8408 36.8704 13.1853 35.4491 13.7242 34.0719C15.5498 29.4052 19.0258 24.9266 23.5746 22.1337C24.4796 21.578 25.4306 21.0695 26.3835 20.5845C27.2441 20.1463 28.3882 19.7134 29.0978 19.0944C30.145 18.1811 31.3505 15.7577 32.4927 14.5166C36.4128 10.2568 41.4762 7.43768 47.5568 6.50785C49.0639 6.27735 50.5805 6.23775 52.0998 6.11735C54.4569 4.45677 55.8761 3.15319 58.7393 2.04817C63.3798 0.257079 68.2984 -0.286095 73.0467 1.44271C75.1264 0.516888 77.0017 0.246783 79.2858 0.0606071Z" fill="#2A2829"/>
<path id="Vector_3" d="M137.94 41.8682C138.566 42.4131 139.101 43.0768 139.586 43.7275C142.068 47.0589 143.597 52.3338 142.756 56.3185C142.443 55.7667 142.12 55.2193 141.789 54.6763C139.834 51.6819 137.663 49.0065 135.131 46.3987C136.369 45.0838 137.099 43.4083 137.94 41.8682Z" fill="#FEFEFE"/>
<path id="Vector_4" d="M143.451 55.7373C144.24 56.3906 145.198 61.0019 145.326 62.0286C146.025 67.6091 143.327 72.1737 139.581 76.4029C139.503 76.4836 139.419 76.5454 139.329 76.6138C139.208 76.3249 139.68 75.1296 139.746 74.7082C139.855 73.996 139.879 73.2814 139.819 72.5645C139.637 70.1746 138.488 67.7271 138.51 65.411C138.531 63.1946 140.747 61.2191 141.9 59.3769C142.633 58.2066 143.121 57.0463 143.451 55.7373Z" fill="#FEFEFE"/>
<path id="Vector_5" d="M77.039 4.24729C77.8558 4.14539 78.7966 4.19373 79.612 4.28795C82.6483 4.63849 86.0803 5.99634 87.978 8.24493C90.0296 10.676 90.7941 15.744 90.3193 18.7139C89.7822 22.0734 87.9651 25.5466 84.8976 27.6052C84.417 27.3469 83.9326 27.1068 83.4171 26.9093C79.5943 25.4452 75.2957 26.8833 71.7066 28.2148C70.1796 24.1699 67.8924 21.9234 63.8198 19.7917C61.9049 18.8952 59.9525 18.3705 57.8369 18.0334C58.5525 16.4152 60.0298 14.9434 61.5913 13.9501C64.8766 11.8603 69.0055 11.9432 72.8067 12.5758C76.8391 13.2471 80.0882 15.9085 82.346 18.8809L82.3952 18.8205C82.2804 18.6823 82.3184 18.743 82.2396 18.5909C82.1584 18.4363 82.0739 18.2831 81.9861 18.1313C81.8984 17.9796 81.8076 17.8295 81.7135 17.6809C81.6196 17.5324 81.5224 17.3855 81.422 17.2402C81.3218 17.095 81.2185 16.9516 81.1122 16.8099C81.0059 16.6683 80.8967 16.5286 80.7845 16.3908C80.6722 16.2529 80.557 16.1171 80.439 15.9832C80.3212 15.8493 80.2004 15.7175 80.0768 15.5878C79.9533 15.4581 79.8271 15.3306 79.6982 15.2053C79.5693 15.0801 79.4377 14.957 79.3036 14.8363C79.1695 14.7154 79.0329 14.597 78.8937 14.481C78.7547 14.365 78.6132 14.2514 78.4692 14.1403C78.3253 14.0292 78.179 13.9206 78.0305 13.8145C77.882 13.7084 77.7313 13.605 77.5784 13.5041C77.4256 13.4033 77.2707 13.3051 77.1136 13.2096C76.9566 13.1141 76.7975 13.0214 76.6365 12.9314C76.4756 12.8414 76.3128 12.7542 76.1482 12.6699C75.2467 12.1974 74.2194 11.8543 73.3685 11.3154C72.3697 10.6825 71.7241 9.63593 71.5412 8.55342C71.3804 7.60248 71.5953 6.51595 72.2664 5.75066C73.3695 4.49227 75.4104 4.41096 77.039 4.24729Z" fill="#FEFEFE"/>
<path id="Vector_6" d="M57.0027 86.4306C57.6129 86.3486 58.2936 86.3585 58.9122 86.3612C62.1295 86.3744 66.9543 87.4138 69.2775 89.5563C71.9793 92.048 72.9754 95.4775 72.9451 98.8697C71.0792 99.1194 69.2261 99.4322 67.386 99.8079C65.546 100.184 63.7241 100.621 61.9203 101.121C57.3256 102.376 53.0469 103.936 48.1916 104.146L48.0773 104.149C43.1034 104.213 37.7048 102.396 34.1228 99.2455C33.0589 98.3096 32.2758 97.1321 32.2912 95.7452C32.3146 93.6262 34.6543 91.5238 36.2214 90.1196C39.7094 89.8833 43.0296 89.6502 46.4312 88.8617C49.9837 88.0381 53.3266 86.7635 57.0027 86.4306Z" fill="#FEFEFE"/>
<path id="Vector_7" d="M94.8825 8.86684C94.901 8.86335 94.9192 8.85864 94.9379 8.85637C97.3206 8.57999 99.9759 8.95792 101.993 10.1781C105.538 12.3229 107.792 16.0461 108.781 19.7293C109.023 20.6315 109.08 21.5448 109.284 22.45C109.299 22.4094 109.321 22.3705 109.33 22.3282C109.46 21.6758 109.329 20.7732 109.252 20.1154C108.826 16.4875 107.499 14.2471 105.242 11.3306C108.992 10.9957 112.482 11.63 115.833 13.1941C119.973 15.126 123.856 18.578 125.26 22.6767C126.157 25.2943 125.681 27.5347 124.304 29.9149C123.7 29.8341 119.397 29.0074 119.292 29.0276C122.489 30.4519 126.005 31.1982 128.707 33.455C130.326 34.8067 131.558 36.7088 131.882 38.695C132.021 39.5423 132.001 40.4362 132.044 41.2929C132.363 40.1423 132.353 38.6548 132.098 37.4952C131.531 34.9165 129.657 32.982 127.318 31.5505C127.387 29.2134 127.108 27.0971 126.52 24.8232C127.739 25.4648 128.75 26.2158 129.74 27.122C133.395 30.5177 136.375 35.9554 136.573 40.7553C136.649 42.5881 136.044 44.4478 134.636 45.8077C132.175 46.5627 128.098 46.6803 125.527 46.2441C119.784 45.2703 118.898 39.3957 116.941 35.3166C115.917 33.1811 114.582 31.2818 113.139 29.3609C113.354 28.7523 113.695 28.1489 114.035 27.59C115.388 25.3631 117.425 23.6641 120.07 22.7636C120.999 22.4474 121.97 22.2525 122.921 21.9992C119.277 21.9622 115.636 23.3764 112.815 25.4088C112.014 25.9854 111.301 26.6567 110.543 27.2775C106.245 23.8873 102.374 22.5353 96.7106 22.7959C96.4914 22.7013 96.2771 22.5984 96.0677 22.4872C91.0418 19.8214 91.5611 15.0869 90.2393 10.4941C91.4883 9.43462 93.2414 9.08093 94.8825 8.86684Z" fill="#FEFEFE"/>
<path id="Vector_8" d="M79.6304 1.71882C83.1166 1.56754 86.4565 1.90116 89.6011 3.3623C90.6255 3.8383 91.5724 4.43207 92.5934 4.91208L92.7073 4.96477C93.2012 4.84804 93.681 4.75661 94.1927 4.7273C98.7193 4.46767 103.922 5.7353 107.732 7.9593C109.072 8.74152 110.237 9.67554 111.424 10.6317C109.043 10.1969 106.849 10.3098 104.453 10.5269C103.435 9.81041 102.396 9.08054 101.239 8.55552C97.9964 7.0853 94.0097 7.5346 90.5461 6.61122C88.0544 5.94713 85.8623 4.57532 83.4248 3.7603C79.5232 2.45585 72.3169 2.53943 69.7998 6.06107C68.8446 7.39745 68.68 9.20094 67.3691 10.3105C66.299 11.2161 64.4363 11.3335 63.1075 11.8964C60.3101 13.0817 57.8341 15.3317 56.7616 17.9791C55.2323 17.9735 53.7111 17.9901 52.1995 18.2314C49.3736 18.6827 46.8605 19.7962 43.8711 19.1597C42.7185 18.9142 41.6224 18.3042 41.0099 17.3681C40.1056 15.9855 40.3708 14.3483 40.7957 12.8789C40.4672 13.5221 40.222 14.1493 40.0479 14.841C39.4019 17.4068 39.3998 20.9949 40.9937 23.3011C39.6229 24.5324 38.3453 25.8384 37.1609 27.219C36.228 28.289 35.3686 29.5168 34.2378 30.425C29.7187 34.0543 23.4044 31.1561 17.9033 32.9919C20.522 32.7422 23.3728 32.6085 25.8772 33.4782C31.4061 35.398 30.8833 39.551 32.9429 43.7178C32.0482 44.3252 31.1915 44.9483 30.4212 45.6848C26.7854 49.1616 25.8587 53.5294 26.0185 58.1616C25.6235 58.78 25.0933 59.3558 24.5391 59.8621C22.1828 62.0151 18.8286 63.0967 15.5225 63.1168C12.6805 62.504 12.0517 62.9158 9.75029 60.8345C7.51561 58.8135 6.47075 56.0994 6.48559 53.2774C6.46458 53.3107 6.43856 53.3418 6.42275 53.3772C5.76653 54.8513 6.48598 58.3226 6.95 59.8025C6.56213 59.6472 6.20606 59.4596 5.84113 59.2657C5.10009 57.9534 5.00525 56.344 5.08255 54.8965C5.34974 49.8994 8.74631 43.7112 12.8334 40.3569C12.8478 40.7315 12.8718 41.1055 12.9053 41.479C13.3499 46.0137 16.7884 48.8517 20.43 51.5985C18.8205 49.4684 16.5509 48.3408 15.1814 45.79C13.3597 42.3975 13.9257 38.365 15.2514 34.9203C17.6984 28.5629 22.6233 24.0032 29.2574 21.1103C28.684 22.7672 27.9513 24.3609 27.4439 26.0409C29.7927 21.4202 32.1271 16.6558 36.3832 13.1745C40.7724 9.58446 46.2192 7.8239 52.1087 8.07062C52.4126 10.8371 50.4185 12.1307 49.5523 14.7618C49.9018 14.2683 50.2592 13.7746 50.6444 13.3034C53.5152 9.79262 57.6901 7.24338 62.5028 6.58575L62.5053 6.53864L62.2892 6.51892L62.3694 6.58243L62.3285 6.50269C59.2541 6.81293 57.7319 6.8548 54.8934 8.09557L54.2881 6.73458C55.4797 5.66167 57.0572 4.72451 58.5284 3.99865C63.5723 1.51048 67.9216 1.64571 73.2635 3.09132C75.3331 2.18958 77.3456 1.81985 79.6304 1.71882Z" fill="#FEFEFE"/>
<path id="Vector_9" d="M54.6751 18.9059C58.0266 18.6602 61.6928 19.6516 64.5057 21.2726C67.6929 23.1092 69.9143 25.4466 70.7405 28.8161C69.4009 29.7283 68.0418 30.6067 66.9848 31.8003C64.2045 34.9409 63.9275 38.7758 64.0831 42.6394C64.1577 44.493 64.2678 46.287 63.7527 48.1036C63.6808 48.3588 63.5984 48.6112 63.5055 48.8607C63.4126 49.1102 63.3094 49.3562 63.1959 49.5986C63.0824 49.841 62.959 50.0792 62.8256 50.3131C62.6921 50.5471 62.549 50.7762 62.3965 51.0004C61.5789 52.2279 57.2358 57.1468 57.3748 58.2381C57.7007 57.6789 58.0581 57.1367 58.447 56.6115C58.8359 56.0864 59.2542 55.5812 59.7018 55.0959C61.4006 53.2783 63.2649 51.8906 64.1612 49.5616C64.8193 47.852 64.844 46.2031 64.8798 44.4179C64.9498 40.927 64.7416 36.7046 66.7635 33.616C68.8191 30.4757 72.5349 28.4495 76.3789 27.5869C83.7421 25.9347 87.322 30.0394 91.94 34.3737C92.7207 35.1065 93.6538 36.2063 94.5974 36.7217C93.5044 34.8219 90.0079 31.186 88.2835 29.6465C88.3462 29.1012 88.4061 28.5898 88.6631 28.0838C89.5894 26.2587 91.7661 25.1244 93.755 24.4425C97.4313 23.1818 101.661 23.5095 105.201 24.9928C110.73 27.3091 114.589 32.1589 116.622 37.2199C118.099 40.8949 118.94 45.4085 118.18 49.2798C117.874 50.8366 117.286 52.312 116.55 53.7412C114.446 50.4518 111.59 47.6553 107.65 46.152C106.629 45.7622 105.19 45.4757 104.399 44.769C103.858 44.2851 103.607 43.6244 103.652 42.9446C103.736 41.6426 104.404 40.2906 104.838 39.0481C105.735 36.4797 106.401 33.6028 106.306 30.9084L106.165 30.9358C106.22 30.763 106.181 30.8326 106.262 30.7191C106.098 33.4372 104.956 36.6217 103.425 38.9457C101.526 41.827 97.9793 44.9065 94.2774 45.7102C88.6755 46.9265 79.2951 42.0076 74.5787 39.314C73.472 38.6819 72.4591 37.8967 71.3477 37.2884L71.2275 37.3766L71.1862 37.3338L71.4247 37.3026L71.0349 37.1298C71.2982 37.5826 72.2596 38.208 72.7225 38.5604C74.4715 39.8925 76.3901 41.0947 78.3391 42.1739C82.5387 44.4996 86.7951 46.2601 89.1113 50.4471C91.0777 54.0014 91.6581 58.4289 90.7725 62.3144C90.5788 63.1643 90.2562 63.9846 89.9557 64.8074L90.0529 64.8753L89.8861 64.9622L89.9272 64.9826C90.2919 64.5937 90.5371 63.9683 90.7688 63.4944C93.0556 58.8175 91.0302 53.5371 93.6256 49.6558C94.8642 47.8035 96.8182 46.5678 99.1317 46.053C102.605 45.2801 106.191 46.0946 109.203 47.7497C113.343 50.0241 116.209 54.603 117.307 58.7809C119.246 66.1658 114.105 73.111 110.035 79.1165C113.622 75.9311 115.655 70.8059 120.058 68.5721C121.322 67.9311 123.193 67.2438 124.651 67.324C126.17 67.4074 128.964 68.8571 130.53 69.4135C131.868 69.8888 133.215 70.2718 134.599 70.6217C132.73 69.6416 130.734 68.8642 128.851 67.9012C122.471 64.6371 119.183 60.5629 116.799 54.3688C119.899 51.0091 123.591 48.2168 128.537 47.6403C130.591 47.4008 132.566 47.3313 134.551 46.7279C135.485 48.0584 136.741 49.1962 137.875 50.3886C139.733 52.3429 141.387 54.3392 142.732 56.6181C142.309 57.9207 141.562 59.2291 140.212 59.9337C139.578 60.2644 138.788 60.4095 138.078 60.2087C137.337 59.9995 136.695 59.3733 136.41 58.7308C136.181 58.2127 136.172 57.5244 136.08 56.9715C135.818 55.3868 135.384 53.789 134.542 52.367C134.595 53.1825 135.066 54.1205 135.259 54.9352C136.288 59.2871 135.559 60.9291 132.978 64.5588C133.915 64.5906 134.606 64.6891 135.379 65.2138C137.307 66.5212 138.29 69.4882 138.64 71.536C139.013 73.7223 138.796 75.9145 137.301 77.7309C134.415 81.2368 128.505 83.8162 123.812 84.4547C124.604 82.9758 125.339 81.4841 125.673 79.8593C126.072 77.9169 126.129 75.2937 124.843 73.5799C124.776 73.9932 125.157 74.8442 125.229 75.3174C125.59 77.6913 124.9 80.2857 123.604 82.3561C123.53 82.4754 123.454 82.5938 123.376 82.7114C123.299 82.829 123.219 82.9457 123.139 83.0616C123.058 83.1773 122.976 83.2922 122.892 83.4062C122.808 83.5202 122.722 83.6332 122.635 83.7452C122.548 83.8574 122.46 83.9685 122.37 84.0785C122.28 84.1887 122.188 84.2978 122.095 84.4058C122.002 84.5139 121.908 84.6209 121.812 84.7269C121.716 84.8327 121.619 84.9376 121.52 85.0413C121.421 85.1452 121.321 85.2479 121.22 85.3494C121.118 85.451 121.015 85.5514 120.911 85.6506C120.807 85.7498 120.701 85.8479 120.594 85.9448C120.487 86.0417 120.379 86.1374 120.269 86.2318C120.16 86.3263 120.049 86.4195 119.937 86.5115C119.825 86.6035 119.711 86.6943 119.597 86.7839C119.482 86.8734 119.366 86.9615 119.25 87.0484C119.133 87.1353 119.014 87.2209 118.895 87.3051C118.776 87.3894 118.655 87.4724 118.534 87.5539C118.412 87.6354 118.29 87.7157 118.166 87.7945C118.042 87.8734 117.917 87.9508 117.792 88.0268C117.666 88.1028 117.539 88.1775 117.411 88.2508C117.283 88.324 117.154 88.3957 117.024 88.4661C116.895 88.5365 116.764 88.6054 116.632 88.6729C116.5 88.7402 116.368 88.8062 116.234 88.8707C116.101 88.9352 115.966 88.9982 115.831 89.0597C115.696 89.1211 115.56 89.1811 115.423 89.2396C115.286 89.298 115.149 89.3549 115.01 89.4103C114.872 89.4656 114.733 89.5194 114.593 89.5717C114.453 89.624 114.312 89.6747 114.171 89.7238C114.03 89.773 113.888 89.8206 113.746 89.8665C113.603 89.9125 113.46 89.9569 113.316 89.9997C113.172 90.0425 113.028 90.0837 112.883 90.1232C112.738 90.1628 112.593 90.2007 112.447 90.237C108.959 91.0942 104.799 90.8503 101.629 89.1951C101.429 87.3787 101.132 85.5538 100.653 83.7791C99.5937 79.8504 97.9107 76.1047 98.1968 71.9744C98.3743 69.4135 99.8747 67.718 101.476 65.7128C102.615 64.2873 103.789 62.8774 104.829 61.3898C106.489 59.0133 107.849 56.5681 108.797 53.8864C109.186 52.7847 109.679 51.4956 109.704 50.3337C109.548 50.5071 109.56 50.6587 109.513 50.8688C108.021 57.6036 98.9752 66.6102 92.6852 70.3299C88.4601 72.634 80.1196 74.0098 75.1653 74.6022C73.4321 74.8095 71.6656 74.8444 69.9434 75.1115C72.4927 75.1457 75.1218 75.0798 77.6599 74.8507C81.3196 74.5202 85.1885 73.9161 88.8615 74.129C91.5357 74.2839 94.0233 75.0305 95.8275 76.901C98.9671 80.1562 100.458 85.8253 100.1 90.0579C99.9065 92.3496 98.9014 94.5743 96.9418 96.0866C93.1799 98.9902 87.0183 98.7316 82.3498 98.698C79.778 98.6795 77.1805 98.6341 74.6165 98.4458C74.2764 95.8762 73.8961 92.9235 75.2561 90.5418C77.8072 86.0739 85.6818 84.9139 90.5444 83.5269C89.3062 83.5559 87.966 83.8422 86.7475 84.0391C84.2627 84.4419 81.7874 84.8879 79.3216 85.377C73.9219 86.452 70.8851 87.0638 65.7676 84.5479C63.04 83.2069 60.2564 81.0299 59.366 78.242C59.0485 77.2483 59.0119 76.2443 59.0402 75.2164C59.1277 72.0358 60.203 68.7908 62.9297 66.6366C64.6495 65.2777 66.9661 64.3939 68.9436 63.3719C72.8327 61.3619 77.6636 57.4543 79.8117 53.877C79.8317 53.8436 79.8508 53.81 79.8703 53.7765C77.9169 55.8043 75.8464 57.631 73.4797 59.2621C72.5403 59.9098 71.5775 60.5379 70.5518 61.0693C67.1166 62.8488 60.6825 65.2239 56.7907 64.7303C51.025 63.999 44.695 60.3931 40.8654 56.4969C39.7386 55.3505 38.885 54.0541 37.8646 52.8416C37.9676 53.5948 38.9091 54.6309 39.3612 55.2653C41.6666 58.5001 44.9861 61.5664 48.5 63.734C50.0103 64.6656 51.7863 65.4317 53.1364 66.538C54.0316 67.2715 54.758 68.19 55.3053 69.1614C56.4523 71.1968 57.7391 75.5184 57.8529 77.7787C57.9589 79.8898 56.9125 81.9325 55.3537 83.465C51.4544 87.2986 41.9662 89.0773 36.3523 89.2347C35.3664 89.2625 34.3875 89.2147 33.4333 88.974C30.8444 88.3211 28.433 87.1008 25.9795 86.1277C23.9183 85.31 21.7626 84.6454 19.7842 83.6692C18.9853 83.275 18.2976 82.8404 17.6349 82.2755C14.8371 79.8908 13.8722 76.7637 14.016 73.3508C14.0523 72.4941 14.3098 71.6204 14.2736 70.7679C14.2726 70.744 14.2707 70.7201 14.2693 70.6963L14.4128 70.7377L14.1442 70.8813C14.1448 71.5079 13.947 72.1637 13.8558 72.7872C13.7082 73.7982 13.6956 74.8349 13.7693 75.8519C13.7834 76.0596 13.8042 76.2668 13.8317 76.4734C13.8592 76.68 13.8934 76.8856 13.9341 77.0904C13.9748 77.2952 14.0222 77.4988 14.0762 77.7011C14.13 77.9033 14.1904 78.104 14.2572 78.303C14.3242 78.5022 14.3974 78.6993 14.477 78.8945C14.5566 79.0897 14.6425 79.2826 14.7345 79.4733C14.8267 79.6641 14.9248 79.8522 15.0289 80.0376C15.1331 80.2231 15.2433 80.4057 15.3593 80.5853C18.2225 84.9822 23.2848 85.5267 27.3012 88.7674C29.509 90.549 31.1425 93.898 31.3181 96.5577C29.4377 96.3438 27.4695 95.6553 25.6728 95.1311C23.2101 94.4301 20.7622 93.689 18.3291 92.9076C14.0324 91.4913 9.6947 89.5621 7.68961 85.6098C6.07028 82.4179 6.38142 79.6713 7.69559 76.4842C7.03031 77.3046 6.5794 78.2871 6.12888 79.2163C4.20399 77.0415 2.46166 74.7132 2.02636 71.8921C1.37631 67.6781 3.34458 64.5928 6.04984 61.3575C8.28491 62.2948 12.6496 63.8333 15.0148 64.2206C15.971 64.3772 16.9355 64.3576 17.9028 64.3527C21.0609 64.3367 22.805 64.5454 25.521 66.1368C28.1955 67.7041 29.1291 69.4353 30.9117 71.7089C34.716 76.5601 40.097 80.4981 46.669 81.6743L46.7718 81.6097L46.8015 81.6514C46.1651 81.3326 45.3714 81.2274 44.6917 80.9709C44.1798 80.7776 43.6754 80.5694 43.1786 80.3464C42.6816 80.1234 42.1932 79.886 41.7133 79.6342C41.2334 79.3825 40.7631 79.1168 40.3023 78.8373C39.8416 78.5579 39.3913 78.2652 38.9515 77.9593C32.9047 73.8257 28.3067 66.9442 27.3048 60.1241C26.639 55.5916 27.7295 50.6226 30.8595 46.9722C32.7138 44.8098 35.2024 43.4305 37.915 42.2977C42.2669 40.4803 46.5869 39.7021 50.8494 42.1384C52.8778 43.2977 54.7008 44.6584 56.8101 45.722C57.1122 45.8744 57.8909 46.349 58.2005 46.3128C57.6701 45.888 56.9821 45.5578 56.4088 45.1715C54.3769 43.802 52.0537 41.899 51.2319 39.6574C49.809 35.7767 52.6978 31.2448 54.8581 27.992C55.453 27.096 56.1412 26.2341 56.6623 25.3013C55.3924 26.6703 54.0677 28.0266 52.9239 29.4849C52.1715 30.4444 51.5234 31.4753 50.8469 32.4794C48.5932 35.8254 45.6066 38.4971 41.6285 40.1278C40.2177 40.7061 38.7302 41.1461 37.2946 41.6752C36.6102 41.9275 34.2674 43.0257 33.904 43.0849C33.7968 43.1023 33.8016 43.1028 33.7228 43.0313C33.3492 42.6928 33.2931 42.0041 33.2507 41.5445C32.7211 35.799 35.7308 30.0232 39.7811 25.7429C39.8965 25.6195 40.0135 25.4973 40.1323 25.3765C40.2512 25.2557 40.3716 25.1363 40.4936 25.0181C40.6157 24.9 40.7394 24.7833 40.8647 24.6681C40.99 24.5528 41.1168 24.439 41.2452 24.3266C41.3737 24.2141 41.5037 24.1031 41.6352 23.9937C41.7667 23.8841 41.8996 23.7761 42.0341 23.6697C42.1686 23.5631 42.3045 23.4581 42.4418 23.3547C42.5792 23.2513 42.718 23.1495 42.8582 23.0492C42.9984 22.9489 43.1399 22.8502 43.2827 22.7531C43.4256 22.656 43.5698 22.5605 43.7153 22.4668C43.8609 22.3729 44.0077 22.2807 44.1558 22.1902C44.3038 22.0997 44.4531 22.0108 44.6036 21.9236C44.7541 21.8365 44.9058 21.751 45.0586 21.6673C45.2115 21.5836 45.3655 21.5017 45.5206 21.4214C45.6758 21.3412 45.832 21.2626 45.9893 21.1859C46.1465 21.1092 46.3047 21.0343 46.4641 20.9611C46.6235 20.888 46.7838 20.8166 46.9451 20.747C47.1065 20.6775 47.2688 20.6098 47.4319 20.5439C47.5951 20.4781 47.7592 20.4141 47.9242 20.352C48.0891 20.2898 48.2548 20.2294 48.4214 20.1711C48.5881 20.1127 48.7555 20.0561 48.9236 20.0015C49.0918 19.9468 49.2607 19.8941 49.4304 19.8434C49.5999 19.7925 49.7702 19.7436 49.9412 19.6966C50.1122 19.6496 50.2838 19.6046 50.456 19.5614C50.6282 19.5184 50.801 19.4772 50.9744 19.438C51.1477 19.3988 51.3215 19.3616 51.4958 19.3262C51.6702 19.291 51.8451 19.2577 52.0204 19.2264C52.1957 19.195 52.3713 19.1656 52.5474 19.1383C52.7235 19.1109 52.8999 19.0856 53.0768 19.0622C53.2536 19.0388 53.4307 19.0174 53.6081 18.998C53.7854 18.9787 53.9631 18.9613 54.1409 18.946C54.3188 18.9306 54.4969 18.9173 54.6751 18.9059Z" fill="#FEFEFE"/>
</g>
</svg>
