<svg width="40" height="40" viewBox="0 0 40 40" fill="none" xmlns="http://www.w3.org/2000/svg">
<g id="Group">
<path id="Vector" d="M30.0742 14.9724L20.3319 10.5369C20.2388 10.4946 20.1378 10.4727 20.0355 10.4727C19.9332 10.4727 19.8322 10.4946 19.7391 10.5369L9.98249 14.9795C10.1525 15.0595 20.0319 19.4221 20.0319 19.4221C21.0461 18.9764 30.0742 14.9724 30.0742 14.9724ZM9.27539 16.2223V28.2931C9.27579 28.4389 9.32131 28.581 9.40571 28.7C9.49012 28.8189 9.60926 28.9088 9.74679 28.9573L19.3177 32.4857V20.6649C18.9213 20.4814 9.41824 16.2845 9.27539 16.2223ZM20.7462 20.6721V32.4857L30.317 28.9573C30.4546 28.9088 30.5737 28.8189 30.6581 28.7C30.7425 28.581 30.7881 28.4389 30.7884 28.2931V16.2223C30.6449 16.2759 20.9804 20.5878 20.7462 20.6721Z" fill="#003399"/>
<path id="Vector_2" d="M36.4165 27.1865V14.0444C36.4149 13.4628 36.2612 12.8917 35.9704 12.388C35.6797 11.8843 35.2623 11.4654 34.7595 11.1731C34.7595 11.166 23.448 4.65919 23.4601 4.6449C23.612 4.15099 23.6555 3.63011 23.5875 3.11786C23.5196 2.60562 23.3419 2.11407 23.0665 1.67682C22.7912 1.23957 22.4246 0.866919 21.992 0.584337C21.5594 0.301755 21.0709 0.115902 20.5598 0.0394784C20.0488 -0.0369453 19.5272 -0.002138 19.0309 0.141522C18.5345 0.285181 18.075 0.534307 17.6838 0.871874C17.2926 1.20944 16.9788 1.62749 16.764 2.09746C16.5492 2.56742 16.4384 3.07823 16.4391 3.59496C16.4391 3.95368 16.4945 4.31025 16.6034 4.65204L5.30402 11.1731C4.80125 11.4654 4.38377 11.8843 4.09306 12.388C3.80236 12.8917 3.64856 13.4628 3.64697 14.0444V27.1293C2.77269 27.3024 1.99373 27.7937 1.46095 28.5081C0.928166 29.2226 0.679481 30.1094 0.763056 30.9967C0.84663 31.884 1.25652 32.7087 1.91333 33.3111C2.57015 33.9135 3.42715 34.2508 4.31836 34.2575C4.83507 34.2586 5.34577 34.1467 5.81463 33.9295C6.2835 33.7124 6.69917 33.3952 7.03249 33.0004L18.3747 39.5501C18.8772 39.8447 19.4492 40 20.0318 40C20.6143 40 21.1863 39.8447 21.6888 39.5501L32.8667 33.0933C33.2448 33.5029 33.7131 33.8189 34.2345 34.0161C34.7559 34.2133 35.3161 34.2864 35.8706 34.2296C36.4251 34.1728 36.9588 33.9876 37.4294 33.6887C37.8999 33.3898 38.2944 32.9854 38.5816 32.5076C38.8687 32.0298 39.0406 31.4917 39.0837 30.9359C39.1268 30.3802 39.0398 29.822 38.8298 29.3056C38.6197 28.7893 38.2922 28.329 37.8733 27.9611C37.4545 27.5933 36.9557 27.3281 36.4165 27.1865ZM20.9746 38.3144C20.6877 38.4793 20.3626 38.5662 20.0318 38.5662C19.7009 38.5662 19.3758 38.4793 19.089 38.3144L7.73245 31.7576C7.8535 31.4061 7.91389 31.0366 7.91102 30.6648C7.9105 29.8426 7.62908 29.0452 7.11338 28.4048C6.59768 27.7644 5.87867 27.3195 5.07546 27.1436V14.0444C5.07658 13.7132 5.16415 13.3882 5.32952 13.1013C5.49488 12.8144 5.7323 12.5757 6.01827 12.4087L17.2891 5.90197C17.6247 6.30435 18.0446 6.62806 18.5192 6.8502C18.9938 7.07234 19.5113 7.18748 20.0353 7.18748C20.5593 7.18748 21.0769 7.07234 21.5515 6.8502C22.026 6.62806 22.446 6.30435 22.7816 5.90197L34.0452 12.4087C34.3312 12.5757 34.5686 12.8144 34.734 13.1013C34.8994 13.3882 34.9869 13.7132 34.988 14.0444V27.1079C34.1322 27.2299 33.3494 27.657 32.7837 28.3107C32.2179 28.9643 31.9075 29.8004 31.9096 30.6648C31.9069 31.0792 31.9795 31.4906 32.1239 31.8791L20.9746 38.3144Z" fill="#003399"/>
</g>
</svg>
