<svg width="187" height="182" viewBox="0 0 187 182" fill="none" xmlns="http://www.w3.org/2000/svg">
<g id="illustration / rocket">
<path id="Vector" d="M158.37 31.5397C158.444 31.9085 158.361 32.3724 158.326 32.7476C158.214 33.8525 158.081 34.9549 157.927 36.0547C157.773 37.1546 157.599 38.2513 157.405 39.3448C157.21 40.4381 156.995 41.5275 156.76 42.6129C156.525 43.6983 156.27 44.7789 155.994 45.8548C155.719 46.9307 155.424 48.001 155.108 49.0657C154.793 50.1306 154.458 51.1892 154.103 52.2417C153.748 53.294 153.374 54.3393 152.98 55.3777C152.586 56.4161 152.173 57.4468 151.741 58.4698C145.192 73.8016 134.151 88.097 122.153 99.5727C120.161 101.478 118.162 103.382 116.04 105.144C116.261 106.252 116.442 107.366 116.584 108.487C116.725 109.608 116.826 110.733 116.887 111.861C116.947 112.989 116.968 114.118 116.948 115.248C116.928 116.378 116.867 117.505 116.766 118.631C116.592 120.732 115.802 126.715 114.698 128.301C113.976 129.339 107.508 134.295 106.031 135.481L93.8364 145.381C91.0824 147.617 88.2961 149.812 85.5904 152.106C86.7742 149.999 87.794 147.768 88.9092 145.621C90.7553 142.067 92.6757 138.54 94.4671 134.959C92.5911 131.878 90.9346 128.613 89.1703 125.462C85.8579 127.718 82.392 129.818 78.9835 131.925C75.9483 133.802 72.6404 136.28 69.2289 137.309C67.7531 139.549 66.5007 141.993 65.1366 144.307C63.1788 147.625 61.1244 150.882 58.9733 154.078C58.4899 151.003 58.1944 147.925 57.7953 144.842C57.4859 142.451 57.0845 140.066 56.718 137.683C51.7153 143.454 37.3923 148.043 29.8971 150.425L28.8827 150.734C29.605 149.157 30.2138 147.53 30.9043 145.939C33.3895 140.216 37.2777 131.848 41.141 127.025C41.9545 126.009 42.8749 125.138 43.827 124.257C38.6343 122.877 33.316 121.972 28.1487 120.481C31.965 118.295 35.8172 116.176 39.7056 114.121C41.4176 113.195 43.85 112.249 45.2854 111.018C46.3979 110.063 48.4257 106.934 49.4047 105.598C51.1466 103.221 52.9951 100.924 54.7578 98.5627C56.162 96.6813 57.4832 94.6872 58.9861 92.8871C56.4467 90.6037 53.0088 88.1158 49.9221 86.6557C48.0962 87.3527 46.3095 88.2214 44.5253 89.0209C41.7702 90.2606 39.0006 91.467 36.2165 92.64C34.9675 93.1649 33.544 93.9693 32.2271 94.2538C33.4351 92.7475 34.9043 91.3875 36.237 89.99L42.6231 83.169L51.8111 73.3892C53.7234 71.3597 55.5942 69.2474 57.6517 67.365C62.2278 66.5203 68.7753 65.2969 73.342 65.7635C76.1242 66.0477 78.6856 66.8007 81.3041 67.747C83.2935 65.6569 85.5656 63.6748 87.7334 61.767C99.2356 51.6429 114.367 41.3675 128.903 36.3013C130.251 35.8363 131.609 35.4051 132.977 35.0079C134.346 34.6106 135.724 34.2477 137.111 33.9191C138.498 33.5905 139.892 33.2967 141.294 33.0377C142.695 32.7786 144.102 32.5547 145.515 32.3658C149.776 31.7548 154.059 31.2706 158.37 31.5397Z" fill="#2A2829"/>
<path id="Vector_2" d="M76.6442 110.799C75.053 112.641 72.4745 114.811 70.6102 116.47C70.7009 116.352 70.7828 116.227 70.867 116.104C69.6833 116.572 68.4385 118.757 67.2496 118.929C67.3225 118.828 67.3319 118.81 67.43 118.705C68.4656 117.597 69.7522 116.587 70.8712 115.555C72.3291 114.211 74.4148 112.038 76.0193 110.98C76.2353 110.838 76.3895 110.806 76.6442 110.799Z" fill="#2C2A2B"/>
<path id="Vector_3" d="M51.8924 125.894C51.7476 126.279 51.3998 126.577 51.1614 126.912C51.678 126.604 52.4169 125.942 53.1913 125.182L52.9349 124.847C52.5094 125.201 52.0848 125.519 51.6182 125.817L51.6222 125.887L51.8924 125.894Z" fill="#FEFEFE"/>
<path id="Vector_4" d="M68.0077 137.118C67.9043 138.189 60.6557 149.616 59.5816 151.216C59.3175 148.661 59.0895 146.142 58.7052 143.6C58.3944 141.234 57.9691 138.872 57.5715 136.519C58.6852 134.674 58.9394 132.905 58.852 130.785C61.7779 133.13 64.7842 135.198 68.0077 137.118Z" fill="#FEFEFE"/>
<path id="Vector_5" d="M45.4876 112.19C46.6912 114.83 48.0459 117.498 49.6071 119.945C50.6701 121.611 51.8813 123.175 52.9349 124.847C52.5094 125.201 52.0849 125.52 51.6182 125.818L51.6222 125.887L51.8924 125.894C51.7477 126.279 51.3998 126.578 51.1615 126.912C50.4682 127.634 49.4461 128.526 49.2253 129.529C49.1078 130.064 49.3117 130.596 49.6233 131.027C49.9801 131.52 50.5388 131.921 51.1541 131.994C52.4532 132.149 54.2553 130.222 55.273 129.475C55.2784 129.719 55.2167 130.529 55.3309 130.695C55.352 130.348 55.3061 129.611 55.4755 129.326C55.6312 129.064 56.3969 128.951 56.6901 128.889L58.7447 130.764C58.7299 131.967 58.3612 133.136 57.8439 134.213C57.0915 135.78 55.9603 137.151 54.6453 138.28C48.9371 143.184 37.9283 146.517 30.7852 149.043C31.24 147.862 31.8169 146.712 32.3196 145.547C34.743 139.934 37.8166 133.395 41.4117 128.484C43.1936 126.05 45.589 123.648 48.6535 123.011C49.5714 122.82 50.5065 122.851 51.4277 122.701L51.5191 122.685C49.2306 122.355 47.3583 122.448 45.2369 123.418C43.3966 123.102 41.5523 122.638 39.7301 122.225C36.8316 121.568 33.906 120.902 31.0484 120.086L45.4876 112.19Z" fill="#FEFEFE"/>
<path id="Vector_6" d="M134.346 35.8063C137.407 42.3414 145.669 51.3498 151.918 54.9802C150.359 59.8897 146.63 66.7869 143.753 71.1597C141.897 70.2171 140.106 69.0825 138.408 67.88C129.825 61.2724 121.677 52.7054 117.495 42.5622C118.643 41.8357 119.887 41.2714 121.112 40.6887C125.333 38.6811 129.805 36.9305 134.346 35.8063Z" fill="#FEFEFE"/>
<path id="Vector_7" d="M116.578 42.9967C117.571 46.0154 119.354 48.8667 121.146 51.4737C126.812 59.7155 134.361 67.3952 143.243 72.1288C142.259 73.8542 141.055 75.5054 139.932 77.1431C139.202 78.2009 138.457 79.248 137.696 80.2844C136.936 81.321 136.162 82.3464 135.372 83.3607C134.583 84.375 133.779 85.3778 132.96 86.369C132.142 87.3602 131.31 88.3394 130.464 89.3068C129.617 90.2742 128.757 91.2293 127.884 92.1721C127.01 93.1148 126.123 94.0448 125.223 94.9622C124.322 95.8795 123.409 96.7838 122.483 97.6749C121.557 98.5661 120.618 99.4438 119.667 100.308C118.577 99.5105 117.41 98.7914 116.284 98.0431C114.67 96.8847 113.046 95.7609 111.49 94.5218C110.42 93.6601 109.368 92.7761 108.335 91.8698C107.302 90.9636 106.289 90.0358 105.295 89.0863C104.302 88.1369 103.329 87.1669 102.376 86.1762C101.424 85.1855 100.493 84.1749 99.5841 83.1446C98.6748 82.1144 97.7878 81.0652 96.923 79.9972C96.0583 78.9292 95.2166 77.8433 94.398 76.7396C93.5794 75.6358 92.7847 74.5151 92.0138 73.3776C91.2428 72.24 90.4964 71.0866 89.7745 69.9173C88.6341 68.0698 87.6113 66.1533 86.5737 64.247C87.7022 63.2045 88.8473 62.1804 90.0091 61.1749C91.1708 60.1694 92.3484 59.183 93.5421 58.2157C94.7358 57.2483 95.9448 56.3006 97.1693 55.3724C98.3936 54.4444 99.6327 53.5363 100.887 52.6484C102.14 51.7603 103.408 50.8929 104.69 50.046C105.972 49.199 107.267 48.373 108.576 47.5682C109.885 46.7632 111.206 45.9797 112.54 45.2176C113.874 44.4555 115.22 43.7152 116.578 42.9967Z" fill="#FEFEFE"/>
<path id="Vector_8" d="M124.275 61.9547C124.368 62.0355 124.458 62.1188 124.547 62.2045C126.854 64.4484 128.17 67.8759 128.22 71.0636C128.275 74.6231 127.046 78.1235 124.547 80.7024C121.89 83.4435 118.514 84.844 114.703 84.8865C111.223 84.9255 107.955 83.4294 105.488 81.0224C105.346 80.8858 105.207 80.7462 105.071 80.6034C104.935 80.4605 104.803 80.3145 104.674 80.1655C104.545 80.0165 104.42 79.8647 104.298 79.7101C104.176 79.5553 104.057 79.3978 103.943 79.2376C103.828 79.0774 103.717 78.9146 103.61 78.7493C103.503 78.5839 103.399 78.4162 103.3 78.2462C103.2 78.0761 103.105 77.9039 103.013 77.7294C102.922 77.5549 102.834 77.3784 102.751 77.1998C102.668 77.0213 102.588 76.841 102.513 76.6588C102.438 76.4766 102.367 76.2929 102.301 76.1074C102.234 75.922 102.172 75.7352 102.114 75.5469C102.056 75.3586 102.002 75.169 101.953 74.9783C101.904 74.7875 101.859 74.5957 101.818 74.4029C101.778 74.21 101.742 74.0163 101.71 73.8219C101.679 73.6274 101.652 73.4323 101.629 73.2365C101.607 73.0408 101.589 72.8446 101.575 72.648C101.354 69.2306 102.526 65.3794 104.826 62.8118C104.979 62.6415 105.136 62.475 105.298 62.3124C105.459 62.1499 105.624 61.9913 105.793 61.8368C105.962 61.6823 106.135 61.5321 106.311 61.3861C106.488 61.2402 106.668 61.0986 106.851 60.9616C107.035 60.8245 107.221 60.692 107.411 60.5642C107.601 60.4362 107.794 60.3131 107.99 60.1947C108.186 60.0763 108.385 59.9629 108.587 59.8543C108.788 59.7457 108.992 59.6421 109.199 59.5435C109.406 59.4449 109.615 59.3515 109.826 59.2632C110.037 59.1751 110.251 59.0921 110.466 59.0143C110.682 58.9366 110.899 58.8643 111.118 58.7972C111.337 58.7302 111.557 58.6686 111.779 58.6124C112.001 58.5562 112.225 58.5055 112.449 58.4603C112.674 58.4152 112.899 58.3755 113.125 58.3415C113.352 58.3075 113.579 58.279 113.807 58.2561C114.035 58.2333 114.263 58.2161 114.492 58.2044C118.083 58.0371 121.65 59.5622 124.275 61.9547Z" fill="#2A2829"/>
<path id="Vector_9" d="M123.527 62.3523C125.753 64.5054 127.225 67.3056 127.468 70.4203C127.486 70.6288 127.499 70.8375 127.506 71.0466C127.514 71.2557 127.516 71.4648 127.513 71.6739C127.51 71.8831 127.502 72.0921 127.488 72.3009C127.475 72.5097 127.456 72.718 127.432 72.9258C127.408 73.1337 127.379 73.3408 127.344 73.5472C127.31 73.7535 127.271 73.9588 127.226 74.1632C127.181 74.3676 127.131 74.5708 127.077 74.7728C127.022 74.9746 126.962 75.175 126.897 75.3738C126.832 75.5727 126.762 75.7698 126.687 75.9651C126.612 76.1606 126.533 76.354 126.448 76.5453C126.363 76.7367 126.274 76.9257 126.18 77.1125C126.086 77.2994 125.987 77.4839 125.884 77.6658C125.781 77.8477 125.673 78.0269 125.56 78.2034C125.448 78.3799 125.331 78.5535 125.21 78.7241C125.089 78.8948 124.964 79.0622 124.835 79.2266C124.705 79.391 124.572 79.552 124.434 79.7096C124.293 79.8714 124.147 80.0296 123.998 80.1843C123.849 80.3389 123.696 80.4897 123.539 80.6369C123.383 80.7838 123.222 80.9269 123.058 81.0659C122.895 81.205 122.727 81.3399 122.557 81.4707C122.386 81.6015 122.213 81.7279 122.036 81.8499C121.859 81.972 121.679 82.0897 121.497 82.2029C121.314 82.316 121.128 82.4246 120.94 82.5286C120.752 82.6326 120.562 82.7318 120.369 82.8262C120.176 82.9208 119.98 83.0105 119.783 83.0953C119.586 83.18 119.386 83.2598 119.185 83.3347C118.983 83.4096 118.78 83.4794 118.575 83.5443C118.37 83.6091 118.164 83.6687 117.956 83.7232C117.748 83.7777 117.539 83.8271 117.329 83.8712C117.118 83.9153 116.907 83.9542 116.695 83.9878C116.483 84.0215 116.27 84.0498 116.056 84.0728C115.842 84.0959 115.628 84.1137 115.414 84.126C111.961 84.3394 108.821 83.077 106.261 80.8053C103.995 78.6272 102.62 76.0054 102.345 72.8548C102.051 69.4983 103.123 65.9829 105.322 63.4167C105.461 63.2568 105.604 63.1004 105.751 62.9474C105.898 62.7944 106.048 62.6451 106.202 62.4994C106.356 62.3537 106.513 62.2118 106.674 62.0738C106.835 61.9357 106.999 61.8016 107.167 61.6715C107.334 61.5413 107.504 61.4153 107.678 61.2934C107.851 61.1715 108.027 61.0539 108.206 60.9405C108.386 60.8271 108.567 60.7182 108.752 60.6137C108.936 60.5091 109.123 60.4091 109.312 60.3135C109.502 60.218 109.693 60.1272 109.887 60.0409C110.08 59.9547 110.276 59.8731 110.474 59.7964C110.671 59.7196 110.87 59.6477 111.072 59.5805C111.273 59.5134 111.475 59.4512 111.679 59.3939C111.883 59.3366 112.089 59.2843 112.295 59.2368C112.502 59.1894 112.71 59.1471 112.918 59.1098C113.127 59.0725 113.336 59.0403 113.547 59.0131C113.757 58.9859 113.968 58.9638 114.179 58.9468C117.604 58.7025 120.981 60.1269 123.527 62.3523Z" fill="#FEFEFE"/>
<path id="Vector_10" d="M122.92 63.039C122.929 63.0463 122.938 63.0533 122.947 63.0611C125.019 64.9825 126.294 67.8044 126.522 70.6089C126.767 73.6063 125.971 76.607 124.004 78.919C121.857 81.4427 118.96 83.0147 115.638 83.2732C112.359 83.5282 109.37 82.3057 106.913 80.2039C104.691 78.0691 103.449 75.5823 103.231 72.4883C103.216 72.2965 103.207 72.1043 103.202 71.912C103.197 71.7196 103.197 71.5273 103.202 71.3349C103.206 71.1425 103.216 70.9504 103.23 70.7584C103.245 70.5665 103.264 70.3751 103.287 70.1841C103.311 69.9932 103.339 69.8029 103.373 69.6133C103.406 69.4238 103.443 69.2351 103.486 69.0475C103.529 68.8598 103.576 68.6734 103.627 68.4881C103.679 68.3027 103.735 68.1187 103.796 67.9362C103.857 67.7537 103.922 67.5728 103.992 67.3935C104.062 67.2141 104.136 67.0366 104.215 66.8611C104.294 66.6854 104.377 66.5118 104.464 66.3402C104.551 66.1687 104.642 65.9995 104.738 65.8325C104.834 65.6655 104.933 65.501 105.037 65.339C105.141 65.1769 105.249 65.0175 105.36 64.8608C105.472 64.704 105.587 64.5502 105.707 64.3992C105.826 64.2482 105.949 64.1002 106.075 63.9553C106.203 63.8072 106.334 63.6624 106.469 63.5209C106.603 63.3794 106.742 63.2412 106.883 63.1066C107.025 62.9718 107.169 62.8407 107.317 62.7133C107.465 62.5857 107.617 62.4619 107.771 62.3418C107.925 62.2218 108.082 62.1056 108.242 61.9933C108.402 61.8811 108.564 61.7729 108.73 61.6686C108.895 61.5645 109.063 61.4644 109.233 61.3686C109.403 61.2726 109.576 61.181 109.75 61.0936C109.925 61.0062 110.102 60.9232 110.281 60.8446C110.46 60.766 110.64 60.6919 110.823 60.6223C111.005 60.5526 111.19 60.4875 111.375 60.4271C111.561 60.3664 111.748 60.3105 111.937 60.2593C112.125 60.208 112.315 60.1615 112.506 60.1196C112.697 60.0777 112.889 60.0406 113.081 60.0083C113.274 59.9759 113.467 59.9483 113.661 59.9255C113.855 59.9027 114.05 59.8848 114.245 59.8716C117.417 59.6825 120.562 60.9541 122.92 63.039Z" fill="#2A2829"/>
<path id="Vector_11" d="M119.827 66.1409C119.869 66.1753 119.912 66.2082 119.952 66.2437C121.317 67.4421 122.176 69.2938 122.296 71.0912C122.432 73.1271 121.701 75.0947 120.349 76.614C119.032 78.0932 117.235 79.0044 115.251 79.1166C113.237 79.2302 111.318 78.5722 109.817 77.2291C108.481 75.8798 107.552 74.265 107.353 72.3522C107.341 72.2318 107.331 72.1113 107.324 71.9905C107.318 71.8697 107.314 71.7488 107.314 71.6278C107.313 71.5068 107.315 71.3858 107.321 71.2648C107.326 71.1439 107.335 71.0233 107.346 70.9029C107.357 70.7824 107.371 70.6622 107.389 70.5424C107.406 70.4227 107.426 70.3035 107.449 70.1848C107.472 70.066 107.499 69.9479 107.528 69.8304C107.557 69.7129 107.588 69.5962 107.623 69.4803C107.658 69.3644 107.695 69.2494 107.736 69.1354C107.776 69.0213 107.82 68.9083 107.866 68.7964C107.912 68.6845 107.96 68.5738 108.012 68.4644C108.063 68.3547 108.118 68.2466 108.174 68.1398C108.231 68.0329 108.291 67.9276 108.353 67.8238C108.415 67.7199 108.479 67.6176 108.546 67.5168C108.613 67.4161 108.683 67.3171 108.755 67.2199C108.827 67.1227 108.901 67.0272 108.978 66.9336C109.056 66.839 109.137 66.7463 109.22 66.6556C109.303 66.5649 109.388 66.4763 109.476 66.3898C109.563 66.3033 109.652 66.2189 109.744 66.1368C109.835 66.0547 109.929 65.9749 110.024 65.8973C110.12 65.8197 110.217 65.7445 110.316 65.6718C110.415 65.599 110.516 65.5287 110.618 65.4608C110.721 65.393 110.825 65.3277 110.931 65.2649C111.036 65.2023 111.143 65.1422 111.252 65.0847C111.361 65.0272 111.471 64.9724 111.582 64.9203C111.694 64.8683 111.806 64.819 111.92 64.7724C112.034 64.7259 112.149 64.6821 112.265 64.6412C112.38 64.6003 112.497 64.5622 112.615 64.527C112.733 64.4919 112.851 64.4597 112.971 64.4304C113.09 64.4009 113.21 64.3745 113.331 64.351C113.452 64.3275 113.573 64.307 113.694 64.2896C113.816 64.2719 113.938 64.2574 114.061 64.2459C116.295 64.0305 118.115 64.7342 119.827 66.1409Z" fill="#FEFEFE"/>
<path id="Vector_12" d="M85.82 64.9259C92.5486 78.7601 105.961 93.0456 119.054 101.089C117.792 102.304 116.388 103.399 115.077 104.564C111.981 107.272 108.821 109.902 105.596 112.454C102.371 115.006 99.0851 117.478 95.7387 119.869C90.8138 123.322 85.6861 126.546 80.6026 129.762C75.4812 127.197 70.717 124.014 66.6098 119.992C67.9104 118.784 69.2857 117.653 70.61 116.471C72.4743 114.812 75.0528 112.641 76.644 110.799C81.6666 105.841 86.6729 100.731 90.8174 94.9988C91.722 93.7478 92.6715 92.5066 93.3391 91.1087C91.9273 91.7155 90.6351 92.4898 89.3238 93.2831C85.2772 95.4834 81.5832 98.5259 77.9919 101.394C75.0131 103.732 72.129 106.181 69.3397 108.742C68.1922 109.79 66.9971 110.841 65.9295 111.969C65.3302 112.492 62.7492 115.163 62.2493 115.267C58.8094 110.985 56.2214 106.237 54.1664 101.16C56.0913 98.4074 58.078 95.6995 60.1262 93.0368C62.1744 90.374 64.282 87.7592 66.4492 85.1924C68.6163 82.6255 70.8406 80.1092 73.1222 77.6435C75.4038 75.178 77.7402 72.7654 80.1315 70.4059C82.0021 68.563 83.8606 66.6728 85.82 64.9259Z" fill="#FEFEFE"/>
<path id="Vector 33" d="M54.9997 130.5L55.4997 130L55.9997 130.5L54.9997 131" stroke="white"/>
</g>
</svg>
