<svg width="32" height="30" viewBox="0 0 32 30" fill="none" xmlns="http://www.w3.org/2000/svg">
<g id="Group">
<path id="Vector" d="M4.75 10.3125C5.59717 10.3132 6.42864 10.084 7.15579 9.64931C7.88294 9.21463 8.47851 8.59077 8.879 7.84425C9.29925 7.06513 10.2249 6.5625 11.2374 6.5625H13.2626C14.2751 6.5625 15.2008 7.06513 15.6201 7.84331C16.4394 9.36675 18.0215 10.3125 19.75 10.3125C22.3346 10.3125 24.4375 8.20956 24.4375 5.625C24.4375 3.04044 22.3346 0.937502 19.75 0.937502C18.9028 0.936809 18.0714 1.16602 17.3442 1.6007C16.6171 2.03538 16.0215 2.65923 15.621 3.40575C15.2008 4.18488 14.2751 4.6875 13.2626 4.6875H11.2374C10.2249 4.6875 9.29925 4.18488 8.87994 3.40669C8.06056 1.88325 6.4785 0.937502 4.75 0.937502C2.16544 0.937502 0 3.04044 0 5.625C0 8.20956 2.16544 10.3125 4.75 10.3125ZM18.8125 4.6875H20.6875V6.5625H18.8125V4.6875ZM4.75 29.0625C5.59717 29.0632 6.42864 28.834 7.15579 28.3993C7.88294 27.9646 8.47851 27.3408 8.879 26.5943C9.29925 25.8151 10.2249 25.3125 11.2374 25.3125H13.2626C14.2751 25.3125 15.2008 25.8151 15.6201 26.5933C16.4394 28.1168 18.0215 29.0625 19.75 29.0625C22.3346 29.0625 24.4375 26.9596 24.4375 24.375C24.4375 21.7904 22.3346 19.6875 19.75 19.6875C18.9028 19.6868 18.0714 19.916 17.3442 20.3507C16.6171 20.7854 16.0215 21.4092 15.621 22.1558C15.2008 22.9349 14.2751 23.4375 13.2626 23.4375H11.2374C10.2249 23.4375 9.29925 22.9349 8.87994 22.1567C8.06056 20.6333 6.4785 19.6875 4.75 19.6875C2.16544 19.6875 0 21.7904 0 24.375C0 26.9596 2.16544 29.0625 4.75 29.0625ZM18.8125 23.4375H20.6875V25.3125H18.8125V23.4375Z" fill="#003399"/>
<path id="Vector_2" d="M23.121 12.7808C22.7008 13.5599 21.7751 14.0625 20.7626 14.0625H18.7374C17.7249 14.0625 16.7993 13.5599 16.3799 12.7817C15.5606 11.2583 13.9785 10.3125 12.25 10.3125C9.66544 10.3125 7.5625 12.4154 7.5625 15C7.5625 17.5846 9.66544 19.6875 12.25 19.6875C13.0972 19.6882 13.9286 19.459 14.6558 19.0243C15.3829 18.5896 15.9785 17.9658 16.379 17.2193C16.7992 16.4401 17.7249 15.9375 18.7374 15.9375H20.7626C21.7751 15.9375 22.7007 16.4401 23.1201 17.2183C23.9394 18.7418 25.5215 19.6875 27.25 19.6875C29.8346 19.6875 32 17.5846 32 15C32 12.4154 29.8346 10.3125 27.25 10.3125C26.4028 10.3118 25.5714 10.541 24.8442 10.9757C24.1171 11.4104 23.5215 12.0342 23.121 12.7808ZM13.1875 15.9375H11.3125V14.0625H13.1875V15.9375Z" fill="#003399"/>
</g>
</svg>
