<svg width="40" height="40" viewBox="0 0 40 40" fill="none" xmlns="http://www.w3.org/2000/svg">
<g id="Frame">
<g id="Group">
<path id="Vector" d="M6.78766 12.1317L13.4534 18.7975C14.9665 17.5871 16.8041 16.8005 18.8281 16.5727V7.13867C14.2188 7.40875 10.0336 9.24422 6.78766 12.1317ZM5.13055 13.7888C1.99875 17.3093 0 21.9296 0 27.0012C0 27.6489 0.524141 28.173 1.17188 28.173H8.28125C8.92898 28.173 9.45312 27.6489 9.45312 27.0012C9.45312 24.5158 10.3529 22.2591 11.7963 20.4546L5.13055 13.7888ZM29.0545 17.838C28.6597 17.4935 28.0875 17.4489 27.6515 17.7316L17.4812 24.2191C16.1227 25.0866 15.3125 26.564 15.3125 28.173C15.3125 30.7583 17.4148 32.8605 20 32.8605C21.8173 32.8605 23.4859 31.7962 24.2503 30.1495L29.3441 19.2135C29.451 18.9838 29.4806 18.7255 29.4284 18.4775C29.3762 18.2295 29.245 18.0051 29.0545 17.838ZM34.8695 13.7888L31.4251 17.2332C31.8588 18.1591 31.9159 19.2429 31.4681 20.2034L29.9272 23.5116C30.3239 24.6013 30.5469 25.7727 30.5469 27.0012C30.5469 27.6489 31.071 28.173 31.7188 28.173H38.8281C39.4759 28.173 40 27.6489 40 27.0012C40 21.9296 38.0013 17.3093 34.8695 13.7888ZM21.1719 7.13867V16.5727C22.1585 16.6838 23.0986 16.9321 23.9807 17.293L26.3916 15.755C27.3574 15.1291 28.5377 14.9948 29.767 15.5771L33.2123 12.1317C29.9664 9.24422 25.7812 7.40875 21.1719 7.13867Z" fill="#003399"/>
</g>
</g>
</svg>
