<svg width="31" height="27" viewBox="0 0 31 27" fill="none" xmlns="http://www.w3.org/2000/svg">
<g id="Group">
<path id="Vector" d="M31.0001 8.95896C31.0001 9.14113 30.9497 9.31976 30.8544 9.47503C30.7591 9.63031 30.6227 9.75618 30.4603 9.8387L29.1837 10.4874V21.6124C29.1837 22.114 28.7771 22.5206 28.2755 22.5206C27.7739 22.5206 27.3673 22.114 27.3673 21.6124V11.4104L16.6453 16.8585C16.2905 17.0388 15.8981 17.1328 15.5001 17.1328C15.1021 17.1328 14.7097 17.0388 14.3548 16.8585L0.539868 9.8387C0.377436 9.7562 0.241017 9.63033 0.145728 9.47505C0.050439 9.31977 0 9.14114 0 8.95896C0 8.77677 0.050439 8.59814 0.145728 8.44286C0.241017 8.28759 0.377436 8.16172 0.539868 8.07921L14.3548 1.05941C14.7097 0.879083 15.1021 0.785095 15.5001 0.785095C15.8981 0.785095 16.2905 0.879083 16.6453 1.05941L30.4603 8.07921C30.6227 8.16173 30.7591 8.2876 30.8544 8.44288C30.9497 8.59816 31.0001 8.77678 31.0001 8.95896ZM25.5509 15.3576C25.5509 14.9058 25.0739 14.6132 24.6711 14.8178L17.4681 18.4779C16.8581 18.787 16.184 18.9484 15.5001 18.9492C14.8162 18.9484 14.1421 18.787 13.532 18.4778L6.32906 14.8178C5.92624 14.6131 5.44931 14.9058 5.44931 15.3576V21.9633C5.44931 22.131 5.49572 22.2954 5.5834 22.4383C5.67109 22.5812 5.79662 22.6971 5.9461 22.773L10.2407 24.9553C11.8626 25.7793 13.6811 26.2148 15.5001 26.2148C17.319 26.2148 19.1375 25.7793 20.7592 24.9554L25.0541 22.773C25.2036 22.6971 25.3291 22.5812 25.4168 22.4383C25.5045 22.2954 25.5509 22.131 25.5509 21.9633V15.3576Z" fill="#003399"/>
</g>
</svg>
