<svg width="33" height="32" viewBox="0 0 33 32" fill="none" xmlns="http://www.w3.org/2000/svg">
<g opacity="0.6">
<mask id="mask0_239_10642" style="mask-type:alpha" maskUnits="userSpaceOnUse" x="9" y="2" width="22" height="28">
<path d="M17.3201 2.07874V8.01352C18.9292 7.96595 20.4947 7.77883 21.9564 7.46683C21.7409 6.91062 21.5029 6.38104 21.2432 5.88274C20.1373 3.76081 18.7677 2.44198 17.3201 2.07874ZM11.7566 5.88274C11.4968 6.38109 11.2589 6.91062 11.0433 7.46683C12.505 7.77883 14.0705 7.96595 15.6797 8.01352V2.07874C14.232 2.44198 12.8625 3.76081 11.7566 5.88274ZM15.6797 15.1801V9.65475C13.891 9.60439 12.1458 9.38993 10.5176 9.02899C9.97535 10.8986 9.65902 12.9911 9.5957 15.1801H15.6797ZM25.0452 16.8206C24.9813 19.1439 24.6463 21.3751 24.0695 23.3818C25.3055 23.7479 26.4508 24.2042 27.4673 24.7422C29.2788 22.4785 30.3329 19.7335 30.4998 16.8206H25.0452ZM15.6797 16.8206H9.5957C9.65902 19.0096 9.97535 21.1021 10.5176 22.9717C12.1458 22.6108 13.891 22.3963 15.6797 22.346V16.8206ZM22.4822 9.02899C20.8539 9.38993 19.1088 9.60439 17.3201 9.65475V15.1801H23.4041C23.3408 12.9911 23.0244 10.8986 22.4822 9.02899ZM23.5567 24.9379C23.3008 25.6204 23.0144 26.2689 22.6979 26.8762C22.2205 27.7921 21.6907 28.585 21.1198 29.2487C23.0534 28.5761 24.8281 27.4782 26.329 26.0026C25.4875 25.5881 24.5558 25.2314 23.5567 24.9379ZM15.6797 29.922V23.9872C14.0705 24.0348 12.505 24.2219 11.0433 24.5339C11.2589 25.0901 11.4968 25.6197 11.7566 26.118C12.8625 28.2399 14.232 29.5588 15.6797 29.922ZM21.2432 26.118C21.5029 25.6197 21.7409 25.0901 21.9565 24.5339C20.4948 24.2219 18.9293 24.0348 17.3201 23.9872V29.922C18.7677 29.5588 20.1373 28.2399 21.2432 26.118ZM22.6979 5.12459C23.0144 5.73182 23.3008 6.38038 23.5567 7.0629C24.5558 6.76938 25.4875 6.41264 26.329 5.99817C24.8281 4.52256 23.0534 3.42464 21.1199 2.75212C21.6907 3.41578 22.2205 4.20864 22.6979 5.12459ZM17.3201 16.8206V22.346C19.1088 22.3963 20.8539 22.6108 22.4822 22.9717C23.0244 21.1021 23.3407 19.0096 23.404 16.8206H17.3201ZM24.0696 8.61894C24.6464 10.6256 24.9813 12.8568 25.0452 15.1801H30.4999C30.333 12.2672 29.2788 9.52221 27.4674 7.25855C26.4508 7.79655 25.3055 8.2528 24.0696 8.61894Z" fill="black"/>
</mask>
<g mask="url(#mask0_239_10642)">
<path d="M13.1402 1.44L15.9402 0.880005V30.3585L12.5802 28.88L10.3402 22.72L8.66016 16L10.3402 8.16L13.1402 1.44Z" fill="white"/>
<mask id="mask1_239_10642" style="mask-type:alpha" maskUnits="userSpaceOnUse" x="9" y="2" width="22" height="28">
<path d="M16.9451 2.07874V8.01352C18.5542 7.96595 20.1197 7.77883 21.5814 7.46683C21.3659 6.91062 21.1279 6.38104 20.8682 5.88274C19.7623 3.76081 18.3927 2.44198 16.9451 2.07874ZM11.3816 5.88274C11.1218 6.38109 10.8839 6.91062 10.6683 7.46683C12.13 7.77883 13.6955 7.96595 15.3047 8.01352V2.07874C13.857 2.44198 12.4875 3.76081 11.3816 5.88274ZM15.3047 15.1801V9.65475C13.516 9.60439 11.7708 9.38993 10.1426 9.02899C9.60035 10.8986 9.28402 12.9911 9.2207 15.1801H15.3047ZM24.6702 16.8206C24.6063 19.1439 24.2713 21.3751 23.6945 23.3818C24.9305 23.7479 26.0758 24.2042 27.0923 24.7422C28.9038 22.4785 29.9579 19.7335 30.1248 16.8206H24.6702ZM15.3047 16.8206H9.2207C9.28402 19.0096 9.60035 21.1021 10.1426 22.9717C11.7708 22.6108 13.516 22.3963 15.3047 22.346V16.8206ZM22.1072 9.02899C20.4789 9.38993 18.7338 9.60439 16.9451 9.65475V15.1801H23.0291C22.9658 12.9911 22.6494 10.8986 22.1072 9.02899ZM23.1817 24.9379C22.9258 25.6204 22.6394 26.2689 22.3229 26.8762C21.8455 27.7921 21.3157 28.585 20.7448 29.2487C22.6784 28.5761 24.4531 27.4782 25.954 26.0026C25.1125 25.5881 24.1807 25.2314 23.1817 24.9379ZM15.3047 29.922V23.9872C13.6955 24.0348 12.13 24.2219 10.6683 24.5339C10.8839 25.0901 11.1218 25.6197 11.3816 26.118C12.4875 28.2399 13.857 29.5588 15.3047 29.922ZM20.8682 26.118C21.1279 25.6197 21.3659 25.0901 21.5815 24.5339C20.1198 24.2219 18.5543 24.0348 16.9451 23.9872V29.922C18.3927 29.5588 19.7623 28.2399 20.8682 26.118ZM22.3229 5.12459C22.6394 5.73182 22.9258 6.38038 23.1817 7.0629C24.1807 6.76938 25.1125 6.41264 25.954 5.99817C24.4531 4.52256 22.6784 3.42464 20.7449 2.75212C21.3157 3.41578 21.8455 4.20864 22.3229 5.12459ZM16.9451 16.8206V22.346C18.7338 22.3963 20.4789 22.6108 22.1072 22.9717C22.6494 21.1021 22.9657 19.0096 23.029 16.8206H16.9451ZM23.6946 8.61894C24.2714 10.6256 24.6063 12.8568 24.6702 15.1801H30.1249C29.958 12.2672 28.9038 9.52221 27.0924 7.25855C26.0758 7.79655 24.9305 8.2528 23.6946 8.61894Z" fill="black"/>
</mask>
<g mask="url(#mask1_239_10642)">
<path d="M19.4848 1.44L16.6848 0.880005V30.3585L20.0448 28.88L22.2848 22.72L23.9648 16L22.2848 8.16L19.4848 1.44Z" fill="white"/>
<path d="M25.1587 1.43319L20.4202 0.880005L24.3402 15.8161L20.4202 30L26.1064 28.5395L29.8972 22.4544L32.7402 15.8161L29.8972 8.07147L25.1587 1.43319Z" fill="white"/>
</g>
</g>
<path d="M8.9303 8.61931C8.35353 10.626 8.0185 12.8572 7.95464 15.1805H2.5C2.66688 12.2676 3.72107 9.52263 5.53252 7.25892C6.54903 7.79692 7.6943 8.25317 8.9303 8.61931Z" fill="white"/>
<path d="M2.5 16.8209H7.95464C8.01856 19.1442 8.35353 21.3755 8.9303 23.3821C7.69436 23.7483 6.54908 24.2046 5.53257 24.7426C3.72112 22.4789 2.66688 19.7339 2.5 16.8209Z" fill="white"/>
<path d="M9.4432 24.9382C9.6991 25.6207 9.98552 26.2693 10.302 26.8765C10.7794 27.7925 11.3092 28.5854 11.88 29.249C9.94653 28.5765 8.17177 27.4786 6.67085 26.003C7.51238 25.5885 8.44414 25.2317 9.4432 24.9382Z" fill="white"/>
<path d="M10.302 5.12497C9.98552 5.73219 9.6991 6.38076 9.4432 7.06328C8.44414 6.7697 7.51238 6.41302 6.67091 5.99854C8.17177 4.52288 9.94653 3.42501 11.8801 2.75244C11.3092 3.41615 10.7794 4.20902 10.302 5.12497Z" fill="white"/>
</g>
</svg>
