<svg width="24" height="24" viewBox="0 0 24 24" fill="none" xmlns="http://www.w3.org/2000/svg">
<g opacity="0.6">
<mask id="mask0_235_3889" style="mask-type:alpha" maskUnits="userSpaceOnUse" x="6" y="1" width="17" height="22">
<path d="M12.6155 1.55908V6.01017C13.8224 5.97449 14.9965 5.83416 16.0928 5.60015C15.9311 5.18299 15.7527 4.78581 15.5579 4.41208C14.7284 2.82064 13.7013 1.83151 12.6155 1.55908ZM8.44291 4.41208C8.24811 4.78585 8.06963 5.18299 7.90797 5.60015C9.00426 5.83416 10.1784 5.97449 11.3852 6.01017V1.55908C10.2995 1.83151 9.27238 2.82064 8.44291 4.41208ZM11.3852 11.3851V7.24109C10.0437 7.20332 8.73486 7.04248 7.51366 6.77177C7.107 8.174 6.86976 9.74338 6.82227 11.3851H11.3852ZM18.4094 12.6154C18.3615 14.3579 18.1102 16.0314 17.6776 17.5364C18.6046 17.811 19.4636 18.1531 20.226 18.5566C21.5846 16.8589 22.3752 14.8001 22.5004 12.6154H18.4094ZM11.3852 12.6154H6.82227C6.86976 14.2572 7.107 15.8266 7.51366 17.2288C8.73486 16.9581 10.0437 16.7973 11.3852 16.7595V12.6154ZM16.4872 6.77177C15.2659 7.04248 13.9571 7.20332 12.6156 7.24109V11.3851H17.1785C17.1311 9.74338 16.8938 8.174 16.4872 6.77177ZM17.293 18.7034C17.1011 19.2153 16.8863 19.7017 16.6489 20.1572C16.2909 20.8441 15.8935 21.4388 15.4653 21.9365C16.9155 21.4321 18.2466 20.6087 19.3723 19.502C18.7411 19.1911 18.0423 18.9236 17.293 18.7034ZM11.3852 22.4415V17.9905C10.1784 18.0261 9.00422 18.1665 7.90797 18.4005C8.06963 18.8176 8.24811 19.2148 8.44291 19.5885C9.27238 21.18 10.2995 22.1691 11.3852 22.4415ZM15.5579 19.5885C15.7527 19.2148 15.9312 18.8176 16.0928 18.4004C14.9966 18.1665 13.8224 18.0261 12.6156 17.9905V22.4415C13.7013 22.1691 14.7284 21.18 15.5579 19.5885ZM16.6489 3.84348C16.8863 4.2989 17.1011 4.78532 17.293 5.29721C18.0423 5.07707 18.7411 4.80951 19.3723 4.49866C18.2466 3.39195 16.9155 2.56851 15.4654 2.06412C15.8935 2.56186 16.2909 3.15651 16.6489 3.84348ZM12.6155 12.6154V16.7595C13.9571 16.7973 15.2659 16.9581 16.4871 17.2288C16.8938 15.8266 17.131 14.2572 17.1785 12.6154H12.6155ZM17.6777 6.46424C18.1103 7.96923 18.3615 9.64266 18.4094 11.3851H22.5004C22.3752 9.20044 21.5846 7.14169 20.226 5.44394C19.4636 5.84744 18.6046 6.18963 17.6777 6.46424Z" fill="black"/>
</mask>
<g mask="url(#mask0_235_3889)">
<path d="M9.47914 1.08016L11.5791 0.660156V22.769L9.05914 21.6602L7.37914 17.0402L6.11914 12.0002L7.37914 6.12016L9.47914 1.08016Z" fill="white"/>
<mask id="mask1_235_3889" style="mask-type:alpha" maskUnits="userSpaceOnUse" x="6" y="1" width="17" height="22">
<path d="M12.3323 1.55908V6.01017C13.5392 5.97449 14.7133 5.83416 15.8096 5.60015C15.6479 5.18299 15.4695 4.78581 15.2747 4.41208C14.4452 2.82064 13.4181 1.83151 12.3323 1.55908ZM8.15971 4.41208C7.96491 4.78585 7.78643 5.18299 7.62477 5.60015C8.72105 5.83416 9.89518 5.97449 11.102 6.01017V1.55908C10.0163 1.83151 8.98918 2.82064 8.15971 4.41208ZM11.102 11.3851V7.24109C9.7605 7.20332 8.45166 7.04248 7.23045 6.77177C6.8238 8.174 6.58655 9.74338 6.53906 11.3851H11.102ZM18.1262 12.6154C18.0783 14.3579 17.827 16.0314 17.3944 17.5364C18.3214 17.811 19.1804 18.1531 19.9428 18.5566C21.3014 16.8589 22.092 14.8001 22.2172 12.6154H18.1262ZM11.102 12.6154H6.53906C6.58655 14.2572 6.8238 15.8266 7.23045 17.2288C8.45166 16.9581 9.7605 16.7973 11.102 16.7595V12.6154ZM16.2039 6.77177C14.9827 7.04248 13.6739 7.20332 12.3324 7.24109V11.3851H16.8953C16.8478 9.74338 16.6106 8.174 16.2039 6.77177ZM17.0098 18.7034C16.8179 19.2153 16.6031 19.7017 16.3657 20.1572C16.0077 20.8441 15.6103 21.4388 15.1821 21.9365C16.6323 21.4321 17.9634 20.6087 19.0891 19.502C18.4579 19.1911 17.7591 18.9236 17.0098 18.7034ZM11.102 22.4415V17.9905C9.89518 18.0261 8.72101 18.1665 7.62477 18.4005C7.78643 18.8176 7.96491 19.2148 8.15971 19.5885C8.98918 21.18 10.0163 22.1691 11.102 22.4415ZM15.2747 19.5885C15.4695 19.2148 15.648 18.8176 15.8096 18.4004C14.7133 18.1665 13.5392 18.0261 12.3324 17.9905V22.4415C13.4181 22.1691 14.4452 21.18 15.2747 19.5885ZM16.3657 3.84348C16.6031 4.2989 16.8179 4.78532 17.0098 5.29721C17.7591 5.07707 18.4579 4.80951 19.0891 4.49866C17.9634 3.39195 16.6323 2.56851 15.1822 2.06412C15.6103 2.56186 16.0077 3.15651 16.3657 3.84348ZM12.3323 12.6154V16.7595C13.6739 16.7973 14.9827 16.9581 16.2039 17.2288C16.6106 15.8266 16.8478 14.2572 16.8953 12.6154H12.3323ZM17.3945 6.46424C17.8271 7.96923 18.0783 9.64266 18.1262 11.3851H22.2172C22.092 9.20044 21.3014 7.14169 19.9428 5.44394C19.1804 5.84744 18.3214 6.18963 17.3945 6.46424Z" fill="black"/>
</mask>
<g mask="url(#mask1_235_3889)">
<path d="M14.2377 1.08016L12.1377 0.660156V22.769L14.6577 21.6602L16.3377 17.0402L17.5977 12.0002L16.3377 6.12016L14.2377 1.08016Z" fill="white"/>
<path d="M18.4935 1.07505L14.9397 0.660156L17.8797 11.8622L14.9397 22.5002L19.2043 21.4048L22.0474 16.8409L24.1797 11.8622L22.0474 6.05375L18.4935 1.07505Z" fill="white"/>
</g>
</g>
<path d="M6.32273 6.46461C5.89015 7.9696 5.63888 9.64303 5.59098 11.3855H1.5C1.62516 9.20081 2.4158 7.1421 3.77439 5.44431C4.53677 5.84781 5.39573 6.19 6.32273 6.46461Z" fill="white"/>
<path d="M1.5 12.6158H5.59098C5.63892 14.3583 5.89015 16.0317 6.32273 17.5367C5.39577 17.8114 4.53681 18.1536 3.77443 18.5571C2.41584 16.8593 1.62516 14.8006 1.5 12.6158Z" fill="white"/>
<path d="M6.7074 18.7038C6.89933 19.2157 7.11414 19.7021 7.35151 20.1575C7.70953 20.8445 8.10688 21.4391 8.53502 21.9369C7.0849 21.4325 5.75383 20.609 4.62814 19.5023C5.25929 19.1915 5.9581 18.9239 6.7074 18.7038Z" fill="white"/>
<path d="M7.35151 3.84385C7.11414 4.29927 6.89933 4.78569 6.7074 5.29758C5.9581 5.07739 5.25929 4.80988 4.62818 4.49903C5.75383 3.39228 7.0849 2.56888 8.53506 2.06445C8.10688 2.56224 7.70953 3.15688 7.35151 3.84385Z" fill="white"/>
</g>
</svg>
