<svg width="48" height="49" viewBox="0 0 48 49" fill="none" xmlns="http://www.w3.org/2000/svg">
<g opacity="0.6">
<mask id="mask0_204_4329" style="mask-type:alpha" maskUnits="userSpaceOnUse" x="13" y="3" width="32" height="43">
<path d="M25.2311 3.61816V12.5203C27.6448 12.449 29.993 12.1683 32.1856 11.7003C31.8623 10.866 31.5053 10.0716 31.1157 9.32417C29.4569 6.14128 27.4026 4.16303 25.2311 3.61816ZM16.8858 9.32417C16.4962 10.0717 16.1393 10.866 15.8159 11.7003C18.0085 12.1683 20.3568 12.449 22.7705 12.5203V3.61816C20.5991 4.16303 18.5448 6.14128 16.8858 9.32417ZM22.7705 23.2703V14.9822C20.0874 14.9066 17.4697 14.585 15.0273 14.0435C14.214 16.848 13.7395 19.9868 13.6445 23.2703H22.7705ZM36.8188 25.7309C36.723 29.2159 36.2204 32.5627 35.3553 35.5727C37.2093 36.1219 38.9272 36.8063 40.452 37.6133C43.1691 34.2178 44.7503 30.1003 45.0007 25.7309H36.8188ZM22.7705 25.7309H13.6445C13.7395 29.0144 14.214 32.1532 15.0273 34.9576C17.4697 34.4162 20.0874 34.0945 22.7705 34.019V25.7309ZM32.9743 14.0435C30.5319 14.585 27.9142 14.9066 25.2312 14.9822V23.2703H34.3571C34.2621 19.9868 33.7876 16.848 32.9743 14.0435ZM34.586 37.9068C34.2022 38.9306 33.7725 39.9035 33.2978 40.8143C32.5818 42.1882 31.7871 43.3775 30.9307 44.3731C33.831 43.3642 36.4931 41.7174 38.7445 39.5039C37.4822 38.8822 36.0846 38.3471 34.586 37.9068ZM22.7705 45.3831V36.4809C20.3568 36.5523 18.0084 36.8329 15.8159 37.301C16.1393 38.1353 16.4962 38.9296 16.8858 39.6771C18.5448 42.86 20.5991 44.8382 22.7705 45.3831ZM31.1158 39.6771C31.5054 38.9296 31.8624 38.1353 32.1857 37.3009C29.9931 36.8329 27.6449 36.5522 25.2312 36.4809V45.3831C27.4026 44.8382 29.4569 42.86 31.1158 39.6771ZM33.2978 8.18695C33.7725 9.09779 34.2022 10.0706 34.586 11.0944C36.0846 10.6541 37.4822 10.119 38.7445 9.49731C36.4931 7.28391 33.831 5.63702 30.9308 4.62825C31.7871 5.62373 32.5818 6.81303 33.2978 8.18695ZM25.2311 25.7309V34.019C27.9141 34.0945 30.5318 34.4162 32.9742 34.9576C33.7875 32.1532 34.262 29.0144 34.357 25.7309H25.2311ZM35.3554 13.4285C36.2205 16.4385 36.723 19.7853 36.8189 23.2703H45.0008C44.7505 18.9009 43.1692 14.7834 40.452 11.3879C38.9272 12.1949 37.2093 12.8793 35.3554 13.4285Z" fill="black"/>
</mask>
<g mask="url(#mask0_204_4329)">
<path d="M18.9602 2.65995L23.1602 1.81995V46.0377L18.1202 43.8199L14.7602 34.5799L12.2402 24.4999L14.7602 12.7399L18.9602 2.65995Z" fill="white"/>
<mask id="mask1_204_4329" style="mask-type:alpha" maskUnits="userSpaceOnUse" x="13" y="3" width="32" height="43">
<path d="M24.6666 3.61816V12.5203C27.0803 12.449 29.4286 12.1683 31.6211 11.7003C31.2978 10.866 30.9409 10.0716 30.5513 9.32417C28.8924 6.14128 26.8381 4.16303 24.6666 3.61816ZM16.3214 9.32417C15.9318 10.0717 15.5748 10.866 15.2515 11.7003C17.4441 12.1683 19.7923 12.449 22.206 12.5203V3.61816C20.0346 4.16303 17.9803 6.14128 16.3214 9.32417ZM22.206 23.2703V14.9822C19.523 14.9066 16.9053 14.585 14.4629 14.0435C13.6495 16.848 13.1751 19.9868 13.0801 23.2703H22.206ZM36.2543 25.7309C36.1585 29.2159 35.656 32.5627 34.7908 35.5727C36.6448 36.1219 38.3627 36.8063 39.8875 37.6133C42.6047 34.2178 44.1859 30.1003 44.4363 25.7309H36.2543ZM22.206 25.7309H13.0801C13.1751 29.0144 13.6495 32.1532 14.4629 34.9576C16.9053 34.4162 19.523 34.0945 22.206 34.019V25.7309ZM32.4098 14.0435C29.9674 14.585 27.3498 14.9066 24.6667 14.9822V23.2703H33.7926C33.6977 19.9868 33.2232 16.848 32.4098 14.0435ZM34.0216 37.9068C33.6377 38.9306 33.2081 39.9035 32.7333 40.8143C32.0173 42.1882 31.2226 43.3775 30.3662 44.3731C33.2666 43.3642 35.9287 41.7174 38.1801 39.5039C36.9178 38.8822 35.5201 38.3471 34.0216 37.9068ZM22.206 45.3831V36.4809C19.7923 36.5523 17.444 36.8329 15.2515 37.301C15.5748 38.1353 15.9318 38.9296 16.3214 39.6771C17.9803 42.86 20.0346 44.8382 22.206 45.3831ZM30.5513 39.6771C30.9409 38.9296 31.2979 38.1353 31.6212 37.3009C29.4287 36.8329 27.0804 36.5522 24.6667 36.4809V45.3831C26.8381 44.8382 28.8924 42.86 30.5513 39.6771ZM32.7333 8.18695C33.2081 9.09779 33.6377 10.0706 34.0216 11.0944C35.5201 10.6541 36.9178 10.119 38.1801 9.49731C35.9287 7.28391 33.2666 5.63702 30.3663 4.62825C31.2226 5.62373 32.0173 6.81303 32.7333 8.18695ZM24.6666 25.7309V34.019C27.3497 34.0945 29.9674 34.4162 32.4098 34.9576C33.2231 32.1532 33.6976 29.0144 33.7926 25.7309H24.6666ZM34.7909 13.4285C35.6561 16.4385 36.1585 19.7853 36.2544 23.2703H44.4364C44.186 18.9009 42.6048 14.7834 39.8876 11.3879C38.3627 12.1949 36.6448 12.8793 34.7909 13.4285Z" fill="black"/>
</mask>
<g mask="url(#mask1_204_4329)">
<path d="M28.4773 2.66007L24.2773 1.82007V46.0378L29.3173 43.8201L32.6773 34.5801L35.1973 24.5001L32.6773 12.7401L28.4773 2.66007Z" fill="white"/>
<path d="M36.9871 2.64985L29.8794 1.82007L35.7594 24.2242L29.8794 45.5001L38.4086 43.3093L44.0948 34.1816L48.3594 24.2242L44.0948 12.6073L36.9871 2.64985Z" fill="white"/>
</g>
</g>
<path d="M12.6455 13.429C11.7803 16.439 11.2778 19.7858 11.182 23.2708H3C3.25033 18.9014 4.8316 14.7839 7.54878 11.3884C9.07354 12.1954 10.7915 12.8798 12.6455 13.429Z" fill="white"/>
<path d="M3 25.7314H11.182C11.2778 29.2164 11.7803 32.5632 12.6455 35.5732C10.7915 36.1225 9.07362 36.8069 7.54886 37.6139C4.83168 34.2184 3.25033 30.1009 3 25.7314Z" fill="white"/>
<path d="M13.4148 37.9073C13.7987 38.9311 14.2283 39.904 14.703 40.8148C15.4191 42.1887 16.2138 43.378 17.07 44.3735C14.1698 43.3647 11.5077 41.7178 9.25628 39.5044C10.5186 38.8827 11.9162 38.3476 13.4148 37.9073Z" fill="white"/>
<path d="M14.703 8.18745C14.2283 9.09829 13.7987 10.0711 13.4148 11.0949C11.9162 10.6545 10.5186 10.1195 9.25636 9.49781C11.5077 7.28432 14.1698 5.63751 17.0701 4.62866C16.2138 5.62423 15.4191 6.81352 14.703 8.18745Z" fill="white"/>
</g>
</svg>
