<svg width="46" height="46" viewBox="0 0 46 46" fill="none" xmlns="http://www.w3.org/2000/svg">
<circle cx="23" cy="23" r="23" fill="white"/>
<g clip-path="url(#clip0_144_680)">
<path d="M16.3613 30.1494C16.4924 30.1493 16.6233 30.0994 16.7228 30L29.1286 17.5949V27.6389V27.639C29.1287 27.7745 29.1825 27.9045 29.2783 28.0003C29.3742 28.0961 29.5041 28.15 29.6396 28.15L29.6399 28.15C29.7753 28.1498 29.9051 28.0959 30.0009 28.0001C30.0966 27.9044 30.1505 27.7746 30.1507 27.6392V27.6389V17C30.1507 16.3649 29.6359 15.85 29.0007 15.85H18.3603C18.0792 15.85 17.8493 16.0788 17.8493 16.3611C17.8493 16.6433 18.0792 16.8721 18.3603 16.8721H28.4051L15.9994 29.2772L15.9993 29.2773C15.9035 29.3732 15.8498 29.5031 15.8498 29.6386C15.8498 29.7741 15.9035 29.9041 15.9993 30L15.9993 30C16.0469 30.0476 16.1033 30.0853 16.1655 30.1109C16.2276 30.1365 16.2941 30.1496 16.3613 30.1494ZM16.3613 30.1494C16.3612 30.1494 16.3611 30.1494 16.3611 30.1494V29.9994L16.3616 30.1494C16.3615 30.1494 16.3614 30.1494 16.3613 30.1494ZM29.1286 17.3828L29.2786 17.2328V17.4449L29.1286 17.3828Z" fill="black" stroke="black" stroke-width="0.3"/>
</g>
<defs>
<clipPath id="clip0_144_680">
<rect width="16" height="16" fill="white" transform="translate(15 15)"/>
</clipPath>
</defs>
</svg>
