<svg width="25" height="29" viewBox="0 0 25 29" fill="none" xmlns="http://www.w3.org/2000/svg">
<g id="Group">
<path id="Vector" d="M19.4902 27.459C19.5172 27.7909 19.2668 28.0625 18.9338 28.0625H13.7551C13.422 28.0625 13.1717 27.7909 13.1986 27.459L14.3386 13.4375C14.3656 13.1056 14.6601 12.8341 14.9931 12.8341H17.6957C18.0287 12.8341 18.3233 13.1056 18.3502 13.4375L19.4902 27.459ZM24.3068 7.63853C24.3068 6.72348 23.565 5.98166 22.6499 5.98166C21.9262 5.98166 21.3111 6.44593 21.0855 7.09282C20.7817 6.81875 20.3869 6.6673 19.9778 6.66784C19.1608 6.66784 18.4824 7.25932 18.3463 8.03729C17.7249 8.07767 17.233 8.59305 17.233 9.22461C17.233 9.88251 17.7664 10.4159 18.4243 10.4159C18.6089 10.4159 18.7829 10.3726 18.9389 10.2977C19.2329 10.5354 19.5997 10.6648 19.9778 10.6643C20.2796 10.6643 20.5624 10.5832 20.8062 10.4421C21.0578 10.588 21.3437 10.6646 21.6346 10.6643C22.4949 10.6643 23.2019 10.0086 23.2834 9.1697C23.8841 8.92085 24.3068 8.32918 24.3068 7.63853ZM8.90604 27.4593C8.93474 27.7911 8.68571 28.0625 8.3527 28.0625H1.29778C0.964769 28.0625 0.71574 27.7911 0.744439 27.4593L2.24182 10.1342C2.27052 9.80241 2.56642 9.53098 2.89942 9.53098H6.75111C7.08412 9.53098 7.38001 9.80241 7.40871 10.1342L8.90604 27.4593ZM16.3445 3.32662C16.3445 2.00718 15.2748 0.9375 13.9553 0.9375C12.9116 0.9375 12.0249 1.60703 11.6995 2.53975C11.2763 2.15891 10.7163 1.92696 10.1021 1.92696C8.92408 1.92696 7.94588 2.77982 7.74959 3.90163C6.85362 3.95982 6.14437 4.70297 6.14437 5.61372C6.14437 6.56243 6.91344 7.33149 7.86215 7.33149C8.12831 7.33149 8.37928 7.26919 8.60415 7.16117C9.02818 7.50381 9.55704 7.69039 10.1022 7.68969C10.5375 7.68969 10.9453 7.57271 11.2967 7.36927C11.6597 7.57961 12.0718 7.69016 12.4913 7.68969C13.7318 7.68969 14.7512 6.74413 14.8688 5.53452C15.735 5.17566 16.3445 4.32249 16.3445 3.32662Z" fill="#003399"/>
</g>
</svg>
