<svg width="209" height="155" viewBox="0 0 209 155" fill="none" xmlns="http://www.w3.org/2000/svg">
<g id="Frame 2131328659" clip-path="url(#clip0_172_26607)">
<g id="illustration / flower / white">
<path id="Vector" d="M174.103 17.6258C174.106 17.6334 174.11 17.6408 174.112 17.6489C174.252 18.2562 174.017 19.3032 173.924 19.9388C173.258 24.5331 172.213 26.968 170.124 31.0787C165.073 41.0128 156.896 46.7323 146.457 50.1366L146.418 50.0914C147.195 49.6794 148.047 49.3821 148.841 48.9967C158.493 44.3107 166.236 35.9625 170.795 26.306C172.113 23.5126 173.104 20.5456 174.103 17.6258Z" fill="#0066FF"/>
<path id="Vector_2" d="M28.7588 51.8765C29.8547 52.613 32.2621 55.2977 33.4428 56.4118C33.809 56.7632 34.1796 57.1101 34.5545 57.4524C34.9292 57.7947 35.3081 58.1323 35.6913 58.4653C36.0744 58.7982 36.4616 59.1262 36.8529 59.4495C37.2442 59.7729 37.6395 60.0914 38.0388 60.4049C38.4379 60.7184 38.8409 61.0269 39.2478 61.3304C39.6545 61.6341 40.0651 61.9326 40.4793 62.2259C40.8935 62.5193 41.3112 62.8075 41.7326 63.0905C42.1539 63.3735 42.5787 63.6513 43.0069 63.9238C43.4351 64.1963 43.8667 64.4635 44.3015 64.7253C44.7364 64.9871 45.1745 65.2435 45.6157 65.4946C46.0569 65.7456 46.5011 65.9911 46.9483 66.231C47.3956 66.471 47.8458 66.7054 48.2989 66.9342C48.752 67.163 49.2079 67.3862 49.6665 67.6039C50.125 67.8214 50.5863 68.0332 51.0503 68.2392C51.5141 68.4453 51.9804 68.6457 52.4492 68.8404C52.918 69.0348 53.3892 69.2235 53.8627 69.4065C54.3362 69.5894 54.8119 69.7664 55.2898 69.9374C55.7677 70.1086 56.2476 70.2738 56.7295 70.433C57.2114 70.5923 57.6952 70.7456 58.1811 70.8927C58.6668 71.04 59.1543 71.1812 59.6436 71.3163C60.1329 71.4516 60.6238 71.5807 61.1161 71.7037C61.6087 71.8266 62.1026 71.9435 62.5979 72.0543C63.0932 72.1652 63.5898 72.2698 64.0878 72.3683C64.5858 72.4668 65.0849 72.559 65.5851 72.6451C66.0853 72.7313 66.5865 72.8113 67.0887 72.8849C67.591 72.9586 68.0941 73.0261 68.5979 73.0875C69.1017 73.1487 69.6063 73.2036 70.1116 73.2523C70.6168 73.3012 71.1225 73.3437 71.6289 73.3799C72.1352 73.4161 72.6418 73.4461 73.1488 73.4698C73.6558 73.4934 74.1631 73.5108 74.6706 73.522C75.1781 73.5331 75.6856 73.5378 76.1932 73.5363C76.7008 73.5349 77.2083 73.5272 77.7157 73.5132C72.591 74.8907 63.0002 73.8574 57.8666 72.5796C54.995 71.865 52.1668 71.0047 49.4602 69.7998C41.3273 66.1789 33.3554 59.5296 28.7588 51.8765Z" fill="#0066FF"/>
<path id="Vector_3" d="M40.3867 8.05908C40.7511 8.2687 41.3786 10.0075 41.6068 10.4674C42.4084 12.0827 43.4735 13.6187 44.4241 15.1545C48.3067 21.4251 52.7515 26.5451 58.2196 31.4727C59.5945 32.7118 60.9538 33.9868 62.4429 35.0888C63.0011 35.5024 63.567 35.9053 64.1407 36.2974C64.7143 36.6895 65.2951 37.0704 65.8833 37.4402C66.4715 37.8101 67.0665 38.1686 67.6682 38.5158C68.2701 38.863 68.8784 39.1985 69.493 39.5224C70.1077 39.8463 70.7284 40.1584 71.355 40.4588C71.9815 40.7589 72.6135 41.0471 73.251 41.3233C73.8887 41.5995 74.5313 41.8633 75.1788 42.1149C75.8265 42.3664 76.4787 42.6056 77.1355 42.8323C74.856 42.7612 68.7278 40.1913 66.5539 39.0683C66.1665 38.8723 65.7815 38.6714 65.399 38.4656C65.0167 38.2598 64.6369 38.0494 64.2598 37.8341C63.8826 37.6189 63.5083 37.3989 63.1367 37.1743C62.7651 36.9497 62.3963 36.7204 62.0305 36.4864C61.6646 36.2525 61.3017 36.014 60.9418 35.771C60.5818 35.528 60.2251 35.2805 59.8715 35.0285C59.5178 34.7766 59.1673 34.5203 58.8202 34.2596C58.4729 33.9988 58.129 33.7338 57.7884 33.4644C57.4477 33.195 57.1105 32.9214 56.7768 32.6435C56.4431 32.3658 56.1129 32.0839 55.7864 31.7977C55.4596 31.5116 55.1366 31.2214 54.8172 30.9271C54.4978 30.6329 54.1823 30.3347 53.8705 30.0326C53.5585 29.7305 53.2504 29.4245 52.9462 29.1146C52.642 28.8046 52.3417 28.491 52.0453 28.1736C51.749 27.8562 51.4567 27.5352 51.1685 27.2104C50.8801 26.8858 50.596 26.5575 50.316 26.2256C50.036 25.8937 49.7601 25.5583 49.4884 25.2195C49.2168 24.8806 48.9495 24.5385 48.6865 24.1931C48.4234 23.8476 48.1647 23.4989 47.9104 23.1469C47.656 22.7949 47.4061 22.4397 47.1608 22.0814C46.9154 21.7231 46.6745 21.3619 46.4382 20.9977C46.2018 20.6334 45.9702 20.2661 45.7432 19.896C45.516 19.5259 45.2936 19.153 45.0758 18.7773C44.8581 18.4017 44.645 18.0233 44.4367 17.6422C44.2284 17.2611 44.025 16.8776 43.8264 16.4915C43.6277 16.1052 43.434 15.7166 43.2451 15.3257C43.0562 14.9347 42.8723 14.5414 42.6932 14.1457C42.5141 13.7501 42.3401 13.3523 42.1712 12.9522C42.0022 12.5523 41.8382 12.1503 41.6792 11.7461C41.5203 11.342 41.3664 10.936 41.2176 10.5281C41.0688 10.1202 40.9251 9.71046 40.7866 9.29891C40.6482 8.88731 40.5149 8.47404 40.3867 8.05908Z" fill="#0066FF"/>
<g id="Subtract">
<mask id="path-4-outside-1_172_26607" maskUnits="userSpaceOnUse" x="-1.22474" y="-65.1565" width="195.335" height="163.515" fill="black">
<rect fill="white" x="-1.22474" y="-65.1565" width="195.335" height="163.515"/>
<path fill-rule="evenodd" clip-rule="evenodd" d="M85.2419 -43.5161L85.2095 -43.5408C84.3257 -42.5889 83.5723 -41.44 82.8482 -40.3359L82.8478 -40.3353L82.8473 -40.3346C82.7175 -40.1366 82.5885 -39.9399 82.4599 -39.7462C75.6362 -29.4639 73.4003 -16.3237 73.3775 -4.18525C72.681 -4.51946 71.9964 -4.87365 71.3119 -5.2278L71.3117 -5.22792L71.3112 -5.22817L71.311 -5.22826C70.3127 -5.7448 69.3146 -6.26121 68.2802 -6.71531C62.888 -9.08239 56.8776 -10.5863 51.0168 -11.1344C45.0599 -11.6916 38.7222 -11.3234 32.9944 -9.55784C32.8487 -9.51293 32.685 -9.46741 32.5121 -9.4193C31.8485 -9.23469 31.0481 -9.01204 30.6009 -8.64059C30.9142 -8.59868 31.2525 -8.69224 31.5728 -8.78082L31.5728 -8.78083L31.5728 -8.78084L31.5729 -8.78085L31.5729 -8.78086C31.6626 -8.80567 31.7509 -8.83009 31.8368 -8.85102C31.5265 4.71689 36.1002 16.9963 43.8149 28.0228C45.4682 30.3855 47.1424 32.7092 49.0634 34.8636C44.8609 34.5263 40.8552 34.8565 36.7817 35.9196C36.0414 36.1087 35.3067 36.3178 34.5777 36.5469C33.8488 36.776 33.1266 37.0247 32.4111 37.2931C31.6957 37.5615 30.988 37.8492 30.2881 38.156C29.5884 38.4629 28.8975 38.7885 28.2154 39.1328C27.5332 39.4773 26.8609 39.84 26.1986 40.221C25.5361 40.6019 24.8845 41.0007 24.2438 41.4171C23.6032 41.8334 22.9743 42.2668 22.3571 42.7175C21.7399 43.168 21.1355 43.6351 20.5437 44.1185C20.3989 44.2361 20.2393 44.3599 20.0723 44.4892L20.0719 44.4896L20.0719 44.4896C19.3489 45.05 18.4899 45.716 18.1104 46.4377C18.0191 46.6114 18.0507 46.6867 18.1051 46.8165C18.1213 46.855 18.1394 46.8983 18.157 46.9504C18.9583 44.8953 28.0054 39.9603 30.3133 38.9449C36.3609 36.2836 42.6889 35.0332 49.2782 35.0729L49.5508 35.3758C50.887 36.861 52.2219 38.3449 53.659 39.7348C64.6227 50.3379 77.2876 55.8709 91.9619 59.3681C93.4177 59.715 94.8721 60.0529 96.3241 60.3903L96.3261 60.3908L96.3282 60.3913C103.394 62.0331 110.402 63.6616 117.238 66.2411C114.44 68.9445 110.962 71.3058 107.616 73.2867C97.9424 79.0147 87.7108 82.2496 76.4101 82.064C58.392 81.7685 41.2798 72.6393 28.9437 59.8722C27.5813 58.4622 26.2269 57.0052 24.9805 55.491C24.6818 55.128 23.8607 54.0568 22.8961 52.7983L22.8956 52.7978L22.8954 52.7974L22.8952 52.7972C21.072 50.4185 18.7363 47.3714 18.4448 47.1719C18.6625 47.5573 18.8837 47.9407 19.1085 48.3221C19.3335 48.7037 19.562 49.0832 19.7939 49.4609C20.0257 49.8384 20.2611 50.2137 20.5 50.5869C20.7388 50.96 20.981 51.331 21.2266 51.6999C21.4721 52.0685 21.7211 52.435 21.9734 52.7993C22.2258 53.1634 22.4814 53.5252 22.7403 53.8847C22.9993 54.2443 23.2615 54.6015 23.5269 54.9562C23.7924 55.3109 24.0611 55.6632 24.3331 56.013C24.605 56.3628 24.8801 56.7101 25.1584 57.0548C25.4367 57.3994 25.7181 57.7416 26.0027 58.0811C26.2874 58.4207 26.575 58.7577 26.8656 59.0921C27.1564 59.4264 27.4503 59.7581 27.7472 60.0871C28.0439 60.416 28.3437 60.7422 28.6465 61.0655C28.9494 61.389 29.2551 61.7097 29.5637 62.0274C29.8724 62.3453 30.184 62.6603 30.4984 62.9726C30.8128 63.2847 31.1301 63.5939 31.4501 63.9002C31.7703 64.2065 32.0933 64.5099 32.419 64.8104C32.7445 65.1107 33.0729 65.4081 33.4041 65.7025C33.7352 65.9968 34.069 66.2882 34.4055 66.5765C34.7419 66.8648 35.0809 67.15 35.4226 67.4319C35.7642 67.714 36.1085 67.993 36.4553 68.2687C36.802 68.5444 37.1513 68.817 37.5031 69.0864C37.8549 69.3558 38.2092 69.6219 38.5658 69.8847C38.9225 70.1477 39.2815 70.4073 39.6429 70.6635C40.0043 70.9198 40.368 71.1727 40.7342 71.4224C41.1001 71.672 41.4684 71.9182 41.8391 72.1611C42.2096 72.404 42.5824 72.6435 42.9574 72.8796C43.3323 73.1156 43.7093 73.3482 44.0886 73.5774C44.4678 73.8065 44.849 74.0321 45.2322 74.2542C45.6157 74.4764 46.001 74.695 46.3883 74.9101C46.7757 75.1252 47.165 75.3368 47.5563 75.5448C47.9475 75.7526 48.3406 75.957 48.7355 76.1578C52.4934 78.091 56.2892 79.7222 60.3635 80.8722C63.1533 81.6597 65.9554 82.3411 68.8288 82.7432C69.8347 82.884 70.8436 82.9789 71.8526 83.0738C72.5757 83.1419 73.2989 83.2099 74.0211 83.2948C86.2904 83.9794 97.8551 80.7717 108.32 74.3839C109.783 73.4912 111.242 72.5684 112.636 71.5709C113.04 71.2817 113.435 70.9798 113.831 70.6779C114.387 70.2533 114.944 69.8286 115.524 69.4392C115.856 69.1481 116.208 68.8725 116.56 68.5965L116.56 68.5964L116.56 68.5963L116.56 68.5961L116.56 68.596L116.56 68.596C117.592 67.7875 118.627 66.976 119.192 65.7656C119.404 65.6208 119.622 65.4852 119.847 65.3589C120.071 65.2327 120.299 65.1162 120.533 65.0095C120.768 64.9027 121.006 64.8061 121.248 64.7196C121.49 64.6332 121.735 64.5572 121.984 64.4917C123.456 64.1164 125.06 64.008 126.616 63.9028L126.616 63.9028L126.616 63.9028C127.063 63.8725 127.507 63.8425 127.942 63.8066C131.238 63.5344 134.545 63.2587 137.791 62.5944C144.477 61.2259 150.632 58.4352 156.206 54.5149C166.145 47.5261 173.824 36.316 177.632 24.8375C179.303 19.8019 180.306 14.5796 181.222 9.36427C181.105 9.31633 180.989 9.27052 180.869 9.23023C172.064 6.30201 163.757 6.5728 155.404 10.757C156.06 8.21924 156.546 5.64935 156.863 3.04728C156.915 2.65776 156.963 2.26781 157.008 1.87745C157.053 1.48709 157.094 1.09638 157.132 0.705316C157.17 0.314159 157.204 -0.0772837 157.235 -0.468997C157.266 -0.860718 157.293 -1.25269 157.316 -1.64493C157.34 -2.03703 157.36 -2.42938 157.377 -2.822C157.393 -3.21458 157.406 -3.60727 157.416 -4.00008C157.425 -4.39293 157.431 -4.78579 157.433 -5.17866C157.436 -5.57168 157.434 -5.96459 157.43 -6.35742C157.425 -6.75035 157.417 -7.14316 157.405 -7.53586C157.393 -7.92871 157.377 -8.32137 157.358 -8.71385C157.339 -9.10632 157.317 -9.4986 157.291 -9.89068C157.265 -10.2826 157.235 -10.6743 157.202 -11.0659C157.169 -11.4574 157.132 -11.8486 157.092 -12.2395C157.052 -12.6303 157.008 -13.0208 156.961 -13.411C156.913 -13.801 156.863 -14.1907 156.808 -14.5798C156.754 -14.9689 156.696 -15.3575 156.635 -15.7457C156.573 -16.1338 156.508 -16.5213 156.44 -16.9083C156.372 -17.2952 156.3 -17.6815 156.224 -18.0672C156.149 -18.4527 156.07 -18.8376 155.988 -19.2219C155.906 -19.606 155.82 -19.9894 155.73 -20.3721C155.641 -20.7548 155.548 -21.1366 155.452 -21.5175C155.356 -21.8985 155.257 -22.2786 155.154 -22.6578C155.05 -23.0369 154.944 -23.4152 154.834 -23.7925C154.724 -24.1697 154.611 -24.5459 154.494 -24.9211C154.378 -25.2963 154.258 -25.6705 154.134 -26.0436C154.011 -26.4165 153.884 -26.7884 153.754 -27.1592C153.624 -27.53 153.49 -27.8995 153.353 -28.2677C153.216 -28.636 153.076 -29.0031 152.933 -29.369C152.789 -29.7348 152.642 -30.0992 152.492 -30.4623C152.342 -30.8254 152.189 -31.1872 152.032 -31.5476C151.876 -31.908 151.716 -32.267 151.553 -32.6244C151.39 -32.9819 151.223 -33.3379 151.054 -33.6923C149.483 -36.948 147.705 -40.0363 145.482 -42.8955L144.895 -42.648C142.264 -41.5394 139.713 -40.4643 137.221 -39.0171C128.543 -33.9774 121.665 -25.8799 117.589 -16.7673C111.554 -25.6687 103.902 -33.2426 94.5551 -38.6251C92.7466 -39.6665 90.8978 -40.5909 89.025 -41.5091C88.728 -41.6548 88.4203 -41.7982 88.1089 -41.9432C87.138 -42.3955 86.1316 -42.8644 85.2997 -43.4724C85.2802 -43.4866 85.261 -43.5014 85.2419 -43.5161ZM163.52 8.87773L163.52 8.87777C162.5 9.11237 161.354 9.37585 160.388 9.77586C158.541 10.4418 156.818 11.25 155.074 12.1498C153.408 17.1806 151.319 22.3455 148.73 26.9814C144.44 34.6652 138.796 41.362 133.155 48.0547L133.155 48.0548C131.692 49.7911 130.228 51.5272 128.789 53.28C127.141 55.2877 125.506 57.3484 123.955 59.4327C123.533 59.9995 123.123 60.5752 122.713 61.151L122.713 61.1513C122.152 61.9393 121.591 62.7273 120.999 63.4924C122.856 62.9031 124.899 62.8154 126.898 62.7295C127.639 62.6977 128.373 62.6662 129.09 62.6096C133.022 62.299 137.046 61.756 140.84 60.6481C155.468 56.1651 165.884 46.7214 173.017 33.2936C175.937 27.7986 177.775 21.9055 179.403 15.9283C179.491 15.607 179.58 15.2854 179.669 14.9635C180.158 13.1983 180.65 11.4221 180.9 9.61032C175.044 8.44722 169.497 7.50266 163.557 8.86913L163.52 8.87773ZM144.954 -42.3792C145.132 -42.4677 145.235 -42.4993 145.434 -42.4989C146.016 -42.0626 146.429 -41.2103 146.798 -40.4484C146.935 -40.1658 147.066 -39.8956 147.197 -39.6636C147.7 -38.7938 148.183 -37.9133 148.646 -37.0223C149.11 -36.1312 149.553 -35.2304 149.977 -34.3198C150.401 -33.4093 150.805 -32.4897 151.188 -31.5612C151.572 -30.6329 151.934 -29.6965 152.277 -28.7521C152.619 -27.8078 152.94 -26.8564 153.24 -25.8979C153.54 -24.9393 153.819 -23.9746 154.077 -23.0037C154.335 -22.0328 154.571 -21.0569 154.786 -20.0758C155 -19.0945 155.193 -18.109 155.365 -17.1193C158.702 3.18646 152.603 21.0587 140.354 37.2329C137.927 40.4379 135.333 43.4828 132.736 46.5318L132.736 46.5321C131.553 47.9198 130.371 49.3083 129.202 50.7132C126.299 54.184 123.539 57.7658 120.925 61.4589L120.735 61.6866L120.6 61.6968C120.722 61.0487 121.055 60.3472 121.376 59.6703C121.544 59.3155 121.709 58.9674 121.839 58.6373C122.516 56.9141 123.142 55.1661 123.766 53.4216L123.767 53.4209L123.767 53.4192C123.868 53.1386 123.968 52.8581 124.069 52.5778C125.432 48.7789 126.329 44.8271 127.214 40.8958C127.512 39.5112 127.776 38.12 128.006 36.7222C128.235 35.3244 128.429 33.9218 128.589 32.5144C128.749 31.107 128.873 29.6965 128.962 28.2829C129.052 26.8694 129.106 25.4544 129.125 24.038C129.385 9.26316 126.303 -3.0356 118.357 -15.5749C119.854 -19.3166 121.74 -22.5345 124.144 -25.7597C129.788 -33.33 136.617 -38.1309 144.954 -42.3792ZM31.9581 -8.91862C32.3936 -9.02274 32.8303 -9.1216 33.2683 -9.2152C33.7061 -9.30891 34.145 -9.39732 34.585 -9.48044C35.025 -9.56355 35.466 -9.64132 35.908 -9.71376C36.3499 -9.78617 36.7925 -9.85334 37.2359 -9.91528C37.6795 -9.97711 38.1238 -10.0336 38.5686 -10.0847C39.0134 -10.1358 39.4588 -10.1816 39.9048 -10.222C40.3508 -10.2625 40.7972 -10.2976 41.244 -10.3273C41.6908 -10.357 42.1379 -10.3814 42.5852 -10.4003C43.0327 -10.4192 43.4802 -10.4327 43.9279 -10.4409C44.3756 -10.4492 44.8234 -10.452 45.2712 -10.4493C45.719 -10.4467 46.1667 -10.4388 46.6144 -10.4255C47.0619 -10.4121 47.5093 -10.3934 47.9564 -10.3694C48.4036 -10.3452 48.8503 -10.3156 49.2967 -10.2808C49.7432 -10.246 50.1892 -10.2058 50.6346 -10.1603C51.0801 -10.1146 51.525 -10.0636 51.9692 -10.0073C52.4135 -9.95105 52.857 -9.88948 53.2997 -9.82264C53.7424 -9.75566 54.1843 -9.68337 54.6253 -9.6058C55.0663 -9.52822 55.5064 -9.44538 55.9454 -9.35728C56.3844 -9.26904 56.8224 -9.17558 57.2592 -9.07691C57.6959 -8.97821 58.1314 -8.87428 58.5658 -8.76511C59 -8.65605 59.4329 -8.54172 59.8644 -8.42212C60.296 -8.30253 60.7261 -8.17777 61.1547 -8.04785C61.5831 -7.91789 62.01 -7.78281 62.4353 -7.64262C62.8607 -7.50247 63.2842 -7.3572 63.7059 -7.20681C64.1277 -7.05646 64.5477 -6.90108 64.9658 -6.74068C65.3838 -6.58023 65.7998 -6.41473 66.2139 -6.24415C66.6279 -6.07372 67.0399 -5.89833 67.4497 -5.71801C67.8596 -5.53755 68.2673 -5.35225 68.6727 -5.1621C69.0781 -4.97195 69.4811 -4.77695 69.8818 -4.57708C70.2826 -4.37722 70.6808 -4.17252 71.0766 -3.96301C71.4723 -3.75349 71.8656 -3.53928 72.2563 -3.32039C72.647 -3.1015 73.0349 -2.87794 73.4201 -2.6497C73.6122 0.875423 73.8573 4.42811 74.462 7.9094C77.8851 27.6177 89.1625 41.2623 103.863 54.0995C107.916 57.6389 112.058 61.2107 116.462 64.3079L116.574 64.4321L116.458 64.4708C115.832 64.2664 115.207 64.0599 114.583 63.8536L114.583 63.8535C112.002 63 109.428 62.149 106.791 61.4562C104.037 60.7328 101.247 60.1286 98.4582 59.5246C96.3702 59.0724 94.2825 58.6203 92.2099 58.1181C78.3375 54.7574 66.896 49.9479 56.113 40.3858C52.5054 37.1867 49.3091 33.4936 46.3933 29.6626C37.3804 17.8204 32.8594 5.94777 31.9581 -8.91862ZM85.2451 -43.2159C85.2253 -43.2167 85.2056 -43.2176 85.186 -43.2195C84.1597 -41.8791 83.4135 -40.3801 82.6653 -38.8771C82.4476 -38.4398 82.2298 -38.0022 82.0048 -37.5681C75.2513 -24.5344 73.4322 -9.34619 75.3568 5.10758C77.1981 18.9347 82.5267 29.4044 91.4581 39.9344C96.0266 45.3205 101.044 50.1349 106.415 54.7104C109.569 57.3968 112.75 60.1009 116.044 62.6145C116.235 62.7605 116.435 62.9326 116.641 63.1097C117.102 63.5065 117.593 63.9283 118.077 64.1366C118.203 64.0678 118.235 64.0626 118.256 64.0449C118.273 64.0314 118.284 64.0105 118.326 63.9483C118.639 63.1511 118.972 62.3619 119.304 61.5728C119.643 60.7708 119.981 59.9689 120.298 59.1588C121.717 55.5393 123.021 51.7778 124.112 48.0456C128.053 34.5704 129.368 19.3058 126.104 5.54591C125.208 1.77087 123.846 -2.01567 122.299 -5.56926C115.999 -20.0423 105.078 -31.0859 91.8001 -39.3391C91.5855 -39.4725 91.2306 -39.7002 90.7935 -39.9806C89.0682 -41.0876 86.0634 -43.0156 85.3617 -43.2025C85.3238 -43.2125 85.2844 -43.2142 85.2451 -43.2159Z"/>
</mask>
<path fill-rule="evenodd" clip-rule="evenodd" d="M85.2419 -43.5161L85.2095 -43.5408C84.3257 -42.5889 83.5723 -41.44 82.8482 -40.3359L82.8478 -40.3353L82.8473 -40.3346C82.7175 -40.1366 82.5885 -39.9399 82.4599 -39.7462C75.6362 -29.4639 73.4003 -16.3237 73.3775 -4.18525C72.681 -4.51946 71.9964 -4.87365 71.3119 -5.2278L71.3117 -5.22792L71.3112 -5.22817L71.311 -5.22826C70.3127 -5.7448 69.3146 -6.26121 68.2802 -6.71531C62.888 -9.08239 56.8776 -10.5863 51.0168 -11.1344C45.0599 -11.6916 38.7222 -11.3234 32.9944 -9.55784C32.8487 -9.51293 32.685 -9.46741 32.5121 -9.4193C31.8485 -9.23469 31.0481 -9.01204 30.6009 -8.64059C30.9142 -8.59868 31.2525 -8.69224 31.5728 -8.78082L31.5728 -8.78083L31.5728 -8.78084L31.5729 -8.78085L31.5729 -8.78086C31.6626 -8.80567 31.7509 -8.83009 31.8368 -8.85102C31.5265 4.71689 36.1002 16.9963 43.8149 28.0228C45.4682 30.3855 47.1424 32.7092 49.0634 34.8636C44.8609 34.5263 40.8552 34.8565 36.7817 35.9196C36.0414 36.1087 35.3067 36.3178 34.5777 36.5469C33.8488 36.776 33.1266 37.0247 32.4111 37.2931C31.6957 37.5615 30.988 37.8492 30.2881 38.156C29.5884 38.4629 28.8975 38.7885 28.2154 39.1328C27.5332 39.4773 26.8609 39.84 26.1986 40.221C25.5361 40.6019 24.8845 41.0007 24.2438 41.4171C23.6032 41.8334 22.9743 42.2668 22.3571 42.7175C21.7399 43.168 21.1355 43.6351 20.5437 44.1185C20.3989 44.2361 20.2393 44.3599 20.0723 44.4892L20.0719 44.4896L20.0719 44.4896C19.3489 45.05 18.4899 45.716 18.1104 46.4377C18.0191 46.6114 18.0507 46.6867 18.1051 46.8165C18.1213 46.855 18.1394 46.8983 18.157 46.9504C18.9583 44.8953 28.0054 39.9603 30.3133 38.9449C36.3609 36.2836 42.6889 35.0332 49.2782 35.0729L49.5508 35.3758C50.887 36.861 52.2219 38.3449 53.659 39.7348C64.6227 50.3379 77.2876 55.8709 91.9619 59.3681C93.4177 59.715 94.8721 60.0529 96.3241 60.3903L96.3261 60.3908L96.3282 60.3913C103.394 62.0331 110.402 63.6616 117.238 66.2411C114.44 68.9445 110.962 71.3058 107.616 73.2867C97.9424 79.0147 87.7108 82.2496 76.4101 82.064C58.392 81.7685 41.2798 72.6393 28.9437 59.8722C27.5813 58.4622 26.2269 57.0052 24.9805 55.491C24.6818 55.128 23.8607 54.0568 22.8961 52.7983L22.8956 52.7978L22.8954 52.7974L22.8952 52.7972C21.072 50.4185 18.7363 47.3714 18.4448 47.1719C18.6625 47.5573 18.8837 47.9407 19.1085 48.3221C19.3335 48.7037 19.562 49.0832 19.7939 49.4609C20.0257 49.8384 20.2611 50.2137 20.5 50.5869C20.7388 50.96 20.981 51.331 21.2266 51.6999C21.4721 52.0685 21.7211 52.435 21.9734 52.7993C22.2258 53.1634 22.4814 53.5252 22.7403 53.8847C22.9993 54.2443 23.2615 54.6015 23.5269 54.9562C23.7924 55.3109 24.0611 55.6632 24.3331 56.013C24.605 56.3628 24.8801 56.7101 25.1584 57.0548C25.4367 57.3994 25.7181 57.7416 26.0027 58.0811C26.2874 58.4207 26.575 58.7577 26.8656 59.0921C27.1564 59.4264 27.4503 59.7581 27.7472 60.0871C28.0439 60.416 28.3437 60.7422 28.6465 61.0655C28.9494 61.389 29.2551 61.7097 29.5637 62.0274C29.8724 62.3453 30.184 62.6603 30.4984 62.9726C30.8128 63.2847 31.1301 63.5939 31.4501 63.9002C31.7703 64.2065 32.0933 64.5099 32.419 64.8104C32.7445 65.1107 33.0729 65.4081 33.4041 65.7025C33.7352 65.9968 34.069 66.2882 34.4055 66.5765C34.7419 66.8648 35.0809 67.15 35.4226 67.4319C35.7642 67.714 36.1085 67.993 36.4553 68.2687C36.802 68.5444 37.1513 68.817 37.5031 69.0864C37.8549 69.3558 38.2092 69.6219 38.5658 69.8847C38.9225 70.1477 39.2815 70.4073 39.6429 70.6635C40.0043 70.9198 40.368 71.1727 40.7342 71.4224C41.1001 71.672 41.4684 71.9182 41.8391 72.1611C42.2096 72.404 42.5824 72.6435 42.9574 72.8796C43.3323 73.1156 43.7093 73.3482 44.0886 73.5774C44.4678 73.8065 44.849 74.0321 45.2322 74.2542C45.6157 74.4764 46.001 74.695 46.3883 74.9101C46.7757 75.1252 47.165 75.3368 47.5563 75.5448C47.9475 75.7526 48.3406 75.957 48.7355 76.1578C52.4934 78.091 56.2892 79.7222 60.3635 80.8722C63.1533 81.6597 65.9554 82.3411 68.8288 82.7432C69.8347 82.884 70.8436 82.9789 71.8526 83.0738C72.5757 83.1419 73.2989 83.2099 74.0211 83.2948C86.2904 83.9794 97.8551 80.7717 108.32 74.3839C109.783 73.4912 111.242 72.5684 112.636 71.5709C113.04 71.2817 113.435 70.9798 113.831 70.6779C114.387 70.2533 114.944 69.8286 115.524 69.4392C115.856 69.1481 116.208 68.8725 116.56 68.5965L116.56 68.5964L116.56 68.5963L116.56 68.5961L116.56 68.596L116.56 68.596C117.592 67.7875 118.627 66.976 119.192 65.7656C119.404 65.6208 119.622 65.4852 119.847 65.3589C120.071 65.2327 120.299 65.1162 120.533 65.0095C120.768 64.9027 121.006 64.8061 121.248 64.7196C121.49 64.6332 121.735 64.5572 121.984 64.4917C123.456 64.1164 125.06 64.008 126.616 63.9028L126.616 63.9028L126.616 63.9028C127.063 63.8725 127.507 63.8425 127.942 63.8066C131.238 63.5344 134.545 63.2587 137.791 62.5944C144.477 61.2259 150.632 58.4352 156.206 54.5149C166.145 47.5261 173.824 36.316 177.632 24.8375C179.303 19.8019 180.306 14.5796 181.222 9.36427C181.105 9.31633 180.989 9.27052 180.869 9.23023C172.064 6.30201 163.757 6.5728 155.404 10.757C156.06 8.21924 156.546 5.64935 156.863 3.04728C156.915 2.65776 156.963 2.26781 157.008 1.87745C157.053 1.48709 157.094 1.09638 157.132 0.705316C157.17 0.314159 157.204 -0.0772837 157.235 -0.468997C157.266 -0.860718 157.293 -1.25269 157.316 -1.64493C157.34 -2.03703 157.36 -2.42938 157.377 -2.822C157.393 -3.21458 157.406 -3.60727 157.416 -4.00008C157.425 -4.39293 157.431 -4.78579 157.433 -5.17866C157.436 -5.57168 157.434 -5.96459 157.43 -6.35742C157.425 -6.75035 157.417 -7.14316 157.405 -7.53586C157.393 -7.92871 157.377 -8.32137 157.358 -8.71385C157.339 -9.10632 157.317 -9.4986 157.291 -9.89068C157.265 -10.2826 157.235 -10.6743 157.202 -11.0659C157.169 -11.4574 157.132 -11.8486 157.092 -12.2395C157.052 -12.6303 157.008 -13.0208 156.961 -13.411C156.913 -13.801 156.863 -14.1907 156.808 -14.5798C156.754 -14.9689 156.696 -15.3575 156.635 -15.7457C156.573 -16.1338 156.508 -16.5213 156.44 -16.9083C156.372 -17.2952 156.3 -17.6815 156.224 -18.0672C156.149 -18.4527 156.07 -18.8376 155.988 -19.2219C155.906 -19.606 155.82 -19.9894 155.73 -20.3721C155.641 -20.7548 155.548 -21.1366 155.452 -21.5175C155.356 -21.8985 155.257 -22.2786 155.154 -22.6578C155.05 -23.0369 154.944 -23.4152 154.834 -23.7925C154.724 -24.1697 154.611 -24.5459 154.494 -24.9211C154.378 -25.2963 154.258 -25.6705 154.134 -26.0436C154.011 -26.4165 153.884 -26.7884 153.754 -27.1592C153.624 -27.53 153.49 -27.8995 153.353 -28.2677C153.216 -28.636 153.076 -29.0031 152.933 -29.369C152.789 -29.7348 152.642 -30.0992 152.492 -30.4623C152.342 -30.8254 152.189 -31.1872 152.032 -31.5476C151.876 -31.908 151.716 -32.267 151.553 -32.6244C151.39 -32.9819 151.223 -33.3379 151.054 -33.6923C149.483 -36.948 147.705 -40.0363 145.482 -42.8955L144.895 -42.648C142.264 -41.5394 139.713 -40.4643 137.221 -39.0171C128.543 -33.9774 121.665 -25.8799 117.589 -16.7673C111.554 -25.6687 103.902 -33.2426 94.5551 -38.6251C92.7466 -39.6665 90.8978 -40.5909 89.025 -41.5091C88.728 -41.6548 88.4203 -41.7982 88.1089 -41.9432C87.138 -42.3955 86.1316 -42.8644 85.2997 -43.4724C85.2802 -43.4866 85.261 -43.5014 85.2419 -43.5161ZM163.52 8.87773L163.52 8.87777C162.5 9.11237 161.354 9.37585 160.388 9.77586C158.541 10.4418 156.818 11.25 155.074 12.1498C153.408 17.1806 151.319 22.3455 148.73 26.9814C144.44 34.6652 138.796 41.362 133.155 48.0547L133.155 48.0548C131.692 49.7911 130.228 51.5272 128.789 53.28C127.141 55.2877 125.506 57.3484 123.955 59.4327C123.533 59.9995 123.123 60.5752 122.713 61.151L122.713 61.1513C122.152 61.9393 121.591 62.7273 120.999 63.4924C122.856 62.9031 124.899 62.8154 126.898 62.7295C127.639 62.6977 128.373 62.6662 129.09 62.6096C133.022 62.299 137.046 61.756 140.84 60.6481C155.468 56.1651 165.884 46.7214 173.017 33.2936C175.937 27.7986 177.775 21.9055 179.403 15.9283C179.491 15.607 179.58 15.2854 179.669 14.9635C180.158 13.1983 180.65 11.4221 180.9 9.61032C175.044 8.44722 169.497 7.50266 163.557 8.86913L163.52 8.87773ZM144.954 -42.3792C145.132 -42.4677 145.235 -42.4993 145.434 -42.4989C146.016 -42.0626 146.429 -41.2103 146.798 -40.4484C146.935 -40.1658 147.066 -39.8956 147.197 -39.6636C147.7 -38.7938 148.183 -37.9133 148.646 -37.0223C149.11 -36.1312 149.553 -35.2304 149.977 -34.3198C150.401 -33.4093 150.805 -32.4897 151.188 -31.5612C151.572 -30.6329 151.934 -29.6965 152.277 -28.7521C152.619 -27.8078 152.94 -26.8564 153.24 -25.8979C153.54 -24.9393 153.819 -23.9746 154.077 -23.0037C154.335 -22.0328 154.571 -21.0569 154.786 -20.0758C155 -19.0945 155.193 -18.109 155.365 -17.1193C158.702 3.18646 152.603 21.0587 140.354 37.2329C137.927 40.4379 135.333 43.4828 132.736 46.5318L132.736 46.5321C131.553 47.9198 130.371 49.3083 129.202 50.7132C126.299 54.184 123.539 57.7658 120.925 61.4589L120.735 61.6866L120.6 61.6968C120.722 61.0487 121.055 60.3472 121.376 59.6703C121.544 59.3155 121.709 58.9674 121.839 58.6373C122.516 56.9141 123.142 55.1661 123.766 53.4216L123.767 53.4209L123.767 53.4192C123.868 53.1386 123.968 52.8581 124.069 52.5778C125.432 48.7789 126.329 44.8271 127.214 40.8958C127.512 39.5112 127.776 38.12 128.006 36.7222C128.235 35.3244 128.429 33.9218 128.589 32.5144C128.749 31.107 128.873 29.6965 128.962 28.2829C129.052 26.8694 129.106 25.4544 129.125 24.038C129.385 9.26316 126.303 -3.0356 118.357 -15.5749C119.854 -19.3166 121.74 -22.5345 124.144 -25.7597C129.788 -33.33 136.617 -38.1309 144.954 -42.3792ZM31.9581 -8.91862C32.3936 -9.02274 32.8303 -9.1216 33.2683 -9.2152C33.7061 -9.30891 34.145 -9.39732 34.585 -9.48044C35.025 -9.56355 35.466 -9.64132 35.908 -9.71376C36.3499 -9.78617 36.7925 -9.85334 37.2359 -9.91528C37.6795 -9.97711 38.1238 -10.0336 38.5686 -10.0847C39.0134 -10.1358 39.4588 -10.1816 39.9048 -10.222C40.3508 -10.2625 40.7972 -10.2976 41.244 -10.3273C41.6908 -10.357 42.1379 -10.3814 42.5852 -10.4003C43.0327 -10.4192 43.4802 -10.4327 43.9279 -10.4409C44.3756 -10.4492 44.8234 -10.452 45.2712 -10.4493C45.719 -10.4467 46.1667 -10.4388 46.6144 -10.4255C47.0619 -10.4121 47.5093 -10.3934 47.9564 -10.3694C48.4036 -10.3452 48.8503 -10.3156 49.2967 -10.2808C49.7432 -10.246 50.1892 -10.2058 50.6346 -10.1603C51.0801 -10.1146 51.525 -10.0636 51.9692 -10.0073C52.4135 -9.95105 52.857 -9.88948 53.2997 -9.82264C53.7424 -9.75566 54.1843 -9.68337 54.6253 -9.6058C55.0663 -9.52822 55.5064 -9.44538 55.9454 -9.35728C56.3844 -9.26904 56.8224 -9.17558 57.2592 -9.07691C57.6959 -8.97821 58.1314 -8.87428 58.5658 -8.76511C59 -8.65605 59.4329 -8.54172 59.8644 -8.42212C60.296 -8.30253 60.7261 -8.17777 61.1547 -8.04785C61.5831 -7.91789 62.01 -7.78281 62.4353 -7.64262C62.8607 -7.50247 63.2842 -7.3572 63.7059 -7.20681C64.1277 -7.05646 64.5477 -6.90108 64.9658 -6.74068C65.3838 -6.58023 65.7998 -6.41473 66.2139 -6.24415C66.6279 -6.07372 67.0399 -5.89833 67.4497 -5.71801C67.8596 -5.53755 68.2673 -5.35225 68.6727 -5.1621C69.0781 -4.97195 69.4811 -4.77695 69.8818 -4.57708C70.2826 -4.37722 70.6808 -4.17252 71.0766 -3.96301C71.4723 -3.75349 71.8656 -3.53928 72.2563 -3.32039C72.647 -3.1015 73.0349 -2.87794 73.4201 -2.6497C73.6122 0.875423 73.8573 4.42811 74.462 7.9094C77.8851 27.6177 89.1625 41.2623 103.863 54.0995C107.916 57.6389 112.058 61.2107 116.462 64.3079L116.574 64.4321L116.458 64.4708C115.832 64.2664 115.207 64.0599 114.583 63.8536L114.583 63.8535C112.002 63 109.428 62.149 106.791 61.4562C104.037 60.7328 101.247 60.1286 98.4582 59.5246C96.3702 59.0724 94.2825 58.6203 92.2099 58.1181C78.3375 54.7574 66.896 49.9479 56.113 40.3858C52.5054 37.1867 49.3091 33.4936 46.3933 29.6626C37.3804 17.8204 32.8594 5.94777 31.9581 -8.91862ZM85.2451 -43.2159C85.2253 -43.2167 85.2056 -43.2176 85.186 -43.2195C84.1597 -41.8791 83.4135 -40.3801 82.6653 -38.8771C82.4476 -38.4398 82.2298 -38.0022 82.0048 -37.5681C75.2513 -24.5344 73.4322 -9.34619 75.3568 5.10758C77.1981 18.9347 82.5267 29.4044 91.4581 39.9344C96.0266 45.3205 101.044 50.1349 106.415 54.7104C109.569 57.3968 112.75 60.1009 116.044 62.6145C116.235 62.7605 116.435 62.9326 116.641 63.1097C117.102 63.5065 117.593 63.9283 118.077 64.1366C118.203 64.0678 118.235 64.0626 118.256 64.0449C118.273 64.0314 118.284 64.0105 118.326 63.9483C118.639 63.1511 118.972 62.3619 119.304 61.5728C119.643 60.7708 119.981 59.9689 120.298 59.1588C121.717 55.5393 123.021 51.7778 124.112 48.0456C128.053 34.5704 129.368 19.3058 126.104 5.54591C125.208 1.77087 123.846 -2.01567 122.299 -5.56926C115.999 -20.0423 105.078 -31.0859 91.8001 -39.3391C91.5855 -39.4725 91.2306 -39.7002 90.7935 -39.9806C89.0682 -41.0876 86.0634 -43.0156 85.3617 -43.2025C85.3238 -43.2125 85.2844 -43.2142 85.2451 -43.2159Z" fill="#0066FF"/>
<path d="M85.2095 -43.5408L85.3915 -43.7793L85.175 -43.9445L84.9896 -43.7449L85.2095 -43.5408ZM85.2419 -43.5161L85.4245 -43.7541L85.4239 -43.7546L85.2419 -43.5161ZM82.8482 -40.3359L82.5973 -40.5004L82.596 -40.4984L82.8482 -40.3359ZM82.8478 -40.3353L83.0973 -40.1687L83.0999 -40.1727L82.8478 -40.3353ZM82.8473 -40.3346L82.5979 -40.5012L82.5965 -40.4991L82.8473 -40.3346ZM82.4599 -39.7462L82.7099 -39.5803L82.7099 -39.5803L82.4599 -39.7462ZM73.3775 -4.18525L73.2477 -3.91478L73.6766 -3.70897L73.6775 -4.18469L73.3775 -4.18525ZM71.3119 -5.2278L71.4498 -5.49427L71.4464 -5.49597L71.3119 -5.2278ZM71.3117 -5.22792L71.4462 -5.49609L71.3117 -5.22792ZM71.3112 -5.22817L71.1726 -4.96206L71.1767 -4.96L71.3112 -5.22817ZM71.311 -5.22826L71.4496 -5.49434L71.4489 -5.49471L71.311 -5.22826ZM68.2802 -6.71531L68.4008 -6.99L68.4008 -6.99001L68.2802 -6.71531ZM51.0168 -11.1344L50.9889 -10.8357L50.9889 -10.8357L51.0168 -11.1344ZM32.9944 -9.55784L33.0827 -9.27114L33.0827 -9.27115L32.9944 -9.55784ZM32.5121 -9.4193L32.4317 -9.70832L32.5121 -9.4193ZM30.6009 -8.64059L30.4092 -8.87135L29.8828 -8.43399L30.5611 -8.34324L30.6009 -8.64059ZM31.5728 -8.78082L31.4951 -9.07061L31.4928 -9.06997L31.5728 -8.78082ZM31.5728 -8.78083L31.4952 -9.07061L31.5728 -8.78083ZM31.5728 -8.78084L31.6505 -8.49107L31.5728 -8.78084ZM31.5729 -8.78085L31.4952 -9.07063L31.5729 -8.78085ZM31.5729 -8.78086L31.6506 -8.49107L31.6529 -8.49172L31.5729 -8.78086ZM31.8368 -8.85102L32.1367 -8.84417L32.1457 -9.23507L31.7658 -9.1425L31.8368 -8.85102ZM43.8149 28.0228L43.5691 28.1947L43.5691 28.1948L43.8149 28.0228ZM49.0634 34.8636L49.0394 35.1626L49.7854 35.2225L49.2873 34.6639L49.0634 34.8636ZM36.7817 35.9196L36.856 36.2103L36.8575 36.2099L36.7817 35.9196ZM34.5777 36.5469L34.4877 36.2607L34.4877 36.2607L34.5777 36.5469ZM32.4111 37.2931L32.3058 37.0122L32.4111 37.2931ZM30.2881 38.156L30.1677 37.8813L30.1676 37.8813L30.2881 38.156ZM28.2154 39.1328L28.0802 38.865L28.0801 38.865L28.2154 39.1328ZM26.1986 40.221L26.3481 40.481L26.3481 40.481L26.1986 40.221ZM24.2438 41.4171L24.4073 41.6687L24.4073 41.6686L24.2438 41.4171ZM22.3571 42.7175L22.534 42.9598L22.5341 42.9598L22.3571 42.7175ZM20.5437 44.1185L20.7328 44.3515L20.7336 44.3509L20.5437 44.1185ZM20.0723 44.4892L19.8885 44.2521L19.884 44.2558L20.0723 44.4892ZM20.0719 44.4896L20.2439 44.7354L20.2523 44.7295L20.2603 44.723L20.0719 44.4896ZM20.0719 44.4896L19.8999 44.2438L19.8939 44.248L19.8881 44.2525L20.0719 44.4896ZM18.1104 46.4377L17.8449 46.2981L17.8449 46.2981L18.1104 46.4377ZM18.1051 46.8165L17.8285 46.9326L17.8285 46.9326L18.1051 46.8165ZM18.157 46.9504L17.8727 47.0463L18.1366 47.8287L18.4365 47.0594L18.157 46.9504ZM30.3133 38.9449L30.4341 39.2195L30.4342 39.2195L30.3133 38.9449ZM49.2782 35.0729L49.5012 34.8722L49.4126 34.7737L49.28 34.7729L49.2782 35.0729ZM49.5508 35.3758L49.7738 35.1752L49.7738 35.1751L49.5508 35.3758ZM53.659 39.7348L53.4505 39.9505L53.4505 39.9505L53.659 39.7348ZM91.9619 59.3681L91.8924 59.6599L91.8924 59.6599L91.9619 59.3681ZM96.3241 60.3903L96.3926 60.0983L96.392 60.0981L96.3241 60.3903ZM96.3261 60.3908L96.2575 60.6829L96.3261 60.3908ZM96.3282 60.3913L96.2596 60.6834L96.2603 60.6835L96.3282 60.3913ZM117.238 66.2411L117.447 66.4569L117.788 66.1277L117.344 65.9605L117.238 66.2411ZM107.616 73.2867L107.463 73.0285L107.463 73.0285L107.616 73.2867ZM76.4101 82.064L76.415 81.7641L76.415 81.7641L76.4101 82.064ZM28.9437 59.8722L28.7279 60.0807L28.7279 60.0807L28.9437 59.8722ZM24.9805 55.491L24.7489 55.6816L24.7489 55.6816L24.9805 55.491ZM22.8961 52.7983L22.6575 52.9803L22.658 52.9808L22.8961 52.7983ZM22.8956 52.7978L22.6567 52.9791L22.6571 52.9797L22.8956 52.7978ZM22.8954 52.7974L23.1344 52.6161L23.1326 52.6138L22.8954 52.7974ZM22.8952 52.7972L22.6571 52.9797L22.658 52.9808L22.8952 52.7972ZM18.4448 47.1719L18.6142 46.9243L18.1836 47.3195L18.4448 47.1719ZM19.1085 48.3221L18.85 48.4744L18.8501 48.4745L19.1085 48.3221ZM19.7939 49.4609L19.5383 49.6179L19.5383 49.6179L19.7939 49.4609ZM20.5 50.5869L20.7526 50.4251L20.7526 50.4251L20.5 50.5869ZM21.2266 51.6999L20.9769 51.8661L20.9769 51.8661L21.2266 51.6999ZM21.9734 52.7993L21.7268 52.9701L21.7269 52.9702L21.9734 52.7993ZM22.7403 53.8847L22.9838 53.7094L22.9838 53.7094L22.7403 53.8847ZM23.5269 54.9562L23.2867 55.1359L23.2867 55.136L23.5269 54.9562ZM24.3331 56.013L24.0962 56.1971L24.3331 56.013ZM25.1584 57.0548L24.925 57.2433L24.925 57.2433L25.1584 57.0548ZM26.0027 58.0811L26.2327 57.8884L26.2327 57.8884L26.0027 58.0811ZM26.8656 59.0921L26.6392 59.2889L26.6393 59.2889L26.8656 59.0921ZM27.7472 60.0871L27.9699 59.8861L27.9699 59.8861L27.7472 60.0871ZM28.6465 61.0655L28.8655 60.8605L28.8655 60.8605L28.6465 61.0655ZM29.5637 62.0274L29.3485 62.2364L29.3485 62.2364L29.5637 62.0274ZM30.4984 62.9726L30.2869 63.1854L30.287 63.1855L30.4984 62.9726ZM31.4501 63.9002L31.2427 64.1169L31.2427 64.117L31.4501 63.9002ZM32.419 64.8104L32.6224 64.5899L32.6224 64.5898L32.419 64.8104ZM33.4041 65.7025L33.6035 65.4783L33.6034 65.4783L33.4041 65.7025ZM34.4055 66.5765L34.6007 66.3487L34.6007 66.3486L34.4055 66.5765ZM35.4226 67.4319L35.6136 67.2006L35.6135 67.2006L35.4226 67.4319ZM36.4553 68.2687L36.2685 68.5035L36.2685 68.5035L36.4553 68.2687ZM37.5031 69.0864L37.3206 69.3246L37.3207 69.3246L37.5031 69.0864ZM38.5658 69.8847L38.7439 69.6432L38.7438 69.6432L38.5658 69.8847ZM39.6429 70.6635L39.4694 70.9082L39.4694 70.9082L39.6429 70.6635ZM40.7342 71.4224L40.9032 71.1745L40.9032 71.1745L40.7342 71.4224ZM41.8391 72.1611L42.0035 71.9102L42.0035 71.9101L41.8391 72.1611ZM42.9574 72.8796L43.1172 72.6257L43.1172 72.6257L42.9574 72.8796ZM44.0886 73.5774L43.9334 73.8341L43.9334 73.8342L44.0886 73.5774ZM45.2322 74.2542L45.0818 74.5137L45.0818 74.5137L45.2322 74.2542ZM46.3883 74.9101L46.2426 75.1724L46.2427 75.1724L46.3883 74.9101ZM47.5563 75.5448L47.4155 75.8097L47.4155 75.8097L47.5563 75.5448ZM48.7355 76.1578L48.8728 75.891L48.8715 75.8904L48.7355 76.1578ZM60.3635 80.8722L60.4449 80.5834L60.4449 80.5834L60.3635 80.8722ZM68.8288 82.7432L68.7872 83.0403L68.7872 83.0403L68.8288 82.7432ZM71.8526 83.0738L71.8245 83.3725L71.8526 83.0738ZM74.0211 83.2948L73.986 83.5927L73.9952 83.5938L74.0044 83.5943L74.0211 83.2948ZM108.32 74.3839L108.164 74.1278L108.164 74.1278L108.32 74.3839ZM112.636 71.5709L112.81 71.8149L112.81 71.8148L112.636 71.5709ZM113.831 70.6779L114.013 70.9164L113.831 70.6779ZM115.524 69.4392L115.691 69.6883L115.707 69.6776L115.721 69.6649L115.524 69.4392ZM116.56 68.5965L116.745 68.8326L116.745 68.8322L116.56 68.5965ZM116.56 68.5964L116.375 68.3606L116.56 68.5964ZM116.56 68.5963L116.746 68.832L116.56 68.5963ZM116.56 68.5961L116.375 68.3604L116.56 68.5961ZM116.56 68.596L116.395 68.3457L116.385 68.3526L116.375 68.3603L116.56 68.596ZM116.56 68.596L116.726 68.8464L116.736 68.8396L116.746 68.8321L116.56 68.596ZM119.192 65.7656L119.023 65.5177L118.955 65.5642L118.92 65.6388L119.192 65.7656ZM119.847 65.3589L119.994 65.6203L119.994 65.6203L119.847 65.3589ZM120.533 65.0095L120.409 64.7365L120.533 65.0095ZM121.248 64.7196L121.147 64.437L121.147 64.4371L121.248 64.7196ZM121.984 64.4917L121.91 64.201L121.908 64.2016L121.984 64.4917ZM126.616 63.9028L126.633 63.6033L126.614 63.6022L126.595 63.6035L126.616 63.9028ZM126.616 63.9028L126.598 64.2023L126.614 64.2032L126.63 64.2025L126.616 63.9028ZM126.616 63.9028L126.63 64.2025L126.636 64.2021L126.616 63.9028ZM127.942 63.8066L127.917 63.5076L127.917 63.5076L127.942 63.8066ZM137.791 62.5944L137.851 62.8884L137.851 62.8884L137.791 62.5944ZM156.206 54.5149L156.034 54.2695L156.206 54.5149ZM177.632 24.8375L177.917 24.932L177.632 24.8375ZM181.222 9.36427L181.518 9.41617L181.559 9.17794L181.335 9.08653L181.222 9.36427ZM180.869 9.23023L180.964 8.94568L180.963 8.94556L180.869 9.23023ZM155.404 10.757L155.114 10.6819L154.949 11.3207L155.539 11.0252L155.404 10.757ZM156.863 3.04728L156.566 3.00766L156.565 3.01104L156.863 3.04728ZM157.008 1.87745L157.306 1.91171L157.306 1.9117L157.008 1.87745ZM157.132 0.705316L157.431 0.734238L157.431 0.734082L157.132 0.705316ZM157.235 -0.468997L156.936 -0.492462L156.936 -0.492455L157.235 -0.468997ZM157.316 -1.64493L157.017 -1.66301L157.017 -1.66298L157.316 -1.64493ZM157.377 -2.822L157.677 -2.80934L157.677 -2.80944L157.377 -2.822ZM157.416 -4.00008L157.116 -4.00738L157.116 -4.00726L157.416 -4.00008ZM157.433 -5.17866L157.733 -5.17693L157.733 -5.17694L157.433 -5.17866ZM157.43 -6.35742L157.73 -6.36097L157.73 -6.3611L157.43 -6.35742ZM157.405 -7.53586L157.705 -7.54493L157.705 -7.54497L157.405 -7.53586ZM157.358 -8.71385L157.658 -8.7283L157.658 -8.72831L157.358 -8.71385ZM157.291 -9.89068L156.992 -9.87078L156.992 -9.87076L157.291 -9.89068ZM157.202 -11.0659L156.903 -11.0405L156.903 -11.0405L157.202 -11.0659ZM157.092 -12.2395L157.39 -12.2701L157.39 -12.2702L157.092 -12.2395ZM156.961 -13.411L156.663 -13.3749L156.663 -13.3748L156.961 -13.411ZM156.808 -14.5798L156.511 -14.5383L156.511 -14.5383L156.808 -14.5798ZM156.635 -15.7457L156.931 -15.7926L156.931 -15.7927L156.635 -15.7457ZM156.44 -16.9083L156.735 -16.9604L156.735 -16.9605L156.44 -16.9083ZM156.224 -18.0672L155.93 -18.0097L155.93 -18.0096L156.224 -18.0672ZM155.988 -19.2219L155.694 -19.1591L155.694 -19.159L155.988 -19.2219ZM155.73 -20.3721L155.438 -20.304L155.438 -20.3039L155.73 -20.3721ZM155.452 -21.5175L155.743 -21.5909L155.452 -21.5175ZM155.154 -22.6578L155.443 -22.7364L155.443 -22.7365L155.154 -22.6578ZM154.834 -23.7925L155.122 -23.8764L155.122 -23.8764L154.834 -23.7925ZM154.494 -24.9211L154.208 -24.8321L154.208 -24.832L154.494 -24.9211ZM154.134 -26.0436L153.849 -25.9493L153.849 -25.9492L154.134 -26.0436ZM153.754 -27.1592L153.471 -27.0599L153.471 -27.0598L153.754 -27.1592ZM153.353 -28.2677L153.072 -28.1633L153.072 -28.1632L153.353 -28.2677ZM152.933 -29.369L152.653 -29.2595L152.653 -29.2594L152.933 -29.369ZM152.492 -30.4623L152.215 -30.3477L152.492 -30.4623ZM152.032 -31.5476L152.307 -31.6672L152.307 -31.6672L152.032 -31.5476ZM151.553 -32.6244L151.28 -32.4999L151.28 -32.4999L151.553 -32.6244ZM151.054 -33.6923L151.324 -33.8217L151.324 -33.8226L151.054 -33.6923ZM145.482 -42.8955L145.719 -43.0796L145.577 -43.2614L145.365 -43.1719L145.482 -42.8955ZM144.895 -42.648L145.011 -42.3715L145.011 -42.3715L144.895 -42.648ZM137.221 -39.0171L137.07 -39.2766L137.07 -39.2766L137.221 -39.0171ZM117.589 -16.7673L117.34 -16.5989L117.643 -16.1531L117.863 -16.6448L117.589 -16.7673ZM94.5551 -38.6251L94.4053 -38.3651L94.4053 -38.3651L94.5551 -38.6251ZM89.025 -41.5091L88.893 -41.2398L88.893 -41.2398L89.025 -41.5091ZM88.1089 -41.9432L87.9823 -41.6712L87.9823 -41.6712L88.1089 -41.9432ZM85.2997 -43.4724L85.4768 -43.7146L85.4767 -43.7147L85.2997 -43.4724ZM163.52 8.87777L163.587 9.17033L163.597 9.16755L163.52 8.87777ZM163.52 8.87773L163.453 8.58517L163.442 8.58795L163.52 8.87773ZM160.388 9.77586L160.49 10.0584L160.503 10.053L160.388 9.77586ZM155.074 12.1498L154.936 11.8832L154.827 11.9393L154.789 12.0555L155.074 12.1498ZM148.73 26.9814L148.992 27.1277L148.73 26.9814ZM133.155 48.0547L133.381 48.2528L133.385 48.248L133.155 48.0547ZM133.155 48.0548L132.93 47.8567L132.926 47.8615L133.155 48.0548ZM128.789 53.28L129.021 53.4704L128.789 53.28ZM123.955 59.4327L124.196 59.6118L123.955 59.4327ZM122.713 61.151L122.957 61.3261L122.958 61.325L122.713 61.151ZM122.713 61.1513L122.469 60.9762L122.469 60.9772L122.713 61.1513ZM120.999 63.4924L120.762 63.309L120.175 64.069L121.09 63.7784L120.999 63.4924ZM126.898 62.7295L126.886 62.4298L126.898 62.7295ZM129.09 62.6096L129.066 62.3105L129.09 62.6096ZM140.84 60.6481L140.924 60.9361L140.928 60.9349L140.84 60.6481ZM173.017 33.2936L173.282 33.4344L173.282 33.4344L173.017 33.2936ZM179.403 15.9283L179.692 16.0072L179.692 16.0071L179.403 15.9283ZM179.669 14.9635L179.38 14.8834L179.669 14.9635ZM180.9 9.61032L181.197 9.65125L181.235 9.37115L180.958 9.31606L180.9 9.61032ZM163.557 8.86913L163.625 9.16149L163.625 9.16149L163.557 8.86913ZM145.434 -42.4989L145.614 -42.739L145.534 -42.7987L145.435 -42.7989L145.434 -42.4989ZM144.954 -42.3792L144.821 -42.6478L144.818 -42.6465L144.954 -42.3792ZM146.798 -40.4484L146.528 -40.3176L146.798 -40.4484ZM147.197 -39.6636L146.936 -39.5159L146.937 -39.5136L147.197 -39.6636ZM148.646 -37.0223L148.912 -37.1608L148.912 -37.1608L148.646 -37.0223ZM149.977 -34.3198L150.249 -34.4464L150.249 -34.4465L149.977 -34.3198ZM151.188 -31.5612L150.911 -31.4467L150.911 -31.4467L151.188 -31.5612ZM152.277 -28.7521L151.995 -28.6499L151.995 -28.6499L152.277 -28.7521ZM153.24 -25.8979L152.954 -25.8082L152.954 -25.8082L153.24 -25.8979ZM154.077 -23.0037L153.787 -22.9267L153.787 -22.9267L154.077 -23.0037ZM154.786 -20.0758L155.079 -20.1399L155.079 -20.1399L154.786 -20.0758ZM155.365 -17.1193L155.661 -17.1679L155.66 -17.1705L155.365 -17.1193ZM140.354 37.2329L140.115 37.0517L140.115 37.0517L140.354 37.2329ZM132.736 46.5318L132.964 46.7266L132.964 46.7264L132.736 46.5318ZM132.736 46.5321L132.507 46.3373L132.507 46.3376L132.736 46.5321ZM129.202 50.7132L129.432 50.9057L129.433 50.905L129.202 50.7132ZM120.925 61.4589L121.155 61.6507L121.163 61.6417L121.169 61.6322L120.925 61.4589ZM120.735 61.6866L120.758 61.9857L120.885 61.9761L120.966 61.8784L120.735 61.6866ZM120.6 61.6968L120.306 61.6415L120.234 62.0256L120.623 61.996L120.6 61.6968ZM121.376 59.6703L121.647 59.7989L121.376 59.6703ZM121.839 58.6373L122.118 58.7471L121.839 58.6373ZM123.766 53.4216L123.485 53.3164L123.484 53.3205L123.766 53.4216ZM123.767 53.4209L124.048 53.5262L124.049 53.5206L123.767 53.4209ZM123.767 53.4192L123.485 53.3181L123.484 53.3194L123.767 53.4192ZM124.069 52.5778L123.786 52.4765L123.786 52.4765L124.069 52.5778ZM127.214 40.8958L127.507 40.9617L127.507 40.959L127.214 40.8958ZM128.006 36.7222L127.709 36.6737L127.709 36.6737L128.006 36.7222ZM128.962 28.2829L128.663 28.264L128.663 28.264L128.962 28.2829ZM129.125 24.038L128.825 24.0327L128.825 24.034L129.125 24.038ZM118.357 -15.5749L118.079 -15.6864L118.022 -15.5439L118.104 -15.4144L118.357 -15.5749ZM124.144 -25.7597L123.903 -25.939L123.903 -25.939L124.144 -25.7597ZM33.2683 -9.2152L33.331 -8.92183L33.3311 -8.92185L33.2683 -9.2152ZM31.9581 -8.91862L31.8884 -9.21039L31.6434 -9.15183L31.6587 -8.90046L31.9581 -8.91862ZM34.585 -9.48044L34.5293 -9.77523L34.585 -9.48044ZM35.908 -9.71376L35.8595 -10.0098L35.8595 -10.0098L35.908 -9.71376ZM37.2359 -9.91528L37.1945 -10.2124L37.1944 -10.2124L37.2359 -9.91528ZM38.5686 -10.0847L38.6028 -9.78666L38.5686 -10.0847ZM39.9048 -10.222L39.9319 -9.92319L39.932 -9.9232L39.9048 -10.222ZM41.244 -10.3273L41.2639 -10.028L41.244 -10.3273ZM42.5852 -10.4003L42.5726 -10.7001L42.5725 -10.7001L42.5852 -10.4003ZM43.9279 -10.4409L43.9334 -10.1409L43.9335 -10.1409L43.9279 -10.4409ZM45.2712 -10.4493L45.2695 -10.1493L45.2695 -10.1493L45.2712 -10.4493ZM46.6144 -10.4255L46.6233 -10.7254L46.6233 -10.7254L46.6144 -10.4255ZM47.9564 -10.3694L47.9726 -10.6689L47.9725 -10.6689L47.9564 -10.3694ZM49.2967 -10.2808L49.2733 -9.98171L49.2734 -9.98171L49.2967 -10.2808ZM50.6346 -10.1603L50.6652 -10.4587L50.6651 -10.4587L50.6346 -10.1603ZM51.9692 -10.0073L51.9315 -9.70973L51.9315 -9.70972L51.9692 -10.0073ZM53.2997 -9.82264L53.3445 -10.1193L53.3445 -10.1193L53.2997 -9.82264ZM54.6253 -9.6058L54.6773 -9.90126L54.6253 -9.6058ZM55.9454 -9.35728L56.0045 -9.6514L56.0044 -9.65142L55.9454 -9.35728ZM57.2592 -9.07691L57.3253 -9.36953L57.3253 -9.36954L57.2592 -9.07691ZM58.5658 -8.76511L58.4927 -8.47416L58.4927 -8.47415L58.5658 -8.76511ZM59.8644 -8.42212L59.7843 -8.13302L59.7843 -8.13302L59.8644 -8.42212ZM61.1547 -8.04785L61.2417 -8.33493L61.2417 -8.33495L61.1547 -8.04785ZM62.4353 -7.64262L62.3413 -7.3577L62.3414 -7.35768L62.4353 -7.64262ZM63.7059 -7.20681L63.6051 -6.92424L63.6052 -6.92423L63.7059 -7.20681ZM64.9658 -6.74068L65.0733 -7.02075L65.0732 -7.02078L64.9658 -6.74068ZM66.2139 -6.24415L66.0996 -5.96677L66.0997 -5.96674L66.2139 -6.24415ZM67.4497 -5.71801L67.5706 -5.99258L67.5705 -5.99261L67.4497 -5.71801ZM69.8818 -4.57708L70.0157 -4.84554L70.0157 -4.84554L69.8818 -4.57708ZM71.0766 -3.96301L71.2169 -4.22814L71.0766 -3.96301ZM72.2563 -3.32039L72.1096 -3.05867L72.2563 -3.32039ZM73.4201 -2.6497L73.7196 -2.66603L73.7109 -2.82609L73.573 -2.9078L73.4201 -2.6497ZM74.462 7.9094L74.7576 7.85806L74.7576 7.85806L74.462 7.9094ZM103.863 54.0995L103.665 54.3255L103.863 54.0995ZM116.462 64.3079L116.685 64.1074L116.662 64.0821L116.635 64.0625L116.462 64.3079ZM116.574 64.4321L116.669 64.7166L117.102 64.5716L116.797 64.2316L116.574 64.4321ZM116.458 64.4708L116.365 64.756L116.459 64.7868L116.553 64.7553L116.458 64.4708ZM114.583 63.8536L114.487 64.1377L114.489 64.1384L114.583 63.8536ZM114.583 63.8535L114.679 63.5693L114.677 63.5686L114.583 63.8535ZM106.791 61.4562L106.867 61.1661L106.867 61.1661L106.791 61.4562ZM98.4582 59.5246L98.5217 59.2314L98.4582 59.5246ZM92.2099 58.1181L92.2806 57.8266L92.2099 58.1181ZM56.113 40.3858L56.312 40.1613L56.312 40.1613L56.113 40.3858ZM46.3933 29.6626L46.1546 29.8443L46.1546 29.8443L46.3933 29.6626ZM85.186 -43.2195L85.2149 -43.5181L85.0491 -43.5341L84.9478 -43.4018L85.186 -43.2195ZM85.2451 -43.2159L85.258 -43.5156L85.258 -43.5156L85.2451 -43.2159ZM82.6653 -38.8771L82.9339 -38.7434L82.9339 -38.7434L82.6653 -38.8771ZM82.0048 -37.5681L81.7385 -37.7061L81.7385 -37.7061L82.0048 -37.5681ZM75.3568 5.10758L75.0594 5.14718L75.0594 5.14718L75.3568 5.10758ZM91.4581 39.9344L91.2293 40.1285L91.4581 39.9344ZM106.415 54.7104L106.22 54.9388L106.22 54.9388L106.415 54.7104ZM116.044 62.6145L116.226 62.376L116.226 62.376L116.044 62.6145ZM116.641 63.1097L116.837 62.8823L116.641 63.1097ZM118.077 64.1366L117.959 64.4122L118.093 64.4699L118.221 64.3997L118.077 64.1366ZM118.256 64.0449L118.446 64.2774L118.446 64.2774L118.256 64.0449ZM118.326 63.9483L118.574 64.1163L118.593 64.0889L118.605 64.0581L118.326 63.9483ZM119.304 61.5728L119.028 61.4563L119.304 61.5728ZM120.298 59.1588L120.578 59.2683L120.578 59.2683L120.298 59.1588ZM124.112 48.0456L123.824 47.9614L123.824 47.9614L124.112 48.0456ZM126.104 5.54591L126.396 5.47666L126.396 5.47666L126.104 5.54591ZM122.299 -5.56926L122.574 -5.68899L122.574 -5.68899L122.299 -5.56926ZM91.8001 -39.3391L91.6417 -39.0843L91.6418 -39.0843L91.8001 -39.3391ZM90.7935 -39.9806L90.9556 -40.2331L90.9556 -40.2331L90.7935 -39.9806ZM85.3617 -43.2025L85.4389 -43.4924L85.4379 -43.4927L85.3617 -43.2025ZM85.0275 -43.3023L85.0599 -43.2776L85.4239 -43.7546L85.3915 -43.7793L85.0275 -43.3023ZM83.099 -40.1713C83.8259 -41.2798 84.5658 -42.4065 85.4293 -43.3367L84.9896 -43.7449C84.0856 -42.7712 83.3186 -41.6003 82.5973 -40.5004L83.099 -40.1713ZM83.0999 -40.1727L83.1003 -40.1733L82.596 -40.4984L82.5957 -40.4979L83.0999 -40.1727ZM83.0968 -40.168L83.0973 -40.1687L82.5983 -40.5019L82.5979 -40.5012L83.0968 -40.168ZM82.7099 -39.5803C82.839 -39.7749 82.9684 -39.9721 83.0982 -40.1701L82.5965 -40.4991C82.4665 -40.301 82.338 -40.105 82.21 -39.9121L82.7099 -39.5803ZM73.6775 -4.18469C73.7002 -16.2947 75.9321 -29.3673 82.7099 -39.5803L82.21 -39.9121C75.3402 -29.5604 73.1003 -16.3528 73.0775 -4.18581L73.6775 -4.18469ZM71.1741 -4.96135C71.8579 -4.60755 72.5465 -4.25126 73.2477 -3.91478L73.5073 -4.45572C72.8155 -4.78765 72.1349 -5.13976 71.4498 -5.49425L71.1741 -4.96135ZM71.1772 -4.95975L71.1775 -4.95963L71.4464 -5.49597L71.4462 -5.49609L71.1772 -4.95975ZM71.1767 -4.96L71.1772 -4.95975L71.4462 -5.49609L71.4457 -5.49634L71.1767 -4.96ZM71.1725 -4.96218L71.1726 -4.96209L71.4498 -5.49425L71.4496 -5.49434L71.1725 -4.96218ZM68.1596 -6.44061C69.1837 -5.991 70.1734 -5.47906 71.1732 -4.96181L71.4489 -5.49471C70.4519 -6.01053 69.4454 -6.53142 68.4008 -6.99L68.1596 -6.44061ZM50.9889 -10.8357C56.8194 -10.2904 62.7984 -8.79411 68.1596 -6.44061L68.4008 -6.99001C62.9777 -9.37068 56.9357 -10.8822 51.0447 -11.4331L50.9889 -10.8357ZM33.0827 -9.27115C38.7644 -11.0225 45.0612 -11.3902 50.9889 -10.8357L51.0448 -11.4331C45.0586 -11.993 38.6799 -11.6243 32.906 -9.84453L33.0827 -9.27115ZM32.5925 -9.13027C32.7644 -9.17809 32.9323 -9.22478 33.0827 -9.27114L32.906 -9.84453C32.7651 -9.80109 32.6057 -9.75672 32.4317 -9.70832L32.5925 -9.13027ZM30.7926 -8.40982C30.9767 -8.56276 31.2505 -8.69717 31.5793 -8.81859C31.9046 -8.93874 32.2585 -9.03737 32.5925 -9.13027L32.4317 -9.70832C32.102 -9.61662 31.7239 -9.51162 31.3714 -9.38143C31.0223 -9.25251 30.6723 -9.08987 30.4092 -8.87135L30.7926 -8.40982ZM31.4928 -9.06997C31.1577 -8.9773 30.8818 -8.90568 30.6407 -8.93794L30.5611 -8.34324C30.9466 -8.29167 31.3472 -8.40719 31.6527 -8.49168L31.4928 -9.06997ZM31.4952 -9.07061L31.4951 -9.0706L31.6504 -8.49105L31.6504 -8.49106L31.4952 -9.07061ZM31.4952 -9.07062L31.4952 -9.07061L31.6504 -8.49106L31.6505 -8.49107L31.4952 -9.07062ZM31.4952 -9.07063L31.4952 -9.07062L31.6505 -8.49107L31.6505 -8.49107L31.4952 -9.07063ZM31.4953 -9.07064L31.4952 -9.07063L31.6505 -8.49107L31.6505 -8.49108L31.4953 -9.07064ZM31.7658 -9.1425C31.6746 -9.12027 31.5818 -9.09457 31.4929 -9.07L31.6529 -8.49172C31.7435 -8.51677 31.8272 -8.5399 31.9078 -8.55955L31.7658 -9.1425ZM44.0607 27.8508C36.3748 16.8655 31.8282 4.64746 32.1367 -8.84417L31.5369 -8.85788C31.2249 4.78631 35.8256 17.1272 43.5691 28.1947L44.0607 27.8508ZM49.2873 34.6639C47.3789 32.5237 45.7134 30.2127 44.0607 27.8508L43.5691 28.1948C45.223 30.5584 46.9058 32.8946 48.8395 35.0633L49.2873 34.6639ZM36.8575 36.2099C40.8974 35.1555 44.8693 34.8279 49.0394 35.1626L49.0874 34.5646C44.8525 34.2246 40.813 34.5574 36.706 35.6293L36.8575 36.2099ZM34.6676 36.8331C35.3915 36.6057 36.1209 36.3981 36.856 36.2103L36.7075 35.6289C35.9619 35.8194 35.222 36.03 34.4877 36.2607L34.6676 36.8331ZM32.5165 37.574C33.2269 37.3075 33.9439 37.0605 34.6676 36.8331L34.4877 36.2607C33.7536 36.4914 33.0263 36.7419 32.3058 37.0122L32.5165 37.574ZM30.4086 38.4308C31.1035 38.1261 31.8061 37.8405 32.5165 37.574L32.3058 37.0122C31.5852 37.2825 30.8725 37.5722 30.1677 37.8813L30.4086 38.4308ZM28.3506 39.4006C29.0278 39.0587 29.7139 38.7354 30.4086 38.4308L30.1676 37.8813C29.463 38.1903 28.7671 38.5182 28.0802 38.865L28.3506 39.4006ZM26.3481 40.481C27.0057 40.1028 27.6732 39.7427 28.3506 39.4006L28.0801 38.865C27.3931 39.212 26.716 39.5773 26.049 39.9609L26.3481 40.481ZM24.4073 41.6686C25.0434 41.2552 25.6904 40.8593 26.3481 40.481L26.049 39.9609C25.3818 40.3446 24.7256 40.7462 24.0803 41.1656L24.4073 41.6686ZM22.5341 42.9598C23.1468 42.5123 23.7712 42.082 24.4073 41.6687L24.0803 41.1655C23.4352 41.5848 22.8018 42.0213 22.1802 42.4752L22.5341 42.9598ZM20.7336 44.3509C21.3211 43.8708 21.9212 43.4071 22.534 42.9598L22.1803 42.4752C21.5587 42.9289 20.9499 43.3993 20.3539 43.8862L20.7336 44.3509ZM20.2561 44.7264C20.4224 44.5974 20.5849 44.4715 20.7328 44.3515L20.3547 43.8856C20.213 44.0006 20.0561 44.1223 19.8886 44.2521L20.2561 44.7264ZM20.2603 44.723L20.2607 44.7227L19.884 44.2558L19.8836 44.2561L20.2603 44.723ZM20.2439 44.7354L20.2439 44.7354L19.8999 44.2438L19.8999 44.2438L20.2439 44.7354ZM18.376 46.5773C18.5425 46.2607 18.8234 45.941 19.1663 45.6232C19.5075 45.3069 19.8924 45.0083 20.2557 44.7267L19.8881 44.2525C19.5284 44.5313 19.1223 44.8459 18.7584 45.1831C18.3962 45.5188 18.0579 45.8929 17.8449 46.2981L18.376 46.5773ZM18.3818 46.7005C18.367 46.6653 18.3599 46.6479 18.3552 46.6335C18.3514 46.6219 18.3523 46.6213 18.3526 46.6262C18.3536 46.6428 18.3451 46.636 18.376 46.5773L17.8449 46.2981C17.7844 46.4131 17.7461 46.5308 17.7536 46.6609C17.7604 46.7783 17.8058 46.8784 17.8285 46.9326L18.3818 46.7005ZM18.4413 46.8546C18.4199 46.7911 18.3979 46.7388 18.3818 46.7005L17.8285 46.9326C17.8447 46.9712 17.859 47.0056 17.8727 47.0463L18.4413 46.8546ZM30.1925 38.6703C29.0222 39.1852 26.1711 40.68 23.5139 42.3017C22.1845 43.1131 20.8961 43.9607 19.8869 44.7377C19.3826 45.1259 18.9428 45.5006 18.601 45.8475C18.265 46.1887 18.0005 46.5261 17.8775 46.8415L18.4365 47.0594C18.5139 46.861 18.7074 46.5946 19.0285 46.2686C19.3439 45.9483 19.7604 45.5923 20.253 45.2131C21.2376 44.455 22.5055 43.6201 23.8265 42.8138C26.4701 41.2004 29.2965 39.72 30.4341 39.2195L30.1925 38.6703ZM49.28 34.7729C42.6504 34.7329 36.2803 35.9913 30.1925 38.6703L30.4342 39.2195C36.4414 36.5759 42.7275 35.3334 49.2764 35.3729L49.28 34.7729ZM49.7738 35.1751L49.5012 34.8722L49.0552 35.2736L49.3278 35.5765L49.7738 35.1751ZM53.8676 39.5192C52.4392 38.1377 51.1111 36.6617 49.7738 35.1752L49.3278 35.5765C50.6628 37.0604 52.0046 38.5521 53.4505 39.9505L53.8676 39.5192ZM92.0315 59.0763C77.3909 55.5872 64.7809 50.0735 53.8676 39.5192L53.4505 39.9505C64.4645 50.6023 77.1842 56.1547 91.8924 59.6599L92.0315 59.0763ZM96.392 60.0981C94.9399 59.7607 93.4863 59.4229 92.0315 59.0763L91.8924 59.6599C93.3491 60.0071 94.8043 60.3452 96.2562 60.6826L96.392 60.0981ZM96.3947 60.0988L96.3926 60.0983L96.2555 60.6824L96.2575 60.6829L96.3947 60.0988ZM96.3968 60.0993L96.3947 60.0988L96.2575 60.6829L96.2596 60.6834L96.3968 60.0993ZM117.344 65.9605C110.486 63.3727 103.458 61.7402 96.3961 60.0991L96.2603 60.6835C103.329 62.326 110.318 63.9505 117.133 66.5218L117.344 65.9605ZM107.769 73.5448C111.124 71.5586 114.624 69.1835 117.447 66.4569L117.03 66.0254C114.256 68.7054 110.8 71.053 107.463 73.0285L107.769 73.5448ZM76.4051 82.364C87.7705 82.5506 98.0561 79.296 107.769 73.5448L107.463 73.0285C97.8287 78.7334 87.6511 81.9485 76.415 81.7641L76.4051 82.364ZM28.7279 60.0807C41.1061 72.8912 58.2902 82.0669 76.4052 82.364L76.415 81.7641C58.4939 81.4701 41.4535 72.3873 29.1594 59.6638L28.7279 60.0807ZM24.7489 55.6816C26.0027 57.2048 27.3632 58.6682 28.7279 60.0807L29.1594 59.6638C27.7993 58.2561 26.4512 56.8056 25.2121 55.3003L24.7489 55.6816ZM22.658 52.9808C23.62 54.2359 24.4458 55.3134 24.7489 55.6816L25.2121 55.3003C24.9177 54.9426 24.1014 53.8778 23.1342 52.6158L22.658 52.9808ZM22.6571 52.9797L22.6575 52.9803L23.1346 52.6164L23.1342 52.6159L22.6571 52.9797ZM22.6564 52.9788L22.6567 52.9791L23.1346 52.6164L23.1343 52.6161L22.6564 52.9788ZM22.658 52.9808L22.6582 52.9811L23.1326 52.6138L23.1324 52.6135L22.658 52.9808ZM18.2754 47.4195C18.2682 47.4146 18.2773 47.4203 18.3098 47.4531C18.3381 47.4816 18.3751 47.5214 18.4209 47.5728C18.5124 47.6756 18.6318 47.8168 18.775 47.991C19.0611 48.3391 19.4356 48.8107 19.8593 49.3522C20.7065 50.4349 21.7452 51.79 22.6571 52.9797L23.1333 52.6147C22.2219 51.4257 21.1812 50.068 20.3319 48.9825C19.9073 48.4399 19.5293 47.9637 19.2385 47.61C19.0933 47.4334 18.9682 47.2852 18.869 47.1738C18.8195 47.1183 18.7747 47.0698 18.7358 47.0306C18.7012 46.9957 18.6579 46.9542 18.6142 46.9243L18.2754 47.4195ZM19.3669 48.1698C19.1431 47.79 18.9228 47.4082 18.706 47.0244L18.1836 47.3195C18.4022 47.7065 18.6243 48.0914 18.85 48.4744L19.3669 48.1698ZM20.0495 49.3039C19.8186 48.9278 19.591 48.5497 19.3669 48.1697L18.8501 48.4745C19.076 48.8576 19.3054 49.2387 19.5383 49.6179L20.0495 49.3039ZM20.7526 50.4251C20.5148 50.0535 20.2804 49.6798 20.0495 49.3039L19.5383 49.6179C19.7711 49.997 20.0074 50.3738 20.2473 50.7486L20.7526 50.4251ZM21.4763 51.5336C21.2318 51.1663 20.9905 50.7968 20.7526 50.4251L20.2473 50.7486C20.4871 51.1233 20.7303 51.4958 20.9769 51.8661L21.4763 51.5336ZM22.22 52.6285C21.9687 52.2657 21.7208 51.9007 21.4763 51.5336L20.9769 51.8661C21.2234 52.2363 21.4734 52.6044 21.7268 52.9701L22.22 52.6285ZM22.9838 53.7094C22.7259 53.3514 22.4713 52.991 22.22 52.6284L21.7269 52.9702C21.9802 53.3358 22.2369 53.6991 22.4969 54.06L22.9838 53.7094ZM23.7671 54.7765C23.5028 54.4232 23.2417 54.0675 22.9838 53.7094L22.4969 54.06C22.7569 54.4211 23.0202 54.7798 23.2867 55.1359L23.7671 54.7765ZM24.5699 55.8289C24.2991 55.4805 24.0315 55.1297 23.767 54.7764L23.2867 55.136C23.5533 55.4922 23.8232 55.8459 24.0962 56.1971L24.5699 55.8289ZM25.3919 56.8664C25.1147 56.523 24.8407 56.1772 24.5699 55.8289L24.0962 56.1971C24.3693 56.5484 24.6455 56.8971 24.925 57.2433L25.3919 56.8664ZM26.2327 57.8884C25.9492 57.5503 25.6689 57.2096 25.3918 56.8664L24.925 57.2433C25.2044 57.5893 25.487 57.9329 25.7728 58.2739L26.2327 57.8884ZM27.0921 58.8952C26.8026 58.5622 26.5161 58.2266 26.2327 57.8884L25.7728 58.2739C26.0586 58.6148 26.3474 58.9532 26.6392 59.2889L27.0921 58.8952ZM27.9699 59.8861C27.6742 59.5584 27.3816 59.2281 27.092 58.8952L26.6393 59.2889C26.9313 59.6246 27.2263 59.9577 27.5245 60.2881L27.9699 59.8861ZM28.8655 60.8605C28.564 60.5385 28.2654 60.2137 27.9699 59.8861L27.5244 60.288C27.8224 60.6184 28.1235 60.9459 28.4276 61.2706L28.8655 60.8605ZM29.7789 61.8184C29.4716 61.502 29.1671 61.1827 28.8655 60.8605L28.4275 61.2706C28.7316 61.5954 29.0386 61.9174 29.3485 62.2364L29.7789 61.8184ZM30.7098 62.7597C30.3967 62.4487 30.0864 62.135 29.7789 61.8184L29.3485 62.2364C29.6585 62.5556 29.9713 62.8719 30.2869 63.1854L30.7098 62.7597ZM31.6576 63.6835C31.3388 63.3784 31.0229 63.0704 30.7097 62.7596L30.287 63.1855C30.6028 63.4989 30.9213 63.8093 31.2427 64.1169L31.6576 63.6835ZM32.6224 64.5898C32.298 64.2906 31.9764 63.9885 31.6575 63.6835L31.2427 64.117C31.5642 64.4246 31.8885 64.7292 32.2156 65.0309L32.6224 64.5898ZM33.6034 65.4783C33.2736 65.1851 32.9466 64.8889 32.6224 64.5899L32.2156 65.0308C32.5425 65.3324 32.8722 65.6311 33.2048 65.9267L33.6034 65.4783ZM34.6007 66.3486C34.2655 66.0615 33.9331 65.7714 33.6035 65.4783L33.2048 65.9267C33.5372 66.2223 33.8724 66.5148 34.2103 66.8043L34.6007 66.3486ZM35.6135 67.2006C35.2733 66.9198 34.9357 66.6358 34.6007 66.3487L34.2103 66.8042C34.5481 67.0938 34.8885 67.3802 35.2316 67.6633L35.6135 67.2006ZM36.642 68.0339C36.2966 67.7593 35.9538 67.4815 35.6136 67.2006L35.2316 67.6633C35.5747 67.9465 35.9203 68.2266 36.2685 68.5035L36.642 68.0339ZM37.6855 68.8483C37.3352 68.5799 36.9873 68.3085 36.642 68.0339L36.2685 68.5035C36.6168 68.7804 36.9674 69.0541 37.3206 69.3246L37.6855 68.8483ZM38.7438 69.6432C38.3886 69.3815 38.0358 69.1165 37.6854 68.8482L37.3207 69.3246C37.674 69.5951 38.0298 69.8623 38.3879 70.1262L38.7438 69.6432ZM39.8164 70.4188C39.4566 70.1636 39.099 69.9051 38.7439 69.6432L38.3878 70.1262C38.746 70.3902 39.1065 70.6509 39.4694 70.9082L39.8164 70.4188ZM40.9032 71.1745C40.5386 70.9259 40.1763 70.674 39.8164 70.4188L39.4694 70.9082C39.8323 71.1655 40.1975 71.4195 40.5651 71.6703L40.9032 71.1745ZM42.0035 71.9101C41.6344 71.6683 41.2676 71.4231 40.9032 71.1745L40.5651 71.6702C40.9326 71.9209 41.3024 72.1681 41.6746 72.412L42.0035 71.9101ZM43.1172 72.6257C42.7437 72.3906 42.3725 72.1521 42.0035 71.9102L41.6746 72.412C42.0466 72.6559 42.421 72.8964 42.7976 73.1334L43.1172 72.6257ZM44.2437 73.3206C43.8661 73.0924 43.4905 72.8607 43.1172 72.6257L42.7976 73.1334C43.174 73.3704 43.5526 73.604 43.9334 73.8341L44.2437 73.3206ZM45.3827 73.9946C45.001 73.7734 44.6213 73.5487 44.2437 73.3206L43.9334 73.8342C44.3142 74.0642 44.697 74.2907 45.0818 74.5137L45.3827 73.9946ZM46.534 74.6479C46.1483 74.4336 45.7645 74.2159 45.3827 73.9946L45.0818 74.5137C45.4668 74.7368 45.8537 74.9564 46.2426 75.1724L46.534 74.6479ZM47.6971 75.2799C47.3075 75.0727 46.9197 74.862 46.5339 74.6478L46.2427 75.1724C46.6317 75.3884 47.0226 75.6008 47.4155 75.8097L47.6971 75.2799ZM48.8715 75.8904C48.4782 75.6904 48.0867 75.4869 47.697 75.2798L47.4155 75.8097C47.8083 76.0184 48.203 76.2236 48.5996 76.4252L48.8715 75.8904ZM60.4449 80.5834C56.3954 79.4404 52.6187 77.818 48.8728 75.891L48.5983 76.4245C52.3681 78.3639 56.183 80.0039 60.282 81.1609L60.4449 80.5834ZM68.8704 82.4461C66.016 82.0467 63.2285 81.3692 60.4449 80.5834L60.282 81.1609C63.0782 81.9502 65.8949 82.6356 68.7872 83.0403L68.8704 82.4461ZM71.8807 82.7751C70.8706 82.6801 69.8684 82.5858 68.8704 82.4461L68.7872 83.0403C69.801 83.1822 70.8166 83.2777 71.8245 83.3725L71.8807 82.7751ZM74.0561 82.9969C73.3299 82.9115 72.6032 82.8431 71.8807 82.7751L71.8245 83.3725C72.5482 83.4406 73.2679 83.5083 73.986 83.5927L74.0561 82.9969ZM108.164 74.1278C97.7462 80.4866 86.2413 83.6762 74.0378 82.9953L74.0044 83.5943C86.3394 84.2826 97.9639 81.0568 108.477 74.64L108.164 74.1278ZM112.461 71.3269C111.076 72.3181 109.624 73.2365 108.164 74.1278L108.477 74.64C109.941 73.7459 111.408 72.8186 112.81 71.8149L112.461 71.3269ZM113.649 70.4395C113.253 70.7418 112.861 71.0409 112.461 71.327L112.81 71.8148C113.219 71.5226 113.618 71.2179 114.013 70.9164L113.649 70.4395ZM115.356 69.1902C114.768 69.5854 114.204 70.0157 113.649 70.4395L114.013 70.9164C114.571 70.4908 115.12 70.0717 115.691 69.6883L115.356 69.1902ZM116.375 68.3604C116.024 68.6355 115.666 68.9162 115.326 69.2136L115.721 69.6649C116.047 69.3801 116.392 69.1095 116.745 68.8326L116.375 68.3604ZM116.375 68.3606L116.374 68.3607L116.745 68.8322L116.746 68.8321L116.375 68.3606ZM116.375 68.3605L116.375 68.3606L116.746 68.8321L116.746 68.832L116.375 68.3605ZM116.375 68.3604L116.375 68.3605L116.746 68.832L116.746 68.8319L116.375 68.3604ZM116.375 68.3603L116.375 68.3604L116.746 68.8319L116.746 68.8318L116.375 68.3603ZM116.395 68.3456L116.395 68.3457L116.726 68.8464L116.726 68.8464L116.395 68.3456ZM118.92 65.6388C118.391 66.7735 117.417 67.5434 116.375 68.3599L116.746 68.8321C117.767 68.0316 118.864 67.1786 119.464 65.8924L118.92 65.6388ZM119.699 65.0976C119.468 65.2281 119.242 65.3681 119.023 65.5177L119.361 66.0135C119.566 65.8735 119.777 65.7424 119.994 65.6203L119.699 65.0976ZM120.409 64.7365C120.167 64.8468 119.931 64.9671 119.699 65.0976L119.994 65.6203C120.21 65.4982 120.432 65.3856 120.658 65.2824L120.409 64.7365ZM121.147 64.4371C120.897 64.5265 120.651 64.6263 120.409 64.7365L120.658 65.2824C120.884 65.1792 121.115 65.0858 121.349 65.0021L121.147 64.4371ZM121.908 64.2016C121.651 64.2693 121.397 64.3478 121.147 64.437L121.349 65.0022C121.583 64.9186 121.82 64.8452 122.061 64.7818L121.908 64.2016ZM126.595 63.6035C125.045 63.7083 123.413 63.8177 121.91 64.201L122.058 64.7824C123.499 64.4151 125.074 64.3077 126.636 64.2021L126.595 63.6035ZM126.634 63.6033L126.633 63.6033L126.598 64.2023L126.598 64.2023L126.634 63.6033ZM126.602 63.6031L126.601 63.6031L126.63 64.2025L126.63 64.2024L126.602 63.6031ZM127.917 63.5076C127.485 63.5433 127.044 63.5732 126.596 63.6034L126.636 64.2021C127.083 64.1719 127.529 64.1417 127.967 64.1055L127.917 63.5076ZM137.73 62.3005C134.505 62.9606 131.216 63.2352 127.917 63.5076L127.967 64.1055C131.26 63.8336 134.585 63.5568 137.851 62.8884L137.73 62.3005ZM156.034 54.2695C150.49 58.1683 144.372 60.941 137.73 62.3005L137.851 62.8884C144.581 61.5108 150.774 58.7021 156.379 54.7603L156.034 54.2695ZM177.347 24.743C173.556 36.1689 165.913 47.3225 156.034 54.2695L156.379 54.7603C166.377 47.7297 174.091 36.463 177.917 24.932L177.347 24.743ZM180.927 9.31238C180.011 14.5268 179.011 19.7301 177.347 24.743L177.917 24.932C179.595 19.8737 180.601 14.6323 181.518 9.41617L180.927 9.31238ZM180.774 9.51477C180.885 9.5518 180.992 9.5945 181.109 9.64202L181.335 9.08653C181.217 9.03815 181.094 8.98924 180.964 8.94568L180.774 9.51477ZM155.539 11.0252C163.814 6.88017 172.037 6.60921 180.774 9.51489L180.963 8.94556C172.091 5.99482 163.701 6.26543 155.27 10.4887L155.539 11.0252ZM156.565 3.01104C156.25 5.60002 155.766 8.15695 155.114 10.6819L155.695 10.832C156.354 8.28153 156.843 5.69867 157.161 3.08352L156.565 3.01104ZM156.71 1.84319C156.666 2.23176 156.617 2.61992 156.566 3.00767L157.16 3.08689C157.213 2.69559 157.261 2.30386 157.306 1.91171L156.71 1.84319ZM156.834 0.676394C156.796 1.06568 156.755 1.45462 156.71 1.8432L157.306 1.9117C157.351 1.51955 157.393 1.12707 157.431 0.734238L156.834 0.676394ZM156.936 -0.492455C156.905 -0.102521 156.871 0.28715 156.834 0.67655L157.431 0.734082C157.469 0.341168 157.503 -0.052047 157.534 -0.445539L156.936 -0.492455ZM157.017 -1.66298C156.994 -1.27255 156.966 -0.882382 156.936 -0.492462L157.534 -0.445532C157.565 -0.839054 157.592 -1.23284 157.616 -1.62689L157.017 -1.66298ZM157.077 -2.83465C157.061 -2.44384 157.041 -2.0533 157.017 -1.66301L157.616 -1.62686C157.64 -2.02075 157.66 -2.41492 157.677 -2.80934L157.077 -2.83465ZM157.116 -4.00726C157.106 -3.61624 157.094 -3.22534 157.077 -2.83455L157.677 -2.80944C157.693 -3.20381 157.706 -3.5983 157.716 -3.9929L157.116 -4.00726ZM157.133 -5.1804C157.131 -4.78939 157.125 -4.39838 157.116 -4.00738L157.716 -3.99278C157.725 -4.38748 157.731 -4.7822 157.733 -5.17693L157.133 -5.1804ZM157.13 -6.35386C157.134 -5.96279 157.136 -5.57163 157.133 -5.18039L157.733 -5.17694C157.736 -5.57172 157.734 -5.96639 157.73 -6.36097L157.13 -6.35386ZM157.105 -7.52679C157.117 -7.13587 157.125 -6.74486 157.13 -6.35373L157.73 -6.3611C157.725 -6.75584 157.717 -7.15044 157.705 -7.54493L157.105 -7.52679ZM157.059 -8.69939C157.078 -8.3087 157.093 -7.91782 157.105 -7.52675L157.705 -7.54497C157.693 -7.93959 157.677 -8.33403 157.658 -8.7283L157.059 -8.69939ZM156.992 -9.87076C157.017 -9.4805 157.04 -9.09004 157.059 -8.69938L157.658 -8.72831C157.639 -9.12261 157.616 -9.5167 157.59 -9.91059L156.992 -9.87076ZM156.903 -11.0405C156.936 -10.6508 156.966 -10.2609 156.992 -9.87078L157.59 -9.91057C157.564 -10.3043 157.534 -10.6979 157.501 -11.0912L156.903 -11.0405ZM156.794 -12.2088C156.833 -11.8197 156.87 -11.4303 156.903 -11.0405L157.501 -11.0912C157.468 -11.4845 157.431 -11.8775 157.39 -12.2701L156.794 -12.2088ZM156.663 -13.3748C156.71 -12.9865 156.753 -12.5978 156.794 -12.2087L157.39 -12.2702C157.35 -12.6629 157.306 -13.0552 157.258 -13.4471L156.663 -13.3748ZM156.511 -14.5383C156.565 -14.151 156.616 -13.7632 156.663 -13.3749L157.258 -13.447C157.211 -13.8389 157.16 -14.2303 157.105 -14.6213L156.511 -14.5383ZM156.338 -15.6989C156.399 -15.3125 156.457 -14.9256 156.511 -14.5383L157.105 -14.6213C157.051 -15.0122 156.993 -15.4026 156.931 -15.7926L156.338 -15.6989ZM156.145 -16.8561C156.213 -16.4709 156.277 -16.0851 156.338 -15.6988L156.931 -15.7927C156.869 -16.1825 156.804 -16.5717 156.735 -16.9604L156.145 -16.8561ZM155.93 -18.0096C156.005 -17.6257 156.076 -17.2412 156.145 -16.856L156.735 -16.9605C156.667 -17.3492 156.594 -17.7373 156.519 -18.1247L155.93 -18.0096ZM155.694 -19.159C155.776 -18.7765 155.855 -18.3934 155.93 -18.0097L156.519 -18.1247C156.443 -18.512 156.364 -18.8987 156.281 -19.2848L155.694 -19.159ZM155.438 -20.3039C155.527 -19.923 155.613 -19.5414 155.694 -19.1591L156.281 -19.2846C156.199 -19.6706 156.112 -20.0558 156.023 -20.4403L155.438 -20.3039ZM155.161 -21.444C155.257 -21.065 155.349 -20.6849 155.438 -20.304L156.023 -20.4402C155.933 -20.8247 155.84 -21.2083 155.743 -21.5909L155.161 -21.444ZM154.864 -22.5791C154.967 -22.2017 155.066 -21.8233 155.161 -21.444L155.743 -21.5909C155.647 -21.9736 155.547 -22.3555 155.443 -22.7364L154.864 -22.5791ZM154.546 -23.7086C154.655 -23.333 154.761 -22.9565 154.864 -22.5791L155.443 -22.7365C155.339 -23.1174 155.233 -23.4973 155.122 -23.8764L154.546 -23.7086ZM154.208 -24.832C154.324 -24.4585 154.437 -24.0841 154.546 -23.7086L155.122 -23.8764C155.012 -24.2553 154.898 -24.6333 154.781 -25.0102L154.208 -24.832ZM153.849 -25.9492C153.972 -25.5779 154.092 -25.2056 154.208 -24.8321L154.781 -25.0101C154.664 -25.3871 154.543 -25.7631 154.419 -26.1379L153.849 -25.9492ZM153.471 -27.0598C153.6 -26.6907 153.726 -26.3206 153.849 -25.9493L154.419 -26.1378C154.295 -26.5125 154.168 -26.8861 154.037 -27.2586L153.471 -27.0598ZM153.072 -28.1632C153.208 -27.7966 153.341 -27.4289 153.471 -27.0599L154.037 -27.2585C153.906 -27.631 153.772 -28.0023 153.634 -28.3723L153.072 -28.1632ZM152.653 -29.2594C152.796 -28.8953 152.936 -28.5299 153.072 -28.1633L153.634 -28.3722C153.497 -28.7422 153.356 -29.111 153.212 -29.4786L152.653 -29.2594ZM152.215 -30.3477C152.364 -29.9863 152.511 -29.6236 152.653 -29.2595L153.212 -29.4785C153.068 -29.846 152.92 -30.2121 152.77 -30.5769L152.215 -30.3477ZM151.757 -31.428C151.913 -31.0692 152.066 -30.7091 152.215 -30.3477L152.77 -30.5769C152.619 -30.9417 152.465 -31.3051 152.307 -31.6672L151.757 -31.428ZM151.28 -32.4999C151.442 -32.1441 151.601 -31.7868 151.757 -31.428L152.307 -31.6672C152.15 -32.0293 151.989 -32.3899 151.826 -32.749L151.28 -32.4999ZM150.783 -33.5628C150.952 -33.21 151.117 -32.8558 151.28 -32.4999L151.826 -32.749C151.662 -33.1081 151.495 -33.4657 151.324 -33.8217L150.783 -33.5628ZM145.245 -42.7113C147.452 -39.8736 149.219 -36.805 150.784 -33.5619L151.324 -33.8226C149.747 -37.0911 147.959 -40.1989 145.719 -43.0796L145.245 -42.7113ZM145.011 -42.3715L145.598 -42.6191L145.365 -43.1719L144.778 -42.9244L145.011 -42.3715ZM137.372 -38.7577C139.844 -40.1938 142.378 -41.2619 145.011 -42.3715L144.778 -42.9244C142.15 -41.817 139.581 -40.7349 137.07 -39.2766L137.372 -38.7577ZM117.863 -16.6448C121.915 -25.7057 128.753 -33.7526 137.372 -38.7577L137.07 -39.2766C128.333 -34.2022 121.414 -26.0541 117.315 -16.8898L117.863 -16.6448ZM94.4053 -38.3651C103.708 -33.0084 111.328 -25.4683 117.34 -16.5989L117.837 -16.9356C111.781 -25.8691 104.097 -33.4767 94.7048 -38.8851L94.4053 -38.3651ZM88.893 -41.2398C90.7652 -40.3218 92.6062 -39.4012 94.4053 -38.3651L94.7048 -38.8851C92.887 -39.9319 91.0304 -40.86 89.1571 -41.7785L88.893 -41.2398ZM87.9823 -41.6712C88.2941 -41.526 88.599 -41.3839 88.893 -41.2398L89.1571 -41.7785C88.8569 -41.9257 88.5465 -42.0703 88.2356 -42.2151L87.9823 -41.6712ZM85.1227 -43.2302C85.9826 -42.6017 87.0171 -42.1209 87.9823 -41.6712L88.2356 -42.2151C87.2589 -42.6701 86.2806 -43.1271 85.4768 -43.7146L85.1227 -43.2302ZM85.0592 -43.2781C85.078 -43.2637 85.1 -43.2468 85.1228 -43.2301L85.4767 -43.7147C85.4605 -43.7265 85.4441 -43.739 85.4245 -43.7541L85.0592 -43.2781ZM163.597 9.16755L163.597 9.16752L163.442 8.58795L163.442 8.58799L163.597 9.16755ZM160.503 10.053C161.442 9.66438 162.561 9.40603 163.587 9.17014L163.452 8.5854C162.438 8.81872 161.267 9.08731 160.274 9.4987L160.503 10.053ZM155.211 12.4164C156.95 11.5198 158.659 10.718 160.49 10.0581L160.287 9.49363C158.422 10.1657 156.687 10.9802 154.936 11.8832L155.211 12.4164ZM148.992 27.1277C151.593 22.4702 153.689 17.2866 155.358 12.2441L154.789 12.0555C153.127 17.0746 151.045 22.2208 148.468 26.8352L148.992 27.1277ZM133.385 48.248C139.022 41.5591 144.686 34.8407 148.992 27.1277L148.468 26.8352C144.195 34.4896 138.57 41.165 132.926 47.8614L133.385 48.248ZM133.38 48.2529L133.381 48.2527L132.93 47.8567L132.93 47.8568L133.38 48.2529ZM129.021 53.4704C130.459 51.7193 131.921 49.9847 133.384 48.2482L132.926 47.8615C131.462 49.5975 129.998 51.335 128.557 53.0897L129.021 53.4704ZM124.196 59.6118C125.743 57.5324 127.375 55.4755 129.021 53.4704L128.557 53.0897C126.907 55.0998 125.269 57.1644 123.714 59.2536L124.196 59.6118ZM122.958 61.325C123.368 60.7488 123.776 60.1756 124.196 59.6118L123.714 59.2536C123.29 59.8233 122.879 60.4016 122.469 60.977L122.958 61.325ZM122.957 61.3264L122.957 61.3261L122.47 60.9759L122.469 60.9762L122.957 61.3264ZM121.237 63.6759C121.832 62.9054 122.397 62.1125 122.957 61.3253L122.469 60.9772C121.907 61.7661 121.349 62.5493 120.762 63.309L121.237 63.6759ZM126.886 62.4298C124.894 62.5153 122.81 62.603 120.909 63.2065L121.09 63.7784C122.902 63.2033 124.903 63.1155 126.911 63.0292L126.886 62.4298ZM129.066 62.3105C128.356 62.3666 127.627 62.398 126.886 62.4298L126.911 63.0292C127.651 62.9975 128.39 62.9658 129.113 62.9087L129.066 62.3105ZM140.756 60.3601C136.99 61.4599 132.988 62.0007 129.066 62.3105L129.113 62.9087C133.055 62.5973 137.102 62.0521 140.924 60.9361L140.756 60.3601ZM172.752 33.1529C165.651 46.5193 155.295 55.9044 140.752 60.3613L140.928 60.9349C155.641 56.4259 166.116 46.9235 173.282 33.4344L172.752 33.1529ZM179.114 15.8495C177.487 21.8221 175.655 27.6886 172.752 33.1529L173.282 33.4344C176.218 27.9087 178.063 21.989 179.692 16.0072L179.114 15.8495ZM179.38 14.8834C179.291 15.2052 179.201 15.5274 179.114 15.8495L179.692 16.0071C179.78 15.6865 179.869 15.3656 179.958 15.0436L179.38 14.8834ZM180.602 9.56938C180.356 11.3579 179.87 13.1149 179.38 14.8834L179.958 15.0436C180.446 13.2818 180.944 11.4862 181.197 9.65125L180.602 9.56938ZM163.625 9.16149C169.495 7.81096 174.985 8.74122 180.841 9.90457L180.958 9.31606C175.104 8.15321 169.499 7.19437 163.49 8.57676L163.625 9.16149ZM163.587 9.1701L163.625 9.16149L163.49 8.57676L163.453 8.58537L163.587 9.1701ZM145.435 -42.7989C145.318 -42.7991 145.216 -42.79 145.111 -42.7627C145.008 -42.7361 144.916 -42.6953 144.821 -42.6478L145.088 -42.1106C145.17 -42.1516 145.219 -42.1709 145.261 -42.182C145.302 -42.1926 145.35 -42.1991 145.433 -42.1989L145.435 -42.7989ZM147.068 -40.5791C146.885 -40.9575 146.683 -41.3747 146.452 -41.7524C146.222 -42.1285 145.949 -42.4877 145.614 -42.739L145.254 -42.2588C145.501 -42.0738 145.726 -41.7886 145.94 -41.4391C146.153 -41.091 146.342 -40.7011 146.528 -40.3176L147.068 -40.5791ZM147.458 -39.8114C147.333 -40.0333 147.206 -40.2942 147.068 -40.5791L146.528 -40.3176C146.664 -40.0373 146.799 -39.7578 146.936 -39.5159L147.458 -39.8114ZM148.912 -37.1608C148.447 -38.0557 147.962 -38.94 147.457 -39.8137L146.937 -39.5136C147.438 -38.6476 147.918 -37.771 148.38 -36.8839L148.912 -37.1608ZM150.249 -34.4465C149.824 -35.361 149.378 -36.2657 148.912 -37.1608L148.38 -36.8839C148.841 -35.9966 149.283 -35.0997 149.705 -34.1932L150.249 -34.4465ZM151.466 -31.6757C151.08 -32.6083 150.675 -33.5319 150.249 -34.4464L149.705 -34.1932C150.127 -33.2867 150.529 -32.3712 150.911 -31.4467L151.466 -31.6757ZM152.559 -28.8543C152.215 -29.8028 151.851 -30.7433 151.466 -31.6757L150.911 -31.4467C151.293 -30.5224 151.654 -29.5902 151.995 -28.6499L152.559 -28.8543ZM153.526 -25.9875C153.225 -26.9503 152.902 -27.9058 152.559 -28.8543L151.995 -28.6499C152.335 -27.7098 152.655 -26.7625 152.954 -25.8082L153.526 -25.9875ZM154.367 -23.0806C154.108 -24.0558 153.828 -25.0248 153.526 -25.9875L152.954 -25.8082C153.253 -24.8539 153.53 -23.8934 153.787 -22.9267L154.367 -23.0806ZM155.079 -20.1399C154.863 -21.1253 154.626 -22.1056 154.367 -23.0806L153.787 -22.9267C154.044 -21.9601 154.279 -20.9884 154.493 -20.0116L155.079 -20.1399ZM155.66 -17.1705C155.488 -18.1645 155.294 -19.1543 155.079 -20.1399L154.493 -20.0117C154.706 -19.0347 154.899 -18.0535 155.069 -17.0681L155.66 -17.1705ZM140.593 37.414C152.88 21.1895 159.014 3.236 155.661 -17.1679L155.069 -17.0706C158.389 3.13692 152.326 20.928 140.115 37.0517L140.593 37.414ZM132.964 46.7264C135.561 43.6784 138.16 40.6271 140.593 37.414L140.115 37.0517C137.694 40.2488 135.106 43.2872 132.507 46.3373L132.964 46.7264ZM132.964 46.7269L132.964 46.7266L132.508 46.337L132.507 46.3373L132.964 46.7269ZM129.433 50.905C130.6 49.5017 131.782 48.1146 132.964 46.7267L132.507 46.3376C131.325 47.725 130.141 49.1149 128.972 50.5214L129.433 50.905ZM121.169 61.6322C123.78 57.9458 126.534 54.3703 129.432 50.9057L128.972 50.5207C126.063 53.9976 123.299 57.5859 120.68 61.2855L121.169 61.6322ZM120.966 61.8784L121.155 61.6507L120.694 61.2671L120.505 61.4948L120.966 61.8784ZM120.623 61.996L120.758 61.9857L120.712 61.3874L120.578 61.3977L120.623 61.996ZM121.105 59.5418C120.788 60.2086 120.436 60.9475 120.306 61.6415L120.895 61.7522C121.008 61.1498 121.321 60.4857 121.647 59.7989L121.105 59.5418ZM121.56 58.5275C121.434 58.8463 121.274 59.1848 121.105 59.5418L121.647 59.7989C121.814 59.4462 121.984 59.0885 122.118 58.7471L121.56 58.5275ZM123.484 53.3205C122.859 55.0658 122.235 56.8094 121.56 58.5275L122.118 58.7471C122.797 57.0189 123.425 55.2665 124.049 53.5227L123.484 53.3205ZM123.486 53.3156L123.485 53.3164L124.047 53.5269L124.047 53.5261L123.486 53.3156ZM123.484 53.3194L123.484 53.3211L124.049 53.5206L124.05 53.5189L123.484 53.3194ZM123.786 52.4765C123.686 52.7569 123.585 53.0375 123.485 53.3181L124.05 53.5203C124.15 53.2397 124.25 52.9593 124.351 52.6791L123.786 52.4765ZM126.921 40.8299C126.036 44.7637 125.142 48.6977 123.786 52.4765L124.351 52.6791C125.721 48.86 126.622 44.8904 127.507 40.9617L126.921 40.8299ZM127.709 36.6737C127.481 38.0666 127.218 39.4529 126.921 40.8326L127.507 40.959C127.807 39.5696 128.072 38.1735 128.302 36.7708L127.709 36.6737ZM128.291 32.4806C128.132 33.8831 127.938 35.2808 127.709 36.6737L128.302 36.7708C128.532 35.3681 128.727 33.9605 128.887 32.5482L128.291 32.4806ZM128.663 28.264C128.574 29.6726 128.45 31.0781 128.291 32.4806L128.887 32.5482C129.047 31.1358 129.172 29.7204 129.262 28.3018L128.663 28.264ZM128.825 24.034C128.806 25.4454 128.752 26.8554 128.663 28.264L129.262 28.3019C129.351 26.8833 129.406 25.4634 129.425 24.0421L128.825 24.034ZM118.104 -15.4144C126.015 -2.92901 129.085 9.31103 128.825 24.0327L129.425 24.0433C129.686 9.21528 126.591 -3.14218 118.611 -15.7355L118.104 -15.4144ZM123.903 -25.939C121.486 -22.6961 119.587 -19.4556 118.079 -15.6864L118.636 -15.4635C120.122 -19.1777 121.993 -22.373 124.384 -25.5804L123.903 -25.939ZM144.818 -42.6465C136.456 -38.3856 129.584 -33.5587 123.903 -25.939L124.384 -25.5804C129.991 -33.1013 136.777 -37.8761 145.09 -42.1119L144.818 -42.6465ZM33.2056 -9.50858C32.7653 -9.41447 32.3262 -9.31508 31.8884 -9.21039L32.0279 -8.62684C32.461 -8.7304 32.8954 -8.82873 33.331 -8.92183L33.2056 -9.50858ZM34.5293 -9.77523C34.0869 -9.69166 33.6457 -9.60277 33.2055 -9.50856L33.3311 -8.92185C33.7665 -9.01505 34.203 -9.10299 34.6407 -9.18565L34.5293 -9.77523ZM35.8595 -10.0098C35.4151 -9.93698 34.9717 -9.85879 34.5293 -9.77523L34.6407 -9.18565C35.0783 -9.26831 35.517 -9.34567 35.9565 -9.41771L35.8595 -10.0098ZM37.1944 -10.2124C36.7487 -10.1501 36.3037 -10.0826 35.8595 -10.0098L35.9565 -9.41771C36.396 -9.48974 36.8363 -9.55655 37.2774 -9.61816L37.1944 -10.2124ZM38.5343 -10.3827C38.0871 -10.3313 37.6405 -10.2746 37.1945 -10.2124L37.2773 -9.61815C37.7186 -9.67965 38.1604 -9.73582 38.6028 -9.78666L38.5343 -10.3827ZM39.8778 -10.5207C39.4294 -10.4801 38.9815 -10.4341 38.5343 -10.3827L38.6028 -9.78666C39.0453 -9.8375 39.4883 -9.88301 39.9319 -9.92319L39.8778 -10.5207ZM41.2241 -10.6267C40.7749 -10.5968 40.3261 -10.5615 39.8777 -10.5207L39.932 -9.9232C40.3756 -9.96351 40.8195 -9.99844 41.2639 -10.028L41.2241 -10.6267ZM42.5725 -10.7001C42.1227 -10.681 41.6733 -10.6565 41.2241 -10.6267L41.2639 -10.028C41.7083 -10.0575 42.153 -10.0817 42.5979 -10.1006L42.5725 -10.7001ZM43.9224 -10.7408C43.4724 -10.7326 43.0224 -10.719 42.5726 -10.7001L42.5979 -10.1006C43.0429 -10.1193 43.4881 -10.1328 43.9334 -10.1409L43.9224 -10.7408ZM45.273 -10.7493C44.8227 -10.752 44.3725 -10.7492 43.9223 -10.7408L43.9335 -10.1409C44.3787 -10.1492 44.824 -10.152 45.2695 -10.1493L45.273 -10.7493ZM46.6233 -10.7254C46.1732 -10.7387 45.7231 -10.7467 45.273 -10.7493L45.2695 -10.1493C45.7148 -10.1468 46.1601 -10.1389 46.6055 -10.1256L46.6233 -10.7254ZM47.9725 -10.6689C47.523 -10.6931 47.0733 -10.7119 46.6233 -10.7254L46.6054 -10.1256C47.0506 -10.1123 47.4956 -10.0937 47.9403 -10.0698L47.9725 -10.6689ZM49.32 -10.5799C48.8713 -10.6149 48.4221 -10.6446 47.9726 -10.6689L47.9402 -10.0698C48.385 -10.0457 48.8293 -10.0164 49.2733 -9.98171L49.32 -10.5799ZM50.6651 -10.4587C50.2173 -10.5045 49.7689 -10.5449 49.32 -10.5799L49.2734 -9.98171C49.7175 -9.94709 50.1611 -9.90714 50.6041 -9.86185L50.6651 -10.4587ZM52.007 -10.305C51.5603 -10.3616 51.1131 -10.4128 50.6652 -10.4587L50.604 -9.86186C51.0472 -9.81643 51.4896 -9.76572 51.9315 -9.70973L52.007 -10.305ZM53.3445 -10.1193C52.8994 -10.1865 52.4536 -10.2484 52.007 -10.305L51.9315 -9.70972C52.3734 -9.65373 52.8145 -9.59249 53.2549 -9.526L53.3445 -10.1193ZM54.6773 -9.90126C54.2339 -9.97925 53.7896 -10.0519 53.3445 -10.1193L53.2548 -9.52602C53.6951 -9.45939 54.1347 -9.38749 54.5733 -9.31034L54.6773 -9.90126ZM56.0044 -9.65142C55.563 -9.73999 55.1207 -9.82327 54.6773 -9.90126L54.5733 -9.31034C55.012 -9.23317 55.4497 -9.15078 55.8863 -9.06315L56.0044 -9.65142ZM57.3253 -9.36954C56.8861 -9.46873 56.4459 -9.56269 56.0045 -9.6514L55.8862 -9.06316C56.323 -8.97539 56.7586 -8.88243 57.1931 -8.78428L57.3253 -9.36954ZM58.6389 -9.05607C58.2023 -9.16581 57.7644 -9.2703 57.3253 -9.36953L57.1931 -8.78429C57.6274 -8.68612 58.0606 -8.58274 58.4927 -8.47416L58.6389 -9.05607ZM59.9446 -8.71123C59.5107 -8.83147 59.0754 -8.94642 58.6389 -9.05607L58.4927 -8.47415C58.9246 -8.36568 59.3551 -8.25197 59.7843 -8.13302L59.9446 -8.71123ZM61.2417 -8.33495C60.8108 -8.46557 60.3784 -8.59099 59.9446 -8.71123L59.7843 -8.13302C60.2136 -8.01406 60.6413 -7.88998 61.0676 -7.76075L61.2417 -8.33495ZM62.5292 -7.92754C62.1016 -8.06848 61.6725 -8.20427 61.2417 -8.33493L61.0676 -7.76076C61.4937 -7.6315 61.9183 -7.49714 62.3413 -7.3577L62.5292 -7.92754ZM63.8067 -7.48938C63.3827 -7.64058 62.9569 -7.78664 62.5291 -7.92756L62.3414 -7.35768C62.7645 -7.2183 63.1857 -7.07381 63.6051 -6.92424L63.8067 -7.48938ZM65.0732 -7.02078C64.6529 -7.18204 64.2307 -7.33824 63.8066 -7.48939L63.6052 -6.92423C64.0247 -6.77468 64.4424 -6.62013 64.8584 -6.46058L65.0732 -7.02078ZM66.3282 -6.52154C65.9119 -6.69304 65.4936 -6.85944 65.0733 -7.02075L64.8583 -6.4606C65.274 -6.30103 65.6878 -6.13642 66.0996 -5.96677L66.3282 -6.52154ZM67.5705 -5.99261C67.1585 -6.1739 66.7443 -6.35022 66.3281 -6.52157L66.0997 -5.96674C66.5115 -5.79721 66.9212 -5.62277 67.3289 -5.44341L67.5705 -5.99261ZM68.8001 -5.43371C68.3925 -5.62487 67.9827 -5.81116 67.5706 -5.99258L67.3289 -5.44344C67.7366 -5.26394 68.142 -5.07963 68.5453 -4.8905L68.8001 -5.43371ZM70.0157 -4.84554C69.6129 -5.04648 69.2076 -5.24254 68.8001 -5.43371L68.5453 -4.8905C68.9485 -4.70137 69.3494 -4.50741 69.748 -4.30862L70.0157 -4.84554ZM71.2169 -4.22814C70.819 -4.4388 70.4186 -4.6446 70.0157 -4.84554L69.748 -4.30862C70.1465 -4.10983 70.5426 -3.90625 70.9362 -3.69787L71.2169 -4.22814ZM72.4029 -3.58212C72.0101 -3.80217 71.6148 -4.01751 71.2169 -4.22814L70.9362 -3.69787C71.3299 -3.48946 71.721 -3.27639 72.1096 -3.05867L72.4029 -3.58212ZM73.573 -2.9078C73.1857 -3.13727 72.7957 -3.36204 72.4029 -3.58212L72.1096 -3.05867C72.4982 -2.84096 72.8841 -2.61861 73.2672 -2.39161L73.573 -2.9078ZM74.7576 7.85806C74.1561 4.39548 73.9117 0.857952 73.7196 -2.66603L73.1205 -2.63338C73.3127 0.892894 73.5585 4.46074 74.1664 7.96074L74.7576 7.85806ZM104.06 53.8736C89.3813 41.0551 78.1635 27.4675 74.7576 7.85806L74.1664 7.96074C77.6067 27.7679 88.9436 41.4694 103.665 54.3255L104.06 53.8736ZM116.635 64.0625C112.245 60.9756 108.114 57.4136 104.06 53.8736L103.665 54.3255C107.718 57.8643 111.87 61.4459 116.289 64.5533L116.635 64.0625ZM116.797 64.2316L116.685 64.1074L116.239 64.5084L116.35 64.6326L116.797 64.2316ZM116.553 64.7553L116.669 64.7166L116.478 64.1476L116.363 64.1863L116.553 64.7553ZM114.489 64.1384C115.113 64.3447 115.738 64.5514 116.365 64.756L116.551 64.1856C115.926 63.9814 115.302 63.7751 114.678 63.5687L114.489 64.1384ZM114.487 64.1377L114.487 64.1377L114.679 63.5694L114.679 63.5693L114.487 64.1377ZM106.715 61.7464C109.341 62.4363 111.906 63.2844 114.489 64.1383L114.677 63.5686C112.098 62.7157 109.515 61.8616 106.867 61.1661L106.715 61.7464ZM98.3947 59.8178C101.185 60.4221 103.968 61.0249 106.715 61.7464L106.867 61.1661C104.105 60.4407 101.31 59.8352 98.5217 59.2314L98.3947 59.8178ZM92.1393 58.4097C94.216 58.9128 96.3073 59.3658 98.3947 59.8178L98.5217 59.2314C96.4331 58.7791 94.349 58.3277 92.2806 57.8266L92.1393 58.4097ZM55.914 40.6102C66.7447 50.2146 78.236 55.0415 92.1393 58.4097L92.2806 57.8266C78.439 54.4733 67.0473 49.6811 56.312 40.1613L55.914 40.6102ZM46.1546 29.8443C49.0776 33.6847 52.287 37.394 55.914 40.6102L56.312 40.1613C52.7238 36.9794 49.5406 33.3024 46.632 29.4809L46.1546 29.8443ZM31.6587 -8.90046C32.5637 6.02684 37.1066 17.9561 46.1546 29.8443L46.632 29.4809C37.6541 17.6847 33.1552 5.8687 32.2576 -8.93677L31.6587 -8.90046ZM85.1571 -42.9209C85.186 -42.9181 85.2138 -42.9169 85.2322 -42.9161L85.258 -43.5156C85.2369 -43.5165 85.2252 -43.5171 85.2149 -43.5181L85.1571 -42.9209ZM82.9339 -38.7434C83.6842 -40.2507 84.4183 -41.7234 85.4242 -43.0371L84.9478 -43.4018C83.9011 -42.0348 83.1428 -40.5095 82.3967 -39.0107L82.9339 -38.7434ZM82.2712 -37.43C82.4974 -37.8667 82.7164 -38.3065 82.9339 -38.7434L82.3967 -39.0107C82.1789 -38.5731 81.9621 -38.1377 81.7385 -37.7061L82.2712 -37.43ZM75.6541 5.06798C73.7361 -9.33676 75.5511 -24.4609 82.2712 -37.43L81.7385 -37.7061C74.9516 -24.608 73.1283 -9.35563 75.0594 5.14718L75.6541 5.06798ZM91.6869 39.7404C82.786 29.2463 77.4866 18.8286 75.6541 5.06798L75.0594 5.14718C76.9096 19.0408 82.2675 29.5626 91.2293 40.1285L91.6869 39.7404ZM106.609 54.482C101.248 49.914 96.2423 45.111 91.6869 39.7404L91.2293 40.1285C95.8109 45.53 100.841 50.3558 106.22 54.9388L106.609 54.482ZM116.226 62.376C112.94 59.8681 109.764 57.1691 106.609 54.482L106.22 54.9388C109.373 57.6245 112.561 60.3337 115.862 62.8529L116.226 62.376ZM116.837 62.8823C116.632 62.7065 116.425 62.5283 116.226 62.376L115.862 62.853C116.045 62.9926 116.238 63.1587 116.445 63.3371L116.837 62.8823ZM118.196 63.861C117.762 63.6746 117.309 63.2885 116.837 62.8823L116.445 63.3371C116.896 63.7246 117.423 64.1819 117.959 64.4122L118.196 63.861ZM118.067 63.8123C118.085 63.7978 118.1 63.7902 118.102 63.7893C118.102 63.7889 118.101 63.7893 118.097 63.7912C118.093 63.7934 118.089 63.7951 118.081 63.7989C118.05 63.8132 118.004 63.8348 117.933 63.8734L118.221 64.3997C118.276 64.3695 118.309 64.3542 118.331 64.3443C118.339 64.3404 118.358 64.3322 118.372 64.3248C118.39 64.3157 118.417 64.3009 118.446 64.2774L118.067 63.8123ZM118.077 63.7803C118.066 63.7975 118.056 63.8117 118.049 63.823C118.041 63.8353 118.037 63.8414 118.033 63.8461C118.03 63.8508 118.032 63.8476 118.037 63.8418C118.043 63.8346 118.053 63.8237 118.067 63.8124L118.446 64.2774C118.49 64.2415 118.517 64.2019 118.53 64.1836C118.536 64.1737 118.544 64.162 118.55 64.1524C118.557 64.1419 118.565 64.1302 118.574 64.1163L118.077 63.7803ZM119.028 61.4563C118.696 62.2448 118.362 63.0374 118.046 63.8385L118.605 64.0581C118.917 63.2648 119.248 62.479 119.581 61.6894L119.028 61.4563ZM120.019 59.0492C119.703 59.8552 119.366 60.6537 119.028 61.4563L119.581 61.6894C119.919 60.8879 120.258 60.0825 120.578 59.2683L120.019 59.0492ZM123.824 47.9614C122.735 51.6842 121.435 55.4373 120.019 59.0493L120.578 59.2683C122 55.6414 123.306 51.8714 124.4 48.1298L123.824 47.9614ZM125.812 5.61515C129.061 19.3125 127.755 34.5229 123.824 47.9614L124.4 48.1298C128.352 34.6178 129.675 19.2991 126.396 5.47666L125.812 5.61515ZM122.024 -5.44954C123.566 -1.9075 124.921 1.8618 125.812 5.61516L126.396 5.47666C125.495 1.67994 124.126 -2.12384 122.574 -5.68899L122.024 -5.44954ZM91.6418 -39.0843C104.88 -30.8555 115.754 -19.8546 122.024 -5.44953L122.574 -5.68899C116.245 -20.23 105.275 -31.3164 91.9585 -39.5939L91.6418 -39.0843ZM90.6315 -39.7281C91.0676 -39.4484 91.4248 -39.2191 91.6417 -39.0843L91.9585 -39.5938C91.7462 -39.7258 91.3936 -39.9521 90.9556 -40.2331L90.6315 -39.7281ZM85.2845 -42.9126C85.4182 -42.877 85.7052 -42.7411 86.1191 -42.5131C86.5207 -42.292 87.0116 -42.0015 87.5374 -41.6805C88.5887 -41.0389 89.7683 -40.282 90.6315 -39.7281L90.9556 -40.2331C90.0934 -40.7863 88.908 -41.5469 87.8501 -42.1927C87.3213 -42.5154 86.8216 -42.8112 86.4085 -43.0387C86.0078 -43.2594 85.656 -43.4346 85.4389 -43.4924L85.2845 -42.9126ZM85.2322 -42.9161C85.2532 -42.9152 85.2649 -42.9147 85.2752 -42.9137C85.2845 -42.9128 85.2869 -42.912 85.2855 -42.9124L85.4379 -43.4927C85.3636 -43.5122 85.2916 -43.5141 85.258 -43.5156L85.2322 -42.9161Z" fill="#0066FF" mask="url(#path-4-outside-1_172_26607)"/>
</g>
<path id="Vector_4" d="M83.7788 -28.8609C83.8109 -28.7303 83.828 -28.6893 83.8239 -28.5376C83.8007 -27.7029 83.4804 -26.6983 83.338 -25.8643C82.9865 -23.8049 82.6782 -21.7715 82.4592 -19.6933C81.1201 -6.97903 82.3703 4.72306 87.3487 16.5746C88.1617 18.5106 89.4021 20.2089 90.2317 22.1107C89.9451 21.8676 89.7669 21.5091 89.5688 21.1901C86.8123 16.945 84.2725 12.4692 82.5475 7.69716C79.7959 0.0849271 79.0516 -10.0243 80.3909 -17.9995C81.0102 -21.6867 82.193 -25.4811 83.7788 -28.8609Z" fill="#0066FF"/>
<path id="Vector 1" d="M123.079 67.4292C122.763 66.9757 122.14 66.8637 121.687 67.1789C121.233 67.4941 121.121 68.1173 121.436 68.5708L123.079 67.4292ZM121.436 68.5708C126.126 75.3172 131.825 86.5525 133.682 98.2814C135.537 109.988 133.554 122.034 123.117 130.732L124.398 132.268C135.561 122.966 137.579 110.095 135.658 97.9686C133.741 85.8642 127.889 74.3495 123.079 67.4292L121.436 68.5708Z" fill="#0066FF"/>
</g>
</g>
<defs>
<clipPath id="clip0_172_26607">
<rect width="209" height="155" fill="white"/>
</clipPath>
</defs>
</svg>
