<svg width="209" height="220" viewBox="0 0 209 220" fill="none" xmlns="http://www.w3.org/2000/svg">
<g id="illustration / flower / white">
<path id="Vector" d="M169.678 94.8521C166.208 101.676 161.243 106.488 155.047 109.92C162.023 105.035 167.629 98.1826 171.247 90.5194C171.899 89.1379 172.471 87.7152 173.003 86.2813C172.339 89.3727 171.353 91.558 169.678 94.8521Z" fill="white" stroke="white"/>
<path id="Vector_2" d="M35.3634 122.843L35.3633 122.843C34.9771 122.507 34.5951 122.167 34.2173 121.822C33.8398 121.477 33.4668 121.128 33.0981 120.774C32.8116 120.503 32.4532 120.141 32.0618 119.74C36.6795 125.531 43.1183 130.429 49.6636 133.343C52.3336 134.532 55.1312 135.384 57.9873 136.094L57.9874 136.094C60.5214 136.725 64.1728 137.299 67.8278 137.543C68.078 137.56 68.328 137.575 68.5773 137.589C68.5641 137.587 68.5509 137.585 68.5376 137.584L68.5375 137.584C68.0296 137.522 67.5225 137.454 67.0162 137.38C66.5099 137.305 66.0045 137.225 65.5002 137.138M35.3634 122.843L65.5851 136.645M35.3634 122.843C35.7496 123.178 36.1399 123.509 36.5344 123.835L35.3634 122.843ZM65.5002 137.138L65.5851 136.645M65.5002 137.138C65.5002 137.138 65.5003 137.138 65.5003 137.138L65.5851 136.645M65.5002 137.138C64.996 137.051 64.4929 136.958 63.9908 136.859L63.9907 136.859C63.4888 136.76 62.9881 136.654 62.4887 136.542C61.9894 136.431 61.4915 136.313 60.9951 136.189L60.995 136.189C60.4986 136.065 60.0038 135.935 59.5105 135.798M65.5851 136.645C65.0849 136.559 64.5858 136.467 64.0878 136.368C63.5898 136.27 63.0932 136.165 62.5979 136.054C62.1026 135.944 61.6087 135.827 61.1161 135.704C60.6238 135.581 60.1329 135.452 59.6436 135.316M59.5105 135.798L59.6436 135.316M59.5105 135.798C59.5104 135.798 59.5104 135.798 59.5104 135.798L59.6436 135.316M59.5105 135.798C59.0172 135.662 58.5257 135.52 58.036 135.371L58.1811 134.893C58.6668 135.04 59.1543 135.181 59.6436 135.316M56.5727 134.908L56.7295 134.433L56.5725 134.908C56.5726 134.908 56.5727 134.908 56.5727 134.908ZM56.5727 134.908C56.0869 134.747 55.603 134.581 55.1213 134.408C54.6395 134.236 54.1599 134.057 53.6825 133.873C53.2052 133.688 52.7302 133.498 52.2576 133.302L52.2574 133.302C51.7849 133.106 51.3148 132.904 50.8473 132.696C50.8473 132.696 50.8473 132.696 50.8472 132.696L51.0503 132.239M56.5727 134.908L40.4793 126.226C40.8935 126.519 41.3112 126.808 41.7326 127.091C42.1539 127.374 42.5787 127.651 43.0069 127.924C43.4351 128.196 43.8667 128.463 44.3015 128.725C44.7364 128.987 45.1745 129.244 45.6157 129.495C46.0569 129.746 46.5011 129.991 46.9483 130.231C47.3956 130.471 47.8458 130.705 48.2989 130.934C48.752 131.163 49.2079 131.386 49.6665 131.604C50.125 131.821 50.5863 132.033 51.0503 132.239M51.0503 132.239C51.5141 132.445 51.9804 132.646 52.4492 132.84C52.918 133.035 53.3892 133.224 53.8627 133.406C54.3362 133.589 54.8119 133.766 55.2898 133.937L51.0503 132.239ZM49.4521 132.056L49.4522 132.056L38.9488 125.731C39.3589 126.037 39.7727 126.338 40.1904 126.634C40.6079 126.93 41.029 127.22 41.4538 127.506C41.8785 127.791 42.3068 128.071 42.7384 128.346C43.1702 128.62 43.6052 128.89 44.0437 129.154C44.4821 129.418 44.9236 129.676 45.3684 129.929C45.8132 130.182 46.2611 130.43 46.7119 130.672C47.1629 130.914 47.6168 131.15 48.0736 131.381C48.5303 131.611 48.9898 131.836 49.4521 132.056ZM36.5345 123.835C36.929 124.161 37.3275 124.482 37.73 124.798L36.5345 123.835ZM37.73 124.798C38.1323 125.114 38.5385 125.425 38.9486 125.731L37.73 124.798Z" fill="white" stroke="white"/>
<path id="Vector_3" d="M43.999 79.4178L43.999 79.4177C43.795 79.0881 43.5832 78.7549 43.3683 78.4183C43.4756 78.6491 43.5846 78.879 43.6953 79.1082C43.8824 79.4954 44.0743 79.8803 44.271 80.2628L43.999 79.4178ZM43.999 79.4178C47.9096 85.7335 52.3864 90.8891 57.8849 95.8442M43.999 79.4178L57.8849 95.8442M62.1455 99.4907C62.7087 99.908 63.2797 100.315 63.8585 100.71L62.1455 99.4907ZM62.1455 99.4907C60.8534 98.5345 59.6568 97.4495 58.4859 96.388M62.1455 99.4907L58.4859 96.388M65.6172 101.863C65.0236 101.49 64.4374 101.106 63.8586 100.71L65.6172 101.863ZM65.6172 101.863C66.1771 102.216 66.7432 102.558 67.3153 102.889C67.1186 102.794 66.9403 102.705 66.7834 102.624L66.7797 102.622C66.396 102.428 66.0147 102.229 65.6359 102.025L65.4133 102.439L65.6359 102.025C65.2573 101.822 64.8812 101.613 64.5076 101.4C64.1341 101.187 63.7634 100.969 63.3954 100.746L63.3953 100.746C63.0273 100.524 62.6622 100.297 62.2999 100.065L62.2998 100.065C61.9375 99.8335 61.5781 99.5973 61.2216 99.3566C60.8651 99.116 60.5118 98.8709 60.1617 98.6213L60.1616 98.6213C59.8113 98.3718 59.4642 98.1179 59.1204 97.8598L59.1204 97.8598C58.7765 97.6015 58.4359 97.339 58.0986 97.0722L58.0985 97.0721C57.7611 96.8054 57.4272 96.5345 57.0967 96.2593L57.0966 96.2592C56.7662 95.9842 56.4393 95.705 56.1159 95.4216L56.1158 95.4216C55.7922 95.1382 55.4723 94.8509 55.156 94.5594C54.8397 94.268 54.5272 93.9727 54.2184 93.6735L54.2183 93.6735C53.9094 93.3743 53.6043 93.0712 53.3031 92.7644C53.0018 92.4574 52.7043 92.1467 52.4108 91.8323C52.1173 91.518 51.8278 91.2001 51.5424 90.8785L51.5423 90.8784C51.2568 90.5569 50.9754 90.2318 50.6981 89.9032C50.4209 89.5745 50.1477 89.2423 49.8786 88.9068C49.6096 88.5711 49.3448 88.2323 49.0843 87.8902C48.8238 87.548 48.5675 87.2026 48.3157 86.8541C48.0637 86.5055 47.8163 86.1537 47.5734 85.7989L47.5733 85.7988C47.3302 85.444 47.0917 85.0863 46.8577 84.7256L65.6172 101.863ZM46.1693 83.6345L46.1694 83.6346C46.3942 84.0011 46.6236 84.3648 46.8576 84.7256L46.1693 83.6345ZM46.1693 83.6345C45.9443 83.2679 45.724 82.8986 45.5084 82.5266M46.1693 83.6345L45.5084 82.5266M57.8849 95.8442C58.0847 96.0242 58.2849 96.2058 58.4859 96.388M57.8849 95.8442L58.4859 96.388M45.5084 82.5266C45.2927 82.1545 45.0818 81.7798 44.8755 81.4024M45.5084 82.5266L44.8755 81.4024M44.8755 81.4024C44.6692 81.025 44.4677 80.6451 44.271 80.2628L44.8755 81.4024Z" fill="white" stroke="white"/>
<g id="Subtract">
<mask id="path-4-outside-1_172_26593" maskUnits="userSpaceOnUse" x="-1.22474" y="-1.15651" width="195.335" height="163.515" fill="black">
<rect fill="white" x="-1.22474" y="-1.15651" width="195.335" height="163.515"/>
<path fill-rule="evenodd" clip-rule="evenodd" d="M85.2419 20.4839L85.2095 20.4592C84.3257 21.4111 83.5723 22.56 82.8482 23.6641L82.8478 23.6647L82.8473 23.6654C82.7175 23.8634 82.5885 24.0601 82.4599 24.2538C75.6362 34.5361 73.4003 47.6763 73.3775 59.8148C72.681 59.4805 71.9964 59.1263 71.3119 58.7722L71.3117 58.7721L71.3112 58.7718L71.311 58.7717C70.3127 58.2552 69.3146 57.7388 68.2802 57.2847C62.888 54.9176 56.8776 53.4137 51.0168 52.8656C45.0599 52.3084 38.7222 52.6766 32.9944 54.4422C32.8487 54.4871 32.685 54.5326 32.5121 54.5807C31.8485 54.7653 31.0481 54.988 30.6009 55.3594C30.9142 55.4013 31.2525 55.3078 31.5728 55.2192L31.5728 55.2192L31.5728 55.2192L31.5729 55.2191L31.5729 55.2191C31.6626 55.1943 31.7509 55.1699 31.8368 55.149C31.5265 68.7169 36.1002 80.9963 43.8149 92.0228C45.4682 94.3855 47.1424 96.7092 49.0634 98.8636C44.8609 98.5263 40.8552 98.8565 36.7817 99.9196C36.0414 100.109 35.3067 100.318 34.5777 100.547C33.8488 100.776 33.1266 101.025 32.4111 101.293C31.6957 101.562 30.988 101.849 30.2881 102.156C29.5884 102.463 28.8975 102.788 28.2154 103.133C27.5332 103.477 26.8609 103.84 26.1986 104.221C25.5361 104.602 24.8845 105.001 24.2438 105.417C23.6032 105.833 22.9743 106.267 22.3571 106.718C21.7399 107.168 21.1355 107.635 20.5437 108.119C20.3989 108.236 20.2393 108.36 20.0723 108.489L20.0719 108.49L20.0719 108.49C19.3489 109.05 18.4899 109.716 18.1104 110.438C18.0191 110.611 18.0507 110.687 18.1051 110.817C18.1213 110.855 18.1394 110.898 18.157 110.95C18.9583 108.895 28.0054 103.96 30.3133 102.945C36.3609 100.284 42.6889 99.0332 49.2782 99.0729L49.5508 99.3758C50.887 100.861 52.2219 102.345 53.659 103.735C64.6227 114.338 77.2876 119.871 91.9619 123.368C93.4177 123.715 94.8721 124.053 96.3241 124.39L96.3261 124.391L96.3282 124.391C103.394 126.033 110.402 127.662 117.238 130.241C114.44 132.944 110.962 135.306 107.616 137.287C97.9424 143.015 87.7108 146.25 76.4101 146.064C58.392 145.768 41.2798 136.639 28.9437 123.872C27.5813 122.462 26.2269 121.005 24.9805 119.491C24.6818 119.128 23.8607 118.057 22.8961 116.798L22.8956 116.798L22.8954 116.797L22.8952 116.797C21.072 114.419 18.7363 111.371 18.4448 111.172C18.6625 111.557 18.8837 111.941 19.1085 112.322C19.3335 112.704 19.562 113.083 19.7939 113.461C20.0257 113.838 20.2611 114.214 20.5 114.587C20.7388 114.96 20.981 115.331 21.2266 115.7C21.4721 116.069 21.7211 116.435 21.9734 116.799C22.2258 117.163 22.4814 117.525 22.7403 117.885C22.9993 118.244 23.2615 118.601 23.5269 118.956C23.7924 119.311 24.0611 119.663 24.3331 120.013C24.605 120.363 24.8801 120.71 25.1584 121.055C25.4367 121.399 25.7181 121.742 26.0027 122.081C26.2874 122.421 26.575 122.758 26.8656 123.092C27.1564 123.426 27.4503 123.758 27.7472 124.087C28.0439 124.416 28.3437 124.742 28.6465 125.066C28.9494 125.389 29.2551 125.71 29.5637 126.027C29.8724 126.345 30.184 126.66 30.4984 126.973C30.8128 127.285 31.1301 127.594 31.4501 127.9C31.7703 128.207 32.0933 128.51 32.419 128.81C32.7445 129.111 33.0729 129.408 33.4041 129.703C33.7352 129.997 34.069 130.288 34.4055 130.576C34.7419 130.865 35.0809 131.15 35.4226 131.432C35.7642 131.714 36.1085 131.993 36.4553 132.269C36.802 132.544 37.1513 132.817 37.5031 133.086C37.8549 133.356 38.2092 133.622 38.5658 133.885C38.9225 134.148 39.2815 134.407 39.6429 134.664C40.0043 134.92 40.368 135.173 40.7342 135.422C41.1001 135.672 41.4684 135.918 41.8391 136.161C42.2096 136.404 42.5824 136.643 42.9574 136.88C43.3323 137.116 43.7093 137.348 44.0886 137.577C44.4678 137.806 44.849 138.032 45.2322 138.254C45.6157 138.476 46.001 138.695 46.3883 138.91C46.7757 139.125 47.165 139.337 47.5563 139.545C47.9475 139.753 48.3406 139.957 48.7355 140.158C52.4934 142.091 56.2892 143.722 60.3635 144.872C63.1533 145.66 65.9554 146.341 68.8288 146.743C69.8347 146.884 70.8436 146.979 71.8526 147.074C72.5757 147.142 73.2989 147.21 74.0211 147.295C86.2904 147.979 97.8551 144.772 108.32 138.384C109.783 137.491 111.242 136.568 112.636 135.571C113.04 135.282 113.435 134.98 113.831 134.678C114.387 134.253 114.944 133.829 115.524 133.439C115.856 133.148 116.208 132.872 116.56 132.596L116.56 132.596L116.56 132.596L116.56 132.596L116.56 132.596L116.56 132.596C117.592 131.787 118.627 130.976 119.192 129.766C119.404 129.621 119.622 129.485 119.847 129.359C120.071 129.233 120.299 129.116 120.533 129.009C120.768 128.903 121.006 128.806 121.248 128.72C121.49 128.633 121.735 128.557 121.984 128.492C123.456 128.116 125.06 128.008 126.616 127.903L126.616 127.903L126.616 127.903C127.063 127.873 127.507 127.843 127.942 127.807C131.238 127.534 134.545 127.259 137.791 126.594C144.477 125.226 150.632 122.435 156.206 118.515C166.145 111.526 173.824 100.316 177.632 88.8375C179.303 83.8019 180.306 78.5796 181.222 73.3643C181.105 73.3163 180.989 73.2705 180.869 73.2302C172.064 70.302 163.757 70.5728 155.404 74.757C156.06 72.2192 156.546 69.6493 156.863 67.0473C156.915 66.6578 156.963 66.2678 157.008 65.8774C157.053 65.4871 157.094 65.0964 157.132 64.7053C157.17 64.3142 157.204 63.9227 157.235 63.531C157.266 63.1393 157.293 62.7473 157.316 62.3551C157.34 61.963 157.36 61.5706 157.377 61.178C157.393 60.7854 157.406 60.3927 157.416 59.9999C157.425 59.6071 157.431 59.2142 157.433 58.8213C157.436 58.4283 157.434 58.0354 157.43 57.6426C157.425 57.2497 157.417 56.8568 157.405 56.4641C157.393 56.0713 157.377 55.6786 157.358 55.2862C157.339 54.8937 157.317 54.5014 157.291 54.1093C157.265 53.7174 157.235 53.3257 157.202 52.9341C157.169 52.5426 157.132 52.1514 157.092 51.7605C157.052 51.3697 157.008 50.9792 156.961 50.589C156.913 50.199 156.863 49.8093 156.808 49.4202C156.754 49.0311 156.696 48.6425 156.635 48.2543C156.573 47.8662 156.508 47.4787 156.44 47.0917C156.372 46.7048 156.3 46.3185 156.224 45.9328C156.149 45.5473 156.07 45.1624 155.988 44.7781C155.906 44.394 155.82 44.0106 155.73 43.6279C155.641 43.2452 155.548 42.8634 155.452 42.4825C155.356 42.1015 155.257 41.7214 155.154 41.3422C155.05 40.9631 154.944 40.5848 154.834 40.2075C154.724 39.8303 154.611 39.4541 154.494 39.0789C154.378 38.7037 154.258 38.3295 154.134 37.9564C154.011 37.5835 153.884 37.2116 153.754 36.8408C153.624 36.47 153.49 36.1005 153.353 35.7323C153.216 35.364 153.076 34.9969 152.933 34.631C152.789 34.2652 152.642 33.9008 152.492 33.5377C152.342 33.1746 152.189 32.8128 152.032 32.4524C151.876 32.092 151.716 31.733 151.553 31.3756C151.39 31.0181 151.223 30.6621 151.054 30.3077C149.483 27.052 147.705 23.9637 145.482 21.1045L144.895 21.352C142.264 22.4606 139.713 23.5357 137.221 24.9829C128.543 30.0226 121.665 38.1201 117.589 47.2327C111.554 38.3313 103.902 30.7574 94.5551 25.3749C92.7466 24.3335 90.8978 23.4091 89.025 22.4909C88.728 22.3452 88.4203 22.2018 88.1089 22.0568C87.138 21.6045 86.1316 21.1356 85.2997 20.5276C85.2802 20.5134 85.261 20.4986 85.2419 20.4839ZM163.52 72.8777L163.52 72.8778C162.5 73.1124 161.354 73.3758 160.388 73.7759C158.541 74.4418 156.818 75.25 155.074 76.1498C153.408 81.1806 151.319 86.3455 148.73 90.9814C144.44 98.6652 138.796 105.362 133.155 112.055L133.155 112.055C131.692 113.791 130.228 115.527 128.789 117.28C127.141 119.288 125.506 121.348 123.955 123.433C123.533 123.999 123.123 124.575 122.713 125.151L122.713 125.151C122.152 125.939 121.591 126.727 120.999 127.492C122.856 126.903 124.899 126.815 126.898 126.73C127.639 126.698 128.373 126.666 129.09 126.61C133.022 126.299 137.046 125.756 140.84 124.648C155.468 120.165 165.884 110.721 173.017 97.2936C175.937 91.7986 177.775 85.9055 179.403 79.9283C179.491 79.607 179.58 79.2854 179.669 78.9635C180.158 77.1983 180.65 75.4221 180.9 73.6103C175.044 72.4472 169.497 71.5027 163.557 72.8691L163.52 72.8777ZM144.954 21.6208C145.132 21.5323 145.235 21.5007 145.434 21.5011C146.016 21.9374 146.429 22.7897 146.798 23.5516C146.935 23.8342 147.066 24.1044 147.197 24.3364C147.7 25.2062 148.183 26.0867 148.646 26.9777C149.11 27.8688 149.553 28.7696 149.977 29.6802C150.401 30.5907 150.805 31.5103 151.188 32.4388C151.572 33.3671 151.934 34.3035 152.277 35.2479C152.619 36.1922 152.94 37.1436 153.24 38.1021C153.54 39.0607 153.819 40.0254 154.077 40.9963C154.335 41.9672 154.571 42.9431 154.786 43.9242C155 44.9055 155.193 45.891 155.365 46.8807C158.702 67.1865 152.603 85.0587 140.354 101.233C137.927 104.438 135.333 107.483 132.736 110.532L132.736 110.532C131.553 111.92 130.371 113.308 129.202 114.713C126.299 118.184 123.539 121.766 120.925 125.459L120.735 125.687L120.6 125.697C120.722 125.049 121.055 124.347 121.376 123.67C121.544 123.315 121.709 122.967 121.839 122.637C122.516 120.914 123.142 119.166 123.766 117.422L123.767 117.421L123.767 117.419C123.868 117.139 123.968 116.858 124.069 116.578C125.432 112.779 126.329 108.827 127.214 104.896C127.512 103.511 127.776 102.12 128.006 100.722C128.235 99.3244 128.429 97.9218 128.589 96.5144C128.749 95.107 128.873 93.6965 128.962 92.2829C129.052 90.8694 129.106 89.4544 129.125 88.038C129.385 73.2632 126.303 60.9644 118.357 48.4251C119.854 44.6834 121.74 41.4655 124.144 38.2403C129.788 30.67 136.617 25.8691 144.954 21.6208ZM31.9581 55.0814C32.3936 54.9773 32.8303 54.8784 33.2683 54.7848C33.7061 54.6911 34.145 54.6027 34.585 54.5196C35.025 54.4365 35.466 54.3587 35.908 54.2862C36.3499 54.2138 36.7925 54.1467 37.2359 54.0847C37.6795 54.0229 38.1238 53.9664 38.5686 53.9153C39.0134 53.8642 39.4588 53.8184 39.9048 53.778C40.3508 53.7375 40.7972 53.7024 41.244 53.6727C41.6908 53.643 42.1379 53.6186 42.5852 53.5997C43.0327 53.5808 43.4802 53.5673 43.9279 53.5591C44.3756 53.5508 44.8234 53.548 45.2712 53.5507C45.719 53.5533 46.1667 53.5612 46.6144 53.5745C47.0619 53.5879 47.5093 53.6066 47.9564 53.6306C48.4036 53.6548 48.8503 53.6844 49.2967 53.7192C49.7432 53.754 50.1892 53.7942 50.6346 53.8397C51.0801 53.8854 51.525 53.9364 51.9692 53.9927C52.4135 54.0489 52.857 54.1105 53.2997 54.1774C53.7424 54.2443 54.1843 54.3166 54.6253 54.3942C55.0663 54.4718 55.5064 54.5546 55.9454 54.6427C56.3844 54.731 56.8224 54.8244 57.2592 54.9231C57.6959 55.0218 58.1314 55.1257 58.5658 55.2349C59 55.3439 59.4329 55.4583 59.8644 55.5779C60.296 55.6975 60.7261 55.8222 61.1547 55.9522C61.5831 56.0821 62.01 56.2172 62.4353 56.3574C62.8607 56.4975 63.2842 56.6428 63.7059 56.7932C64.1277 56.9435 64.5477 57.0989 64.9658 57.2593C65.3838 57.4198 65.7998 57.5853 66.2139 57.7558C66.6279 57.9263 67.0399 58.1017 67.4497 58.282C67.8596 58.4625 68.2673 58.6478 68.6727 58.8379C69.0781 59.028 69.4811 59.2231 69.8818 59.4229C70.2826 59.6228 70.6808 59.8275 71.0766 60.037C71.4723 60.2465 71.8656 60.4607 72.2563 60.6796C72.647 60.8985 73.0349 61.1221 73.4201 61.3503C73.6122 64.8754 73.8573 68.4281 74.462 71.9094C77.8851 91.6177 89.1625 105.262 103.863 118.1C107.916 121.639 112.058 125.211 116.462 128.308L116.574 128.432L116.458 128.471C115.832 128.266 115.207 128.06 114.583 127.854L114.583 127.853C112.002 127 109.428 126.149 106.791 125.456C104.037 124.733 101.247 124.129 98.4582 123.525C96.3702 123.072 94.2825 122.62 92.2099 122.118C78.3375 118.757 66.896 113.948 56.113 104.386C52.5054 101.187 49.3091 97.4936 46.3933 93.6626C37.3804 81.8204 32.8594 69.9478 31.9581 55.0814ZM85.2451 20.7841C85.2253 20.7833 85.2056 20.7824 85.186 20.7805C84.1597 22.1209 83.4135 23.6199 82.6653 25.1229C82.4476 25.5602 82.2298 25.9978 82.0048 26.4319C75.2513 39.4656 73.4322 54.6538 75.3568 69.1076C77.1981 82.9347 82.5267 93.4044 91.4581 103.934C96.0266 109.321 101.044 114.135 106.415 118.71C109.569 121.397 112.75 124.101 116.044 126.614C116.235 126.76 116.435 126.933 116.641 127.11C117.102 127.507 117.593 127.928 118.077 128.137C118.203 128.068 118.235 128.063 118.256 128.045C118.273 128.031 118.284 128.011 118.326 127.948C118.639 127.151 118.972 126.362 119.304 125.573C119.643 124.771 119.981 123.969 120.298 123.159C121.717 119.539 123.021 115.778 124.112 112.046C128.053 98.5704 129.368 83.3058 126.104 69.5459C125.208 65.7709 123.846 61.9843 122.299 58.4307C115.999 43.9577 105.078 32.9141 91.8001 24.6609C91.5855 24.5275 91.2306 24.2998 90.7935 24.0194C89.0682 22.9124 86.0634 20.9844 85.3617 20.7975C85.3238 20.7875 85.2844 20.7858 85.2451 20.7841Z"/>
</mask>
<path fill-rule="evenodd" clip-rule="evenodd" d="M85.2419 20.4839L85.2095 20.4592C84.3257 21.4111 83.5723 22.56 82.8482 23.6641L82.8478 23.6647L82.8473 23.6654C82.7175 23.8634 82.5885 24.0601 82.4599 24.2538C75.6362 34.5361 73.4003 47.6763 73.3775 59.8148C72.681 59.4805 71.9964 59.1263 71.3119 58.7722L71.3117 58.7721L71.3112 58.7718L71.311 58.7717C70.3127 58.2552 69.3146 57.7388 68.2802 57.2847C62.888 54.9176 56.8776 53.4137 51.0168 52.8656C45.0599 52.3084 38.7222 52.6766 32.9944 54.4422C32.8487 54.4871 32.685 54.5326 32.5121 54.5807C31.8485 54.7653 31.0481 54.988 30.6009 55.3594C30.9142 55.4013 31.2525 55.3078 31.5728 55.2192L31.5728 55.2192L31.5728 55.2192L31.5729 55.2191L31.5729 55.2191C31.6626 55.1943 31.7509 55.1699 31.8368 55.149C31.5265 68.7169 36.1002 80.9963 43.8149 92.0228C45.4682 94.3855 47.1424 96.7092 49.0634 98.8636C44.8609 98.5263 40.8552 98.8565 36.7817 99.9196C36.0414 100.109 35.3067 100.318 34.5777 100.547C33.8488 100.776 33.1266 101.025 32.4111 101.293C31.6957 101.562 30.988 101.849 30.2881 102.156C29.5884 102.463 28.8975 102.788 28.2154 103.133C27.5332 103.477 26.8609 103.84 26.1986 104.221C25.5361 104.602 24.8845 105.001 24.2438 105.417C23.6032 105.833 22.9743 106.267 22.3571 106.718C21.7399 107.168 21.1355 107.635 20.5437 108.119C20.3989 108.236 20.2393 108.36 20.0723 108.489L20.0719 108.49L20.0719 108.49C19.3489 109.05 18.4899 109.716 18.1104 110.438C18.0191 110.611 18.0507 110.687 18.1051 110.817C18.1213 110.855 18.1394 110.898 18.157 110.95C18.9583 108.895 28.0054 103.96 30.3133 102.945C36.3609 100.284 42.6889 99.0332 49.2782 99.0729L49.5508 99.3758C50.887 100.861 52.2219 102.345 53.659 103.735C64.6227 114.338 77.2876 119.871 91.9619 123.368C93.4177 123.715 94.8721 124.053 96.3241 124.39L96.3261 124.391L96.3282 124.391C103.394 126.033 110.402 127.662 117.238 130.241C114.44 132.944 110.962 135.306 107.616 137.287C97.9424 143.015 87.7108 146.25 76.4101 146.064C58.392 145.768 41.2798 136.639 28.9437 123.872C27.5813 122.462 26.2269 121.005 24.9805 119.491C24.6818 119.128 23.8607 118.057 22.8961 116.798L22.8956 116.798L22.8954 116.797L22.8952 116.797C21.072 114.419 18.7363 111.371 18.4448 111.172C18.6625 111.557 18.8837 111.941 19.1085 112.322C19.3335 112.704 19.562 113.083 19.7939 113.461C20.0257 113.838 20.2611 114.214 20.5 114.587C20.7388 114.96 20.981 115.331 21.2266 115.7C21.4721 116.069 21.7211 116.435 21.9734 116.799C22.2258 117.163 22.4814 117.525 22.7403 117.885C22.9993 118.244 23.2615 118.601 23.5269 118.956C23.7924 119.311 24.0611 119.663 24.3331 120.013C24.605 120.363 24.8801 120.71 25.1584 121.055C25.4367 121.399 25.7181 121.742 26.0027 122.081C26.2874 122.421 26.575 122.758 26.8656 123.092C27.1564 123.426 27.4503 123.758 27.7472 124.087C28.0439 124.416 28.3437 124.742 28.6465 125.066C28.9494 125.389 29.2551 125.71 29.5637 126.027C29.8724 126.345 30.184 126.66 30.4984 126.973C30.8128 127.285 31.1301 127.594 31.4501 127.9C31.7703 128.207 32.0933 128.51 32.419 128.81C32.7445 129.111 33.0729 129.408 33.4041 129.703C33.7352 129.997 34.069 130.288 34.4055 130.576C34.7419 130.865 35.0809 131.15 35.4226 131.432C35.7642 131.714 36.1085 131.993 36.4553 132.269C36.802 132.544 37.1513 132.817 37.5031 133.086C37.8549 133.356 38.2092 133.622 38.5658 133.885C38.9225 134.148 39.2815 134.407 39.6429 134.664C40.0043 134.92 40.368 135.173 40.7342 135.422C41.1001 135.672 41.4684 135.918 41.8391 136.161C42.2096 136.404 42.5824 136.643 42.9574 136.88C43.3323 137.116 43.7093 137.348 44.0886 137.577C44.4678 137.806 44.849 138.032 45.2322 138.254C45.6157 138.476 46.001 138.695 46.3883 138.91C46.7757 139.125 47.165 139.337 47.5563 139.545C47.9475 139.753 48.3406 139.957 48.7355 140.158C52.4934 142.091 56.2892 143.722 60.3635 144.872C63.1533 145.66 65.9554 146.341 68.8288 146.743C69.8347 146.884 70.8436 146.979 71.8526 147.074C72.5757 147.142 73.2989 147.21 74.0211 147.295C86.2904 147.979 97.8551 144.772 108.32 138.384C109.783 137.491 111.242 136.568 112.636 135.571C113.04 135.282 113.435 134.98 113.831 134.678C114.387 134.253 114.944 133.829 115.524 133.439C115.856 133.148 116.208 132.872 116.56 132.596L116.56 132.596L116.56 132.596L116.56 132.596L116.56 132.596L116.56 132.596C117.592 131.787 118.627 130.976 119.192 129.766C119.404 129.621 119.622 129.485 119.847 129.359C120.071 129.233 120.299 129.116 120.533 129.009C120.768 128.903 121.006 128.806 121.248 128.72C121.49 128.633 121.735 128.557 121.984 128.492C123.456 128.116 125.06 128.008 126.616 127.903L126.616 127.903L126.616 127.903C127.063 127.873 127.507 127.843 127.942 127.807C131.238 127.534 134.545 127.259 137.791 126.594C144.477 125.226 150.632 122.435 156.206 118.515C166.145 111.526 173.824 100.316 177.632 88.8375C179.303 83.8019 180.306 78.5796 181.222 73.3643C181.105 73.3163 180.989 73.2705 180.869 73.2302C172.064 70.302 163.757 70.5728 155.404 74.757C156.06 72.2192 156.546 69.6493 156.863 67.0473C156.915 66.6578 156.963 66.2678 157.008 65.8774C157.053 65.4871 157.094 65.0964 157.132 64.7053C157.17 64.3142 157.204 63.9227 157.235 63.531C157.266 63.1393 157.293 62.7473 157.316 62.3551C157.34 61.963 157.36 61.5706 157.377 61.178C157.393 60.7854 157.406 60.3927 157.416 59.9999C157.425 59.6071 157.431 59.2142 157.433 58.8213C157.436 58.4283 157.434 58.0354 157.43 57.6426C157.425 57.2497 157.417 56.8568 157.405 56.4641C157.393 56.0713 157.377 55.6786 157.358 55.2862C157.339 54.8937 157.317 54.5014 157.291 54.1093C157.265 53.7174 157.235 53.3257 157.202 52.9341C157.169 52.5426 157.132 52.1514 157.092 51.7605C157.052 51.3697 157.008 50.9792 156.961 50.589C156.913 50.199 156.863 49.8093 156.808 49.4202C156.754 49.0311 156.696 48.6425 156.635 48.2543C156.573 47.8662 156.508 47.4787 156.44 47.0917C156.372 46.7048 156.3 46.3185 156.224 45.9328C156.149 45.5473 156.07 45.1624 155.988 44.7781C155.906 44.394 155.82 44.0106 155.73 43.6279C155.641 43.2452 155.548 42.8634 155.452 42.4825C155.356 42.1015 155.257 41.7214 155.154 41.3422C155.05 40.9631 154.944 40.5848 154.834 40.2075C154.724 39.8303 154.611 39.4541 154.494 39.0789C154.378 38.7037 154.258 38.3295 154.134 37.9564C154.011 37.5835 153.884 37.2116 153.754 36.8408C153.624 36.47 153.49 36.1005 153.353 35.7323C153.216 35.364 153.076 34.9969 152.933 34.631C152.789 34.2652 152.642 33.9008 152.492 33.5377C152.342 33.1746 152.189 32.8128 152.032 32.4524C151.876 32.092 151.716 31.733 151.553 31.3756C151.39 31.0181 151.223 30.6621 151.054 30.3077C149.483 27.052 147.705 23.9637 145.482 21.1045L144.895 21.352C142.264 22.4606 139.713 23.5357 137.221 24.9829C128.543 30.0226 121.665 38.1201 117.589 47.2327C111.554 38.3313 103.902 30.7574 94.5551 25.3749C92.7466 24.3335 90.8978 23.4091 89.025 22.4909C88.728 22.3452 88.4203 22.2018 88.1089 22.0568C87.138 21.6045 86.1316 21.1356 85.2997 20.5276C85.2802 20.5134 85.261 20.4986 85.2419 20.4839ZM163.52 72.8777L163.52 72.8778C162.5 73.1124 161.354 73.3758 160.388 73.7759C158.541 74.4418 156.818 75.25 155.074 76.1498C153.408 81.1806 151.319 86.3455 148.73 90.9814C144.44 98.6652 138.796 105.362 133.155 112.055L133.155 112.055C131.692 113.791 130.228 115.527 128.789 117.28C127.141 119.288 125.506 121.348 123.955 123.433C123.533 123.999 123.123 124.575 122.713 125.151L122.713 125.151C122.152 125.939 121.591 126.727 120.999 127.492C122.856 126.903 124.899 126.815 126.898 126.73C127.639 126.698 128.373 126.666 129.09 126.61C133.022 126.299 137.046 125.756 140.84 124.648C155.468 120.165 165.884 110.721 173.017 97.2936C175.937 91.7986 177.775 85.9055 179.403 79.9283C179.491 79.607 179.58 79.2854 179.669 78.9635C180.158 77.1983 180.65 75.4221 180.9 73.6103C175.044 72.4472 169.497 71.5027 163.557 72.8691L163.52 72.8777ZM144.954 21.6208C145.132 21.5323 145.235 21.5007 145.434 21.5011C146.016 21.9374 146.429 22.7897 146.798 23.5516C146.935 23.8342 147.066 24.1044 147.197 24.3364C147.7 25.2062 148.183 26.0867 148.646 26.9777C149.11 27.8688 149.553 28.7696 149.977 29.6802C150.401 30.5907 150.805 31.5103 151.188 32.4388C151.572 33.3671 151.934 34.3035 152.277 35.2479C152.619 36.1922 152.94 37.1436 153.24 38.1021C153.54 39.0607 153.819 40.0254 154.077 40.9963C154.335 41.9672 154.571 42.9431 154.786 43.9242C155 44.9055 155.193 45.891 155.365 46.8807C158.702 67.1865 152.603 85.0587 140.354 101.233C137.927 104.438 135.333 107.483 132.736 110.532L132.736 110.532C131.553 111.92 130.371 113.308 129.202 114.713C126.299 118.184 123.539 121.766 120.925 125.459L120.735 125.687L120.6 125.697C120.722 125.049 121.055 124.347 121.376 123.67C121.544 123.315 121.709 122.967 121.839 122.637C122.516 120.914 123.142 119.166 123.766 117.422L123.767 117.421L123.767 117.419C123.868 117.139 123.968 116.858 124.069 116.578C125.432 112.779 126.329 108.827 127.214 104.896C127.512 103.511 127.776 102.12 128.006 100.722C128.235 99.3244 128.429 97.9218 128.589 96.5144C128.749 95.107 128.873 93.6965 128.962 92.2829C129.052 90.8694 129.106 89.4544 129.125 88.038C129.385 73.2632 126.303 60.9644 118.357 48.4251C119.854 44.6834 121.74 41.4655 124.144 38.2403C129.788 30.67 136.617 25.8691 144.954 21.6208ZM31.9581 55.0814C32.3936 54.9773 32.8303 54.8784 33.2683 54.7848C33.7061 54.6911 34.145 54.6027 34.585 54.5196C35.025 54.4365 35.466 54.3587 35.908 54.2862C36.3499 54.2138 36.7925 54.1467 37.2359 54.0847C37.6795 54.0229 38.1238 53.9664 38.5686 53.9153C39.0134 53.8642 39.4588 53.8184 39.9048 53.778C40.3508 53.7375 40.7972 53.7024 41.244 53.6727C41.6908 53.643 42.1379 53.6186 42.5852 53.5997C43.0327 53.5808 43.4802 53.5673 43.9279 53.5591C44.3756 53.5508 44.8234 53.548 45.2712 53.5507C45.719 53.5533 46.1667 53.5612 46.6144 53.5745C47.0619 53.5879 47.5093 53.6066 47.9564 53.6306C48.4036 53.6548 48.8503 53.6844 49.2967 53.7192C49.7432 53.754 50.1892 53.7942 50.6346 53.8397C51.0801 53.8854 51.525 53.9364 51.9692 53.9927C52.4135 54.0489 52.857 54.1105 53.2997 54.1774C53.7424 54.2443 54.1843 54.3166 54.6253 54.3942C55.0663 54.4718 55.5064 54.5546 55.9454 54.6427C56.3844 54.731 56.8224 54.8244 57.2592 54.9231C57.6959 55.0218 58.1314 55.1257 58.5658 55.2349C59 55.3439 59.4329 55.4583 59.8644 55.5779C60.296 55.6975 60.7261 55.8222 61.1547 55.9522C61.5831 56.0821 62.01 56.2172 62.4353 56.3574C62.8607 56.4975 63.2842 56.6428 63.7059 56.7932C64.1277 56.9435 64.5477 57.0989 64.9658 57.2593C65.3838 57.4198 65.7998 57.5853 66.2139 57.7558C66.6279 57.9263 67.0399 58.1017 67.4497 58.282C67.8596 58.4625 68.2673 58.6478 68.6727 58.8379C69.0781 59.028 69.4811 59.2231 69.8818 59.4229C70.2826 59.6228 70.6808 59.8275 71.0766 60.037C71.4723 60.2465 71.8656 60.4607 72.2563 60.6796C72.647 60.8985 73.0349 61.1221 73.4201 61.3503C73.6122 64.8754 73.8573 68.4281 74.462 71.9094C77.8851 91.6177 89.1625 105.262 103.863 118.1C107.916 121.639 112.058 125.211 116.462 128.308L116.574 128.432L116.458 128.471C115.832 128.266 115.207 128.06 114.583 127.854L114.583 127.853C112.002 127 109.428 126.149 106.791 125.456C104.037 124.733 101.247 124.129 98.4582 123.525C96.3702 123.072 94.2825 122.62 92.2099 122.118C78.3375 118.757 66.896 113.948 56.113 104.386C52.5054 101.187 49.3091 97.4936 46.3933 93.6626C37.3804 81.8204 32.8594 69.9478 31.9581 55.0814ZM85.2451 20.7841C85.2253 20.7833 85.2056 20.7824 85.186 20.7805C84.1597 22.1209 83.4135 23.6199 82.6653 25.1229C82.4476 25.5602 82.2298 25.9978 82.0048 26.4319C75.2513 39.4656 73.4322 54.6538 75.3568 69.1076C77.1981 82.9347 82.5267 93.4044 91.4581 103.934C96.0266 109.321 101.044 114.135 106.415 118.71C109.569 121.397 112.75 124.101 116.044 126.614C116.235 126.76 116.435 126.933 116.641 127.11C117.102 127.507 117.593 127.928 118.077 128.137C118.203 128.068 118.235 128.063 118.256 128.045C118.273 128.031 118.284 128.011 118.326 127.948C118.639 127.151 118.972 126.362 119.304 125.573C119.643 124.771 119.981 123.969 120.298 123.159C121.717 119.539 123.021 115.778 124.112 112.046C128.053 98.5704 129.368 83.3058 126.104 69.5459C125.208 65.7709 123.846 61.9843 122.299 58.4307C115.999 43.9577 105.078 32.9141 91.8001 24.6609C91.5855 24.5275 91.2306 24.2998 90.7935 24.0194C89.0682 22.9124 86.0634 20.9844 85.3617 20.7975C85.3238 20.7875 85.2844 20.7858 85.2451 20.7841Z" fill="white"/>
<path d="M85.2095 20.4592L85.3915 20.2207L85.175 20.0555L84.9896 20.2551L85.2095 20.4592ZM85.2419 20.4839L85.4245 20.2459L85.4239 20.2454L85.2419 20.4839ZM82.8482 23.6641L82.5973 23.4996L82.596 23.5016L82.8482 23.6641ZM82.8478 23.6647L83.0973 23.8313L83.0999 23.8273L82.8478 23.6647ZM82.8473 23.6654L82.5979 23.4988L82.5965 23.5009L82.8473 23.6654ZM82.4599 24.2538L82.7099 24.4197L82.7099 24.4197L82.4599 24.2538ZM73.3775 59.8148L73.2477 60.0852L73.6766 60.291L73.6775 59.8153L73.3775 59.8148ZM71.3119 58.7722L71.4498 58.5057L71.4464 58.504L71.3119 58.7722ZM71.3117 58.7721L71.4462 58.5039L71.3117 58.7721ZM71.3112 58.7718L71.1726 59.0379L71.1767 59.04L71.3112 58.7718ZM71.311 58.7717L71.4496 58.5057L71.4489 58.5053L71.311 58.7717ZM68.2802 57.2847L68.4008 57.01L68.4008 57.01L68.2802 57.2847ZM51.0168 52.8656L50.9889 53.1643L50.9889 53.1643L51.0168 52.8656ZM32.9944 54.4422L33.0827 54.7289L33.0827 54.7289L32.9944 54.4422ZM32.5121 54.5807L32.4317 54.2917L32.5121 54.5807ZM30.6009 55.3594L30.4092 55.1287L29.8828 55.566L30.5611 55.6568L30.6009 55.3594ZM31.5728 55.2192L31.4951 54.9294L31.4928 54.93L31.5728 55.2192ZM31.5728 55.2192L31.4952 54.9294L31.5728 55.2192ZM31.5728 55.2192L31.6505 55.5089L31.5728 55.2192ZM31.5729 55.2191L31.6506 55.5089L31.6529 55.5083L31.5729 55.2191ZM31.8368 55.149L32.1367 55.1558L32.1457 54.7649L31.7658 54.8575L31.8368 55.149ZM43.8149 92.0228L43.5691 92.1947L43.5691 92.1948L43.8149 92.0228ZM49.0634 98.8636L49.0394 99.1626L49.7854 99.2225L49.2873 98.6639L49.0634 98.8636ZM36.7817 99.9196L36.856 100.21L36.8575 100.21L36.7817 99.9196ZM34.5777 100.547L34.4877 100.261L34.4877 100.261L34.5777 100.547ZM32.4111 101.293L32.3058 101.012L32.4111 101.293ZM30.2881 102.156L30.1677 101.881L30.1676 101.881L30.2881 102.156ZM28.2154 103.133L28.0802 102.865L28.0801 102.865L28.2154 103.133ZM26.1986 104.221L26.3481 104.481L26.3481 104.481L26.1986 104.221ZM24.2438 105.417L24.4073 105.669L24.4073 105.669L24.2438 105.417ZM22.3571 106.718L22.534 106.96L22.5341 106.96L22.3571 106.718ZM20.5437 108.119L20.7328 108.351L20.7336 108.351L20.5437 108.119ZM20.0723 108.489L19.8885 108.252L19.884 108.256L20.0723 108.489ZM20.0719 108.49L20.2439 108.735L20.2523 108.729L20.2603 108.723L20.0719 108.49ZM20.0719 108.49L19.8999 108.244L19.8939 108.248L19.8881 108.252L20.0719 108.49ZM18.1104 110.438L17.8449 110.298L17.8449 110.298L18.1104 110.438ZM18.1051 110.817L17.8285 110.933L17.8285 110.933L18.1051 110.817ZM18.157 110.95L17.8727 111.046L18.1366 111.829L18.4365 111.059L18.157 110.95ZM30.3133 102.945L30.4341 103.219L30.4342 103.219L30.3133 102.945ZM49.2782 99.0729L49.5012 98.8722L49.4126 98.7737L49.28 98.7729L49.2782 99.0729ZM49.5508 99.3758L49.7738 99.1752L49.7738 99.1751L49.5508 99.3758ZM53.659 103.735L53.4505 103.95L53.4505 103.95L53.659 103.735ZM91.9619 123.368L91.8924 123.66L91.8924 123.66L91.9619 123.368ZM96.3241 124.39L96.3926 124.098L96.392 124.098L96.3241 124.39ZM96.3261 124.391L96.2575 124.683L96.3261 124.391ZM96.3282 124.391L96.2596 124.683L96.2603 124.684L96.3282 124.391ZM117.238 130.241L117.447 130.457L117.788 130.128L117.344 129.96L117.238 130.241ZM107.616 137.287L107.463 137.029L107.463 137.029L107.616 137.287ZM76.4101 146.064L76.415 145.764L76.415 145.764L76.4101 146.064ZM28.9437 123.872L28.7279 124.081L28.7279 124.081L28.9437 123.872ZM24.9805 119.491L24.7489 119.682L24.7489 119.682L24.9805 119.491ZM22.8961 116.798L22.6575 116.98L22.658 116.981L22.8961 116.798ZM22.8956 116.798L22.6567 116.979L22.6571 116.98L22.8956 116.798ZM22.8954 116.797L23.1344 116.616L23.1326 116.614L22.8954 116.797ZM22.8952 116.797L22.6571 116.98L22.658 116.981L22.8952 116.797ZM18.4448 111.172L18.6142 110.924L18.1836 111.319L18.4448 111.172ZM19.1085 112.322L18.85 112.474L18.8501 112.475L19.1085 112.322ZM19.7939 113.461L19.5383 113.618L19.5383 113.618L19.7939 113.461ZM20.5 114.587L20.7526 114.425L20.7526 114.425L20.5 114.587ZM21.2266 115.7L20.9769 115.866L20.9769 115.866L21.2266 115.7ZM21.9734 116.799L21.7268 116.97L21.7269 116.97L21.9734 116.799ZM22.7403 117.885L22.9838 117.709L22.9838 117.709L22.7403 117.885ZM23.5269 118.956L23.2867 119.136L23.2867 119.136L23.5269 118.956ZM24.3331 120.013L24.0962 120.197L24.3331 120.013ZM25.1584 121.055L24.925 121.243L24.925 121.243L25.1584 121.055ZM26.0027 122.081L26.2327 121.888L26.2327 121.888L26.0027 122.081ZM26.8656 123.092L26.6392 123.289L26.6393 123.289L26.8656 123.092ZM27.7472 124.087L27.9699 123.886L27.9699 123.886L27.7472 124.087ZM28.6465 125.066L28.8655 124.861L28.8655 124.86L28.6465 125.066ZM29.5637 126.027L29.3485 126.236L29.3485 126.236L29.5637 126.027ZM30.4984 126.973L30.2869 127.185L30.287 127.186L30.4984 126.973ZM31.4501 127.9L31.2427 128.117L31.2427 128.117L31.4501 127.9ZM32.419 128.81L32.6224 128.59L32.6224 128.59L32.419 128.81ZM33.4041 129.703L33.6035 129.478L33.6034 129.478L33.4041 129.703ZM34.4055 130.576L34.6007 130.349L34.6007 130.349L34.4055 130.576ZM35.4226 131.432L35.6136 131.201L35.6135 131.201L35.4226 131.432ZM36.4553 132.269L36.2685 132.504L36.2685 132.504L36.4553 132.269ZM37.5031 133.086L37.3206 133.325L37.3207 133.325L37.5031 133.086ZM38.5658 133.885L38.7439 133.643L38.7438 133.643L38.5658 133.885ZM39.6429 134.664L39.4694 134.908L39.4694 134.908L39.6429 134.664ZM40.7342 135.422L40.9032 135.175L40.9032 135.175L40.7342 135.422ZM41.8391 136.161L42.0035 135.91L42.0035 135.91L41.8391 136.161ZM42.9574 136.88L43.1172 136.626L43.1172 136.626L42.9574 136.88ZM44.0886 137.577L43.9334 137.834L43.9334 137.834L44.0886 137.577ZM45.2322 138.254L45.0818 138.514L45.0818 138.514L45.2322 138.254ZM46.3883 138.91L46.2426 139.172L46.2427 139.172L46.3883 138.91ZM47.5563 139.545L47.4155 139.81L47.4155 139.81L47.5563 139.545ZM48.7355 140.158L48.8728 139.891L48.8715 139.89L48.7355 140.158ZM60.3635 144.872L60.4449 144.583L60.4449 144.583L60.3635 144.872ZM68.8288 146.743L68.7872 147.04L68.7872 147.04L68.8288 146.743ZM71.8526 147.074L71.8245 147.373L71.8526 147.074ZM74.0211 147.295L73.986 147.593L73.9952 147.594L74.0044 147.594L74.0211 147.295ZM108.32 138.384L108.164 138.128L108.164 138.128L108.32 138.384ZM112.636 135.571L112.81 135.815L112.81 135.815L112.636 135.571ZM113.831 134.678L114.013 134.916L113.831 134.678ZM115.524 133.439L115.691 133.688L115.707 133.678L115.721 133.665L115.524 133.439ZM116.56 132.596L116.745 132.833L116.745 132.832L116.56 132.596ZM116.56 132.596L116.375 132.361L116.56 132.596ZM116.56 132.596L116.746 132.832L116.56 132.596ZM116.56 132.596L116.375 132.36L116.56 132.596ZM116.56 132.596L116.395 132.346L116.385 132.353L116.375 132.36L116.56 132.596ZM116.56 132.596L116.726 132.846L116.736 132.84L116.746 132.832L116.56 132.596ZM119.192 129.766L119.023 129.518L118.955 129.564L118.92 129.639L119.192 129.766ZM119.847 129.359L119.994 129.62L119.994 129.62L119.847 129.359ZM120.533 129.009L120.409 128.737L120.533 129.009ZM121.248 128.72L121.147 128.437L121.147 128.437L121.248 128.72ZM121.984 128.492L121.91 128.201L121.908 128.202L121.984 128.492ZM126.616 127.903L126.633 127.603L126.614 127.602L126.595 127.603L126.616 127.903ZM126.616 127.903L126.598 128.202L126.614 128.203L126.63 128.202L126.616 127.903ZM126.616 127.903L126.63 128.202L126.636 128.202L126.616 127.903ZM127.942 127.807L127.917 127.508L127.917 127.508L127.942 127.807ZM137.791 126.594L137.851 126.888L137.851 126.888L137.791 126.594ZM156.206 118.515L156.034 118.27L156.206 118.515ZM177.632 88.8375L177.917 88.932L177.632 88.8375ZM181.222 73.3643L181.518 73.4162L181.559 73.1779L181.335 73.0865L181.222 73.3643ZM180.869 73.2302L180.964 72.9457L180.963 72.9456L180.869 73.2302ZM155.404 74.757L155.114 74.6819L154.949 75.3207L155.539 75.0252L155.404 74.757ZM156.863 67.0473L156.566 67.0077L156.565 67.011L156.863 67.0473ZM157.008 65.8774L157.306 65.9117L157.306 65.9117L157.008 65.8774ZM157.132 64.7053L157.431 64.7342L157.431 64.7341L157.132 64.7053ZM157.235 63.531L156.936 63.5075L156.936 63.5075L157.235 63.531ZM157.316 62.3551L157.017 62.337L157.017 62.337L157.316 62.3551ZM157.377 61.178L157.677 61.1907L157.677 61.1906L157.377 61.178ZM157.416 59.9999L157.116 59.9926L157.116 59.9927L157.416 59.9999ZM157.433 58.8213L157.733 58.8231L157.733 58.8231L157.433 58.8213ZM157.43 57.6426L157.73 57.639L157.73 57.6389L157.43 57.6426ZM157.405 56.4641L157.705 56.4551L157.705 56.455L157.405 56.4641ZM157.358 55.2862L157.658 55.2717L157.658 55.2717L157.358 55.2862ZM157.291 54.1093L156.992 54.1292L156.992 54.1292L157.291 54.1093ZM157.202 52.9341L156.903 52.9595L156.903 52.9595L157.202 52.9341ZM157.092 51.7605L157.39 51.7299L157.39 51.7298L157.092 51.7605ZM156.961 50.589L156.663 50.6251L156.663 50.6252L156.961 50.589ZM156.808 49.4202L156.511 49.4617L156.511 49.4617L156.808 49.4202ZM156.635 48.2543L156.931 48.2074L156.931 48.2073L156.635 48.2543ZM156.44 47.0917L156.735 47.0396L156.735 47.0395L156.44 47.0917ZM156.224 45.9328L155.93 45.9903L155.93 45.9904L156.224 45.9328ZM155.988 44.7781L155.694 44.8409L155.694 44.841L155.988 44.7781ZM155.73 43.6279L155.438 43.696L155.438 43.6961L155.73 43.6279ZM155.452 42.4825L155.743 42.4091L155.452 42.4825ZM155.154 41.3422L155.443 41.2636L155.443 41.2635L155.154 41.3422ZM154.834 40.2075L155.122 40.1236L155.122 40.1236L154.834 40.2075ZM154.494 39.0789L154.208 39.1679L154.208 39.168L154.494 39.0789ZM154.134 37.9564L153.849 38.0507L153.849 38.0508L154.134 37.9564ZM153.754 36.8408L153.471 36.9401L153.471 36.9402L153.754 36.8408ZM153.353 35.7323L153.072 35.8367L153.072 35.8368L153.353 35.7323ZM152.933 34.631L152.653 34.7405L152.653 34.7406L152.933 34.631ZM152.492 33.5377L152.215 33.6523L152.492 33.5377ZM152.032 32.4524L152.307 32.3328L152.307 32.3328L152.032 32.4524ZM151.553 31.3756L151.28 31.5001L151.28 31.5001L151.553 31.3756ZM151.054 30.3077L151.324 30.1783L151.324 30.1774L151.054 30.3077ZM145.482 21.1045L145.719 20.9204L145.577 20.7386L145.365 20.8281L145.482 21.1045ZM144.895 21.352L145.011 21.6285L145.011 21.6285L144.895 21.352ZM137.221 24.9829L137.07 24.7234L137.07 24.7234L137.221 24.9829ZM117.589 47.2327L117.34 47.4011L117.643 47.8469L117.863 47.3552L117.589 47.2327ZM94.5551 25.3749L94.4053 25.6349L94.4053 25.6349L94.5551 25.3749ZM89.025 22.4909L88.893 22.7602L88.893 22.7602L89.025 22.4909ZM88.1089 22.0568L87.9823 22.3288L87.9823 22.3288L88.1089 22.0568ZM85.2997 20.5276L85.4768 20.2854L85.4767 20.2853L85.2997 20.5276ZM163.52 72.8778L163.587 73.1703L163.597 73.1676L163.52 72.8778ZM163.52 72.8777L163.453 72.5852L163.442 72.588L163.52 72.8777ZM160.388 73.7759L160.49 74.0584L160.503 74.053L160.388 73.7759ZM155.074 76.1498L154.936 75.8832L154.827 75.9393L154.789 76.0555L155.074 76.1498ZM148.73 90.9814L148.992 91.1277L148.73 90.9814ZM133.155 112.055L133.381 112.253L133.385 112.248L133.155 112.055ZM133.155 112.055L132.93 111.857L132.926 111.861L133.155 112.055ZM128.789 117.28L129.021 117.47L128.789 117.28ZM123.955 123.433L124.196 123.612L123.955 123.433ZM122.713 125.151L122.957 125.326L122.958 125.325L122.713 125.151ZM122.713 125.151L122.469 124.976L122.469 124.977L122.713 125.151ZM120.999 127.492L120.762 127.309L120.175 128.069L121.09 127.778L120.999 127.492ZM126.898 126.73L126.886 126.43L126.898 126.73ZM129.09 126.61L129.066 126.311L129.09 126.61ZM140.84 124.648L140.924 124.936L140.928 124.935L140.84 124.648ZM173.017 97.2936L173.282 97.4344L173.282 97.4344L173.017 97.2936ZM179.403 79.9283L179.692 80.0072L179.692 80.0071L179.403 79.9283ZM179.669 78.9635L179.38 78.8834L179.669 78.9635ZM180.9 73.6103L181.197 73.6513L181.235 73.3712L180.958 73.3161L180.9 73.6103ZM163.557 72.8691L163.625 73.1615L163.625 73.1615L163.557 72.8691ZM145.434 21.5011L145.614 21.261L145.534 21.2013L145.435 21.2011L145.434 21.5011ZM144.954 21.6208L144.821 21.3522L144.818 21.3535L144.954 21.6208ZM146.798 23.5516L146.528 23.6824L146.798 23.5516ZM147.197 24.3364L146.936 24.4841L146.937 24.4864L147.197 24.3364ZM148.646 26.9777L148.912 26.8392L148.912 26.8392L148.646 26.9777ZM149.977 29.6802L150.249 29.5536L150.249 29.5535L149.977 29.6802ZM151.188 32.4388L150.911 32.5533L150.911 32.5533L151.188 32.4388ZM152.277 35.2479L151.995 35.3501L151.995 35.3501L152.277 35.2479ZM153.24 38.1021L152.954 38.1918L152.954 38.1918L153.24 38.1021ZM154.077 40.9963L153.787 41.0733L153.787 41.0733L154.077 40.9963ZM154.786 43.9242L155.079 43.8601L155.079 43.8601L154.786 43.9242ZM155.365 46.8807L155.661 46.8321L155.66 46.8295L155.365 46.8807ZM140.354 101.233L140.115 101.052L140.115 101.052L140.354 101.233ZM132.736 110.532L132.964 110.727L132.964 110.726L132.736 110.532ZM132.736 110.532L132.507 110.337L132.507 110.338L132.736 110.532ZM129.202 114.713L129.432 114.906L129.433 114.905L129.202 114.713ZM120.925 125.459L121.155 125.651L121.163 125.642L121.169 125.632L120.925 125.459ZM120.735 125.687L120.758 125.986L120.885 125.976L120.966 125.878L120.735 125.687ZM120.6 125.697L120.306 125.641L120.234 126.026L120.623 125.996L120.6 125.697ZM121.376 123.67L121.647 123.799L121.376 123.67ZM121.839 122.637L122.118 122.747L121.839 122.637ZM123.766 117.422L123.485 117.316L123.484 117.321L123.766 117.422ZM123.767 117.421L124.048 117.526L124.049 117.521L123.767 117.421ZM123.767 117.419L123.485 117.318L123.484 117.319L123.767 117.419ZM124.069 116.578L123.786 116.476L123.786 116.476L124.069 116.578ZM127.214 104.896L127.507 104.962L127.507 104.959L127.214 104.896ZM128.006 100.722L127.709 100.674L127.709 100.674L128.006 100.722ZM128.962 92.2829L128.663 92.264L128.663 92.264L128.962 92.2829ZM129.125 88.038L128.825 88.0327L128.825 88.034L129.125 88.038ZM118.357 48.4251L118.079 48.3136L118.022 48.4561L118.104 48.5856L118.357 48.4251ZM124.144 38.2403L123.903 38.061L123.903 38.061L124.144 38.2403ZM33.2683 54.7848L33.331 55.0782L33.3311 55.0781L33.2683 54.7848ZM31.9581 55.0814L31.8884 54.7896L31.6434 54.8482L31.6587 55.0995L31.9581 55.0814ZM34.585 54.5196L34.5293 54.2248L34.585 54.5196ZM35.908 54.2862L35.8595 53.9902L35.8595 53.9902L35.908 54.2862ZM37.2359 54.0847L37.1945 53.7876L37.1944 53.7876L37.2359 54.0847ZM38.5686 53.9153L38.6028 54.2133L38.5686 53.9153ZM39.9048 53.778L39.9319 54.0768L39.932 54.0768L39.9048 53.778ZM41.244 53.6727L41.2639 53.972L41.244 53.6727ZM42.5852 53.5997L42.5726 53.2999L42.5725 53.2999L42.5852 53.5997ZM43.9279 53.5591L43.9334 53.8591L43.9335 53.8591L43.9279 53.5591ZM45.2712 53.5507L45.2695 53.8507L45.2695 53.8507L45.2712 53.5507ZM46.6144 53.5745L46.6233 53.2746L46.6233 53.2746L46.6144 53.5745ZM47.9564 53.6306L47.9726 53.3311L47.9725 53.3311L47.9564 53.6306ZM49.2967 53.7192L49.2733 54.0183L49.2734 54.0183L49.2967 53.7192ZM50.6346 53.8397L50.6652 53.5413L50.6651 53.5413L50.6346 53.8397ZM51.9692 53.9927L51.9315 54.2903L51.9315 54.2903L51.9692 53.9927ZM53.2997 54.1774L53.3445 53.8807L53.3445 53.8807L53.2997 54.1774ZM54.6253 54.3942L54.6773 54.0987L54.6253 54.3942ZM55.9454 54.6427L56.0045 54.3486L56.0044 54.3486L55.9454 54.6427ZM57.2592 54.9231L57.3253 54.6305L57.3253 54.6305L57.2592 54.9231ZM58.5658 55.2349L58.4927 55.5258L58.4927 55.5259L58.5658 55.2349ZM59.8644 55.5779L59.7843 55.867L59.7843 55.867L59.8644 55.5779ZM61.1547 55.9522L61.2417 55.6651L61.2417 55.6651L61.1547 55.9522ZM62.4353 56.3574L62.3413 56.6423L62.3414 56.6423L62.4353 56.3574ZM63.7059 56.7932L63.6051 57.0758L63.6052 57.0758L63.7059 56.7932ZM64.9658 57.2593L65.0733 56.9792L65.0732 56.9792L64.9658 57.2593ZM66.2139 57.7558L66.0996 58.0332L66.0997 58.0333L66.2139 57.7558ZM67.4497 58.282L67.5706 58.0074L67.5705 58.0074L67.4497 58.282ZM69.8818 59.4229L70.0157 59.1545L70.0157 59.1545L69.8818 59.4229ZM71.0766 60.037L71.2169 59.7719L71.0766 60.037ZM72.2563 60.6796L72.1096 60.9413L72.2563 60.6796ZM73.4201 61.3503L73.7196 61.334L73.7109 61.1739L73.573 61.0922L73.4201 61.3503ZM74.462 71.9094L74.7576 71.8581L74.7576 71.8581L74.462 71.9094ZM103.863 118.1L103.665 118.325L103.863 118.1ZM116.462 128.308L116.685 128.107L116.662 128.082L116.635 128.062L116.462 128.308ZM116.574 128.432L116.669 128.717L117.102 128.572L116.797 128.232L116.574 128.432ZM116.458 128.471L116.365 128.756L116.459 128.787L116.553 128.755L116.458 128.471ZM114.583 127.854L114.487 128.138L114.489 128.138L114.583 127.854ZM114.583 127.853L114.679 127.569L114.677 127.569L114.583 127.853ZM106.791 125.456L106.867 125.166L106.867 125.166L106.791 125.456ZM98.4582 123.525L98.5217 123.231L98.4582 123.525ZM92.2099 122.118L92.2806 121.827L92.2099 122.118ZM56.113 104.386L56.312 104.161L56.312 104.161L56.113 104.386ZM46.3933 93.6626L46.1546 93.8443L46.1546 93.8443L46.3933 93.6626ZM85.186 20.7805L85.2149 20.4819L85.0491 20.4659L84.9478 20.5982L85.186 20.7805ZM85.2451 20.7841L85.258 20.4844L85.258 20.4844L85.2451 20.7841ZM82.6653 25.1229L82.9339 25.2566L82.9339 25.2566L82.6653 25.1229ZM82.0048 26.4319L81.7385 26.2939L81.7385 26.2939L82.0048 26.4319ZM75.3568 69.1076L75.0594 69.1472L75.0594 69.1472L75.3568 69.1076ZM91.4581 103.934L91.2293 104.128L91.4581 103.934ZM106.415 118.71L106.22 118.939L106.22 118.939L106.415 118.71ZM116.044 126.614L116.226 126.376L116.226 126.376L116.044 126.614ZM116.641 127.11L116.837 126.882L116.641 127.11ZM118.077 128.137L117.959 128.412L118.093 128.47L118.221 128.4L118.077 128.137ZM118.256 128.045L118.446 128.277L118.446 128.277L118.256 128.045ZM118.326 127.948L118.574 128.116L118.593 128.089L118.605 128.058L118.326 127.948ZM119.304 125.573L119.028 125.456L119.304 125.573ZM120.298 123.159L120.578 123.268L120.578 123.268L120.298 123.159ZM124.112 112.046L123.824 111.961L123.824 111.961L124.112 112.046ZM126.104 69.5459L126.396 69.4767L126.396 69.4767L126.104 69.5459ZM122.299 58.4307L122.574 58.311L122.574 58.311L122.299 58.4307ZM91.8001 24.6609L91.6417 24.9157L91.6418 24.9157L91.8001 24.6609ZM90.7935 24.0194L90.9556 23.7669L90.9556 23.7669L90.7935 24.0194ZM85.3617 20.7975L85.4389 20.5076L85.4379 20.5073L85.3617 20.7975ZM85.0275 20.6977L85.0599 20.7224L85.4239 20.2454L85.3915 20.2207L85.0275 20.6977ZM83.099 23.8287C83.8259 22.7202 84.5658 21.5935 85.4293 20.6633L84.9896 20.2551C84.0856 21.2288 83.3186 22.3997 82.5973 23.4996L83.099 23.8287ZM83.0999 23.8273L83.1003 23.8267L82.596 23.5016L82.5957 23.5021L83.0999 23.8273ZM83.0968 23.832L83.0973 23.8313L82.5983 23.4981L82.5979 23.4988L83.0968 23.832ZM82.7099 24.4197C82.839 24.2251 82.9684 24.0279 83.0982 23.8299L82.5965 23.5009C82.4665 23.699 82.338 23.895 82.21 24.0879L82.7099 24.4197ZM73.6775 59.8153C73.7002 47.7053 75.9321 34.6327 82.7099 24.4197L82.21 24.0879C75.3402 34.4396 73.1003 47.6472 73.0775 59.8142L73.6775 59.8153ZM71.1741 59.0387C71.8579 59.3925 72.5465 59.7487 73.2477 60.0852L73.5073 59.5443C72.8155 59.2123 72.1349 58.8602 71.4498 58.5057L71.1741 59.0387ZM71.1772 59.0402L71.1775 59.0404L71.4464 58.504L71.4462 58.5039L71.1772 59.0402ZM71.1767 59.04L71.1772 59.0402L71.4462 58.5039L71.4457 58.5037L71.1767 59.04ZM71.1725 59.0378L71.1726 59.0379L71.4498 58.5058L71.4496 58.5057L71.1725 59.0378ZM68.1596 57.5594C69.1837 58.009 70.1734 58.5209 71.1732 59.0382L71.4489 58.5053C70.4519 57.9895 69.4454 57.4686 68.4008 57.01L68.1596 57.5594ZM50.9889 53.1643C56.8194 53.7096 62.7984 55.2059 68.1596 57.5594L68.4008 57.01C62.9777 54.6293 56.9357 53.1178 51.0447 52.5669L50.9889 53.1643ZM33.0827 54.7289C38.7644 52.9775 45.0612 52.6098 50.9889 53.1643L51.0448 52.5669C45.0586 52.007 38.6799 52.3757 32.906 54.1555L33.0827 54.7289ZM32.5925 54.8697C32.7644 54.8219 32.9323 54.7752 33.0827 54.7289L32.906 54.1555C32.7651 54.1989 32.6057 54.2433 32.4317 54.2917L32.5925 54.8697ZM30.7926 55.5902C30.9767 55.4372 31.2505 55.3028 31.5793 55.1814C31.9046 55.0613 32.2585 54.9626 32.5925 54.8697L32.4317 54.2917C32.102 54.3834 31.7239 54.4884 31.3714 54.6186C31.0223 54.7475 30.6723 54.9101 30.4092 55.1287L30.7926 55.5902ZM31.4928 54.93C31.1577 55.0227 30.8818 55.0943 30.6407 55.0621L30.5611 55.6568C30.9466 55.7083 31.3472 55.5928 31.6527 55.5083L31.4928 54.93ZM31.4952 54.9294L31.4951 54.9294L31.6504 55.509L31.6504 55.5089L31.4952 54.9294ZM31.4952 54.9294L31.4952 54.9294L31.6504 55.5089L31.6505 55.5089L31.4952 54.9294ZM31.4952 54.9294L31.4952 54.9294L31.6505 55.5089L31.6505 55.5089L31.4952 54.9294ZM31.4953 54.9294L31.4952 54.9294L31.6505 55.5089L31.6505 55.5089L31.4953 54.9294ZM31.7658 54.8575C31.6746 54.8797 31.5818 54.9054 31.4929 54.93L31.6529 55.5083C31.7435 55.4832 31.8272 55.4601 31.9078 55.4404L31.7658 54.8575ZM44.0607 91.8508C36.3748 80.8655 31.8282 68.6475 32.1367 55.1558L31.5369 55.1421C31.2249 68.7863 35.8256 81.1272 43.5691 92.1947L44.0607 91.8508ZM49.2873 98.6639C47.3789 96.5237 45.7134 94.2127 44.0607 91.8508L43.5691 92.1948C45.223 94.5584 46.9058 96.8946 48.8395 99.0633L49.2873 98.6639ZM36.8575 100.21C40.8974 99.1555 44.8693 98.8279 49.0394 99.1626L49.0874 98.5646C44.8525 98.2246 40.813 98.5574 36.706 99.6293L36.8575 100.21ZM34.6676 100.833C35.3915 100.606 36.1209 100.398 36.856 100.21L36.7075 99.6289C35.9619 99.8194 35.222 100.03 34.4877 100.261L34.6676 100.833ZM32.5165 101.574C33.2269 101.308 33.9439 101.061 34.6676 100.833L34.4877 100.261C33.7536 100.491 33.0263 100.742 32.3058 101.012L32.5165 101.574ZM30.4086 102.431C31.1035 102.126 31.8061 101.84 32.5165 101.574L32.3058 101.012C31.5852 101.283 30.8725 101.572 30.1677 101.881L30.4086 102.431ZM28.3506 103.401C29.0278 103.059 29.7139 102.735 30.4086 102.431L30.1676 101.881C29.463 102.19 28.7671 102.518 28.0802 102.865L28.3506 103.401ZM26.3481 104.481C27.0057 104.103 27.6732 103.743 28.3506 103.401L28.0801 102.865C27.3931 103.212 26.716 103.577 26.049 103.961L26.3481 104.481ZM24.4073 105.669C25.0434 105.255 25.6904 104.859 26.3481 104.481L26.049 103.961C25.3818 104.345 24.7256 104.746 24.0803 105.166L24.4073 105.669ZM22.5341 106.96C23.1468 106.512 23.7712 106.082 24.4073 105.669L24.0803 105.166C23.4352 105.585 22.8018 106.021 22.1802 106.475L22.5341 106.96ZM20.7336 108.351C21.3211 107.871 21.9212 107.407 22.534 106.96L22.1803 106.475C21.5587 106.929 20.9499 107.399 20.3539 107.886L20.7336 108.351ZM20.2561 108.726C20.4224 108.597 20.5849 108.472 20.7328 108.351L20.3547 107.886C20.213 108.001 20.0561 108.122 19.8886 108.252L20.2561 108.726ZM20.2603 108.723L20.2607 108.723L19.884 108.256L19.8836 108.256L20.2603 108.723ZM20.2439 108.735L20.2439 108.735L19.8999 108.244L19.8999 108.244L20.2439 108.735ZM18.376 110.577C18.5425 110.261 18.8234 109.941 19.1663 109.623C19.5075 109.307 19.8924 109.008 20.2557 108.727L19.8881 108.252C19.5284 108.531 19.1223 108.846 18.7584 109.183C18.3962 109.519 18.0579 109.893 17.8449 110.298L18.376 110.577ZM18.3818 110.7C18.367 110.665 18.3599 110.648 18.3552 110.634C18.3514 110.622 18.3523 110.621 18.3526 110.626C18.3536 110.643 18.3451 110.636 18.376 110.577L17.8449 110.298C17.7844 110.413 17.7461 110.531 17.7536 110.661C17.7604 110.778 17.8058 110.878 17.8285 110.933L18.3818 110.7ZM18.4413 110.855C18.4199 110.791 18.3979 110.739 18.3818 110.7L17.8285 110.933C17.8447 110.971 17.859 111.006 17.8727 111.046L18.4413 110.855ZM30.1925 102.67C29.0222 103.185 26.1711 104.68 23.5139 106.302C22.1845 107.113 20.8961 107.961 19.8869 108.738C19.3826 109.126 18.9428 109.501 18.601 109.848C18.265 110.189 18.0005 110.526 17.8775 110.841L18.4365 111.059C18.5139 110.861 18.7074 110.595 19.0285 110.269C19.3439 109.948 19.7604 109.592 20.253 109.213C21.2376 108.455 22.5055 107.62 23.8265 106.814C26.4701 105.2 29.2965 103.72 30.4341 103.219L30.1925 102.67ZM49.28 98.7729C42.6504 98.7329 36.2803 99.9913 30.1925 102.67L30.4342 103.219C36.4414 100.576 42.7275 99.3334 49.2764 99.3729L49.28 98.7729ZM49.7738 99.1751L49.5012 98.8722L49.0552 99.2736L49.3278 99.5765L49.7738 99.1751ZM53.8676 103.519C52.4392 102.138 51.1111 100.662 49.7738 99.1752L49.3278 99.5765C50.6628 101.06 52.0046 102.552 53.4505 103.95L53.8676 103.519ZM92.0315 123.076C77.3909 119.587 64.7809 114.074 53.8676 103.519L53.4505 103.95C64.4645 114.602 77.1842 120.155 91.8924 123.66L92.0315 123.076ZM96.392 124.098C94.9399 123.761 93.4863 123.423 92.0315 123.076L91.8924 123.66C93.3491 124.007 94.8043 124.345 96.2562 124.683L96.392 124.098ZM96.3947 124.099L96.3926 124.098L96.2555 124.682L96.2575 124.683L96.3947 124.099ZM96.3968 124.099L96.3947 124.099L96.2575 124.683L96.2596 124.683L96.3968 124.099ZM117.344 129.96C110.486 127.373 103.458 125.74 96.3961 124.099L96.2603 124.684C103.329 126.326 110.318 127.95 117.133 130.522L117.344 129.96ZM107.769 137.545C111.124 135.559 114.624 133.184 117.447 130.457L117.03 130.025C114.256 132.705 110.8 135.053 107.463 137.029L107.769 137.545ZM76.4051 146.364C87.7705 146.551 98.0561 143.296 107.769 137.545L107.463 137.029C97.8287 142.733 87.6511 145.949 76.415 145.764L76.4051 146.364ZM28.7279 124.081C41.1061 136.891 58.2902 146.067 76.4052 146.364L76.415 145.764C58.4939 145.47 41.4535 136.387 29.1594 123.664L28.7279 124.081ZM24.7489 119.682C26.0027 121.205 27.3632 122.668 28.7279 124.081L29.1594 123.664C27.7993 122.256 26.4512 120.806 25.2121 119.3L24.7489 119.682ZM22.658 116.981C23.62 118.236 24.4458 119.313 24.7489 119.682L25.2121 119.3C24.9177 118.943 24.1014 117.878 23.1342 116.616L22.658 116.981ZM22.6571 116.98L22.6575 116.98L23.1346 116.616L23.1342 116.616L22.6571 116.98ZM22.6564 116.979L22.6567 116.979L23.1346 116.616L23.1343 116.616L22.6564 116.979ZM22.658 116.981L22.6582 116.981L23.1326 116.614L23.1324 116.614L22.658 116.981ZM18.2754 111.42C18.2682 111.415 18.2773 111.42 18.3098 111.453C18.3381 111.482 18.3751 111.521 18.4209 111.573C18.5124 111.676 18.6318 111.817 18.775 111.991C19.0611 112.339 19.4356 112.811 19.8593 113.352C20.7065 114.435 21.7452 115.79 22.6571 116.98L23.1333 116.615C22.2219 115.426 21.1812 114.068 20.3319 112.982C19.9073 112.44 19.5293 111.964 19.2385 111.61C19.0933 111.433 18.9682 111.285 18.869 111.174C18.8195 111.118 18.7747 111.07 18.7358 111.031C18.7012 110.996 18.6579 110.954 18.6142 110.924L18.2754 111.42ZM19.3669 112.17C19.1431 111.79 18.9228 111.408 18.706 111.024L18.1836 111.319C18.4022 111.706 18.6243 112.091 18.85 112.474L19.3669 112.17ZM20.0495 113.304C19.8186 112.928 19.591 112.55 19.3669 112.17L18.8501 112.475C19.076 112.858 19.3054 113.239 19.5383 113.618L20.0495 113.304ZM20.7526 114.425C20.5148 114.054 20.2804 113.68 20.0495 113.304L19.5383 113.618C19.7711 113.997 20.0074 114.374 20.2473 114.749L20.7526 114.425ZM21.4763 115.534C21.2318 115.166 20.9905 114.797 20.7526 114.425L20.2473 114.749C20.4871 115.123 20.7303 115.496 20.9769 115.866L21.4763 115.534ZM22.22 116.628C21.9687 116.266 21.7208 115.901 21.4763 115.534L20.9769 115.866C21.2234 116.236 21.4734 116.604 21.7268 116.97L22.22 116.628ZM22.9838 117.709C22.7259 117.351 22.4713 116.991 22.22 116.628L21.7269 116.97C21.9802 117.336 22.2369 117.699 22.4969 118.06L22.9838 117.709ZM23.7671 118.777C23.5028 118.423 23.2417 118.068 22.9838 117.709L22.4969 118.06C22.7569 118.421 23.0202 118.78 23.2867 119.136L23.7671 118.777ZM24.5699 119.829C24.2991 119.48 24.0315 119.13 23.767 118.776L23.2867 119.136C23.5533 119.492 23.8232 119.846 24.0962 120.197L24.5699 119.829ZM25.3919 120.866C25.1147 120.523 24.8407 120.177 24.5699 119.829L24.0962 120.197C24.3693 120.548 24.6455 120.897 24.925 121.243L25.3919 120.866ZM26.2327 121.888C25.9492 121.55 25.6689 121.21 25.3918 120.866L24.925 121.243C25.2044 121.589 25.487 121.933 25.7728 122.274L26.2327 121.888ZM27.0921 122.895C26.8026 122.562 26.5161 122.227 26.2327 121.888L25.7728 122.274C26.0586 122.615 26.3474 122.953 26.6392 123.289L27.0921 122.895ZM27.9699 123.886C27.6742 123.558 27.3816 123.228 27.092 122.895L26.6393 123.289C26.9313 123.625 27.2263 123.958 27.5245 124.288L27.9699 123.886ZM28.8655 124.86C28.564 124.538 28.2654 124.214 27.9699 123.886L27.5244 124.288C27.8224 124.618 28.1235 124.946 28.4276 125.271L28.8655 124.86ZM29.7789 125.818C29.4716 125.502 29.1671 125.183 28.8655 124.861L28.4275 125.271C28.7316 125.595 29.0386 125.917 29.3485 126.236L29.7789 125.818ZM30.7098 126.76C30.3967 126.449 30.0864 126.135 29.7789 125.818L29.3485 126.236C29.6585 126.556 29.9713 126.872 30.2869 127.185L30.7098 126.76ZM31.6576 127.684C31.3388 127.378 31.0229 127.07 30.7097 126.76L30.287 127.186C30.6028 127.499 30.9213 127.809 31.2427 128.117L31.6576 127.684ZM32.6224 128.59C32.298 128.291 31.9764 127.989 31.6575 127.683L31.2427 128.117C31.5642 128.425 31.8885 128.729 32.2156 129.031L32.6224 128.59ZM33.6034 129.478C33.2736 129.185 32.9466 128.889 32.6224 128.59L32.2156 129.031C32.5425 129.332 32.8722 129.631 33.2048 129.927L33.6034 129.478ZM34.6007 130.349C34.2655 130.062 33.9331 129.771 33.6035 129.478L33.2048 129.927C33.5372 130.222 33.8724 130.515 34.2103 130.804L34.6007 130.349ZM35.6135 131.201C35.2733 130.92 34.9357 130.636 34.6007 130.349L34.2103 130.804C34.5481 131.094 34.8885 131.38 35.2316 131.663L35.6135 131.201ZM36.642 132.034C36.2966 131.759 35.9538 131.482 35.6136 131.201L35.2316 131.663C35.5747 131.947 35.9203 132.227 36.2685 132.504L36.642 132.034ZM37.6855 132.848C37.3352 132.58 36.9873 132.308 36.642 132.034L36.2685 132.504C36.6168 132.78 36.9674 133.054 37.3206 133.325L37.6855 132.848ZM38.7438 133.643C38.3886 133.381 38.0358 133.116 37.6854 132.848L37.3207 133.325C37.674 133.595 38.0298 133.862 38.3879 134.126L38.7438 133.643ZM39.8164 134.419C39.4566 134.164 39.099 133.905 38.7439 133.643L38.3878 134.126C38.746 134.39 39.1065 134.651 39.4694 134.908L39.8164 134.419ZM40.9032 135.175C40.5386 134.926 40.1763 134.674 39.8164 134.419L39.4694 134.908C39.8323 135.166 40.1975 135.42 40.5651 135.67L40.9032 135.175ZM42.0035 135.91C41.6344 135.668 41.2676 135.423 40.9032 135.175L40.5651 135.67C40.9326 135.921 41.3024 136.168 41.6746 136.412L42.0035 135.91ZM43.1172 136.626C42.7437 136.391 42.3725 136.152 42.0035 135.91L41.6746 136.412C42.0466 136.656 42.421 136.896 42.7976 137.133L43.1172 136.626ZM44.2437 137.321C43.8661 137.092 43.4905 136.861 43.1172 136.626L42.7976 137.133C43.174 137.37 43.5526 137.604 43.9334 137.834L44.2437 137.321ZM45.3827 137.995C45.001 137.773 44.6213 137.549 44.2437 137.321L43.9334 137.834C44.3142 138.064 44.697 138.291 45.0818 138.514L45.3827 137.995ZM46.534 138.648C46.1483 138.434 45.7645 138.216 45.3827 137.995L45.0818 138.514C45.4668 138.737 45.8537 138.956 46.2426 139.172L46.534 138.648ZM47.6971 139.28C47.3075 139.073 46.9197 138.862 46.5339 138.648L46.2427 139.172C46.6317 139.388 47.0226 139.601 47.4155 139.81L47.6971 139.28ZM48.8715 139.89C48.4782 139.69 48.0867 139.487 47.697 139.28L47.4155 139.81C47.8083 140.018 48.203 140.224 48.5996 140.425L48.8715 139.89ZM60.4449 144.583C56.3954 143.44 52.6187 141.818 48.8728 139.891L48.5983 140.425C52.3681 142.364 56.183 144.004 60.282 145.161L60.4449 144.583ZM68.8704 146.446C66.016 146.047 63.2285 145.369 60.4449 144.583L60.282 145.161C63.0782 145.95 65.8949 146.636 68.7872 147.04L68.8704 146.446ZM71.8807 146.775C70.8706 146.68 69.8684 146.586 68.8704 146.446L68.7872 147.04C69.801 147.182 70.8166 147.278 71.8245 147.373L71.8807 146.775ZM74.0561 146.997C73.3299 146.911 72.6032 146.843 71.8807 146.775L71.8245 147.373C72.5482 147.441 73.2679 147.508 73.986 147.593L74.0561 146.997ZM108.164 138.128C97.7462 144.487 86.2413 147.676 74.0378 146.995L74.0044 147.594C86.3394 148.283 97.9639 145.057 108.477 138.64L108.164 138.128ZM112.461 135.327C111.076 136.318 109.624 137.236 108.164 138.128L108.477 138.64C109.941 137.746 111.408 136.819 112.81 135.815L112.461 135.327ZM113.649 134.439C113.253 134.742 112.861 135.041 112.461 135.327L112.81 135.815C113.219 135.523 113.618 135.218 114.013 134.916L113.649 134.439ZM115.356 133.19C114.768 133.585 114.204 134.016 113.649 134.439L114.013 134.916C114.571 134.491 115.12 134.072 115.691 133.688L115.356 133.19ZM116.375 132.36C116.024 132.635 115.666 132.916 115.326 133.214L115.721 133.665C116.047 133.38 116.392 133.109 116.745 132.833L116.375 132.36ZM116.375 132.361L116.374 132.361L116.745 132.832L116.746 132.832L116.375 132.361ZM116.375 132.36L116.375 132.361L116.746 132.832L116.746 132.832L116.375 132.36ZM116.375 132.36L116.375 132.36L116.746 132.832L116.746 132.832L116.375 132.36ZM116.375 132.36L116.375 132.36L116.746 132.832L116.746 132.832L116.375 132.36ZM116.395 132.346L116.395 132.346L116.726 132.846L116.726 132.846L116.395 132.346ZM118.92 129.639C118.391 130.774 117.417 131.543 116.375 132.36L116.746 132.832C117.767 132.032 118.864 131.179 119.464 129.892L118.92 129.639ZM119.699 129.098C119.468 129.228 119.242 129.368 119.023 129.518L119.361 130.014C119.566 129.873 119.777 129.742 119.994 129.62L119.699 129.098ZM120.409 128.737C120.167 128.847 119.931 128.967 119.699 129.098L119.994 129.62C120.21 129.498 120.432 129.386 120.658 129.282L120.409 128.737ZM121.147 128.437C120.897 128.526 120.651 128.626 120.409 128.737L120.658 129.282C120.884 129.179 121.115 129.086 121.349 129.002L121.147 128.437ZM121.908 128.202C121.651 128.269 121.397 128.348 121.147 128.437L121.349 129.002C121.583 128.919 121.82 128.845 122.061 128.782L121.908 128.202ZM126.595 127.603C125.045 127.708 123.413 127.818 121.91 128.201L122.058 128.782C123.499 128.415 125.074 128.308 126.636 128.202L126.595 127.603ZM126.634 127.603L126.633 127.603L126.598 128.202L126.598 128.202L126.634 127.603ZM126.602 127.603L126.601 127.603L126.63 128.202L126.63 128.202L126.602 127.603ZM127.917 127.508C127.485 127.543 127.044 127.573 126.596 127.603L126.636 128.202C127.083 128.172 127.529 128.142 127.967 128.106L127.917 127.508ZM137.73 126.301C134.505 126.961 131.216 127.235 127.917 127.508L127.967 128.106C131.26 127.834 134.585 127.557 137.851 126.888L137.73 126.301ZM156.034 118.27C150.49 122.168 144.372 124.941 137.73 126.301L137.851 126.888C144.581 125.511 150.774 122.702 156.379 118.76L156.034 118.27ZM177.347 88.743C173.556 100.169 165.913 111.323 156.034 118.27L156.379 118.76C166.377 111.73 174.091 100.463 177.917 88.932L177.347 88.743ZM180.927 73.3124C180.011 78.5268 179.011 83.7301 177.347 88.743L177.917 88.932C179.595 83.8737 180.601 78.6323 181.518 73.4162L180.927 73.3124ZM180.774 73.5148C180.885 73.5518 180.992 73.5945 181.109 73.642L181.335 73.0865C181.217 73.0382 181.094 72.9892 180.964 72.9457L180.774 73.5148ZM155.539 75.0252C163.814 70.8802 172.037 70.6092 180.774 73.5149L180.963 72.9456C172.091 69.9948 163.701 70.2654 155.27 74.4887L155.539 75.0252ZM156.565 67.011C156.25 69.6 155.766 72.1569 155.114 74.6819L155.695 74.832C156.354 72.2815 156.843 69.6987 157.161 67.0835L156.565 67.011ZM156.71 65.8432C156.666 66.2318 156.617 66.6199 156.566 67.0077L157.16 67.0869C157.213 66.6956 157.261 66.3039 157.306 65.9117L156.71 65.8432ZM156.834 64.6764C156.796 65.0657 156.755 65.4546 156.71 65.8432L157.306 65.9117C157.351 65.5196 157.393 65.1271 157.431 64.7342L156.834 64.6764ZM156.936 63.5075C156.905 63.8975 156.871 64.2872 156.834 64.6765L157.431 64.7341C157.469 64.3412 157.503 63.948 157.534 63.5545L156.936 63.5075ZM157.017 62.337C156.994 62.7275 156.966 63.1176 156.936 63.5075L157.534 63.5545C157.565 63.1609 157.592 62.7672 157.616 62.3731L157.017 62.337ZM157.077 61.1653C157.061 61.5562 157.041 61.9467 157.017 62.337L157.616 62.3731C157.64 61.9792 157.66 61.5851 157.677 61.1907L157.077 61.1653ZM157.116 59.9927C157.106 60.3838 157.094 60.7747 157.077 61.1654L157.677 61.1906C157.693 60.7962 157.706 60.4017 157.716 60.0071L157.116 59.9927ZM157.133 58.8196C157.131 59.2106 157.125 59.6016 157.116 59.9926L157.716 60.0072C157.725 59.6125 157.731 59.2178 157.733 58.8231L157.133 58.8196ZM157.13 57.6461C157.134 58.0372 157.136 58.4284 157.133 58.8196L157.733 58.8231C157.736 58.4283 157.734 58.0336 157.73 57.639L157.13 57.6461ZM157.105 56.4732C157.117 56.8641 157.125 57.2551 157.13 57.6463L157.73 57.6389C157.725 57.2442 157.717 56.8496 157.705 56.4551L157.105 56.4732ZM157.059 55.3006C157.078 55.6913 157.093 56.0822 157.105 56.4732L157.705 56.455C157.693 56.0604 157.677 55.666 157.658 55.2717L157.059 55.3006ZM156.992 54.1292C157.017 54.5195 157.04 54.91 157.059 55.3006L157.658 55.2717C157.639 54.8774 157.616 54.4833 157.59 54.0894L156.992 54.1292ZM156.903 52.9595C156.936 53.3492 156.966 53.7391 156.992 54.1292L157.59 54.0894C157.564 53.6957 157.534 53.3021 157.501 52.9088L156.903 52.9595ZM156.794 51.7912C156.833 52.1803 156.87 52.5697 156.903 52.9595L157.501 52.9088C157.468 52.5155 157.431 52.1225 157.39 51.7299L156.794 51.7912ZM156.663 50.6252C156.71 51.0135 156.753 51.4022 156.794 51.7913L157.39 51.7298C157.35 51.3371 157.306 50.9448 157.258 50.5529L156.663 50.6252ZM156.511 49.4617C156.565 49.849 156.616 50.2368 156.663 50.6251L157.258 50.553C157.211 50.1611 157.16 49.7697 157.105 49.3787L156.511 49.4617ZM156.338 48.3011C156.399 48.6875 156.457 49.0744 156.511 49.4617L157.105 49.3787C157.051 48.9878 156.993 48.5974 156.931 48.2074L156.338 48.3011ZM156.145 47.1439C156.213 47.5291 156.277 47.9149 156.338 48.3012L156.931 48.2073C156.869 47.8175 156.804 47.4283 156.735 47.0396L156.145 47.1439ZM155.93 45.9904C156.005 46.3743 156.076 46.7588 156.145 47.144L156.735 47.0395C156.667 46.6508 156.594 46.2627 156.519 45.8753L155.93 45.9904ZM155.694 44.841C155.776 45.2235 155.855 45.6066 155.93 45.9903L156.519 45.8753C156.443 45.488 156.364 45.1013 156.281 44.7152L155.694 44.841ZM155.438 43.6961C155.527 44.077 155.613 44.4586 155.694 44.8409L156.281 44.7154C156.199 44.3294 156.112 43.9442 156.023 43.5597L155.438 43.6961ZM155.161 42.556C155.257 42.935 155.349 43.3151 155.438 43.696L156.023 43.5598C155.933 43.1753 155.84 42.7917 155.743 42.4091L155.161 42.556ZM154.864 41.4209C154.967 41.7983 155.066 42.1767 155.161 42.556L155.743 42.4091C155.647 42.0264 155.547 41.6445 155.443 41.2636L154.864 41.4209ZM154.546 40.2914C154.655 40.667 154.761 41.0435 154.864 41.4209L155.443 41.2635C155.339 40.8826 155.233 40.5027 155.122 40.1236L154.546 40.2914ZM154.208 39.168C154.324 39.5415 154.437 39.9159 154.546 40.2914L155.122 40.1236C155.012 39.7447 154.898 39.3667 154.781 38.9898L154.208 39.168ZM153.849 38.0508C153.972 38.4221 154.092 38.7944 154.208 39.1679L154.781 38.9899C154.664 38.6129 154.543 38.2369 154.419 37.8621L153.849 38.0508ZM153.471 36.9402C153.6 37.3093 153.726 37.6794 153.849 38.0507L154.419 37.8622C154.295 37.4875 154.168 37.1139 154.037 36.7414L153.471 36.9402ZM153.072 35.8368C153.208 36.2034 153.341 36.5711 153.471 36.9401L154.037 36.7415C153.906 36.369 153.772 35.9977 153.634 35.6277L153.072 35.8368ZM152.653 34.7406C152.796 35.1047 152.936 35.4701 153.072 35.8367L153.634 35.6278C153.497 35.2578 153.356 34.889 153.212 34.5214L152.653 34.7406ZM152.215 33.6523C152.364 34.0137 152.511 34.3764 152.653 34.7405L153.212 34.5215C153.068 34.154 152.92 33.7879 152.77 33.4231L152.215 33.6523ZM151.757 32.572C151.913 32.9308 152.066 33.2909 152.215 33.6523L152.77 33.4231C152.619 33.0583 152.465 32.6949 152.307 32.3328L151.757 32.572ZM151.28 31.5001C151.442 31.8559 151.601 32.2132 151.757 32.572L152.307 32.3328C152.15 31.9707 151.989 31.6101 151.826 31.251L151.28 31.5001ZM150.783 30.4372C150.952 30.79 151.117 31.1442 151.28 31.5001L151.826 31.251C151.662 30.8919 151.495 30.5343 151.324 30.1783L150.783 30.4372ZM145.245 21.2887C147.452 24.1264 149.219 27.195 150.784 30.4381L151.324 30.1774C149.747 26.9089 147.959 23.8011 145.719 20.9204L145.245 21.2887ZM145.011 21.6285L145.598 21.3809L145.365 20.8281L144.778 21.0756L145.011 21.6285ZM137.372 25.2423C139.844 23.8062 142.378 22.7381 145.011 21.6285L144.778 21.0756C142.15 22.183 139.581 23.2651 137.07 24.7234L137.372 25.2423ZM117.863 47.3552C121.915 38.2943 128.753 30.2474 137.372 25.2423L137.07 24.7234C128.333 29.7978 121.414 37.9459 117.315 47.1102L117.863 47.3552ZM94.4053 25.6349C103.708 30.9916 111.328 38.5317 117.34 47.4011L117.837 47.0644C111.781 38.1309 104.097 30.5233 94.7048 25.1149L94.4053 25.6349ZM88.893 22.7602C90.7652 23.6782 92.6062 24.5988 94.4053 25.6349L94.7048 25.1149C92.887 24.0681 91.0304 23.14 89.1571 22.2215L88.893 22.7602ZM87.9823 22.3288C88.2941 22.474 88.599 22.6161 88.893 22.7602L89.1571 22.2215C88.8569 22.0743 88.5465 21.9297 88.2356 21.7849L87.9823 22.3288ZM85.1227 20.7698C85.9826 21.3983 87.0171 21.8791 87.9823 22.3288L88.2356 21.7849C87.2589 21.3299 86.2806 20.8729 85.4768 20.2854L85.1227 20.7698ZM85.0592 20.7219C85.078 20.7363 85.1 20.7532 85.1228 20.7699L85.4767 20.2853C85.4605 20.2735 85.4441 20.261 85.4245 20.2459L85.0592 20.7219ZM163.597 73.1676L163.597 73.1675L163.442 72.588L163.442 72.588L163.597 73.1676ZM160.503 74.053C161.442 73.6644 162.561 73.406 163.587 73.1701L163.452 72.5854C162.438 72.8187 161.267 73.0873 160.274 73.4987L160.503 74.053ZM155.211 76.4164C156.95 75.5198 158.659 74.718 160.49 74.0581L160.287 73.4936C158.422 74.1657 156.687 74.9802 154.936 75.8832L155.211 76.4164ZM148.992 91.1277C151.593 86.4702 153.689 81.2866 155.358 76.2441L154.789 76.0555C153.127 81.0746 151.045 86.2208 148.468 90.8352L148.992 91.1277ZM133.385 112.248C139.022 105.559 144.686 98.8407 148.992 91.1277L148.468 90.8352C144.195 98.4896 138.57 105.165 132.926 111.861L133.385 112.248ZM133.38 112.253L133.381 112.253L132.93 111.857L132.93 111.857L133.38 112.253ZM129.021 117.47C130.459 115.719 131.921 113.985 133.384 112.248L132.926 111.861C131.462 113.598 129.998 115.335 128.557 117.09L129.021 117.47ZM124.196 123.612C125.743 121.532 127.375 119.476 129.021 117.47L128.557 117.09C126.907 119.1 125.269 121.164 123.714 123.254L124.196 123.612ZM122.958 125.325C123.368 124.749 123.776 124.176 124.196 123.612L123.714 123.254C123.29 123.823 122.879 124.402 122.469 124.977L122.958 125.325ZM122.957 125.326L122.957 125.326L122.47 124.976L122.469 124.976L122.957 125.326ZM121.237 127.676C121.832 126.905 122.397 126.113 122.957 125.325L122.469 124.977C121.907 125.766 121.349 126.549 120.762 127.309L121.237 127.676ZM126.886 126.43C124.894 126.515 122.81 126.603 120.909 127.206L121.09 127.778C122.902 127.203 124.903 127.115 126.911 127.029L126.886 126.43ZM129.066 126.311C128.356 126.367 127.627 126.398 126.886 126.43L126.911 127.029C127.651 126.998 128.39 126.966 129.113 126.909L129.066 126.311ZM140.756 124.36C136.99 125.46 132.988 126.001 129.066 126.311L129.113 126.909C133.055 126.597 137.102 126.052 140.924 124.936L140.756 124.36ZM172.752 97.1529C165.651 110.519 155.295 119.904 140.752 124.361L140.928 124.935C155.641 120.426 166.116 110.924 173.282 97.4344L172.752 97.1529ZM179.114 79.8495C177.487 85.8221 175.655 91.6886 172.752 97.1529L173.282 97.4344C176.218 91.9087 178.063 85.989 179.692 80.0072L179.114 79.8495ZM179.38 78.8834C179.291 79.2052 179.201 79.5274 179.114 79.8495L179.692 80.0071C179.78 79.6865 179.869 79.3656 179.958 79.0436L179.38 78.8834ZM180.602 73.5694C180.356 75.3579 179.87 77.1149 179.38 78.8834L179.958 79.0436C180.446 77.2818 180.944 75.4862 181.197 73.6513L180.602 73.5694ZM163.625 73.1615C169.495 71.811 174.985 72.7412 180.841 73.9046L180.958 73.3161C175.104 72.1532 169.499 71.1944 163.49 72.5768L163.625 73.1615ZM163.587 73.1701L163.625 73.1615L163.49 72.5768L163.453 72.5854L163.587 73.1701ZM145.435 21.2011C145.318 21.2009 145.216 21.21 145.111 21.2373C145.008 21.2639 144.916 21.3047 144.821 21.3522L145.088 21.8894C145.17 21.8484 145.219 21.8291 145.261 21.818C145.302 21.8074 145.35 21.8009 145.433 21.8011L145.435 21.2011ZM147.068 23.4209C146.885 23.0425 146.683 22.6253 146.452 22.2476C146.222 21.8715 145.949 21.5123 145.614 21.261L145.254 21.7412C145.501 21.9262 145.726 22.2114 145.94 22.5609C146.153 22.909 146.342 23.2989 146.528 23.6824L147.068 23.4209ZM147.458 24.1886C147.333 23.9667 147.206 23.7058 147.068 23.4209L146.528 23.6824C146.664 23.9627 146.799 24.2422 146.936 24.4841L147.458 24.1886ZM148.912 26.8392C148.447 25.9443 147.962 25.06 147.457 24.1863L146.937 24.4864C147.438 25.3524 147.918 26.229 148.38 27.1161L148.912 26.8392ZM150.249 29.5535C149.824 28.639 149.378 27.7343 148.912 26.8392L148.38 27.1161C148.841 28.0034 149.283 28.9003 149.705 29.8068L150.249 29.5535ZM151.466 32.3243C151.08 31.3917 150.675 30.4681 150.249 29.5536L149.705 29.8068C150.127 30.7133 150.529 31.6288 150.911 32.5533L151.466 32.3243ZM152.559 35.1457C152.215 34.1972 151.851 33.2567 151.466 32.3243L150.911 32.5533C151.293 33.4776 151.654 34.4098 151.995 35.3501L152.559 35.1457ZM153.526 38.0125C153.225 37.0497 152.902 36.0942 152.559 35.1457L151.995 35.3501C152.335 36.2902 152.655 37.2375 152.954 38.1918L153.526 38.0125ZM154.367 40.9194C154.108 39.9442 153.828 38.9752 153.526 38.0125L152.954 38.1918C153.253 39.1461 153.53 40.1066 153.787 41.0733L154.367 40.9194ZM155.079 43.8601C154.863 42.8747 154.626 41.8944 154.367 40.9194L153.787 41.0733C154.044 42.0399 154.279 43.0116 154.493 43.9884L155.079 43.8601ZM155.66 46.8295C155.488 45.8355 155.294 44.8457 155.079 43.8601L154.493 43.9883C154.706 44.9653 154.899 45.9465 155.069 46.9319L155.66 46.8295ZM140.593 101.414C152.88 85.1895 159.014 67.236 155.661 46.8321L155.069 46.9294C158.389 67.1369 152.326 84.928 140.115 101.052L140.593 101.414ZM132.964 110.726C135.561 107.678 138.16 104.627 140.593 101.414L140.115 101.052C137.694 104.249 135.106 107.287 132.507 110.337L132.964 110.726ZM132.964 110.727L132.964 110.727L132.508 110.337L132.507 110.337L132.964 110.727ZM129.433 114.905C130.6 113.502 131.782 112.115 132.964 110.727L132.507 110.338C131.325 111.725 130.141 113.115 128.972 114.521L129.433 114.905ZM121.169 125.632C123.78 121.946 126.534 118.37 129.432 114.906L128.972 114.521C126.063 117.998 123.299 121.586 120.68 125.286L121.169 125.632ZM120.966 125.878L121.155 125.651L120.694 125.267L120.505 125.495L120.966 125.878ZM120.623 125.996L120.758 125.986L120.712 125.387L120.578 125.398L120.623 125.996ZM121.105 123.542C120.788 124.209 120.436 124.947 120.306 125.641L120.895 125.752C121.008 125.15 121.321 124.486 121.647 123.799L121.105 123.542ZM121.56 122.528C121.434 122.846 121.274 123.185 121.105 123.542L121.647 123.799C121.814 123.446 121.984 123.088 122.118 122.747L121.56 122.528ZM123.484 117.321C122.859 119.066 122.235 120.809 121.56 122.528L122.118 122.747C122.797 121.019 123.425 119.266 124.049 117.523L123.484 117.321ZM123.486 117.316L123.485 117.316L124.047 117.527L124.047 117.526L123.486 117.316ZM123.484 117.319L123.484 117.321L124.049 117.521L124.05 117.519L123.484 117.319ZM123.786 116.476C123.686 116.757 123.585 117.038 123.485 117.318L124.05 117.52C124.15 117.24 124.25 116.959 124.351 116.679L123.786 116.476ZM126.921 104.83C126.036 108.764 125.142 112.698 123.786 116.476L124.351 116.679C125.721 112.86 126.622 108.89 127.507 104.962L126.921 104.83ZM127.709 100.674C127.481 102.067 127.218 103.453 126.921 104.833L127.507 104.959C127.807 103.57 128.072 102.173 128.302 100.771L127.709 100.674ZM128.291 96.4806C128.132 97.8831 127.938 99.2808 127.709 100.674L128.302 100.771C128.532 99.3681 128.727 97.9605 128.887 96.5482L128.291 96.4806ZM128.663 92.264C128.574 93.6726 128.45 95.0781 128.291 96.4806L128.887 96.5482C129.047 95.1358 129.172 93.7204 129.262 92.3018L128.663 92.264ZM128.825 88.034C128.806 89.4454 128.752 90.8554 128.663 92.264L129.262 92.3019C129.351 90.8833 129.406 89.4634 129.425 88.0421L128.825 88.034ZM118.104 48.5856C126.015 61.071 129.085 73.311 128.825 88.0327L129.425 88.0433C129.686 73.2153 126.591 60.8578 118.611 48.2645L118.104 48.5856ZM123.903 38.061C121.486 41.3039 119.587 44.5444 118.079 48.3136L118.636 48.5365C120.122 44.8223 121.993 41.627 124.384 38.4196L123.903 38.061ZM144.818 21.3535C136.456 25.6144 129.584 30.4413 123.903 38.061L124.384 38.4196C129.991 30.8987 136.777 26.1239 145.09 21.8881L144.818 21.3535ZM33.2056 54.4914C32.7653 54.5855 32.3262 54.6849 31.8884 54.7896L32.0279 55.3732C32.461 55.2696 32.8954 55.1713 33.331 55.0782L33.2056 54.4914ZM34.5293 54.2248C34.0869 54.3083 33.6457 54.3972 33.2055 54.4914L33.3311 55.0781C33.7665 54.9849 34.203 54.897 34.6407 54.8144L34.5293 54.2248ZM35.8595 53.9902C35.4151 54.063 34.9717 54.1412 34.5293 54.2248L34.6407 54.8144C35.0783 54.7317 35.517 54.6543 35.9565 54.5823L35.8595 53.9902ZM37.1944 53.7876C36.7487 53.8499 36.3037 53.9174 35.8595 53.9902L35.9565 54.5823C36.396 54.5103 36.8363 54.4434 37.2774 54.3818L37.1944 53.7876ZM38.5343 53.6173C38.0871 53.6687 37.6405 53.7254 37.1945 53.7876L37.2773 54.3819C37.7186 54.3203 38.1604 54.2642 38.6028 54.2133L38.5343 53.6173ZM39.8778 53.4793C39.4294 53.5199 38.9815 53.5659 38.5343 53.6173L38.6028 54.2133C39.0453 54.1625 39.4883 54.117 39.9319 54.0768L39.8778 53.4793ZM41.2241 53.3733C40.7749 53.4032 40.3261 53.4385 39.8777 53.4793L39.932 54.0768C40.3756 54.0365 40.8195 54.0016 41.2639 53.972L41.2241 53.3733ZM42.5725 53.2999C42.1227 53.319 41.6733 53.3435 41.2241 53.3733L41.2639 53.972C41.7083 53.9425 42.153 53.9183 42.5979 53.8994L42.5725 53.2999ZM43.9224 53.2592C43.4724 53.2674 43.0224 53.281 42.5726 53.2999L42.5979 53.8994C43.0429 53.8807 43.4881 53.8672 43.9334 53.8591L43.9224 53.2592ZM45.273 53.2507C44.8227 53.248 44.3725 53.2508 43.9223 53.2592L43.9335 53.8591C44.3787 53.8508 44.824 53.848 45.2695 53.8507L45.273 53.2507ZM46.6233 53.2746C46.1732 53.2613 45.7231 53.2533 45.273 53.2507L45.2695 53.8507C45.7148 53.8532 46.1601 53.8611 46.6055 53.8744L46.6233 53.2746ZM47.9725 53.3311C47.523 53.3069 47.0733 53.2881 46.6233 53.2746L46.6054 53.8744C47.0506 53.8877 47.4956 53.9063 47.9403 53.9302L47.9725 53.3311ZM49.32 53.4201C48.8713 53.3851 48.4221 53.3554 47.9726 53.3311L47.9402 53.9302C48.385 53.9543 48.8293 53.9836 49.2733 54.0183L49.32 53.4201ZM50.6651 53.5413C50.2173 53.4955 49.7689 53.4551 49.32 53.4201L49.2734 54.0183C49.7175 54.0529 50.1611 54.0929 50.6041 54.1382L50.6651 53.5413ZM52.007 53.695C51.5603 53.6384 51.1131 53.5872 50.6652 53.5413L50.604 54.1381C51.0472 54.1836 51.4896 54.2343 51.9315 54.2903L52.007 53.695ZM53.3445 53.8807C52.8994 53.8135 52.4536 53.7516 52.007 53.695L51.9315 54.2903C52.3734 54.3463 52.8145 54.4075 53.2549 54.474L53.3445 53.8807ZM54.6773 54.0987C54.2339 54.0207 53.7896 53.9481 53.3445 53.8807L53.2548 54.474C53.6951 54.5406 54.1347 54.6125 54.5733 54.6897L54.6773 54.0987ZM56.0044 54.3486C55.563 54.26 55.1207 54.1767 54.6773 54.0987L54.5733 54.6897C55.012 54.7668 55.4497 54.8492 55.8863 54.9369L56.0044 54.3486ZM57.3253 54.6305C56.8861 54.5313 56.4459 54.4373 56.0045 54.3486L55.8862 54.9368C56.323 55.0246 56.7586 55.1176 57.1931 55.2157L57.3253 54.6305ZM58.6389 54.9439C58.2023 54.8342 57.7644 54.7297 57.3253 54.6305L57.1931 55.2157C57.6274 55.3139 58.0606 55.4173 58.4927 55.5258L58.6389 54.9439ZM59.9446 55.2888C59.5107 55.1685 59.0754 55.0536 58.6389 54.9439L58.4927 55.5259C58.9246 55.6343 59.3551 55.748 59.7843 55.867L59.9446 55.2888ZM61.2417 55.6651C60.8108 55.5344 60.3784 55.409 59.9446 55.2888L59.7843 55.867C60.2136 55.9859 60.6413 56.11 61.0676 56.2392L61.2417 55.6651ZM62.5292 56.0725C62.1016 55.9315 61.6725 55.7957 61.2417 55.6651L61.0676 56.2392C61.4937 56.3685 61.9183 56.5029 62.3413 56.6423L62.5292 56.0725ZM63.8067 56.5106C63.3827 56.3594 62.9569 56.2134 62.5291 56.0724L62.3414 56.6423C62.7645 56.7817 63.1857 56.9262 63.6051 57.0758L63.8067 56.5106ZM65.0732 56.9792C64.6529 56.818 64.2307 56.6618 63.8066 56.5106L63.6052 57.0758C64.0247 57.2253 64.4424 57.3799 64.8584 57.5394L65.0732 56.9792ZM66.3282 57.4785C65.9119 57.307 65.4936 57.1406 65.0733 56.9792L64.8583 57.5394C65.274 57.699 65.6878 57.8636 66.0996 58.0332L66.3282 57.4785ZM67.5705 58.0074C67.1585 57.8261 66.7443 57.6498 66.3281 57.4784L66.0997 58.0333C66.5115 58.2028 66.9212 58.3772 67.3289 58.5566L67.5705 58.0074ZM68.8001 58.5663C68.3925 58.3751 67.9827 58.1888 67.5706 58.0074L67.3289 58.5566C67.7366 58.7361 68.142 58.9204 68.5453 59.1095L68.8001 58.5663ZM70.0157 59.1545C69.6129 58.9535 69.2076 58.7575 68.8001 58.5663L68.5453 59.1095C68.9485 59.2986 69.3494 59.4926 69.748 59.6914L70.0157 59.1545ZM71.2169 59.7719C70.819 59.5612 70.4186 59.3554 70.0157 59.1545L69.748 59.6914C70.1465 59.8902 70.5426 60.0937 70.9362 60.3021L71.2169 59.7719ZM72.4029 60.4179C72.0101 60.1978 71.6148 59.9825 71.2169 59.7719L70.9362 60.3021C71.3299 60.5105 71.721 60.7236 72.1096 60.9413L72.4029 60.4179ZM73.573 61.0922C73.1857 60.8627 72.7957 60.638 72.4029 60.4179L72.1096 60.9413C72.4982 61.159 72.8841 61.3814 73.2672 61.6084L73.573 61.0922ZM74.7576 71.8581C74.1561 68.3955 73.9117 64.858 73.7196 61.334L73.1205 61.3666C73.3127 64.8929 73.5585 68.4607 74.1664 71.9607L74.7576 71.8581ZM104.06 117.874C89.3813 105.055 78.1635 91.4675 74.7576 71.8581L74.1664 71.9607C77.6067 91.7679 88.9436 105.469 103.665 118.325L104.06 117.874ZM116.635 128.062C112.245 124.976 108.114 121.414 104.06 117.874L103.665 118.325C107.718 121.864 111.87 125.446 116.289 128.553L116.635 128.062ZM116.797 128.232L116.685 128.107L116.239 128.508L116.35 128.633L116.797 128.232ZM116.553 128.755L116.669 128.717L116.478 128.148L116.363 128.186L116.553 128.755ZM114.489 128.138C115.113 128.345 115.738 128.551 116.365 128.756L116.551 128.186C115.926 127.981 115.302 127.775 114.678 127.569L114.489 128.138ZM114.487 128.138L114.487 128.138L114.679 127.569L114.679 127.569L114.487 128.138ZM106.715 125.746C109.341 126.436 111.906 127.284 114.489 128.138L114.677 127.569C112.098 126.716 109.515 125.862 106.867 125.166L106.715 125.746ZM98.3947 123.818C101.185 124.422 103.968 125.025 106.715 125.746L106.867 125.166C104.105 124.441 101.31 123.835 98.5217 123.231L98.3947 123.818ZM92.1393 122.41C94.216 122.913 96.3073 123.366 98.3947 123.818L98.5217 123.231C96.4331 122.779 94.349 122.328 92.2806 121.827L92.1393 122.41ZM55.914 104.61C66.7447 114.215 78.236 119.041 92.1393 122.41L92.2806 121.827C78.439 118.473 67.0473 113.681 56.312 104.161L55.914 104.61ZM46.1546 93.8443C49.0776 97.6847 52.287 101.394 55.914 104.61L56.312 104.161C52.7238 100.979 49.5406 97.3024 46.632 93.4809L46.1546 93.8443ZM31.6587 55.0995C32.5637 70.0268 37.1066 81.9561 46.1546 93.8443L46.632 93.4809C37.6541 81.6847 33.1552 69.8687 32.2576 55.0632L31.6587 55.0995ZM85.1571 21.0791C85.186 21.0819 85.2138 21.0831 85.2322 21.0839L85.258 20.4844C85.2369 20.4835 85.2252 20.4829 85.2149 20.4819L85.1571 21.0791ZM82.9339 25.2566C83.6842 23.7493 84.4183 22.2766 85.4242 20.9629L84.9478 20.5982C83.9011 21.9652 83.1428 23.4905 82.3967 24.9893L82.9339 25.2566ZM82.2712 26.57C82.4974 26.1333 82.7164 25.6935 82.9339 25.2566L82.3967 24.9893C82.1789 25.4269 81.9621 25.8623 81.7385 26.2939L82.2712 26.57ZM75.6541 69.068C73.7361 54.6632 75.5511 39.5391 82.2712 26.57L81.7385 26.2939C74.9516 39.392 73.1283 54.6444 75.0594 69.1472L75.6541 69.068ZM91.6869 103.74C82.786 93.2463 77.4866 82.8286 75.6541 69.068L75.0594 69.1472C76.9096 83.0408 82.2675 93.5626 91.2293 104.128L91.6869 103.74ZM106.609 118.482C101.248 113.914 96.2423 109.111 91.6869 103.74L91.2293 104.128C95.8109 109.53 100.841 114.356 106.22 118.939L106.609 118.482ZM116.226 126.376C112.94 123.868 109.764 121.169 106.609 118.482L106.22 118.939C109.373 121.625 112.561 124.334 115.862 126.853L116.226 126.376ZM116.837 126.882C116.632 126.707 116.425 126.528 116.226 126.376L115.862 126.853C116.045 126.993 116.238 127.159 116.445 127.337L116.837 126.882ZM118.196 127.861C117.762 127.675 117.309 127.288 116.837 126.882L116.445 127.337C116.896 127.725 117.423 128.182 117.959 128.412L118.196 127.861ZM118.067 127.812C118.085 127.798 118.1 127.79 118.102 127.789C118.102 127.789 118.101 127.789 118.097 127.791C118.093 127.793 118.089 127.795 118.081 127.799C118.05 127.813 118.004 127.835 117.933 127.873L118.221 128.4C118.276 128.37 118.309 128.354 118.331 128.344C118.339 128.34 118.358 128.332 118.372 128.325C118.39 128.316 118.417 128.301 118.446 128.277L118.067 127.812ZM118.077 127.78C118.066 127.798 118.056 127.812 118.049 127.823C118.041 127.835 118.037 127.841 118.033 127.846C118.03 127.851 118.032 127.848 118.037 127.842C118.043 127.835 118.053 127.824 118.067 127.812L118.446 128.277C118.49 128.241 118.517 128.202 118.53 128.184C118.536 128.174 118.544 128.162 118.55 128.152C118.557 128.142 118.565 128.13 118.574 128.116L118.077 127.78ZM119.028 125.456C118.696 126.245 118.362 127.037 118.046 127.839L118.605 128.058C118.917 127.265 119.248 126.479 119.581 125.689L119.028 125.456ZM120.019 123.049C119.703 123.855 119.366 124.654 119.028 125.456L119.581 125.689C119.919 124.888 120.258 124.083 120.578 123.268L120.019 123.049ZM123.824 111.961C122.735 115.684 121.435 119.437 120.019 123.049L120.578 123.268C122 119.641 123.306 115.871 124.4 112.13L123.824 111.961ZM125.812 69.6152C129.061 83.3125 127.755 98.5229 123.824 111.961L124.4 112.13C128.352 98.6178 129.675 83.2991 126.396 69.4767L125.812 69.6152ZM122.024 58.5505C123.566 62.0925 124.921 65.8618 125.812 69.6152L126.396 69.4767C125.495 65.6799 124.126 61.8762 122.574 58.311L122.024 58.5505ZM91.6418 24.9157C104.88 33.1445 115.754 44.1454 122.024 58.5505L122.574 58.311C116.245 43.77 105.275 32.6836 91.9585 24.4061L91.6418 24.9157ZM90.6315 24.2719C91.0676 24.5516 91.4248 24.7809 91.6417 24.9157L91.9585 24.4062C91.7462 24.2742 91.3936 24.0479 90.9556 23.7669L90.6315 24.2719ZM85.2845 21.0874C85.4182 21.123 85.7052 21.2589 86.1191 21.4869C86.5207 21.708 87.0116 21.9985 87.5374 22.3195C88.5887 22.9611 89.7683 23.718 90.6315 24.2719L90.9556 23.7669C90.0934 23.2137 88.908 22.4531 87.8501 21.8073C87.3213 21.4846 86.8216 21.1888 86.4085 20.9613C86.0078 20.7406 85.656 20.5654 85.4389 20.5076L85.2845 21.0874ZM85.2322 21.0839C85.2532 21.0848 85.2649 21.0853 85.2752 21.0863C85.2845 21.0872 85.2869 21.088 85.2855 21.0876L85.4379 20.5073C85.3636 20.4878 85.2916 20.4859 85.258 20.4844L85.2322 21.0839Z" fill="white" mask="url(#path-4-outside-1_172_26593)"/>
</g>
<path id="Vector_4" d="M81.962 44.2543L81.962 44.2544C80.7468 55.7918 81.6515 66.5183 85.5262 77.2775C84.5776 75.4059 83.7275 73.4909 83.0177 71.5272C80.2976 64.0018 79.5578 53.9802 80.884 46.0833C81.2662 43.8075 81.8661 41.4895 82.6444 39.2561C82.3753 40.9148 82.1395 42.569 81.962 44.2543Z" fill="white" stroke="white"/>
<path id="Vector 1" d="M123.079 131.429C122.763 130.976 122.14 130.864 121.687 131.179C121.233 131.494 121.121 132.117 121.436 132.571L123.079 131.429ZM121.436 132.571C126.126 139.317 131.825 150.552 133.682 162.281C135.537 173.988 133.554 186.034 123.117 194.732L124.398 196.268C135.561 186.966 137.579 174.095 135.658 161.969C133.741 149.864 127.889 138.349 123.079 131.429L121.436 132.571Z" fill="white"/>
</g>
</svg>
