<svg width="30" height="30" viewBox="0 0 30 30" fill="none" xmlns="http://www.w3.org/2000/svg">
<g id="Frame" clip-path="url(#clip0_2014_285)">
<g id="Group">
<path id="Vector" d="M15 0C6.71701 0 0 6.71701 0 15C0 23.283 6.71701 30 15 30C23.283 30 30 23.283 30 15C30 6.71701 23.283 0 15 0ZM15.3179 23.7334C15.3177 23.7334 15.3182 23.7334 15.3179 23.7334H15.3142C13.8117 23.7328 12.3352 23.3561 11.0239 22.641L6.26473 23.8891L7.53844 19.2382C6.7527 17.8772 6.33932 16.3332 6.34002 14.7514C6.34207 9.80303 10.3695 5.77723 15.3179 5.77723C17.7193 5.77811 19.9736 6.71285 21.6685 8.40914C23.3636 10.1056 24.2965 12.3605 24.2956 14.7585C24.2935 19.7072 20.2656 23.7335 15.3179 23.7335L15.3179 23.7334Z" fill="black"/>
<path id="Vector_2" d="M15.3209 7.29297C11.2049 7.29297 7.85754 10.639 7.85567 14.752C7.85526 16.1614 8.24983 17.534 8.99666 18.7217L9.17403 19.0039L8.4201 21.7567L11.2443 21.016L11.5169 21.1776C12.6624 21.8574 13.9758 22.217 15.3147 22.2174H15.3176C19.4305 22.2174 22.7779 18.8712 22.7797 14.7579C22.7804 12.7646 22.0049 10.8905 20.5962 9.48062C19.1874 8.07068 17.3138 7.29361 15.3209 7.29297ZM19.7099 17.9591C19.5229 18.4827 18.6268 18.9609 18.1959 19.0255C17.8093 19.0831 17.3204 19.1072 16.783 18.9366C16.4571 18.8332 16.0393 18.6952 15.504 18.4642C13.2538 17.4929 11.7842 15.2279 11.6721 15.0781C11.5599 14.9284 10.7561 13.8621 10.7561 12.7582C10.7561 11.6545 11.3355 11.1119 11.5412 10.8875C11.7469 10.663 11.99 10.6069 12.1394 10.6069C12.2889 10.6069 12.4386 10.6083 12.5693 10.6147C12.7071 10.6216 12.892 10.5623 13.074 10.9997C13.2609 11.4488 13.7096 12.5524 13.7657 12.6646C13.8217 12.7769 13.859 12.9079 13.7844 13.0576C13.7096 13.2072 13.461 13.5302 13.2237 13.8246C13.1241 13.9479 12.9943 14.0578 13.1252 14.2823C13.2559 14.5066 13.7064 15.2411 14.3731 15.8358C15.23 16.5998 15.9528 16.8364 16.1772 16.9488C16.4012 17.061 16.5321 17.0421 16.6631 16.8927C16.7937 16.743 17.2238 16.2379 17.3732 16.0134C17.5228 15.7888 17.6724 15.8263 17.878 15.9012C18.0837 15.9758 19.1865 16.5185 19.4108 16.6306C19.6351 16.743 19.7846 16.7991 19.8406 16.8927C19.8969 16.9863 19.8969 17.4352 19.7099 17.9591Z" fill="black"/>
</g>
</g>
<defs>
<clipPath id="clip0_2014_285">
<rect width="30" height="30" fill="white"/>
</clipPath>
</defs>
</svg>
