<svg width="27" height="28" viewBox="0 0 27 28" fill="none" xmlns="http://www.w3.org/2000/svg">
<g id="Group">
<path id="Vector" d="M25.8037 15.8853L15.7577 11.1142C15.683 11.0805 15.6011 11.0655 15.5192 11.0706C15.4374 11.0757 15.358 11.1006 15.2879 11.1433C15.2191 11.1875 15.1625 11.2485 15.1236 11.3205C15.0846 11.3925 15.0645 11.4731 15.0651 11.555V14.3934L10.4732 11.1578C10.4009 11.1075 10.3163 11.0778 10.2284 11.0718C10.1406 11.0658 10.0527 11.0838 9.9743 11.1239C9.89581 11.1641 9.8299 11.2252 9.78377 11.3003C9.73764 11.3755 9.71306 11.4619 9.71274 11.5501L9.68368 14.3789L5.85711 11.3855C5.78446 11.3305 5.69795 11.2969 5.60727 11.2883C5.51659 11.2798 5.42532 11.2966 5.34368 11.337C5.26251 11.377 5.19438 11.4391 5.14721 11.5163C5.10004 11.5935 5.07578 11.6825 5.07727 11.773L5.10149 14.3498L1.14415 11.3806C1.07142 11.3276 0.985578 11.2956 0.895929 11.2879C0.806279 11.2802 0.716235 11.2972 0.635552 11.337C0.555246 11.3767 0.487701 11.4382 0.440603 11.5144C0.393506 11.5906 0.368747 11.6785 0.369145 11.7681V25.6019C0.369402 25.9872 0.522581 26.3566 0.795039 26.6291C1.0675 26.9015 1.43696 27.0547 1.82227 27.055H16.5376C16.5269 26.6069 16.5453 20.9301 16.5376 20.3076C16.5049 19.8865 16.6389 19.4694 16.9106 19.146C17.1824 18.8226 17.5702 18.6188 17.9907 18.5784H21.2263C21.6468 18.6188 22.0346 18.8226 22.3064 19.146C22.5781 19.4694 22.7121 19.8865 22.6795 20.3076V27.055H25.1788C25.5641 27.0547 25.9336 26.9015 26.2061 26.6291C26.4785 26.3566 26.6317 25.9872 26.632 25.6019V17.198C26.6315 16.9234 26.5535 16.6545 26.407 16.4222C26.2605 16.19 26.0513 16.0039 25.8037 15.8853ZM10.2262 19.954C10.2269 19.6974 10.3293 19.4514 10.5108 19.2699C10.6923 19.0884 10.9382 18.9861 11.1949 18.9853H13.8348C14.0917 18.9853 14.3381 19.0874 14.5198 19.269C14.7015 19.4507 14.8035 19.6971 14.8035 19.954V22.5987C14.8035 22.8557 14.7015 23.1021 14.5198 23.2837C14.3381 23.4654 14.0917 23.5675 13.8348 23.5675H11.1949C10.9382 23.5667 10.6923 23.4644 10.5108 23.2829C10.3293 23.1014 10.2269 22.8554 10.2262 22.5987V19.954ZM3.07196 19.954C3.07196 19.6971 3.17402 19.4507 3.3557 19.269C3.53737 19.0874 3.78378 18.9853 4.04071 18.9853H6.68055C6.93724 18.9861 7.1832 19.0884 7.36471 19.2699C7.54622 19.4514 7.64854 19.6974 7.6493 19.954V22.5987C7.64854 22.8554 7.54622 23.1014 7.36471 23.2829C7.1832 23.4644 6.93724 23.5667 6.68055 23.5675H4.04071C3.78378 23.5675 3.53737 23.4654 3.3557 23.2837C3.17402 23.1021 3.07196 22.8557 3.07196 22.5987V19.954Z" fill="#003399"/>
<path id="Vector_2" d="M21.2256 19.5472H17.99C17.7623 19.5472 17.5056 19.8572 17.5056 20.3077V27.055H21.71V20.3077C21.71 19.8572 21.4533 19.5472 21.2256 19.5472ZM25.4591 14.6502L24.1028 2.23078C24.0636 1.87534 23.8946 1.54686 23.6283 1.30824C23.362 1.06961 23.017 0.937607 22.6594 0.9375H20.6056C20.253 0.9385 19.9126 1.06704 19.6473 1.29941C19.382 1.53177 19.2097 1.85226 19.1622 2.20172L18.0094 11.1142C18.4555 11.3186 25.4591 14.6502 25.4591 14.6502ZM6.67984 22.5988V19.9541H4.03516L4.04 22.5988H6.67984ZM11.1942 19.9541H13.8341V22.5988H11.1942V19.9541Z" fill="#003399"/>
</g>
</svg>
