<svg width="30" height="28" viewBox="0 0 30 28" fill="none" xmlns="http://www.w3.org/2000/svg">
<g id="Group">
<path id="Vector" d="M11.6249 11.3579C11.6249 9.09179 9.78311 7.25 7.51704 7.25C5.25097 7.25 3.40918 9.09179 3.40918 11.3579C3.40918 13.6239 5.25097 15.4657 7.51704 15.4657C9.78311 15.4657 11.6249 13.6239 11.6249 11.3579Z" fill="#003399"/>
<path id="Vector_2" d="M23.6396 7.43325H13.5339C12.7336 7.43325 12.0875 8.07932 12.0875 8.87968V16.0925H2.94608V2.42861C2.94608 1.62825 2.30001 0.982178 1.49965 0.982178C0.699294 0.982178 0.0532227 1.62825 0.0532227 2.42861V25.5715C0.0532227 26.3718 0.699294 27.0179 1.49965 27.0179C2.30001 27.0179 2.94608 26.3718 2.94608 25.5715V23.479H27.0532V25.5715C27.0532 26.3718 27.6993 27.0179 28.4996 27.0179C29.3 27.0179 29.9461 26.3718 29.9461 25.5715L29.9075 13.7011C29.9075 12.878 29.7454 12.063 29.4304 11.3025C29.1154 10.542 28.6537 9.85109 28.0717 9.26906C27.4897 8.68704 26.7987 8.22535 26.0383 7.91036C25.2778 7.59537 24.4628 7.43325 23.6396 7.43325Z" fill="#003399"/>
</g>
</svg>
