<svg width="132" height="165" viewBox="0 0 132 165" fill="none" xmlns="http://www.w3.org/2000/svg">
<g id="illustration / question" opacity="0.4">
<path id="Subtract" fill-rule="evenodd" clip-rule="evenodd" d="M90.395 142.921C92.3465 144.037 94.3676 144.597 96.5891 144.844C96.955 144.866 97.3212 144.884 97.6875 144.898L97.8054 144.889C101.213 144.634 104.641 143.496 107.155 141.094C107.499 140.766 107.807 140.382 108.113 140.002L108.113 140.002C108.267 139.81 108.421 139.618 108.578 139.436C109.198 139.226 109.802 138.937 110.399 138.652C110.578 138.566 110.756 138.481 110.934 138.398L114.663 136.659L114.733 136.595C115.007 135.791 115.042 134.753 115.07 133.903L115.071 133.865C115.177 130.7 113.849 127.272 111.673 124.969C111.194 124.463 110.46 123.825 109.625 123.215C110.46 123.825 111.194 124.463 111.672 124.969C113.848 127.272 115.177 130.7 115.071 133.865L115.07 133.903C115.041 134.753 115.007 135.791 114.733 136.595L114.662 136.658L110.934 138.398C110.756 138.481 110.578 138.566 110.399 138.652C109.802 138.937 109.198 139.226 108.578 139.435C110.486 136.538 111.516 133.699 111.015 130.191C110.453 126.258 108.229 123.465 105.15 121.138C101.609 119.032 97.8813 118.324 93.8422 119.365C90.5543 120.212 87.5276 122.517 85.8186 125.453C84.1212 128.37 83.5752 132.108 84.4589 135.374C85.3212 138.561 87.543 141.29 90.395 142.921ZM95.583 143.606C93.8646 143.419 92.0159 142.741 90.5652 141.805C87.862 140.063 85.9741 137.425 85.3125 134.271C84.6914 131.311 85.386 128.056 87.0487 125.54C88.8322 122.842 91.8517 120.833 95.0227 120.205C98.1663 119.583 101.639 120.065 104.322 121.874C104.323 121.874 104.323 121.874 104.323 121.874C106.742 123.117 108.755 126.077 109.559 128.617C110.463 131.474 110.088 134.53 108.701 137.168C107.16 140.099 104.626 142.235 101.456 143.208C100.052 143.639 96.9721 144.079 95.5831 143.605C95.5527 143.371 95.3199 143.213 95.1111 143.07C95.051 143.029 94.9929 142.99 94.9422 142.95C93.0998 141.509 91.8256 139.912 90.9934 137.716C90.931 137.555 90.8727 137.392 90.8184 137.228C90.764 137.063 90.7138 136.898 90.6677 136.731C90.6216 136.564 90.5797 136.396 90.542 136.227C90.5043 136.059 90.4708 135.889 90.4415 135.718C90.4122 135.548 90.3872 135.377 90.3664 135.205C90.3455 135.033 90.329 134.861 90.3168 134.688C90.3045 134.516 90.2966 134.343 90.293 134.17C90.2894 133.997 90.29 133.824 90.2949 133.651C90.2999 133.478 90.3091 133.305 90.3226 133.133C90.3362 132.96 90.354 132.788 90.3761 132.617C90.3982 132.445 90.4245 132.274 90.4551 132.104C90.4551 132.104 90.455 132.104 90.455 132.105C90.4244 132.275 90.398 132.446 90.376 132.618C90.3538 132.789 90.336 132.961 90.3225 133.134C90.309 133.306 90.2997 133.479 90.2947 133.652C90.2899 133.825 90.2892 133.998 90.2928 134.171C90.2965 134.344 90.3044 134.517 90.3166 134.689C90.3288 134.862 90.3454 135.034 90.3662 135.206C90.387 135.378 90.412 135.549 90.4413 135.719C90.4707 135.89 90.5042 136.059 90.5419 136.228C90.5796 136.397 90.6215 136.565 90.6676 136.732C90.7137 136.899 90.7639 137.064 90.8182 137.228C90.8725 137.393 90.9309 137.556 90.9932 137.717C91.8254 139.912 93.0997 141.509 94.942 142.951C94.9927 142.991 95.0508 143.03 95.1109 143.071C95.3197 143.214 95.5526 143.372 95.583 143.606Z" fill="#003399"/>
<path id="Subtract_2" fill-rule="evenodd" clip-rule="evenodd" d="M24.8409 87.5872C25.3379 87.3756 25.7745 87.1897 26.032 87.1069C26.6302 86.9263 27.2263 86.672 27.8124 86.4221C28.0116 86.3371 28.2095 86.2527 28.406 86.1718C29.8157 85.5803 31.2311 85.003 32.6522 84.44L39.5391 81.7231C39.8761 81.5892 40.2161 81.4582 40.5566 81.327L40.5571 81.3268L40.5572 81.3267C41.4941 80.9656 42.436 80.6026 43.336 80.1719C43.3558 80.1624 43.3813 80.151 43.4105 80.1379C43.5917 80.0565 43.9161 79.9109 43.9225 79.7708C43.9352 79.4904 43.4513 78.498 43.1064 77.7907C42.9753 77.5218 42.8643 77.2941 42.8082 77.1624C42.2047 75.7376 41.6745 74.286 41.2175 72.8076C39.3813 66.7394 39.361 60.2949 41.4671 54.2925C41.5377 54.0849 41.6108 53.8782 41.6865 53.6724C41.7622 53.4666 41.8404 53.2618 41.9212 53.0579C42.002 52.854 42.0853 52.6512 42.1711 52.4494C42.2569 52.2477 42.3453 52.047 42.436 51.8474C42.5269 51.6478 42.6202 51.4494 42.716 51.2522C42.8117 51.0549 42.9098 50.8589 43.0105 50.6641C43.1112 50.4693 43.2142 50.2757 43.3196 50.0834C43.425 49.8912 43.5329 49.7003 43.6431 49.5107C43.7533 49.3211 43.8658 49.1329 43.9806 48.9462C44.0955 48.7594 44.2127 48.574 44.3321 48.3901C44.4516 48.2063 44.5734 48.0239 44.6974 47.8431C44.8214 47.6623 44.9476 47.4829 45.0761 47.3052C45.2046 47.1275 45.3353 46.9515 45.468 46.7771C45.6009 46.6026 45.7359 46.4298 45.873 46.2587C46.0101 46.0877 46.1494 45.9183 46.2908 45.7507C46.4321 45.583 46.5755 45.4171 46.721 45.253C46.8665 45.089 47.014 44.9268 47.1634 44.7664C47.313 44.606 47.4644 44.4475 47.6178 44.2908C47.7714 44.1342 47.9267 43.9795 48.0839 43.8267C48.2413 43.674 48.4005 43.5232 48.5616 43.3744C48.7226 43.2255 48.8855 43.0787 49.0502 42.934C49.2148 42.7892 49.3813 42.6466 49.5496 42.506C49.7179 42.3653 49.8878 42.2268 50.0595 42.0905C50.2312 41.954 50.4046 41.8197 50.5796 41.6877C50.7546 41.5556 50.9312 41.4257 51.1095 41.298C51.2877 41.1703 51.4675 41.0448 51.649 40.9216C51.8303 40.7984 52.0132 40.6774 52.1976 40.5588C52.382 40.4401 52.5678 40.3238 52.755 40.2097C52.9423 40.0956 53.131 39.9839 53.3211 39.8745C53.5111 39.7652 53.7025 39.6582 53.8953 39.5536C54.0879 39.449 54.2818 39.3468 54.4771 39.2471C54.6725 39.1473 54.8689 39.0499 55.0666 38.955C59.9629 36.6031 66.1233 35.719 71.3314 37.5483C76.6696 39.0433 81.4944 43.0177 84.2062 47.8361C87.2078 53.1694 87.629 59.2255 85.9772 65.0532C84.7699 69.3121 82.5077 73.1071 80.2589 76.8795L80.2578 76.8814C79.8854 77.5059 79.5135 78.1299 79.1468 78.7553C77.6657 81.2805 76.2101 83.8115 75.1032 86.528C70.3733 98.1339 73.4248 107.916 79.2614 118.376C79.4628 118.737 79.667 119.102 79.9098 119.437C81.2926 119.633 82.5856 119.253 83.8951 118.833C84.4883 118.535 85.1223 118.29 85.7558 118.045C86.2301 117.862 86.7042 117.679 87.1606 117.474C90.2559 116.082 93.4228 114.476 96.2341 112.569C96.2852 112.535 96.3396 112.498 96.3962 112.461C96.93 112.106 97.6591 111.621 97.7262 110.989C97.783 110.454 97.5693 109.852 97.3662 109.279C97.2669 108.999 97.1701 108.727 97.1088 108.472C96.9855 107.962 96.9061 107.433 96.8279 106.912L96.813 106.813C96.7191 106.209 96.6383 105.604 96.5706 104.996C96.5029 104.389 96.4484 103.78 96.4071 103.17C96.3657 102.561 96.3376 101.95 96.3227 101.339C96.3077 100.728 96.306 100.117 96.3176 99.506C96.329 98.8949 96.3537 98.2843 96.3917 97.6742C96.4297 97.0642 96.4808 96.4553 96.545 95.8475C96.6093 95.2396 96.6867 94.6334 96.7772 94.0291C96.8678 93.4245 96.9713 92.8223 97.0879 92.2223C98.9622 90.3631 100.844 88.4747 102.412 86.3421C103.799 84.4547 105.145 82.4826 106.266 80.4225C106.41 80.1568 106.551 79.8896 106.689 79.6211C106.827 79.3525 106.962 79.0825 107.095 78.8112C107.228 78.5399 107.358 78.2672 107.485 77.9933C107.612 77.7193 107.736 77.4441 107.858 77.1675C107.979 76.891 108.098 76.6134 108.214 76.3345C108.329 76.0555 108.442 75.7755 108.553 75.4943C108.663 75.2131 108.77 74.9308 108.875 74.6474C108.979 74.364 109.081 74.0795 109.179 73.794C109.278 73.5085 109.373 73.2221 109.466 72.9348C109.559 72.6474 109.649 72.3591 109.736 72.0698C109.823 71.7805 109.907 71.4904 109.988 71.1995C110.069 70.9086 110.147 70.6168 110.222 70.3242C110.297 70.0317 110.369 69.7384 110.438 69.4445C110.508 69.1505 110.574 68.8558 110.637 68.5605C110.7 68.2651 110.76 67.9691 110.817 67.6726C110.874 67.376 110.928 67.0789 110.98 66.7813C111.031 66.4835 111.079 66.1853 111.124 65.8867C111.169 65.5881 111.211 65.289 111.25 64.9895C111.289 64.69 111.324 64.3902 111.357 64.0899C111.39 63.7897 111.42 63.4891 111.447 63.1882C111.473 62.8874 111.497 62.5863 111.518 62.285C111.538 61.9837 111.556 61.6822 111.57 61.3805C111.584 61.0789 111.596 60.7771 111.604 60.4751C111.612 60.1732 111.618 59.8712 111.62 59.5692C111.622 59.2673 111.621 58.9653 111.617 58.6632C111.613 58.3612 111.606 58.0593 111.596 57.7575C111.586 57.4556 111.573 57.1539 111.557 56.8524C111.54 56.5507 111.521 56.2493 111.498 55.9481C111.476 55.647 111.451 55.3461 111.422 55.0453C111.394 54.7447 111.362 54.4443 111.327 54.1442C111.293 53.8443 111.255 53.5446 111.214 53.2454C111.174 52.9461 111.13 52.6472 111.083 52.3489C109.373 41.3123 103.445 31.6358 94.6336 24.8193C93.5004 23.9427 92.3097 23.0687 91.0701 22.3495C90.7473 22.1622 90.4074 21.9866 90.0658 21.8101L90.0657 21.81C89.4416 21.4875 88.8115 21.1619 88.2683 20.7565L88.2529 20.7448L88.2293 20.7265L88.2077 20.7098C87.54 20.4485 86.8863 20.1517 86.2326 19.8548C85.7076 19.6164 85.1825 19.378 84.65 19.1579C82.878 18.4252 81.0236 17.8138 79.1795 17.2926C68.4745 14.2675 56.8734 15.6239 46.7628 20.049C46.38 20.2166 45.9992 20.3888 45.6205 20.5658C45.2418 20.7427 44.8653 20.9243 44.4912 21.1104C44.1169 21.2966 43.745 21.4873 43.3755 21.6826C43.0059 21.8779 42.6388 22.0776 42.2742 22.2819C41.9095 22.4862 41.5474 22.6949 41.1879 22.9081C40.8284 23.1212 40.4715 23.3388 40.1174 23.5607C39.7632 23.7825 39.4118 24.0087 39.0631 24.2393C38.7144 24.4698 38.3687 24.7046 38.0258 24.9436C37.6828 25.1826 37.3429 25.4258 37.006 25.6731C36.669 25.9204 36.3352 26.1719 36.0044 26.4274C35.6737 26.6829 35.3461 26.9424 35.0217 27.206C34.6973 27.4695 34.3762 27.737 34.0583 28.0085C33.7405 28.2799 33.426 28.5552 33.1149 28.8343C32.8038 29.1135 32.4962 29.3964 32.192 29.683C31.8879 29.9698 31.5873 30.2602 31.2902 30.5542C30.9932 30.8482 30.6998 31.1459 30.4101 31.4472C30.1203 31.7484 29.8343 32.0531 29.552 32.3613C29.2698 32.6696 28.9914 32.9813 28.7167 33.2963C28.442 33.6114 28.1713 33.9299 27.9045 34.2516C27.6377 34.5733 27.3748 34.8982 27.116 35.2264C26.8572 35.5546 26.6024 35.8859 26.3516 36.2203C26.1009 36.5547 25.8543 36.8922 25.6119 37.2326C25.3694 37.573 25.1312 37.9164 24.8972 38.2628C24.6631 38.6091 24.4333 38.9582 24.2078 39.3101C23.9824 39.662 23.7613 40.0167 23.5446 40.374C23.3277 40.7314 23.1153 41.0914 22.9073 41.454C22.6994 41.8165 22.4959 42.1816 22.297 42.5492C22.0979 42.9167 21.9035 43.2866 21.7136 43.659C21.5236 44.0313 21.3383 44.4059 21.1576 44.7827C20.9768 45.1596 20.8007 45.5386 20.6292 45.9198C20.4577 46.301 20.291 46.6843 20.1289 47.0695C19.9669 47.4548 19.8096 47.842 19.657 48.2311C19.5142 48.6065 19.3761 48.9836 19.2425 49.3624C19.1088 49.7411 18.9798 50.1213 18.8554 50.5031C18.731 50.885 18.6112 51.2684 18.4961 51.6532C18.3809 52.0379 18.2703 52.424 18.1645 52.8114C18.0588 53.1988 17.9577 53.5875 17.8612 53.9774C17.7648 54.3673 17.6732 54.7583 17.5861 55.1504C17.4992 55.5424 17.417 55.9355 17.3396 56.3297C17.2622 56.7238 17.1895 57.1187 17.1216 57.5146C17.0537 57.9104 16.9907 58.307 16.9324 58.7044C16.8741 59.1017 16.8206 59.4997 16.772 59.8984C16.7234 60.2971 16.6795 60.6963 16.6405 61.096C16.6015 61.4957 16.5674 61.8958 16.5381 62.2963C16.5088 62.6969 16.4843 63.0978 16.4647 63.499C16.4451 63.9001 16.4303 64.3014 16.4204 64.7029C16.4106 65.1044 16.4055 65.5059 16.4053 65.9076C16.4051 66.3092 16.4098 66.7108 16.4193 67.1122C16.4288 67.5138 16.4432 67.9151 16.4625 68.3163C16.4817 68.7174 16.5058 69.1183 16.5348 69.5189C16.5637 69.9195 16.5975 70.3197 16.6362 70.7194C16.6747 71.1191 16.7181 71.5184 16.7664 71.9171C16.8148 72.3158 16.8679 72.7138 16.9258 73.1113C16.9837 73.5087 17.0464 73.9053 17.1139 74.3012C17.1814 74.6972 17.2537 75.0922 17.3309 75.4864C17.408 75.8806 17.4898 76.2737 17.5763 76.6659C17.6629 77.058 17.7542 77.4491 17.8503 77.8392C17.9463 78.2291 18.0471 78.6178 18.1526 79.0054C18.258 79.393 18.3681 79.7792 18.4829 80.164C18.5977 80.5488 18.7171 80.9322 18.8412 81.3142C18.9652 81.6962 19.0939 82.0766 19.2272 82.4555C19.3605 82.8344 19.4983 83.2116 19.6407 83.587C19.7832 83.9626 19.9301 84.3364 20.0815 84.7084C20.233 85.0803 20.3889 85.4504 20.5493 85.8185C20.6279 85.9965 20.7103 86.2063 20.7982 86.4303C21.1005 87.2006 21.4692 88.14 21.9809 88.5381C22.4231 88.6164 23.7715 88.0424 24.8409 87.5872ZM70.8021 36.2624C70.7897 36.2751 70.7761 36.2891 70.7608 36.3043C71.096 36.421 71.4369 36.5302 71.7785 36.6395L71.7787 36.6396C72.4648 36.8593 73.154 37.08 73.807 37.3652C78.8852 39.5835 83.3197 43.5735 85.7335 48.5836C88.6431 54.6224 88.5983 60.9134 86.4075 67.1825C85.1938 70.6555 83.2718 73.8619 81.3739 77.0281L81.3738 77.0282C80.9267 77.7741 80.4809 78.5178 80.046 79.2622C75.1422 87.6567 72.457 94.2654 74.5864 104.147C75.201 106.999 76.0954 109.848 77.3548 112.484C78.3381 114.507 79.3782 116.501 80.475 118.465C82.5086 118.282 84.5336 117.495 86.375 116.636C86.1482 116.141 85.9178 115.644 85.6864 115.145C84.2782 112.111 82.8376 109.007 82.0084 105.79C80.8292 101.214 81.0375 96.3135 82.086 91.5489C81.0376 96.3133 80.8294 101.214 82.0086 105.789C82.8378 109.006 84.2784 112.11 85.6865 115.145C85.9179 115.643 86.1484 116.14 86.3752 116.635C86.5258 116.566 86.677 116.496 86.8286 116.427C90.2292 114.864 93.8586 113.195 96.7802 110.862C96.6963 110.564 96.6086 110.269 96.5211 109.975C96.3065 109.253 96.093 108.534 95.939 107.787C95.1113 103.769 95.086 98.7795 95.6142 94.6982C95.6381 94.5138 95.6597 94.316 95.6821 94.1108C95.7688 93.3158 95.8676 92.4109 96.1567 91.7532C96.2336 91.5785 97.379 90.3897 98.4211 89.3081C99.1458 88.556 99.8205 87.8557 100.051 87.5846C100.301 87.2936 100.548 86.9994 100.79 86.7019C101.033 86.4044 101.271 86.1037 101.506 85.7998C101.74 85.496 101.97 85.1891 102.197 84.8791C102.423 84.5691 102.645 84.2561 102.863 83.9401C103.081 83.6242 103.294 83.3054 103.504 82.9838C103.713 82.6621 103.918 82.3377 104.119 82.0106C104.32 81.6835 104.516 81.3537 104.708 81.0213C104.9 80.689 105.088 80.3541 105.271 80.0167C105.454 79.6794 105.632 79.3396 105.806 78.9975C105.98 78.6554 106.149 78.311 106.314 77.9643C106.479 77.6176 106.639 77.2689 106.794 76.918C106.95 76.5671 107.1 76.2141 107.247 75.8592C107.393 75.5043 107.534 75.1475 107.67 74.7888C107.807 74.43 107.938 74.0696 108.065 73.7074C108.192 73.3451 108.314 72.9812 108.431 72.6158C108.549 72.2503 108.661 71.8833 108.768 71.5149C109.325 69.667 109.798 67.826 110.047 65.9096C111.117 57.6913 110.551 51.0517 107.472 43.3279C106.073 39.8174 104.283 36.5402 101.971 33.5467C101.668 33.1561 101.358 32.7707 101.042 32.3906C100.726 32.0107 100.403 31.6362 100.074 31.2672C99.7443 30.8983 99.4087 30.5351 99.067 30.1777C98.7252 29.8203 98.3774 29.4688 98.0236 29.1234C97.6699 28.7779 97.3102 28.4386 96.9448 28.1055C96.5794 27.7724 96.2083 27.4457 95.8316 27.1254C95.4549 26.8049 95.0728 26.491 94.6854 26.1838C94.2979 25.8765 93.9053 25.5761 93.5075 25.2824C93.1098 24.9886 92.7071 24.7018 92.2995 24.4218C91.8918 24.1419 91.4795 23.869 91.0624 23.6032C90.6454 23.3374 90.224 23.0789 89.7982 22.8276C89.3722 22.5763 88.9422 22.3324 88.508 22.0959C88.0737 21.8594 87.6355 21.6304 87.1933 21.4089C86.7512 21.1874 86.3055 20.9736 85.8559 20.7674C85.4065 20.5613 84.9536 20.3629 84.4973 20.1723C84.041 19.9816 83.5816 19.7989 83.1191 19.6241C82.8883 19.5366 82.6512 19.4434 82.4096 19.3485C81.3298 18.924 80.1605 18.4643 79.0642 18.323C79.0639 18.3232 79.0636 18.3235 79.0632 18.3238C66.435 14.8082 53.4292 17.3079 42.1348 23.6608C34.2831 28.0773 27.2397 35.3621 23.0625 43.3447C21.3601 46.5977 20.0793 50.1323 19.0972 53.6624C15.9996 64.796 17.5625 77.0233 22.4262 87.4017C23.2276 87.0861 24.0229 86.7557 24.8181 86.4253C25.9966 85.9358 27.1749 85.4462 28.3731 85.0048C28.1728 84.5276 27.9796 84.0475 27.7937 83.5645C27.6077 83.0815 27.4291 82.5958 27.2578 82.1074C27.0866 81.619 26.9228 81.1281 26.7663 80.6348C26.6098 80.1414 26.4608 79.6458 26.3193 79.148C26.1777 78.6501 26.0437 78.1503 25.9174 77.6485C25.7909 77.1466 25.6721 76.6429 25.5608 76.1375C25.4496 75.632 25.346 75.1249 25.2501 74.6162C25.1541 74.1077 25.0658 73.5978 24.9852 73.0866C24.9047 72.5753 24.8319 72.0629 24.7668 71.5496C24.7016 71.0361 24.6442 70.5218 24.5945 70.0066C24.545 69.4914 24.5032 68.9756 24.4691 68.4592C24.4351 67.9427 24.4089 67.4259 24.3904 66.9087C24.3719 66.3914 24.3613 65.8741 24.3584 65.3566C24.3556 64.8389 24.3606 64.3214 24.3733 63.8041C24.3861 63.2866 24.4066 62.7695 24.4349 62.2528C24.4633 61.7361 24.4995 61.2198 24.5434 60.7041C24.7869 58.0596 25.1885 55.3301 25.8938 52.769C25.8968 52.7581 25.8998 52.7473 25.9028 52.7365C25.8999 52.747 25.897 52.7575 25.894 52.7679C25.1888 55.3291 24.7872 58.0586 24.5437 60.7031C24.4998 61.2188 24.4636 61.735 24.4352 62.2518C24.4069 62.7685 24.3864 63.2856 24.3736 63.8031C24.3609 64.3204 24.3559 64.8379 24.3587 65.3556C24.3616 65.8731 24.3722 66.3904 24.3907 66.9076C24.4092 67.4248 24.4354 67.9417 24.4694 68.4582C24.5034 68.9746 24.5453 69.4904 24.5948 70.0055C24.6445 70.5208 24.7019 71.0351 24.7671 71.5486C24.8322 72.0619 24.905 72.5743 24.9855 73.0856C25.0661 73.5968 25.1544 74.1067 25.2503 74.6152C25.3463 75.1239 25.4499 75.6309 25.5611 76.1364C25.6724 76.6419 25.7912 77.1456 25.9177 77.6475C26.044 78.1493 26.178 78.6491 26.3196 79.147C26.4611 79.6448 26.6101 80.1404 26.7666 80.6337C26.9231 81.1271 27.0869 81.618 27.2581 82.1064C27.4294 82.5948 27.608 83.0804 27.794 83.5635C27.9799 84.0465 28.1731 84.5266 28.3734 85.0038C28.8444 84.8691 29.3206 84.6646 29.7883 84.4637C29.9972 84.374 30.2044 84.2851 30.4086 84.2034C31.7777 83.6609 33.1425 83.1078 34.5029 82.544C36.1471 81.8644 37.8041 81.2217 39.4614 80.579C40.5008 80.1759 41.5402 79.7728 42.5767 79.3605C39.229 72.2398 37.7167 64.2495 39.6629 56.5227C41.4888 49.274 45.8058 43.1315 52.2673 39.2747C57.8748 35.9277 64.3754 34.6925 70.761 36.3035C70.7763 36.2883 70.7899 36.2744 70.8023 36.2617C70.8986 36.1634 70.9238 36.1376 71.1 36.1462C71.3942 36.1606 71.7044 36.2391 72.0119 36.3169C72.2185 36.3692 72.4238 36.4212 72.6223 36.4532C72.7933 36.4815 72.964 36.5116 73.1344 36.5437C73.3047 36.5757 73.4747 36.6096 73.6444 36.6454C73.814 36.6813 73.9831 36.7189 74.1518 36.7584C74.3207 36.7979 74.489 36.8393 74.6568 36.8825C74.8247 36.9257 74.9921 36.9708 75.1589 37.0178C75.3258 37.0647 75.4921 37.1135 75.6579 37.1642C75.8237 37.2147 75.9889 37.2672 76.1536 37.3215C76.3182 37.3757 76.4822 37.4317 76.6456 37.4895C76.809 37.5474 76.9717 37.6071 77.1337 37.6685C77.2959 37.73 77.4573 37.7933 77.6179 37.8583C77.7786 37.9233 77.9386 37.9902 78.0977 38.0587C78.2569 38.1273 78.4154 38.1976 78.573 38.2696C78.7306 38.3417 78.8874 38.4155 79.0435 38.4911C79.1995 38.5665 79.3547 38.6438 79.509 38.7228C79.6633 38.8017 79.8167 38.8823 79.9693 38.9646C80.1219 39.047 80.2735 39.1311 80.4242 39.2168C80.5748 39.3024 80.7244 39.3897 80.8732 39.4787C81.022 39.5678 81.1698 39.6584 81.3166 39.7506C81.4632 39.8428 81.6089 39.9367 81.7537 40.0322C81.8984 40.1276 82.042 40.2247 82.1845 40.3233C82.327 40.4219 82.4685 40.5221 82.6088 40.6239C82.7491 40.7257 82.8883 40.8291 83.0263 40.9338C83.1644 41.0387 83.3012 41.1451 83.4369 41.2529C83.5726 41.3607 83.7071 41.4701 83.8404 41.581C83.9737 41.6918 84.1058 41.804 84.2366 41.9177C84.3674 42.0315 84.4969 42.1467 84.6251 42.2634C84.7534 42.38 84.8803 42.4979 85.0059 42.6173C85.1316 42.7367 85.256 42.8575 85.379 42.9797C85.5019 43.1018 85.6235 43.2252 85.7438 43.3501C85.864 43.4749 85.9829 43.6011 86.1004 43.7286C86.2179 43.856 86.334 43.9847 86.4486 44.1149C86.5632 44.2448 86.6764 44.3761 86.7881 44.5086C90.9246 49.4733 93.6268 55.6082 93.0174 62.1827C92.9616 62.7837 92.8844 63.3771 92.7877 63.9635C92.8843 63.3773 92.9615 62.7842 93.0172 62.1834C93.6266 55.609 90.9244 49.4741 86.7879 44.5094C86.6762 44.3769 86.5631 44.2456 86.4484 44.1156C86.3338 43.9855 86.2177 43.8568 86.1002 43.7294C85.9827 43.6018 85.8639 43.4757 85.7436 43.3508C85.6233 43.226 85.5017 43.1025 85.3788 42.9804C85.2558 42.8583 85.1315 42.7375 85.0057 42.6181C84.8801 42.4987 84.7532 42.3807 84.6249 42.2641C84.4967 42.1475 84.3671 42.0323 84.2363 41.9186C84.1055 41.8048 83.9735 41.6926 83.8402 41.5818C83.7069 41.4709 83.5724 41.3615 83.4367 41.2537C83.301 41.1458 83.1642 41.0395 83.0261 40.9346C82.8881 40.8298 82.7489 40.7265 82.6086 40.6246C82.4683 40.5229 82.3268 40.4227 82.1843 40.3241C82.0418 40.2255 81.8982 40.1284 81.7535 40.033C81.6087 39.9375 81.463 39.8436 81.3164 39.7514C81.1696 39.6592 81.0218 39.5685 80.873 39.4795C80.7242 39.3905 80.5746 39.3032 80.424 39.2175C80.2733 39.1318 80.1217 39.0478 79.9691 38.9654C79.8166 38.8831 79.6631 38.8025 79.5088 38.7236C79.3545 38.6445 79.1993 38.5673 79.0433 38.4918C78.8872 38.4163 78.7304 38.3424 78.5728 38.2704C78.4152 38.1983 78.2567 38.128 78.0975 38.0595C77.9384 37.9909 77.7784 37.9241 77.6177 37.859C77.4571 37.7941 77.2957 37.7308 77.1335 37.6693C76.9715 37.6079 76.8088 37.5482 76.6454 37.4903C76.482 37.4325 76.318 37.3764 76.1533 37.3221C75.9887 37.2679 75.8235 37.2155 75.6577 37.1649C75.4919 37.1143 75.3256 37.0655 75.1587 37.0185C74.9919 36.9716 74.8245 36.9265 74.6566 36.8833C74.4888 36.8401 74.3205 36.7987 74.1516 36.7591C73.9829 36.7197 73.8138 36.682 73.6442 36.6462C73.4745 36.6104 73.3045 36.5765 73.1342 36.5445C72.9638 36.5124 72.7931 36.4822 72.6221 36.454C72.4236 36.422 72.2183 36.37 72.0117 36.3177L72.0116 36.3177C71.7041 36.2399 71.3939 36.1613 71.0998 36.147C70.9236 36.1384 70.8984 36.1641 70.8021 36.2624Z" fill="#003399"/>
</g>
</svg>
