<svg width="40" height="43" viewBox="0 0 40 43" fill="none" xmlns="http://www.w3.org/2000/svg">
<g id="Group">
<path id="Layer 2" d="M36.2332 5.94367C33.5732 5.66048 30.9553 5.06857 28.4322 4.1799C26.1168 3.36166 23.896 2.29744 21.8076 1.00551C21.2627 0.674849 20.6376 0.5 20.0002 0.5C19.3628 0.5 18.7377 0.674849 18.1928 1.00551L18.1908 1.0075C16.1029 2.29838 13.8827 3.36192 11.5682 4.1799C9.04638 5.0682 6.42976 5.6601 3.77112 5.94367C2.91709 6.03065 2.12572 6.43146 1.55027 7.06848C0.974829 7.7055 0.656255 8.53341 0.65625 9.39185V19.6987C0.657696 23.502 1.67559 27.2359 3.60456 30.5137C5.53354 33.7916 8.3035 36.4944 11.6277 38.3423L18.3138 42.0583C18.8287 42.3479 19.4095 42.5 20.0002 42.5C20.5909 42.5 21.1717 42.3479 21.6866 42.0583L28.3726 38.3423C31.6969 36.4944 34.4668 33.7916 36.3958 30.5137C38.3248 27.2359 39.3427 23.502 39.3441 19.6987V9.39384C39.3452 8.53532 39.0276 7.70696 38.4529 7.06919C37.8782 6.43143 37.0872 6.03164 36.2332 5.94367ZM27.8945 17.8516L20.4545 25.7876C20.1011 26.1646 19.6144 26.3887 19.0981 26.412C18.5818 26.4354 18.0769 26.2562 17.6908 25.9126L13.2268 21.9446C13.0222 21.7745 12.8539 21.565 12.7319 21.3285C12.61 21.0921 12.5368 20.8335 12.5168 20.5682C12.4967 20.3029 12.5303 20.0362 12.6154 19.7842C12.7006 19.5321 12.8355 19.2997 13.0123 19.1008C13.189 18.902 13.404 18.7407 13.6444 18.6266C13.8847 18.5125 14.1456 18.4479 14.4114 18.4367C14.6773 18.4255 14.9426 18.4678 15.1918 18.5612C15.4409 18.6547 15.6687 18.7972 15.8616 18.9805L18.8832 21.6648L25.0018 15.1375C25.1875 14.94 25.4116 14.7825 25.6603 14.6747C25.909 14.5669 26.1771 14.511 26.4482 14.5106C26.8352 14.5104 27.2139 14.6234 27.5375 14.8357C27.8611 15.048 28.1156 15.3503 28.2695 15.7055C28.4235 16.0606 28.4702 16.453 28.4039 16.8343C28.3376 17.2156 28.1592 17.5693 27.8945 17.8516Z" fill="white"/>
</g>
</svg>
