<svg width="16" height="16" viewBox="0 0 16 16" fill="none" xmlns="http://www.w3.org/2000/svg">
<g clip-path="url(#clip0_2001_53)">
<path d="M6.83337 7.5H0.5C0.224 7.5 0 7.276 0 7C0 6.724 0.224 6.5 0.5 6.5H6.83337C7.10938 6.5 7.33337 6.724 7.33337 7C7.33337 7.276 7.10938 7.5 6.83337 7.5Z" fill="white"/>
<path d="M4.33339 10C4.26771 10.0002 4.20266 9.98728 4.142 9.96212C4.08134 9.93695 4.02627 9.90001 3.97998 9.85342C3.78467 9.65798 3.78467 9.34132 3.97998 9.14601L6.12673 6.99938L3.97998 4.85342C3.78467 4.65798 3.78467 4.34132 3.97998 4.14601C4.17529 3.9507 4.49195 3.9507 4.68739 4.14601L7.18739 6.64601C7.3827 6.84132 7.3827 7.15798 7.18739 7.35342L4.68739 9.85342C4.64094 9.89996 4.58576 9.93687 4.52501 9.96203C4.46426 9.98718 4.39914 10.0001 4.33339 10ZM10.6666 16C9.93129 16 9.33339 15.402 9.33339 14.6666V2.66664C9.33339 2.0967 9.69604 1.58801 10.236 1.40064L14.2414 0.0653225C15.1374 -0.209365 16 0.455323 16 1.33338V13.3334C16 13.9027 15.6374 14.4107 15.098 14.5986L11.0913 15.9347C10.9453 15.98 10.8101 16 10.6666 16ZM14.6666 1.00001C14.6233 1.00001 14.5867 1.00539 14.5474 1.01735L10.5587 2.34729C10.428 2.3927 10.3334 2.52467 10.3334 2.66664V14.6666C10.3334 14.894 10.5799 15.0474 10.786 14.9827L14.7747 13.6527C14.9047 13.6073 15 13.4754 15 13.3334V1.33338C15 1.15004 14.8507 1.00001 14.6666 1.00001Z" fill="white"/>
<path d="M5.83337 3.33337C5.55737 3.33337 5.33337 3.10938 5.33337 2.83337V1.83337C5.33337 0.822031 6.15525 0 7.16662 0H14.6666C14.9426 0 15.1666 0.224 15.1666 0.5C15.1666 0.776 14.9426 1 14.6666 1H7.16662C6.70725 1 6.33337 1.37403 6.33337 1.83337V2.83337C6.33337 3.10938 6.10937 3.33337 5.83337 3.33337ZM9.83337 14H7.16662C6.15528 14 5.33337 13.178 5.33337 12.1666V11.1666C5.33337 10.8906 5.55737 10.6666 5.83337 10.6666C6.10937 10.6666 6.33337 10.8906 6.33337 11.1666V12.1666C6.33337 12.626 6.70728 13 7.16662 13H9.83337C10.1094 13 10.3334 13.224 10.3334 13.5C10.3334 13.776 10.1094 14 9.83337 14Z" fill="white"/>
</g>
<defs>
<clipPath id="clip0_2001_53">
<rect width="16" height="16" fill="white"/>
</clipPath>
</defs>
</svg>
