<svg width="32" height="31" viewBox="0 0 32 31" fill="none" xmlns="http://www.w3.org/2000/svg">
<g id="Group">
<path id="Vector" d="M1.33333 0.333374C0.979711 0.333374 0.640573 0.47385 0.390524 0.723898C0.140476 0.973947 0 1.31309 0 1.66671C0 2.02033 0.140476 2.35947 0.390524 2.60952C0.640573 2.85957 0.979711 3.00004 1.33333 3.00004H3.70667C3.90047 3.00038 4.08928 3.06156 4.24646 3.17495C4.40363 3.28835 4.52123 3.44823 4.58267 3.63204L8.97867 16.8227C9.17467 17.4094 9.19867 18.0387 9.04933 18.6387L8.688 20.088C8.156 22.2134 9.81067 24.3334 12 24.3334H28C28.3536 24.3334 28.6928 24.1929 28.9428 23.9429C29.1929 23.6928 29.3333 23.3537 29.3333 23C29.3333 22.6464 29.1929 22.3073 28.9428 22.0572C28.6928 21.8072 28.3536 21.6667 28 21.6667H12C11.48 21.6667 11.1467 21.24 11.2733 20.7374L11.5467 19.6467C11.5927 19.4622 11.6991 19.2984 11.8488 19.1813C11.9986 19.0641 12.1832 19.0003 12.3733 19H26.6667C26.9468 19.0004 27.22 18.9125 27.4474 18.7488C27.6748 18.585 27.8448 18.3539 27.9333 18.088L31.4867 7.42137C31.5534 7.22093 31.5716 7.00749 31.5397 6.79865C31.5078 6.5898 31.4267 6.39153 31.3031 6.22017C31.1796 6.04881 31.017 5.90926 30.8289 5.81304C30.6409 5.71681 30.4326 5.66666 30.2213 5.66671H8.74C8.54597 5.66665 8.35686 5.6056 8.19942 5.49218C8.04198 5.37877 7.92418 5.21874 7.86267 5.03471L6.59867 1.24537C6.5102 0.979766 6.34038 0.748742 6.11327 0.585051C5.88616 0.42136 5.61329 0.333307 5.33333 0.333374H1.33333ZM10.6667 25.6667C9.95942 25.6667 9.28115 25.9477 8.78105 26.4478C8.28095 26.9479 8 27.6261 8 28.3334C8 29.0406 8.28095 29.7189 8.78105 30.219C9.28115 30.7191 9.95942 31 10.6667 31C11.3739 31 12.0522 30.7191 12.5523 30.219C13.0524 29.7189 13.3333 29.0406 13.3333 28.3334C13.3333 27.6261 13.0524 26.9479 12.5523 26.4478C12.0522 25.9477 11.3739 25.6667 10.6667 25.6667ZM26.6667 25.6667C25.9594 25.6667 25.2811 25.9477 24.781 26.4478C24.281 26.9479 24 27.6261 24 28.3334C24 29.0406 24.281 29.7189 24.781 30.219C25.2811 30.7191 25.9594 31 26.6667 31C27.3739 31 28.0522 30.7191 28.5523 30.219C29.0524 29.7189 29.3333 29.0406 29.3333 28.3334C29.3333 27.6261 29.0524 26.9479 28.5523 26.4478C28.0522 25.9477 27.3739 25.6667 26.6667 25.6667Z" fill="#003399"/>
</g>
</svg>
