<svg width="31" height="26" viewBox="0 0 31 26" fill="none" xmlns="http://www.w3.org/2000/svg">
<g id="Group" opacity="0.4">
<path id="Vector" d="M26.6256 9.59048V10.4589C24.6161 10.4928 22.6576 11.0207 20.9209 11.9915L19.9843 11.5488C18.4687 10.8164 16.7658 10.4419 15.063 10.4419H13.6325C12.2191 10.4419 11.0782 11.5827 11.0782 12.9962V14.4265C11.0782 16.9299 11.8786 19.3308 13.3769 21.3404L14.5008 22.8387V22.8558C14.5008 23.5369 14.5521 24.2353 14.6711 24.9164L14.8246 25.7679H10.4481C9.97115 25.7679 9.5967 25.3931 9.5967 24.9164V17.2535H1.82019C1.3432 17.2535 0.96875 16.8786 0.96875 16.402V9.59048C0.96875 9.11349 1.3432 8.73903 1.82019 8.73903H9.5967V1.07605C9.5967 0.599062 9.97115 0.224609 10.4481 0.224609H17.2597C17.7367 0.224609 18.1111 0.599062 18.1111 1.07605V8.73903H25.7741C26.2509 8.73903 26.6256 9.11349 26.6256 9.59048Z" fill="#003399"/>
<path id="Vector_2" d="M19.2522 13.0814C18.5047 13.6557 17.83 14.3191 17.243 15.0567C15.9829 16.6062 15.1314 18.4112 14.7397 20.3186C13.4794 18.6328 12.7812 16.5893 12.7812 14.4265V12.9962C12.7812 12.5192 13.1561 12.1448 13.6327 12.1448H15.0633C16.5278 12.1448 17.9582 12.4681 19.2522 13.0814ZM29.1802 12.1448H26.8983C24.2759 12.1448 21.7897 13.0984 19.8484 14.8013C19.3886 15.1928 18.9629 15.6357 18.5712 16.1125C16.6298 18.5306 15.8296 21.6128 16.3573 24.6269C16.699 24.2853 20.2966 20.6879 20.0698 20.9146C20.3933 20.5741 20.9383 20.5741 21.2618 20.9146C21.6024 21.2384 21.6024 21.7831 21.2618 22.1067C21.0498 22.3186 17.3704 25.9979 17.6006 25.7679C18.2899 25.6527 23.8795 26.5565 27.5965 22.0898C29.1802 20.1654 30.0317 17.7984 30.0317 15.2783V12.9962C30.0317 12.5192 29.657 12.1448 29.1802 12.1448Z" fill="#003399"/>
</g>
</svg>
