<svg width="46" height="41" viewBox="0 0 46 41" fill="none" xmlns="http://www.w3.org/2000/svg">
<g id="Group">
<path id="Vector" d="M40.2267 15.2207V16.5655C37.1153 16.6179 34.0828 17.4353 31.3936 18.9385L29.9434 18.253C27.5967 17.1189 24.96 16.5391 22.3233 16.5391H20.1084C17.92 16.5391 16.1534 18.3054 16.1534 20.4942V22.7088C16.1534 26.585 17.3926 30.3025 19.7127 33.4141L21.4529 35.7342V35.7606C21.4529 36.8152 21.5323 37.8966 21.7166 38.9513L21.9542 40.2696H15.1778C14.4392 40.2696 13.8594 39.6893 13.8594 38.9513V27.086H1.81836C1.0798 27.086 0.5 26.5056 0.5 25.7676V15.2207C0.5 14.4822 1.0798 13.9024 1.81836 13.9024H13.8594V2.03711C13.8594 1.29855 14.4392 0.71875 15.1778 0.71875H25.7247C26.4632 0.71875 27.043 1.29855 27.043 2.03711V13.9024H38.9083C39.6466 13.9024 40.2267 14.4822 40.2267 15.2207Z" fill="white"/>
<path id="Vector_2" d="M28.8086 20.626C27.6512 21.5153 26.6064 22.5424 25.6976 23.6846C23.7464 26.0837 22.428 28.8786 21.8216 31.8321C19.8701 29.2217 18.7891 26.0576 18.7891 22.7087V20.4941C18.7891 19.7556 19.3694 19.1758 20.1074 19.1758H22.3226C24.5901 19.1758 26.805 19.6765 28.8086 20.626ZM44.181 19.1758H40.6478C36.5872 19.1758 32.7376 20.6523 29.7318 23.2891C29.0198 23.8952 28.3607 24.5811 27.7542 25.3194C24.7481 29.0635 23.5091 33.836 24.3262 38.503C24.8552 37.974 30.4258 32.4039 30.0745 32.7549C30.5755 32.2276 31.4193 32.2276 31.9202 32.7549C32.4476 33.2562 32.4476 34.0996 31.9202 34.6006C31.592 34.9288 25.8948 40.6258 26.2513 40.2696C27.3186 40.0913 35.9734 41.4907 41.7289 34.5745C44.181 31.5948 45.4994 27.9297 45.4994 24.0276V20.4941C45.4994 19.7556 44.9193 19.1758 44.181 19.1758Z" fill="white"/>
</g>
</svg>
