<svg width="31" height="31" viewBox="0 0 31 31" fill="none" xmlns="http://www.w3.org/2000/svg">
<g id="Group">
<path id="Vector" d="M0 31H12.1087V24.0575H18.891V31H30.9996V17.2954H0V31ZM26.3999 19.7883H28.2166V22.7959H26.3999V19.7883ZM26.3999 24.6127H28.2166V27.6203H26.3999V24.6127ZM22.6456 19.7883H24.4623V22.7959H22.6456V19.7883ZM22.6456 24.6127H24.4623V27.6203H22.6456V24.6127ZM12.1087 20.081H18.891V21.8976H12.1087V20.081ZM6.53739 19.7883H8.35408V22.7959H6.53739V19.7883ZM6.53739 24.6127H8.35408V27.6203H6.53739V24.6127ZM2.783 19.7883H4.5997V22.7959H2.783V19.7883ZM4.5997 24.6127V27.6203H2.783V24.6127H4.5997Z" fill="#003399"/>
<path id="Vector_2" d="M13.9254 25.8742H17.0743V31H13.9254V25.8742ZM4.23633 12.4507H26.7634V15.4788H4.23633V12.4507ZM16.57 6.79905H16.4082V5.24826H20.5895V0H14.5915V6.79905H14.4297C11.8928 6.79905 9.72251 8.39429 8.86636 10.6339H22.1333C21.2772 8.39429 19.1069 6.79905 16.57 6.79905Z" fill="#003399"/>
</g>
</svg>
