<svg width="47" height="49" viewBox="0 0 47 49" fill="none" xmlns="http://www.w3.org/2000/svg">
<g id="Group">
<path id="Vector" d="M36.0885 18.4669L24.3977 13.1444C24.286 13.0936 24.1647 13.0673 24.042 13.0673C23.9193 13.0673 23.798 13.0936 23.6863 13.1444L11.9784 18.4755C12.1824 18.5715 24.0377 23.8066 24.0377 23.8066C25.2548 23.2718 36.0885 18.4669 36.0885 18.4669ZM11.1299 19.9669V34.4517C11.1304 34.6267 11.185 34.7973 11.2863 34.94C11.3876 35.0828 11.5305 35.1906 11.6956 35.2488L23.1806 39.4829V25.298C22.7049 25.0777 11.3013 20.0414 11.1299 19.9669ZM24.8948 25.3065V39.4829L36.3799 35.2488C36.5449 35.1906 36.6879 35.0828 36.7892 34.94C36.8905 34.7973 36.9451 34.6267 36.9456 34.4517V19.9669C36.7733 20.0311 25.1759 25.2054 24.8948 25.3065Z" fill="white"/>
<path id="Vector_2" d="M43.6997 33.1238V17.3532C43.6978 16.6553 43.5132 15.9701 43.1644 15.3656C42.8155 14.7612 42.3146 14.2585 41.7112 13.9077C41.7112 13.8991 28.1374 6.09102 28.152 6.07388C28.3343 5.48119 28.3864 4.85614 28.3049 4.24144C28.2234 3.62674 28.0101 3.03688 27.6797 2.51218C27.3492 1.98748 26.9094 1.5403 26.3903 1.2012C25.8711 0.862106 25.2849 0.639082 24.6716 0.547374C24.0584 0.455666 23.4325 0.497434 22.8369 0.669826C22.2413 0.842218 21.6899 1.14117 21.2204 1.54625C20.7509 1.95133 20.3744 2.45299 20.1166 3.01695C19.8589 3.58091 19.7259 4.19387 19.7268 4.81395C19.7267 5.24442 19.7932 5.6723 19.9239 6.08245L6.36468 13.9077C5.76136 14.2585 5.26037 14.7612 4.91153 15.3656C4.56268 15.9701 4.37813 16.6553 4.37622 17.3532V33.0552C3.32708 33.2628 2.39233 33.8524 1.75299 34.7098C1.11365 35.5671 0.815231 36.6312 0.915521 37.696C1.01581 38.7608 1.50767 39.7504 2.29585 40.4733C3.08403 41.1962 4.11243 41.6009 5.18189 41.609C5.80194 41.6103 6.41478 41.476 6.97741 41.2154C7.54005 40.9548 8.03886 40.5743 8.43885 40.1005L22.0495 47.9601C22.6525 48.3136 23.3389 48.5 24.038 48.5C24.737 48.5 25.4234 48.3136 26.0264 47.9601L39.4399 40.2119C39.8936 40.7035 40.4556 41.0826 41.0813 41.3193C41.7069 41.556 42.3791 41.6437 43.0446 41.5755C43.71 41.5073 44.3505 41.2851 44.9151 40.9264C45.4798 40.5678 45.9531 40.0825 46.2977 39.5092C46.6423 38.9358 46.8486 38.2901 46.9003 37.6231C46.952 36.9562 46.8477 36.2864 46.5956 35.6668C46.3435 35.0471 45.9505 34.4948 45.4479 34.0534C44.9452 33.612 44.3467 33.2937 43.6997 33.1238ZM25.1693 46.4773C24.8251 46.6752 24.435 46.7794 24.038 46.7794C23.6409 46.7794 23.2508 46.6752 22.9066 46.4773L9.2788 38.6092C9.42406 38.1874 9.49652 37.7439 9.49307 37.2978C9.49245 36.3111 9.15475 35.3543 8.53591 34.5858C7.91707 33.8173 7.05425 33.2834 6.09041 33.0723V17.3532C6.09175 16.9559 6.19684 16.5658 6.39527 16.2215C6.59371 15.8773 6.87861 15.5908 7.22177 15.3905L20.7467 7.58237C21.1495 8.06522 21.6534 8.45367 22.2229 8.72024C22.7924 8.98681 23.4135 9.12498 24.0422 9.12498C24.671 9.12498 25.2921 8.98681 25.8616 8.72024C26.4311 8.45367 26.935 8.06522 27.3378 7.58237L40.8541 15.3905C41.1973 15.5908 41.4822 15.8773 41.6806 16.2215C41.8791 16.5658 41.9842 16.9559 41.9855 17.3532V33.0295C40.9585 33.1758 40.0191 33.6884 39.3402 34.4728C38.6614 35.2572 38.2889 36.2605 38.2914 37.2978C38.2882 37.7951 38.3753 38.2888 38.5486 38.7549L25.1693 46.4773Z" fill="white"/>
</g>
</svg>
