<svg width="30" height="32" viewBox="0 0 30 32" fill="none" xmlns="http://www.w3.org/2000/svg">
<g id="Group">
<path id="Vector" d="M28.2006 29.2315H26.7071V2.25991C26.7071 1.01328 25.5469 0.0752202 24.3126 0.346763L12.8831 2.84002C11.9821 3.03751 11.3403 3.83979 11.3403 4.76551V8.36962L5.67488 7.13533C5.38864 7.07268 5.092 7.07491 4.80673 7.14187C4.52147 7.20884 4.25482 7.33883 4.02635 7.52231C3.79789 7.70579 3.61341 7.9381 3.48646 8.2022C3.35951 8.46629 3.29331 8.75546 3.29271 9.04848V29.229H1.79923C1.10803 29.229 0.564941 29.7845 0.564941 30.4633C0.564941 31.1422 1.10803 31.6976 1.79923 31.6976H28.2006C28.8795 31.6976 29.4349 31.1422 29.4349 30.4633C29.4349 29.7845 28.8795 29.229 28.2006 29.229V29.2315ZM13.204 16.901H14.9197C15.1295 16.901 15.29 17.0726 15.29 17.2836V19.0721C15.29 19.1703 15.251 19.2645 15.1815 19.3339C15.1121 19.4034 15.0179 19.4424 14.9197 19.4424H13.204C13.1047 19.4424 13.0092 19.4038 12.9377 19.3347C12.8663 19.2656 12.8246 19.1714 12.8214 19.0721V17.2824C12.8214 17.0726 12.9942 16.901 13.204 16.901ZM12.8214 13.4438V11.6541C12.8214 11.4442 12.9942 11.2714 13.204 11.2714H14.9197C15.1295 11.2714 15.29 11.4442 15.29 11.6541V13.4438C15.29 13.6536 15.1295 13.8141 14.9197 13.8141H13.204C12.9942 13.8141 12.8214 13.6536 12.8214 13.4438ZM20.8689 5.48263C20.8689 5.2728 21.0417 5.1 21.2516 5.1H22.9672C23.1647 5.1 23.3375 5.2728 23.3375 5.48263V7.27234C23.3375 7.32097 23.3279 7.36912 23.3093 7.41404C23.2907 7.45897 23.2634 7.49979 23.2291 7.53417C23.1947 7.56856 23.1539 7.59583 23.1089 7.61444C23.064 7.63305 23.0159 7.64263 22.9672 7.64263H21.2516C21.0417 7.64263 20.8689 7.48217 20.8689 7.27234V5.48263ZM20.8689 11.111C20.8689 10.9011 21.0417 10.7283 21.2516 10.7283H22.9672C23.1647 10.7283 23.3375 10.9011 23.3375 11.111V12.9007C23.3375 13.0982 23.1647 13.271 22.9672 13.271H21.2516C21.1522 13.271 21.0567 13.2324 20.9853 13.1633C20.9139 13.0942 20.8721 13 20.8689 12.9007V11.111ZM20.8689 16.7393C20.8689 16.5295 21.0417 16.3567 21.2516 16.3567H22.9672C23.1647 16.3567 23.3375 16.5295 23.3375 16.7393V18.5167C23.3375 18.7265 23.1647 18.8993 22.9672 18.8993H21.2516C21.0417 18.8993 20.8689 18.7265 20.8689 18.5167V16.7393ZM20.8689 22.3553C20.8689 22.1578 21.0417 21.985 21.2516 21.985H22.9672C23.1647 21.985 23.3375 22.1578 23.3375 22.3553V24.145C23.3375 24.3549 23.1647 24.5277 22.9672 24.5277H21.2516C21.0417 24.5277 20.8689 24.3549 20.8689 24.145V22.3553ZM14.6975 5.48263C14.6975 5.2728 14.8703 5.1 15.0801 5.1H16.7958C16.9933 5.1 17.1661 5.2728 17.1661 5.48263V7.27234C17.1661 7.37055 17.1271 7.46473 17.0576 7.53417C16.9882 7.60361 16.894 7.64263 16.7958 7.64263H15.0801C14.8703 7.64263 14.6975 7.48217 14.6975 7.27234V5.48263ZM6.64997 11.6541C6.64997 11.4442 6.82277 11.2714 7.0326 11.2714H8.74826C8.95808 11.2714 9.11854 11.4442 9.11854 11.6541V13.4438C9.11854 13.6536 8.95808 13.8141 8.74826 13.8141H7.0326C6.82277 13.8141 6.64997 13.6536 6.64997 13.4438V11.6541ZM6.64997 17.2824C6.64997 17.0726 6.82277 16.8998 7.0326 16.8998H8.74826C8.95808 16.8998 9.11854 17.0726 9.11854 17.2824V19.0721C9.11854 19.1703 9.07953 19.2645 9.01009 19.3339C8.94065 19.4034 8.84646 19.4424 8.74826 19.4424H7.0326C6.93322 19.4424 6.83772 19.4038 6.76631 19.3347C6.6949 19.2656 6.65318 19.1714 6.64997 19.0721V17.2824ZM11.3403 29.2303H8.39031V25.1695C8.39031 23.7377 9.55054 22.5775 10.97 22.5775C12.4017 22.5775 13.562 23.7402 13.562 25.1695V29.2303H11.3403Z" fill="#003399"/>
</g>
</svg>
