<svg width="56" height="56" viewBox="0 0 56 56" fill="none" xmlns="http://www.w3.org/2000/svg">
<g id="Group 41610">
<rect id="Rectangle 551" width="56" height="56" rx="10" fill="white"/>
<path id="Vector" opacity="0.4" d="M32.568 23.3795L38.2836 24.214C38.5816 24.2579 38.8616 24.3842 39.0918 24.5785C39.322 24.7729 39.4935 25.0276 39.5868 25.3141C39.6801 25.6006 39.6916 25.9075 39.6199 26.2001C39.5483 26.4928 39.3964 26.7596 39.1814 26.9706L35.0211 31.0613C34.9428 31.1373 34.8841 31.2316 34.85 31.3362C34.8158 31.4408 34.8073 31.5526 34.8251 31.662L35.7735 37.27C35.8289 37.5941 35.7922 37.9273 35.6676 38.2316C35.543 38.5359 35.3356 38.7992 35.0689 38.9915C34.8021 39.1838 34.4868 39.2974 34.1587 39.3195C33.8307 39.3415 33.503 39.2711 33.2129 39.1162L28.275 36.486C28.1912 36.441 28.0979 36.4169 28.0032 36.4158C27.9085 36.4147 27.8152 36.4366 27.7313 36.4797L22.4963 39.1288C22.223 39.2673 21.9165 39.3269 21.6113 39.301C21.306 39.2751 21.014 39.1648 20.7679 38.9823C20.5218 38.7999 20.3313 38.5525 20.2178 38.268C20.1044 37.9834 20.0723 37.6729 20.1253 37.3712L21.0864 31.8326C21.1099 31.6933 21.1004 31.5503 21.0587 31.4153C21.017 31.2802 20.9442 31.1568 20.8461 31.055C19.6322 29.8073 18.3529 28.5555 17.0083 27.2994C16.473 26.802 16.256 26.1951 16.3571 25.4785C16.4005 25.1589 16.5486 24.8623 16.7783 24.6349C17.008 24.4074 17.3067 24.2618 17.6279 24.2204L23.1665 23.5059C23.3262 23.4846 23.4784 23.4245 23.6095 23.3308C23.7407 23.2371 23.8469 23.1128 23.9188 22.9685L26.372 18.0875C26.5195 17.7936 26.746 17.5465 27.0261 17.3741C27.3062 17.2017 27.6288 17.1107 27.9577 17.1113C28.2866 17.112 28.6088 17.2042 28.8882 17.3778C29.1676 17.5513 29.3932 17.7993 29.5395 18.0939L31.9737 22.9495C32.0959 23.1982 32.294 23.3415 32.568 23.3795Z" fill="#003399"/>
</g>
</svg>
