<svg width="28" height="28" viewBox="0 0 28 28" fill="none" xmlns="http://www.w3.org/2000/svg">
<g id="Group">
<path id="Vector" d="M13.9998 23.0645H27.1795C27.6325 23.0645 27.9998 23.4317 27.9998 23.8848V27.1797C27.9998 27.6327 27.6325 28 27.1795 28H13.9998C13.5468 28 13.1795 27.6327 13.1795 27.1797V23.8848C13.1795 23.4317 13.5467 23.0645 13.9998 23.0645ZM0.722553 21.209L9.46681 12.4648L12.9567 15.9547L4.21254 24.699C3.73146 25.18 3.09949 25.4206 2.46758 25.4206C1.83566 25.4206 1.20369 25.1801 0.722607 24.699C-0.239619 23.7368 -0.239619 22.1712 0.722553 21.209ZM9.45527 10.1355L15.2742 4.31655L21.1028 10.1451L15.2839 15.9641L9.45527 10.1355ZM24.0115 10.7198L25.1813 11.8896C25.5016 12.2099 25.5016 12.7293 25.1813 13.0496L18.1916 20.0393C18.0315 20.1994 17.8215 20.2795 17.6116 20.2795C17.4017 20.2795 17.1917 20.1995 17.0316 20.0393L15.8619 18.8695C15.5415 18.5491 15.5415 18.0298 15.8619 17.7094L22.8514 10.7198C23.1718 10.3994 23.6911 10.3994 24.0115 10.7198ZM7.71216 9.55971C7.3918 9.88007 6.87243 9.88007 6.55207 9.55971L5.38231 8.38994C5.06195 8.06958 5.06195 7.55022 5.38231 7.22986L12.3719 0.240249C12.6921 -0.0800556 13.2115 -0.0801103 13.5319 0.240249L14.7017 1.41001C15.0221 1.73037 15.0221 2.24974 14.7017 2.5701L7.71216 9.55971Z" fill="#003399"/>
</g>
</svg>
