<svg width="32" height="32" viewBox="0 0 32 32" fill="none" xmlns="http://www.w3.org/2000/svg">
<g id="Group">
<path id="Vector" d="M24.0593 11.978L16.2655 8.42959C16.191 8.39571 16.1102 8.37817 16.0284 8.37817C15.9466 8.37817 15.8657 8.39571 15.7912 8.42959L7.98597 11.9837C8.12196 12.0477 16.0255 15.5378 16.0255 15.5378C16.8369 15.1812 24.0593 11.978 24.0593 11.978ZM7.42029 12.9779V22.6345C7.4206 22.7512 7.45702 22.8649 7.52455 22.96C7.59207 23.0552 7.68738 23.1271 7.79741 23.1659L15.4541 25.9886V16.532C15.137 16.3851 7.53457 13.0276 7.42029 12.9779ZM16.5969 16.5377V25.9886L24.2536 23.1659C24.3636 23.1271 24.459 23.0552 24.5265 22.96C24.594 22.8649 24.6304 22.7512 24.6307 22.6345V12.9779C24.5159 13.0208 16.7843 16.4703 16.5969 16.5377Z" fill="#003399"/>
<path id="Vector_2" d="M29.1332 21.7492V11.2355C29.1319 10.7702 29.0089 10.3134 28.7764 9.91042C28.5438 9.50744 28.2098 9.17236 27.8076 8.93848C27.8076 8.93277 18.7584 3.72735 18.7681 3.71592C18.8896 3.32079 18.9244 2.90409 18.87 2.49429C18.8157 2.08449 18.6735 1.69126 18.4532 1.34146C18.2329 0.991655 17.9397 0.693535 17.5936 0.46747C17.2475 0.241404 16.8567 0.0927217 16.4478 0.0315827C16.039 -0.0295562 15.6218 -0.0017104 15.2247 0.113217C14.8276 0.228145 14.46 0.427446 14.147 0.697499C13.834 0.967553 13.583 1.30199 13.4112 1.67797C13.2393 2.05394 13.1507 2.46258 13.1513 2.87597C13.1512 3.16294 13.1956 3.4482 13.2827 3.72163L4.24321 8.93848C3.841 9.17236 3.50701 9.50744 3.27444 9.91042C3.04188 10.3134 2.91885 10.7702 2.91757 11.2355V21.7035C2.21815 21.8419 1.59498 22.2349 1.16875 22.8065C0.742527 23.3781 0.543579 24.0875 0.610439 24.7973C0.677298 25.5072 1.00521 26.167 1.53066 26.6489C2.05611 27.1308 2.74171 27.4006 3.45468 27.406C3.86805 27.4069 4.27661 27.3173 4.6517 27.1436C5.02679 26.9699 5.35933 26.7162 5.62599 26.4003L14.6998 31.64C15.1018 31.8757 15.5594 32 16.0254 32C16.4914 32 16.949 31.8757 17.351 31.64L26.2934 26.4746C26.5959 26.8023 26.9705 27.0551 27.3876 27.2129C27.8047 27.3707 28.2528 27.4292 28.6965 27.3837C29.1401 27.3382 29.5671 27.1901 29.9435 26.951C30.3199 26.7119 30.6355 26.3884 30.8652 26.0061C31.095 25.6239 31.2325 25.1934 31.267 24.7488C31.3014 24.3041 31.2319 23.8576 31.0638 23.4445C30.8957 23.0314 30.6338 22.6632 30.2987 22.3689C29.9636 22.0746 29.5646 21.8625 29.1332 21.7492ZM16.7796 30.6515C16.5502 30.7835 16.2901 30.8529 16.0254 30.8529C15.7607 30.8529 15.5006 30.7835 15.2712 30.6515L6.18596 25.4061C6.2828 25.1249 6.3311 24.8293 6.32881 24.5319C6.32839 23.8741 6.10326 23.2362 5.6907 22.7239C5.27814 22.2116 4.70293 21.8556 4.06036 21.7149V11.2355C4.06126 10.9706 4.13132 10.7105 4.26361 10.481C4.3959 10.2515 4.58583 10.0605 4.81461 9.927L13.8312 4.72158C14.0997 5.04348 14.4357 5.30245 14.8154 5.48016C15.195 5.65787 15.6091 5.74999 16.0283 5.74999C16.4474 5.74999 16.8615 5.65787 17.2412 5.48016C17.6208 5.30245 17.9568 5.04348 18.2253 4.72158L27.2362 9.927C27.465 10.0605 27.6549 10.2515 27.7872 10.481C27.9195 10.7105 27.9895 10.9706 27.9904 11.2355V21.6863C27.3058 21.7839 26.6795 22.1256 26.2269 22.6485C25.7744 23.1715 25.526 23.8403 25.5277 24.5319C25.5255 24.8634 25.5836 25.1925 25.6991 25.5033L16.7796 30.6515Z" fill="#003399"/>
</g>
</svg>
