<svg width="26" height="28" viewBox="0 0 26 28" fill="none" xmlns="http://www.w3.org/2000/svg">
<g id="Group">
<path id="Layer 2" d="M23.8222 3.62912C22.0489 3.44032 20.3036 3.04571 18.6215 2.45327C17.078 1.90777 15.5974 1.19829 14.2052 0.337008C13.8419 0.116566 13.4251 0 13.0002 0C12.5753 0 12.1585 0.116566 11.7953 0.337008L11.7939 0.338331C10.402 1.19892 8.92186 1.90795 7.37889 2.45327C5.69766 3.04547 3.95325 3.44007 2.18083 3.62912C1.61147 3.6871 1.08389 3.95431 0.700264 4.37899C0.316634 4.80367 0.104251 5.3556 0.104248 5.9279V12.7991C0.105212 15.3347 0.783806 17.8239 2.06979 20.0092C3.35577 22.1944 5.20241 23.9963 7.41857 25.2282L11.8759 27.7055C12.2192 27.8986 12.6064 28 13.0002 28C13.394 28 13.7812 27.8986 14.1245 27.7055L18.5818 25.2282C20.798 23.9963 22.6446 22.1944 23.9306 20.0092C25.2166 17.8239 25.8952 15.3347 25.8962 12.7991V5.92923C25.8969 5.35688 25.6852 4.80464 25.302 4.37946C24.9189 3.95429 24.3916 3.68776 23.8222 3.62912ZM18.2631 11.5677L13.3031 16.8584C13.0675 17.1097 12.743 17.2591 12.3988 17.2747C12.0546 17.2902 11.718 17.1708 11.4606 16.9417L8.48464 14.2964C8.34824 14.183 8.23604 14.0433 8.15471 13.8857C8.07339 13.7281 8.0246 13.5557 8.01126 13.3788C7.99791 13.2019 8.02028 13.0242 8.07703 12.8561C8.13379 12.6881 8.22376 12.5331 8.3416 12.4006C8.45945 12.268 8.60275 12.1605 8.76299 12.0844C8.92324 12.0083 9.09714 11.9653 9.27436 11.9578C9.45158 11.9503 9.6285 11.9786 9.79458 12.0408C9.96067 12.1031 10.1125 12.1982 10.2411 12.3203L12.2555 14.1099L16.3346 9.75833C16.4584 9.62667 16.6078 9.52168 16.7736 9.4498C16.9394 9.37793 17.1181 9.34069 17.2989 9.34037C17.5569 9.34024 17.8093 9.41558 18.0251 9.55713C18.2408 9.69867 18.4105 9.90023 18.5131 10.137C18.6157 10.3737 18.6469 10.6353 18.6027 10.8895C18.5585 11.1438 18.4396 11.3795 18.2631 11.5677Z" fill="#003399"/>
</g>
</svg>
