<svg width="24" height="28" viewBox="0 0 24 28" fill="none" xmlns="http://www.w3.org/2000/svg">
<g id="Group">
<path id="Vector" fill-rule="evenodd" clip-rule="evenodd" d="M18.3333 13.8214C18.5101 13.5152 18.8014 13.2917 19.1429 13.2002C19.4845 13.1087 19.8484 13.1566 20.1547 13.3334L22.464 14.6667C22.7702 14.8436 22.9937 15.1348 23.0852 15.4764C23.1767 15.8179 23.1288 16.1818 22.952 16.4881L17.776 25.4534C17.673 25.6328 17.5291 25.7854 17.356 25.8987L14.868 27.5414C14.6614 27.6777 14.4209 27.7539 14.1735 27.7613C13.9261 27.7687 13.6815 27.7071 13.4672 27.5833C13.2528 27.4596 13.0771 27.2786 12.9597 27.0607C12.8424 26.8428 12.788 26.5965 12.8027 26.3494L12.9813 23.3734C12.9931 23.1668 13.0534 22.9658 13.1573 22.7867L18.3333 13.8214ZM10.2373 27.3334C10.1499 26.9588 10.1171 26.5734 10.14 26.1894L10.3187 23.2134C10.356 22.5934 10.5373 21.9907 10.848 21.4534L16.024 12.4881C16.5544 11.5694 17.4281 10.899 18.4528 10.6245C19.4775 10.3499 20.5693 10.4937 21.488 11.0241L21.6667 11.1267V4.66675C21.6667 3.60588 21.2452 2.58847 20.4951 1.83832C19.7449 1.08818 18.7275 0.666748 17.6667 0.666748H4.33333C3.272 0.666748 2.25467 1.08808 1.50533 1.83875C1.13364 2.20992 0.838794 2.65076 0.637687 3.13603C0.436579 3.62129 0.333154 4.14146 0.333332 4.66675V23.3334C0.333332 24.3947 0.754666 25.4121 1.50533 26.1614C1.87651 26.5331 2.31734 26.828 2.80261 27.0291C3.28788 27.2302 3.80804 27.3336 4.33333 27.3334H10.2373ZM5.66667 19.3334H8.56667C8.92029 19.3334 9.25943 19.1929 9.50947 18.9429C9.75952 18.6928 9.9 18.3537 9.9 18.0001C9.9 17.6465 9.75952 17.3073 9.50947 17.0573C9.25943 16.8072 8.92029 16.6667 8.56667 16.6667H5.66667C5.31304 16.6667 4.97391 16.8072 4.72386 17.0573C4.47381 17.3073 4.33333 17.6465 4.33333 18.0001C4.33333 18.3537 4.47381 18.6928 4.72386 18.9429C4.97391 19.1929 5.31304 19.3334 5.66667 19.3334ZM5.66667 14.0001H11.4667C11.8203 14.0001 12.1594 13.8596 12.4095 13.6096C12.6595 13.3595 12.8 13.0204 12.8 12.6667C12.8 12.3131 12.6595 11.974 12.4095 11.7239C12.1594 11.4739 11.8203 11.3334 11.4667 11.3334H5.66667C5.31304 11.3334 4.97391 11.4739 4.72386 11.7239C4.47381 11.974 4.33333 12.3131 4.33333 12.6667C4.33333 13.0204 4.47381 13.3595 4.72386 13.6096C4.97391 13.8596 5.31304 14.0001 5.66667 14.0001ZM5.66667 8.66675H13.6667C14.0203 8.66675 14.3594 8.52627 14.6095 8.27622C14.8595 8.02618 15 7.68704 15 7.33342C15 6.97979 14.8595 6.64065 14.6095 6.39061C14.3594 6.14056 14.0203 6.00008 13.6667 6.00008H5.66667C5.31304 6.00008 4.97391 6.14056 4.72386 6.39061C4.47381 6.64065 4.33333 6.97979 4.33333 7.33342C4.33333 7.68704 4.47381 8.02618 4.72386 8.27622C4.97391 8.52627 5.31304 8.66675 5.66667 8.66675Z" fill="#003399"/>
</g>
</svg>
