<svg width="30" height="26" viewBox="0 0 30 26" fill="none" xmlns="http://www.w3.org/2000/svg">
<g id="Group">
<path id="Vector" fill-rule="evenodd" clip-rule="evenodd" d="M13.5289 23.3866C11.2364 23.3865 8.94394 23.3862 6.6515 23.3862C6.62122 23.386 6.59121 23.3918 6.56321 23.4034C6.53521 23.4149 6.50977 23.4319 6.48839 23.4533C6.467 23.4748 6.45009 23.5002 6.43863 23.5283C6.42717 23.5563 6.42139 23.5863 6.42163 23.6166C6.42163 24.1803 6.42269 24.744 6.42325 25.3078C6.42338 25.433 6.52875 25.5377 6.65375 25.5377L13.5311 25.5382C13.6616 25.538 13.7593 25.4367 13.7593 25.307L13.7594 23.6165C13.7593 23.4913 13.6539 23.3866 13.5289 23.3866ZM17.4534 22.515L22.0874 22.5147L22.297 21.6334C22.4358 21.0499 22.757 20.5828 23.2511 20.2432L26.0396 18.3279C26.7391 17.8472 27.1039 16.7275 27.3934 15.8392C28.0895 13.7015 28.7998 11.5674 29.5033 9.43204C29.6544 8.97304 29.5129 8.43673 29.2152 8.0831C29.1065 7.95398 28.977 7.85285 28.8351 7.79504C28.7045 7.74099 28.5602 7.72973 28.4228 7.76285C28.0027 7.86248 27.5229 8.33266 27.071 9.39923L25.4504 13.2247C25.5886 13.3317 25.7106 13.4583 25.8126 13.6004C26.3968 14.4137 26.2108 15.5529 25.3973 16.1373L22.1071 18.5007C22.0606 18.5347 22.0079 18.5592 21.952 18.5727C21.8961 18.5863 21.838 18.5886 21.7812 18.5796C21.7243 18.5706 21.6698 18.5504 21.6208 18.5202C21.5718 18.49 21.5293 18.4505 21.4956 18.4037C21.462 18.357 21.438 18.3041 21.4249 18.2481C21.4118 18.192 21.41 18.1339 21.4195 18.0772C21.429 18.0204 21.4496 17.9661 21.4803 17.9173C21.5109 17.8686 21.5508 17.8264 21.5978 17.7932L24.888 15.4298C25.309 15.1274 25.4076 14.5309 25.1051 14.1097C24.8027 13.6887 24.2061 13.5902 23.7849 13.8927L21.3092 15.671C21.2668 15.7014 21.2194 15.724 21.1691 15.7376C20.0873 16.0345 19.4782 16.407 19.1019 16.8915C18.7224 17.3802 18.5484 18.0274 18.3571 18.84C18.0726 20.0476 17.7701 21.253 17.4676 22.4582L17.4534 22.515ZM15.625 3.23385C16.575 1.38591 17.525 0.461914 19.425 0.461914C21.5226 0.461914 23.225 2.11766 23.225 4.15779C23.225 7.85373 19.425 10.2996 15.6249 13.9955C11.825 10.2996 8.025 7.85373 8.025 4.15779C8.025 2.11766 9.72738 0.461914 11.825 0.461914C13.725 0.461914 14.675 1.38585 15.625 3.23385ZM16.2406 23.6165L16.2407 25.3077C16.2407 25.4369 16.3391 25.5381 16.4689 25.5382C18.7613 25.5382 21.0538 25.538 23.3463 25.5378C23.4077 25.5378 23.4659 25.5122 23.5092 25.4689C23.5305 25.4478 23.5474 25.4227 23.559 25.3951C23.5706 25.3675 23.5766 25.3378 23.5768 25.3078C23.5773 24.7441 23.5784 24.1804 23.5784 23.6167C23.5786 23.5864 23.5728 23.5564 23.5614 23.5283C23.5499 23.5003 23.533 23.4748 23.5116 23.4534C23.4902 23.4319 23.4648 23.415 23.4368 23.4034C23.4088 23.3919 23.3788 23.3861 23.3485 23.3862L16.4711 23.3867C16.3461 23.3866 16.2408 23.4913 16.2406 23.6165ZM7.91263 22.5147L12.5466 22.515L12.5325 22.4586C12.23 21.2533 11.9274 20.0478 11.643 18.8401C11.4516 18.0275 11.2777 17.3803 10.8981 16.8915C10.5218 16.407 9.91282 16.0346 8.831 15.7377C8.78069 15.724 8.73323 15.7014 8.69088 15.671L6.21507 13.8927C5.79394 13.5902 5.19738 13.6887 4.89494 14.1097C4.59244 14.5309 4.69094 15.1274 5.11194 15.4297L8.40219 17.7932C8.44919 17.8264 8.48915 17.8686 8.51975 17.9173C8.55036 17.9661 8.57101 18.0204 8.58051 18.0772C8.59001 18.1339 8.58817 18.192 8.5751 18.2481C8.56204 18.3041 8.538 18.357 8.50437 18.4037C8.47075 18.4505 8.42821 18.49 8.3792 18.5202C8.3302 18.5504 8.2757 18.5706 8.21885 18.5796C8.16201 18.5886 8.10394 18.5863 8.048 18.5727C7.99206 18.5592 7.93936 18.5347 7.89294 18.5007L4.60269 16.1372C3.78007 15.5462 3.61082 14.4264 4.18744 13.6004C4.28935 13.4583 4.41136 13.3317 4.54963 13.2247L2.929 9.39929C2.47719 8.33273 1.99732 7.8626 1.57719 7.76291C1.43983 7.72979 1.2955 7.74106 1.16494 7.7951C1.023 7.85291 0.893504 7.95404 0.784816 8.08316C0.487066 8.43679 0.345504 8.9731 0.496754 9.4321C1.20025 11.5674 1.9105 13.7016 2.60663 15.8392C2.896 16.7275 3.26088 17.8472 3.96032 18.328L6.74707 20.2432C7.24313 20.5841 7.5635 21.0475 7.70294 21.6335L7.91263 22.5147Z" fill="#003399"/>
</g>
</svg>
