<svg width="35" height="42" viewBox="0 0 35 42" fill="none" xmlns="http://www.w3.org/2000/svg">
<g id="Group">
<path id="Vector" fill-rule="evenodd" clip-rule="evenodd" d="M27 20.232C27.2652 19.7727 27.7021 19.4375 28.2144 19.3002C28.7267 19.1629 29.2726 19.2348 29.732 19.5L33.196 21.5C33.6553 21.7652 33.9905 22.2021 34.1278 22.7144C34.2651 23.2267 34.1932 23.7726 33.928 24.232L26.164 37.68C26.0094 37.9491 25.7936 38.1779 25.534 38.348L21.802 40.812C21.4921 41.0165 21.1314 41.1307 20.7603 41.1418C20.3892 41.1529 20.0223 41.0605 19.7007 40.8749C19.3792 40.6893 19.1156 40.4179 18.9396 40.091C18.7635 39.7641 18.682 39.3946 18.704 39.024L18.972 34.56C18.9897 34.25 19.0802 33.9485 19.236 33.68L27 20.232ZM14.856 40.5C14.7249 39.938 14.6757 39.36 14.71 38.784L14.978 34.32C15.034 33.39 15.306 32.486 15.772 31.68L23.536 18.232C24.3317 16.854 25.6422 15.8484 27.1792 15.4366C28.7162 15.0248 30.3539 15.2404 31.732 16.036L32 16.19V6.5C32 4.9087 31.3679 3.38258 30.2426 2.25736C29.1174 1.13214 27.5913 0.5 26 0.5H6C4.408 0.5 2.882 1.132 1.758 2.258C1.20046 2.81476 0.758193 3.47602 0.456532 4.20392C0.15487 4.93182 -0.000267132 5.71207 3.45286e-07 6.5V34.5C3.45286e-07 36.092 0.632001 37.618 1.758 38.742C2.31476 39.2995 2.97602 39.7418 3.70392 40.0435C4.43182 40.3451 5.21207 40.5003 6 40.5H14.856ZM8 28.5H12.35C12.8804 28.5 13.3891 28.2893 13.7642 27.9142C14.1393 27.5391 14.35 27.0304 14.35 26.5C14.35 25.9696 14.1393 25.4609 13.7642 25.0858C13.3891 24.7107 12.8804 24.5 12.35 24.5H8C7.46957 24.5 6.96086 24.7107 6.58579 25.0858C6.21071 25.4609 6 25.9696 6 26.5C6 27.0304 6.21071 27.5391 6.58579 27.9142C6.96086 28.2893 7.46957 28.5 8 28.5ZM8 20.5H16.7C17.2304 20.5 17.7391 20.2893 18.1142 19.9142C18.4893 19.5391 18.7 19.0304 18.7 18.5C18.7 17.9696 18.4893 17.4609 18.1142 17.0858C17.7391 16.7107 17.2304 16.5 16.7 16.5H8C7.46957 16.5 6.96086 16.7107 6.58579 17.0858C6.21071 17.4609 6 17.9696 6 18.5C6 19.0304 6.21071 19.5391 6.58579 19.9142C6.96086 20.2893 7.46957 20.5 8 20.5ZM8 12.5H20C20.5304 12.5 21.0391 12.2893 21.4142 11.9142C21.7893 11.5391 22 11.0304 22 10.5C22 9.96957 21.7893 9.46086 21.4142 9.08579C21.0391 8.71071 20.5304 8.5 20 8.5H8C7.46957 8.5 6.96086 8.71071 6.58579 9.08579C6.21071 9.46086 6 9.96957 6 10.5C6 11.0304 6.21071 11.5391 6.58579 11.9142C6.96086 12.2893 7.46957 12.5 8 12.5Z" fill="white"/>
</g>
</svg>
