<svg width="30" height="30" viewBox="0 0 30 30" fill="none" xmlns="http://www.w3.org/2000/svg">
<g id="Group">
<path id="Vector" d="M1.60869 26.1113H7.04953V8.8358H1.60869V26.1113ZM2.91558 11.7264C2.91558 11.4723 3.11524 11.2726 3.36482 11.2726H5.2934C5.54298 11.2726 5.74718 11.4723 5.74718 11.7264V13.655C5.74718 13.9045 5.54298 14.1087 5.2934 14.1087H3.36482C3.11524 14.1087 2.91558 13.9045 2.91558 13.655V11.7264ZM2.91558 16.5093C2.91558 16.2551 3.11524 16.0555 3.36482 16.0555H5.2934C5.54298 16.0555 5.74718 16.2551 5.74718 16.5093V18.4378C5.74718 18.6874 5.54298 18.8916 5.2934 18.8916H3.36482C3.11524 18.8916 2.91558 18.6874 2.91558 18.4378V16.5093ZM2.91558 21.2921C2.91558 21.0425 3.11524 20.8383 3.36482 20.8383H5.2934C5.54298 20.8383 5.74718 21.0425 5.74718 21.2921V23.2207C5.74718 23.4703 5.54298 23.6745 5.2934 23.6745H3.36482C3.11524 23.6745 2.91558 23.4703 2.91558 23.2207V21.2921ZM22.95 26.1113H28.3909V8.8358H22.95V26.1113ZM24.2569 11.7264C24.2569 11.4723 24.4566 11.2726 24.7062 11.2726H26.6347C26.8843 11.2726 27.0885 11.4723 27.0885 11.7264V13.655C27.0885 13.9045 26.8843 14.1087 26.6347 14.1087H24.7062C24.4566 14.1087 24.2569 13.9045 24.2569 13.655V11.7264ZM24.2569 16.5093C24.2569 16.2551 24.4566 16.0555 24.7062 16.0555H26.6347C26.8843 16.0555 27.0885 16.2551 27.0885 16.5093V18.4378C27.0885 18.6874 26.8843 18.8916 26.6347 18.8916H24.7062C24.4566 18.8916 24.2569 18.6874 24.2569 18.4378V16.5093ZM24.2569 21.2921C24.2569 21.0425 24.4566 20.8383 24.7062 20.8383H26.6347C26.8843 20.8383 27.0885 21.0425 27.0885 21.2921V23.2207C27.0885 23.4703 26.8843 23.6745 26.6347 23.6745H24.7062C24.4566 23.6745 24.2569 23.4703 24.2569 23.2207V21.2921ZM22.2694 26.1113V3.88959H7.7302V26.1113H11.306V20.1713C11.306 19.4135 11.9231 18.8008 12.6764 18.8008H17.3231C18.0764 18.8008 18.6936 19.4135 18.6936 20.1713V26.1113H22.2694ZM13.4206 15.8286C13.4206 16.0782 13.2164 16.2824 12.9668 16.2824H10.1307C9.88113 16.2824 9.68146 16.0782 9.68146 15.8286V13.9C9.68146 13.6459 9.88113 13.4462 10.1307 13.4462H12.9668C13.2164 13.4462 13.4206 13.6459 13.4206 13.9V15.8286ZM11.8551 8.73144C11.8551 7.0706 13.2028 5.7274 14.8636 5.7274C16.52 5.7274 17.8677 7.0706 17.8677 8.73144C17.8677 10.3923 16.52 11.74 14.8636 11.74C13.2028 11.74 11.8551 10.3923 11.8551 8.73144ZM16.7514 16.2824C16.5018 16.2824 16.3021 16.0782 16.3021 15.8286V13.9C16.3021 13.6459 16.5018 13.4462 16.7514 13.4462H19.5875C19.8371 13.4462 20.0413 13.6459 20.0413 13.9V15.8286C20.0413 16.0782 19.8371 16.2824 19.5875 16.2824H16.7514ZM7.98387 3.20846H22.2281C22.556 3.20846 22.8705 3.07818 23.1024 2.84628C23.3343 2.61438 23.4646 2.29986 23.4646 1.97191C23.4646 1.64395 23.3343 1.32943 23.1024 1.09753C22.8705 0.865631 22.556 0.735352 22.2281 0.735352H7.98387C7.64353 0.735352 7.33496 0.876024 7.11261 1.09838C6.89025 1.32073 6.74958 1.6293 6.74958 1.96964C6.74958 2.65485 7.30319 3.20846 7.98387 3.20846ZM28.2833 26.7901H1.71624C1.55177 26.787 1.38832 26.8167 1.23545 26.8774C1.08259 26.9382 0.943368 27.0288 0.825941 27.144C0.708513 27.2592 0.615233 27.3967 0.551555 27.5483C0.487876 27.7 0.455078 27.8629 0.455078 28.0274C0.455078 28.1919 0.487876 28.3547 0.551555 28.5064C0.615233 28.6581 0.708513 28.7955 0.825941 28.9107C0.943368 29.0259 1.08259 29.1165 1.23545 29.1773C1.38832 29.2381 1.55177 29.2677 1.71624 29.2646H28.2833C28.6074 29.2584 28.916 29.1253 29.143 28.894C29.37 28.6626 29.4971 28.3515 29.4971 28.0274C29.4971 27.7033 29.37 27.3921 29.143 27.1608C28.916 26.9294 28.6074 26.7963 28.2833 26.7901ZM22.9518 8.15377H27.9434C28.2716 8.15377 28.5864 8.0234 28.8185 7.79133C29.0505 7.55926 29.1809 7.2445 29.1809 6.91631C29.1809 6.58811 29.0505 6.27336 28.8185 6.04129C28.5864 5.80922 28.2716 5.67885 27.9434 5.67885H22.9518V8.15377ZM2.05657 8.15377H7.04772V5.67885H2.05612C1.72792 5.67885 1.41317 5.80922 1.1811 6.04129C0.949031 6.27336 0.818656 6.58811 0.818656 6.91631C0.818656 7.2445 0.949031 7.55926 1.1811 7.79133C1.41317 8.0234 1.72792 8.15377 2.05612 8.15377H2.05657Z" fill="#003399"/>
<path id="Vector_2" d="M16.4367 7.82204C16.3915 7.74397 16.3172 7.68703 16.2301 7.66371C16.143 7.6404 16.0501 7.65263 15.972 7.6977L15.2019 8.14241V7.25299C15.2019 7.16273 15.1661 7.07617 15.1023 7.01234C15.0384 6.94852 14.9519 6.91266 14.8616 6.91266C14.7713 6.91266 14.6848 6.94852 14.621 7.01234C14.5571 7.07617 14.5213 7.16273 14.5213 7.25299V8.14241L13.7517 7.6977C13.6735 7.65328 13.581 7.64157 13.4943 7.66511C13.4075 7.68866 13.3336 7.74556 13.2887 7.82339C13.2438 7.90122 13.2314 7.99366 13.2544 8.08055C13.2774 8.16744 13.3338 8.24171 13.4113 8.28716L14.1814 8.73187L13.4113 9.17658C13.371 9.19805 13.3354 9.22742 13.3067 9.26294C13.278 9.29846 13.2567 9.3394 13.2441 9.38332C13.2315 9.42725 13.2279 9.47325 13.2335 9.51859C13.2391 9.56393 13.2538 9.60769 13.2766 9.64724C13.2995 9.6868 13.3301 9.72135 13.3665 9.74883C13.403 9.77632 13.4447 9.79617 13.489 9.80722C13.5334 9.81826 13.5795 9.82027 13.6246 9.81311C13.6697 9.80596 13.7129 9.7898 13.7517 9.76558L14.5213 9.32088V10.2103C14.5213 10.3006 14.5571 10.3871 14.621 10.4509C14.6848 10.5148 14.7713 10.5506 14.8616 10.5506C14.9519 10.5506 15.0384 10.5148 15.1023 10.4509C15.1661 10.3871 15.2019 10.3006 15.2019 10.2103V9.32088L15.972 9.76558C16.0499 9.80705 16.1408 9.81666 16.2256 9.79238C16.3104 9.76811 16.3825 9.71184 16.4267 9.63546C16.4708 9.55907 16.4836 9.46853 16.4622 9.38292C16.4409 9.29731 16.3872 9.22333 16.3123 9.17658L15.5423 8.73187L16.3123 8.28716C16.3511 8.2648 16.385 8.23502 16.4122 8.19954C16.4394 8.16405 16.4593 8.12356 16.4709 8.08036C16.4824 8.03717 16.4854 7.99212 16.4795 7.9478C16.4736 7.90347 16.4591 7.86074 16.4367 7.82204Z" fill="#003399"/>
</g>
</svg>
