<svg width="216" height="282" viewBox="0 0 216 282" fill="none" xmlns="http://www.w3.org/2000/svg">
<g id="Group 41607">
<path id="Vector" d="M59.6208 162.624C53.0965 158.243 44.831 147.692 40.9212 140.931C29.4154 121.036 26.077 98.3676 32.0452 76.108C37.3556 56.302 51.2513 37.5802 69.1082 27.336C72.2057 25.5591 75.4374 23.7347 78.7082 22.2933C96.2808 14.5475 115.48 13.6205 133.9 18.6578C134.528 18.8346 135.153 19.0189 135.777 19.2108C136.4 19.4027 137.021 19.602 137.639 19.8086C138.258 20.0155 138.874 20.2299 139.487 20.4518C140.1 20.6734 140.711 20.9025 141.319 21.139C141.927 21.3755 142.531 21.6194 143.133 21.8707C143.735 22.1218 144.334 22.3801 144.93 22.6458C145.525 22.9114 146.117 23.1842 146.706 23.4643C147.295 23.7441 147.881 24.0311 148.463 24.3253C149.045 24.6193 149.624 24.9204 150.199 25.2284C150.773 25.5365 151.344 25.8515 151.911 26.1733C152.479 26.4952 153.042 26.824 153.601 27.1595C154.16 27.495 154.716 27.8372 155.267 28.1862C155.817 28.5351 156.364 28.8906 156.906 29.2528C157.449 29.6148 157.987 29.9835 158.52 30.3588C159.054 30.7339 159.583 31.1155 160.107 31.5034C160.631 31.8913 161.151 32.2855 161.665 32.6859C162.18 33.0866 162.69 33.4933 163.195 33.906C163.7 34.3189 164.199 34.7378 164.694 35.1627C165.189 35.5876 165.679 36.0184 166.163 36.455C166.647 36.8918 167.126 37.3344 167.6 37.7827C168.074 38.2309 168.542 38.685 169.004 39.1448C169.467 39.6044 169.924 40.0696 170.375 40.5403C170.827 41.011 171.272 41.487 171.712 41.9683C172.152 42.4499 172.586 42.9366 173.015 43.4285C173.443 43.9205 173.865 44.4176 174.281 44.9198C174.697 45.4219 175.107 45.9291 175.511 46.4412C175.914 46.9532 176.312 47.47 176.703 47.9917C177.095 48.5134 177.48 49.0398 177.858 49.571C178.237 50.102 178.609 50.6374 178.975 51.1773C179.341 51.7173 179.7 52.2616 180.052 52.8103C180.405 53.359 180.751 53.9119 181.09 54.4691C181.429 55.026 181.761 55.587 182.087 56.1522C182.504 56.8839 182.91 57.6216 183.305 58.3654C183.7 59.1092 184.084 59.8586 184.457 60.6136C184.83 61.3686 185.191 62.1291 185.542 62.8949C185.892 63.6607 186.231 64.4317 186.558 65.2078C186.886 65.9837 187.201 66.7642 187.506 67.5495C187.81 68.3347 188.103 69.1243 188.383 69.9181C188.664 70.712 188.933 71.5099 189.191 72.3119C189.448 73.1138 189.693 73.9193 189.927 74.7286C190.16 75.5378 190.381 76.3502 190.59 77.166C190.8 77.9818 190.997 78.8005 191.182 79.6221C191.367 80.4437 191.539 81.2678 191.7 82.0946C191.86 82.9211 192.009 83.75 192.145 84.5812C192.281 85.4124 192.404 86.2454 192.516 87.0802C192.627 87.9149 192.726 88.7511 192.812 89.5887C192.898 90.4266 192.972 91.2654 193.034 92.1053C193.095 92.9451 193.145 93.7857 193.181 94.6271C193.268 96.6235 193.617 99.4022 193.086 101.324L192.874 101.159C192.884 100.398 192.981 99.6444 193.027 98.8847C193.059 98.3665 193.027 98.0323 192.668 97.6266C192.253 97.4435 192.067 97.418 191.619 97.4903C190.607 98.3958 191.275 99.6841 190.842 100.838C190.811 100.92 190.776 101.001 190.743 101.083C190.692 98.8681 190.888 96.6298 190.731 94.422C189.158 72.1926 181.164 54.1511 164.962 38.7114C149.95 24.4059 129.527 17.2387 108.937 17.7847C108.286 17.8057 107.635 17.8347 106.985 17.8716C106.335 17.9088 105.685 17.9537 105.036 18.0064C104.387 18.0593 103.739 18.1202 103.091 18.189C102.444 18.2578 101.797 18.3344 101.151 18.4189C100.506 18.5037 99.8613 18.5962 99.2179 18.6965C98.5744 18.7971 97.9323 18.9054 97.2915 19.0216C96.6506 19.1375 96.0113 19.2615 95.3735 19.3934C94.7358 19.5251 94.0997 19.6647 93.4654 19.8122C92.831 19.9595 92.1987 20.1146 91.5682 20.2776C90.9378 20.4403 90.3094 20.6108 89.6831 20.7891C89.0567 20.9674 88.4326 21.1533 87.8106 21.3469C87.1889 21.5403 86.5695 21.7415 85.9526 21.9504C85.3357 22.159 84.7215 22.3752 84.1101 22.599C83.4985 22.8228 82.8897 23.054 82.2838 23.2927C81.6779 23.5314 81.075 23.7775 80.4751 24.031C79.8753 24.2843 79.2786 24.545 78.6852 24.8132C78.0916 25.0814 77.5014 25.3567 76.9147 25.6391C76.328 25.9216 75.7448 26.2112 75.1651 26.508C74.5854 26.8048 74.0095 27.1088 73.4374 27.4198C72.8652 27.7306 72.2969 28.0485 71.7325 28.3734C71.1679 28.6982 70.6076 29.0299 70.0514 29.3685C69.495 29.7071 68.9429 30.0524 68.3949 30.4045C67.8472 30.7566 67.3038 31.1153 66.7649 31.4806C66.2258 31.8461 65.6913 32.2181 65.1612 32.5966C64.6314 32.9751 64.1062 33.36 63.5857 33.7511C63.0651 34.1425 62.5494 34.5402 62.0388 34.9443C61.5279 35.3484 61.0221 35.7586 60.5214 36.175C60.0208 36.5912 59.5252 37.0136 59.0348 37.4422C58.5444 37.8708 58.0594 38.3052 57.5797 38.7456C57.1 39.186 56.6258 39.6322 56.1569 40.0842C55.6883 40.5362 55.225 40.9939 54.7672 41.4574C54.3097 41.9208 53.8579 42.3897 53.4119 42.8641C38.2922 58.8423 30.8196 79.8576 31.4754 101.746C31.5975 105.82 32.2204 109.734 33.036 113.721C36.3389 129.867 44.1046 144.98 56.1867 156.321C58.0784 158.097 60.0309 159.773 62.0279 161.427C61.3747 161.862 60.7679 162.282 60.0174 162.537L59.6893 162.409L59.6208 162.624Z" fill="#0066FF"/>
<path id="Vector_2" d="M173.15 182.342C175.378 180.91 178.725 179.339 181.389 179.101C181.919 179.323 182.548 179.543 183.004 179.896C184.759 181.253 188.042 186.272 189.389 188.274C189.158 188.312 188.893 188.347 188.686 188.185C188.241 187.835 187.82 187.214 187.426 186.794C185.921 185.191 183.228 182.004 181.376 180.951C178.599 179.371 176.176 182.799 173.317 182.37C173.262 182.361 173.206 182.351 173.15 182.342Z" fill="#0066FF"/>
<path id="Vector_3" d="M162.672 162.654L163.893 161.737C167.522 167.863 172.011 173.453 175.677 179.583L174.136 180.324C171.742 176.685 169.457 172.777 166.765 169.354C165.545 167.626 163.005 164.658 162.672 162.654Z" fill="#0066FF"/>
<path id="Vector_4" d="M151.228 170.569C153.015 169.216 155.003 168.071 156.851 166.793C158.802 165.442 160.659 163.908 162.672 162.654C163.005 164.658 165.545 167.626 166.765 169.354C163.659 168.447 160.828 168.163 157.881 169.77C155.761 170.927 154.809 172.484 153.931 174.64C152.917 173.374 152.039 171.972 151.228 170.569Z" fill="#0066FF"/>
<path id="Subtract" fill-rule="evenodd" clip-rule="evenodd" d="M190.744 101.083C190.754 101.058 190.764 101.033 190.774 101.008C190.798 100.952 190.821 100.895 190.843 100.838C191.014 100.381 191.013 99.9029 191.012 99.436C191.01 98.7238 191.009 98.0373 191.62 97.4904C192.067 97.4181 192.254 97.4436 192.669 97.6267C193.028 98.0324 193.06 98.3666 193.028 98.8848C193.011 99.1624 192.987 99.4391 192.963 99.7158L192.963 99.7159C192.922 100.196 192.881 100.676 192.875 101.16L193.086 101.324C193.286 104.121 192.779 107.246 192.318 110.088L192.318 110.088C192.262 110.433 192.207 110.774 192.154 111.11C189.746 126.27 183.621 140.454 173.518 152.111C172.035 153.822 170.437 155.405 168.84 156.987C167.506 158.309 166.172 159.63 164.906 161.025C166.773 164.369 169.005 167.501 171.237 170.634L171.237 170.634C173.215 173.41 175.193 176.187 176.918 179.111C177.083 179.042 177.25 178.971 177.418 178.898L177.418 178.898C179.065 178.193 180.892 177.411 182.654 178.09C183.663 178.479 184.292 179.293 184.932 180.121C185 180.21 185.069 180.299 185.138 180.388C186.429 182.037 187.659 183.744 188.887 185.451L188.888 185.451C189.699 186.578 190.51 187.704 191.338 188.813L214.378 220.105L235.276 248.257C236.251 249.557 237.28 250.81 238.308 252.064L238.309 252.065L238.309 252.065C239.59 253.626 240.871 255.186 242.046 256.835C242.632 257.657 242.633 258.586 242.451 259.546C241.387 265.156 234.193 271.489 229.639 274.636C226.482 276.555 221.878 278.768 218.073 277.92C214.42 277.106 211.426 272.42 209.272 269.049C209.001 268.624 208.742 268.219 208.498 267.846C206.477 264.748 204.364 261.703 202.25 258.66L202.249 258.658C200.848 256.64 199.447 254.622 198.073 252.589L170.556 211.858C170.132 211.229 169.408 210.199 168.538 208.96L168.538 208.96C165.643 204.84 161.126 198.41 160.624 196.74C159.827 194.081 161.046 191.856 162.277 189.609L162.39 189.403C161.703 188.181 160.899 187.009 160.1 185.845L160.099 185.844L160.099 185.844C159.809 185.421 159.52 185 159.237 184.577C158.251 183.103 157.241 181.64 156.231 180.176L156.231 180.175C154.164 177.178 152.094 174.177 150.214 171.075C148.828 171.628 147.478 172.308 146.128 172.988C145.036 173.538 143.944 174.089 142.831 174.572C141.936 174.966 141.033 175.343 140.123 175.702C139.213 176.061 138.296 176.403 137.373 176.727C136.45 177.051 135.521 177.357 134.586 177.645C133.651 177.933 132.711 178.202 131.765 178.454C130.82 178.706 129.87 178.939 128.915 179.154C127.961 179.37 127.003 179.566 126.041 179.744C125.079 179.922 124.114 180.082 123.145 180.223C122.177 180.364 121.207 180.486 120.234 180.589C97.8725 182.972 77.0929 176.729 59.6213 162.624L59.6898 162.409L60.0179 162.537C60.7258 162.297 61.3058 161.91 61.9175 161.501L62.0284 161.427C63.0038 162.314 64.162 163.119 65.2784 163.895C65.5863 164.109 65.8911 164.321 66.1879 164.532C76.7275 172.016 89.7583 176.763 102.608 178.108C103.123 178.162 103.638 178.211 104.153 178.255C104.669 178.299 105.184 178.338 105.701 178.371C106.217 178.405 106.733 178.434 107.25 178.457C107.767 178.481 108.284 178.499 108.801 178.513C109.318 178.526 109.836 178.535 110.353 178.538C110.87 178.541 111.388 178.539 111.905 178.532C112.422 178.525 112.94 178.513 113.456 178.496C113.973 178.479 114.49 178.457 115.007 178.429C115.524 178.402 116.04 178.369 116.556 178.332C117.072 178.294 117.588 178.252 118.103 178.204C118.618 178.156 119.133 178.104 119.647 178.046C120.161 177.988 120.674 177.925 121.187 177.857C121.7 177.789 122.212 177.717 122.724 177.639C123.235 177.561 123.746 177.477 124.256 177.389C124.765 177.302 125.274 177.209 125.782 177.11C126.29 177.012 126.797 176.909 127.303 176.801C127.809 176.693 128.314 176.58 128.817 176.462C129.321 176.344 129.824 176.221 130.325 176.093C130.826 175.965 131.326 175.833 131.825 175.695C132.324 175.557 132.821 175.415 133.317 175.267C133.813 175.12 134.307 174.967 134.8 174.81C135.293 174.653 135.784 174.49 136.274 174.323C136.763 174.157 137.251 173.985 137.738 173.808C138.224 173.632 138.708 173.451 139.191 173.264C139.674 173.078 140.155 172.887 140.634 172.692C141.113 172.496 141.59 172.296 142.065 172.091C142.54 171.886 143.013 171.676 143.484 171.462C143.954 171.248 144.423 171.029 144.89 170.805C145.356 170.582 145.821 170.354 146.283 170.122C146.745 169.889 147.205 169.652 147.662 169.41C148.12 169.168 148.574 168.922 149.027 168.671C149.48 168.421 149.93 168.166 150.377 167.906C154.278 165.618 158.061 162.823 161.572 159.972C175.267 148.857 185.441 132.413 189.062 115.13C189.782 111.693 190.081 108.318 190.385 104.894L190.385 104.894L190.385 104.893C190.497 103.631 190.609 102.363 190.744 101.083ZM153.932 174.641C154.81 172.485 155.762 170.927 157.882 169.771C160.829 168.164 163.66 168.448 166.766 169.354C168.7 171.814 170.424 174.524 172.129 177.205L172.129 177.205C172.797 178.255 173.463 179.3 174.136 180.324C169.975 182.536 166.602 185.019 163.427 188.512C161.355 185.192 159.077 181.964 156.808 178.747L156.807 178.746L156.807 178.746C155.842 177.378 154.878 176.011 153.932 174.641ZM173.318 182.37C173.262 182.361 173.207 182.351 173.151 182.343C169.132 184.068 163.781 188.963 162.12 193.052C161.695 194.098 161.345 195.185 161.821 196.262C163.126 199.21 166.107 203.289 168.622 206.731C169.491 207.919 170.304 209.032 170.973 209.995C173.625 213.816 176.224 217.68 178.822 221.545C180.63 224.234 182.438 226.923 184.263 229.597L203.052 257.482C203.987 258.874 204.91 260.283 205.835 261.694C208.174 265.264 210.524 268.851 213.099 272.212C214.287 273.765 215.742 275.628 217.647 276.305C220.569 277.345 224.508 275.75 227.11 274.433C231.978 271.969 239.23 265.627 240.889 260.264C241.044 259.764 241.13 259.236 241.215 258.718C241.224 258.661 241.233 258.604 241.243 258.547C241.027 257.842 240.789 257.272 240.352 256.675C239.436 255.423 238.452 254.221 237.467 253.019C236.573 251.928 235.679 250.836 234.836 249.706L208.908 214.788L196.539 198.019C195.808 197.013 195.089 195.972 194.366 194.927C192.782 192.636 191.18 190.319 189.39 188.274C189.158 188.312 188.893 188.348 188.686 188.185C188.402 187.961 188.127 187.626 187.862 187.303C187.714 187.122 187.569 186.945 187.427 186.794C187.146 186.495 186.824 186.14 186.473 185.755C184.946 184.075 182.884 181.808 181.377 180.951C179.821 180.066 178.377 180.752 176.905 181.452C175.749 182.001 174.576 182.558 173.318 182.37Z" fill="#0066FF"/>
<path id="Vector_5" d="M186.289 189.652C184.126 188.777 180.821 189.583 178.761 190.457C175.819 191.707 173.448 193.849 172.27 196.857C171.665 198.403 171.483 199.929 171.333 201.571C170.155 199.353 169.462 196.232 170.237 193.775C170.95 191.513 172.451 189.738 174.576 188.682C178.084 186.939 183.042 187.136 186.729 188.238C186.959 188.306 187.004 188.337 187.192 188.432C187.216 188.927 186.632 189.304 186.512 189.919L186.289 189.652Z" fill="#0066FF"/>
<path id="Vector_6" d="M186.29 189.653L186.513 189.92C188.03 192.328 190.072 194.621 191.813 196.886L202.33 210.63C206.676 216.357 210.698 222.315 214.937 228.117C217.198 231.212 234.17 253.13 234.349 254.621L234.112 254.828C233.528 254.771 233.331 254.658 232.92 254.242C231.828 253.137 230.897 251.782 229.941 250.559L224.26 243.263C221.445 239.653 218.463 236.171 215.67 232.545C209.656 224.736 203.96 216.718 198.105 208.794C195.067 204.684 192.012 200.63 189.108 196.422C188.091 194.948 186.979 193.484 186.074 191.94C185.786 191.448 185.531 191.009 185.543 190.427C185.794 189.979 185.849 189.913 186.29 189.653Z" fill="#0066FF"/>
<path id="Subtract_2" fill-rule="evenodd" clip-rule="evenodd" d="M155.012 48.0872C146.168 40.1745 133.262 33.7407 121.428 32.1814C120.881 32.1021 120.334 32.0296 119.785 31.9637C119.237 31.8981 118.688 31.8392 118.139 31.7871C117.589 31.735 117.038 31.6897 116.487 31.6511C115.937 31.6126 115.385 31.581 114.834 31.5563C114.282 31.5314 113.73 31.5134 113.178 31.5022C112.626 31.491 112.074 31.4868 111.522 31.4894C110.97 31.492 110.417 31.5013 109.866 31.5173C109.314 31.5336 108.762 31.5566 108.21 31.5866C107.659 31.6165 107.108 31.6532 106.558 31.6967C106.007 31.7402 105.457 31.7906 104.908 31.8479C104.359 31.905 103.81 31.969 103.263 32.0398C102.715 32.1106 102.168 32.1881 101.622 32.2724C101.077 32.3568 100.532 32.4478 99.9887 32.5455C99.4452 32.6432 98.9031 32.7478 98.3624 32.8592C97.8215 32.9704 97.2821 33.0883 96.7442 33.213C96.206 33.3376 95.6696 33.4689 95.1349 33.6067C94.6002 33.7446 94.0674 33.8891 93.5364 34.0404C93.0052 34.1914 92.4759 34.349 91.9486 34.5131C91.4215 34.6774 90.8964 34.8482 90.3733 35.0254C89.8504 35.2027 89.3298 35.3864 88.8115 35.5766C88.293 35.7668 87.7769 35.9633 87.2633 36.1661C86.7498 36.3691 86.2389 36.5784 85.7304 36.7938C85.222 37.0095 84.7164 37.2314 84.2134 37.4596C83.7107 37.6878 83.2107 37.9222 82.7136 38.1627C82.2165 38.403 81.7225 38.6496 81.2316 38.9026C80.7406 39.1553 80.2528 39.414 79.7683 39.6788C79.2838 39.9438 78.8026 40.2146 78.3249 40.4912C77.847 40.7681 77.3726 41.0508 76.9017 41.3393C76.431 41.6279 75.9638 41.9223 75.5002 42.2224C75.0366 42.5225 74.5769 42.8283 74.1211 43.1398C73.6651 43.4513 73.2131 43.7684 72.7651 44.0912C72.3169 44.4137 71.8728 44.7418 71.4329 45.0757C71.0017 45.4049 70.5747 45.7392 70.1518 46.0787C69.7289 46.4183 69.3102 46.7631 68.8957 47.113C68.4812 47.4627 68.071 47.8175 67.665 48.1775C67.2591 48.5372 66.8577 48.9019 66.4609 49.2716C66.0639 49.6413 65.6714 50.0157 65.2834 50.3948C64.8957 50.774 64.5126 51.1579 64.1341 51.5464C63.7556 51.9349 63.3819 52.328 63.013 52.7257C62.6441 53.1233 62.2802 53.5254 61.9213 53.9319C61.5622 54.3384 61.2082 54.7493 60.8591 55.1645C60.5099 55.5796 60.166 55.9989 59.8273 56.4227C59.4884 56.8461 59.1548 57.2737 58.8263 57.7054C58.4981 58.1372 58.175 58.5728 57.8573 59.0124C57.5395 59.452 57.2272 59.8954 56.9203 60.3426C56.6133 60.7898 56.3118 61.2407 56.016 61.6952C55.72 62.1497 55.4296 62.6078 55.1451 63.0696C54.8603 63.5312 54.5812 63.9962 54.3077 64.4647C54.0343 64.9331 53.7667 65.4049 53.5048 65.8798C53.2428 66.3547 52.9867 66.8328 52.7365 67.3141C52.4863 67.7954 52.242 68.2796 52.0036 68.7667C51.7652 69.2539 51.5327 69.744 51.3062 70.237C51.0798 70.7299 50.8594 71.2254 50.645 71.7235C50.4306 72.2219 50.2223 72.7227 50.0201 73.2259C49.818 73.7292 49.6221 74.2349 49.4322 74.743C49.2424 75.2511 49.0588 75.7615 48.8816 76.2742C48.7042 76.7868 48.5331 77.3015 48.3682 77.8182C48.2034 78.3349 48.0449 78.8535 47.8929 79.3741C47.7408 79.8949 47.595 80.4173 47.4556 80.9413C47.3162 81.4656 47.1831 81.9914 47.0564 82.5189C46.9299 83.0462 46.8098 83.5751 46.6961 84.1056C46.5826 84.636 46.4754 85.1676 46.3745 85.7005C46.2739 86.2334 46.1798 86.7676 46.0922 87.303C46.0045 87.8381 45.9233 88.3743 45.8487 88.9117C43.32 107.118 48.3573 124.868 59.4269 139.461C69.1325 152.256 85.3645 162.316 101.389 164.553C101.515 164.57 101.642 164.585 101.769 164.598C119.796 166.976 136.53 162.925 151.053 151.81C164.917 141.2 174.675 124.493 176.97 107.174C177.047 106.641 177.116 106.107 177.179 105.572C177.242 105.037 177.298 104.501 177.348 103.964C177.397 103.428 177.441 102.891 177.477 102.354C177.513 101.816 177.543 101.278 177.566 100.74C177.589 100.202 177.606 99.6637 177.615 99.1253C177.625 98.5867 177.628 98.0481 177.625 97.5094C177.621 96.9708 177.611 96.4322 177.594 95.8937C177.577 95.3552 177.554 94.8171 177.523 94.2794C177.493 93.7415 177.457 93.2041 177.413 92.6673C177.37 92.1304 177.32 91.5941 177.263 91.0583C177.206 90.5227 177.143 89.9878 177.073 89.4537C177.003 88.9196 176.927 88.3864 176.843 87.854C176.76 87.3218 176.671 86.7907 176.574 86.2607C176.478 85.7307 176.375 85.202 176.266 84.6747C176.157 84.147 176.041 83.621 175.919 83.0965C175.796 82.572 175.667 82.049 175.532 81.5275C175.397 81.0061 175.255 80.4864 175.107 79.9685C174.959 79.4506 174.805 78.9346 174.644 78.4205C174.483 77.9063 174.316 77.3943 174.142 76.8844C173.968 76.3743 173.789 75.8665 173.603 75.3611C173.417 74.8557 173.224 74.3525 173.026 73.8516C172.827 73.3509 172.622 72.8527 172.412 72.3569C172.201 71.8612 171.984 71.3682 171.761 70.8779C171.538 70.3875 171.309 69.9001 171.074 69.4154C170.839 68.9308 170.598 68.4491 170.35 67.9704C170.104 67.4917 169.851 67.0161 169.592 66.5435C169.333 66.0712 169.069 65.6021 168.798 65.1361C168.528 64.6702 168.252 64.2077 167.97 63.7484C167.688 63.2894 167.401 62.8339 167.108 62.3821C166.815 61.93 166.516 61.4816 166.212 61.0369C165.908 60.5924 165.598 60.1517 165.283 59.7147C164.968 59.2779 164.648 58.8449 164.322 58.4158C161.529 54.7829 158.432 51.1472 155.012 48.0872ZM93.2128 35.3305C90.9317 36.0437 88.5234 36.8233 86.412 37.9455C83.9382 38.8068 81.5486 40.1104 79.2748 41.4023C78.5688 41.8033 77.8706 42.2174 77.1802 42.6446C76.49 43.072 75.808 43.5123 75.1342 43.9654C74.4605 44.4185 73.7956 44.8842 73.1395 45.3626C72.4833 45.8407 71.8364 46.3311 71.1989 46.8338C70.5613 47.3365 69.9335 47.8511 69.3153 48.3774C68.6973 48.9038 68.0894 49.4416 67.4915 49.9909C66.8936 50.5404 66.3063 51.1009 65.7296 51.6725C65.1531 52.244 64.5875 52.8263 64.0327 53.4191C63.4782 54.012 62.935 54.6152 62.4031 55.2286C61.8711 55.8421 61.351 56.4653 60.8427 57.0985C60.3344 57.7316 59.8383 58.3741 59.3542 59.0259C58.8702 59.6777 58.3987 60.3385 57.9397 61.0084C57.4806 61.6779 57.0343 62.356 56.6009 63.0426C56.1675 63.7292 55.7471 64.4237 55.3399 65.1261C54.9326 65.8285 54.5389 66.5383 54.1586 67.2556C53.7782 67.9729 53.4114 68.697 53.0584 69.4281C52.8217 69.9134 52.5909 70.4015 52.3662 70.8923C52.1417 71.3833 51.9232 71.877 51.7107 72.3733C51.4983 72.8697 51.2921 73.3686 51.0922 73.8701C50.892 74.3716 50.6982 74.8754 50.5107 75.3816C50.3232 75.888 50.1419 76.3965 49.9668 76.9072C49.792 77.418 49.6234 77.9308 49.4611 78.4458C49.2988 78.9609 49.143 79.4777 48.9937 79.9965C48.8441 80.5154 48.7012 81.0359 48.5648 81.5582C48.4281 82.0806 48.2981 82.6045 48.1746 83.13C48.0511 83.6557 47.9341 84.1828 47.8236 84.7114C47.7131 85.2397 47.6092 85.7694 47.5117 86.3006C47.4145 86.8316 47.3238 87.3638 47.2395 87.8969C47.1554 88.4304 47.0779 88.9647 47.007 89.5C46.9362 90.0352 46.8719 90.5712 46.8143 91.1081C46.7567 91.6449 46.7057 92.1823 46.6615 92.7203C46.617 93.2582 46.5793 93.7967 46.5484 94.3359C46.5175 94.8748 46.4933 95.4141 46.4756 95.9538C46.458 96.4934 46.4471 97.0332 46.443 97.5732C46.4388 98.1131 46.4413 98.653 46.4504 99.1928C46.4596 99.7326 46.4755 100.272 46.498 100.812C46.5205 101.351 46.5498 101.89 46.5858 102.429C46.6216 102.967 46.6642 103.506 46.7135 104.043C46.7627 104.581 46.8185 105.118 46.8811 105.654C46.9437 106.19 47.0129 106.726 47.0888 107.26C47.1646 107.795 47.2472 108.328 47.3364 108.861C47.4253 109.393 47.5209 109.925 47.623 110.455C47.7254 110.985 47.8342 111.514 47.9494 112.041C48.0648 112.569 48.1867 113.095 48.315 113.619C48.4435 114.143 48.5784 114.666 48.7196 115.187C48.8609 115.708 49.0086 116.228 49.1628 116.745C49.3171 117.263 49.4777 117.778 49.6446 118.291C49.8117 118.805 49.985 119.316 50.1646 119.825C52.8145 127.401 56.6673 134.079 61.7327 140.295C61.9021 140.503 62.0756 140.72 62.253 140.942C63.1381 142.049 64.1198 143.277 65.164 144.091C66.2446 145.481 67.7646 146.775 69.1321 147.938C69.2384 148.029 69.3439 148.118 69.4481 148.207C70.2934 148.941 71.1571 149.652 72.039 150.341C72.9212 151.03 73.8204 151.695 74.7368 152.337C75.6533 152.98 76.5859 153.598 77.5346 154.192C78.483 154.786 79.4463 155.355 80.4243 155.899C81.4023 156.443 82.3937 156.961 83.3986 157.454C84.4034 157.947 85.4202 158.413 86.449 158.854C87.478 159.294 88.5178 159.707 89.5682 160.093C90.6184 160.479 91.678 160.838 92.747 161.17C93.2377 161.325 93.7301 161.473 94.2243 161.616C94.7187 161.759 95.2147 161.896 95.7123 162.026C96.21 162.157 96.7092 162.281 97.2099 162.4C97.7105 162.518 98.2127 162.63 98.7163 162.736C99.2196 162.842 99.7242 162.942 100.23 163.036C100.736 163.13 101.243 163.217 101.751 163.298C102.259 163.38 102.768 163.455 103.278 163.524C103.788 163.593 104.299 163.655 104.81 163.711C105.321 163.767 105.833 163.817 106.346 163.861C106.859 163.905 107.372 163.942 107.886 163.974C108.399 164.005 108.913 164.03 109.427 164.048C109.941 164.067 110.456 164.079 110.97 164.085C111.484 164.091 111.999 164.091 112.513 164.084C113.028 164.078 113.542 164.065 114.056 164.046C114.57 164.026 115.084 164.001 115.598 163.969C116.111 163.937 116.625 163.899 117.137 163.854C117.65 163.81 118.162 163.76 118.673 163.703C119.184 163.646 119.695 163.583 120.205 163.513C120.715 163.444 121.223 163.368 121.731 163.286C122.239 163.204 122.746 163.116 123.252 163.022C123.758 162.927 124.262 162.827 124.766 162.72C125.269 162.613 125.771 162.501 126.271 162.381C126.772 162.263 127.271 162.137 127.768 162.006C128.266 161.875 128.762 161.738 129.256 161.594C129.75 161.451 130.243 161.302 130.733 161.146C131.223 160.991 131.712 160.829 132.198 160.662C132.685 160.495 133.169 160.321 133.651 160.142C134.134 159.963 134.614 159.777 135.092 159.586C135.569 159.395 136.045 159.199 136.517 158.996C136.99 158.793 137.461 158.585 137.929 158.371C138.396 158.156 138.861 157.936 139.324 157.711C139.786 157.485 140.246 157.254 140.703 157.017C156.81 148.594 168.237 134.001 173.608 116.772C178.581 100.817 176.685 82.781 168.912 68.0496C168.66 67.5627 168.401 67.079 168.135 66.5986C167.871 66.1181 167.6 65.6409 167.323 65.1671C167.046 64.6933 166.763 64.223 166.475 63.7563C166.187 63.2896 165.892 62.8266 165.592 62.3671C165.293 61.9076 164.987 61.4519 164.676 61C164.365 60.548 164.048 60.1 163.726 59.656C163.403 59.2119 163.076 58.7718 162.742 58.3359C162.409 57.9001 162.071 57.4683 161.727 57.0405C161.383 56.613 161.034 56.1898 160.679 55.7709C160.325 55.352 159.965 54.9376 159.601 54.5275C159.236 54.1175 158.866 53.7121 158.492 53.3112C158.117 52.9103 157.738 52.5142 157.353 52.1227C156.969 51.7312 156.579 51.3446 156.185 50.9629C155.791 50.5811 155.392 50.2042 154.989 49.8324C154.585 49.4603 154.178 49.0934 153.765 48.7316C153.353 48.3697 152.936 48.0131 152.514 47.6618C152.093 47.3102 151.667 46.9639 151.238 46.6229C150.808 46.2821 150.374 45.9466 149.935 45.6163C149.497 45.2861 149.055 44.9613 148.609 44.642C148.162 44.3228 147.712 44.0092 147.258 43.7009C146.804 43.3929 146.346 43.0905 145.885 42.7937C145.423 42.4969 144.958 42.206 144.489 41.9209C144.021 41.6355 143.548 41.3561 143.073 41.0825C142.597 40.8089 142.118 40.5414 141.636 40.2798C141.154 40.018 140.668 39.7623 140.18 39.5126C139.691 39.263 139.199 39.0194 138.705 38.7821C138.21 38.5446 137.713 38.3133 137.212 38.0882C136.712 37.863 136.209 37.6441 135.703 37.4312C135.197 37.2186 134.689 37.0123 134.178 36.8122C133.667 36.6121 133.154 36.4184 132.638 36.2309C132.122 36.0435 131.604 35.8625 131.084 35.6879C130.564 35.5133 130.042 35.3453 129.517 35.1837C128.782 34.9607 128.044 34.7516 127.301 34.5563C126.559 34.3607 125.813 34.1792 125.064 34.0118C124.314 33.8442 123.562 33.6906 122.807 33.5511C122.052 33.4116 121.295 33.2863 120.535 33.1752C119.775 33.064 119.014 32.967 118.25 32.8842C117.487 32.8016 116.722 32.7332 115.957 32.6788C115.191 32.6247 114.424 32.5848 113.657 32.5593C112.889 32.5338 112.122 32.5226 111.354 32.5257C110.586 32.5287 109.819 32.5461 109.052 32.5779C108.284 32.6098 107.518 32.6559 106.753 32.7162C105.987 32.7766 105.223 32.8512 104.461 32.9402C103.698 33.0291 102.937 33.1322 102.178 33.2495C101.42 33.3669 100.663 33.4983 99.9094 33.6437C99.1555 33.7892 98.4047 33.9488 97.6568 34.1224C96.9089 34.2961 96.1645 34.4836 95.4235 34.6849C94.6827 34.8865 93.9458 35.1017 93.2128 35.3305Z" fill="#0066FF"/>
<path id="Vector_7" d="M115.787 43.6011C115.945 43.6489 116.039 43.6727 116.185 43.7304C116.759 43.9574 117.363 44.4588 117.553 45.0645C117.678 45.4629 117.604 45.8841 117.401 46.2431C117.036 46.8894 116.451 47.0068 115.787 47.1919C115.559 47.1455 115.531 47.1451 115.286 47.0665C114.775 46.9017 114.246 46.4938 114.045 45.9841C113.91 45.6419 113.942 45.2618 114.077 44.9256C114.394 44.1371 115.041 43.8828 115.787 43.6011Z" fill="#0066FF"/>
<path id="Vector_8" d="M64.3164 124.436C64.6096 124.489 64.9125 124.54 65.196 124.634C65.9289 124.875 66.3859 125.657 66.7124 126.302C67.0976 127.064 67.5093 128.29 67.1461 129.123C66.9685 129.53 66.7282 129.608 66.3317 129.706C66.1326 129.659 65.935 129.607 65.7389 129.55C64.6583 129.227 63.8701 128.344 63.3745 127.351C63.0968 126.794 62.9749 126.104 63.1982 125.508C63.4158 124.927 63.7757 124.691 64.3164 124.436Z" fill="#0066FF"/>
<path id="Vector_9" d="M71.4997 132.777C71.8185 132.831 72.1018 132.912 72.3849 133.076C73.3832 133.654 75.4009 136.779 76.3808 137.819C77.7405 139.263 79.2414 140.543 80.8146 141.745C81.5885 142.336 83.8949 143.751 84.1732 144.604L83.7876 144.632C79.5527 143.276 73.6359 139.785 70.9497 136.215C70.5253 135.651 70.1351 134.935 70.2899 134.207C70.4443 133.478 70.9193 133.165 71.4997 132.777Z" fill="#0066FF"/>
<path id="Vector_10" d="M107.851 43.7214C108.131 43.7538 108.433 43.7759 108.705 43.8479C109.182 43.974 109.799 44.4448 109.995 44.9068C110.089 45.1286 110.04 45.1006 109.944 45.3501C109.003 46.1744 104.886 46.3375 103.454 46.5793C100.312 47.1101 97.041 47.814 94.0383 48.8873C81.1405 53.4978 69.7862 63.2269 63.9167 75.6758C63.7583 75.936 63.6585 76.0217 63.4249 76.2052C62.974 76.122 62.8873 76.0888 62.5329 75.7996C62.4375 75.5788 62.367 75.3845 62.3711 75.1394C62.3891 74.0078 63.0457 72.8612 63.5315 71.8639C65.8722 67.0584 68.8738 62.6133 72.7235 58.8805C81.5649 50.3069 95.4229 43.5367 107.851 43.7214Z" fill="#0066FF"/>
</g>
</svg>
