<svg width="28" height="29" viewBox="0 0 28 29" fill="none" xmlns="http://www.w3.org/2000/svg">
<g id="Group">
<path id="Vector" d="M2.33333 9.83333H4.66667V19.1667H2.33333C1.71465 19.1662 1.12144 18.9202 0.683963 18.4827C0.246486 18.0452 0.000494356 17.452 0 16.8333V12.1667C0 10.8796 1.04627 9.83333 2.33333 9.83333ZM25.6667 9.83333H23.3333V19.1667H25.6667C26.9537 19.1667 28 18.1204 28 16.8333V12.1667C28 10.8796 26.9537 9.83333 25.6667 9.83333ZM14 4.23333C9.88307 4.23333 6.53333 7.58307 6.53333 11.7V17.3C6.53333 21.4169 9.88307 24.7667 14 24.7667C18.1169 24.7667 21.4667 21.4169 21.4667 17.3V11.7C21.4667 7.58307 18.1169 4.23333 14 4.23333ZM14 0.5C8.83867 0.5 4.29333 3.468 2.184 7.976C2.23067 7.96667 2.28667 7.96667 2.33333 7.96667H4.29333C6.244 4.56 9.89333 2.36667 14 2.36667C18.1067 2.36667 21.756 4.56 23.7067 7.96667H25.6667C25.7133 7.96667 25.7693 7.96667 25.816 7.976C23.7067 3.468 19.1613 0.5 14 0.5ZM25.6667 21.0333H23.7067C21.756 24.44 18.1067 26.6333 14 26.6333H13.0667V28.5H14C19.1613 28.5 23.6973 25.532 25.816 21.024C25.7693 21.0333 25.7133 21.0333 25.6667 21.0333Z" fill="#003399"/>
</g>
</svg>
