<svg width="42" height="43" viewBox="0 0 42 43" fill="none" xmlns="http://www.w3.org/2000/svg">
<g id="Group">
<path id="Vector" d="M3.5 14.5H7V28.5H3.5C2.57197 28.4993 1.68216 28.1303 1.02595 27.4741C0.369729 26.8178 0.000741535 25.928 0 25V18C0 16.0694 1.5694 14.5 3.5 14.5ZM38.5 14.5H35V28.5H38.5C40.4306 28.5 42 26.9306 42 25V18C42 16.0694 40.4306 14.5 38.5 14.5ZM21 6.1C14.8246 6.1 9.8 11.1246 9.8 17.3V25.7C9.8 31.8754 14.8246 36.9 21 36.9C27.1754 36.9 32.2 31.8754 32.2 25.7V17.3C32.2 11.1246 27.1754 6.1 21 6.1ZM21 0.5C13.258 0.5 6.44 4.952 3.276 11.714C3.346 11.7 3.43 11.7 3.5 11.7H6.44C9.366 6.59 14.84 3.3 21 3.3C27.16 3.3 32.634 6.59 35.56 11.7H38.5C38.57 11.7 38.654 11.7 38.724 11.714C35.56 4.952 28.742 0.5 21 0.5ZM38.5 31.3H35.56C32.634 36.41 27.16 39.7 21 39.7H19.6V42.5H21C28.742 42.5 35.546 38.048 38.724 31.286C38.654 31.3 38.57 31.3 38.5 31.3Z" fill="white"/>
</g>
</svg>
