<svg width="29" height="28" viewBox="0 0 29 28" fill="none" xmlns="http://www.w3.org/2000/svg">
<g id="Group">
<path id="Vector" d="M2.83333 9.33333H5.16667V18.6667H2.83333C2.21465 18.6662 1.62144 18.4202 1.18396 17.9827C0.746486 17.5452 0.500494 16.952 0.5 16.3333V11.6667C0.5 10.3796 1.54627 9.33333 2.83333 9.33333ZM26.1667 9.33333H23.8333V18.6667H26.1667C27.4537 18.6667 28.5 17.6204 28.5 16.3333V11.6667C28.5 10.3796 27.4537 9.33333 26.1667 9.33333ZM14.5 3.73333C10.3831 3.73333 7.03333 7.08307 7.03333 11.2V16.8C7.03333 20.9169 10.3831 24.2667 14.5 24.2667C18.6169 24.2667 21.9667 20.9169 21.9667 16.8V11.2C21.9667 7.08307 18.6169 3.73333 14.5 3.73333ZM14.5 0C9.33867 0 4.79333 2.968 2.684 7.476C2.73067 7.46667 2.78667 7.46667 2.83333 7.46667H4.79333C6.744 4.06 10.3933 1.86667 14.5 1.86667C18.6067 1.86667 22.256 4.06 24.2067 7.46667H26.1667C26.2133 7.46667 26.2693 7.46667 26.316 7.476C24.2067 2.968 19.6613 0 14.5 0ZM26.1667 20.5333H24.2067C22.256 23.94 18.6067 26.1333 14.5 26.1333H13.5667V28H14.5C19.6613 28 24.1973 25.032 26.316 20.524C26.2693 20.5333 26.2133 20.5333 26.1667 20.5333Z" fill="white"/>
</g>
</svg>
