<svg width="94" height="97" viewBox="0 0 94 97" fill="none" xmlns="http://www.w3.org/2000/svg">
<g id="Group">
<g id="Vector">
<mask id="path-1-outside-1_236_4028" maskUnits="userSpaceOnUse" x="0" y="0.725586" width="110" height="114" fill="black">
<rect fill="white" y="0.725586" width="110" height="114"/>
<path d="M62.8401 1.27644C61.949 1.82954 59.2296 4.87161 58.0926 6.59238C56.8789 8.43606 56.4641 9.1889 55.6344 11.0172L55.0967 12.2002H53.0532C51.9317 12.2156 50.4875 12.2771 49.8575 12.3692C48.2443 12.569 47.6144 12.5536 47.3532 12.2924C47.2303 12.1695 47.0152 11.5703 46.8616 10.9558C46.3545 8.80479 44.6491 5.67054 43.0513 3.9344C42.6057 3.47348 42.3599 3.15085 42.4828 3.24303C44.7874 4.91771 49.3352 8.51289 50.7794 9.81882C51.4708 10.4487 51.3939 10.3412 50.4721 9.43472C48.3365 7.31449 42.3906 2.68993 41.8068 2.68993C41.4995 2.68993 35.8456 4.7487 35.1695 5.11743C34.6779 5.37862 34.3706 5.93173 33.8022 7.6525C33.0032 10.0954 32.7881 11.2784 32.7267 13.9825C32.6652 16.3792 32.6652 16.41 32.8189 14.8275C33.2951 9.55764 34.2784 6.33118 35.7073 5.31716C36.5062 4.7487 40.1168 3.45813 40.9157 3.45813C41.5917 3.45813 41.6839 3.50422 42.5135 4.39532C43.7273 5.67054 45.6324 8.9738 46.8001 11.8161C47.3378 13.1375 47.4761 13.1989 49.6885 12.9992C50.7026 12.907 52.2236 12.8302 53.0686 12.8302C54.9737 12.8302 55.0352 12.7841 56.2797 10.4488C58.8762 5.59373 61.442 2.38264 63.2089 1.78345C64.0231 1.52225 65.2062 1.58372 66.8348 1.99854C69.462 2.65919 70.0151 3.08939 70.3224 4.64115C70.5221 5.732 70.3839 9.11208 70.0612 11.1401C69.7232 13.245 69.5849 16.241 69.8154 16.7787C69.9229 17.0553 70.3224 17.424 70.8755 17.7467C72.1046 18.4688 73.4259 19.4213 74.5936 20.4353C75.5154 21.2343 75.6383 21.2957 76.2222 21.2343C76.5909 21.1882 78.1119 20.5583 80.0632 19.6211C84.3651 17.5623 86.2088 16.9938 88.8667 16.9324C89.6503 16.917 90.2188 16.9938 90.48 17.1167C91.0792 17.4394 94.2595 21.2036 94.4285 21.772C94.8894 23.3852 92.2161 27.4106 87.4686 32.281C85.8093 33.9864 85.502 34.3859 85.502 34.7853C85.502 35.0465 85.84 36.1066 86.2549 37.136C86.6697 38.1808 87.2228 39.7479 87.5147 40.6083C87.8527 41.6684 88.1293 42.2676 88.329 42.4059C88.5134 42.5134 89.6503 42.7593 90.8794 42.9436C94.4746 43.4814 97.1633 43.9884 98.5461 44.4186C100.328 44.9717 102.326 45.9089 102.602 46.3391C103.186 47.2609 103.416 51.8701 102.925 53.0839C102.387 54.4359 100.359 55.5267 91.1253 59.3985C89.8808 59.9208 89.0665 60.351 88.9282 60.5661C88.8053 60.7659 88.498 61.8567 88.2522 63.0244C88.0064 64.1767 87.5915 65.8974 87.3457 66.8346C86.6236 69.5387 86.3931 69.0471 90.1573 72.7959C94.2134 76.8212 95.842 78.7571 96.18 79.9248L96.4258 80.7544L95.7805 81.9375C94.1673 84.872 92.9228 86.3777 91.5708 87.0383C90.2034 87.7143 88.4212 87.4992 81.8454 85.8092C78.2502 84.8874 78.1427 84.9027 76.7906 86.2394C74.486 88.4979 72.458 90.8639 72.3658 91.3863C72.289 91.7243 72.458 92.9074 72.8114 94.7357C73.5949 98.7918 73.9637 101.204 74.0712 102.863C74.1634 104.307 74.1634 104.323 73.7025 104.953C73.1033 105.767 71.0599 107.303 69.6156 108.01C68.3865 108.625 67.2957 108.763 66.5889 108.394C64.9296 107.534 60.2743 103.14 58.4614 100.712C57.0633 98.8379 56.7867 98.5613 56.2643 98.5613C55.4654 98.5613 51.4861 99.5139 50.9791 99.8212C50.5796 100.052 50.426 100.313 50.2263 100.989C49.1508 104.83 48.3211 107.042 46.7386 110.407C45.8936 112.189 45.4327 112.758 44.6645 112.957C44.0192 113.111 39.2717 112.712 38.7186 112.45C38.1348 112.174 37.7046 111.329 36.8903 108.84C36.0299 106.213 34.893 100.897 34.7701 98.9454L34.724 98.3309L32.1121 96.9942C30.6833 96.2567 29.3466 95.6575 29.1469 95.6422C28.6091 95.6422 28.225 95.888 26.8423 97.2093C24.3379 99.56 20.6659 102.049 19.4214 102.203C18.8991 102.279 18.6993 102.218 17.9772 101.711C17.5009 101.388 16.5484 100.513 15.8263 99.7597L14.5203 98.3923V97.0403C14.5203 94.5359 15.1963 90.5106 16.2257 86.8693L16.8403 84.6876L16.0721 83.52C15.6419 82.8747 14.9352 81.6609 14.4742 80.8159C14.0133 79.9709 13.4756 79.1566 13.2605 79.0029C12.9225 78.7571 12.8456 78.7571 12.2311 78.9568C10.7561 79.4946 8.97392 79.6943 6.60786 79.6329C3.0895 79.5407 2.9205 79.4024 2.06012 76.053C1.41483 73.4412 1.44556 73.0571 2.41349 71.6589C3.5197 70.0765 6.17767 67.4799 7.9138 66.2969C8.71273 65.7438 9.38875 65.16 9.41947 65.0063C9.48093 64.7451 9.35802 64.7759 8.58982 65.2214C6.3774 66.4505 4.2879 68.2481 2.79759 70.1994C1.52238 71.8433 1 72.673 1 73.0417C1 73.9021 2.72077 79.5253 3.07414 79.8172C3.18169 79.9094 3.96525 80.1091 4.79491 80.2628C5.62457 80.4164 7.16097 80.8005 8.20572 81.0924C9.25047 81.3997 11.2632 81.9067 12.6766 82.2294L15.2732 82.7978L15.9031 83.7965C16.6406 84.9488 16.6559 84.7798 15.7802 87.6529C14.9198 90.4338 14.4281 92.7076 14.1209 95.1659C13.8136 97.7317 13.9058 98.3769 14.6432 99.2066C15.4268 100.082 18.1923 102.541 18.684 102.786C19.1756 103.048 24.5991 103.509 27.5029 103.539L29.6539 103.555L30.5757 103.032C32.0199 102.203 33.2951 101.327 33.9097 100.743L34.4782 100.205L34.5704 100.804C35.4154 106.028 36.4448 109.869 37.6432 112.235L37.9965 112.927L41.6532 113.172C44.2036 113.341 45.4327 113.372 45.6632 113.265C46.1548 113.05 46.754 112.036 47.8295 109.7C49.074 106.95 49.7807 105.03 50.3338 102.817C50.8869 100.635 51.1635 100.251 52.2082 100.251C52.7921 100.251 54.2977 100.666 53.929 100.728C53.5603 100.789 56.3411 101.158 57.263 101.158C58.2616 101.173 58.2924 101.189 58.7533 101.772C59.0145 102.095 59.2296 102.433 59.2296 102.51C59.2296 102.602 58.8455 103.555 58.3692 104.645C56.3104 109.424 54.2209 112.512 52.5001 113.28C52.0546 113.48 51.2249 113.557 48.8589 113.633L45.7861 113.726L49.0893 113.71L52.3926 113.695L53.1147 113.28C54.943 112.205 57.5549 108.087 58.9223 104.138L59.4139 102.74L61.5034 104.845C63.9156 107.257 66.0205 108.901 67.1267 109.239C67.5415 109.362 68.279 109.454 68.7399 109.454C69.4774 109.439 69.5235 109.408 69.0625 109.331L68.5248 109.239L68.9089 108.993C69.124 108.855 69.6156 108.563 70.0151 108.333C70.4146 108.118 71.3979 107.411 72.2122 106.781C73.0265 106.151 73.81 105.629 73.979 105.629C74.1787 105.629 74.2402 105.552 74.1941 105.414C74.148 105.291 74.2248 104.968 74.3785 104.692C74.8855 103.693 74.4246 98.8379 73.3491 94.0443C73.0879 92.8766 72.9189 91.7551 72.9804 91.54C73.0265 91.3402 73.4566 90.7718 73.9483 90.2955C74.4246 89.8192 75.4693 88.713 76.2529 87.8372C77.0518 86.9769 77.8968 86.1626 78.158 86.0243C78.5575 85.8092 78.6804 85.8246 79.4793 86.0704C79.9556 86.2087 80.4473 86.3316 80.5395 86.3162C80.647 86.3162 80.7085 86.3623 80.6624 86.4238C80.5855 86.5467 82.3985 87.407 83.0438 87.5607C83.2589 87.6068 83.3357 87.6068 83.2282 87.5607C83.136 87.5146 83.0745 87.4224 83.1206 87.3456C83.2282 87.1766 82.629 86.9922 82.4139 87.1305C82.2909 87.2073 82.2756 87.1766 82.3524 87.0383C82.4446 86.8847 82.3985 86.8539 82.1527 86.9154C81.9683 86.9769 81.8147 86.9461 81.8147 86.8847C81.8147 86.8078 81.5842 86.7003 81.323 86.6388C81.0465 86.5774 80.8928 86.5006 80.985 86.4698C81.0772 86.4391 82.2449 86.7003 83.5969 87.0383C84.9336 87.3763 86.9309 87.7911 88.0064 87.9755C89.9269 88.2982 90.0037 88.2982 90.9716 88.037C92.5848 87.6068 93.6296 86.4237 96.011 82.3984C97.194 80.4011 97.1633 80.2321 95.3503 77.9121C92.6002 74.363 89.9115 71.3363 88.4212 70.0611C87.7913 69.5233 87.3457 69.0317 87.3457 68.8627C87.3457 68.6937 87.653 67.6028 88.0371 66.4198C88.4058 65.2522 88.8667 63.5928 89.0357 62.7325C89.2048 61.8721 89.4352 61.1039 89.5428 61.0424C90.0498 60.689 90.311 60.5969 90.5107 60.6737C90.6182 60.7198 90.7104 60.689 90.6797 60.5969C90.6643 60.52 91.8934 59.8901 93.4145 59.2141C100.129 56.2335 103.125 54.5281 103.432 53.5448C103.632 52.9302 103.57 48.3364 103.355 47.1687C103.232 46.5695 103.032 45.9703 102.894 45.8013C102.648 45.5248 102.664 45.5248 103.324 45.6323C103.708 45.6938 104.261 45.8628 104.553 46.0164C105.199 46.3544 108.149 48.9509 108.425 49.4426C108.579 49.6884 108.625 50.6563 108.609 53.0839C108.594 56.4179 108.471 57.3243 108.056 57.2936C107.933 57.2782 107.365 56.9095 106.812 56.4639C105.445 55.4038 105.491 55.5728 106.858 56.6944C107.457 57.1707 107.933 57.6623 107.933 57.7699C107.933 58.3076 103.57 60.7812 100.636 61.9182C97.7471 63.0244 96.7024 63.5621 95.9035 64.2996C94.5975 65.498 93.9522 67.2341 93.9522 69.5541C93.9522 70.2915 93.8908 70.9061 93.8139 70.9061C93.7371 70.9061 93.4298 70.7986 93.1379 70.6756C92.2929 70.3223 92.2468 70.4298 93.0611 70.7986C93.9215 71.198 98.7765 75.8072 100.528 77.8967C101.619 79.2027 102.402 80.5086 102.402 81.0617C102.402 81.538 101.604 83.735 101.004 84.8873C99.8981 87.0076 98.4385 88.6362 97.4552 88.8359C97.2094 88.882 96.9789 88.9895 96.9328 89.051C96.6256 89.558 86.9923 88.5133 84.4573 87.699C84.2422 87.6375 84.2422 87.6529 84.4112 87.7758C84.5802 87.8987 84.5495 87.9601 84.2729 88.1138C83.9964 88.2674 83.8273 88.2521 83.3664 88.0523C82.7672 87.8065 80.7085 87.1919 80.4934 87.1919C80.2629 87.2073 81.83 87.7911 82.7058 88.0216C83.1667 88.1445 83.5662 88.2828 83.6123 88.3289C83.6583 88.375 83.1974 88.9434 82.5982 89.6041C81.2308 91.079 80.5855 92.0316 80.5855 92.554C80.5855 92.9074 80.6316 92.8766 80.8775 92.3389C81.2616 91.5092 83.5354 88.8359 84.1961 88.4211C84.8106 88.037 84.8875 88.037 87.653 88.544C89.9883 88.9588 93.4606 89.3275 95.5655 89.3736C96.9789 89.4197 97.3477 89.3736 97.87 89.1124C99.3296 88.4057 100.912 86.2087 102.111 83.2127C103.247 80.355 103.078 80.017 97.9161 74.87C95.7191 72.6883 94.3824 71.2441 94.321 70.9829C94.1212 70.1686 94.3671 67.6489 94.7512 66.5735C95.4886 64.6069 96.4412 63.8387 99.7906 62.5942C102.295 61.6723 105.982 59.7979 107.396 58.7378C108.225 58.1079 108.517 57.7852 108.671 57.309C108.932 56.5715 109.101 51.9316 108.932 50.3952C108.825 49.3504 108.809 49.3197 107.872 48.3978C107.365 47.8755 106.459 47.0765 105.875 46.6003C104.953 45.832 104.676 45.6938 103.647 45.4787C103.002 45.3404 101.619 44.9563 100.559 44.6183C99.4986 44.2956 97.7318 43.8194 96.6563 43.5582C94.659 43.0819 93.7218 42.7132 93.3377 42.2522C92.9997 41.8374 93.1226 40.7312 93.6142 39.6711C93.86 39.1487 94.7972 37.7813 95.7037 36.6444C98.9302 32.5883 100.712 29.623 100.835 28.1173C100.912 27.1033 100.605 26.3966 99.2835 24.6144C98.2542 23.2009 92.1239 16.9324 91.4325 16.5636C91.0638 16.3792 90.6951 16.3485 89.6657 16.4253C85.7018 16.7326 83.0899 17.4855 78.7419 19.5596C76.0378 20.8348 76.0532 20.8348 74.9162 19.8208C73.9022 18.9143 72.289 17.7774 70.8755 16.9784C70.3838 16.7173 69.969 16.3792 69.9537 16.241C69.9076 15.7032 69.9997 15.0119 70.307 13.7213C70.9984 10.6485 71.3518 6.69993 71.0599 5.02525C70.9677 4.44142 70.8755 3.85758 70.8448 3.73467C70.8294 3.62712 70.7679 3.44276 70.6911 3.33521C70.3378 2.75137 70.9062 3.15085 72.6116 4.70261C75.6383 7.43741 76.468 8.25169 76.5294 8.57433C76.5602 8.74334 76.7292 9.03526 76.8982 9.21963C77.5281 9.89565 77.6357 12.2771 77.2976 18.6685C77.2208 19.8822 77.2362 19.8515 77.4513 18.1308C77.5896 17.0706 77.6971 14.9965 77.7125 13.2911C77.7278 9.06599 77.8354 9.31181 74.1941 5.90101C72.627 4.42606 71.1213 3.07403 70.8448 2.8743C70.5068 2.64384 69.3084 2.27509 67.1574 1.76808C65.3905 1.33789 63.808 0.999886 63.6237 0.999886C63.4547 0.999886 63.1013 1.1228 62.8401 1.27644ZM92.9075 18.0847C94.5975 19.6211 98.1927 23.4621 99.1453 24.7373C100.697 26.8268 100.866 27.9791 99.8674 29.9764C99.1145 31.5282 97.532 33.8481 95.3964 36.5829C93.4452 39.0719 92.9997 39.8862 92.9075 41.146C92.846 41.8528 92.8921 42.0986 93.1226 42.3598L93.4145 42.6824L92.6463 42.5595C92.2315 42.4981 91.2174 42.3598 90.4185 42.2676C89.6042 42.16 88.8667 42.0371 88.7746 41.9757C88.6824 41.9142 88.3444 41.0538 88.0371 40.0552C87.7298 39.0719 87.1613 37.5508 86.7926 36.6905C86.3778 35.7379 86.1627 35.0158 86.2241 34.8468C86.2702 34.6931 87.1921 33.6638 88.2522 32.5729C91.156 29.5923 93.4913 26.4888 94.49 24.3224C95.0123 23.1855 95.2428 21.9257 94.997 21.603C94.8894 21.4647 93.983 20.3739 92.9997 19.1755C92.001 17.9771 91.1867 16.9631 91.1867 16.917C91.1867 16.6251 91.6784 16.9631 92.9075 18.0847ZM13.9058 80.3089C14.1823 80.8466 14.5818 81.5841 14.8122 81.9528C15.0734 82.4291 15.1195 82.6135 14.9659 82.552C14.843 82.5059 13.368 82.1372 11.678 81.7377C9.98794 81.3536 8.22108 80.9081 7.76016 80.7698L6.91514 80.524L8.75882 80.3242C9.77285 80.2167 11.1863 79.9555 11.9084 79.7558C12.6306 79.556 13.2605 79.3717 13.3066 79.3717C13.3527 79.3563 13.6292 79.7865 13.9058 80.3089ZM31.1288 97.3936C32.2657 97.916 33.4334 98.4538 33.7407 98.5613C34.217 98.7303 34.3245 98.8532 34.4013 99.3141C34.4782 99.7904 34.4167 99.9287 33.9865 100.374C32.9725 101.45 30.0533 103.186 28.9318 103.401C28.4247 103.493 22.2791 103.109 20.7274 102.894L20.0206 102.786L21.4495 102.064C23.0473 101.25 25.9511 99.0683 27.5951 97.4551C28.1789 96.8866 28.7474 96.4104 28.8703 96.4104C28.9779 96.4104 29.9919 96.8559 31.1288 97.3936ZM57.1401 99.6983C57.2323 99.8673 57.4627 100.175 57.6624 100.39C57.8468 100.605 58.0005 100.835 58.0005 100.897C58.0005 101.096 56.925 101.035 55.7727 100.774C55.1888 100.635 54.3899 100.466 54.0058 100.39C52.8842 100.159 52.9918 100.006 54.4206 99.7904C55.1581 99.6982 55.911 99.5446 56.08 99.4832C56.5409 99.2834 56.9557 99.3756 57.1401 99.6983Z"/>
</mask>
<path d="M62.8401 1.27644C61.949 1.82954 59.2296 4.87161 58.0926 6.59238C56.8789 8.43606 56.4641 9.1889 55.6344 11.0172L55.0967 12.2002H53.0532C51.9317 12.2156 50.4875 12.2771 49.8575 12.3692C48.2443 12.569 47.6144 12.5536 47.3532 12.2924C47.2303 12.1695 47.0152 11.5703 46.8616 10.9558C46.3545 8.80479 44.6491 5.67054 43.0513 3.9344C42.6057 3.47348 42.3599 3.15085 42.4828 3.24303C44.7874 4.91771 49.3352 8.51289 50.7794 9.81882C51.4708 10.4487 51.3939 10.3412 50.4721 9.43472C48.3365 7.31449 42.3906 2.68993 41.8068 2.68993C41.4995 2.68993 35.8456 4.7487 35.1695 5.11743C34.6779 5.37862 34.3706 5.93173 33.8022 7.6525C33.0032 10.0954 32.7881 11.2784 32.7267 13.9825C32.6652 16.3792 32.6652 16.41 32.8189 14.8275C33.2951 9.55764 34.2784 6.33118 35.7073 5.31716C36.5062 4.7487 40.1168 3.45813 40.9157 3.45813C41.5917 3.45813 41.6839 3.50422 42.5135 4.39532C43.7273 5.67054 45.6324 8.9738 46.8001 11.8161C47.3378 13.1375 47.4761 13.1989 49.6885 12.9992C50.7026 12.907 52.2236 12.8302 53.0686 12.8302C54.9737 12.8302 55.0352 12.7841 56.2797 10.4488C58.8762 5.59373 61.442 2.38264 63.2089 1.78345C64.0231 1.52225 65.2062 1.58372 66.8348 1.99854C69.462 2.65919 70.0151 3.08939 70.3224 4.64115C70.5221 5.732 70.3839 9.11208 70.0612 11.1401C69.7232 13.245 69.5849 16.241 69.8154 16.7787C69.9229 17.0553 70.3224 17.424 70.8755 17.7467C72.1046 18.4688 73.4259 19.4213 74.5936 20.4353C75.5154 21.2343 75.6383 21.2957 76.2222 21.2343C76.5909 21.1882 78.1119 20.5583 80.0632 19.6211C84.3651 17.5623 86.2088 16.9938 88.8667 16.9324C89.6503 16.917 90.2188 16.9938 90.48 17.1167C91.0792 17.4394 94.2595 21.2036 94.4285 21.772C94.8894 23.3852 92.2161 27.4106 87.4686 32.281C85.8093 33.9864 85.502 34.3859 85.502 34.7853C85.502 35.0465 85.84 36.1066 86.2549 37.136C86.6697 38.1808 87.2228 39.7479 87.5147 40.6083C87.8527 41.6684 88.1293 42.2676 88.329 42.4059C88.5134 42.5134 89.6503 42.7593 90.8794 42.9436C94.4746 43.4814 97.1633 43.9884 98.5461 44.4186C100.328 44.9717 102.326 45.9089 102.602 46.3391C103.186 47.2609 103.416 51.8701 102.925 53.0839C102.387 54.4359 100.359 55.5267 91.1253 59.3985C89.8808 59.9208 89.0665 60.351 88.9282 60.5661C88.8053 60.7659 88.498 61.8567 88.2522 63.0244C88.0064 64.1767 87.5915 65.8974 87.3457 66.8346C86.6236 69.5387 86.3931 69.0471 90.1573 72.7959C94.2134 76.8212 95.842 78.7571 96.18 79.9248L96.4258 80.7544L95.7805 81.9375C94.1673 84.872 92.9228 86.3777 91.5708 87.0383C90.2034 87.7143 88.4212 87.4992 81.8454 85.8092C78.2502 84.8874 78.1427 84.9027 76.7906 86.2394C74.486 88.4979 72.458 90.8639 72.3658 91.3863C72.289 91.7243 72.458 92.9074 72.8114 94.7357C73.5949 98.7918 73.9637 101.204 74.0712 102.863C74.1634 104.307 74.1634 104.323 73.7025 104.953C73.1033 105.767 71.0599 107.303 69.6156 108.01C68.3865 108.625 67.2957 108.763 66.5889 108.394C64.9296 107.534 60.2743 103.14 58.4614 100.712C57.0633 98.8379 56.7867 98.5613 56.2643 98.5613C55.4654 98.5613 51.4861 99.5139 50.9791 99.8212C50.5796 100.052 50.426 100.313 50.2263 100.989C49.1508 104.83 48.3211 107.042 46.7386 110.407C45.8936 112.189 45.4327 112.758 44.6645 112.957C44.0192 113.111 39.2717 112.712 38.7186 112.45C38.1348 112.174 37.7046 111.329 36.8903 108.84C36.0299 106.213 34.893 100.897 34.7701 98.9454L34.724 98.3309L32.1121 96.9942C30.6833 96.2567 29.3466 95.6575 29.1469 95.6422C28.6091 95.6422 28.225 95.888 26.8423 97.2093C24.3379 99.56 20.6659 102.049 19.4214 102.203C18.8991 102.279 18.6993 102.218 17.9772 101.711C17.5009 101.388 16.5484 100.513 15.8263 99.7597L14.5203 98.3923V97.0403C14.5203 94.5359 15.1963 90.5106 16.2257 86.8693L16.8403 84.6876L16.0721 83.52C15.6419 82.8747 14.9352 81.6609 14.4742 80.8159C14.0133 79.9709 13.4756 79.1566 13.2605 79.0029C12.9225 78.7571 12.8456 78.7571 12.2311 78.9568C10.7561 79.4946 8.97392 79.6943 6.60786 79.6329C3.0895 79.5407 2.9205 79.4024 2.06012 76.053C1.41483 73.4412 1.44556 73.0571 2.41349 71.6589C3.5197 70.0765 6.17767 67.4799 7.9138 66.2969C8.71273 65.7438 9.38875 65.16 9.41947 65.0063C9.48093 64.7451 9.35802 64.7759 8.58982 65.2214C6.3774 66.4505 4.2879 68.2481 2.79759 70.1994C1.52238 71.8433 1 72.673 1 73.0417C1 73.9021 2.72077 79.5253 3.07414 79.8172C3.18169 79.9094 3.96525 80.1091 4.79491 80.2628C5.62457 80.4164 7.16097 80.8005 8.20572 81.0924C9.25047 81.3997 11.2632 81.9067 12.6766 82.2294L15.2732 82.7978L15.9031 83.7965C16.6406 84.9488 16.6559 84.7798 15.7802 87.6529C14.9198 90.4338 14.4281 92.7076 14.1209 95.1659C13.8136 97.7317 13.9058 98.3769 14.6432 99.2066C15.4268 100.082 18.1923 102.541 18.684 102.786C19.1756 103.048 24.5991 103.509 27.5029 103.539L29.6539 103.555L30.5757 103.032C32.0199 102.203 33.2951 101.327 33.9097 100.743L34.4782 100.205L34.5704 100.804C35.4154 106.028 36.4448 109.869 37.6432 112.235L37.9965 112.927L41.6532 113.172C44.2036 113.341 45.4327 113.372 45.6632 113.265C46.1548 113.05 46.754 112.036 47.8295 109.7C49.074 106.95 49.7807 105.03 50.3338 102.817C50.8869 100.635 51.1635 100.251 52.2082 100.251C52.7921 100.251 54.2977 100.666 53.929 100.728C53.5603 100.789 56.3411 101.158 57.263 101.158C58.2616 101.173 58.2924 101.189 58.7533 101.772C59.0145 102.095 59.2296 102.433 59.2296 102.51C59.2296 102.602 58.8455 103.555 58.3692 104.645C56.3104 109.424 54.2209 112.512 52.5001 113.28C52.0546 113.48 51.2249 113.557 48.8589 113.633L45.7861 113.726L49.0893 113.71L52.3926 113.695L53.1147 113.28C54.943 112.205 57.5549 108.087 58.9223 104.138L59.4139 102.74L61.5034 104.845C63.9156 107.257 66.0205 108.901 67.1267 109.239C67.5415 109.362 68.279 109.454 68.7399 109.454C69.4774 109.439 69.5235 109.408 69.0625 109.331L68.5248 109.239L68.9089 108.993C69.124 108.855 69.6156 108.563 70.0151 108.333C70.4146 108.118 71.3979 107.411 72.2122 106.781C73.0265 106.151 73.81 105.629 73.979 105.629C74.1787 105.629 74.2402 105.552 74.1941 105.414C74.148 105.291 74.2248 104.968 74.3785 104.692C74.8855 103.693 74.4246 98.8379 73.3491 94.0443C73.0879 92.8766 72.9189 91.7551 72.9804 91.54C73.0265 91.3402 73.4566 90.7718 73.9483 90.2955C74.4246 89.8192 75.4693 88.713 76.2529 87.8372C77.0518 86.9769 77.8968 86.1626 78.158 86.0243C78.5575 85.8092 78.6804 85.8246 79.4793 86.0704C79.9556 86.2087 80.4473 86.3316 80.5395 86.3162C80.647 86.3162 80.7085 86.3623 80.6624 86.4238C80.5855 86.5467 82.3985 87.407 83.0438 87.5607C83.2589 87.6068 83.3357 87.6068 83.2282 87.5607C83.136 87.5146 83.0745 87.4224 83.1206 87.3456C83.2282 87.1766 82.629 86.9922 82.4139 87.1305C82.2909 87.2073 82.2756 87.1766 82.3524 87.0383C82.4446 86.8847 82.3985 86.8539 82.1527 86.9154C81.9683 86.9769 81.8147 86.9461 81.8147 86.8847C81.8147 86.8078 81.5842 86.7003 81.323 86.6388C81.0465 86.5774 80.8928 86.5006 80.985 86.4698C81.0772 86.4391 82.2449 86.7003 83.5969 87.0383C84.9336 87.3763 86.9309 87.7911 88.0064 87.9755C89.9269 88.2982 90.0037 88.2982 90.9716 88.037C92.5848 87.6068 93.6296 86.4237 96.011 82.3984C97.194 80.4011 97.1633 80.2321 95.3503 77.9121C92.6002 74.363 89.9115 71.3363 88.4212 70.0611C87.7913 69.5233 87.3457 69.0317 87.3457 68.8627C87.3457 68.6937 87.653 67.6028 88.0371 66.4198C88.4058 65.2522 88.8667 63.5928 89.0357 62.7325C89.2048 61.8721 89.4352 61.1039 89.5428 61.0424C90.0498 60.689 90.311 60.5969 90.5107 60.6737C90.6182 60.7198 90.7104 60.689 90.6797 60.5969C90.6643 60.52 91.8934 59.8901 93.4145 59.2141C100.129 56.2335 103.125 54.5281 103.432 53.5448C103.632 52.9302 103.57 48.3364 103.355 47.1687C103.232 46.5695 103.032 45.9703 102.894 45.8013C102.648 45.5248 102.664 45.5248 103.324 45.6323C103.708 45.6938 104.261 45.8628 104.553 46.0164C105.199 46.3544 108.149 48.9509 108.425 49.4426C108.579 49.6884 108.625 50.6563 108.609 53.0839C108.594 56.4179 108.471 57.3243 108.056 57.2936C107.933 57.2782 107.365 56.9095 106.812 56.4639C105.445 55.4038 105.491 55.5728 106.858 56.6944C107.457 57.1707 107.933 57.6623 107.933 57.7699C107.933 58.3076 103.57 60.7812 100.636 61.9182C97.7471 63.0244 96.7024 63.5621 95.9035 64.2996C94.5975 65.498 93.9522 67.2341 93.9522 69.5541C93.9522 70.2915 93.8908 70.9061 93.8139 70.9061C93.7371 70.9061 93.4298 70.7986 93.1379 70.6756C92.2929 70.3223 92.2468 70.4298 93.0611 70.7986C93.9215 71.198 98.7765 75.8072 100.528 77.8967C101.619 79.2027 102.402 80.5086 102.402 81.0617C102.402 81.538 101.604 83.735 101.004 84.8873C99.8981 87.0076 98.4385 88.6362 97.4552 88.8359C97.2094 88.882 96.9789 88.9895 96.9328 89.051C96.6256 89.558 86.9923 88.5133 84.4573 87.699C84.2422 87.6375 84.2422 87.6529 84.4112 87.7758C84.5802 87.8987 84.5495 87.9601 84.2729 88.1138C83.9964 88.2674 83.8273 88.2521 83.3664 88.0523C82.7672 87.8065 80.7085 87.1919 80.4934 87.1919C80.2629 87.2073 81.83 87.7911 82.7058 88.0216C83.1667 88.1445 83.5662 88.2828 83.6123 88.3289C83.6583 88.375 83.1974 88.9434 82.5982 89.6041C81.2308 91.079 80.5855 92.0316 80.5855 92.554C80.5855 92.9074 80.6316 92.8766 80.8775 92.3389C81.2616 91.5092 83.5354 88.8359 84.1961 88.4211C84.8106 88.037 84.8875 88.037 87.653 88.544C89.9883 88.9588 93.4606 89.3275 95.5655 89.3736C96.9789 89.4197 97.3477 89.3736 97.87 89.1124C99.3296 88.4057 100.912 86.2087 102.111 83.2127C103.247 80.355 103.078 80.017 97.9161 74.87C95.7191 72.6883 94.3824 71.2441 94.321 70.9829C94.1212 70.1686 94.3671 67.6489 94.7512 66.5735C95.4886 64.6069 96.4412 63.8387 99.7906 62.5942C102.295 61.6723 105.982 59.7979 107.396 58.7378C108.225 58.1079 108.517 57.7852 108.671 57.309C108.932 56.5715 109.101 51.9316 108.932 50.3952C108.825 49.3504 108.809 49.3197 107.872 48.3978C107.365 47.8755 106.459 47.0765 105.875 46.6003C104.953 45.832 104.676 45.6938 103.647 45.4787C103.002 45.3404 101.619 44.9563 100.559 44.6183C99.4986 44.2956 97.7318 43.8194 96.6563 43.5582C94.659 43.0819 93.7218 42.7132 93.3377 42.2522C92.9997 41.8374 93.1226 40.7312 93.6142 39.6711C93.86 39.1487 94.7972 37.7813 95.7037 36.6444C98.9302 32.5883 100.712 29.623 100.835 28.1173C100.912 27.1033 100.605 26.3966 99.2835 24.6144C98.2542 23.2009 92.1239 16.9324 91.4325 16.5636C91.0638 16.3792 90.6951 16.3485 89.6657 16.4253C85.7018 16.7326 83.0899 17.4855 78.7419 19.5596C76.0378 20.8348 76.0532 20.8348 74.9162 19.8208C73.9022 18.9143 72.289 17.7774 70.8755 16.9784C70.3838 16.7173 69.969 16.3792 69.9537 16.241C69.9076 15.7032 69.9997 15.0119 70.307 13.7213C70.9984 10.6485 71.3518 6.69993 71.0599 5.02525C70.9677 4.44142 70.8755 3.85758 70.8448 3.73467C70.8294 3.62712 70.7679 3.44276 70.6911 3.33521C70.3378 2.75137 70.9062 3.15085 72.6116 4.70261C75.6383 7.43741 76.468 8.25169 76.5294 8.57433C76.5602 8.74334 76.7292 9.03526 76.8982 9.21963C77.5281 9.89565 77.6357 12.2771 77.2976 18.6685C77.2208 19.8822 77.2362 19.8515 77.4513 18.1308C77.5896 17.0706 77.6971 14.9965 77.7125 13.2911C77.7278 9.06599 77.8354 9.31181 74.1941 5.90101C72.627 4.42606 71.1213 3.07403 70.8448 2.8743C70.5068 2.64384 69.3084 2.27509 67.1574 1.76808C65.3905 1.33789 63.808 0.999886 63.6237 0.999886C63.4547 0.999886 63.1013 1.1228 62.8401 1.27644ZM92.9075 18.0847C94.5975 19.6211 98.1927 23.4621 99.1453 24.7373C100.697 26.8268 100.866 27.9791 99.8674 29.9764C99.1145 31.5282 97.532 33.8481 95.3964 36.5829C93.4452 39.0719 92.9997 39.8862 92.9075 41.146C92.846 41.8528 92.8921 42.0986 93.1226 42.3598L93.4145 42.6824L92.6463 42.5595C92.2315 42.4981 91.2174 42.3598 90.4185 42.2676C89.6042 42.16 88.8667 42.0371 88.7746 41.9757C88.6824 41.9142 88.3444 41.0538 88.0371 40.0552C87.7298 39.0719 87.1613 37.5508 86.7926 36.6905C86.3778 35.7379 86.1627 35.0158 86.2241 34.8468C86.2702 34.6931 87.1921 33.6638 88.2522 32.5729C91.156 29.5923 93.4913 26.4888 94.49 24.3224C95.0123 23.1855 95.2428 21.9257 94.997 21.603C94.8894 21.4647 93.983 20.3739 92.9997 19.1755C92.001 17.9771 91.1867 16.9631 91.1867 16.917C91.1867 16.6251 91.6784 16.9631 92.9075 18.0847ZM13.9058 80.3089C14.1823 80.8466 14.5818 81.5841 14.8122 81.9528C15.0734 82.4291 15.1195 82.6135 14.9659 82.552C14.843 82.5059 13.368 82.1372 11.678 81.7377C9.98794 81.3536 8.22108 80.9081 7.76016 80.7698L6.91514 80.524L8.75882 80.3242C9.77285 80.2167 11.1863 79.9555 11.9084 79.7558C12.6306 79.556 13.2605 79.3717 13.3066 79.3717C13.3527 79.3563 13.6292 79.7865 13.9058 80.3089ZM31.1288 97.3936C32.2657 97.916 33.4334 98.4538 33.7407 98.5613C34.217 98.7303 34.3245 98.8532 34.4013 99.3141C34.4782 99.7904 34.4167 99.9287 33.9865 100.374C32.9725 101.45 30.0533 103.186 28.9318 103.401C28.4247 103.493 22.2791 103.109 20.7274 102.894L20.0206 102.786L21.4495 102.064C23.0473 101.25 25.9511 99.0683 27.5951 97.4551C28.1789 96.8866 28.7474 96.4104 28.8703 96.4104C28.9779 96.4104 29.9919 96.8559 31.1288 97.3936ZM57.1401 99.6983C57.2323 99.8673 57.4627 100.175 57.6624 100.39C57.8468 100.605 58.0005 100.835 58.0005 100.897C58.0005 101.096 56.925 101.035 55.7727 100.774C55.1888 100.635 54.3899 100.466 54.0058 100.39C52.8842 100.159 52.9918 100.006 54.4206 99.7904C55.1581 99.6982 55.911 99.5446 56.08 99.4832C56.5409 99.2834 56.9557 99.3756 57.1401 99.6983Z" fill="white"/>
<path d="M62.8401 1.27644C61.949 1.82954 59.2296 4.87161 58.0926 6.59238C56.8789 8.43606 56.4641 9.1889 55.6344 11.0172L55.0967 12.2002H53.0532C51.9317 12.2156 50.4875 12.2771 49.8575 12.3692C48.2443 12.569 47.6144 12.5536 47.3532 12.2924C47.2303 12.1695 47.0152 11.5703 46.8616 10.9558C46.3545 8.80479 44.6491 5.67054 43.0513 3.9344C42.6057 3.47348 42.3599 3.15085 42.4828 3.24303C44.7874 4.91771 49.3352 8.51289 50.7794 9.81882C51.4708 10.4487 51.3939 10.3412 50.4721 9.43472C48.3365 7.31449 42.3906 2.68993 41.8068 2.68993C41.4995 2.68993 35.8456 4.7487 35.1695 5.11743C34.6779 5.37862 34.3706 5.93173 33.8022 7.6525C33.0032 10.0954 32.7881 11.2784 32.7267 13.9825C32.6652 16.3792 32.6652 16.41 32.8189 14.8275C33.2951 9.55764 34.2784 6.33118 35.7073 5.31716C36.5062 4.7487 40.1168 3.45813 40.9157 3.45813C41.5917 3.45813 41.6839 3.50422 42.5135 4.39532C43.7273 5.67054 45.6324 8.9738 46.8001 11.8161C47.3378 13.1375 47.4761 13.1989 49.6885 12.9992C50.7026 12.907 52.2236 12.8302 53.0686 12.8302C54.9737 12.8302 55.0352 12.7841 56.2797 10.4488C58.8762 5.59373 61.442 2.38264 63.2089 1.78345C64.0231 1.52225 65.2062 1.58372 66.8348 1.99854C69.462 2.65919 70.0151 3.08939 70.3224 4.64115C70.5221 5.732 70.3839 9.11208 70.0612 11.1401C69.7232 13.245 69.5849 16.241 69.8154 16.7787C69.9229 17.0553 70.3224 17.424 70.8755 17.7467C72.1046 18.4688 73.4259 19.4213 74.5936 20.4353C75.5154 21.2343 75.6383 21.2957 76.2222 21.2343C76.5909 21.1882 78.1119 20.5583 80.0632 19.6211C84.3651 17.5623 86.2088 16.9938 88.8667 16.9324C89.6503 16.917 90.2188 16.9938 90.48 17.1167C91.0792 17.4394 94.2595 21.2036 94.4285 21.772C94.8894 23.3852 92.2161 27.4106 87.4686 32.281C85.8093 33.9864 85.502 34.3859 85.502 34.7853C85.502 35.0465 85.84 36.1066 86.2549 37.136C86.6697 38.1808 87.2228 39.7479 87.5147 40.6083C87.8527 41.6684 88.1293 42.2676 88.329 42.4059C88.5134 42.5134 89.6503 42.7593 90.8794 42.9436C94.4746 43.4814 97.1633 43.9884 98.5461 44.4186C100.328 44.9717 102.326 45.9089 102.602 46.3391C103.186 47.2609 103.416 51.8701 102.925 53.0839C102.387 54.4359 100.359 55.5267 91.1253 59.3985C89.8808 59.9208 89.0665 60.351 88.9282 60.5661C88.8053 60.7659 88.498 61.8567 88.2522 63.0244C88.0064 64.1767 87.5915 65.8974 87.3457 66.8346C86.6236 69.5387 86.3931 69.0471 90.1573 72.7959C94.2134 76.8212 95.842 78.7571 96.18 79.9248L96.4258 80.7544L95.7805 81.9375C94.1673 84.872 92.9228 86.3777 91.5708 87.0383C90.2034 87.7143 88.4212 87.4992 81.8454 85.8092C78.2502 84.8874 78.1427 84.9027 76.7906 86.2394C74.486 88.4979 72.458 90.8639 72.3658 91.3863C72.289 91.7243 72.458 92.9074 72.8114 94.7357C73.5949 98.7918 73.9637 101.204 74.0712 102.863C74.1634 104.307 74.1634 104.323 73.7025 104.953C73.1033 105.767 71.0599 107.303 69.6156 108.01C68.3865 108.625 67.2957 108.763 66.5889 108.394C64.9296 107.534 60.2743 103.14 58.4614 100.712C57.0633 98.8379 56.7867 98.5613 56.2643 98.5613C55.4654 98.5613 51.4861 99.5139 50.9791 99.8212C50.5796 100.052 50.426 100.313 50.2263 100.989C49.1508 104.83 48.3211 107.042 46.7386 110.407C45.8936 112.189 45.4327 112.758 44.6645 112.957C44.0192 113.111 39.2717 112.712 38.7186 112.45C38.1348 112.174 37.7046 111.329 36.8903 108.84C36.0299 106.213 34.893 100.897 34.7701 98.9454L34.724 98.3309L32.1121 96.9942C30.6833 96.2567 29.3466 95.6575 29.1469 95.6422C28.6091 95.6422 28.225 95.888 26.8423 97.2093C24.3379 99.56 20.6659 102.049 19.4214 102.203C18.8991 102.279 18.6993 102.218 17.9772 101.711C17.5009 101.388 16.5484 100.513 15.8263 99.7597L14.5203 98.3923V97.0403C14.5203 94.5359 15.1963 90.5106 16.2257 86.8693L16.8403 84.6876L16.0721 83.52C15.6419 82.8747 14.9352 81.6609 14.4742 80.8159C14.0133 79.9709 13.4756 79.1566 13.2605 79.0029C12.9225 78.7571 12.8456 78.7571 12.2311 78.9568C10.7561 79.4946 8.97392 79.6943 6.60786 79.6329C3.0895 79.5407 2.9205 79.4024 2.06012 76.053C1.41483 73.4412 1.44556 73.0571 2.41349 71.6589C3.5197 70.0765 6.17767 67.4799 7.9138 66.2969C8.71273 65.7438 9.38875 65.16 9.41947 65.0063C9.48093 64.7451 9.35802 64.7759 8.58982 65.2214C6.3774 66.4505 4.2879 68.2481 2.79759 70.1994C1.52238 71.8433 1 72.673 1 73.0417C1 73.9021 2.72077 79.5253 3.07414 79.8172C3.18169 79.9094 3.96525 80.1091 4.79491 80.2628C5.62457 80.4164 7.16097 80.8005 8.20572 81.0924C9.25047 81.3997 11.2632 81.9067 12.6766 82.2294L15.2732 82.7978L15.9031 83.7965C16.6406 84.9488 16.6559 84.7798 15.7802 87.6529C14.9198 90.4338 14.4281 92.7076 14.1209 95.1659C13.8136 97.7317 13.9058 98.3769 14.6432 99.2066C15.4268 100.082 18.1923 102.541 18.684 102.786C19.1756 103.048 24.5991 103.509 27.5029 103.539L29.6539 103.555L30.5757 103.032C32.0199 102.203 33.2951 101.327 33.9097 100.743L34.4782 100.205L34.5704 100.804C35.4154 106.028 36.4448 109.869 37.6432 112.235L37.9965 112.927L41.6532 113.172C44.2036 113.341 45.4327 113.372 45.6632 113.265C46.1548 113.05 46.754 112.036 47.8295 109.7C49.074 106.95 49.7807 105.03 50.3338 102.817C50.8869 100.635 51.1635 100.251 52.2082 100.251C52.7921 100.251 54.2977 100.666 53.929 100.728C53.5603 100.789 56.3411 101.158 57.263 101.158C58.2616 101.173 58.2924 101.189 58.7533 101.772C59.0145 102.095 59.2296 102.433 59.2296 102.51C59.2296 102.602 58.8455 103.555 58.3692 104.645C56.3104 109.424 54.2209 112.512 52.5001 113.28C52.0546 113.48 51.2249 113.557 48.8589 113.633L45.7861 113.726L49.0893 113.71L52.3926 113.695L53.1147 113.28C54.943 112.205 57.5549 108.087 58.9223 104.138L59.4139 102.74L61.5034 104.845C63.9156 107.257 66.0205 108.901 67.1267 109.239C67.5415 109.362 68.279 109.454 68.7399 109.454C69.4774 109.439 69.5235 109.408 69.0625 109.331L68.5248 109.239L68.9089 108.993C69.124 108.855 69.6156 108.563 70.0151 108.333C70.4146 108.118 71.3979 107.411 72.2122 106.781C73.0265 106.151 73.81 105.629 73.979 105.629C74.1787 105.629 74.2402 105.552 74.1941 105.414C74.148 105.291 74.2248 104.968 74.3785 104.692C74.8855 103.693 74.4246 98.8379 73.3491 94.0443C73.0879 92.8766 72.9189 91.7551 72.9804 91.54C73.0265 91.3402 73.4566 90.7718 73.9483 90.2955C74.4246 89.8192 75.4693 88.713 76.2529 87.8372C77.0518 86.9769 77.8968 86.1626 78.158 86.0243C78.5575 85.8092 78.6804 85.8246 79.4793 86.0704C79.9556 86.2087 80.4473 86.3316 80.5395 86.3162C80.647 86.3162 80.7085 86.3623 80.6624 86.4238C80.5855 86.5467 82.3985 87.407 83.0438 87.5607C83.2589 87.6068 83.3357 87.6068 83.2282 87.5607C83.136 87.5146 83.0745 87.4224 83.1206 87.3456C83.2282 87.1766 82.629 86.9922 82.4139 87.1305C82.2909 87.2073 82.2756 87.1766 82.3524 87.0383C82.4446 86.8847 82.3985 86.8539 82.1527 86.9154C81.9683 86.9769 81.8147 86.9461 81.8147 86.8847C81.8147 86.8078 81.5842 86.7003 81.323 86.6388C81.0465 86.5774 80.8928 86.5006 80.985 86.4698C81.0772 86.4391 82.2449 86.7003 83.5969 87.0383C84.9336 87.3763 86.9309 87.7911 88.0064 87.9755C89.9269 88.2982 90.0037 88.2982 90.9716 88.037C92.5848 87.6068 93.6296 86.4237 96.011 82.3984C97.194 80.4011 97.1633 80.2321 95.3503 77.9121C92.6002 74.363 89.9115 71.3363 88.4212 70.0611C87.7913 69.5233 87.3457 69.0317 87.3457 68.8627C87.3457 68.6937 87.653 67.6028 88.0371 66.4198C88.4058 65.2522 88.8667 63.5928 89.0357 62.7325C89.2048 61.8721 89.4352 61.1039 89.5428 61.0424C90.0498 60.689 90.311 60.5969 90.5107 60.6737C90.6182 60.7198 90.7104 60.689 90.6797 60.5969C90.6643 60.52 91.8934 59.8901 93.4145 59.2141C100.129 56.2335 103.125 54.5281 103.432 53.5448C103.632 52.9302 103.57 48.3364 103.355 47.1687C103.232 46.5695 103.032 45.9703 102.894 45.8013C102.648 45.5248 102.664 45.5248 103.324 45.6323C103.708 45.6938 104.261 45.8628 104.553 46.0164C105.199 46.3544 108.149 48.9509 108.425 49.4426C108.579 49.6884 108.625 50.6563 108.609 53.0839C108.594 56.4179 108.471 57.3243 108.056 57.2936C107.933 57.2782 107.365 56.9095 106.812 56.4639C105.445 55.4038 105.491 55.5728 106.858 56.6944C107.457 57.1707 107.933 57.6623 107.933 57.7699C107.933 58.3076 103.57 60.7812 100.636 61.9182C97.7471 63.0244 96.7024 63.5621 95.9035 64.2996C94.5975 65.498 93.9522 67.2341 93.9522 69.5541C93.9522 70.2915 93.8908 70.9061 93.8139 70.9061C93.7371 70.9061 93.4298 70.7986 93.1379 70.6756C92.2929 70.3223 92.2468 70.4298 93.0611 70.7986C93.9215 71.198 98.7765 75.8072 100.528 77.8967C101.619 79.2027 102.402 80.5086 102.402 81.0617C102.402 81.538 101.604 83.735 101.004 84.8873C99.8981 87.0076 98.4385 88.6362 97.4552 88.8359C97.2094 88.882 96.9789 88.9895 96.9328 89.051C96.6256 89.558 86.9923 88.5133 84.4573 87.699C84.2422 87.6375 84.2422 87.6529 84.4112 87.7758C84.5802 87.8987 84.5495 87.9601 84.2729 88.1138C83.9964 88.2674 83.8273 88.2521 83.3664 88.0523C82.7672 87.8065 80.7085 87.1919 80.4934 87.1919C80.2629 87.2073 81.83 87.7911 82.7058 88.0216C83.1667 88.1445 83.5662 88.2828 83.6123 88.3289C83.6583 88.375 83.1974 88.9434 82.5982 89.6041C81.2308 91.079 80.5855 92.0316 80.5855 92.554C80.5855 92.9074 80.6316 92.8766 80.8775 92.3389C81.2616 91.5092 83.5354 88.8359 84.1961 88.4211C84.8106 88.037 84.8875 88.037 87.653 88.544C89.9883 88.9588 93.4606 89.3275 95.5655 89.3736C96.9789 89.4197 97.3477 89.3736 97.87 89.1124C99.3296 88.4057 100.912 86.2087 102.111 83.2127C103.247 80.355 103.078 80.017 97.9161 74.87C95.7191 72.6883 94.3824 71.2441 94.321 70.9829C94.1212 70.1686 94.3671 67.6489 94.7512 66.5735C95.4886 64.6069 96.4412 63.8387 99.7906 62.5942C102.295 61.6723 105.982 59.7979 107.396 58.7378C108.225 58.1079 108.517 57.7852 108.671 57.309C108.932 56.5715 109.101 51.9316 108.932 50.3952C108.825 49.3504 108.809 49.3197 107.872 48.3978C107.365 47.8755 106.459 47.0765 105.875 46.6003C104.953 45.832 104.676 45.6938 103.647 45.4787C103.002 45.3404 101.619 44.9563 100.559 44.6183C99.4986 44.2956 97.7318 43.8194 96.6563 43.5582C94.659 43.0819 93.7218 42.7132 93.3377 42.2522C92.9997 41.8374 93.1226 40.7312 93.6142 39.6711C93.86 39.1487 94.7972 37.7813 95.7037 36.6444C98.9302 32.5883 100.712 29.623 100.835 28.1173C100.912 27.1033 100.605 26.3966 99.2835 24.6144C98.2542 23.2009 92.1239 16.9324 91.4325 16.5636C91.0638 16.3792 90.6951 16.3485 89.6657 16.4253C85.7018 16.7326 83.0899 17.4855 78.7419 19.5596C76.0378 20.8348 76.0532 20.8348 74.9162 19.8208C73.9022 18.9143 72.289 17.7774 70.8755 16.9784C70.3838 16.7173 69.969 16.3792 69.9537 16.241C69.9076 15.7032 69.9997 15.0119 70.307 13.7213C70.9984 10.6485 71.3518 6.69993 71.0599 5.02525C70.9677 4.44142 70.8755 3.85758 70.8448 3.73467C70.8294 3.62712 70.7679 3.44276 70.6911 3.33521C70.3378 2.75137 70.9062 3.15085 72.6116 4.70261C75.6383 7.43741 76.468 8.25169 76.5294 8.57433C76.5602 8.74334 76.7292 9.03526 76.8982 9.21963C77.5281 9.89565 77.6357 12.2771 77.2976 18.6685C77.2208 19.8822 77.2362 19.8515 77.4513 18.1308C77.5896 17.0706 77.6971 14.9965 77.7125 13.2911C77.7278 9.06599 77.8354 9.31181 74.1941 5.90101C72.627 4.42606 71.1213 3.07403 70.8448 2.8743C70.5068 2.64384 69.3084 2.27509 67.1574 1.76808C65.3905 1.33789 63.808 0.999886 63.6237 0.999886C63.4547 0.999886 63.1013 1.1228 62.8401 1.27644ZM92.9075 18.0847C94.5975 19.6211 98.1927 23.4621 99.1453 24.7373C100.697 26.8268 100.866 27.9791 99.8674 29.9764C99.1145 31.5282 97.532 33.8481 95.3964 36.5829C93.4452 39.0719 92.9997 39.8862 92.9075 41.146C92.846 41.8528 92.8921 42.0986 93.1226 42.3598L93.4145 42.6824L92.6463 42.5595C92.2315 42.4981 91.2174 42.3598 90.4185 42.2676C89.6042 42.16 88.8667 42.0371 88.7746 41.9757C88.6824 41.9142 88.3444 41.0538 88.0371 40.0552C87.7298 39.0719 87.1613 37.5508 86.7926 36.6905C86.3778 35.7379 86.1627 35.0158 86.2241 34.8468C86.2702 34.6931 87.1921 33.6638 88.2522 32.5729C91.156 29.5923 93.4913 26.4888 94.49 24.3224C95.0123 23.1855 95.2428 21.9257 94.997 21.603C94.8894 21.4647 93.983 20.3739 92.9997 19.1755C92.001 17.9771 91.1867 16.9631 91.1867 16.917C91.1867 16.6251 91.6784 16.9631 92.9075 18.0847ZM13.9058 80.3089C14.1823 80.8466 14.5818 81.5841 14.8122 81.9528C15.0734 82.4291 15.1195 82.6135 14.9659 82.552C14.843 82.5059 13.368 82.1372 11.678 81.7377C9.98794 81.3536 8.22108 80.9081 7.76016 80.7698L6.91514 80.524L8.75882 80.3242C9.77285 80.2167 11.1863 79.9555 11.9084 79.7558C12.6306 79.556 13.2605 79.3717 13.3066 79.3717C13.3527 79.3563 13.6292 79.7865 13.9058 80.3089ZM31.1288 97.3936C32.2657 97.916 33.4334 98.4538 33.7407 98.5613C34.217 98.7303 34.3245 98.8532 34.4013 99.3141C34.4782 99.7904 34.4167 99.9287 33.9865 100.374C32.9725 101.45 30.0533 103.186 28.9318 103.401C28.4247 103.493 22.2791 103.109 20.7274 102.894L20.0206 102.786L21.4495 102.064C23.0473 101.25 25.9511 99.0683 27.5951 97.4551C28.1789 96.8866 28.7474 96.4104 28.8703 96.4104C28.9779 96.4104 29.9919 96.8559 31.1288 97.3936ZM57.1401 99.6983C57.2323 99.8673 57.4627 100.175 57.6624 100.39C57.8468 100.605 58.0005 100.835 58.0005 100.897C58.0005 101.096 56.925 101.035 55.7727 100.774C55.1888 100.635 54.3899 100.466 54.0058 100.39C52.8842 100.159 52.9918 100.006 54.4206 99.7904C55.1581 99.6982 55.911 99.5446 56.08 99.4832C56.5409 99.2834 56.9557 99.3756 57.1401 99.6983Z" stroke="white" stroke-width="0.528402" mask="url(#path-1-outside-1_236_4028)"/>
</g>
<path id="Vector_2" d="M52.2738 11.4839L52.2738 11.4839L52.2718 11.482C52.2518 11.4632 52.2321 11.4445 52.2126 11.4261C52.0977 11.3178 51.9926 11.2185 51.9128 11.1404C51.8664 11.0949 51.8266 11.0548 51.798 11.0232C51.7839 11.0077 51.7703 10.9918 51.7594 10.977C51.7541 10.9697 51.7473 10.9599 51.7413 10.9485L51.7412 10.9483C51.7374 10.9412 51.7234 10.9146 51.7234 10.879C51.7234 10.8574 51.7252 10.8191 51.7449 10.782C51.7559 10.7612 51.7737 10.7388 51.8007 10.7223C51.8279 10.7056 51.8565 10.6998 51.8814 10.6998C51.9255 10.6998 51.9617 10.7179 51.9824 10.7296C52.0063 10.7432 52.0305 10.7611 52.0543 10.7806C52.1472 10.8566 52.2921 11.0062 52.5051 11.2344L52.5052 11.2344L52.5078 11.2373L52.9534 11.7443L52.7654 11.9294L52.2738 11.4839ZM51.8506 10.9586C51.8494 10.958 51.8489 10.9577 51.8489 10.9578C51.8489 10.9578 51.8495 10.9581 51.8506 10.9586Z" fill="white" stroke="white" stroke-width="0.264201"/>
<path id="Vector_3" d="M16.1562 18.6138L16.1561 18.6137L18.7614 18.607L18.7875 18.4775C18.7877 18.4775 18.7878 18.4775 18.788 18.4776C20.9417 18.9115 23.8586 20.1012 26.5083 21.5954L26.5084 21.5955C26.6903 21.6983 26.8439 21.8024 26.9645 21.902C27.0832 22.0001 27.1769 22.0996 27.2306 22.1949C27.2819 22.2858 27.3179 22.4172 27.2275 22.5254C27.1504 22.6178 27.0177 22.6415 26.889 22.6415C26.8638 22.6415 26.8394 22.6356 26.8243 22.6316C26.8062 22.6267 26.7857 22.6201 26.7639 22.6125C26.7201 22.5971 26.6645 22.5752 26.5996 22.548C26.4693 22.4935 26.2952 22.4154 26.09 22.32C25.6795 22.1292 25.1405 21.8674 24.5714 21.5828L24.5714 21.5828L24.5701 21.5822C22.3659 20.4495 19.6756 19.5029 17.9267 19.2291L17.9257 19.229C17.4551 19.1518 17.181 19.12 16.9864 19.1307C16.8037 19.1406 16.6917 19.1878 16.5454 19.2854L16.5447 19.2858C16.4257 19.3641 16.2084 19.571 15.9305 19.8693C15.6564 20.1633 15.3332 20.5352 15.0049 20.9324C14.3471 21.7283 13.6765 22.6168 13.3439 23.1761L13.3439 23.1761L13.3431 23.1774C13.0642 23.6345 12.9293 23.8756 12.868 24.0982C12.8081 24.3156 12.8163 24.523 12.8548 24.9238C12.9836 26.1582 13.4971 27.9157 14.204 29.7011C14.9103 31.4852 15.8051 33.2853 16.6894 34.6041L16.6895 34.6041L16.6917 34.6077C16.7692 34.7316 16.8346 34.8454 16.873 34.9308C16.891 34.9706 16.9092 35.0174 16.9141 35.0603C16.9163 35.0799 16.9188 35.1218 16.8956 35.1636C16.865 35.2189 16.8102 35.24 16.7641 35.24C16.729 35.24 16.6996 35.229 16.6802 35.2197C16.6594 35.2099 16.64 35.1973 16.6227 35.1845C16.5881 35.159 16.5508 35.1245 16.5124 35.0852C16.435 35.0058 16.3409 34.8939 16.2357 34.7589C16.0247 34.4883 15.761 34.1146 15.4845 33.6984C14.9318 32.8665 14.3214 31.8547 13.9721 31.1406L13.9721 31.1406L13.9716 31.1395C13.1378 29.3948 12.7199 28.2183 12.2415 26.2277L12.2415 26.2275C12.2255 26.1604 12.2098 26.0954 12.1946 26.0324C11.9736 25.1142 11.8515 24.6072 12.0512 24.0314C12.1567 23.7272 12.3491 23.4095 12.6455 23.0015C12.9024 22.6478 13.2433 22.2187 13.6834 21.6646C13.7515 21.5788 13.8221 21.4899 13.8951 21.3979L13.8956 21.3972C14.9708 20.061 15.9859 18.8151 16.1562 18.6138Z" fill="white" stroke="white" stroke-width="0.264201"/>
<path id="Vector_4" d="M22.672 72.2495L22.672 72.2495C17.1487 61.2184 18.6752 46.9202 26.4056 37.4153C31.0799 31.6457 38.299 27.3864 45.1099 26.3825C45.3989 26.3392 45.7058 26.2923 45.9721 26.2516C46.2705 26.206 46.5178 26.1682 46.6317 26.1519C46.7495 26.1351 47.0903 26.1237 47.5316 26.1161C47.9781 26.1084 48.5397 26.1045 49.1086 26.1045H51.1828L51.1896 26.3685L48.8082 26.4915L48.8076 26.4915C45.5762 26.6446 43.99 26.9194 41.237 27.8065C38.6986 28.6322 34.994 30.5003 33.0561 31.9652L33.0558 31.9654C25.8489 37.3821 21.5035 44.9852 20.3554 54.1691C20.1571 55.8173 20.1569 59.8781 20.3557 61.7903C20.7074 65.0314 22.116 69.6389 23.6127 72.3727L23.613 72.3732C27.1779 78.9522 32.6662 83.5197 39.1107 85.2759L39.1116 85.2762C39.5234 85.3917 39.8212 85.4828 40.0093 85.5479C40.1021 85.5801 40.1733 85.6076 40.2189 85.63C40.2363 85.6386 40.2694 85.6553 40.2934 85.6809C40.3011 85.6891 40.3477 85.7395 40.3278 85.8132C40.3081 85.8861 40.2434 85.9065 40.2331 85.9097C40.1999 85.9201 40.1633 85.9186 40.1441 85.9175C40.1181 85.9161 40.0869 85.9127 40.0516 85.9078C39.9808 85.898 39.8853 85.8809 39.767 85.8569C39.5299 85.8088 39.1945 85.7315 38.7671 85.6237L38.7667 85.6236C31.9359 83.8772 26.0372 78.9644 22.672 72.2495Z" fill="white" stroke="white" stroke-width="0.264201"/>
<path id="Vector_5" d="M51.7209 26.2877C51.7861 26.272 51.9157 26.2649 52.081 26.2648C52.2494 26.2573 52.3841 26.2603 52.4629 26.2747C52.4826 26.2782 52.5075 26.284 52.5308 26.2947C52.5423 26.3 52.5606 26.3098 52.5779 26.327C52.5962 26.3452 52.6188 26.3779 52.62 26.4237C52.6212 26.4683 52.6014 26.5009 52.5867 26.5187C52.5722 26.5361 52.5562 26.5474 52.5456 26.554C52.5242 26.5674 52.5 26.5768 52.4791 26.5837L52.4713 26.5863L52.4632 26.5879C52.2914 26.6223 51.999 26.6216 51.8019 26.5888C51.7751 26.5847 51.751 26.5802 51.7307 26.5751C51.7145 26.571 51.6859 26.5633 51.6607 26.5472C51.6507 26.5408 51.6154 26.5174 51.6006 26.4696C51.5806 26.405 51.6123 26.3542 51.6364 26.3308C51.6565 26.3112 51.6783 26.3018 51.6877 26.298C51.6996 26.2932 51.7113 26.29 51.7209 26.2877Z" fill="white" stroke="white" stroke-width="0.264201"/>
<path id="Vector_6" d="M52.9468 26.7407L52.9468 26.741L52.9375 26.7382C52.9153 26.7316 52.894 26.7242 52.8752 26.7157C52.8593 26.7086 52.8327 26.6954 52.8103 26.6725C52.7984 26.6602 52.781 26.6384 52.7727 26.6064C52.7635 26.5704 52.7691 26.5339 52.7857 26.5037C52.8121 26.4555 52.8578 26.4377 52.87 26.4329C52.9061 26.4189 52.9522 26.4125 52.9941 26.4088C53.0401 26.4048 53.0961 26.4028 53.1599 26.4028C53.2902 26.4028 53.3989 26.41 53.4663 26.4288C53.4837 26.4337 53.507 26.4416 53.529 26.4556C53.5483 26.4678 53.5918 26.501 53.5999 26.5635C53.6082 26.6282 53.5721 26.672 53.5541 26.6896C53.5345 26.7088 53.5122 26.7215 53.4955 26.7299L53.4845 26.7354L53.4727 26.7387C53.4017 26.759 53.3068 26.7669 53.2175 26.7669C53.1265 26.7669 53.028 26.7587 52.9468 26.7407Z" fill="white" stroke="white" stroke-width="0.264201"/>
<path id="Vector_7" d="M54.9547 27.1847L54.9547 27.1848L53.8363 26.6729L53.8297 26.541C53.8307 26.541 53.8318 26.5409 53.8329 26.5409C53.8879 26.5387 53.9706 26.5495 54.0607 26.5649C54.1573 26.5813 54.2763 26.6054 54.4086 26.6347C54.6734 26.6933 54.9955 26.7735 55.3051 26.8565C55.6145 26.9393 55.9131 27.0255 56.1306 27.0961C56.2386 27.1312 56.3299 27.1635 56.393 27.1904C56.423 27.2032 56.4543 27.218 56.4784 27.2343C56.4881 27.2408 56.5115 27.2571 56.5289 27.2843C56.5385 27.2993 56.5522 27.3267 56.5514 27.3632C56.5506 27.3971 56.5378 27.4256 56.5208 27.4466C56.488 27.4884 56.4423 27.4978 56.4314 27.5L56.4312 27.5001C56.4114 27.5041 56.392 27.5048 56.377 27.5046C56.346 27.5044 56.3084 27.5004 56.2682 27.4946C56.1866 27.4828 56.0757 27.4608 55.9452 27.4318C55.6832 27.3736 55.3316 27.2847 54.9547 27.1847ZM53.8363 26.805C53.8362 26.805 53.8362 26.8051 53.8364 26.805H53.8363Z" fill="white" stroke="white" stroke-width="0.264201"/>
<path id="Vector_8" d="M74.6185 48.757L74.6184 48.7566C73.724 44.1306 72.1654 40.3945 69.6644 36.89L69.6642 36.8898C68.5686 35.3621 66.7174 33.3094 65.5846 32.3784L65.5845 32.3783C65.4377 32.2579 65.3285 32.1729 65.2689 32.1386L65.2685 32.1384C65.2574 32.132 65.228 32.1151 65.1936 32.1107C65.1774 32.1086 65.1188 32.1041 65.0733 32.1542C65.029 32.2029 65.0377 32.2594 65.0405 32.274C65.0469 32.3074 65.065 32.3356 65.0722 32.3467L65.0723 32.3468C65.083 32.3636 65.0968 32.3824 65.1123 32.4023C65.2325 32.5565 65.5686 32.9196 66.1269 33.5084C67.9655 35.4543 68.8046 36.5226 69.9665 38.4183C74.1865 45.3447 75.3056 53.7121 73.1773 62.5011L74.6185 48.757ZM74.6185 48.757C74.9129 50.3065 74.9588 51.0546 74.9434 54.3899M74.6185 48.757L69.1217 71.9121M69.1217 71.9121C68.5524 72.8353 68.0784 73.6521 67.7598 74.2507C67.6007 74.5496 67.479 74.7967 67.4034 74.9765C67.366 75.0657 67.3378 75.1432 67.3227 75.2045C67.3154 75.2344 67.3095 75.2674 67.3097 75.2991C67.3099 75.3232 67.3135 75.3825 67.3615 75.4269C67.4129 75.4764 67.4779 75.4879 67.5343 75.4807C67.5871 75.474 67.6376 75.451 67.6819 75.4249C67.7715 75.3719 67.875 75.2822 67.9866 75.1689C68.212 74.9402 68.4974 74.5885 68.8128 74.1564C69.4445 73.2909 70.2081 72.0875 70.8713 70.8613C72.6451 67.6067 73.9095 63.9982 74.6033 60.0979C74.8975 58.5184 74.9434 57.6475 74.9434 54.3899M69.1217 71.9121C70.9131 68.9876 72.4896 65.313 73.1773 62.5014L69.1217 71.9121ZM74.9434 54.3899C74.9434 54.3898 74.9434 54.3897 74.9434 54.3895H74.8113M74.9434 54.3899C74.9434 54.39 74.9434 54.3901 74.9434 54.3901L74.8113 54.3895M74.8113 54.3895C74.8267 51.0555 74.7806 50.3181 74.4887 48.7817M74.8113 54.3895C74.8113 57.6467 74.7652 58.5071 74.4733 60.0742L74.4887 48.7817M74.4887 48.7817C73.5976 44.1725 72.0458 40.4544 69.5569 36.9668L74.4887 48.7817ZM65.1318 32.3648C65.1318 32.3649 65.1327 32.3653 65.1342 32.366C65.1325 32.3651 65.1318 32.3647 65.1318 32.3648ZM65.2912 32.1983C65.2911 32.1983 65.2914 32.199 65.2923 32.2004C65.2916 32.1991 65.2912 32.1984 65.2912 32.1983Z" fill="white" stroke="white" stroke-width="0.264201"/>
<path id="Vector_9" d="M44.9477 33.3647L44.9489 33.3645C45.7515 33.2243 47.0165 33.1552 48.273 33.1552C49.5293 33.1552 50.7907 33.2243 51.5857 33.3646L51.5868 33.3648C57.4511 34.4479 62.4785 38.2386 65.2468 43.667C67.8897 48.8446 68.4756 54.7776 66.9472 60.7677C66.0824 64.1807 64.9226 66.6072 62.6717 69.8294L62.6713 69.8299C59.4109 74.45 53.9579 78.0202 48.7282 78.9485C47.0698 79.243 43.9364 79.2739 42.3091 79.0259L42.3086 79.0258C40.8196 78.7931 39.0102 78.2205 37.4033 77.4788L37.4029 77.4787C33.6698 75.7438 30.3154 72.3557 28.2296 68.1842C24.9067 61.5384 24.9553 53.6907 28.3821 46.4667C31.5487 39.7783 38.0509 34.6328 44.9477 33.3647ZM51.0667 33.9326L51.0666 33.9325C41.2622 32.4383 31.1151 39.3936 27.7053 49.9746C26.9411 52.3591 26.6356 54.1602 26.5285 56.7763C26.391 60.5372 26.9409 63.575 28.3463 66.8594L28.3463 66.8594C29.2479 68.9683 30.071 70.3247 31.476 72.0198C33.7809 74.7673 36.097 76.3979 39.5324 77.6651L39.5326 77.6652C41.421 78.3658 42.9877 78.6249 45.2789 78.6249L45.2794 78.6249C49.4914 78.6402 52.631 77.6505 56.4059 75.1288C61.2173 71.9059 64.8707 66.664 66.384 60.8249C67.8521 55.1362 67.3456 49.0238 65.011 44.3546L65.0109 44.3543C64.4245 43.1739 63.4889 41.7681 62.6151 40.6572C62.1783 40.1019 61.7594 39.6234 61.4097 39.2851C61.2347 39.1157 61.0797 38.9842 60.9508 38.8959C60.8153 38.8032 60.7301 38.7737 60.689 38.7737C60.6059 38.7737 60.5165 38.7562 60.452 38.7038C60.4176 38.6758 60.3868 38.6344 60.3774 38.58C60.3694 38.534 60.3787 38.4911 60.3962 38.4548C60.3906 38.4393 60.3775 38.4136 60.3514 38.3767C60.2946 38.2968 60.1962 38.1914 60.0585 38.0648C59.7847 37.8131 59.3762 37.4961 58.8962 37.1596C57.9365 36.4867 56.7071 35.7463 55.7336 35.3051C54.1776 34.6034 52.7757 34.192 51.0667 33.9326Z" fill="white" stroke="white" stroke-width="0.264201"/>
<path id="Vector_10" d="M45.933 40.2339L45.9334 40.2337L52.101 37.9501L52.0743 37.8208C52.0744 37.8207 52.0744 37.8207 52.0745 37.8207C52.8355 37.6638 54.2466 37.6106 55.647 37.6395C57.048 37.6683 58.462 37.7797 59.2293 37.9598L59.23 37.96C59.6303 38.0562 59.9146 38.133 60.0884 38.1888C60.1726 38.2158 60.2401 38.2407 60.2819 38.2634C60.2929 38.2694 60.3066 38.2775 60.3196 38.2882C60.3284 38.2953 60.3576 38.3195 60.3702 38.362C60.3777 38.3874 60.3789 38.4187 60.3669 38.4503C60.3555 38.4802 60.3363 38.4998 60.3212 38.5113C60.2946 38.5316 60.2666 38.5381 60.2555 38.5404C60.2286 38.546 60.1981 38.5465 60.1719 38.546C60.1432 38.5454 60.109 38.5431 60.0703 38.5395C59.9927 38.5323 59.8909 38.519 59.7667 38.4998C59.5179 38.4615 59.1738 38.3986 58.7424 38.31L58.7423 38.31C56.8232 37.914 53.9839 37.899 52.1129 38.2945L52.112 38.2947C51.3679 38.4465 50.008 38.8589 49.123 39.2099L49.1225 39.2101C43.3233 41.484 38.6166 46.5231 36.2928 52.9748L36.2927 52.975C36.1311 53.4214 35.9845 53.8073 35.8779 54.0688C35.825 54.1988 35.7807 54.3011 35.7488 54.3652C35.735 54.3928 35.7169 54.4274 35.6969 54.4508C35.6917 54.4569 35.6795 54.4706 35.6608 54.4821C35.6443 54.4923 35.5916 54.519 35.5301 54.4893C35.4755 54.4628 35.461 54.4129 35.4577 54.4006C35.454 54.3865 35.4529 54.3737 35.4527 54.365C35.448 54.2955 35.4655 54.1977 35.4903 54.0931C35.5171 53.98 35.5574 53.8399 35.6081 53.6805C35.7095 53.3614 35.8546 52.9578 36.0222 52.5234C36.3573 51.6549 36.7853 50.6558 37.1413 49.9515C39.1337 45.967 42.3612 42.3987 45.933 40.2339Z" fill="white" stroke="white" stroke-width="0.264201"/>
<path id="Vector_11" d="M1.07562 51.0555L0.947976 51.0895C0.934173 51.0378 0.934672 50.9669 0.938744 50.8972C0.943151 50.8217 0.953333 50.7278 0.968135 50.6194C0.997784 50.4021 1.04704 50.1189 1.11013 49.7931C1.23639 49.1411 1.41928 48.3124 1.61543 47.4874C1.81159 46.6623 2.02138 45.8395 2.20158 45.1991C2.29163 44.8792 2.37468 44.6033 2.44525 44.3951C2.48049 44.2911 2.51318 44.2023 2.54258 44.1326C2.56958 44.0685 2.59943 44.0064 2.63225 43.9664C2.71155 43.8684 2.84645 43.7643 3.01201 43.6581C3.18055 43.55 3.39176 43.4331 3.63346 43.3116C4.1171 43.0686 4.73007 42.8038 5.3837 42.5512C6.68845 42.047 8.17048 41.5857 9.12244 41.4452L9.12259 41.4452C9.48095 41.3927 9.86225 41.3349 10.163 41.2892C10.388 41.255 10.5679 41.2277 10.6594 41.2147C10.8843 41.1825 11.6465 41.1518 12.3345 41.1365L12.3353 41.1365C12.8185 41.1289 13.147 41.1362 13.3506 41.1647C13.4489 41.1784 13.5375 41.1994 13.6003 41.2388C13.6341 41.26 13.6695 41.2923 13.689 41.3403C13.7093 41.3902 13.7052 41.4393 13.6919 41.4794L13.692 41.4794L13.6902 41.484C13.6507 41.5895 13.5635 41.6639 13.446 41.7211C13.3295 41.7778 13.1673 41.8256 12.9499 41.8704C12.5138 41.9604 11.8195 42.0454 10.7373 42.1529L10.7367 42.153C9.04186 42.3133 7.3319 42.7027 5.95407 43.1963C5.26511 43.4431 4.66201 43.715 4.18649 43.9955C3.70799 44.2777 3.37088 44.5617 3.19933 44.8278L3.19863 44.8289C3.10319 44.9738 2.97776 45.2438 2.83821 45.5993C2.69986 45.9519 2.55105 46.3796 2.40766 46.8337C2.12052 47.7429 1.85761 48.75 1.74382 49.463C1.65332 50.0362 1.66067 50.4142 1.83261 50.8131C2.00866 51.2214 2.36181 51.6632 3.00047 52.3481C4.11081 53.5344 5.77404 54.8019 7.64019 55.8727C8.01858 56.0889 8.38539 56.3128 8.6715 56.4965C8.8145 56.5883 8.93799 56.6704 9.03299 56.7368C9.1242 56.8005 9.19855 56.856 9.23513 56.8926L9.24177 56.8992L9.2474 56.9067C9.31328 56.9946 9.35576 57.136 9.37785 57.2766C9.4006 57.4214 9.40529 57.5883 9.38006 57.7422L9.31895 58.2464L9.05576 58.2341L9.04045 57.6831C9.02453 57.4137 9.00298 57.3328 8.93647 57.2709C8.89857 57.2356 8.83771 57.1996 8.72971 57.156C8.62235 57.1126 8.48044 57.0661 8.28741 57.0043C6.75316 56.5189 4.66144 55.0892 2.79594 53.2545L2.79588 53.2545C2.28704 52.7533 1.84652 52.2859 1.52473 51.9117C1.36397 51.7248 1.23157 51.5598 1.13479 51.4245C1.08643 51.3569 1.0459 51.2953 1.0149 51.2411C0.984984 51.1888 0.959575 51.136 0.94746 51.0875L1.07562 51.0555ZM1.07562 51.0555C1.13707 51.3013 1.87454 52.1617 2.88857 53.1603L9.14172 41.5759C7.26731 41.8524 3.2573 43.4042 2.73493 44.0495C2.42765 44.4182 0.952704 50.5946 1.07562 51.0555Z" fill="white" stroke="white" stroke-width="0.264201"/>
<path id="Vector_12" d="M52.9794 85.556C53.6073 85.4765 54.7214 85.0849 55.9307 84.557C57.145 84.027 58.4721 83.352 59.531 82.695C60.9815 81.8 63.3719 79.9654 64.3185 79.0033L64.3192 79.0026C64.5654 78.7487 64.7431 78.5585 64.8528 78.4326C64.9067 78.3707 64.948 78.3202 64.9725 78.2838C64.9789 78.2744 64.9854 78.264 64.9911 78.2534C64.9959 78.2446 65.0044 78.2277 65.009 78.2066C65.0117 78.1943 65.0257 78.1233 64.9646 78.0712C64.9111 78.0257 64.8505 78.0405 64.841 78.0428L64.8406 78.0429C64.8095 78.0504 64.7814 78.068 64.767 78.0772C64.7475 78.0897 64.725 78.1058 64.7001 78.1247C64.6501 78.1627 64.5844 78.2164 64.5038 78.2851C64.3424 78.4228 64.1163 78.6247 63.8279 78.8901C61.3675 81.1364 56.8049 83.8463 53.6575 84.9158L53.6568 84.9161L53.6568 84.9161C53.2581 85.0541 52.9766 85.1645 52.838 85.2369C52.8041 85.2546 52.7705 85.2742 52.7452 85.2953C52.734 85.3047 52.713 85.3236 52.6985 85.3519C52.6906 85.3674 52.6817 85.3913 52.6824 85.4211C52.6831 85.4533 52.6947 85.4829 52.7134 85.5061C52.7451 85.5455 52.7878 85.5561 52.802 85.5593C52.8219 85.5637 52.8418 85.5649 52.8582 85.5652C52.8918 85.5656 52.9331 85.5621 52.9794 85.556ZM52.9794 85.556C52.9793 85.556 52.9792 85.5561 52.9791 85.5561L52.9679 85.4671L52.9794 85.556Z" fill="white" stroke="white" stroke-width="0.264201"/>
<path id="Vector_13" d="M80.2985 93.6756L80.2985 93.6747C80.3004 93.4019 80.3104 93.2154 80.3304 93.1154C80.3354 93.0905 80.3427 93.0616 80.3552 93.0359C80.3614 93.0231 80.3723 93.0038 80.3909 92.9861C80.4108 92.9671 80.4443 92.9461 80.4894 92.9456C80.5327 92.9452 80.5646 92.9641 80.5826 92.9787C80.6004 92.993 80.6123 93.009 80.6197 93.0202C80.6346 93.0428 80.6456 93.0688 80.6542 93.092C80.6881 93.184 80.7242 93.3509 80.762 93.5691C80.8004 93.7911 80.8423 94.0768 80.8862 94.4133C81.0614 95.7594 81.269 97.9364 81.4075 100.166C81.5003 101.652 81.3157 103.68 80.9876 104.775C80.8958 105.095 80.6767 105.455 80.3764 105.825C80.0742 106.197 79.6826 106.589 79.2356 106.972C78.3418 107.738 77.2175 108.478 76.1218 108.976L76.1213 108.976C74.7617 109.585 73.7578 109.756 71.7023 109.725L69.9051 109.709L69.8994 109.445L71.9734 109.338C71.9734 109.338 71.9734 109.338 71.9735 109.338C73.1346 109.276 73.8179 109.219 74.4225 109.071C75.0249 108.923 75.5548 108.683 76.4063 108.246L76.4066 108.246C77.145 107.869 78.0492 107.19 78.8184 106.486C79.2023 106.134 79.5501 105.779 79.8249 105.454C80.1017 105.128 80.2971 104.841 80.3851 104.626C80.575 104.159 80.6865 103.354 80.7134 102.19C80.7401 101.03 80.6828 99.5295 80.5447 97.6801C80.4066 95.8844 80.2985 94.0813 80.2985 93.6756Z" fill="white" stroke="white" stroke-width="0.264201"/>
</g>
</svg>
