<svg width="134" height="93" viewBox="0 0 134 93" fill="none" xmlns="http://www.w3.org/2000/svg">
<g clip-path="url(#clip0_154_2704)">
<mask id="path-1-outside-1_154_2704" maskUnits="userSpaceOnUse" x="-1" y="-47" width="136" height="141" fill="black">
<rect fill="white" x="-1" y="-47" width="136" height="141"/>
<path d="M76.9568 -46.2995C75.8479 -45.6143 72.4637 -41.8459 71.0488 -39.7142C69.5384 -37.4303 69.0221 -36.4977 67.9897 -34.2329L67.3205 -32.7673H64.7775C63.3818 -32.7483 61.5846 -32.6722 60.8006 -32.558C58.7931 -32.3106 58.0092 -32.3296 57.6841 -32.6532C57.5312 -32.8054 57.2635 -33.5477 57.0723 -34.309C56.4414 -36.9736 54.3191 -40.8562 52.3306 -43.0069C51.7762 -43.5779 51.4702 -43.9775 51.6232 -43.8634C54.4911 -41.7888 60.1506 -37.3352 61.9478 -35.7174C62.8082 -34.9371 62.7126 -35.0703 61.5654 -36.1932C58.9078 -38.8197 51.5085 -44.5485 50.7819 -44.5485C50.3995 -44.5485 43.3635 -41.9982 42.5222 -41.5414C41.9104 -41.2178 41.528 -40.5326 40.8206 -38.401C39.8263 -35.3748 39.5587 -33.9093 39.4822 -30.5596C39.4057 -27.5905 39.4057 -27.5524 39.5969 -29.5128C40.1896 -36.041 41.4133 -40.0378 43.1914 -41.294C44.1856 -41.9982 48.6788 -43.5969 49.673 -43.5969C50.5143 -43.5969 50.629 -43.5398 51.6614 -42.4359C53.1719 -40.8562 55.5427 -36.7642 56.9958 -33.2432C57.665 -31.6064 57.8371 -31.5302 60.5903 -31.7777C61.8522 -31.8919 63.7451 -31.987 64.7967 -31.987C67.1675 -31.987 67.244 -32.0441 68.7927 -34.9371C72.0239 -40.9514 75.2169 -44.9292 77.4157 -45.6714C78.429 -45.995 79.9012 -45.9189 81.9279 -45.405C85.1974 -44.5866 85.8857 -44.0537 86.2681 -42.1314C86.5166 -40.7801 86.3446 -36.5929 85.9431 -34.0806C85.5224 -31.4731 85.3503 -27.7618 85.6371 -27.0956C85.771 -26.7531 86.2681 -26.2963 86.9564 -25.8966C88.486 -25.0021 90.1303 -23.822 91.5834 -22.5659C92.7306 -21.5762 92.8835 -21.5001 93.6101 -21.5762C94.0689 -21.6333 95.9618 -22.4136 98.39 -23.5746C103.743 -26.125 106.038 -26.8292 109.346 -26.9053C110.321 -26.9243 111.028 -26.8292 111.353 -26.6769C112.099 -26.2772 116.057 -21.6143 116.267 -20.91C116.84 -18.9116 113.514 -13.9251 107.606 -7.89175C105.541 -5.77914 105.158 -5.28429 105.158 -4.78944C105.158 -4.46589 105.579 -3.15264 106.095 -1.87746C106.611 -0.583244 107.3 1.35808 107.663 2.4239C108.084 3.73715 108.428 4.47942 108.676 4.65072C108.906 4.78394 110.321 5.08847 111.85 5.31686C116.324 5.983 119.67 6.61108 121.391 7.14399C123.609 7.82916 126.094 8.99015 126.439 9.52306C127.165 10.665 127.452 16.3748 126.84 17.8784C126.171 19.5532 123.647 20.9046 112.156 25.7008C110.607 26.3479 109.594 26.8808 109.422 27.1472C109.269 27.3947 108.887 28.746 108.581 30.1925C108.275 31.6199 107.759 33.7515 107.453 34.9125C106.554 38.2623 106.267 37.6532 110.952 42.2972C115.999 47.2837 118.026 49.6818 118.447 51.1283L118.752 52.1561L117.949 53.6216C115.942 57.2568 114.393 59.122 112.711 59.9404C111.009 60.7778 108.791 60.5114 100.608 58.4178C96.1339 57.2758 96 57.2949 94.3175 58.9507C91.4495 61.7485 88.9257 64.6795 88.811 65.3266C88.7154 65.7453 88.9257 67.2108 89.3655 69.4757C90.3406 74.5003 90.7995 77.4884 90.9333 79.544C91.048 81.333 91.048 81.3521 90.4744 82.1324C89.7288 83.1411 87.1858 85.0444 85.3886 85.9199C83.859 86.6812 82.5015 86.8525 81.622 86.3957C79.5571 85.3299 73.7638 79.8865 71.5077 76.8794C69.7678 74.5574 69.4236 74.2148 68.7736 74.2148C67.7793 74.2148 62.8273 75.3949 62.1964 75.7755C61.6993 76.061 61.5081 76.3846 61.2595 77.222C59.9211 81.9801 58.8887 84.7208 56.9193 88.889C55.8678 91.0967 55.2942 91.8009 54.3382 92.0484C53.5352 92.2387 47.6272 91.7438 46.9389 91.4203C46.2123 91.0777 45.677 90.0309 44.6636 86.9476C43.5929 83.6931 42.1781 77.1078 42.0251 74.6906L41.9677 73.9293L38.7174 72.2735C36.9393 71.3599 35.2759 70.6177 35.0273 70.5986C34.3581 70.5986 33.8801 70.9032 32.1593 72.54C29.0428 75.452 24.4732 78.5352 22.9245 78.7256C22.2745 78.8207 22.0259 78.7446 21.1273 78.1165C20.5346 77.7168 19.3491 76.632 18.4505 75.6994L16.8253 74.0055V72.3306C16.8253 69.2283 17.6666 64.2418 18.9476 59.731L19.7124 57.0284L18.7564 55.5819C18.2211 54.7826 17.3416 53.279 16.768 52.2322C16.1944 51.1854 15.5252 50.1767 15.2575 49.9863C14.8369 49.6818 14.7413 49.6818 13.9765 49.9292C12.141 50.5954 9.92313 50.8428 6.97869 50.7667C2.60028 50.6525 2.38996 50.4812 1.31926 46.3321C0.516232 43.0965 0.554471 42.6207 1.75901 40.8888C3.13563 38.9284 6.44334 35.7119 8.60386 34.2464C9.59809 33.5612 10.4394 32.838 10.4776 32.6477C10.5541 32.3241 10.4011 32.3622 9.44513 32.9141C6.6919 34.4367 4.09162 36.6635 2.237 39.0807C0.65007 41.1172 0 42.1449 0 42.6017C0 43.6675 2.14141 50.6335 2.58116 50.9951C2.715 51.1093 3.6901 51.3567 4.72257 51.547C5.75503 51.7373 7.667 52.2132 8.96714 52.5748C10.2673 52.9554 12.772 53.5835 14.531 53.9832L17.7622 54.6874L18.5461 55.9245C19.4639 57.352 19.483 57.1426 18.3932 60.7017C17.3224 64.1466 16.7106 66.9634 16.3282 70.0086C15.9458 73.1871 16.0605 73.9864 16.9783 75.0142C17.9534 76.0991 21.3949 79.1443 22.0068 79.4488C22.6186 79.7723 29.3679 80.3433 32.9815 80.3814L35.6582 80.4004L36.8054 79.7533C38.6027 78.7256 40.1896 77.6407 40.9544 76.9175L41.6618 76.2513L41.7765 76.9936C42.8281 83.4647 44.1091 88.2228 45.6005 91.1538L46.0402 92.0103L50.5907 92.3148C53.7646 92.5242 55.2942 92.5623 55.581 92.429C56.1928 92.1626 56.9385 90.9064 58.2768 88.0135C59.8255 84.6066 60.7051 82.2276 61.3934 79.4869C62.0817 76.7842 62.4258 76.3084 63.726 76.3084C64.4525 76.3084 66.3262 76.8223 65.8674 76.8984C65.4085 76.9746 68.8692 77.4313 70.0163 77.4313C71.2591 77.4504 71.2974 77.4694 71.871 78.1926C72.196 78.5923 72.4637 79.011 72.4637 79.1062C72.4637 79.2204 71.9857 80.4004 71.393 81.7517C68.8309 87.6709 66.2306 91.4964 64.0892 92.4481C63.5348 92.6955 62.5023 92.7906 59.5579 92.8858L55.7339 93L59.8447 92.981L63.9554 92.9619L64.854 92.4481C67.1293 91.1158 70.3796 86.015 72.0813 81.1237L72.6931 79.3917L75.2934 81.9992C78.2952 84.9873 80.9146 87.0238 82.2912 87.4425C82.8074 87.5947 83.7252 87.7089 84.2988 87.7089C85.2165 87.6899 85.2739 87.6518 84.7003 87.5567L84.0311 87.4425L84.5091 87.138C84.7768 86.9667 85.3886 86.605 85.8857 86.3196C86.3828 86.0531 87.6065 85.1776 88.6198 84.3973C89.6332 83.6169 90.6083 82.9698 90.8186 82.9698C91.0671 82.9698 91.1436 82.8747 91.0863 82.7034C91.0289 82.5511 91.1245 82.1514 91.3157 81.8088C91.9466 80.5717 91.3731 74.5574 90.0347 68.6193C89.7096 67.1728 89.4993 65.7834 89.5758 65.5169C89.6332 65.2695 90.1685 64.5653 90.7803 63.9753C91.3731 63.3853 92.6732 62.0149 93.6483 60.9301C94.6425 59.8643 95.6941 58.8555 96.0191 58.6842C96.5163 58.4178 96.6692 58.4368 97.6634 58.7413C98.2561 58.9126 98.868 59.0649 98.9827 59.0459C99.1165 59.0459 99.193 59.103 99.1357 59.1791C99.04 59.3314 101.296 60.3972 102.099 60.5875C102.367 60.6446 102.462 60.6446 102.329 60.5875C102.214 60.5304 102.137 60.4162 102.195 60.321C102.329 60.1117 101.583 59.8833 101.315 60.0546C101.162 60.1497 101.143 60.1117 101.239 59.9404C101.354 59.7501 101.296 59.712 100.99 59.7881C100.761 59.8643 100.57 59.8262 100.57 59.7501C100.57 59.6549 100.283 59.5217 99.9578 59.4455C99.6136 59.3694 99.4224 59.2743 99.5372 59.2362C99.6519 59.1981 101.105 59.5217 102.788 59.9404C104.451 60.3591 106.936 60.873 108.275 61.1014C110.665 61.5011 110.76 61.5011 111.965 61.1775C113.973 60.6446 115.273 59.1791 118.236 54.1926C119.708 51.7183 119.67 51.509 117.414 48.635C113.992 44.2385 110.646 40.4891 108.791 38.9094C108.007 38.2432 107.453 37.6342 107.453 37.4248C107.453 37.2155 107.835 35.8642 108.313 34.3987C108.772 32.9522 109.346 30.8967 109.556 29.8308C109.766 28.765 110.053 27.8134 110.187 27.7373C110.818 27.2995 111.143 27.1853 111.391 27.2805C111.525 27.3376 111.64 27.2995 111.602 27.1853C111.583 27.0901 113.112 26.3098 115.005 25.4724C123.36 21.7801 127.089 19.6674 127.471 18.4493C127.72 17.688 127.643 11.9973 127.375 10.5508C127.222 9.80855 126.974 9.06628 126.802 8.85692C126.496 8.51434 126.515 8.51434 127.337 8.64757C127.815 8.72369 128.504 8.93305 128.867 9.12337C129.67 9.54209 133.341 12.7586 133.685 13.3676C133.876 13.6722 133.934 14.8712 133.914 17.8784C133.895 22.0084 133.742 23.1314 133.226 23.0933C133.073 23.0743 132.366 22.6175 131.677 22.0655C129.976 20.7523 130.033 20.9616 131.735 22.351C132.48 22.941 133.073 23.5501 133.073 23.6833C133.073 24.3494 127.643 27.4137 123.991 28.8221C120.397 30.1925 119.097 30.8586 118.102 31.7722C116.477 33.2567 115.674 35.4074 115.674 38.2813C115.674 39.1949 115.598 39.9562 115.502 39.9562C115.407 39.9562 115.024 39.8229 114.661 39.6707C113.609 39.2329 113.552 39.3662 114.565 39.8229C115.636 40.3178 121.678 46.0276 123.857 48.616C125.215 50.2338 126.19 51.8515 126.19 52.5367C126.19 53.1267 125.196 55.8484 124.45 57.2758C123.074 59.9023 121.257 61.9198 120.033 62.1672C119.728 62.2243 119.441 62.3575 119.383 62.4337C119.001 63.0617 107.013 61.7675 103.858 60.7588C103.591 60.6827 103.591 60.7017 103.801 60.854C104.011 61.0062 103.973 61.0823 103.629 61.2727C103.285 61.463 103.074 61.444 102.501 61.1965C101.755 60.892 99.193 60.1307 98.9253 60.1307C98.6385 60.1497 100.589 60.873 101.679 61.1585C102.252 61.3107 102.749 61.482 102.807 61.5391C102.864 61.5962 102.29 62.3004 101.545 63.1188C99.8431 64.946 99.0401 66.126 99.0401 66.7731C99.0401 67.2108 99.0974 67.1728 99.4033 66.5066C99.8813 65.4789 102.711 62.1672 103.533 61.6533C104.298 61.1775 104.394 61.1775 107.835 61.8056C110.741 62.3195 115.062 62.7762 117.682 62.8333C119.441 62.8904 119.9 62.8333 120.55 62.5098C122.366 61.6343 124.335 58.9126 125.827 55.2013C127.242 51.6612 127.031 51.2425 120.607 44.8666C117.873 42.164 116.21 40.3749 116.133 40.0513C115.885 39.0426 116.19 35.9213 116.668 34.589C117.586 32.1528 118.772 31.2012 122.94 29.6595C126.056 28.5176 130.645 26.1956 132.404 24.8824C133.436 24.102 133.8 23.7023 133.991 23.1123C134.316 22.1988 134.526 16.4509 134.316 14.5477C134.182 13.2534 134.163 13.2154 132.997 12.0734C132.366 11.4263 131.238 10.4366 130.511 9.84662C129.364 8.89499 129.02 8.72369 127.739 8.45724C126.936 8.28594 125.215 7.81013 123.896 7.39141C122.576 6.99173 120.378 6.40172 119.039 6.07816C116.554 5.48816 115.387 5.03137 114.909 4.4604C114.489 3.94652 114.642 2.57617 115.254 1.26292C115.559 0.615814 116.726 -1.07809 117.854 -2.4865C121.869 -7.51111 124.087 -11.1844 124.24 -13.0496C124.335 -14.3057 123.953 -15.1812 122.309 -17.389C121.028 -19.14 113.399 -26.9053 112.539 -27.3621C112.08 -27.5905 111.621 -27.6285 110.34 -27.5334C105.407 -27.1527 102.157 -26.2201 96.7457 -23.6507C93.3806 -22.071 93.3997 -22.071 91.9849 -23.3272C90.723 -24.4501 88.7154 -25.8585 86.9564 -26.8482C86.3446 -27.1718 85.8283 -27.5905 85.8092 -27.7618C85.7519 -28.4279 85.8666 -29.2844 86.249 -30.8831C87.1094 -34.6896 87.5491 -39.581 87.1858 -41.6556C87.0711 -42.3788 86.9564 -43.1021 86.9182 -43.2543C86.899 -43.3875 86.8226 -43.6159 86.727 -43.7492C86.2872 -44.4724 86.9946 -43.9775 89.1169 -42.0553C92.8835 -38.6674 93.916 -37.6587 93.9925 -37.259C94.0307 -37.0497 94.241 -36.6881 94.4513 -36.4597C95.2352 -35.6222 95.3691 -32.6722 94.9484 -24.7546C94.8528 -23.2511 94.872 -23.2891 95.1396 -25.4208C95.3117 -26.734 95.4455 -29.3034 95.4647 -31.416C95.4838 -36.65 95.6176 -36.3455 91.0863 -40.5707C89.136 -42.3978 87.2623 -44.0727 86.9182 -44.3201C86.4975 -44.6056 85.0062 -45.0624 82.3294 -45.6905C80.1307 -46.2234 78.1613 -46.6421 77.9319 -46.6421C77.7216 -46.6421 77.2818 -46.4899 76.9568 -46.2995ZM114.374 -25.4779C116.477 -23.5746 120.951 -18.8165 122.137 -17.2368C124.068 -14.6483 124.278 -13.2209 123.035 -10.7466C122.098 -8.82436 120.129 -5.95044 117.471 -2.56264C115.043 0.520645 114.489 1.52937 114.374 3.09005C114.298 3.96555 114.355 4.27007 114.642 4.59363L115.005 4.9933L114.049 4.84105C113.533 4.76492 112.271 4.59362 111.277 4.47942C110.263 4.34619 109.346 4.19393 109.231 4.11781C109.116 4.04167 108.695 2.97585 108.313 1.73873C107.931 0.520653 107.223 -1.36359 106.764 -2.42941C106.248 -3.60943 105.98 -4.50396 106.057 -4.71332C106.114 -4.90364 107.262 -6.17883 108.581 -7.53014C112.194 -11.2225 115.101 -15.067 116.343 -17.7506C116.993 -19.1591 117.28 -20.7197 116.974 -21.1194C116.84 -21.2907 115.712 -22.642 114.489 -24.1266C113.246 -25.6111 112.233 -26.8672 112.233 -26.9243C112.233 -27.286 112.844 -26.8672 114.374 -25.4779ZM16.0605 51.6041C16.4047 52.2703 16.9018 53.1838 17.1886 53.6406C17.5136 54.2306 17.571 54.459 17.3798 54.3829C17.2269 54.3258 15.3914 53.869 13.2882 53.3741C11.185 52.8983 8.98626 52.3464 8.41267 52.1751L7.36108 51.8706L9.65545 51.6231C10.9173 51.4899 12.6764 51.1664 13.575 50.9189C14.4736 50.6715 15.2575 50.4431 15.3149 50.4431C15.3722 50.4241 15.7164 50.957 16.0605 51.6041ZM37.4937 72.7684C38.9086 73.4155 40.3617 74.0816 40.7441 74.2148C41.3368 74.4242 41.4706 74.5765 41.5662 75.1474C41.6618 75.7374 41.5854 75.9087 41.05 76.4607C39.7881 77.793 36.1554 79.9436 34.7596 80.2101C34.1287 80.3243 26.4808 79.8485 24.5497 79.582L23.6702 79.4488L25.4483 78.5543C27.4368 77.5455 31.0504 74.8429 33.0962 72.8445C33.8228 72.1403 34.5302 71.5503 34.6831 71.5503C34.817 71.5503 36.0789 72.1022 37.4937 72.7684ZM69.8634 75.6232C69.9781 75.8326 70.2649 76.2133 70.5135 76.4797C70.7429 76.7462 70.9341 77.0317 70.9341 77.1078C70.9341 77.3552 69.5957 77.2791 68.1617 76.9555C67.4352 76.7842 66.441 76.5749 65.963 76.4797C64.5672 76.1942 64.7011 76.0039 66.4792 75.7374C67.3969 75.6232 68.3338 75.4329 68.5441 75.3568C69.1177 75.1094 69.6339 75.2236 69.8634 75.6232Z"/>
</mask>
<path d="M76.9568 -46.2995C75.8479 -45.6143 72.4637 -41.8459 71.0488 -39.7142C69.5384 -37.4303 69.0221 -36.4977 67.9897 -34.2329L67.3205 -32.7673H64.7775C63.3818 -32.7483 61.5846 -32.6722 60.8006 -32.558C58.7931 -32.3106 58.0092 -32.3296 57.6841 -32.6532C57.5312 -32.8054 57.2635 -33.5477 57.0723 -34.309C56.4414 -36.9736 54.3191 -40.8562 52.3306 -43.0069C51.7762 -43.5779 51.4702 -43.9775 51.6232 -43.8634C54.4911 -41.7888 60.1506 -37.3352 61.9478 -35.7174C62.8082 -34.9371 62.7126 -35.0703 61.5654 -36.1932C58.9078 -38.8197 51.5085 -44.5485 50.7819 -44.5485C50.3995 -44.5485 43.3635 -41.9982 42.5222 -41.5414C41.9104 -41.2178 41.528 -40.5326 40.8206 -38.401C39.8263 -35.3748 39.5587 -33.9093 39.4822 -30.5596C39.4057 -27.5905 39.4057 -27.5524 39.5969 -29.5128C40.1896 -36.041 41.4133 -40.0378 43.1914 -41.294C44.1856 -41.9982 48.6788 -43.5969 49.673 -43.5969C50.5143 -43.5969 50.629 -43.5398 51.6614 -42.4359C53.1719 -40.8562 55.5427 -36.7642 56.9958 -33.2432C57.665 -31.6064 57.8371 -31.5302 60.5903 -31.7777C61.8522 -31.8919 63.7451 -31.987 64.7967 -31.987C67.1675 -31.987 67.244 -32.0441 68.7927 -34.9371C72.0239 -40.9514 75.2169 -44.9292 77.4157 -45.6714C78.429 -45.995 79.9012 -45.9189 81.9279 -45.405C85.1974 -44.5866 85.8857 -44.0537 86.2681 -42.1314C86.5166 -40.7801 86.3446 -36.5929 85.9431 -34.0806C85.5224 -31.4731 85.3503 -27.7618 85.6371 -27.0956C85.771 -26.7531 86.2681 -26.2963 86.9564 -25.8966C88.486 -25.0021 90.1303 -23.822 91.5834 -22.5659C92.7306 -21.5762 92.8835 -21.5001 93.6101 -21.5762C94.0689 -21.6333 95.9618 -22.4136 98.39 -23.5746C103.743 -26.125 106.038 -26.8292 109.346 -26.9053C110.321 -26.9243 111.028 -26.8292 111.353 -26.6769C112.099 -26.2772 116.057 -21.6143 116.267 -20.91C116.84 -18.9116 113.514 -13.9251 107.606 -7.89175C105.541 -5.77914 105.158 -5.28429 105.158 -4.78944C105.158 -4.46589 105.579 -3.15264 106.095 -1.87746C106.611 -0.583244 107.3 1.35808 107.663 2.4239C108.084 3.73715 108.428 4.47942 108.676 4.65072C108.906 4.78394 110.321 5.08847 111.85 5.31686C116.324 5.983 119.67 6.61108 121.391 7.14399C123.609 7.82916 126.094 8.99015 126.439 9.52306C127.165 10.665 127.452 16.3748 126.84 17.8784C126.171 19.5532 123.647 20.9046 112.156 25.7008C110.607 26.3479 109.594 26.8808 109.422 27.1472C109.269 27.3947 108.887 28.746 108.581 30.1925C108.275 31.6199 107.759 33.7515 107.453 34.9125C106.554 38.2623 106.267 37.6532 110.952 42.2972C115.999 47.2837 118.026 49.6818 118.447 51.1283L118.752 52.1561L117.949 53.6216C115.942 57.2568 114.393 59.122 112.711 59.9404C111.009 60.7778 108.791 60.5114 100.608 58.4178C96.1339 57.2758 96 57.2949 94.3175 58.9507C91.4495 61.7485 88.9257 64.6795 88.811 65.3266C88.7154 65.7453 88.9257 67.2108 89.3655 69.4757C90.3406 74.5003 90.7995 77.4884 90.9333 79.544C91.048 81.333 91.048 81.3521 90.4744 82.1324C89.7288 83.1411 87.1858 85.0444 85.3886 85.9199C83.859 86.6812 82.5015 86.8525 81.622 86.3957C79.5571 85.3299 73.7638 79.8865 71.5077 76.8794C69.7678 74.5574 69.4236 74.2148 68.7736 74.2148C67.7793 74.2148 62.8273 75.3949 62.1964 75.7755C61.6993 76.061 61.5081 76.3846 61.2595 77.222C59.9211 81.9801 58.8887 84.7208 56.9193 88.889C55.8678 91.0967 55.2942 91.8009 54.3382 92.0484C53.5352 92.2387 47.6272 91.7438 46.9389 91.4203C46.2123 91.0777 45.677 90.0309 44.6636 86.9476C43.5929 83.6931 42.1781 77.1078 42.0251 74.6906L41.9677 73.9293L38.7174 72.2735C36.9393 71.3599 35.2759 70.6177 35.0273 70.5986C34.3581 70.5986 33.8801 70.9032 32.1593 72.54C29.0428 75.452 24.4732 78.5352 22.9245 78.7256C22.2745 78.8207 22.0259 78.7446 21.1273 78.1165C20.5346 77.7168 19.3491 76.632 18.4505 75.6994L16.8253 74.0055V72.3306C16.8253 69.2283 17.6666 64.2418 18.9476 59.731L19.7124 57.0284L18.7564 55.5819C18.2211 54.7826 17.3416 53.279 16.768 52.2322C16.1944 51.1854 15.5252 50.1767 15.2575 49.9863C14.8369 49.6818 14.7413 49.6818 13.9765 49.9292C12.141 50.5954 9.92313 50.8428 6.97869 50.7667C2.60028 50.6525 2.38996 50.4812 1.31926 46.3321C0.516232 43.0965 0.554471 42.6207 1.75901 40.8888C3.13563 38.9284 6.44334 35.7119 8.60386 34.2464C9.59809 33.5612 10.4394 32.838 10.4776 32.6477C10.5541 32.3241 10.4011 32.3622 9.44513 32.9141C6.6919 34.4367 4.09162 36.6635 2.237 39.0807C0.65007 41.1172 0 42.1449 0 42.6017C0 43.6675 2.14141 50.6335 2.58116 50.9951C2.715 51.1093 3.6901 51.3567 4.72257 51.547C5.75503 51.7373 7.667 52.2132 8.96714 52.5748C10.2673 52.9554 12.772 53.5835 14.531 53.9832L17.7622 54.6874L18.5461 55.9245C19.4639 57.352 19.483 57.1426 18.3932 60.7017C17.3224 64.1466 16.7106 66.9634 16.3282 70.0086C15.9458 73.1871 16.0605 73.9864 16.9783 75.0142C17.9534 76.0991 21.3949 79.1443 22.0068 79.4488C22.6186 79.7723 29.3679 80.3433 32.9815 80.3814L35.6582 80.4004L36.8054 79.7533C38.6027 78.7256 40.1896 77.6407 40.9544 76.9175L41.6618 76.2513L41.7765 76.9936C42.8281 83.4647 44.1091 88.2228 45.6005 91.1538L46.0402 92.0103L50.5907 92.3148C53.7646 92.5242 55.2942 92.5623 55.581 92.429C56.1928 92.1626 56.9385 90.9064 58.2768 88.0135C59.8255 84.6066 60.7051 82.2276 61.3934 79.4869C62.0817 76.7842 62.4258 76.3084 63.726 76.3084C64.4525 76.3084 66.3262 76.8223 65.8674 76.8984C65.4085 76.9746 68.8692 77.4313 70.0163 77.4313C71.2591 77.4504 71.2974 77.4694 71.871 78.1926C72.196 78.5923 72.4637 79.011 72.4637 79.1062C72.4637 79.2204 71.9857 80.4004 71.393 81.7517C68.8309 87.6709 66.2306 91.4964 64.0892 92.4481C63.5348 92.6955 62.5023 92.7906 59.5579 92.8858L55.7339 93L59.8447 92.981L63.9554 92.9619L64.854 92.4481C67.1293 91.1158 70.3796 86.015 72.0813 81.1237L72.6931 79.3917L75.2934 81.9992C78.2952 84.9873 80.9146 87.0238 82.2912 87.4425C82.8074 87.5947 83.7252 87.7089 84.2988 87.7089C85.2165 87.6899 85.2739 87.6518 84.7003 87.5567L84.0311 87.4425L84.5091 87.138C84.7768 86.9667 85.3886 86.605 85.8857 86.3196C86.3828 86.0531 87.6065 85.1776 88.6198 84.3973C89.6332 83.6169 90.6083 82.9698 90.8186 82.9698C91.0671 82.9698 91.1436 82.8747 91.0863 82.7034C91.0289 82.5511 91.1245 82.1514 91.3157 81.8088C91.9466 80.5717 91.3731 74.5574 90.0347 68.6193C89.7096 67.1728 89.4993 65.7834 89.5758 65.5169C89.6332 65.2695 90.1685 64.5653 90.7803 63.9753C91.3731 63.3853 92.6732 62.0149 93.6483 60.9301C94.6425 59.8643 95.6941 58.8555 96.0191 58.6842C96.5163 58.4178 96.6692 58.4368 97.6634 58.7413C98.2561 58.9126 98.868 59.0649 98.9827 59.0459C99.1165 59.0459 99.193 59.103 99.1357 59.1791C99.04 59.3314 101.296 60.3972 102.099 60.5875C102.367 60.6446 102.462 60.6446 102.329 60.5875C102.214 60.5304 102.137 60.4162 102.195 60.321C102.329 60.1117 101.583 59.8833 101.315 60.0546C101.162 60.1497 101.143 60.1117 101.239 59.9404C101.354 59.7501 101.296 59.712 100.99 59.7881C100.761 59.8643 100.57 59.8262 100.57 59.7501C100.57 59.6549 100.283 59.5217 99.9578 59.4455C99.6136 59.3694 99.4224 59.2743 99.5372 59.2362C99.6519 59.1981 101.105 59.5217 102.788 59.9404C104.451 60.3591 106.936 60.873 108.275 61.1014C110.665 61.5011 110.76 61.5011 111.965 61.1775C113.973 60.6446 115.273 59.1791 118.236 54.1926C119.708 51.7183 119.67 51.509 117.414 48.635C113.992 44.2385 110.646 40.4891 108.791 38.9094C108.007 38.2432 107.453 37.6342 107.453 37.4248C107.453 37.2155 107.835 35.8642 108.313 34.3987C108.772 32.9522 109.346 30.8967 109.556 29.8308C109.766 28.765 110.053 27.8134 110.187 27.7373C110.818 27.2995 111.143 27.1853 111.391 27.2805C111.525 27.3376 111.64 27.2995 111.602 27.1853C111.583 27.0901 113.112 26.3098 115.005 25.4724C123.36 21.7801 127.089 19.6674 127.471 18.4493C127.72 17.688 127.643 11.9973 127.375 10.5508C127.222 9.80855 126.974 9.06628 126.802 8.85692C126.496 8.51434 126.515 8.51434 127.337 8.64757C127.815 8.72369 128.504 8.93305 128.867 9.12337C129.67 9.54209 133.341 12.7586 133.685 13.3676C133.876 13.6722 133.934 14.8712 133.914 17.8784C133.895 22.0084 133.742 23.1314 133.226 23.0933C133.073 23.0743 132.366 22.6175 131.677 22.0655C129.976 20.7523 130.033 20.9616 131.735 22.351C132.48 22.941 133.073 23.5501 133.073 23.6833C133.073 24.3494 127.643 27.4137 123.991 28.8221C120.397 30.1925 119.097 30.8586 118.102 31.7722C116.477 33.2567 115.674 35.4074 115.674 38.2813C115.674 39.1949 115.598 39.9562 115.502 39.9562C115.407 39.9562 115.024 39.8229 114.661 39.6707C113.609 39.2329 113.552 39.3662 114.565 39.8229C115.636 40.3178 121.678 46.0276 123.857 48.616C125.215 50.2338 126.19 51.8515 126.19 52.5367C126.19 53.1267 125.196 55.8484 124.45 57.2758C123.074 59.9023 121.257 61.9198 120.033 62.1672C119.728 62.2243 119.441 62.3575 119.383 62.4337C119.001 63.0617 107.013 61.7675 103.858 60.7588C103.591 60.6827 103.591 60.7017 103.801 60.854C104.011 61.0062 103.973 61.0823 103.629 61.2727C103.285 61.463 103.074 61.444 102.501 61.1965C101.755 60.892 99.193 60.1307 98.9253 60.1307C98.6385 60.1497 100.589 60.873 101.679 61.1585C102.252 61.3107 102.749 61.482 102.807 61.5391C102.864 61.5962 102.29 62.3004 101.545 63.1188C99.8431 64.946 99.0401 66.126 99.0401 66.7731C99.0401 67.2108 99.0974 67.1728 99.4033 66.5066C99.8813 65.4789 102.711 62.1672 103.533 61.6533C104.298 61.1775 104.394 61.1775 107.835 61.8056C110.741 62.3195 115.062 62.7762 117.682 62.8333C119.441 62.8904 119.9 62.8333 120.55 62.5098C122.366 61.6343 124.335 58.9126 125.827 55.2013C127.242 51.6612 127.031 51.2425 120.607 44.8666C117.873 42.164 116.21 40.3749 116.133 40.0513C115.885 39.0426 116.19 35.9213 116.668 34.589C117.586 32.1528 118.772 31.2012 122.94 29.6595C126.056 28.5176 130.645 26.1956 132.404 24.8824C133.436 24.102 133.8 23.7023 133.991 23.1123C134.316 22.1988 134.526 16.4509 134.316 14.5477C134.182 13.2534 134.163 13.2154 132.997 12.0734C132.366 11.4263 131.238 10.4366 130.511 9.84662C129.364 8.89499 129.02 8.72369 127.739 8.45724C126.936 8.28594 125.215 7.81013 123.896 7.39141C122.576 6.99173 120.378 6.40172 119.039 6.07816C116.554 5.48816 115.387 5.03137 114.909 4.4604C114.489 3.94652 114.642 2.57617 115.254 1.26292C115.559 0.615814 116.726 -1.07809 117.854 -2.4865C121.869 -7.51111 124.087 -11.1844 124.24 -13.0496C124.335 -14.3057 123.953 -15.1812 122.309 -17.389C121.028 -19.14 113.399 -26.9053 112.539 -27.3621C112.08 -27.5905 111.621 -27.6285 110.34 -27.5334C105.407 -27.1527 102.157 -26.2201 96.7457 -23.6507C93.3806 -22.071 93.3997 -22.071 91.9849 -23.3272C90.723 -24.4501 88.7154 -25.8585 86.9564 -26.8482C86.3446 -27.1718 85.8283 -27.5905 85.8092 -27.7618C85.7519 -28.4279 85.8666 -29.2844 86.249 -30.8831C87.1094 -34.6896 87.5491 -39.581 87.1858 -41.6556C87.0711 -42.3788 86.9564 -43.1021 86.9182 -43.2543C86.899 -43.3875 86.8226 -43.6159 86.727 -43.7492C86.2872 -44.4724 86.9946 -43.9775 89.1169 -42.0553C92.8835 -38.6674 93.916 -37.6587 93.9925 -37.259C94.0307 -37.0497 94.241 -36.6881 94.4513 -36.4597C95.2352 -35.6222 95.3691 -32.6722 94.9484 -24.7546C94.8528 -23.2511 94.872 -23.2891 95.1396 -25.4208C95.3117 -26.734 95.4455 -29.3034 95.4647 -31.416C95.4838 -36.65 95.6176 -36.3455 91.0863 -40.5707C89.136 -42.3978 87.2623 -44.0727 86.9182 -44.3201C86.4975 -44.6056 85.0062 -45.0624 82.3294 -45.6905C80.1307 -46.2234 78.1613 -46.6421 77.9319 -46.6421C77.7216 -46.6421 77.2818 -46.4899 76.9568 -46.2995ZM114.374 -25.4779C116.477 -23.5746 120.951 -18.8165 122.137 -17.2368C124.068 -14.6483 124.278 -13.2209 123.035 -10.7466C122.098 -8.82436 120.129 -5.95044 117.471 -2.56264C115.043 0.520645 114.489 1.52937 114.374 3.09005C114.298 3.96555 114.355 4.27007 114.642 4.59363L115.005 4.9933L114.049 4.84105C113.533 4.76492 112.271 4.59362 111.277 4.47942C110.263 4.34619 109.346 4.19393 109.231 4.11781C109.116 4.04167 108.695 2.97585 108.313 1.73873C107.931 0.520653 107.223 -1.36359 106.764 -2.42941C106.248 -3.60943 105.98 -4.50396 106.057 -4.71332C106.114 -4.90364 107.262 -6.17883 108.581 -7.53014C112.194 -11.2225 115.101 -15.067 116.343 -17.7506C116.993 -19.1591 117.28 -20.7197 116.974 -21.1194C116.84 -21.2907 115.712 -22.642 114.489 -24.1266C113.246 -25.6111 112.233 -26.8672 112.233 -26.9243C112.233 -27.286 112.844 -26.8672 114.374 -25.4779ZM16.0605 51.6041C16.4047 52.2703 16.9018 53.1838 17.1886 53.6406C17.5136 54.2306 17.571 54.459 17.3798 54.3829C17.2269 54.3258 15.3914 53.869 13.2882 53.3741C11.185 52.8983 8.98626 52.3464 8.41267 52.1751L7.36108 51.8706L9.65545 51.6231C10.9173 51.4899 12.6764 51.1664 13.575 50.9189C14.4736 50.6715 15.2575 50.4431 15.3149 50.4431C15.3722 50.4241 15.7164 50.957 16.0605 51.6041ZM37.4937 72.7684C38.9086 73.4155 40.3617 74.0816 40.7441 74.2148C41.3368 74.4242 41.4706 74.5765 41.5662 75.1474C41.6618 75.7374 41.5854 75.9087 41.05 76.4607C39.7881 77.793 36.1554 79.9436 34.7596 80.2101C34.1287 80.3243 26.4808 79.8485 24.5497 79.582L23.6702 79.4488L25.4483 78.5543C27.4368 77.5455 31.0504 74.8429 33.0962 72.8445C33.8228 72.1403 34.5302 71.5503 34.6831 71.5503C34.817 71.5503 36.0789 72.1022 37.4937 72.7684ZM69.8634 75.6232C69.9781 75.8326 70.2649 76.2133 70.5135 76.4797C70.7429 76.7462 70.9341 77.0317 70.9341 77.1078C70.9341 77.3552 69.5957 77.2791 68.1617 76.9555C67.4352 76.7842 66.441 76.5749 65.963 76.4797C64.5672 76.1942 64.7011 76.0039 66.4792 75.7374C67.3969 75.6232 68.3338 75.4329 68.5441 75.3568C69.1177 75.1094 69.6339 75.2236 69.8634 75.6232Z" fill="#0066FF"/>
<path d="M76.9568 -46.2995C75.8479 -45.6143 72.4637 -41.8459 71.0488 -39.7142C69.5384 -37.4303 69.0221 -36.4977 67.9897 -34.2329L67.3205 -32.7673H64.7775C63.3818 -32.7483 61.5846 -32.6722 60.8006 -32.558C58.7931 -32.3106 58.0092 -32.3296 57.6841 -32.6532C57.5312 -32.8054 57.2635 -33.5477 57.0723 -34.309C56.4414 -36.9736 54.3191 -40.8562 52.3306 -43.0069C51.7762 -43.5779 51.4702 -43.9775 51.6232 -43.8634C54.4911 -41.7888 60.1506 -37.3352 61.9478 -35.7174C62.8082 -34.9371 62.7126 -35.0703 61.5654 -36.1932C58.9078 -38.8197 51.5085 -44.5485 50.7819 -44.5485C50.3995 -44.5485 43.3635 -41.9982 42.5222 -41.5414C41.9104 -41.2178 41.528 -40.5326 40.8206 -38.401C39.8263 -35.3748 39.5587 -33.9093 39.4822 -30.5596C39.4057 -27.5905 39.4057 -27.5524 39.5969 -29.5128C40.1896 -36.041 41.4133 -40.0378 43.1914 -41.294C44.1856 -41.9982 48.6788 -43.5969 49.673 -43.5969C50.5143 -43.5969 50.629 -43.5398 51.6614 -42.4359C53.1719 -40.8562 55.5427 -36.7642 56.9958 -33.2432C57.665 -31.6064 57.8371 -31.5302 60.5903 -31.7777C61.8522 -31.8919 63.7451 -31.987 64.7967 -31.987C67.1675 -31.987 67.244 -32.0441 68.7927 -34.9371C72.0239 -40.9514 75.2169 -44.9292 77.4157 -45.6714C78.429 -45.995 79.9012 -45.9189 81.9279 -45.405C85.1974 -44.5866 85.8857 -44.0537 86.2681 -42.1314C86.5166 -40.7801 86.3446 -36.5929 85.9431 -34.0806C85.5224 -31.4731 85.3503 -27.7618 85.6371 -27.0956C85.771 -26.7531 86.2681 -26.2963 86.9564 -25.8966C88.486 -25.0021 90.1303 -23.822 91.5834 -22.5659C92.7306 -21.5762 92.8835 -21.5001 93.6101 -21.5762C94.0689 -21.6333 95.9618 -22.4136 98.39 -23.5746C103.743 -26.125 106.038 -26.8292 109.346 -26.9053C110.321 -26.9243 111.028 -26.8292 111.353 -26.6769C112.099 -26.2772 116.057 -21.6143 116.267 -20.91C116.84 -18.9116 113.514 -13.9251 107.606 -7.89175C105.541 -5.77914 105.158 -5.28429 105.158 -4.78944C105.158 -4.46589 105.579 -3.15264 106.095 -1.87746C106.611 -0.583244 107.3 1.35808 107.663 2.4239C108.084 3.73715 108.428 4.47942 108.676 4.65072C108.906 4.78394 110.321 5.08847 111.85 5.31686C116.324 5.983 119.67 6.61108 121.391 7.14399C123.609 7.82916 126.094 8.99015 126.439 9.52306C127.165 10.665 127.452 16.3748 126.84 17.8784C126.171 19.5532 123.647 20.9046 112.156 25.7008C110.607 26.3479 109.594 26.8808 109.422 27.1472C109.269 27.3947 108.887 28.746 108.581 30.1925C108.275 31.6199 107.759 33.7515 107.453 34.9125C106.554 38.2623 106.267 37.6532 110.952 42.2972C115.999 47.2837 118.026 49.6818 118.447 51.1283L118.752 52.1561L117.949 53.6216C115.942 57.2568 114.393 59.122 112.711 59.9404C111.009 60.7778 108.791 60.5114 100.608 58.4178C96.1339 57.2758 96 57.2949 94.3175 58.9507C91.4495 61.7485 88.9257 64.6795 88.811 65.3266C88.7154 65.7453 88.9257 67.2108 89.3655 69.4757C90.3406 74.5003 90.7995 77.4884 90.9333 79.544C91.048 81.333 91.048 81.3521 90.4744 82.1324C89.7288 83.1411 87.1858 85.0444 85.3886 85.9199C83.859 86.6812 82.5015 86.8525 81.622 86.3957C79.5571 85.3299 73.7638 79.8865 71.5077 76.8794C69.7678 74.5574 69.4236 74.2148 68.7736 74.2148C67.7793 74.2148 62.8273 75.3949 62.1964 75.7755C61.6993 76.061 61.5081 76.3846 61.2595 77.222C59.9211 81.9801 58.8887 84.7208 56.9193 88.889C55.8678 91.0967 55.2942 91.8009 54.3382 92.0484C53.5352 92.2387 47.6272 91.7438 46.9389 91.4203C46.2123 91.0777 45.677 90.0309 44.6636 86.9476C43.5929 83.6931 42.1781 77.1078 42.0251 74.6906L41.9677 73.9293L38.7174 72.2735C36.9393 71.3599 35.2759 70.6177 35.0273 70.5986C34.3581 70.5986 33.8801 70.9032 32.1593 72.54C29.0428 75.452 24.4732 78.5352 22.9245 78.7256C22.2745 78.8207 22.0259 78.7446 21.1273 78.1165C20.5346 77.7168 19.3491 76.632 18.4505 75.6994L16.8253 74.0055V72.3306C16.8253 69.2283 17.6666 64.2418 18.9476 59.731L19.7124 57.0284L18.7564 55.5819C18.2211 54.7826 17.3416 53.279 16.768 52.2322C16.1944 51.1854 15.5252 50.1767 15.2575 49.9863C14.8369 49.6818 14.7413 49.6818 13.9765 49.9292C12.141 50.5954 9.92313 50.8428 6.97869 50.7667C2.60028 50.6525 2.38996 50.4812 1.31926 46.3321C0.516232 43.0965 0.554471 42.6207 1.75901 40.8888C3.13563 38.9284 6.44334 35.7119 8.60386 34.2464C9.59809 33.5612 10.4394 32.838 10.4776 32.6477C10.5541 32.3241 10.4011 32.3622 9.44513 32.9141C6.6919 34.4367 4.09162 36.6635 2.237 39.0807C0.65007 41.1172 0 42.1449 0 42.6017C0 43.6675 2.14141 50.6335 2.58116 50.9951C2.715 51.1093 3.6901 51.3567 4.72257 51.547C5.75503 51.7373 7.667 52.2132 8.96714 52.5748C10.2673 52.9554 12.772 53.5835 14.531 53.9832L17.7622 54.6874L18.5461 55.9245C19.4639 57.352 19.483 57.1426 18.3932 60.7017C17.3224 64.1466 16.7106 66.9634 16.3282 70.0086C15.9458 73.1871 16.0605 73.9864 16.9783 75.0142C17.9534 76.0991 21.3949 79.1443 22.0068 79.4488C22.6186 79.7723 29.3679 80.3433 32.9815 80.3814L35.6582 80.4004L36.8054 79.7533C38.6027 78.7256 40.1896 77.6407 40.9544 76.9175L41.6618 76.2513L41.7765 76.9936C42.8281 83.4647 44.1091 88.2228 45.6005 91.1538L46.0402 92.0103L50.5907 92.3148C53.7646 92.5242 55.2942 92.5623 55.581 92.429C56.1928 92.1626 56.9385 90.9064 58.2768 88.0135C59.8255 84.6066 60.7051 82.2276 61.3934 79.4869C62.0817 76.7842 62.4258 76.3084 63.726 76.3084C64.4525 76.3084 66.3262 76.8223 65.8674 76.8984C65.4085 76.9746 68.8692 77.4313 70.0163 77.4313C71.2591 77.4504 71.2974 77.4694 71.871 78.1926C72.196 78.5923 72.4637 79.011 72.4637 79.1062C72.4637 79.2204 71.9857 80.4004 71.393 81.7517C68.8309 87.6709 66.2306 91.4964 64.0892 92.4481C63.5348 92.6955 62.5023 92.7906 59.5579 92.8858L55.7339 93L59.8447 92.981L63.9554 92.9619L64.854 92.4481C67.1293 91.1158 70.3796 86.015 72.0813 81.1237L72.6931 79.3917L75.2934 81.9992C78.2952 84.9873 80.9146 87.0238 82.2912 87.4425C82.8074 87.5947 83.7252 87.7089 84.2988 87.7089C85.2165 87.6899 85.2739 87.6518 84.7003 87.5567L84.0311 87.4425L84.5091 87.138C84.7768 86.9667 85.3886 86.605 85.8857 86.3196C86.3828 86.0531 87.6065 85.1776 88.6198 84.3973C89.6332 83.6169 90.6083 82.9698 90.8186 82.9698C91.0671 82.9698 91.1436 82.8747 91.0863 82.7034C91.0289 82.5511 91.1245 82.1514 91.3157 81.8088C91.9466 80.5717 91.3731 74.5574 90.0347 68.6193C89.7096 67.1728 89.4993 65.7834 89.5758 65.5169C89.6332 65.2695 90.1685 64.5653 90.7803 63.9753C91.3731 63.3853 92.6732 62.0149 93.6483 60.9301C94.6425 59.8643 95.6941 58.8555 96.0191 58.6842C96.5163 58.4178 96.6692 58.4368 97.6634 58.7413C98.2561 58.9126 98.868 59.0649 98.9827 59.0459C99.1165 59.0459 99.193 59.103 99.1357 59.1791C99.04 59.3314 101.296 60.3972 102.099 60.5875C102.367 60.6446 102.462 60.6446 102.329 60.5875C102.214 60.5304 102.137 60.4162 102.195 60.321C102.329 60.1117 101.583 59.8833 101.315 60.0546C101.162 60.1497 101.143 60.1117 101.239 59.9404C101.354 59.7501 101.296 59.712 100.99 59.7881C100.761 59.8643 100.57 59.8262 100.57 59.7501C100.57 59.6549 100.283 59.5217 99.9578 59.4455C99.6136 59.3694 99.4224 59.2743 99.5372 59.2362C99.6519 59.1981 101.105 59.5217 102.788 59.9404C104.451 60.3591 106.936 60.873 108.275 61.1014C110.665 61.5011 110.76 61.5011 111.965 61.1775C113.973 60.6446 115.273 59.1791 118.236 54.1926C119.708 51.7183 119.67 51.509 117.414 48.635C113.992 44.2385 110.646 40.4891 108.791 38.9094C108.007 38.2432 107.453 37.6342 107.453 37.4248C107.453 37.2155 107.835 35.8642 108.313 34.3987C108.772 32.9522 109.346 30.8967 109.556 29.8308C109.766 28.765 110.053 27.8134 110.187 27.7373C110.818 27.2995 111.143 27.1853 111.391 27.2805C111.525 27.3376 111.64 27.2995 111.602 27.1853C111.583 27.0901 113.112 26.3098 115.005 25.4724C123.36 21.7801 127.089 19.6674 127.471 18.4493C127.72 17.688 127.643 11.9973 127.375 10.5508C127.222 9.80855 126.974 9.06628 126.802 8.85692C126.496 8.51434 126.515 8.51434 127.337 8.64757C127.815 8.72369 128.504 8.93305 128.867 9.12337C129.67 9.54209 133.341 12.7586 133.685 13.3676C133.876 13.6722 133.934 14.8712 133.914 17.8784C133.895 22.0084 133.742 23.1314 133.226 23.0933C133.073 23.0743 132.366 22.6175 131.677 22.0655C129.976 20.7523 130.033 20.9616 131.735 22.351C132.48 22.941 133.073 23.5501 133.073 23.6833C133.073 24.3494 127.643 27.4137 123.991 28.8221C120.397 30.1925 119.097 30.8586 118.102 31.7722C116.477 33.2567 115.674 35.4074 115.674 38.2813C115.674 39.1949 115.598 39.9562 115.502 39.9562C115.407 39.9562 115.024 39.8229 114.661 39.6707C113.609 39.2329 113.552 39.3662 114.565 39.8229C115.636 40.3178 121.678 46.0276 123.857 48.616C125.215 50.2338 126.19 51.8515 126.19 52.5367C126.19 53.1267 125.196 55.8484 124.45 57.2758C123.074 59.9023 121.257 61.9198 120.033 62.1672C119.728 62.2243 119.441 62.3575 119.383 62.4337C119.001 63.0617 107.013 61.7675 103.858 60.7588C103.591 60.6827 103.591 60.7017 103.801 60.854C104.011 61.0062 103.973 61.0823 103.629 61.2727C103.285 61.463 103.074 61.444 102.501 61.1965C101.755 60.892 99.193 60.1307 98.9253 60.1307C98.6385 60.1497 100.589 60.873 101.679 61.1585C102.252 61.3107 102.749 61.482 102.807 61.5391C102.864 61.5962 102.29 62.3004 101.545 63.1188C99.8431 64.946 99.0401 66.126 99.0401 66.7731C99.0401 67.2108 99.0974 67.1728 99.4033 66.5066C99.8813 65.4789 102.711 62.1672 103.533 61.6533C104.298 61.1775 104.394 61.1775 107.835 61.8056C110.741 62.3195 115.062 62.7762 117.682 62.8333C119.441 62.8904 119.9 62.8333 120.55 62.5098C122.366 61.6343 124.335 58.9126 125.827 55.2013C127.242 51.6612 127.031 51.2425 120.607 44.8666C117.873 42.164 116.21 40.3749 116.133 40.0513C115.885 39.0426 116.19 35.9213 116.668 34.589C117.586 32.1528 118.772 31.2012 122.94 29.6595C126.056 28.5176 130.645 26.1956 132.404 24.8824C133.436 24.102 133.8 23.7023 133.991 23.1123C134.316 22.1988 134.526 16.4509 134.316 14.5477C134.182 13.2534 134.163 13.2154 132.997 12.0734C132.366 11.4263 131.238 10.4366 130.511 9.84662C129.364 8.89499 129.02 8.72369 127.739 8.45724C126.936 8.28594 125.215 7.81013 123.896 7.39141C122.576 6.99173 120.378 6.40172 119.039 6.07816C116.554 5.48816 115.387 5.03137 114.909 4.4604C114.489 3.94652 114.642 2.57617 115.254 1.26292C115.559 0.615814 116.726 -1.07809 117.854 -2.4865C121.869 -7.51111 124.087 -11.1844 124.24 -13.0496C124.335 -14.3057 123.953 -15.1812 122.309 -17.389C121.028 -19.14 113.399 -26.9053 112.539 -27.3621C112.08 -27.5905 111.621 -27.6285 110.34 -27.5334C105.407 -27.1527 102.157 -26.2201 96.7457 -23.6507C93.3806 -22.071 93.3997 -22.071 91.9849 -23.3272C90.723 -24.4501 88.7154 -25.8585 86.9564 -26.8482C86.3446 -27.1718 85.8283 -27.5905 85.8092 -27.7618C85.7519 -28.4279 85.8666 -29.2844 86.249 -30.8831C87.1094 -34.6896 87.5491 -39.581 87.1858 -41.6556C87.0711 -42.3788 86.9564 -43.1021 86.9182 -43.2543C86.899 -43.3875 86.8226 -43.6159 86.727 -43.7492C86.2872 -44.4724 86.9946 -43.9775 89.1169 -42.0553C92.8835 -38.6674 93.916 -37.6587 93.9925 -37.259C94.0307 -37.0497 94.241 -36.6881 94.4513 -36.4597C95.2352 -35.6222 95.3691 -32.6722 94.9484 -24.7546C94.8528 -23.2511 94.872 -23.2891 95.1396 -25.4208C95.3117 -26.734 95.4455 -29.3034 95.4647 -31.416C95.4838 -36.65 95.6176 -36.3455 91.0863 -40.5707C89.136 -42.3978 87.2623 -44.0727 86.9182 -44.3201C86.4975 -44.6056 85.0062 -45.0624 82.3294 -45.6905C80.1307 -46.2234 78.1613 -46.6421 77.9319 -46.6421C77.7216 -46.6421 77.2818 -46.4899 76.9568 -46.2995ZM114.374 -25.4779C116.477 -23.5746 120.951 -18.8165 122.137 -17.2368C124.068 -14.6483 124.278 -13.2209 123.035 -10.7466C122.098 -8.82436 120.129 -5.95044 117.471 -2.56264C115.043 0.520645 114.489 1.52937 114.374 3.09005C114.298 3.96555 114.355 4.27007 114.642 4.59363L115.005 4.9933L114.049 4.84105C113.533 4.76492 112.271 4.59362 111.277 4.47942C110.263 4.34619 109.346 4.19393 109.231 4.11781C109.116 4.04167 108.695 2.97585 108.313 1.73873C107.931 0.520653 107.223 -1.36359 106.764 -2.42941C106.248 -3.60943 105.98 -4.50396 106.057 -4.71332C106.114 -4.90364 107.262 -6.17883 108.581 -7.53014C112.194 -11.2225 115.101 -15.067 116.343 -17.7506C116.993 -19.1591 117.28 -20.7197 116.974 -21.1194C116.84 -21.2907 115.712 -22.642 114.489 -24.1266C113.246 -25.6111 112.233 -26.8672 112.233 -26.9243C112.233 -27.286 112.844 -26.8672 114.374 -25.4779ZM16.0605 51.6041C16.4047 52.2703 16.9018 53.1838 17.1886 53.6406C17.5136 54.2306 17.571 54.459 17.3798 54.3829C17.2269 54.3258 15.3914 53.869 13.2882 53.3741C11.185 52.8983 8.98626 52.3464 8.41267 52.1751L7.36108 51.8706L9.65545 51.6231C10.9173 51.4899 12.6764 51.1664 13.575 50.9189C14.4736 50.6715 15.2575 50.4431 15.3149 50.4431C15.3722 50.4241 15.7164 50.957 16.0605 51.6041ZM37.4937 72.7684C38.9086 73.4155 40.3617 74.0816 40.7441 74.2148C41.3368 74.4242 41.4706 74.5765 41.5662 75.1474C41.6618 75.7374 41.5854 75.9087 41.05 76.4607C39.7881 77.793 36.1554 79.9436 34.7596 80.2101C34.1287 80.3243 26.4808 79.8485 24.5497 79.582L23.6702 79.4488L25.4483 78.5543C27.4368 77.5455 31.0504 74.8429 33.0962 72.8445C33.8228 72.1403 34.5302 71.5503 34.6831 71.5503C34.817 71.5503 36.0789 72.1022 37.4937 72.7684ZM69.8634 75.6232C69.9781 75.8326 70.2649 76.2133 70.5135 76.4797C70.7429 76.7462 70.9341 77.0317 70.9341 77.1078C70.9341 77.3552 69.5957 77.2791 68.1617 76.9555C67.4352 76.7842 66.441 76.5749 65.963 76.4797C64.5672 76.1942 64.7011 76.0039 66.4792 75.7374C67.3969 75.6232 68.3338 75.4329 68.5441 75.3568C69.1177 75.1094 69.6339 75.2236 69.8634 75.6232Z" stroke="#0066FF" stroke-width="0.6" mask="url(#path-1-outside-1_154_2704)"/>
<path d="M26.9843 41.6149L26.9843 41.6149C31.1705 49.93 38.508 56.0129 47.0041 58.1751L47.0045 58.1752C47.5363 58.3087 47.9534 58.4045 48.2482 58.464C48.3953 58.4937 48.5137 58.5148 48.6015 58.5269C48.6451 58.533 48.6835 58.5371 48.7152 58.5388C48.7393 58.5401 48.7823 58.5418 48.8207 58.5298C48.8326 58.5261 48.9066 58.5029 48.9291 58.4198C48.952 58.3355 48.8985 58.2779 48.8895 58.2684C48.8616 58.2388 48.8228 58.2191 48.8009 58.2084C48.7451 58.181 48.6572 58.1472 48.5418 58.1074C48.3082 58.0268 47.9379 57.9141 47.4255 57.771L47.4245 57.7708C39.4002 55.594 32.5674 49.933 28.1296 41.7803L28.1293 41.7797C26.2657 38.3914 24.5123 32.6821 24.0745 28.6655C23.827 26.2959 23.8272 21.2645 24.0742 19.2216L26.9843 41.6149ZM26.9843 41.6149C20.1131 27.9542 22.0123 10.2474 31.6291 -1.52294L26.9843 41.6149ZM59.495 -15.0769C55.4725 -14.8871 53.4973 -14.5465 50.0699 -13.4472L54.8962 -15.1847C54.8963 -15.1848 54.8965 -15.1848 54.8966 -15.1848C55.2564 -15.2385 55.6384 -15.2966 55.9697 -15.347C56.3409 -15.4035 56.6485 -15.4502 56.7901 -15.4704C56.9356 -15.4911 57.3584 -15.5052 57.908 -15.5147C58.4636 -15.5242 59.1624 -15.529 59.8704 -15.529H62.4515L62.4592 -15.2292L59.4957 -15.0769L59.495 -15.0769Z" fill="#0066FF" stroke="#0066FF" stroke-width="0.3"/>
<path d="M92.0018 19.4968C92.0018 23.5322 91.9446 24.61 91.5787 26.5654C90.7155 31.3957 89.1426 35.8645 86.9359 39.8949C86.1108 41.4133 85.1609 42.9036 84.375 43.9753C83.9827 44.5103 83.6281 44.9455 83.3482 45.2281C83.2095 45.3681 83.0819 45.4782 82.9719 45.5428C82.9175 45.5748 82.8567 45.6021 82.7939 45.6101C82.7271 45.6185 82.6511 45.605 82.5909 45.5473C82.5355 45.4962 82.5309 45.4276 82.5307 45.3985C82.5305 45.3608 82.5376 45.3212 82.5466 45.2845C82.565 45.2096 82.5998 45.1143 82.6463 45.0041C82.7401 44.7819 82.8914 44.4762 83.0893 44.1061C83.4857 43.3648 84.0753 42.3533 84.7837 41.2098C87.0137 37.5858 88.9762 33.0325 89.8323 29.5479C92.4816 18.6574 91.0887 8.28855 85.8351 -0.295094C84.3886 -2.64449 83.3439 -3.96861 81.0552 -6.37972C80.3602 -7.10954 79.9425 -7.55872 79.7934 -7.74916C79.7742 -7.77367 79.7574 -7.79653 79.7442 -7.81683C79.7353 -7.83062 79.7141 -7.86359 79.7066 -7.90232C79.7033 -7.91939 79.6934 -7.98392 79.7441 -8.03947C79.7959 -8.09621 79.8625 -8.09109 79.881 -8.08875C79.9209 -8.08367 79.9554 -8.06389 79.9691 -8.05606L79.9693 -8.05597C80.0422 -8.01425 80.177 -7.90985 80.3601 -7.76033L80.3602 -7.76025C81.7686 -6.60793 84.0716 -4.06606 85.4345 -2.17432L85.4347 -2.17404C88.5458 2.16551 90.4848 6.79187 91.5975 12.5208L91.5976 12.5213C91.9637 14.4395 92.0209 15.3652 92.0018 19.4968ZM92.0018 19.4968C92.0018 19.4966 92.0018 19.4965 92.0018 19.4963H91.8518M92.0018 19.4968C92.0018 19.4969 92.0018 19.4969 92.0018 19.497L91.8518 19.4963M91.8518 19.4963C91.8709 15.3662 91.8135 14.4527 91.4502 12.5494M91.8518 19.4963C91.8518 23.5312 91.7944 24.597 91.4311 26.5384C90.5707 31.3536 89.0029 35.8072 86.8042 39.8231L91.4502 12.5494M91.4502 12.5494C90.3413 6.83964 88.4102 2.23375 85.3128 -2.08664L91.4502 12.5494ZM79.813 -7.79938C79.8131 -7.79932 79.8139 -7.79888 79.8155 -7.79822C79.8138 -7.7991 79.813 -7.79943 79.813 -7.79938ZM79.9918 -7.987C79.9918 -7.98703 79.9921 -7.98635 79.993 -7.9849C79.9923 -7.98625 79.9919 -7.98698 79.9918 -7.987Z" fill="#0066FF" stroke="#0066FF" stroke-width="0.3"/>
<path d="M62.3071 -5.85944L62.3072 -5.85942C64.4354 -5.53786 66.1813 -5.02778 68.1188 -4.15796C69.3314 -3.61097 70.8622 -2.69328 72.057 -1.85935C72.6544 -1.4423 73.1634 -1.04929 73.5048 -0.736877C73.6764 -0.579788 73.7998 -0.448402 73.8712 -0.348267C73.907 -0.298016 73.9241 -0.263359 73.9305 -0.24297C73.9082 -0.199062 73.8961 -0.146889 73.9058 -0.0910416C73.917 -0.0273438 73.9531 0.0211601 73.9939 0.0541916C74.0704 0.116051 74.1776 0.137527 74.2794 0.137527C74.3356 0.137527 74.4448 0.176495 74.6136 0.291458C74.775 0.401421 74.9685 0.564941 75.1866 0.775085C75.6224 1.19481 76.1441 1.78805 76.6879 2.47625C77.7757 3.85288 78.9405 5.59513 79.6708 7.05849L79.671 7.05885C82.5779 12.8461 83.2082 20.4212 81.3807 27.4709C79.4967 34.7072 74.9483 41.2037 68.9576 45.1982L62.3071 -5.85944ZM62.3071 -5.85944C50.0974 -7.71185 37.4641 0.910278 33.2192 14.0227C32.2678 16.9777 31.8875 19.21 31.7542 22.4518C31.5829 27.1126 32.2676 30.8777 34.0173 34.9482L34.0173 34.9483C35.1399 37.5619 36.1648 39.2433 37.9141 41.3442C40.784 44.7496 43.6683 46.771 47.946 48.3417L47.9462 48.3418C50.2981 49.2104 52.2495 49.5316 55.1024 49.5316L55.1029 49.5316M62.3071 -5.85944L55.1029 49.5316M55.1029 49.5316C60.3478 49.5505 64.2576 48.3236 68.9574 45.1983L55.1029 49.5316ZM54.693 -6.53595L54.6943 -6.53617C55.6918 -6.7097 57.265 -6.79533 58.8283 -6.79533C60.3916 -6.79533 61.9602 -6.70971 62.9483 -6.53614L62.9495 -6.53592C70.2426 -5.19504 76.4953 -0.50214 79.9385 6.21887C83.2259 12.6296 83.9548 19.976 82.0535 27.3936C80.9777 31.6198 79.5351 34.6243 76.7348 38.6147L76.7344 38.6153C72.679 44.3359 65.8962 48.7562 59.3922 49.9054C57.3301 50.2699 53.4324 50.3081 51.4089 50.0012L51.4083 50.0011C49.5569 49.7131 47.3066 49.0042 45.3078 48.0859L45.3075 48.0858C40.6651 45.9382 36.4929 41.7436 33.8984 36.5784C29.7652 28.3496 29.8254 18.6322 34.0883 9.68671C38.0272 1.40482 46.1154 -4.96608 54.693 -6.53595Z" fill="#0066FF" stroke="#0066FF" stroke-width="0.3"/>
<path d="M43.188 19.458C43.188 19.4579 43.188 19.4578 43.188 19.4576V19.4581C43.188 19.4581 43.188 19.4581 43.188 19.458ZM55.9236 1.97198L55.924 1.97175C58.0028 0.72636 61.1924 -0.53624 63.5617 -1.01564C64.507 -1.20961 66.2615 -1.27558 68.0042 -1.23988C69.7476 -1.20418 71.5058 -1.06615 72.4591 -0.843437L72.4599 -0.84325C72.9579 -0.724073 73.3112 -0.629066 73.527 -0.560114C73.6318 -0.526617 73.7145 -0.496098 73.7653 -0.46871C73.7785 -0.461544 73.7947 -0.451921 73.81 -0.439541C73.8204 -0.431152 73.8539 -0.403385 73.8684 -0.35478C73.8771 -0.325611 73.8785 -0.289845 73.8647 -0.253757C73.8516 -0.219543 73.8295 -0.19725 73.8123 -0.184162C73.7819 -0.160954 73.7497 -0.153555 73.7364 -0.15081C73.7047 -0.144226 73.6682 -0.143511 73.6358 -0.144175C73.6006 -0.144899 73.5585 -0.147657 73.5105 -0.152119C73.4143 -0.161057 73.2879 -0.17745 73.1335 -0.201168C72.8243 -0.248659 72.3963 -0.32649 71.8596 -0.436211L71.8594 -0.436239C69.4693 -0.927183 65.9339 -0.945797 63.6034 -0.455416L63.6024 -0.455208C62.6754 -0.266891 60.9822 0.244226 59.8801 0.679274L59.8796 0.679482C52.6584 3.49805 46.7986 9.7438 43.9056 17.7392L43.9055 17.7394C43.7044 18.2922 43.522 18.7701 43.3895 19.0939C43.3236 19.2548 43.2686 19.3812 43.2292 19.4601C43.212 19.4945 43.1901 19.5358 43.1665 19.5633C43.1603 19.5706 43.1463 19.5862 43.1249 19.5993C43.106 19.6109 43.0462 19.641 42.9766 19.6075C42.9145 19.5776 42.8978 19.5209 42.8939 19.5064C42.8896 19.4901 42.8884 19.4753 42.8881 19.4651C42.8824 19.3812 42.9036 19.2618 42.9345 19.1318C42.9678 18.9922 43.0179 18.8191 43.0809 18.6218C43.207 18.2268 43.3874 17.7271 43.596 17.189C44.0129 16.1134 44.5454 14.8762 44.9881 14.0043C47.4664 9.07042 51.4812 4.65208 55.9236 1.97198Z" fill="#0066FF" stroke="#0066FF" stroke-width="0.3"/>
<path d="M10.1112 3.47464L10.111 3.47466C8.92803 3.64841 7.08496 4.21943 5.46155 4.8439C4.64843 5.15668 3.8861 5.48453 3.28478 5.78532C2.98425 5.93565 2.7219 6.08023 2.51274 6.21376C2.30698 6.34511 2.14072 6.47316 2.04352 6.59267C2.00408 6.64051 1.96755 6.71578 1.93388 6.7953C1.89748 6.88128 1.85691 6.99096 1.81311 7.11962C1.7254 7.37727 1.62211 7.7187 1.51008 8.11499C1.28589 8.90802 1.02486 9.92718 0.780779 10.9491C0.536704 11.971 0.309149 12.9973 0.15207 13.8048C0.0735791 14.2083 0.0123351 14.5589 -0.0245138 14.8277C-0.0429131 14.9619 -0.0555354 15.0778 -0.0609919 15.1708C-0.066034 15.2568 -0.0664887 15.3421 -0.0502243 15.4039C-0.0501245 15.4042 -0.050024 15.4046 -0.0499229 15.405L0.0949683 15.3662C0.171447 15.6707 1.08919 16.7365 2.35109 17.9736L10.1112 3.47464ZM10.1112 3.47464C10.5574 3.40964 11.0318 3.33794 11.406 3.28139C11.6859 3.2391 11.9097 3.20528 12.0237 3.18907C12.3023 3.14945 13.2499 3.1114 14.1064 3.09245L14.1073 3.09244C14.7087 3.08293 15.1164 3.09204 15.3684 3.12716C15.4905 3.14418 15.598 3.16981 15.6734 3.21694C15.7137 3.24215 15.7554 3.28002 15.7783 3.3361C15.8021 3.3944 15.7974 3.45202 15.7815 3.4994L15.7816 3.49944L15.7797 3.50466C15.7321 3.63094 15.6271 3.72079 15.4828 3.79076C15.3394 3.86025 15.139 3.91912 14.8688 3.9746C14.327 4.08586 13.4637 4.19117 12.1169 4.32429L12.1162 4.32435C10.0059 4.52307 7.87673 5.00579 6.16089 5.61765C5.30292 5.9236 4.55149 6.26071 3.95871 6.60879C3.36254 6.95887 2.94078 7.31205 2.72555 7.64436L2.72475 7.64558C2.60514 7.82638 2.44862 8.16194 2.27495 8.60247C2.10264 9.03952 1.91735 9.56968 1.73884 10.1324C1.38141 11.2591 1.05402 12.5073 0.91228 13.3914C0.7995 14.1025 0.80829 14.5737 1.02369 15.071C1.24382 15.5793 1.6849 16.1282 2.47958 16.9765M10.1112 3.47464L2.47958 16.9765M10.4152 23.6477C10.4463 23.4586 10.4406 23.2531 10.4124 23.0748C10.385 22.9012 10.3326 22.7286 10.2526 22.6225L10.2462 22.614L10.2386 22.6064C10.1942 22.5622 10.1027 22.4941 9.989 22.415C9.87098 22.333 9.71748 22.2313 9.53961 22.1177C9.1838 21.8903 8.72757 21.6131 8.25693 21.3453M10.4152 23.6477L8.25677 21.3453C8.25682 21.3453 8.25687 21.3453 8.25693 21.3453M10.4152 23.6477L10.3391 24.2725L10.0402 24.2586L10.0212 23.5758C10.0014 23.243 9.97487 23.1369 9.88745 23.0559C9.83837 23.0104 9.76067 22.9651 9.62571 22.9108C9.49149 22.8568 9.31433 22.799 9.07421 22.7225L10.4152 23.6477ZM8.25693 21.3453C5.93364 20.0184 3.86256 18.4474 2.47958 16.9765M8.25693 21.3453C8.25695 21.3454 8.25697 21.3454 8.257 21.3454L2.47958 16.9765" fill="#0066FF" stroke="#0066FF" stroke-width="0.3"/>
<path d="M64.6819 58.0909C65.4608 57.9927 66.8456 57.5084 68.3506 56.8545C69.8612 56.1981 71.512 55.3622 72.8291 54.5488C74.6334 53.4406 77.6073 51.1686 78.7843 49.9777L78.785 49.977C79.0914 49.6625 79.3123 49.427 79.4486 49.2713C79.5156 49.1948 79.5664 49.1327 79.5965 49.0884C79.6043 49.0769 79.6122 49.0645 79.6189 49.0519C79.6246 49.0413 79.6345 49.0217 79.6399 48.9974C79.6431 48.9829 79.659 48.9018 79.5891 48.8426C79.5284 48.7911 79.4594 48.8077 79.4484 48.8104L79.4479 48.8105C79.412 48.8191 79.3789 48.8397 79.3609 48.8511C79.3371 48.8663 79.3093 48.8861 79.2785 48.9093C79.2166 48.9561 79.1351 49.0225 79.0349 49.1076C78.8342 49.2779 78.5531 49.5279 78.1941 49.8566C75.1309 52.6406 69.4513 55.9986 65.5325 57.3242L65.5317 57.3245L65.5317 57.3245C65.0355 57.4955 64.6861 57.6319 64.5148 57.721C64.4727 57.7429 64.4321 57.7666 64.4019 57.7917C64.3884 57.8029 64.3639 57.8249 64.3471 57.8575C64.338 57.8753 64.3278 57.9028 64.3286 57.937C64.3294 57.974 64.3428 58.0077 64.3642 58.0343C64.4005 58.0793 64.4495 58.0914 64.4663 58.0952C64.4896 58.1004 64.5132 58.1018 64.5332 58.1021C64.5739 58.1027 64.6245 58.0983 64.6819 58.0909ZM64.6819 58.0909C64.6818 58.0909 64.6817 58.0909 64.6816 58.0909L64.6676 57.9798L64.6819 58.0909Z" fill="#0066FF" stroke="#0066FF" stroke-width="0.3"/>
<path d="M98.6989 68.1622L98.699 68.1612L99.9005 76.213L100.05 76.2036C100.05 76.2037 100.05 76.2037 100.05 76.2037C100.166 78.0431 99.936 80.5542 99.5282 81.9081C99.4147 82.3027 99.1434 82.7467 98.7701 83.2045C98.3947 83.6649 97.9081 84.1489 97.3522 84.623C96.2408 85.5709 94.8428 86.4877 93.4807 87.1031L93.4801 87.1034C91.7908 87.8572 90.5438 88.0682 87.9872 88.03C87.987 88.03 87.9869 88.03 87.9867 88.03L85.7507 88.011L85.7442 87.7112L88.3252 87.578C89.7701 87.5018 90.6218 87.4307 91.3758 87.2466C92.1272 87.0631 92.788 86.7656 93.8478 86.2238L93.8481 86.2237C94.7685 85.7562 95.895 84.9141 96.8527 84.0411C97.3307 83.6054 97.764 83.1645 98.1064 82.7621C98.4511 82.357 98.6954 82.0005 98.8057 81.7327C99.043 81.1512 99.1818 80.1525 99.2152 78.71C99.2485 77.2729 99.1772 75.4132 99.0053 73.122C98.8334 70.8973 98.6989 68.6641 98.6989 68.1622Z" fill="#0066FF" stroke="#0066FF" stroke-width="0.3"/>
</g>
<defs>
<clipPath id="clip0_154_2704">
<rect width="134" height="93" fill="white"/>
</clipPath>
</defs>
</svg>
