<svg width="136" height="142" viewBox="0 0 136 142" fill="none" xmlns="http://www.w3.org/2000/svg">
<mask id="path-1-outside-1_154_2690" maskUnits="userSpaceOnUse" x="0" y="0" width="136" height="142" fill="black">
<rect fill="white" width="136" height="142"/>
<path d="M77.8025 1.34348C76.6958 2.03041 73.3184 5.80852 71.9064 7.94562C70.3989 10.2354 69.8837 11.1704 68.8533 13.4411L68.1855 14.9103H65.6477C64.2547 14.9294 62.4611 15.0057 61.6788 15.1202C59.6752 15.3683 58.8929 15.3492 58.5685 15.0248C58.4158 14.8722 58.1487 14.128 57.9579 13.3647C57.3282 10.6933 55.2102 6.80074 53.2257 4.64455C52.6724 4.0721 52.367 3.6714 52.5197 3.78589C55.3819 5.86575 61.03 10.3308 62.8236 11.9527C63.6823 12.735 63.5869 12.6015 62.442 11.4757C59.7897 8.84245 52.4052 3.09897 51.6801 3.09897C51.2985 3.09897 44.2765 5.65585 43.437 6.1138C42.8264 6.43819 42.4447 7.12512 41.7387 9.26224C40.7465 12.2962 40.4794 13.7654 40.403 17.1238C40.3267 20.1005 40.3267 20.1386 40.5175 18.1732C41.109 11.6283 42.3302 7.62123 44.1048 6.36186C45.097 5.65585 49.5812 4.05302 50.5734 4.05302C51.413 4.05302 51.5275 4.11028 52.5579 5.21698C54.0653 6.80074 56.4314 10.9032 57.8816 14.4333C58.5494 16.0743 58.7211 16.1506 61.4689 15.9026C62.7282 15.7881 64.6173 15.6927 65.6668 15.6927C68.0329 15.6927 68.1092 15.6354 69.6548 12.735C72.8795 6.70534 76.0661 2.71733 78.2605 1.97316C79.2718 1.64877 80.741 1.7251 82.7637 2.2403C86.0266 3.06079 86.7135 3.59508 87.0951 5.52229C87.3432 6.87708 87.1715 11.075 86.7708 13.5937C86.351 16.2079 86.1792 19.9287 86.4655 20.5966C86.599 20.94 87.0951 21.398 87.7821 21.7987C89.3086 22.6955 90.9496 23.8786 92.3998 25.1379C93.5446 26.1302 93.6973 26.2065 94.4224 26.1302C94.8803 26.0729 96.7694 25.2906 99.1927 24.1266C104.536 21.5697 106.825 20.8637 110.126 20.7874C111.1 20.7683 111.806 20.8637 112.13 21.0164C112.874 21.4171 116.824 26.092 117.034 26.798C117.606 28.8016 114.286 33.8009 108.39 39.8497C106.329 41.9677 105.948 42.4638 105.948 42.9599C105.948 43.2843 106.367 44.6009 106.883 45.8794C107.398 47.1769 108.085 49.1232 108.447 50.1918C108.867 51.5084 109.21 52.2526 109.459 52.4243C109.687 52.5579 111.1 52.8632 112.626 53.0921C117.091 53.76 120.43 54.3897 122.148 54.924C124.361 55.6109 126.842 56.7748 127.185 57.3091C127.91 58.454 128.196 64.1784 127.586 65.6858C126.918 67.365 124.399 68.7198 112.931 73.5283C111.386 74.1771 110.374 74.7113 110.203 74.9785C110.05 75.2265 109.668 76.5813 109.363 78.0315C109.058 79.4626 108.543 81.5997 108.237 82.7637C107.34 86.122 107.054 85.5114 111.729 90.1672C116.767 95.1666 118.789 97.5708 119.209 99.021L119.514 100.051L118.713 101.521C116.709 105.165 115.164 107.035 113.485 107.856C111.786 108.695 109.573 108.428 101.406 106.329C96.9411 105.184 96.8076 105.203 95.1284 106.863C92.2662 109.668 89.7474 112.607 89.633 113.256C89.5376 113.675 89.7475 115.145 90.1863 117.415C91.1595 122.453 91.6174 125.449 91.751 127.509C91.8655 129.303 91.8655 129.322 91.293 130.105C90.5489 131.116 88.011 133.024 86.2174 133.902C84.6909 134.665 83.3361 134.837 82.4584 134.379C80.3976 133.31 74.6159 127.853 72.3643 124.838C70.6279 122.51 70.2845 122.167 69.6357 122.167C68.6435 122.167 63.7014 123.35 63.0717 123.731C62.5756 124.018 62.3848 124.342 62.1367 125.182C60.801 129.952 59.7706 132.7 57.8052 136.878C56.7558 139.092 56.1833 139.798 55.2293 140.046C54.4278 140.237 48.5317 139.741 47.8448 139.416C47.1197 139.073 46.5854 138.023 45.5741 134.932C44.5055 131.669 43.0935 125.067 42.9409 122.644L42.8836 121.88L39.6398 120.22C37.8652 119.304 36.2051 118.56 35.9571 118.541C35.2892 118.541 34.8122 118.847 33.0949 120.488C29.9846 123.407 25.4242 126.498 23.8786 126.689C23.2298 126.784 22.9817 126.708 22.0849 126.078C21.4934 125.678 20.3103 124.59 19.4135 123.655L17.7916 121.957V120.278C17.7916 117.167 18.6312 112.168 19.9096 107.646L20.6729 104.936L19.7188 103.486C19.1845 102.685 18.3068 101.177 17.7344 100.128C17.1619 99.0782 16.4941 98.0669 16.2269 97.8761C15.8071 97.5708 15.7117 97.5708 14.9485 97.8189C13.1167 98.4867 10.9032 98.7348 7.9647 98.6584C3.59507 98.544 3.38517 98.3722 2.31661 94.2125C1.5152 90.9687 1.55336 90.4916 2.75549 88.7552C4.12934 86.7898 7.43042 83.5651 9.58662 82.0958C10.5788 81.4089 11.4184 80.6838 11.4566 80.493C11.5329 80.1686 11.3803 80.2068 10.4262 80.7601C7.67848 82.2866 5.08341 84.5192 3.23252 86.9425C1.64877 88.9842 1 90.0146 1 90.4725C1 91.5411 3.13711 98.5249 3.57598 98.8874C3.70955 99.0019 4.6827 99.25 5.7131 99.4408C6.74349 99.6316 8.65163 100.109 9.94916 100.471C11.2467 100.853 13.7464 101.482 15.5018 101.883L18.7266 102.589L19.5089 103.829C20.4248 105.261 20.4439 105.051 19.3563 108.619C18.2877 112.073 17.6771 114.897 17.2955 117.95C16.9139 121.136 17.0284 121.938 17.9443 122.968C18.9174 124.056 22.3521 127.109 22.9627 127.414C23.5733 127.738 30.309 128.311 33.9154 128.349L36.5868 128.368L37.7316 127.719C39.5253 126.689 41.109 125.601 41.8723 124.876L42.5783 124.208L42.6928 124.953C43.7423 131.44 45.0207 136.211 46.5091 139.149L46.9479 140.008L51.4893 140.313C54.6568 140.523 56.1833 140.561 56.4695 140.428C57.0801 140.16 57.8243 138.901 59.16 136.001C60.7056 132.585 61.5834 130.2 62.2703 127.452C62.9572 124.743 63.3007 124.266 64.5982 124.266C65.3233 124.266 67.1933 124.781 66.7353 124.857C66.2774 124.933 69.7311 125.391 70.876 125.391C72.1163 125.411 72.1544 125.43 72.7269 126.155C73.0513 126.555 73.3184 126.975 73.3184 127.071C73.3184 127.185 72.8414 128.368 72.2498 129.723C69.6929 135.657 67.0979 139.493 64.9608 140.447C64.4074 140.695 63.377 140.79 60.4385 140.886L56.6222 141L60.7247 140.981L64.8272 140.962L65.724 140.447C67.9947 139.111 71.2385 133.997 72.9368 129.093L73.5474 127.357L76.1424 129.971C79.1382 132.967 81.7524 135.008 83.1262 135.428C83.6414 135.581 84.5573 135.695 85.1298 135.695C86.0457 135.676 86.1029 135.638 85.5305 135.543L84.8626 135.428L85.3397 135.123C85.6068 134.951 86.2174 134.589 86.7135 134.302C87.2096 134.035 88.4308 133.158 89.4421 132.375C90.4535 131.593 91.4266 130.944 91.6365 130.944C91.8846 130.944 91.9609 130.849 91.9036 130.677C91.8464 130.524 91.9418 130.124 92.1326 129.78C92.7623 128.54 92.1899 122.51 90.8542 116.557C90.5298 115.107 90.3199 113.714 90.3962 113.447C90.4535 113.198 90.9877 112.492 91.5983 111.901C92.1899 111.309 93.4874 109.936 94.4605 108.848C95.4528 107.779 96.5023 106.768 96.8266 106.596C97.3228 106.329 97.4754 106.348 98.4676 106.654C99.0592 106.825 99.6698 106.978 99.7842 106.959C99.9178 106.959 99.9941 107.016 99.9369 107.092C99.8415 107.245 102.093 108.314 102.895 108.504C103.162 108.562 103.257 108.562 103.123 108.504C103.009 108.447 102.933 108.333 102.99 108.237C103.123 108.027 102.379 107.798 102.112 107.97C101.96 108.066 101.94 108.027 102.036 107.856C102.15 107.665 102.093 107.627 101.788 107.703C101.559 107.779 101.368 107.741 101.368 107.665C101.368 107.569 101.082 107.436 100.757 107.36C100.414 107.283 100.223 107.188 100.338 107.15C100.452 107.111 101.902 107.436 103.581 107.856C105.242 108.275 107.722 108.791 109.058 109.02C111.443 109.42 111.538 109.42 112.741 109.096C114.744 108.562 116.042 107.092 118.999 102.093C120.468 99.6125 120.43 99.4026 118.179 96.5213C114.763 92.1135 111.424 88.3545 109.573 86.7708C108.791 86.1029 108.237 85.4923 108.237 85.2824C108.237 85.0725 108.619 83.7177 109.096 82.2485C109.554 80.7983 110.126 78.7375 110.336 77.6689C110.546 76.6004 110.832 75.6463 110.966 75.57C111.596 75.1311 111.92 75.0166 112.168 75.112C112.302 75.1693 112.416 75.1311 112.378 75.0166C112.359 74.9212 113.885 74.1389 115.774 73.2993C124.113 69.5975 127.834 67.4795 128.215 66.2583C128.464 65.495 128.387 59.7897 128.12 58.3395C127.967 57.5953 127.719 56.8512 127.548 56.6413C127.242 56.2978 127.261 56.2978 128.082 56.4314C128.559 56.5077 129.246 56.7176 129.608 56.9084C130.41 57.3282 134.073 60.553 134.417 61.1636C134.608 61.4689 134.665 62.671 134.646 65.6858C134.627 69.8265 134.474 70.9523 133.959 70.9141C133.806 70.8951 133.1 70.4371 132.413 69.8837C130.715 68.5671 130.772 68.777 132.471 70.17C133.215 70.7615 133.806 71.3721 133.806 71.5057C133.806 72.1735 128.387 75.2456 124.743 76.6576C121.155 78.0315 119.858 78.6993 118.866 79.6152C117.244 81.1036 116.442 83.2598 116.442 86.1411C116.442 87.057 116.366 87.8202 116.271 87.8202C116.175 87.8202 115.794 87.6867 115.431 87.534C114.382 87.0951 114.324 87.2287 115.336 87.6867C116.404 88.1828 122.434 93.9072 124.609 96.5023C125.964 98.1242 126.937 99.7461 126.937 100.433C126.937 101.025 125.945 103.753 125.201 105.184C123.827 107.818 122.014 109.84 120.793 110.088C120.488 110.145 120.201 110.279 120.144 110.355C119.762 110.985 107.798 109.687 104.65 108.676C104.383 108.6 104.383 108.619 104.593 108.772C104.803 108.924 104.764 109.001 104.421 109.191C104.078 109.382 103.868 109.363 103.295 109.115C102.551 108.81 99.9941 108.046 99.727 108.046C99.4408 108.066 101.387 108.791 102.475 109.077C103.047 109.23 103.543 109.401 103.601 109.458C103.658 109.516 103.085 110.222 102.341 111.042C100.643 112.874 99.8415 114.057 99.8415 114.706C99.8415 115.145 99.8987 115.107 100.204 114.439C100.681 113.408 103.505 110.088 104.326 109.573C105.089 109.096 105.184 109.096 108.619 109.726C111.519 110.241 115.832 110.699 118.446 110.756C120.201 110.813 120.659 110.756 121.308 110.432C123.121 109.554 125.086 106.825 126.574 103.104C127.987 99.5553 127.777 99.1355 121.365 92.7432C118.637 90.0337 116.977 88.24 116.9 87.9156C116.652 86.9043 116.957 83.775 117.435 82.4393C118.35 79.9969 119.533 79.0428 123.693 77.4972C126.803 76.3523 131.383 74.0244 133.138 72.7078C134.169 71.9254 134.531 71.5247 134.722 70.9332C135.047 70.0173 135.257 64.2547 135.047 62.3466C134.913 61.0491 134.894 61.0109 133.73 59.866C133.1 59.2173 131.975 58.225 131.249 57.6335C130.105 56.6794 129.761 56.5077 128.483 56.2406C127.681 56.0688 125.964 55.5918 124.647 55.172C123.331 54.7713 121.136 54.1798 119.801 53.8554C117.32 53.2639 116.156 52.8059 115.679 52.2335C115.259 51.7183 115.412 50.3444 116.022 49.0278C116.328 48.379 117.492 46.6808 118.618 45.2688C122.625 40.2313 124.838 36.5486 124.991 34.6786C125.086 33.4193 124.705 32.5415 123.064 30.3281C121.785 28.5726 114.172 20.7874 113.313 20.3294C112.855 20.1005 112.397 20.0623 111.119 20.1577C106.196 20.5393 102.952 21.4743 97.5517 24.0503C94.1934 25.634 94.2125 25.6341 92.8005 24.3747C91.5411 23.2489 89.5376 21.8369 87.7821 20.8446C87.1715 20.5202 86.6563 20.1004 86.6372 19.9287C86.5799 19.2609 86.6944 18.4022 87.0761 16.7994C87.9347 12.9831 88.3736 8.07919 88.011 5.99933C87.8966 5.27423 87.7821 4.54913 87.7439 4.39648C87.7248 4.26291 87.6485 4.03394 87.5531 3.90038C87.1142 3.17528 87.8202 3.6714 89.9383 5.59862C93.6973 8.9951 94.7277 10.0064 94.804 10.4071C94.8422 10.617 95.0521 10.9796 95.262 11.2085C96.0443 12.0481 96.1779 15.0057 95.7581 22.9436C95.6627 24.451 95.6818 24.4128 95.9489 22.2757C96.1206 20.9591 96.2542 18.3831 96.2733 16.2651C96.2924 11.0177 96.4259 11.323 91.9036 7.08698C89.9573 5.25516 88.0874 3.57599 87.7439 3.32794C87.3241 3.04172 85.8358 2.58376 83.1644 1.95407C80.97 1.4198 79.0046 1 78.7757 1C78.5658 1 78.1269 1.15266 77.8025 1.34348ZM115.145 22.2185C117.244 24.1266 121.709 28.897 122.892 30.4807C124.819 33.0758 125.029 34.5069 123.789 36.9875C122.854 38.9147 120.888 41.796 118.236 45.1925C115.813 48.2836 115.259 49.295 115.145 50.8596C115.068 51.7374 115.126 52.0427 115.412 52.3671L115.774 52.7678L114.82 52.6151C114.305 52.5388 113.046 52.367 112.054 52.2526C111.042 52.119 110.126 51.9663 110.012 51.89C109.897 51.8137 109.478 50.7451 109.096 49.5048C108.714 48.2836 108.008 46.3946 107.55 45.326C107.035 44.143 106.768 43.2462 106.844 43.0363C106.902 42.8454 108.046 41.567 109.363 40.2122C112.969 36.5104 115.87 32.656 117.11 29.9655C117.759 28.5535 118.045 26.9888 117.74 26.5881C117.606 26.4164 116.48 25.0616 115.259 23.5733C114.019 22.0849 113.008 20.8256 113.008 20.7683C113.008 20.4058 113.618 20.8255 115.145 22.2185ZM17.0284 99.498C17.3718 100.166 17.8679 101.082 18.1542 101.54C18.4785 102.131 18.5358 102.36 18.345 102.284C18.1923 102.227 16.3605 101.769 14.2616 101.273C12.1626 100.796 9.96824 100.242 9.3958 100.07L8.34633 99.7652L10.6361 99.5171C11.8955 99.3835 13.6509 99.0592 14.5478 98.8111C15.4446 98.563 16.2269 98.3341 16.2842 98.3341C16.3414 98.315 16.6849 98.8493 17.0284 99.498ZM38.4186 120.717C39.8306 121.365 41.2808 122.033 41.6624 122.167C42.2539 122.377 42.3875 122.529 42.4829 123.102C42.5783 123.693 42.502 123.865 41.9677 124.418C40.7083 125.754 37.0829 127.91 35.6899 128.177C35.0602 128.292 27.4277 127.815 25.5005 127.548L24.6227 127.414L26.3973 126.517C28.3818 125.506 31.9881 122.796 34.0299 120.793C34.7549 120.087 35.461 119.495 35.6136 119.495C35.7472 119.495 37.0065 120.049 38.4186 120.717ZM70.7233 123.579C70.8378 123.789 71.124 124.17 71.3721 124.437C71.6011 124.705 71.7919 124.991 71.7919 125.067C71.7919 125.315 70.4562 125.239 69.0251 124.914C68.3 124.743 67.3078 124.533 66.8307 124.437C65.4378 124.151 65.5714 123.96 67.3459 123.693C68.2618 123.579 69.1968 123.388 69.4067 123.312C69.9792 123.064 70.4943 123.178 70.7233 123.579Z"/>
</mask>
<path d="M77.8025 1.34348C76.6958 2.03041 73.3184 5.80852 71.9064 7.94562C70.3989 10.2354 69.8837 11.1704 68.8533 13.4411L68.1855 14.9103H65.6477C64.2547 14.9294 62.4611 15.0057 61.6788 15.1202C59.6752 15.3683 58.8929 15.3492 58.5685 15.0248C58.4158 14.8722 58.1487 14.128 57.9579 13.3647C57.3282 10.6933 55.2102 6.80074 53.2257 4.64455C52.6724 4.0721 52.367 3.6714 52.5197 3.78589C55.3819 5.86575 61.03 10.3308 62.8236 11.9527C63.6823 12.735 63.5869 12.6015 62.442 11.4757C59.7897 8.84245 52.4052 3.09897 51.6801 3.09897C51.2985 3.09897 44.2765 5.65585 43.437 6.1138C42.8264 6.43819 42.4447 7.12512 41.7387 9.26224C40.7465 12.2962 40.4794 13.7654 40.403 17.1238C40.3267 20.1005 40.3267 20.1386 40.5175 18.1732C41.109 11.6283 42.3302 7.62123 44.1048 6.36186C45.097 5.65585 49.5812 4.05302 50.5734 4.05302C51.413 4.05302 51.5275 4.11028 52.5579 5.21698C54.0653 6.80074 56.4314 10.9032 57.8816 14.4333C58.5494 16.0743 58.7211 16.1506 61.4689 15.9026C62.7282 15.7881 64.6173 15.6927 65.6668 15.6927C68.0329 15.6927 68.1092 15.6354 69.6548 12.735C72.8795 6.70534 76.0661 2.71733 78.2605 1.97316C79.2718 1.64877 80.741 1.7251 82.7637 2.2403C86.0266 3.06079 86.7135 3.59508 87.0951 5.52229C87.3432 6.87708 87.1715 11.075 86.7708 13.5937C86.351 16.2079 86.1792 19.9287 86.4655 20.5966C86.599 20.94 87.0951 21.398 87.7821 21.7987C89.3086 22.6955 90.9496 23.8786 92.3998 25.1379C93.5446 26.1302 93.6973 26.2065 94.4224 26.1302C94.8803 26.0729 96.7694 25.2906 99.1927 24.1266C104.536 21.5697 106.825 20.8637 110.126 20.7874C111.1 20.7683 111.806 20.8637 112.13 21.0164C112.874 21.4171 116.824 26.092 117.034 26.798C117.606 28.8016 114.286 33.8009 108.39 39.8497C106.329 41.9677 105.948 42.4638 105.948 42.9599C105.948 43.2843 106.367 44.6009 106.883 45.8794C107.398 47.1769 108.085 49.1232 108.447 50.1918C108.867 51.5084 109.21 52.2526 109.459 52.4243C109.687 52.5579 111.1 52.8632 112.626 53.0921C117.091 53.76 120.43 54.3897 122.148 54.924C124.361 55.6109 126.842 56.7748 127.185 57.3091C127.91 58.454 128.196 64.1784 127.586 65.6858C126.918 67.365 124.399 68.7198 112.931 73.5283C111.386 74.1771 110.374 74.7113 110.203 74.9785C110.05 75.2265 109.668 76.5813 109.363 78.0315C109.058 79.4626 108.543 81.5997 108.237 82.7637C107.34 86.122 107.054 85.5114 111.729 90.1672C116.767 95.1666 118.789 97.5708 119.209 99.021L119.514 100.051L118.713 101.521C116.709 105.165 115.164 107.035 113.485 107.856C111.786 108.695 109.573 108.428 101.406 106.329C96.9411 105.184 96.8076 105.203 95.1284 106.863C92.2662 109.668 89.7474 112.607 89.633 113.256C89.5376 113.675 89.7475 115.145 90.1863 117.415C91.1595 122.453 91.6174 125.449 91.751 127.509C91.8655 129.303 91.8655 129.322 91.293 130.105C90.5489 131.116 88.011 133.024 86.2174 133.902C84.6909 134.665 83.3361 134.837 82.4584 134.379C80.3976 133.31 74.6159 127.853 72.3643 124.838C70.6279 122.51 70.2845 122.167 69.6357 122.167C68.6435 122.167 63.7014 123.35 63.0717 123.731C62.5756 124.018 62.3848 124.342 62.1367 125.182C60.801 129.952 59.7706 132.7 57.8052 136.878C56.7558 139.092 56.1833 139.798 55.2293 140.046C54.4278 140.237 48.5317 139.741 47.8448 139.416C47.1197 139.073 46.5854 138.023 45.5741 134.932C44.5055 131.669 43.0935 125.067 42.9409 122.644L42.8836 121.88L39.6398 120.22C37.8652 119.304 36.2051 118.56 35.9571 118.541C35.2892 118.541 34.8122 118.847 33.0949 120.488C29.9846 123.407 25.4242 126.498 23.8786 126.689C23.2298 126.784 22.9817 126.708 22.0849 126.078C21.4934 125.678 20.3103 124.59 19.4135 123.655L17.7916 121.957V120.278C17.7916 117.167 18.6312 112.168 19.9096 107.646L20.6729 104.936L19.7188 103.486C19.1845 102.685 18.3068 101.177 17.7344 100.128C17.1619 99.0782 16.4941 98.0669 16.2269 97.8761C15.8071 97.5708 15.7117 97.5708 14.9485 97.8189C13.1167 98.4867 10.9032 98.7348 7.9647 98.6584C3.59507 98.544 3.38517 98.3722 2.31661 94.2125C1.5152 90.9687 1.55336 90.4916 2.75549 88.7552C4.12934 86.7898 7.43042 83.5651 9.58662 82.0958C10.5788 81.4089 11.4184 80.6838 11.4566 80.493C11.5329 80.1686 11.3803 80.2068 10.4262 80.7601C7.67848 82.2866 5.08341 84.5192 3.23252 86.9425C1.64877 88.9842 1 90.0146 1 90.4725C1 91.5411 3.13711 98.5249 3.57598 98.8874C3.70955 99.0019 4.6827 99.25 5.7131 99.4408C6.74349 99.6316 8.65163 100.109 9.94916 100.471C11.2467 100.853 13.7464 101.482 15.5018 101.883L18.7266 102.589L19.5089 103.829C20.4248 105.261 20.4439 105.051 19.3563 108.619C18.2877 112.073 17.6771 114.897 17.2955 117.95C16.9139 121.136 17.0284 121.938 17.9443 122.968C18.9174 124.056 22.3521 127.109 22.9627 127.414C23.5733 127.738 30.309 128.311 33.9154 128.349L36.5868 128.368L37.7316 127.719C39.5253 126.689 41.109 125.601 41.8723 124.876L42.5783 124.208L42.6928 124.953C43.7423 131.44 45.0207 136.211 46.5091 139.149L46.9479 140.008L51.4893 140.313C54.6568 140.523 56.1833 140.561 56.4695 140.428C57.0801 140.16 57.8243 138.901 59.16 136.001C60.7056 132.585 61.5834 130.2 62.2703 127.452C62.9572 124.743 63.3007 124.266 64.5982 124.266C65.3233 124.266 67.1933 124.781 66.7353 124.857C66.2774 124.933 69.7311 125.391 70.876 125.391C72.1163 125.411 72.1544 125.43 72.7269 126.155C73.0513 126.555 73.3184 126.975 73.3184 127.071C73.3184 127.185 72.8414 128.368 72.2498 129.723C69.6929 135.657 67.0979 139.493 64.9608 140.447C64.4074 140.695 63.377 140.79 60.4385 140.886L56.6222 141L60.7247 140.981L64.8272 140.962L65.724 140.447C67.9947 139.111 71.2385 133.997 72.9368 129.093L73.5474 127.357L76.1424 129.971C79.1382 132.967 81.7524 135.008 83.1262 135.428C83.6414 135.581 84.5573 135.695 85.1298 135.695C86.0457 135.676 86.1029 135.638 85.5305 135.543L84.8626 135.428L85.3397 135.123C85.6068 134.951 86.2174 134.589 86.7135 134.302C87.2096 134.035 88.4308 133.158 89.4421 132.375C90.4535 131.593 91.4266 130.944 91.6365 130.944C91.8846 130.944 91.9609 130.849 91.9036 130.677C91.8464 130.524 91.9418 130.124 92.1326 129.78C92.7623 128.54 92.1899 122.51 90.8542 116.557C90.5298 115.107 90.3199 113.714 90.3962 113.447C90.4535 113.198 90.9877 112.492 91.5983 111.901C92.1899 111.309 93.4874 109.936 94.4605 108.848C95.4528 107.779 96.5023 106.768 96.8266 106.596C97.3228 106.329 97.4754 106.348 98.4676 106.654C99.0592 106.825 99.6698 106.978 99.7842 106.959C99.9178 106.959 99.9941 107.016 99.9369 107.092C99.8415 107.245 102.093 108.314 102.895 108.504C103.162 108.562 103.257 108.562 103.123 108.504C103.009 108.447 102.933 108.333 102.99 108.237C103.123 108.027 102.379 107.798 102.112 107.97C101.96 108.066 101.94 108.027 102.036 107.856C102.15 107.665 102.093 107.627 101.788 107.703C101.559 107.779 101.368 107.741 101.368 107.665C101.368 107.569 101.082 107.436 100.757 107.36C100.414 107.283 100.223 107.188 100.338 107.15C100.452 107.111 101.902 107.436 103.581 107.856C105.242 108.275 107.722 108.791 109.058 109.02C111.443 109.42 111.538 109.42 112.741 109.096C114.744 108.562 116.042 107.092 118.999 102.093C120.468 99.6125 120.43 99.4026 118.179 96.5213C114.763 92.1135 111.424 88.3545 109.573 86.7708C108.791 86.1029 108.237 85.4923 108.237 85.2824C108.237 85.0725 108.619 83.7177 109.096 82.2485C109.554 80.7983 110.126 78.7375 110.336 77.6689C110.546 76.6004 110.832 75.6463 110.966 75.57C111.596 75.1311 111.92 75.0166 112.168 75.112C112.302 75.1693 112.416 75.1311 112.378 75.0166C112.359 74.9212 113.885 74.1389 115.774 73.2993C124.113 69.5975 127.834 67.4795 128.215 66.2583C128.464 65.495 128.387 59.7897 128.12 58.3395C127.967 57.5953 127.719 56.8512 127.548 56.6413C127.242 56.2978 127.261 56.2978 128.082 56.4314C128.559 56.5077 129.246 56.7176 129.608 56.9084C130.41 57.3282 134.073 60.553 134.417 61.1636C134.608 61.4689 134.665 62.671 134.646 65.6858C134.627 69.8265 134.474 70.9523 133.959 70.9141C133.806 70.8951 133.1 70.4371 132.413 69.8837C130.715 68.5671 130.772 68.777 132.471 70.17C133.215 70.7615 133.806 71.3721 133.806 71.5057C133.806 72.1735 128.387 75.2456 124.743 76.6576C121.155 78.0315 119.858 78.6993 118.866 79.6152C117.244 81.1036 116.442 83.2598 116.442 86.1411C116.442 87.057 116.366 87.8202 116.271 87.8202C116.175 87.8202 115.794 87.6867 115.431 87.534C114.382 87.0951 114.324 87.2287 115.336 87.6867C116.404 88.1828 122.434 93.9072 124.609 96.5023C125.964 98.1242 126.937 99.7461 126.937 100.433C126.937 101.025 125.945 103.753 125.201 105.184C123.827 107.818 122.014 109.84 120.793 110.088C120.488 110.145 120.201 110.279 120.144 110.355C119.762 110.985 107.798 109.687 104.65 108.676C104.383 108.6 104.383 108.619 104.593 108.772C104.803 108.924 104.764 109.001 104.421 109.191C104.078 109.382 103.868 109.363 103.295 109.115C102.551 108.81 99.9941 108.046 99.727 108.046C99.4408 108.066 101.387 108.791 102.475 109.077C103.047 109.23 103.543 109.401 103.601 109.458C103.658 109.516 103.085 110.222 102.341 111.042C100.643 112.874 99.8415 114.057 99.8415 114.706C99.8415 115.145 99.8987 115.107 100.204 114.439C100.681 113.408 103.505 110.088 104.326 109.573C105.089 109.096 105.184 109.096 108.619 109.726C111.519 110.241 115.832 110.699 118.446 110.756C120.201 110.813 120.659 110.756 121.308 110.432C123.121 109.554 125.086 106.825 126.574 103.104C127.987 99.5553 127.777 99.1355 121.365 92.7432C118.637 90.0337 116.977 88.24 116.9 87.9156C116.652 86.9043 116.957 83.775 117.435 82.4393C118.35 79.9969 119.533 79.0428 123.693 77.4972C126.803 76.3523 131.383 74.0244 133.138 72.7078C134.169 71.9254 134.531 71.5247 134.722 70.9332C135.047 70.0173 135.257 64.2547 135.047 62.3466C134.913 61.0491 134.894 61.0109 133.73 59.866C133.1 59.2173 131.975 58.225 131.249 57.6335C130.105 56.6794 129.761 56.5077 128.483 56.2406C127.681 56.0688 125.964 55.5918 124.647 55.172C123.331 54.7713 121.136 54.1798 119.801 53.8554C117.32 53.2639 116.156 52.8059 115.679 52.2335C115.259 51.7183 115.412 50.3444 116.022 49.0278C116.328 48.379 117.492 46.6808 118.618 45.2688C122.625 40.2313 124.838 36.5486 124.991 34.6786C125.086 33.4193 124.705 32.5415 123.064 30.3281C121.785 28.5726 114.172 20.7874 113.313 20.3294C112.855 20.1005 112.397 20.0623 111.119 20.1577C106.196 20.5393 102.952 21.4743 97.5517 24.0503C94.1934 25.634 94.2125 25.6341 92.8005 24.3747C91.5411 23.2489 89.5376 21.8369 87.7821 20.8446C87.1715 20.5202 86.6563 20.1004 86.6372 19.9287C86.5799 19.2609 86.6944 18.4022 87.0761 16.7994C87.9347 12.9831 88.3736 8.07919 88.011 5.99933C87.8966 5.27423 87.7821 4.54913 87.7439 4.39648C87.7248 4.26291 87.6485 4.03394 87.5531 3.90038C87.1142 3.17528 87.8202 3.6714 89.9383 5.59862C93.6973 8.9951 94.7277 10.0064 94.804 10.4071C94.8422 10.617 95.0521 10.9796 95.262 11.2085C96.0443 12.0481 96.1779 15.0057 95.7581 22.9436C95.6627 24.451 95.6818 24.4128 95.9489 22.2757C96.1206 20.9591 96.2542 18.3831 96.2733 16.2651C96.2924 11.0177 96.4259 11.323 91.9036 7.08698C89.9573 5.25516 88.0874 3.57599 87.7439 3.32794C87.3241 3.04172 85.8358 2.58376 83.1644 1.95407C80.97 1.4198 79.0046 1 78.7757 1C78.5658 1 78.1269 1.15266 77.8025 1.34348ZM115.145 22.2185C117.244 24.1266 121.709 28.897 122.892 30.4807C124.819 33.0758 125.029 34.5069 123.789 36.9875C122.854 38.9147 120.888 41.796 118.236 45.1925C115.813 48.2836 115.259 49.295 115.145 50.8596C115.068 51.7374 115.126 52.0427 115.412 52.3671L115.774 52.7678L114.82 52.6151C114.305 52.5388 113.046 52.367 112.054 52.2526C111.042 52.119 110.126 51.9663 110.012 51.89C109.897 51.8137 109.478 50.7451 109.096 49.5048C108.714 48.2836 108.008 46.3946 107.55 45.326C107.035 44.143 106.768 43.2462 106.844 43.0363C106.902 42.8454 108.046 41.567 109.363 40.2122C112.969 36.5104 115.87 32.656 117.11 29.9655C117.759 28.5535 118.045 26.9888 117.74 26.5881C117.606 26.4164 116.48 25.0616 115.259 23.5733C114.019 22.0849 113.008 20.8256 113.008 20.7683C113.008 20.4058 113.618 20.8255 115.145 22.2185ZM17.0284 99.498C17.3718 100.166 17.8679 101.082 18.1542 101.54C18.4785 102.131 18.5358 102.36 18.345 102.284C18.1923 102.227 16.3605 101.769 14.2616 101.273C12.1626 100.796 9.96824 100.242 9.3958 100.07L8.34633 99.7652L10.6361 99.5171C11.8955 99.3835 13.6509 99.0592 14.5478 98.8111C15.4446 98.563 16.2269 98.3341 16.2842 98.3341C16.3414 98.315 16.6849 98.8493 17.0284 99.498ZM38.4186 120.717C39.8306 121.365 41.2808 122.033 41.6624 122.167C42.2539 122.377 42.3875 122.529 42.4829 123.102C42.5783 123.693 42.502 123.865 41.9677 124.418C40.7083 125.754 37.0829 127.91 35.6899 128.177C35.0602 128.292 27.4277 127.815 25.5005 127.548L24.6227 127.414L26.3973 126.517C28.3818 125.506 31.9881 122.796 34.0299 120.793C34.7549 120.087 35.461 119.495 35.6136 119.495C35.7472 119.495 37.0065 120.049 38.4186 120.717ZM70.7233 123.579C70.8378 123.789 71.124 124.17 71.3721 124.437C71.6011 124.705 71.7919 124.991 71.7919 125.067C71.7919 125.315 70.4562 125.239 69.0251 124.914C68.3 124.743 67.3078 124.533 66.8307 124.437C65.4378 124.151 65.5714 123.96 67.3459 123.693C68.2618 123.579 69.1968 123.388 69.4067 123.312C69.9792 123.064 70.4943 123.178 70.7233 123.579Z" fill="white"/>
<path d="M77.8025 1.34348C76.6958 2.03041 73.3184 5.80852 71.9064 7.94562C70.3989 10.2354 69.8837 11.1704 68.8533 13.4411L68.1855 14.9103H65.6477C64.2547 14.9294 62.4611 15.0057 61.6788 15.1202C59.6752 15.3683 58.8929 15.3492 58.5685 15.0248C58.4158 14.8722 58.1487 14.128 57.9579 13.3647C57.3282 10.6933 55.2102 6.80074 53.2257 4.64455C52.6724 4.0721 52.367 3.6714 52.5197 3.78589C55.3819 5.86575 61.03 10.3308 62.8236 11.9527C63.6823 12.735 63.5869 12.6015 62.442 11.4757C59.7897 8.84245 52.4052 3.09897 51.6801 3.09897C51.2985 3.09897 44.2765 5.65585 43.437 6.1138C42.8264 6.43819 42.4447 7.12512 41.7387 9.26224C40.7465 12.2962 40.4794 13.7654 40.403 17.1238C40.3267 20.1005 40.3267 20.1386 40.5175 18.1732C41.109 11.6283 42.3302 7.62123 44.1048 6.36186C45.097 5.65585 49.5812 4.05302 50.5734 4.05302C51.413 4.05302 51.5275 4.11028 52.5579 5.21698C54.0653 6.80074 56.4314 10.9032 57.8816 14.4333C58.5494 16.0743 58.7211 16.1506 61.4689 15.9026C62.7282 15.7881 64.6173 15.6927 65.6668 15.6927C68.0329 15.6927 68.1092 15.6354 69.6548 12.735C72.8795 6.70534 76.0661 2.71733 78.2605 1.97316C79.2718 1.64877 80.741 1.7251 82.7637 2.2403C86.0266 3.06079 86.7135 3.59508 87.0951 5.52229C87.3432 6.87708 87.1715 11.075 86.7708 13.5937C86.351 16.2079 86.1792 19.9287 86.4655 20.5966C86.599 20.94 87.0951 21.398 87.7821 21.7987C89.3086 22.6955 90.9496 23.8786 92.3998 25.1379C93.5446 26.1302 93.6973 26.2065 94.4224 26.1302C94.8803 26.0729 96.7694 25.2906 99.1927 24.1266C104.536 21.5697 106.825 20.8637 110.126 20.7874C111.1 20.7683 111.806 20.8637 112.13 21.0164C112.874 21.4171 116.824 26.092 117.034 26.798C117.606 28.8016 114.286 33.8009 108.39 39.8497C106.329 41.9677 105.948 42.4638 105.948 42.9599C105.948 43.2843 106.367 44.6009 106.883 45.8794C107.398 47.1769 108.085 49.1232 108.447 50.1918C108.867 51.5084 109.21 52.2526 109.459 52.4243C109.687 52.5579 111.1 52.8632 112.626 53.0921C117.091 53.76 120.43 54.3897 122.148 54.924C124.361 55.6109 126.842 56.7748 127.185 57.3091C127.91 58.454 128.196 64.1784 127.586 65.6858C126.918 67.365 124.399 68.7198 112.931 73.5283C111.386 74.1771 110.374 74.7113 110.203 74.9785C110.05 75.2265 109.668 76.5813 109.363 78.0315C109.058 79.4626 108.543 81.5997 108.237 82.7637C107.34 86.122 107.054 85.5114 111.729 90.1672C116.767 95.1666 118.789 97.5708 119.209 99.021L119.514 100.051L118.713 101.521C116.709 105.165 115.164 107.035 113.485 107.856C111.786 108.695 109.573 108.428 101.406 106.329C96.9411 105.184 96.8076 105.203 95.1284 106.863C92.2662 109.668 89.7474 112.607 89.633 113.256C89.5376 113.675 89.7475 115.145 90.1863 117.415C91.1595 122.453 91.6174 125.449 91.751 127.509C91.8655 129.303 91.8655 129.322 91.293 130.105C90.5489 131.116 88.011 133.024 86.2174 133.902C84.6909 134.665 83.3361 134.837 82.4584 134.379C80.3976 133.31 74.6159 127.853 72.3643 124.838C70.6279 122.51 70.2845 122.167 69.6357 122.167C68.6435 122.167 63.7014 123.35 63.0717 123.731C62.5756 124.018 62.3848 124.342 62.1367 125.182C60.801 129.952 59.7706 132.7 57.8052 136.878C56.7558 139.092 56.1833 139.798 55.2293 140.046C54.4278 140.237 48.5317 139.741 47.8448 139.416C47.1197 139.073 46.5854 138.023 45.5741 134.932C44.5055 131.669 43.0935 125.067 42.9409 122.644L42.8836 121.88L39.6398 120.22C37.8652 119.304 36.2051 118.56 35.9571 118.541C35.2892 118.541 34.8122 118.847 33.0949 120.488C29.9846 123.407 25.4242 126.498 23.8786 126.689C23.2298 126.784 22.9817 126.708 22.0849 126.078C21.4934 125.678 20.3103 124.59 19.4135 123.655L17.7916 121.957V120.278C17.7916 117.167 18.6312 112.168 19.9096 107.646L20.6729 104.936L19.7188 103.486C19.1845 102.685 18.3068 101.177 17.7344 100.128C17.1619 99.0782 16.4941 98.0669 16.2269 97.8761C15.8071 97.5708 15.7117 97.5708 14.9485 97.8189C13.1167 98.4867 10.9032 98.7348 7.9647 98.6584C3.59507 98.544 3.38517 98.3722 2.31661 94.2125C1.5152 90.9687 1.55336 90.4916 2.75549 88.7552C4.12934 86.7898 7.43042 83.5651 9.58662 82.0958C10.5788 81.4089 11.4184 80.6838 11.4566 80.493C11.5329 80.1686 11.3803 80.2068 10.4262 80.7601C7.67848 82.2866 5.08341 84.5192 3.23252 86.9425C1.64877 88.9842 1 90.0146 1 90.4725C1 91.5411 3.13711 98.5249 3.57598 98.8874C3.70955 99.0019 4.6827 99.25 5.7131 99.4408C6.74349 99.6316 8.65163 100.109 9.94916 100.471C11.2467 100.853 13.7464 101.482 15.5018 101.883L18.7266 102.589L19.5089 103.829C20.4248 105.261 20.4439 105.051 19.3563 108.619C18.2877 112.073 17.6771 114.897 17.2955 117.95C16.9139 121.136 17.0284 121.938 17.9443 122.968C18.9174 124.056 22.3521 127.109 22.9627 127.414C23.5733 127.738 30.309 128.311 33.9154 128.349L36.5868 128.368L37.7316 127.719C39.5253 126.689 41.109 125.601 41.8723 124.876L42.5783 124.208L42.6928 124.953C43.7423 131.44 45.0207 136.211 46.5091 139.149L46.9479 140.008L51.4893 140.313C54.6568 140.523 56.1833 140.561 56.4695 140.428C57.0801 140.16 57.8243 138.901 59.16 136.001C60.7056 132.585 61.5834 130.2 62.2703 127.452C62.9572 124.743 63.3007 124.266 64.5982 124.266C65.3233 124.266 67.1933 124.781 66.7353 124.857C66.2774 124.933 69.7311 125.391 70.876 125.391C72.1163 125.411 72.1544 125.43 72.7269 126.155C73.0513 126.555 73.3184 126.975 73.3184 127.071C73.3184 127.185 72.8414 128.368 72.2498 129.723C69.6929 135.657 67.0979 139.493 64.9608 140.447C64.4074 140.695 63.377 140.79 60.4385 140.886L56.6222 141L60.7247 140.981L64.8272 140.962L65.724 140.447C67.9947 139.111 71.2385 133.997 72.9368 129.093L73.5474 127.357L76.1424 129.971C79.1382 132.967 81.7524 135.008 83.1262 135.428C83.6414 135.581 84.5573 135.695 85.1298 135.695C86.0457 135.676 86.1029 135.638 85.5305 135.543L84.8626 135.428L85.3397 135.123C85.6068 134.951 86.2174 134.589 86.7135 134.302C87.2096 134.035 88.4308 133.158 89.4421 132.375C90.4535 131.593 91.4266 130.944 91.6365 130.944C91.8846 130.944 91.9609 130.849 91.9036 130.677C91.8464 130.524 91.9418 130.124 92.1326 129.78C92.7623 128.54 92.1899 122.51 90.8542 116.557C90.5298 115.107 90.3199 113.714 90.3962 113.447C90.4535 113.198 90.9877 112.492 91.5983 111.901C92.1899 111.309 93.4874 109.936 94.4605 108.848C95.4528 107.779 96.5023 106.768 96.8266 106.596C97.3228 106.329 97.4754 106.348 98.4676 106.654C99.0592 106.825 99.6698 106.978 99.7842 106.959C99.9178 106.959 99.9941 107.016 99.9369 107.092C99.8415 107.245 102.093 108.314 102.895 108.504C103.162 108.562 103.257 108.562 103.123 108.504C103.009 108.447 102.933 108.333 102.99 108.237C103.123 108.027 102.379 107.798 102.112 107.97C101.96 108.066 101.94 108.027 102.036 107.856C102.15 107.665 102.093 107.627 101.788 107.703C101.559 107.779 101.368 107.741 101.368 107.665C101.368 107.569 101.082 107.436 100.757 107.36C100.414 107.283 100.223 107.188 100.338 107.15C100.452 107.111 101.902 107.436 103.581 107.856C105.242 108.275 107.722 108.791 109.058 109.02C111.443 109.42 111.538 109.42 112.741 109.096C114.744 108.562 116.042 107.092 118.999 102.093C120.468 99.6125 120.43 99.4026 118.179 96.5213C114.763 92.1135 111.424 88.3545 109.573 86.7708C108.791 86.1029 108.237 85.4923 108.237 85.2824C108.237 85.0725 108.619 83.7177 109.096 82.2485C109.554 80.7983 110.126 78.7375 110.336 77.6689C110.546 76.6004 110.832 75.6463 110.966 75.57C111.596 75.1311 111.92 75.0166 112.168 75.112C112.302 75.1693 112.416 75.1311 112.378 75.0166C112.359 74.9212 113.885 74.1389 115.774 73.2993C124.113 69.5975 127.834 67.4795 128.215 66.2583C128.464 65.495 128.387 59.7897 128.12 58.3395C127.967 57.5953 127.719 56.8512 127.548 56.6413C127.242 56.2978 127.261 56.2978 128.082 56.4314C128.559 56.5077 129.246 56.7176 129.608 56.9084C130.41 57.3282 134.073 60.553 134.417 61.1636C134.608 61.4689 134.665 62.671 134.646 65.6858C134.627 69.8265 134.474 70.9523 133.959 70.9141C133.806 70.8951 133.1 70.4371 132.413 69.8837C130.715 68.5671 130.772 68.777 132.471 70.17C133.215 70.7615 133.806 71.3721 133.806 71.5057C133.806 72.1735 128.387 75.2456 124.743 76.6576C121.155 78.0315 119.858 78.6993 118.866 79.6152C117.244 81.1036 116.442 83.2598 116.442 86.1411C116.442 87.057 116.366 87.8202 116.271 87.8202C116.175 87.8202 115.794 87.6867 115.431 87.534C114.382 87.0951 114.324 87.2287 115.336 87.6867C116.404 88.1828 122.434 93.9072 124.609 96.5023C125.964 98.1242 126.937 99.7461 126.937 100.433C126.937 101.025 125.945 103.753 125.201 105.184C123.827 107.818 122.014 109.84 120.793 110.088C120.488 110.145 120.201 110.279 120.144 110.355C119.762 110.985 107.798 109.687 104.65 108.676C104.383 108.6 104.383 108.619 104.593 108.772C104.803 108.924 104.764 109.001 104.421 109.191C104.078 109.382 103.868 109.363 103.295 109.115C102.551 108.81 99.9941 108.046 99.727 108.046C99.4408 108.066 101.387 108.791 102.475 109.077C103.047 109.23 103.543 109.401 103.601 109.458C103.658 109.516 103.085 110.222 102.341 111.042C100.643 112.874 99.8415 114.057 99.8415 114.706C99.8415 115.145 99.8987 115.107 100.204 114.439C100.681 113.408 103.505 110.088 104.326 109.573C105.089 109.096 105.184 109.096 108.619 109.726C111.519 110.241 115.832 110.699 118.446 110.756C120.201 110.813 120.659 110.756 121.308 110.432C123.121 109.554 125.086 106.825 126.574 103.104C127.987 99.5553 127.777 99.1355 121.365 92.7432C118.637 90.0337 116.977 88.24 116.9 87.9156C116.652 86.9043 116.957 83.775 117.435 82.4393C118.35 79.9969 119.533 79.0428 123.693 77.4972C126.803 76.3523 131.383 74.0244 133.138 72.7078C134.169 71.9254 134.531 71.5247 134.722 70.9332C135.047 70.0173 135.257 64.2547 135.047 62.3466C134.913 61.0491 134.894 61.0109 133.73 59.866C133.1 59.2173 131.975 58.225 131.249 57.6335C130.105 56.6794 129.761 56.5077 128.483 56.2406C127.681 56.0688 125.964 55.5918 124.647 55.172C123.331 54.7713 121.136 54.1798 119.801 53.8554C117.32 53.2639 116.156 52.8059 115.679 52.2335C115.259 51.7183 115.412 50.3444 116.022 49.0278C116.328 48.379 117.492 46.6808 118.618 45.2688C122.625 40.2313 124.838 36.5486 124.991 34.6786C125.086 33.4193 124.705 32.5415 123.064 30.3281C121.785 28.5726 114.172 20.7874 113.313 20.3294C112.855 20.1005 112.397 20.0623 111.119 20.1577C106.196 20.5393 102.952 21.4743 97.5517 24.0503C94.1934 25.634 94.2125 25.6341 92.8005 24.3747C91.5411 23.2489 89.5376 21.8369 87.7821 20.8446C87.1715 20.5202 86.6563 20.1004 86.6372 19.9287C86.5799 19.2609 86.6944 18.4022 87.0761 16.7994C87.9347 12.9831 88.3736 8.07919 88.011 5.99933C87.8966 5.27423 87.7821 4.54913 87.7439 4.39648C87.7248 4.26291 87.6485 4.03394 87.5531 3.90038C87.1142 3.17528 87.8202 3.6714 89.9383 5.59862C93.6973 8.9951 94.7277 10.0064 94.804 10.4071C94.8422 10.617 95.0521 10.9796 95.262 11.2085C96.0443 12.0481 96.1779 15.0057 95.7581 22.9436C95.6627 24.451 95.6818 24.4128 95.9489 22.2757C96.1206 20.9591 96.2542 18.3831 96.2733 16.2651C96.2924 11.0177 96.4259 11.323 91.9036 7.08698C89.9573 5.25516 88.0874 3.57599 87.7439 3.32794C87.3241 3.04172 85.8358 2.58376 83.1644 1.95407C80.97 1.4198 79.0046 1 78.7757 1C78.5658 1 78.1269 1.15266 77.8025 1.34348ZM115.145 22.2185C117.244 24.1266 121.709 28.897 122.892 30.4807C124.819 33.0758 125.029 34.5069 123.789 36.9875C122.854 38.9147 120.888 41.796 118.236 45.1925C115.813 48.2836 115.259 49.295 115.145 50.8596C115.068 51.7374 115.126 52.0427 115.412 52.3671L115.774 52.7678L114.82 52.6151C114.305 52.5388 113.046 52.367 112.054 52.2526C111.042 52.119 110.126 51.9663 110.012 51.89C109.897 51.8137 109.478 50.7451 109.096 49.5048C108.714 48.2836 108.008 46.3946 107.55 45.326C107.035 44.143 106.768 43.2462 106.844 43.0363C106.902 42.8454 108.046 41.567 109.363 40.2122C112.969 36.5104 115.87 32.656 117.11 29.9655C117.759 28.5535 118.045 26.9888 117.74 26.5881C117.606 26.4164 116.48 25.0616 115.259 23.5733C114.019 22.0849 113.008 20.8256 113.008 20.7683C113.008 20.4058 113.618 20.8255 115.145 22.2185ZM17.0284 99.498C17.3718 100.166 17.8679 101.082 18.1542 101.54C18.4785 102.131 18.5358 102.36 18.345 102.284C18.1923 102.227 16.3605 101.769 14.2616 101.273C12.1626 100.796 9.96824 100.242 9.3958 100.07L8.34633 99.7652L10.6361 99.5171C11.8955 99.3835 13.6509 99.0592 14.5478 98.8111C15.4446 98.563 16.2269 98.3341 16.2842 98.3341C16.3414 98.315 16.6849 98.8493 17.0284 99.498ZM38.4186 120.717C39.8306 121.365 41.2808 122.033 41.6624 122.167C42.2539 122.377 42.3875 122.529 42.4829 123.102C42.5783 123.693 42.502 123.865 41.9677 124.418C40.7083 125.754 37.0829 127.91 35.6899 128.177C35.0602 128.292 27.4277 127.815 25.5005 127.548L24.6227 127.414L26.3973 126.517C28.3818 125.506 31.9881 122.796 34.0299 120.793C34.7549 120.087 35.461 119.495 35.6136 119.495C35.7472 119.495 37.0065 120.049 38.4186 120.717ZM70.7233 123.579C70.8378 123.789 71.124 124.17 71.3721 124.437C71.6011 124.705 71.7919 124.991 71.7919 125.067C71.7919 125.315 70.4562 125.239 69.0251 124.914C68.3 124.743 67.3078 124.533 66.8307 124.437C65.4378 124.151 65.5714 123.96 67.3459 123.693C68.2618 123.579 69.1968 123.388 69.4067 123.312C69.9792 123.064 70.4943 123.178 70.7233 123.579Z" stroke="white" stroke-width="0.6" mask="url(#path-1-outside-1_154_2690)"/>
<path d="M64.6889 14.0099L64.6888 14.01L64.6866 14.0078C64.6618 13.9844 64.6372 13.9612 64.613 13.9384C64.4704 13.8038 64.34 13.6807 64.241 13.5838C64.1833 13.5273 64.1342 13.4777 64.0989 13.4388C64.0816 13.4197 64.065 13.4003 64.0519 13.3825C64.0455 13.3738 64.0375 13.3622 64.0305 13.3489L64.0305 13.3487C64.0261 13.3404 64.0099 13.3098 64.0099 13.2691C64.0099 13.2429 64.0122 13.1982 64.035 13.1553C64.0478 13.1312 64.0682 13.1055 64.0992 13.0865C64.1305 13.0673 64.1634 13.0607 64.1921 13.0607C64.2431 13.0607 64.2856 13.0816 64.3106 13.0958C64.3393 13.1121 64.3687 13.1338 64.398 13.1578C64.5125 13.2514 64.6917 13.4364 64.9565 13.7201L64.9565 13.7201L64.9595 13.7234L65.5129 14.3531L65.2995 14.5633L64.6889 14.0099ZM64.1599 13.3553C64.1586 13.3546 64.1579 13.3543 64.158 13.3544C64.158 13.3544 64.1586 13.3548 64.1599 13.3553Z" fill="white" stroke="white" stroke-width="0.3"/>
<path d="M19.8324 22.885L19.8323 22.885L19.8368 22.88C19.9677 22.7387 20.1132 22.6272 20.2931 22.5499C20.472 22.473 20.6774 22.433 20.9243 22.4242C21.4123 22.4067 22.0873 22.511 23.0873 22.7205C25.7602 23.259 29.3815 24.7358 32.6715 26.5912L32.6717 26.5913C32.897 26.7186 33.0871 26.8475 33.236 26.9706C33.3829 27.092 33.4978 27.2143 33.5633 27.3303C33.6261 27.4416 33.6675 27.5974 33.5609 27.725C33.4695 27.8345 33.3105 27.8641 33.1512 27.8641C33.122 27.8641 33.0931 27.8572 33.0746 27.8522C33.0525 27.8464 33.0274 27.8383 33.0006 27.8288C32.9466 27.8099 32.8778 27.7827 32.7973 27.749C32.6357 27.6815 32.4196 27.5845 32.1649 27.4661C31.6552 27.2292 30.986 26.9041 30.2792 26.5508L30.2777 26.55C27.5394 25.1428 24.1966 23.9665 22.0227 23.6263L22.0216 23.6261C21.4374 23.5303 21.0954 23.4905 20.8519 23.5038C20.622 23.5163 20.4805 23.5761 20.2973 23.6983L20.2964 23.6988C20.1469 23.797 19.8761 24.0553 19.531 24.4256C19.1904 24.791 18.7887 25.2532 18.381 25.7465C17.5639 26.7352 16.7304 27.8393 16.3168 28.535L16.3168 28.535L16.3159 28.5364C15.9698 29.1037 15.8011 29.4048 15.7243 29.6836C15.6491 29.9563 15.6596 30.2164 15.7075 30.714C15.8677 32.2491 16.5059 34.4331 17.384 36.651C18.2615 38.8674 19.3732 41.104 20.4722 42.743L20.4723 42.743L20.4748 42.7471C20.5709 42.9008 20.6518 43.0415 20.6991 43.1466C20.7213 43.196 20.7431 43.2523 20.7489 43.3034C20.7515 43.3267 20.7543 43.3751 20.7277 43.4231C20.6926 43.4865 20.6298 43.5108 20.5766 43.5108C20.536 43.5108 20.5016 43.498 20.4784 43.487C20.4537 43.4753 20.4304 43.4602 20.4094 43.4447C20.3672 43.4136 20.3216 43.3714 20.2741 43.3228C20.1786 43.2248 20.062 43.0862 19.9315 42.9188C19.6697 42.5831 19.3424 42.1193 18.9991 41.6025C18.3129 40.5696 17.5551 39.3136 17.1217 38.4274L17.1217 38.4274L17.1211 38.4262C16.086 36.2602 15.5674 34.8001 14.9735 32.3287L14.9734 32.3285C14.9537 32.2459 14.9344 32.1658 14.9157 32.0881C14.6407 30.9456 14.4901 30.32 14.7367 29.6089C14.867 29.2331 15.105 28.84 15.4729 28.3335C15.7918 27.8945 16.2149 27.3618 16.7615 26.6737C16.8461 26.5671 16.9338 26.4567 17.0244 26.3424L17.0251 26.3416C18.3604 24.6821 19.621 23.1348 19.8324 22.885Z" fill="white" stroke="white" stroke-width="0.3"/>
<path d="M27.9291 89.4826L27.9292 89.4827C32.1068 97.8189 39.4296 103.917 47.9089 106.085L47.9094 106.085C48.4401 106.219 48.8564 106.315 49.1505 106.375C49.2974 106.405 49.4156 106.426 49.5032 106.438C49.5468 106.444 49.5851 106.448 49.6168 106.45C49.6409 106.451 49.6839 106.453 49.7224 106.441C49.7346 106.437 49.8082 106.414 49.8307 106.331C49.8534 106.247 49.8003 106.189 49.7913 106.18C49.7634 106.15 49.7246 106.13 49.7028 106.12C49.647 106.092 49.5593 106.058 49.4441 106.018C49.2109 105.937 48.8414 105.824 48.33 105.681L48.3289 105.681C40.321 103.498 33.5019 97.823 29.0729 89.6493L29.0726 89.6487C27.2127 86.2517 25.4628 80.5276 25.0258 76.5006C24.7788 74.1249 24.7791 69.0805 25.0256 67.0322C26.4518 55.6226 31.8506 46.1763 40.8043 39.4468L40.8047 39.4465C43.2128 37.6262 47.8148 35.3056 50.9687 34.2795C54.3894 33.1773 56.3606 32.8358 60.3751 32.6456L60.3757 32.6455L63.3334 32.4929L63.3256 32.1931H60.7496C60.0431 32.1931 59.3457 32.1979 58.7912 32.2074C58.2427 32.2169 57.8206 32.2311 57.6754 32.2518C57.5341 32.272 57.2272 32.3189 56.8569 32.3755C56.5262 32.426 56.1448 32.4843 55.7857 32.5381C55.7856 32.5382 55.7854 32.5382 55.7853 32.5382L27.9291 89.4826ZM27.9291 89.4826C21.0719 75.7873 22.9672 58.0354 32.5646 46.2351L27.9291 89.4826Z" fill="white" stroke="white" stroke-width="0.3"/>
<path d="M63.9962 32.4195C64.0754 32.4005 64.2349 32.3916 64.4405 32.3915C64.6497 32.3821 64.8158 32.386 64.9119 32.4035C64.936 32.4079 64.9656 32.4147 64.9929 32.4273C65.0064 32.4336 65.0275 32.4449 65.0474 32.4646C65.0685 32.4856 65.0942 32.5229 65.0956 32.5752C65.0969 32.6261 65.0744 32.6633 65.0574 32.6837C65.0407 32.7038 65.0223 32.7168 65.0098 32.7246C64.9845 32.7404 64.9557 32.7516 64.9302 32.7602L64.9213 32.7631L64.9121 32.7649C64.7007 32.8072 64.3393 32.8064 64.0957 32.766C64.0627 32.7609 64.0332 32.7553 64.0085 32.7491C63.9886 32.7441 63.955 32.7349 63.9258 32.7163C63.9141 32.7088 63.8738 32.6821 63.8569 32.6276C63.8342 32.5541 63.8703 32.4962 63.8978 32.4695C63.9209 32.447 63.9459 32.4362 63.957 32.4317C63.971 32.4261 63.9847 32.4223 63.9962 32.4195Z" fill="white" stroke="white" stroke-width="0.3"/>
<path d="M65.5197 32.9552L65.5196 32.9556L65.5092 32.9525C65.4818 32.9442 65.456 32.9352 65.4334 32.9251C65.4142 32.9165 65.3831 32.901 65.3572 32.8744C65.3434 32.8603 65.3235 32.8353 65.3141 32.7987C65.3035 32.7576 65.3099 32.7159 65.3288 32.6813C65.3591 32.6262 65.4115 32.6056 65.4263 32.5998C65.4692 32.5831 65.5247 32.5754 65.5767 32.5708C65.6332 32.5658 65.7022 32.5634 65.7812 32.5634C65.9431 32.5634 66.0764 32.5723 66.158 32.5952C66.1791 32.6011 66.2065 32.6105 66.2322 32.6267C66.2548 32.6411 66.3046 32.6792 66.3137 32.7506C66.3232 32.8246 66.282 32.8749 66.261 32.8955C66.2382 32.9178 66.212 32.9328 66.1918 32.9429L66.1793 32.9492L66.1659 32.953C66.0795 32.9777 65.9632 32.9874 65.8528 32.9874C65.7405 32.9874 65.6193 32.9773 65.5197 32.9552Z" fill="white" stroke="white" stroke-width="0.3"/>
<path d="M68.0126 33.507L68.0126 33.5071L66.6199 32.885L66.6124 32.7352C66.6136 32.7351 66.6148 32.7351 66.6161 32.735C66.6827 32.7324 66.784 32.7456 66.8963 32.7646C67.0159 32.785 67.1635 32.8149 67.3277 32.8513C67.6562 32.924 68.0562 33.0236 68.4405 33.1265C68.8246 33.2294 69.1952 33.3363 69.465 33.4239C69.599 33.4675 69.7119 33.5074 69.7898 33.5406C69.8269 33.5565 69.8647 33.5744 69.8935 33.5938C69.9051 33.6017 69.9322 33.6206 69.9522 33.6519C69.9632 33.6691 69.9788 33.7004 69.9778 33.742C69.977 33.7808 69.9622 33.8133 69.9428 33.8373C69.9052 33.885 69.8528 33.8958 69.84 33.8985L69.8399 33.8985C69.8167 33.9032 69.7937 33.904 69.7755 33.9039C69.7379 33.9036 69.6919 33.8987 69.6423 33.8916C69.5415 33.877 69.4041 33.8498 69.2421 33.8138C68.9171 33.7416 68.4806 33.6312 68.0126 33.507ZM66.6197 33.035C66.6197 33.035 66.6198 33.035 66.6199 33.035C66.6198 33.035 66.6197 33.035 66.6197 33.035Z" fill="white" stroke="white" stroke-width="0.3"/>
<path d="M92.4142 60.315L92.4141 60.3145C91.3037 54.571 89.3687 49.9329 86.2638 45.5823L86.2636 45.582C84.9035 43.6854 82.6051 41.1371 81.1995 39.9818L81.1994 39.9817C81.0167 39.8318 80.8821 39.7271 80.8093 39.6853L80.8091 39.6852C80.7954 39.6773 80.7609 39.6574 80.7209 39.6523C80.7023 39.6499 80.6355 39.6449 80.5837 39.7018C80.5333 39.7573 80.5431 39.8217 80.5464 39.8386C80.5539 39.8773 80.575 39.9102 80.5839 39.9241C80.597 39.9444 80.6138 39.9673 80.6329 39.9919C80.7817 40.1828 81.1985 40.6331 81.8922 41.3648M92.4142 60.315L82.0011 41.2616M92.4142 60.315C92.7796 62.238 92.8366 63.166 92.8175 67.3082M92.4142 60.315L92.8175 67.3082M81.8922 41.3648L82.0011 41.2616M81.8922 41.3648C81.8921 41.3648 81.8921 41.3647 81.892 41.3646L82.0011 41.2616M81.8922 41.3648C84.1763 43.7821 85.2189 45.1096 86.6626 47.4651M82.0011 41.2616C84.2908 43.685 85.3403 45.0206 86.7905 47.3867M86.6626 47.4651C86.6625 47.465 86.6625 47.4649 86.6624 47.4648L86.7905 47.3867M86.6626 47.4651C91.9057 56.0709 93.2958 66.4666 90.6519 77.3852L86.7905 47.3867M86.6626 47.4651C86.6626 47.4651 86.6626 47.4651 86.6626 47.4651L86.7905 47.3867M85.6132 89.0773C84.9063 90.2237 84.3178 91.2378 83.9223 91.981C83.7248 92.352 83.5738 92.6585 83.4802 92.8812C83.4338 92.9917 83.3991 93.0872 83.3807 93.1622C83.3717 93.199 83.3646 93.2386 83.3649 93.2763C83.3651 93.3053 83.3696 93.3738 83.4248 93.4249C83.4849 93.4828 83.5611 93.4965 83.628 93.488C83.6908 93.48 83.7516 93.4525 83.8059 93.4205C83.9157 93.3557 84.0431 93.2452 84.1815 93.1049C84.4608 92.8216 84.8147 92.3853 85.2062 91.8489C85.9905 90.7745 86.9385 89.2805 87.7619 87.7582C89.9641 83.7175 91.5339 79.2373 92.3953 74.3947C92.7605 72.4344 92.8175 71.3539 92.8175 67.3082M85.6132 89.0773L92.8175 67.3077C92.8175 67.3079 92.8175 67.308 92.8175 67.3082M85.6132 89.0773C87.8388 85.4441 89.7973 80.8791 90.6518 77.3855L85.6132 89.0773ZM80.6526 39.9416C80.6526 39.9416 80.6535 39.9421 80.6551 39.9427C80.6533 39.9418 80.6525 39.9415 80.6526 39.9416ZM80.8318 39.7544C80.8318 39.7544 80.8321 39.755 80.8329 39.7565C80.8323 39.7551 80.8319 39.7544 80.8318 39.7544Z" fill="white" stroke="white" stroke-width="0.3"/>
<path d="M82.889 75.2253C81.8154 79.4623 80.3757 82.4744 77.5811 86.475L77.5806 86.4756C73.5334 92.2108 66.7641 96.6425 60.2729 97.7948C58.2149 98.1602 54.3249 98.1985 52.3053 97.8908L52.3048 97.8907C50.4569 97.602 48.211 96.8912 46.2163 95.9706L46.2159 95.9704C41.5827 93.8172 37.4189 89.6119 34.8297 84.4336C30.7049 76.184 30.765 66.442 35.0192 57.4738C38.9501 49.1709 47.022 42.7835 55.5828 41.2095L55.5841 41.2093C56.5797 41.0353 58.1498 40.9495 59.71 40.9495C61.2702 40.9495 62.8357 41.0353 63.8219 41.2094L63.8231 41.2096C71.1019 42.5539 77.3421 47.259 80.7783 53.9971C84.0589 60.4241 84.7864 67.789 82.889 75.2253ZM82.889 75.2253C82.889 75.2254 82.889 75.2254 82.889 75.2254L82.7436 75.1883L82.889 75.2252C82.889 75.2252 82.889 75.2253 82.889 75.2253ZM63.1817 41.887L63.1818 41.887C65.3056 42.2094 67.0479 42.7207 68.9815 43.5928C70.1917 44.1411 71.7194 45.0612 72.9117 45.8972C73.508 46.3153 74.0159 46.7094 74.3566 47.0226C74.5279 47.18 74.651 47.3118 74.7223 47.4122C74.7583 47.4629 74.7754 47.4978 74.7817 47.5183C74.7594 47.5623 74.7473 47.6145 74.757 47.6704C74.768 47.734 74.804 47.7825 74.8448 47.8157C74.9212 47.8778 75.0284 47.8993 75.1302 47.8993C75.1859 47.8993 75.2947 47.9383 75.4632 48.0535C75.6243 48.1638 75.8173 48.3277 76.0351 48.5384C76.47 48.9592 76.9907 49.554 77.5334 50.2439C78.619 51.6241 79.7815 53.3708 80.5103 54.838L80.5105 54.8384C83.4117 60.6407 84.0408 68.2354 82.2168 75.3034C80.3365 82.5585 75.7971 89.0717 69.8185 93.0764L63.1817 41.887ZM63.1817 41.887C50.9972 40.0299 38.3892 48.6736 34.1526 61.82C33.203 64.7828 32.8235 67.0209 32.6904 70.2712C32.5195 74.944 33.2028 78.719 34.9491 82.8L34.9492 82.8001C36.0694 85.4204 37.0924 87.1061 38.8381 89.2125C41.7023 92.6267 44.5808 94.6532 48.8498 96.2279L48.85 96.228C51.1971 97.0987 53.1445 97.4208 55.9916 97.4208L55.9921 97.4208M63.1817 41.887L55.9921 97.4208M55.9921 97.4208C61.2262 97.4397 65.1281 96.2097 69.8184 93.0765L55.9921 97.4208Z" fill="white" stroke="white" stroke-width="0.3"/>
<path d="M44.1001 67.2695C44.1001 67.2694 44.1001 67.2693 44.1001 67.2691V67.2696C44.1001 67.2696 44.1001 67.2696 44.1001 67.2695ZM56.8095 49.7391L56.8099 49.7389C58.8844 48.4903 62.0677 47.2245 64.4323 46.7438C65.3757 46.5493 67.127 46.4832 68.8663 46.5189C70.6062 46.5547 72.3609 46.6931 73.3124 46.9164L73.3132 46.9166C73.8102 47.0361 74.1629 47.1314 74.3782 47.2005C74.4829 47.2341 74.5655 47.2647 74.6162 47.2922C74.6294 47.2994 74.6456 47.309 74.6609 47.3215C74.6713 47.3299 74.7046 47.3577 74.719 47.4062C74.7277 47.4353 74.729 47.4709 74.7153 47.5069C74.7023 47.541 74.6804 47.5633 74.6632 47.5765C74.6327 47.5998 74.6005 47.6073 74.5872 47.61C74.5554 47.6166 74.5189 47.6174 74.4866 47.6167C74.4514 47.616 74.4093 47.6132 74.3614 47.6087C74.2654 47.5998 74.1392 47.5833 73.9851 47.5595C73.6765 47.5119 73.2494 47.4339 72.7137 47.3239L72.7135 47.3239C70.3284 46.8317 66.8002 46.813 64.4745 47.3046L64.4735 47.3048C63.5484 47.4936 61.8587 48.006 60.7588 48.4422L60.7583 48.4424C53.5518 51.2681 47.7036 57.5298 44.8163 65.5459L44.8162 65.5461C44.6155 66.1004 44.4335 66.5795 44.3013 66.904C44.2355 67.0654 44.1807 67.1921 44.1413 67.2712C44.1241 67.3057 44.1024 67.347 44.0788 67.3746C44.0726 67.3818 44.0586 67.3975 44.0372 67.4107C44.0184 67.4223 43.9583 67.4527 43.8885 67.4189C43.8264 67.3888 43.8098 67.332 43.806 67.3178C43.8017 67.3015 43.8005 67.2867 43.8002 67.2766C43.7945 67.1927 43.8156 67.073 43.8465 66.9427C43.8797 66.8027 43.9297 66.6292 43.9926 66.4314C44.1184 66.0354 44.2985 65.5345 44.5066 64.995C44.9226 63.9167 45.4541 62.6764 45.8959 61.8022C48.3692 56.8558 52.3759 52.4261 56.8095 49.7391Z" fill="white" stroke="white" stroke-width="0.3"/>
<path d="M11.0905 51.2455L11.0907 51.2455C11.536 51.1803 12.0094 51.1085 12.3828 51.0518C12.6622 51.0094 12.8856 50.9755 12.9993 50.9592C13.2775 50.9195 14.2232 50.8813 15.078 50.8623L15.079 50.8623C15.6791 50.8528 16.0861 50.8619 16.3377 50.8971C16.4596 50.9142 16.567 50.9399 16.6423 50.9872C16.6826 51.0126 16.7242 51.0505 16.747 51.1066C16.7706 51.1648 16.7659 51.2223 16.7502 51.2696L16.7503 51.2697L16.7483 51.2749C16.7009 51.4012 16.5962 51.4914 16.452 51.5616C16.3089 51.6313 16.1088 51.6903 15.8391 51.746C15.2983 51.8575 14.4368 51.9631 13.0926 52.0965L13.0919 52.0966C10.986 52.2958 8.86111 52.7798 7.14877 53.3932C6.29255 53.6999 5.54266 54.0379 4.95112 54.3868C4.35619 54.7378 3.93527 55.0918 3.72044 55.4251L3.71964 55.4263C3.60023 55.6076 3.44401 55.9441 3.27068 56.3857C3.09871 56.8239 2.91378 57.3555 2.73563 57.9196C2.37892 59.0492 2.05218 60.3006 1.9107 61.1871C1.79812 61.9001 1.80687 62.3727 2.02194 62.8716C2.24168 63.3813 2.68197 63.9317 3.47509 64.7821C4.8553 66.2568 6.92221 67.8318 9.24078 69.1621C9.71045 69.4305 10.1657 69.7085 10.5208 69.9364C10.6983 70.0504 10.8515 70.1523 10.9693 70.2345C11.0828 70.3138 11.1741 70.3821 11.2185 70.4265L11.226 70.434L11.2324 70.4425C11.3121 70.5488 11.3645 70.7217 11.3918 70.8956C11.4199 71.0744 11.4256 71.2803 11.3945 71.4697L11.3186 72.0962L11.0197 72.0823L11.0007 71.3977C10.981 71.064 10.9545 70.9574 10.8671 70.8761C10.8181 70.8305 10.7407 70.7851 10.606 70.7306C10.4721 70.6765 10.2953 70.6186 10.0556 70.5419C8.15322 69.94 5.5573 68.1661 3.24113 65.8882L3.24105 65.8881C2.6093 65.266 2.06248 64.6857 1.66314 64.2214C1.46363 63.9894 1.2995 63.7848 1.17964 63.6173C1.11974 63.5336 1.06969 63.4575 1.03151 63.3907C0.994793 63.3265 0.964161 63.2626 0.949472 63.2046C0.933284 63.1429 0.933724 63.0575 0.938756 62.9714C0.944199 62.8782 0.956792 62.7619 0.975153 62.6274C1.01192 62.358 1.07304 62.0065 1.15137 61.602C1.30813 60.7924 1.53523 59.7634 1.77881 58.7389C2.0224 57.7144 2.2829 56.6927 2.50664 55.8976C2.61844 55.5003 2.72152 55.158 2.80905 54.8998C2.85276 54.7708 2.89324 54.6608 2.92956 54.5747C2.96316 54.495 2.99958 54.4196 3.03891 54.3716C3.1359 54.2518 3.30183 54.1234 3.5072 53.9917C3.71596 53.8579 3.97781 53.7129 4.27775 53.5622C4.87788 53.2606 5.6387 52.9319 6.45021 52.6183C8.07037 51.9922 9.90982 51.4197 11.0905 51.2455Z" fill="white" stroke="white" stroke-width="0.3"/>
<path d="M65.5527 106.001C66.3302 105.903 67.7123 105.417 69.2142 104.761C70.7219 104.103 72.3695 103.265 73.684 102.45C75.4848 101.339 78.4525 99.0608 79.6271 97.8669L79.6279 97.8662C79.9336 97.5509 80.1541 97.3148 80.2901 97.1587C80.357 97.082 80.4077 97.0197 80.4377 96.9753C80.4455 96.9638 80.4533 96.9514 80.4601 96.9388C80.4657 96.9282 80.4756 96.9086 80.4809 96.8844C80.484 96.87 80.4999 96.7892 80.4303 96.7299C80.3695 96.6781 80.3003 96.6949 80.2892 96.6975L80.2888 96.6976C80.2528 96.7063 80.2196 96.727 80.2017 96.7385C80.1779 96.7537 80.1503 96.7735 80.1195 96.7968C80.0577 96.8437 79.9763 96.9103 79.8764 96.9956C79.676 97.1664 79.3954 97.417 79.0372 97.7466M65.5527 106.001L79.0372 97.7466M65.5527 106.001C65.5526 106.001 65.5525 106.001 65.5524 106.001L65.5383 105.89L65.5527 106.001ZM79.0372 97.7466C79.0371 97.7467 79.0371 97.7467 79.037 97.7468L79.1386 97.8572L79.0374 97.7464C79.0373 97.7465 79.0373 97.7465 79.0372 97.7466Z" fill="white" stroke="white" stroke-width="0.3"/>
<path d="M99.5008 116.099L99.5008 116.098C99.5032 115.759 99.5157 115.529 99.5402 115.406C99.5463 115.375 99.5552 115.341 99.5698 115.311C99.5772 115.296 99.5898 115.273 99.6112 115.253C99.6342 115.231 99.6724 115.207 99.7239 115.206C99.7734 115.206 99.81 115.228 99.8308 115.244C99.8513 115.261 99.8652 115.279 99.8739 115.293C99.8915 115.319 99.9048 115.351 99.9153 115.379C99.9569 115.492 100.002 115.698 100.048 115.969C100.096 116.245 100.148 116.599 100.203 117.017C100.42 118.688 100.678 121.392 100.85 124.161C100.965 126.005 100.736 128.523 100.329 129.88C100.216 130.275 99.9451 130.72 99.5726 131.179C99.1979 131.641 98.7123 132.126 98.1575 132.601C97.0484 133.552 95.6531 134.471 94.2937 135.088L94.2931 135.088C92.607 135.844 91.3624 136.056 88.8108 136.017C88.8107 136.017 88.8105 136.017 88.8103 136.017L86.5788 135.998L86.5723 135.698L89.1481 135.565C90.5901 135.488 91.44 135.417 92.1924 135.233C92.9422 135.049 93.6016 134.751 94.6593 134.207L94.6597 134.207C95.5782 133.739 96.7023 132.894 97.6581 132.019C98.1352 131.582 98.5676 131.14 98.9094 130.737C99.2533 130.331 99.4972 129.973 99.6073 129.705C99.8442 129.122 99.9827 128.12 100.016 126.674C100.049 125.233 99.9781 123.368 99.8065 121.071C99.635 118.841 99.5008 116.602 99.5008 116.099Z" fill="white" stroke="white" stroke-width="0.3"/>
</svg>
