<svg width="16" height="16" viewBox="0 0 16 16" fill="none" xmlns="http://www.w3.org/2000/svg">
<g id="Frame" clip-path="url(#clip0_2014_179)">
<g id="Group">
<path id="Vector" d="M1.3613 15.1494C1.49239 15.1493 1.62335 15.0994 1.72276 15L14.1286 2.59488V12.6389V12.639C14.1287 12.7745 14.1825 12.9045 14.2783 13.0003C14.3742 13.0961 14.5041 13.15 14.6396 13.15L14.6399 13.15C14.7753 13.1498 14.9051 13.0959 15.0009 13.0001C15.0966 12.9044 15.1505 12.7746 15.1507 12.6392V12.6389V2C15.1507 1.36487 14.6359 0.85 14.0007 0.85H3.36033C3.07919 0.85 2.84928 1.07879 2.84928 1.36105C2.84928 1.64332 3.07919 1.87211 3.36033 1.87211H13.4051L0.999367 14.2772L0.999303 14.2773C0.903544 14.3732 0.849756 14.5031 0.849756 14.6386C0.849756 14.7741 0.903544 14.9041 0.999303 15L0.999322 15C1.04686 15.0476 1.10334 15.0853 1.16552 15.1109C1.22761 15.1365 1.29415 15.1496 1.3613 15.1494ZM1.3613 15.1494C1.36122 15.1494 1.36114 15.1494 1.36106 15.1494V14.9994L1.36158 15.1494C1.36149 15.1494 1.3614 15.1494 1.3613 15.1494ZM14.1286 2.38275L14.2786 2.23276V2.44489L14.1286 2.38275Z" fill="black" stroke="black" stroke-width="0.3"/>
</g>
</g>
<defs>
<clipPath id="clip0_2014_179">
<rect width="16" height="16" fill="white"/>
</clipPath>
</defs>
</svg>
