<svg width="16" height="16" viewBox="0 0 16 16" fill="none" xmlns="http://www.w3.org/2000/svg">
<g clip-path="url(#clip0_82_1468)">
<path d="M2.71506 4.85284L5.38137 7.51915C5.98659 7.035 6.72166 6.72034 7.53125 6.62925V2.85562C5.6875 2.96365 4.01344 3.69784 2.71506 4.85284ZM2.05222 5.51568C0.7995 6.92387 0 8.772 0 10.8006C0 11.0597 0.209656 11.2694 0.46875 11.2694H3.3125C3.57159 11.2694 3.78125 11.0597 3.78125 10.8006C3.78125 9.80646 4.14116 8.90378 4.71853 8.182L2.05222 5.51568ZM11.6218 7.13534C11.4639 6.99756 11.235 6.97971 11.0606 7.09278L6.99247 9.68781C6.44909 10.0348 6.125 10.6257 6.125 11.2694C6.125 12.3035 6.96591 13.1444 8 13.1444C8.72694 13.1444 9.39434 12.7187 9.70012 12.0599L11.7376 7.68556C11.7804 7.59366 11.7923 7.49036 11.7714 7.39116C11.7505 7.29196 11.698 7.2022 11.6218 7.13534ZM13.9478 5.51568L12.57 6.89343C12.7435 7.26378 12.7663 7.69731 12.5872 8.0815L11.9709 9.40478C12.1296 9.84068 12.2188 10.3092 12.2188 10.8006C12.2188 11.0597 12.4284 11.2694 12.6875 11.2694H15.5312C15.7903 11.2694 16 11.0597 16 10.8006C16 8.772 15.2005 6.92387 13.9478 5.51568ZM8.46875 2.85562V6.62925C8.86341 6.67365 9.23944 6.773 9.59228 6.91734L10.5566 6.30215C10.943 6.05178 11.4151 5.99806 11.9068 6.231L13.2849 4.85284C11.9866 3.69784 10.3125 2.96365 8.46875 2.85562Z" fill="black"/>
</g>
<defs>
<clipPath id="clip0_82_1468">
<rect width="16" height="16" fill="white"/>
</clipPath>
</defs>
</svg>
