<svg width="44" height="39" viewBox="0 0 44 39" fill="none" xmlns="http://www.w3.org/2000/svg">
<g id="Group">
<path id="Vector" fill-rule="evenodd" clip-rule="evenodd" d="M19.7923 35.0799C16.3537 35.0797 12.9149 35.0792 9.47626 35.0792C9.43083 35.079 9.38581 35.0878 9.34381 35.1051C9.30181 35.1224 9.26366 35.1478 9.23158 35.18C9.1995 35.2121 9.17413 35.2503 9.15694 35.2924C9.13975 35.3344 9.13108 35.3795 9.13144 35.4249C9.13144 36.2705 9.13304 37.1161 9.13388 37.9617C9.13407 38.1495 9.29213 38.3066 9.47963 38.3066L19.7957 38.3072C19.9913 38.3071 20.138 38.155 20.138 37.9605L20.1381 35.4247C20.1379 35.2369 19.9799 35.0799 19.7923 35.0799ZM25.6791 33.7725L32.6301 33.772L32.9445 32.4501C33.1527 31.5749 33.6345 30.8742 34.3757 30.3647L38.5584 27.4919C39.6077 26.7708 40.1549 25.0912 40.5891 23.7587C41.6333 20.5523 42.6986 17.351 43.7539 14.1481C43.9807 13.4596 43.7684 12.6551 43.3218 12.1247C43.1588 11.931 42.9645 11.7793 42.7516 11.6926C42.5558 11.6115 42.3393 11.5946 42.1332 11.6443C41.503 11.7937 40.7833 12.499 40.1055 14.0988L37.6746 19.837C37.882 19.9976 38.065 20.1874 38.2178 20.4005C39.0941 21.6206 38.8152 23.3294 37.5949 24.2059L32.6596 27.751C32.59 27.802 32.5109 27.8388 32.427 27.8591C32.3431 27.8794 32.256 27.8829 32.1707 27.8694C32.0855 27.8559 32.0037 27.8256 31.9302 27.7803C31.8567 27.7351 31.7929 27.6757 31.7424 27.6056C31.692 27.5355 31.656 27.4562 31.6364 27.3721C31.6168 27.288 31.614 27.2009 31.6282 27.1157C31.6425 27.0306 31.6735 26.9491 31.7194 26.876C31.7653 26.8029 31.8252 26.7396 31.8957 26.6897L36.831 23.1447C37.4625 22.6911 37.6103 21.7963 37.1566 21.1645C36.703 20.5331 35.8081 20.3852 35.1764 20.839L31.4628 23.5065C31.3993 23.5521 31.3281 23.5859 31.2526 23.6064C29.6299 24.0518 28.7163 24.6105 28.1519 25.3372C27.5826 26.0703 27.3217 27.0411 27.0346 28.2601C26.6079 30.0714 26.1542 31.8795 25.7004 33.6873L25.6791 33.7725ZM22.9365 4.85078C24.3615 2.07887 25.7865 0.692871 28.6365 0.692871C31.7829 0.692871 34.3365 3.1765 34.3365 6.23668C34.3365 11.7806 28.6365 15.4494 22.9364 20.9932C17.2365 15.4494 11.5365 11.7806 11.5365 6.23668C11.5365 3.1765 14.0901 0.692871 17.2365 0.692871C20.0865 0.692871 21.5115 2.07878 22.9365 4.85078ZM23.8599 35.4248L23.86 37.9616C23.86 38.1554 24.0076 38.3072 24.2023 38.3073C27.641 38.3073 31.0796 38.307 34.5184 38.3067C34.6105 38.3067 34.6979 38.2682 34.7628 38.2034C34.7947 38.1717 34.8201 38.1341 34.8375 38.0927C34.8549 38.0512 34.8639 38.0067 34.8641 37.9618C34.865 37.1161 34.8666 36.2705 34.8666 35.425C34.8669 35.3796 34.8583 35.3345 34.8411 35.2925C34.8239 35.2504 34.7985 35.2122 34.7664 35.1801C34.7344 35.1479 34.6962 35.1224 34.6542 35.1052C34.6122 35.0879 34.5672 35.0791 34.5218 35.0793L24.2057 35.08C24.0181 35.0799 23.8601 35.2369 23.8599 35.4248ZM11.3679 33.772L18.3189 33.7725L18.2978 33.6879C17.844 31.8799 17.3902 30.0717 16.9635 28.2602C16.6764 27.0412 16.4155 26.0704 15.8462 25.3373C15.2817 24.6105 14.3682 24.0519 12.7455 23.6065C12.67 23.586 12.5988 23.5521 12.5353 23.5065L8.8216 20.839C8.18991 20.3852 7.29507 20.533 6.84141 21.1645C6.38766 21.7963 6.53541 22.691 7.16691 23.1446L12.1023 26.6897C12.1728 26.7396 12.2327 26.8029 12.2786 26.876C12.3245 26.9491 12.3555 27.0306 12.3698 27.1157C12.384 27.2009 12.3813 27.288 12.3617 27.3721C12.3421 27.4562 12.306 27.5355 12.2556 27.6056C12.2051 27.6757 12.1413 27.7351 12.0678 27.7803C11.9943 27.8256 11.9125 27.8559 11.8273 27.8694C11.742 27.8829 11.6549 27.8794 11.571 27.8591C11.4871 27.8388 11.408 27.802 11.3384 27.751L6.40304 24.2058C5.1691 23.3193 4.91522 21.6395 5.78016 20.4005C5.93303 20.1874 6.11603 19.9976 6.32344 19.8371L3.89251 14.0989C3.21479 12.4991 2.49497 11.7939 1.86479 11.6444C1.65874 11.5947 1.44225 11.6116 1.24641 11.6927C1.03351 11.7794 0.839256 11.9311 0.676225 12.1247C0.2296 12.6552 0.0172562 13.4597 0.244131 14.1482C1.29938 17.3511 2.36476 20.5524 3.40894 23.7588C3.84301 25.0913 4.39032 26.7708 5.43947 27.492L9.6196 30.3648C10.3637 30.8761 10.8443 31.5712 11.0534 32.4502L11.3679 33.772Z" fill="white"/>
</g>
</svg>
