<svg width="31" height="26" viewBox="0 0 31 26" fill="none" xmlns="http://www.w3.org/2000/svg">
<g id="Group">
<path id="Vector" fill-rule="evenodd" clip-rule="evenodd" d="M14.0308 23.3866C11.7384 23.3865 9.44588 23.3862 7.15344 23.3862C7.12316 23.386 7.09315 23.3918 7.06515 23.4034C7.03714 23.4149 7.01171 23.4319 6.99032 23.4533C6.96894 23.4748 6.95202 23.5002 6.94056 23.5283C6.9291 23.5563 6.92333 23.5863 6.92357 23.6166C6.92357 24.1803 6.92463 24.744 6.92519 25.3078C6.92532 25.433 7.03069 25.5377 7.15569 25.5377L14.0331 25.5382C14.1635 25.538 14.2613 25.4367 14.2613 25.307L14.2613 23.6165C14.2612 23.4913 14.1559 23.3866 14.0308 23.3866ZM17.9553 22.515L22.5893 22.5147L22.7989 21.6334C22.9378 21.0499 23.2589 20.5828 23.7531 20.2432L26.5416 18.3279C27.2411 17.8472 27.6059 16.7275 27.8953 15.8392C28.5914 13.7015 29.3017 11.5674 30.0052 9.43204C30.1564 8.97304 30.0149 8.43673 29.7171 8.0831C29.6084 7.95398 29.4789 7.85285 29.337 7.79504C29.2064 7.74099 29.0621 7.72973 28.9248 7.76285C28.5046 7.86248 28.0248 8.33266 27.5729 9.39923L25.9523 13.2247C26.0906 13.3317 26.2126 13.4583 26.3145 13.6004C26.8987 14.4137 26.7128 15.5529 25.8992 16.1373L22.609 18.5007C22.5626 18.5347 22.5099 18.5592 22.4539 18.5727C22.398 18.5863 22.3399 18.5886 22.2831 18.5796C22.2262 18.5706 22.1717 18.5504 22.1227 18.5202C22.0737 18.49 22.0312 18.4505 21.9976 18.4037C21.9639 18.357 21.9399 18.3041 21.9268 18.2481C21.9138 18.192 21.9119 18.1339 21.9214 18.0772C21.9309 18.0204 21.9516 17.9661 21.9822 17.9173C22.0128 17.8686 22.0528 17.8264 22.0998 17.7932L25.3899 15.4298C25.8109 15.1274 25.9095 14.5309 25.607 14.1097C25.3046 13.6887 24.708 13.5902 24.2869 13.8927L21.8111 15.671C21.7688 15.7014 21.7213 15.724 21.671 15.7376C20.5892 16.0345 19.9801 16.407 19.6039 16.8915C19.2243 17.3802 19.0504 18.0274 18.859 18.84C18.5746 20.0476 18.2721 21.253 17.9696 22.4582L17.9553 22.515ZM16.1269 3.23385C17.0769 1.38591 18.0269 0.461914 19.9269 0.461914C22.0246 0.461914 23.7269 2.11766 23.7269 4.15779C23.7269 7.85373 19.9269 10.2996 16.1269 13.9955C12.3269 10.2996 8.52694 7.85373 8.52694 4.15779C8.52694 2.11766 10.2293 0.461914 12.3269 0.461914C14.2269 0.461914 15.1769 1.38585 16.1269 3.23385ZM16.7426 23.6165L16.7426 25.3077C16.7426 25.4369 16.841 25.5381 16.9708 25.5382C19.2633 25.5382 21.5557 25.538 23.8482 25.5378C23.9096 25.5378 23.9679 25.5122 24.0111 25.4689C24.0324 25.4478 24.0494 25.4227 24.0609 25.3951C24.0725 25.3675 24.0786 25.3378 24.0787 25.3078C24.0793 24.7441 24.0803 24.1804 24.0803 23.6167C24.0806 23.5864 24.0748 23.5564 24.0633 23.5283C24.0519 23.5003 24.0349 23.4748 24.0136 23.4534C23.9922 23.4319 23.9667 23.415 23.9387 23.4034C23.9107 23.3919 23.8807 23.3861 23.8504 23.3862L16.9731 23.3867C16.848 23.3866 16.7427 23.4913 16.7426 23.6165ZM8.41457 22.5147L13.0486 22.515L13.0344 22.4586C12.7319 21.2533 12.4294 20.0478 12.1449 18.8401C11.9536 18.0275 11.7796 17.3803 11.4001 16.8915C11.0238 16.407 10.4148 16.0346 9.33294 15.7377C9.28263 15.724 9.23517 15.7014 9.19282 15.671L6.717 13.8927C6.29588 13.5902 5.69932 13.6887 5.39688 14.1097C5.09438 14.5309 5.19288 15.1274 5.61388 15.4297L8.90413 17.7932C8.95113 17.8264 8.99109 17.8686 9.02169 17.9173C9.0523 17.9661 9.07294 18.0204 9.08244 18.0772C9.09194 18.1339 9.09011 18.192 9.07704 18.2481C9.06397 18.3041 9.03993 18.357 9.00631 18.4037C8.97269 18.4505 8.93015 18.49 8.88114 18.5202C8.83213 18.5504 8.77764 18.5706 8.72079 18.5796C8.66395 18.5886 8.60588 18.5863 8.54994 18.5727C8.494 18.5592 8.4413 18.5347 8.39488 18.5007L5.10463 16.1372C4.282 15.5462 4.11275 14.4264 4.68938 13.6004C4.79129 13.4583 4.91329 13.3317 5.05157 13.2247L3.43094 9.39929C2.97913 8.33273 2.49925 7.8626 2.07913 7.76291C1.94177 7.72979 1.79744 7.74106 1.66688 7.7951C1.52494 7.85291 1.39544 7.95404 1.28675 8.08316C0.989004 8.43679 0.847442 8.9731 0.998692 9.4321C1.70219 11.5674 2.41244 13.7016 3.10857 15.8392C3.39794 16.7275 3.76282 17.8472 4.46225 18.328L7.249 20.2432C7.74507 20.5841 8.06544 21.0475 8.20488 21.6335L8.41457 22.5147Z" fill="white"/>
</g>
</svg>
