<svg width="33" height="18" viewBox="0 0 33 18" fill="none" xmlns="http://www.w3.org/2000/svg">
<g id="Group">
<path id="Vector" d="M32.2454 0.982283C32.2234 0.784687 32.124 0.603864 31.9689 0.479411C31.8139 0.354959 31.6158 0.297021 31.4182 0.318283L27.3387 0.764783L22.8307 0.317533C22.6328 0.298133 22.4353 0.35801 22.2814 0.484032C22.1276 0.610054 22.0301 0.791934 22.0102 0.989783C21.9906 1.1877 22.0504 1.38529 22.1764 1.53911C22.3025 1.69293 22.4845 1.79038 22.6824 1.81003L26.2687 2.16603C26.1549 2.23131 26.0604 2.32538 25.9946 2.43878C25.9288 2.55218 25.894 2.68091 25.8937 2.81203V2.97353H25.7164C25.6159 2.97353 25.5164 2.99378 25.4239 3.03278L22.1609 4.41428V4.17903C22.1609 3.98012 22.0819 3.78936 21.9412 3.6487C21.8006 3.50805 21.6098 3.42903 21.4109 3.42903H11.5894C11.3905 3.42903 11.1997 3.50805 11.0591 3.6487C10.9184 3.78936 10.8394 3.98012 10.8394 4.17903V4.41428L7.57616 3.03278C7.48359 2.99372 7.38414 2.97358 7.28366 2.97353H7.10591V2.81203C7.10563 2.68091 7.07082 2.55218 7.00499 2.43878C6.93916 2.32538 6.84463 2.23131 6.73091 2.16603L10.3179 1.81003C10.5137 1.78774 10.6928 1.68929 10.8166 1.53598C10.9404 1.38266 10.9989 1.1868 10.9794 0.990717C10.9599 0.794639 10.864 0.614101 10.7125 0.488131C10.561 0.362161 10.366 0.30088 10.1697 0.317533L5.66141 0.764783L1.58166 0.318033C1.38399 0.29677 1.18594 0.354709 1.03089 0.479162C0.875837 0.603614 0.776423 0.784437 0.754414 0.982033C0.73288 1.17976 0.790718 1.37796 0.915221 1.53307C1.03972 1.68818 1.22071 1.78753 1.41841 1.80928L4.54066 2.15103C4.41959 2.21393 4.31806 2.30879 4.2471 2.42532C4.17615 2.54185 4.13847 2.6756 4.13816 2.81203V2.97353H3.94291C3.744 2.97353 3.55324 3.05255 3.41258 3.1932C3.27193 3.33386 3.19291 3.52462 3.19291 3.72353V5.38478C3.19287 5.55773 3.25263 5.72538 3.36208 5.85929C3.47152 5.99321 3.62392 6.08515 3.79341 6.11953L6.70916 6.71253L10.8397 8.42653V9.49478C10.8397 9.60628 10.8657 9.71103 10.9092 9.80628L9.10291 12.3515C9.01297 12.4784 8.96466 12.63 8.96466 12.7855V16.936C8.96466 17.1349 9.04368 17.3257 9.18433 17.4664C9.32499 17.607 9.51575 17.686 9.71466 17.686H11.5219C11.7206 17.686 11.9112 17.6072 12.0518 17.4668C12.1924 17.3264 12.2716 17.136 12.2719 16.9373L12.2777 13.4663L14.6967 10.2448H15.1429V10.7198H14.9057C14.7068 10.7198 14.516 10.7988 14.3753 10.9395C14.2347 11.0801 14.1557 11.2709 14.1557 11.4698V15.165C14.1557 15.3639 14.2347 15.5547 14.3753 15.6954C14.516 15.836 14.7068 15.915 14.9057 15.915H18.0949C18.2938 15.915 18.4846 15.836 18.6252 15.6954C18.7659 15.5547 18.8449 15.3639 18.8449 15.165V11.4703C18.8449 11.2714 18.7659 11.0806 18.6252 10.94C18.4846 10.7993 18.2938 10.7203 18.0949 10.7203H17.8579V10.2453H18.3032L20.7222 13.4668L20.7279 16.9378C20.7282 17.1365 20.8074 17.3269 20.948 17.4673C21.0886 17.6077 21.2792 17.6865 21.4779 17.6865H23.2847C23.4836 17.6865 23.6743 17.6075 23.815 17.4669C23.9556 17.3262 24.0347 17.1354 24.0347 16.9365V12.786C24.0347 12.6305 23.9864 12.4788 23.8964 12.352L22.0909 9.80728C22.1347 9.71203 22.1607 9.60704 22.1607 9.49529V8.42703L26.2912 6.71303L29.2069 6.12003C29.3764 6.08561 29.5288 5.99365 29.6382 5.85975C29.7476 5.72584 29.8074 5.55822 29.8074 5.38528V3.72403C29.8074 3.52512 29.7284 3.33436 29.5877 3.1937C29.4471 3.05305 29.2563 2.97403 29.0574 2.97403H28.8614V2.81253C28.8611 2.6761 28.8234 2.54237 28.7524 2.42585C28.6815 2.30932 28.58 2.21445 28.4589 2.15153L31.5812 1.80978C31.779 1.78809 31.9601 1.68874 32.0846 1.53356C32.2092 1.37838 32.267 1.18009 32.2454 0.982283Z" fill="white"/>
</g>
</svg>
