<svg width="48" height="27" viewBox="0 0 48 27" fill="none" xmlns="http://www.w3.org/2000/svg">
<g id="Group">
<path id="Vector" d="M47.6181 1.47343C47.5851 1.17703 47.436 0.905795 47.2034 0.719117C46.9708 0.532439 46.6738 0.445531 46.3772 0.477425L40.258 1.14717L33.496 0.4763C33.1991 0.447199 32.9029 0.537014 32.6722 0.726048C32.4414 0.915081 32.2951 1.1879 32.2652 1.48467C32.2358 1.78154 32.3256 2.07794 32.5147 2.30867C32.7038 2.5394 32.9768 2.68558 33.2736 2.71505L38.653 3.24905C38.4824 3.34696 38.3406 3.48806 38.2419 3.65817C38.1431 3.82827 38.0909 4.02137 38.0905 4.21805V4.4603H37.8246C37.6739 4.4603 37.5246 4.49067 37.3859 4.54917L32.4914 6.62143V6.26855C32.4914 5.97018 32.3728 5.68403 32.1619 5.47306C31.9509 5.26208 31.6647 5.14355 31.3664 5.14355H16.6341C16.3358 5.14355 16.0496 5.26208 15.8386 5.47306C15.6276 5.68403 15.5091 5.97018 15.5091 6.26855V6.62143L10.6142 4.54917C10.4754 4.49058 10.3262 4.46037 10.1755 4.4603H9.90887V4.21805C9.90844 4.02137 9.85623 3.82827 9.75748 3.65817C9.65874 3.48806 9.51695 3.34696 9.34637 3.24905L14.7269 2.71505C15.0205 2.68161 15.2892 2.53394 15.4749 2.30397C15.6606 2.07399 15.7483 1.78019 15.7191 1.48608C15.6899 1.19196 15.5461 0.921151 15.3188 0.732196C15.0915 0.543242 14.799 0.45132 14.5045 0.4763L7.74212 1.14717L1.6225 0.47705C1.32598 0.445156 1.02891 0.532064 0.796331 0.718742C0.563756 0.905421 0.414634 1.17665 0.381621 1.47305C0.34932 1.76964 0.436077 2.06693 0.622831 2.2996C0.809585 2.53227 1.08106 2.68129 1.37762 2.71392L6.061 3.22655C5.87939 3.32089 5.72709 3.46319 5.62066 3.63798C5.51422 3.81278 5.4577 4.0134 5.45725 4.21805V4.4603H5.16437C4.866 4.4603 4.57985 4.57883 4.36888 4.7898C4.1579 5.00078 4.03937 5.28693 4.03937 5.5853V8.07718C4.0393 8.3366 4.12895 8.58807 4.29312 8.78894C4.45729 8.98981 4.68587 9.12773 4.94012 9.1793L9.31375 10.0688L15.5095 12.6398V14.2422C15.5095 14.4094 15.5485 14.5665 15.6137 14.7094L12.9044 18.5273C12.7695 18.7176 12.697 18.9451 12.697 19.1783V25.404C12.697 25.7024 12.8155 25.9886 13.0265 26.1995C13.2375 26.4105 13.5236 26.529 13.822 26.529H16.5329C16.8309 26.5291 17.1168 26.4108 17.3277 26.2002C17.5386 25.9896 17.6574 25.704 17.6579 25.4059L17.6665 20.1994L21.295 15.3672H21.9644V16.0797H21.6085C21.3101 16.0797 21.024 16.1982 20.813 16.4092C20.602 16.6202 20.4835 16.9063 20.4835 17.2047V22.7476C20.4835 23.0459 20.602 23.3321 20.813 23.543C21.024 23.754 21.3101 23.8726 21.6085 23.8726H26.3924C26.6907 23.8726 26.9769 23.754 27.1879 23.543C27.3988 23.3321 27.5174 23.0459 27.5174 22.7476V17.2054C27.5174 16.9071 27.3988 16.6209 27.1879 16.4099C26.9769 16.199 26.6907 16.0804 26.3924 16.0804H26.0369V15.3679H26.7047L30.3332 20.2002L30.3419 25.4067C30.3424 25.7047 30.4611 25.9904 30.672 26.201C30.883 26.4115 31.1688 26.5298 31.4669 26.5298H34.177C34.4754 26.5298 34.7615 26.4113 34.9725 26.2003C35.1835 25.9893 35.302 25.7032 35.302 25.4048V19.179C35.302 18.9458 35.2296 18.7182 35.0946 18.528L32.3864 14.7109C32.452 14.568 32.491 14.4106 32.491 14.2429V12.6406L38.6867 10.0696L43.0604 9.18005C43.3146 9.12841 43.5431 8.99048 43.7073 8.78962C43.8714 8.58876 43.9611 8.33733 43.9611 8.07793V5.58605C43.9611 5.28768 43.8426 5.00153 43.6316 4.79056C43.4206 4.57958 43.1345 4.46105 42.8361 4.46105H42.5421V4.2188C42.5416 4.01416 42.4851 3.81356 42.3787 3.63877C42.2722 3.46398 42.12 3.32168 41.9384 3.2273L46.6217 2.71467C46.9184 2.68214 47.1901 2.5331 47.3769 2.30034C47.5638 2.06758 47.6505 1.77014 47.6181 1.47343Z" fill="white"/>
</g>
</svg>
