<svg width="32" height="18" viewBox="0 0 32 18" fill="none" xmlns="http://www.w3.org/2000/svg">
<g id="Group">
<path id="Vector" d="M31.7454 0.982283C31.7234 0.784687 31.624 0.603864 31.4689 0.479411C31.3139 0.354959 31.1158 0.297021 30.9182 0.318283L26.8387 0.764783L22.3307 0.317533C22.1328 0.298133 21.9353 0.35801 21.7814 0.484032C21.6276 0.610054 21.5301 0.791934 21.5102 0.989783C21.4906 1.1877 21.5504 1.38529 21.6764 1.53911C21.8025 1.69293 21.9845 1.79038 22.1824 1.81003L25.7687 2.16603C25.6549 2.23131 25.5604 2.32538 25.4946 2.43878C25.4288 2.55218 25.394 2.68091 25.3937 2.81203V2.97353H25.2164C25.1159 2.97353 25.0164 2.99378 24.9239 3.03278L21.6609 4.41428V4.17903C21.6609 3.98012 21.5819 3.78936 21.4412 3.6487C21.3006 3.50805 21.1098 3.42903 20.9109 3.42903H11.0894C10.8905 3.42903 10.6997 3.50805 10.5591 3.6487C10.4184 3.78936 10.3394 3.98012 10.3394 4.17903V4.41428L7.07616 3.03278C6.98359 2.99372 6.88414 2.97358 6.78366 2.97353H6.60591V2.81203C6.60563 2.68091 6.57082 2.55218 6.50499 2.43878C6.43916 2.32538 6.34463 2.23131 6.23091 2.16603L9.81791 1.81003C10.0137 1.78774 10.1928 1.68929 10.3166 1.53598C10.4404 1.38266 10.4989 1.1868 10.4794 0.990717C10.4599 0.794639 10.364 0.614101 10.2125 0.488131C10.061 0.362161 9.866 0.30088 9.66966 0.317533L5.16141 0.764783L1.08166 0.318033C0.883986 0.29677 0.685937 0.354709 0.530887 0.479162C0.375837 0.603614 0.276423 0.784437 0.254414 0.982033C0.23288 1.17976 0.290718 1.37796 0.415221 1.53307C0.539723 1.68818 0.720708 1.78753 0.918414 1.80928L4.04066 2.15103C3.91959 2.21393 3.81806 2.30879 3.7471 2.42532C3.67615 2.54185 3.63847 2.6756 3.63816 2.81203V2.97353H3.44291C3.244 2.97353 3.05324 3.05255 2.91258 3.1932C2.77193 3.33386 2.69291 3.52462 2.69291 3.72353V5.38478C2.69287 5.55773 2.75263 5.72538 2.86208 5.85929C2.97152 5.99321 3.12392 6.08515 3.29341 6.11953L6.20916 6.71253L10.3397 8.42653V9.49478C10.3397 9.60628 10.3657 9.71103 10.4092 9.80628L8.60291 12.3515C8.51297 12.4784 8.46466 12.63 8.46466 12.7855V16.936C8.46466 17.1349 8.54368 17.3257 8.68433 17.4664C8.82499 17.607 9.01575 17.686 9.21466 17.686H11.0219C11.2206 17.686 11.4112 17.6072 11.5518 17.4668C11.6924 17.3264 11.7716 17.136 11.7719 16.9373L11.7777 13.4663L14.1967 10.2448H14.6429V10.7198H14.4057C14.2068 10.7198 14.016 10.7988 13.8753 10.9395C13.7347 11.0801 13.6557 11.2709 13.6557 11.4698V15.165C13.6557 15.3639 13.7347 15.5547 13.8753 15.6954C14.016 15.836 14.2068 15.915 14.4057 15.915H17.5949C17.7938 15.915 17.9846 15.836 18.1252 15.6954C18.2659 15.5547 18.3449 15.3639 18.3449 15.165V11.4703C18.3449 11.2714 18.2659 11.0806 18.1252 10.94C17.9846 10.7993 17.7938 10.7203 17.5949 10.7203H17.3579V10.2453H17.8032L20.2222 13.4668L20.2279 16.9378C20.2282 17.1365 20.3074 17.3269 20.448 17.4673C20.5886 17.6077 20.7792 17.6865 20.9779 17.6865H22.7847C22.9836 17.6865 23.1743 17.6075 23.315 17.4669C23.4556 17.3262 23.5347 17.1354 23.5347 16.9365V12.786C23.5347 12.6305 23.4864 12.4788 23.3964 12.352L21.5909 9.80728C21.6347 9.71203 21.6607 9.60704 21.6607 9.49529V8.42703L25.7912 6.71303L28.7069 6.12003C28.8764 6.08561 29.0288 5.99365 29.1382 5.85975C29.2476 5.72584 29.3074 5.55822 29.3074 5.38528V3.72403C29.3074 3.52512 29.2284 3.33436 29.0877 3.1937C28.9471 3.05305 28.7563 2.97403 28.5574 2.97403H28.3614V2.81253C28.3611 2.6761 28.3234 2.54237 28.2524 2.42585C28.1815 2.30932 28.08 2.21445 27.9589 2.15153L31.0812 1.80978C31.279 1.78809 31.4601 1.68874 31.5846 1.53356C31.7092 1.37838 31.767 1.18009 31.7454 0.982283Z" fill="#003399"/>
</g>
</svg>
