<svg width="31" height="19" viewBox="0 0 31 19" fill="none" xmlns="http://www.w3.org/2000/svg">
<g id="Group">
<path id="Vector" d="M22.6965 3.967L21.6755 1.8123C21.6371 1.71632 21.5708 1.63405 21.4852 1.5761C21.3996 1.51814 21.2986 1.48716 21.1952 1.48716H20.6783V0.970202C20.6782 0.833112 20.6237 0.701651 20.5268 0.604713C20.4299 0.507776 20.2984 0.453295 20.1613 0.453247H16.0257C15.8886 0.453295 15.7571 0.507776 15.6602 0.604713C15.5632 0.701651 15.5088 0.833112 15.5087 0.970202V1.48716H13.9579C13.9242 1.49025 13.8906 1.49388 13.857 1.49697L11.3219 2.00411H9.82221C9.68512 2.00416 9.55366 2.05864 9.45672 2.15558C9.35978 2.25252 9.3053 2.38398 9.30525 2.52107V3.03802H4.1357C4.13572 2.97013 4.12236 2.9029 4.09638 2.84017C4.07041 2.77745 4.03233 2.72045 3.98433 2.67245C3.93632 2.62444 3.87932 2.58636 3.8166 2.56039C3.75387 2.53441 3.68664 2.52105 3.61875 2.52107H0.516955C0.379865 2.52112 0.248403 2.5756 0.151466 2.67253C0.0545284 2.76947 4.81441e-05 2.90093 0 3.03802L0 4.07193C4.81441e-05 4.20902 0.0545284 4.34049 0.151466 4.43742C0.248403 4.53436 0.379865 4.58884 0.516955 4.58889H3.61869C3.68658 4.5889 3.75381 4.57554 3.81654 4.54957C3.87926 4.5236 3.93626 4.48552 3.98426 4.43751C4.03227 4.3895 4.07035 4.33251 4.09632 4.26978C4.1223 4.20706 4.13566 4.13983 4.13564 4.07193H9.30519V4.58889C9.30524 4.72598 9.35972 4.85744 9.45666 4.95438C9.5536 5.05132 9.68506 5.1058 9.82215 5.10584H22.2291C22.3662 5.1058 22.4977 5.05132 22.5946 4.95438C22.6916 4.85744 22.746 4.72598 22.7461 4.58889V4.18825C22.7461 4.11177 22.7291 4.03627 22.6965 3.967ZM29.4666 7.69068H28.4327V6.65677C28.4326 6.51968 28.3781 6.38822 28.2812 6.29128C28.1843 6.19434 28.0528 6.13986 27.9157 6.13981H6.72042C6.58333 6.13986 6.45187 6.19434 6.35493 6.29128C6.25799 6.38822 6.20351 6.51968 6.20346 6.65677V7.69068H2.58478C2.51688 7.69061 2.44964 7.70396 2.38693 7.72995C2.32421 7.75595 2.26724 7.79409 2.21931 7.84217L0.15149 9.90993C-0.0501334 10.1116 -0.0501334 10.4393 0.15149 10.6409L1.70236 12.1918C1.90398 12.3934 2.23172 12.3934 2.43335 12.1918L3.68129 10.9438C3.72927 10.8958 3.78624 10.8577 3.84895 10.8317C3.91166 10.8057 3.97887 10.7923 4.04676 10.7924H29.4666C29.6037 10.7923 29.7351 10.7378 29.8321 10.6409C29.929 10.5439 29.9835 10.4125 29.9835 10.2754V8.20758C29.9835 7.92228 29.7519 7.69068 29.4666 7.69068Z" fill="#003399"/>
<path id="Vector_2" d="M30.9237 13.5845C30.6673 12.533 29.8743 11.8263 28.9505 11.8263C28.9458 11.8263 28.9407 11.8257 28.936 11.8263H5.15599C4.23222 11.8263 3.43917 12.533 3.18275 13.5845C2.94546 14.5589 3.22979 15.8136 4.38262 16.4107L8.00131 18.4785C8.07931 18.5233 8.16775 18.5468 8.25772 18.5467H25.8487C25.9387 18.5468 26.0271 18.5233 26.1052 18.4785L29.7053 16.421C30.8772 15.8136 31.161 14.5589 30.9237 13.5845Z" fill="#003399"/>
</g>
</svg>
