<svg width="36" height="21" viewBox="0 0 36 21" fill="none" xmlns="http://www.w3.org/2000/svg">
<g id="Group">
<path id="Vector" d="M6.05685 7.8466C6.27989 7.16669 6.6878 6.5623 7.2349 6.10111C7.78201 5.63992 8.44669 5.34013 9.15453 5.23533L12.7898 4.71052L11.3946 4.50571L9.52574 0.716819C9.30814 0.281608 8.86012 0 8.37371 0C7.8873 0 7.43929 0.281608 7.22168 0.716819L5.35284 4.50571L1.17993 5.12013C0.943642 5.153 0.721298 5.25145 0.538129 5.40429C0.354961 5.55714 0.218302 5.75827 0.143661 5.98486C0.0690208 6.21145 0.0593866 6.45442 0.115852 6.68621C0.172318 6.91799 0.292622 7.12931 0.463114 7.29618L3.49679 10.2531L2.77997 14.4132C2.69037 14.8868 2.89517 15.3732 3.27918 15.6676C3.6952 15.9466 4.19697 15.9953 4.63602 15.7572L8.37371 13.7987L9.71775 14.5028L9.73055 14.426L7.02968 11.7891C6.51654 11.2877 6.15359 10.653 5.98172 9.95641C5.80984 9.25986 5.83587 8.52916 6.05685 7.8466ZM35.856 5.99055C35.7822 5.76283 35.6459 5.56045 35.4625 5.40653C35.2792 5.25262 35.0562 5.15337 34.8192 5.12013L30.6463 4.50571L28.7774 0.716819C28.3422 -0.153603 26.9086 -0.153603 26.4734 0.716819L24.6045 4.50571L23.2093 4.71052L26.8446 5.23533C28.291 5.45294 29.4942 6.46416 29.9423 7.8466C30.1632 8.52916 30.1893 9.25986 30.0174 9.95641C29.8455 10.653 29.4826 11.2877 28.9694 11.7891L26.2686 14.426L26.2814 14.5028L27.6254 13.7987L31.3631 15.7572C31.8021 15.9953 32.3039 15.9466 32.7199 15.6676C33.1039 15.3732 33.3087 14.8868 33.2191 14.4132L32.5023 10.2531L35.536 7.29618C35.8816 6.96337 36.0096 6.45136 35.856 5.99055Z" fill="white"/>
<path id="Vector_2" d="M23.5188 13.5271L27.1836 9.95577C27.3547 9.789 27.4758 9.57764 27.5331 9.34563C27.5903 9.11361 27.5815 8.8702 27.5076 8.64294C27.4336 8.41569 27.2976 8.21367 27.1147 8.05975C26.9319 7.90583 26.7097 7.80617 26.4732 7.77203L21.4106 7.03729L19.1463 2.44966C18.7174 1.57668 17.2812 1.57668 16.8524 2.44966L14.5881 7.03729L9.52553 7.77203C9.28928 7.80662 9.06738 7.90653 8.88488 8.0605C8.70238 8.21448 8.56653 8.41638 8.49267 8.64344C8.4188 8.8705 8.40985 9.11369 8.46682 9.34557C8.5238 9.57745 8.64443 9.78879 8.81512 9.95577L12.4786 13.5271L11.6145 18.5691C11.5744 18.8043 11.6008 19.0461 11.6907 19.2671C11.7807 19.4881 11.9307 19.6796 12.1237 19.8199C12.3167 19.9602 12.5451 20.0438 12.7831 20.0612C13.0211 20.0785 13.2592 20.029 13.4706 19.9183L17.9993 17.5361L22.5268 19.917C22.7383 20.0271 22.9763 20.0761 23.2141 20.0584C23.4518 20.0408 23.68 19.9572 23.8729 19.817C24.0658 19.6769 24.2158 19.4858 24.3062 19.2651C24.3965 19.0445 24.4235 18.803 24.3842 18.5678L23.5188 13.5271Z" fill="white"/>
</g>
</svg>
