<svg width="30" height="22" viewBox="0 0 30 22" fill="none" xmlns="http://www.w3.org/2000/svg">
<g id="Group">
<path id="Vector" d="M24 10C25.933 10 27.5 8.433 27.5 6.5C27.5 4.567 25.933 3 24 3C22.067 3 20.5 4.567 20.5 6.5C20.5 8.433 22.067 10 24 10Z" fill="white"/>
<path id="Vector_2" d="M28.59 9.53027C28.1326 10.2248 27.5248 10.8075 26.8116 11.235C26.0984 11.6626 25.2981 11.9242 24.47 12.0003C24.8181 12.9623 24.9974 13.9772 25 15.0003V18.0003H27C27.7956 18.0003 28.5587 17.6842 29.1213 17.1216C29.6839 16.559 30 15.7959 30 15.0003V13.0003C29.9973 11.7046 29.4918 10.4606 28.59 9.53027Z" fill="white"/>
<path id="Vector_3" d="M6 10C7.933 10 9.5 8.433 9.5 6.5C9.5 4.567 7.933 3 6 3C4.067 3 2.5 4.567 2.5 6.5C2.5 8.433 4.067 10 6 10Z" fill="white"/>
<path id="Vector_4" d="M1.41 9.52953C0.508156 10.4598 0.00264998 11.7039 0 12.9995V14.9995C0 15.7952 0.31607 16.5582 0.87868 17.1209C1.44129 17.6835 2.20435 17.9995 3 17.9995H5V14.9995C5.00253 13.9765 5.18184 12.9615 5.53 11.9995C4.70192 11.9234 3.90159 11.6619 3.18836 11.2343C2.47514 10.8067 1.86733 10.2241 1.41 9.52953ZM20.34 9.51953C19.6829 10.2948 18.8648 10.9178 17.9426 11.345C17.0205 11.7722 16.0163 11.9936 15 11.9936C13.9837 11.9936 12.9795 11.7722 12.0574 11.345C11.1352 10.9178 10.3171 10.2948 9.66 9.51953C8.83239 10.1735 8.16327 11.0061 7.70266 11.955C7.24204 12.904 7.00184 13.9447 7 14.9995V18.9995C7 19.7952 7.31607 20.5582 7.87868 21.1209C8.44129 21.6835 9.20435 21.9995 10 21.9995H20C20.7956 21.9995 21.5587 21.6835 22.1213 21.1209C22.6839 20.5582 23 19.7952 23 18.9995V14.9995C22.9982 13.9447 22.758 12.904 22.2973 11.955C21.8367 11.0061 21.1676 10.1735 20.34 9.51953Z" fill="white"/>
<path id="Vector_5" d="M15 10C17.7614 10 20 7.76142 20 5C20 2.23858 17.7614 0 15 0C12.2386 0 10 2.23858 10 5C10 7.76142 12.2386 10 15 10Z" fill="white"/>
</g>
</svg>
