<svg width="30" height="32" viewBox="0 0 30 32" fill="none" xmlns="http://www.w3.org/2000/svg">
<g id="Group">
<path id="Vector" d="M1.55102 28.8496H28.3776C28.473 28.8496 28.5674 28.8684 28.6555 28.9049C28.7436 28.9415 28.8237 28.995 28.8911 29.0624C28.9585 29.1299 29.012 29.21 29.0485 29.2981C29.0849 29.3862 29.1037 29.4807 29.1037 29.576V30.4743C29.1037 30.5697 29.0849 30.6641 29.0484 30.7522C29.0118 30.8403 28.9583 30.9204 28.8909 30.9878C28.8234 31.0552 28.7433 31.1087 28.6552 31.1452C28.5671 31.1817 28.4726 31.2004 28.3773 31.2004H1.55134C1.35882 31.2003 1.17422 31.1237 1.03813 30.9876C0.90203 30.8514 0.825576 30.6668 0.825576 30.4743V29.5757C0.825576 29.3832 0.90203 29.1986 1.03813 29.0624C1.17422 28.9263 1.3585 28.8497 1.55102 28.8496ZM28.7747 7.63556L15.3264 0.878121C15.2252 0.827267 15.1135 0.800781 15.0003 0.800781C14.8871 0.800781 14.7754 0.827267 14.6742 0.878121L1.22526 7.63556C1.10502 7.69599 1.00395 7.78865 0.93332 7.90319C0.862688 8.01772 0.825275 8.14964 0.825256 8.2842V9.46116C0.825256 9.65367 0.90171 9.83831 1.03781 9.97446C1.1739 10.1106 1.3585 10.1872 1.55102 10.1872H28.4489C28.6414 10.1872 28.826 10.1106 28.9621 9.97446C29.0982 9.83831 29.1747 9.65367 29.1747 9.46116V8.2842C29.1747 8.00964 29.0201 7.75876 28.7747 7.63556ZM3.97278 13.0836H6.65246C6.84491 13.0836 7.02946 13.1601 7.16555 13.2962C7.30164 13.4323 7.37813 13.6169 7.37822 13.8093V25.3703C7.37822 25.5628 7.30176 25.7474 7.16567 25.8836C7.02957 26.0197 6.84497 26.0963 6.65246 26.0964H3.97278C3.87737 26.0964 3.7829 26.0776 3.69475 26.0412C3.6066 26.0047 3.5265 25.9512 3.45904 25.8837C3.39158 25.8162 3.33807 25.7361 3.30158 25.648C3.26509 25.5598 3.24633 25.4654 3.24638 25.37V13.8096C3.24642 13.7143 3.26524 13.6199 3.30177 13.5318C3.3383 13.4437 3.39181 13.3637 3.45927 13.2963C3.52672 13.2289 3.60679 13.1755 3.69489 13.139C3.783 13.1026 3.87743 13.0838 3.97278 13.0839V13.0836ZM13.6601 13.0836H16.3398C16.5323 13.0836 16.7168 13.1601 16.8529 13.2962C16.989 13.4323 17.0655 13.6169 17.0656 13.8093V25.3703C17.0656 25.5628 16.9891 25.7474 16.853 25.8836C16.7169 26.0197 16.5323 26.0963 16.3398 26.0964H13.6601C13.5648 26.0963 13.4704 26.0775 13.3823 26.041C13.2942 26.0044 13.2142 25.9509 13.1468 25.8835C13.0794 25.816 13.026 25.736 12.9895 25.6478C12.9531 25.5597 12.9343 25.4653 12.9344 25.37V13.8096C12.9345 13.6172 13.011 13.4326 13.147 13.2965C13.2831 13.1605 13.4677 13.084 13.6601 13.0839V13.0836ZM23.3475 13.0836H26.0269C26.1222 13.0835 26.2166 13.1023 26.3047 13.1387C26.3928 13.1752 26.4729 13.2286 26.5404 13.296C26.6078 13.3634 26.6613 13.4434 26.6979 13.5315C26.7344 13.6196 26.7532 13.714 26.7533 13.8093V25.3703C26.7533 25.4657 26.7345 25.5601 26.698 25.6482C26.6614 25.7363 26.6079 25.8164 26.5405 25.8838C26.473 25.9512 26.3929 26.0047 26.3048 26.0412C26.2167 26.0777 26.1222 26.0964 26.0269 26.0964H23.3475C23.2521 26.0963 23.1577 26.0775 23.0697 26.041C22.9816 26.0044 22.9016 25.9509 22.8342 25.8835C22.7668 25.816 22.7133 25.736 22.6769 25.6478C22.6404 25.5597 22.6217 25.4653 22.6217 25.37V13.8096C22.6218 13.6172 22.6983 13.4326 22.8344 13.2965C22.9705 13.1605 23.155 13.084 23.3475 13.0839V13.0836Z" fill="white"/>
</g>
</svg>
