<svg width="26" height="28" viewBox="0 0 26 28" fill="none" xmlns="http://www.w3.org/2000/svg">
<g id="Group">
<path id="Vector" d="M20.2162 27.3771C20.244 27.7197 19.9855 28 19.6418 28H14.296C13.9522 28 13.6938 27.7197 13.7216 27.3771L14.8984 12.9032C14.9262 12.5606 15.2302 12.2803 15.574 12.2803H18.3637C18.7075 12.2803 19.0115 12.5606 19.0394 12.9032L20.2162 27.3771ZM25.1881 6.91719C25.1881 5.97263 24.4224 5.20687 23.4778 5.20687C22.7307 5.20687 22.0958 5.68613 21.8629 6.35388C21.5493 6.07097 21.1418 5.91463 20.7194 5.91519C19.8761 5.91519 19.1759 6.52575 19.0353 7.32881C18.3939 7.3705 17.8862 7.9025 17.8862 8.55444C17.8862 9.23356 18.4367 9.78413 19.1159 9.78413C19.3064 9.78413 19.486 9.7395 19.647 9.66219C19.9506 9.90747 20.3292 10.041 20.7194 10.0406C21.031 10.0406 21.3229 9.95681 21.5745 9.81119C21.8343 9.96176 22.1294 10.0409 22.4297 10.0406C23.3177 10.0406 24.0475 9.36369 24.1317 8.49775C24.7518 8.24088 25.1881 7.63013 25.1881 6.91719ZM9.29054 27.3773C9.32017 27.7198 9.0631 28 8.71935 28H1.43685C1.0931 28 0.836042 27.7198 0.865667 27.3773L2.41135 9.49337C2.44098 9.15088 2.74642 8.87069 3.09017 8.87069H7.0661C7.40985 8.87069 7.71529 9.15088 7.74492 9.49337L9.29054 27.3773ZM16.9689 2.46619C16.9689 1.10419 15.8648 0 14.5027 0C13.4254 0 12.51 0.691125 12.1741 1.65394C11.7372 1.26081 11.1592 1.02137 10.5252 1.02137C9.30917 1.02137 8.29942 1.90175 8.09679 3.05975C7.17192 3.11981 6.43979 3.88694 6.43979 4.82706C6.43979 5.80638 7.23367 6.60025 8.21298 6.60025C8.48773 6.60025 8.74679 6.53594 8.97892 6.42444C9.41663 6.77813 9.96254 6.97073 10.5253 6.97C10.9747 6.97 11.3955 6.84925 11.7584 6.63925C12.133 6.85637 12.5584 6.97049 12.9914 6.97C14.272 6.97 15.3243 5.99394 15.4457 4.74531C16.3398 4.37488 16.9689 3.49419 16.9689 2.46619Z" fill="white"/>
</g>
</svg>
