<svg width="30" height="32" viewBox="0 0 30 32" fill="none" xmlns="http://www.w3.org/2000/svg">
<g id="Group">
<path id="Vector" d="M28.1982 29.2315H26.7047V2.25991C26.7047 1.01328 25.5444 0.0752202 24.3102 0.346763L12.8807 2.84002C11.9796 3.03751 11.3378 3.83979 11.3378 4.76551V8.36962L5.67244 7.13533C5.3862 7.07268 5.08956 7.07491 4.80429 7.14187C4.51903 7.20884 4.25237 7.33883 4.02391 7.52231C3.79545 7.70579 3.61097 7.9381 3.48402 8.2022C3.35707 8.46629 3.29087 8.75546 3.29027 9.04848V29.229H1.79679C1.10559 29.229 0.5625 29.7845 0.5625 30.4633C0.5625 31.1422 1.10559 31.6976 1.79679 31.6976H28.1982C28.877 31.6976 29.4324 31.1422 29.4324 30.4633C29.4324 29.7845 28.877 29.229 28.1982 29.229V29.2315ZM13.2016 16.901H14.9172C15.1271 16.901 15.2875 17.0726 15.2875 17.2836V19.0721C15.2875 19.1703 15.2485 19.2645 15.1791 19.3339C15.1096 19.4034 15.0154 19.4424 14.9172 19.4424H13.2016C13.1022 19.4424 13.0067 19.4038 12.9353 19.3347C12.8639 19.2656 12.8222 19.1714 12.819 19.0721V17.2824C12.819 17.0726 12.9918 16.901 13.2016 16.901ZM12.819 13.4438V11.6541C12.819 11.4442 12.9918 11.2714 13.2016 11.2714H14.9172C15.1271 11.2714 15.2875 11.4442 15.2875 11.6541V13.4438C15.2875 13.6536 15.1271 13.8141 14.9172 13.8141H13.2016C12.9918 13.8141 12.819 13.6536 12.819 13.4438ZM20.8665 5.48263C20.8665 5.2728 21.0393 5.1 21.2491 5.1H22.9648C23.1623 5.1 23.3351 5.2728 23.3351 5.48263V7.27234C23.3351 7.32097 23.3255 7.36912 23.3069 7.41404C23.2883 7.45897 23.261 7.49979 23.2266 7.53417C23.1922 7.56856 23.1514 7.59583 23.1065 7.61444C23.0616 7.63305 23.0134 7.64263 22.9648 7.64263H21.2491C21.0393 7.64263 20.8665 7.48217 20.8665 7.27234V5.48263ZM20.8665 11.111C20.8665 10.9011 21.0393 10.7283 21.2491 10.7283H22.9648C23.1623 10.7283 23.3351 10.9011 23.3351 11.111V12.9007C23.3351 13.0982 23.1623 13.271 22.9648 13.271H21.2491C21.1498 13.271 21.0543 13.2324 20.9828 13.1633C20.9114 13.0942 20.8697 13 20.8665 12.9007V11.111ZM20.8665 16.7393C20.8665 16.5295 21.0393 16.3567 21.2491 16.3567H22.9648C23.1623 16.3567 23.3351 16.5295 23.3351 16.7393V18.5167C23.3351 18.7265 23.1623 18.8993 22.9648 18.8993H21.2491C21.0393 18.8993 20.8665 18.7265 20.8665 18.5167V16.7393ZM20.8665 22.3553C20.8665 22.1578 21.0393 21.985 21.2491 21.985H22.9648C23.1623 21.985 23.3351 22.1578 23.3351 22.3553V24.145C23.3351 24.3549 23.1623 24.5277 22.9648 24.5277H21.2491C21.0393 24.5277 20.8665 24.3549 20.8665 24.145V22.3553ZM14.6951 5.48263C14.6951 5.2728 14.8679 5.1 15.0777 5.1H16.7934C16.9908 5.1 17.1636 5.2728 17.1636 5.48263V7.27234C17.1636 7.37055 17.1246 7.46473 17.0552 7.53417C16.9857 7.60361 16.8916 7.64263 16.7934 7.64263H15.0777C14.8679 7.64263 14.6951 7.48217 14.6951 7.27234V5.48263ZM6.64753 11.6541C6.64753 11.4442 6.82033 11.2714 7.03016 11.2714H8.74581C8.95564 11.2714 9.1161 11.4442 9.1161 11.6541V13.4438C9.1161 13.6536 8.95564 13.8141 8.74581 13.8141H7.03016C6.82033 13.8141 6.64753 13.6536 6.64753 13.4438V11.6541ZM6.64753 17.2824C6.64753 17.0726 6.82033 16.8998 7.03016 16.8998H8.74581C8.95564 16.8998 9.1161 17.0726 9.1161 17.2824V19.0721C9.1161 19.1703 9.07709 19.2645 9.00765 19.3339C8.9382 19.4034 8.84402 19.4424 8.74581 19.4424H7.03016C6.93078 19.4424 6.83528 19.4038 6.76387 19.3347C6.69246 19.2656 6.65073 19.1714 6.64753 19.0721V17.2824ZM11.3378 29.2303H8.38787V25.1695C8.38787 23.7377 9.5481 22.5775 10.9675 22.5775C12.3993 22.5775 13.5595 23.7402 13.5595 25.1695V29.2303H11.3378Z" fill="#003399"/>
</g>
</svg>
