<svg width="32" height="32" viewBox="0 0 32 32" fill="none" xmlns="http://www.w3.org/2000/svg">
<g id="Group">
<path id="Vector" d="M29.6194 4.24775C28.6208 4.24775 27.8114 5.05721 27.8114 6.05579V9.67186H14.0027C13.5994 8.11496 12.1975 6.9598 10.5145 6.9598H4.18638V2.37945C4.18638 1.38087 3.37693 0.571411 2.37835 0.571411C1.37977 0.571411 0.570312 1.38087 0.570312 2.37945V30.5245C0.570312 31.0238 0.975071 31.4286 1.47433 31.4286H3.28237C3.78163 31.4286 4.18638 31.0238 4.18638 30.5245V27.8125H27.8114V30.5245C27.8114 31.0238 28.2161 31.4286 28.7154 31.4286H30.5234C31.0227 31.4286 31.4275 31.0238 31.4275 30.5245V6.05579C31.4275 5.05721 30.618 4.24775 29.6194 4.24775ZM27.8114 22.3884H14.0027C13.5994 20.8315 12.1975 19.6763 10.5145 19.6763H4.18638V15.096H27.8114V22.3884Z" fill="#003399"/>
</g>
</svg>
