<svg width="16" height="18" viewBox="0 0 16 18" fill="none" xmlns="http://www.w3.org/2000/svg">
<g id="Group">
<path id="Vector" d="M5.21319 4.19902V0.309082L0.438477 5.08379H4.32838C4.81627 5.08379 5.21319 4.68688 5.21319 4.19902Z" fill="white"/>
<path id="Vector_2" d="M13.9311 0H6.2682V4.19885C6.2682 5.26827 5.39815 6.13832 4.3287 6.13832H0.129883V16.0606C0.129883 17.13 0.99993 18 2.06938 18H13.9311C15.0005 18 15.8705 17.13 15.8705 16.0606V1.93946C15.8705 0.870047 15.0005 0 13.9311 0ZM11.9541 14.611H4.04629C3.75506 14.611 3.51895 14.3749 3.51895 14.0836C3.51895 13.7924 3.75506 13.5563 4.04629 13.5563H11.9541C12.2454 13.5563 12.4815 13.7924 12.4815 14.0836C12.4815 14.3749 12.2454 14.611 11.9541 14.611ZM11.9541 12.3516H4.04629C3.75506 12.3516 3.51895 12.1155 3.51895 11.8242C3.51895 11.533 3.75506 11.2969 4.04629 11.2969H11.9541C12.2454 11.2969 12.4815 11.533 12.4815 11.8242C12.4815 12.1155 12.2454 12.3516 11.9541 12.3516ZM11.9541 10.0922H4.04629C3.75506 10.0922 3.51895 9.85609 3.51895 9.56485C3.51895 9.27362 3.75506 9.03751 4.04629 9.03751H11.9541C12.2454 9.03751 12.4815 9.27362 12.4815 9.56485C12.4815 9.85609 12.2454 10.0922 11.9541 10.0922Z" fill="white"/>
</g>
</svg>
