<svg width="18" height="21" viewBox="0 0 18 21" fill="none" xmlns="http://www.w3.org/2000/svg">
<g id="Group">
<path id="Vector" fill-rule="evenodd" clip-rule="evenodd" d="M13.5 9.866C13.6326 9.63633 13.851 9.46874 14.1072 9.4001C14.3634 9.33146 14.6363 9.3674 14.866 9.5L16.598 10.5C16.8277 10.6326 16.9953 10.851 17.0639 11.1072C17.1325 11.3634 17.0966 11.6363 16.964 11.866L13.082 18.59C13.0047 18.7245 12.8968 18.839 12.767 18.924L10.901 20.156C10.7461 20.2582 10.5657 20.3153 10.3801 20.3209C10.1946 20.3264 10.0112 20.2802 9.85037 20.1874C9.68959 20.0946 9.55781 19.9589 9.46979 19.7955C9.38177 19.632 9.34098 19.4473 9.352 19.262L9.486 17.03C9.49486 16.875 9.54008 16.7243 9.618 16.59L13.5 9.866ZM7.428 20C7.36245 19.719 7.33786 19.43 7.355 19.142L7.489 16.91C7.517 16.445 7.653 15.993 7.886 15.59L11.768 8.866C12.1658 8.17698 12.8211 7.67422 13.5896 7.4683C14.3581 7.26239 15.177 7.37019 15.866 7.768L16 7.845V3C16 2.20435 15.6839 1.44129 15.1213 0.87868C14.5587 0.316071 13.7956 0 13 0H3C2.204 0 1.441 0.316 0.879 0.879C0.600228 1.15738 0.379097 1.48801 0.228266 1.85196C0.0774352 2.21591 -0.000133566 2.60603 1.72643e-07 3V17C1.72643e-07 17.796 0.316 18.559 0.879 19.121C1.15738 19.3998 1.48801 19.6209 1.85196 19.7717C2.21591 19.9226 2.60603 20.0001 3 20H7.428ZM4 14H6.175C6.44022 14 6.69457 13.8946 6.88211 13.7071C7.06964 13.5196 7.175 13.2652 7.175 13C7.175 12.7348 7.06964 12.4804 6.88211 12.2929C6.69457 12.1054 6.44022 12 6.175 12H4C3.73478 12 3.48043 12.1054 3.29289 12.2929C3.10536 12.4804 3 12.7348 3 13C3 13.2652 3.10536 13.5196 3.29289 13.7071C3.48043 13.8946 3.73478 14 4 14ZM4 10H8.35C8.61522 10 8.86957 9.89464 9.05711 9.70711C9.24464 9.51957 9.35 9.26522 9.35 9C9.35 8.73478 9.24464 8.48043 9.05711 8.29289C8.86957 8.10536 8.61522 8 8.35 8H4C3.73478 8 3.48043 8.10536 3.29289 8.29289C3.10536 8.48043 3 8.73478 3 9C3 9.26522 3.10536 9.51957 3.29289 9.70711C3.48043 9.89464 3.73478 10 4 10ZM4 6H10C10.2652 6 10.5196 5.89464 10.7071 5.70711C10.8946 5.51957 11 5.26522 11 5C11 4.73478 10.8946 4.48043 10.7071 4.29289C10.5196 4.10536 10.2652 4 10 4H4C3.73478 4 3.48043 4.10536 3.29289 4.29289C3.10536 4.48043 3 4.73478 3 5C3 5.26522 3.10536 5.51957 3.29289 5.70711C3.48043 5.89464 3.73478 6 4 6Z" fill="white"/>
</g>
</svg>
