<svg width="22" height="22" viewBox="0 0 22 22" fill="none" xmlns="http://www.w3.org/2000/svg">
<g id="Group">
<path id="Vector" d="M11.0001 17.7983H20.8849C21.2247 17.7983 21.5001 18.0738 21.5001 18.4136V20.8848C21.5001 21.2245 21.2247 21.5 20.8849 21.5H11.0001C10.6604 21.5 10.3849 21.2245 10.3849 20.8848V18.4136C10.3849 18.0738 10.6603 17.7983 11.0001 17.7983ZM1.04219 16.4068L7.60039 9.84857L10.2178 12.466L3.65969 19.0242C3.29887 19.385 2.8249 19.5655 2.35096 19.5655C1.87703 19.5655 1.40305 19.3851 1.04223 19.0242C0.320564 18.3026 0.320564 17.1284 1.04219 16.4068ZM7.59173 8.10159L11.9559 3.73741L16.3274 8.10885L11.9632 12.4731L7.59173 8.10159ZM18.5089 8.53984L19.3862 9.41717C19.6265 9.65744 19.6265 10.047 19.3862 10.2872L14.144 15.5294C14.0239 15.6496 13.8664 15.7097 13.709 15.7097C13.5516 15.7097 13.3941 15.6496 13.274 15.5294L12.3967 14.6521C12.1564 14.4118 12.1564 14.0223 12.3967 13.7821L17.6388 8.53989C17.8791 8.29958 18.2686 8.29957 18.5089 8.53984ZM6.2844 7.66978C6.04413 7.91005 5.6546 7.91005 5.41433 7.66978L4.53701 6.79246C4.29674 6.55219 4.29674 6.16266 4.53701 5.92239L9.77918 0.680187C10.0194 0.439958 10.4089 0.439917 10.6492 0.680187L11.5266 1.55751C11.7668 1.79778 11.7668 2.18731 11.5266 2.42757L6.2844 7.66978Z" fill="white"/>
</g>
</svg>
