<svg width="20" height="22" viewBox="0 0 20 22" fill="none" xmlns="http://www.w3.org/2000/svg">
<g id="Group">
<path id="Layer 2" d="M18.1166 3.22184C16.7866 3.08024 15.4776 2.78428 14.2161 2.33995C13.0584 1.93083 11.948 1.39872 10.9038 0.752756C10.6314 0.587424 10.3188 0.5 10.0001 0.5C9.68141 0.5 9.36883 0.587424 9.09639 0.752756L9.09539 0.753748C8.05143 1.39919 6.94134 1.93096 5.78411 2.33995C4.52319 2.7841 3.21488 3.08005 1.88556 3.22184C1.45854 3.26532 1.06286 3.46573 0.775137 3.78424C0.487414 4.10275 0.328128 4.5167 0.328125 4.94593V10.0994C0.328848 12.001 0.837793 13.8679 1.80228 15.5069C2.76677 17.1458 4.15175 18.4972 5.81387 19.4211L9.1569 21.2792C9.41434 21.4239 9.70473 21.5 10.0001 21.5C10.2955 21.5 10.5858 21.4239 10.8433 21.2792L14.1863 19.4211C15.8484 18.4972 17.2334 17.1458 18.1979 15.5069C19.1624 13.8679 19.6713 12.001 19.6721 10.0994V4.94692C19.6726 4.51766 19.5138 4.10348 19.2265 3.7846C18.9391 3.46571 18.5436 3.26582 18.1166 3.22184ZM13.9473 9.1758L10.2273 13.1438C10.0505 13.3323 9.80718 13.4443 9.54904 13.456C9.29091 13.4677 9.03843 13.3781 8.84541 13.2063L6.61342 11.2223C6.51112 11.1372 6.42697 11.0325 6.36597 10.9143C6.30498 10.796 6.26839 10.6667 6.25838 10.5341C6.24837 10.4014 6.26515 10.2681 6.30771 10.1421C6.35028 10.016 6.41776 9.89985 6.50614 9.80042C6.59452 9.70098 6.702 9.62035 6.82219 9.5633C6.94237 9.50625 7.0728 9.47396 7.20571 9.46835C7.33863 9.46274 7.47131 9.48391 7.59588 9.53062C7.72044 9.57734 7.83434 9.64862 7.93079 9.74025L9.4416 11.0824L12.5009 7.81875C12.5938 7.72 12.7058 7.64126 12.8301 7.58735C12.9545 7.53345 13.0885 7.50552 13.2241 7.50528C13.4176 7.50518 13.6069 7.56169 13.7687 7.66784C13.9306 7.774 14.0578 7.92517 14.1348 8.10273C14.2117 8.28029 14.2351 8.47649 14.2019 8.66715C14.1688 8.85782 14.0796 9.03463 13.9473 9.1758Z" fill="white"/>
</g>
</svg>
