<svg width="24" height="24" viewBox="0 0 24 24" fill="none" xmlns="http://www.w3.org/2000/svg">
<g id="Group">
<path id="Vector" d="M18.0447 8.98353L12.1993 6.32225C12.1435 6.29684 12.0828 6.28369 12.0215 6.28369C11.9601 6.28369 11.8995 6.29684 11.8436 6.32225L5.98969 8.98781C6.09169 9.03581 12.0193 11.6534 12.0193 11.6534C12.6279 11.386 18.0447 8.98353 18.0447 8.98353ZM5.56543 9.73349V16.9759C5.56567 17.0634 5.59298 17.1487 5.64362 17.2201C5.69426 17.2914 5.76575 17.3454 5.84827 17.3745L11.5908 19.4915V12.399C11.353 12.2889 5.65114 9.77077 5.56543 9.73349ZM12.4479 12.4033V19.4915L18.1904 17.3745C18.2729 17.3454 18.3444 17.2914 18.3951 17.2201C18.4457 17.1487 18.473 17.0634 18.4733 16.9759V9.73349C18.3871 9.76563 12.5885 12.3528 12.4479 12.4033Z" fill="white"/>
<path id="Vector_2" d="M21.8498 16.3119V8.42662C21.8489 8.07767 21.7566 7.73505 21.5822 7.43281C21.4078 7.13058 21.1573 6.87927 20.8556 6.70386C20.8556 6.69957 14.0687 2.79551 14.076 2.78694C14.1671 2.49059 14.1932 2.17807 14.1524 1.87072C14.1117 1.56337 14.0051 1.26844 13.8398 1.00609C13.6746 0.743741 13.4547 0.520151 13.1951 0.350602C12.9356 0.181053 12.6424 0.0695412 12.3358 0.023687C12.0292 -0.0221672 11.7163 -0.0012828 11.4185 0.084913C11.1206 0.171109 10.8449 0.320584 10.6102 0.523124C10.3755 0.725665 10.1872 0.976495 10.0583 1.25847C9.92943 1.54045 9.86294 1.84694 9.86339 2.15698C9.86337 2.37221 9.89662 2.58615 9.96195 2.79123L3.18234 6.70386C2.88068 6.87927 2.63019 7.13058 2.45576 7.43281C2.28134 7.73505 2.18907 8.07767 2.18811 8.42662V16.2776C1.66354 16.3814 1.19616 16.6762 0.876495 17.1049C0.556826 17.5336 0.407616 18.0656 0.45776 18.598C0.507905 19.1304 0.753837 19.6252 1.14793 19.9867C1.54201 20.3481 2.05622 20.5505 2.59094 20.5545C2.90097 20.5552 3.20739 20.488 3.48871 20.3577C3.77003 20.2274 4.01943 20.0371 4.21942 19.8003L11.0247 23.73C11.3263 23.9068 11.6695 24 12.019 24C12.3685 24 12.7117 23.9068 13.0132 23.73L19.72 19.856C19.9468 20.1017 20.2278 20.2913 20.5406 20.4097C20.8535 20.528 21.1896 20.5719 21.5223 20.5378C21.855 20.5037 22.1752 20.3926 22.4576 20.2132C22.7399 20.0339 22.9766 19.7913 23.1489 19.5046C23.3211 19.2179 23.4243 18.895 23.4501 18.5616C23.476 18.2281 23.4238 17.8932 23.2978 17.5834C23.1717 17.2736 22.9753 16.9974 22.7239 16.7767C22.4726 16.556 22.1733 16.3968 21.8498 16.3119ZM12.5847 22.9886C12.4126 23.0876 12.2175 23.1397 12.019 23.1397C11.8205 23.1397 11.6254 23.0876 11.4533 22.9886L4.6394 19.0546C4.71203 18.8437 4.74826 18.622 4.74654 18.3989C4.74623 17.9056 4.57737 17.4271 4.26796 17.0429C3.95854 16.6587 3.52713 16.3917 3.0452 16.2862V8.42662C3.04587 8.22794 3.09842 8.03289 3.19764 7.86076C3.29685 7.68864 3.4393 7.5454 3.61089 7.44525L10.3734 3.54118C10.5747 3.78261 10.8267 3.97684 11.1114 4.11012C11.3962 4.2434 11.7067 4.31249 12.0211 4.31249C12.3355 4.31249 12.6461 4.2434 12.9308 4.11012C13.2155 3.97684 13.4675 3.78261 13.6689 3.54118L20.4271 7.44525C20.5987 7.5454 20.7411 7.68864 20.8403 7.86076C20.9395 8.03289 20.9921 8.22794 20.9928 8.42662V16.2647C20.4793 16.3379 20.0095 16.5942 19.6701 16.9864C19.3307 17.3786 19.1445 17.8802 19.1457 18.3989C19.1441 18.6475 19.1876 18.8944 19.2743 19.1274L12.5847 22.9886Z" fill="white"/>
</g>
</svg>
