<svg width="24" height="20" viewBox="0 0 24 20" fill="none" xmlns="http://www.w3.org/2000/svg">
<g id="Group">
<path id="Vector" d="M20.6133 7.36037V8.03273C19.0577 8.05896 17.5414 8.46765 16.1968 9.21926L15.4717 8.87649C14.2984 8.30945 12.98 8.01955 11.6616 8.01955H10.5542C9.45998 8.01955 8.57668 8.90271 8.57668 9.9971V11.1044C8.57668 13.0425 9.19631 14.9013 10.3563 16.4571L11.2264 17.6171V17.6303C11.2264 18.1576 11.2661 18.6983 11.3583 19.2256L11.4771 19.8848H8.08889C7.7196 19.8848 7.4297 19.5946 7.4297 19.2256V13.293H1.40918C1.0399 13.293 0.75 13.0028 0.75 12.6338V7.36037C0.75 6.99109 1.0399 6.70119 1.40918 6.70119H7.4297V0.768556C7.4297 0.399274 7.7196 0.109375 8.08889 0.109375H13.3623C13.7316 0.109375 14.0215 0.399274 14.0215 0.768556V6.70119H19.9542C20.3233 6.70119 20.6133 6.99109 20.6133 7.36037Z" fill="white"/>
<path id="Vector_2" d="M14.9043 10.063C14.3256 10.5077 13.8032 11.0212 13.3488 11.5923C12.3732 12.7919 11.714 14.1893 11.4108 15.666C10.4351 14.3609 9.89453 12.7788 9.89453 11.1044V9.99707C9.89453 9.62779 10.1847 9.33789 10.5537 9.33789H11.6613C12.7951 9.33789 13.9025 9.58824 14.9043 10.063ZM22.5905 9.33789H20.8239C18.7936 9.33789 16.8688 10.0762 15.3659 11.3945C15.0099 11.6976 14.6803 12.0405 14.3771 12.4097C12.874 14.2818 12.2545 16.668 12.6631 19.0015C12.9276 18.737 15.7129 15.952 15.5373 16.1275C15.7878 15.8638 16.2096 15.8638 16.4601 16.1275C16.7238 16.3781 16.7238 16.7998 16.4601 17.0503C16.296 17.2144 13.4474 20.0629 13.6256 19.8848C14.1593 19.7957 18.4867 20.4954 21.3644 17.0373C22.5905 15.5474 23.2497 13.7149 23.2497 11.7638V9.99707C23.2497 9.62779 22.9596 9.33789 22.5905 9.33789Z" fill="white"/>
</g>
</svg>
